<svg width="133" height="150" viewBox="0 0 133 150" fill="none" xmlns="http://www.w3.org/2000/svg">
<path d="M109.745 121.373C95.1058 138.622 65.5833 158.524 49.3361 143.798C46.2502 141.004 42.12 139.684 37.9844 140.175C16.2071 142.759 3.68216 109.431 1.74829 86.89C-4.48297 25.8954 32.8052 10.6057 73.1121 30.7753C76.5756 32.5073 80.2852 33.6915 84.1099 34.2872C84.8329 34.4006 85.5504 34.5193 86.2625 34.6484C86.3165 34.6593 86.368 34.6672 86.4219 34.6781C96.9506 36.569 106.104 40.0222 113.338 44.8262C121.819 50.4508 127.668 57.9281 130.007 66.9168C133.816 81.5538 128.321 100.194 109.745 121.373V121.373Z" fill="#FF002B"/>
<path d="M63.2482 149.076C57.7381 149.076 53.0328 147.34 49.2409 143.903C46.1877 141.138 42.0902 139.83 38.0013 140.316C32.3743 140.985 27.0436 139.305 22.1565 135.323C10.0461 125.459 3.01483 103.308 1.60761 86.903C0.131913 72.4563 1.04218 60.0319 4.31417 49.976C7.36193 40.6085 12.3884 33.4554 19.2536 28.7144C32.6203 19.4851 52.2741 20.1905 73.1757 30.6495C76.6295 32.3761 80.3154 33.5536 84.1322 34.1481C84.9346 34.2742 85.64 34.3924 86.2885 34.5099L86.4503 34.5402C97.0487 36.4438 106.122 39.8649 113.416 44.7089C122.08 50.4541 127.864 58.1211 130.144 66.8814C134.273 82.748 127.256 101.623 109.852 121.466C99.1977 134.019 80.6299 147.995 65.0439 149.015C64.4366 149.054 63.8379 149.075 63.2482 149.075V149.076ZM39.6813 139.934C43.2647 139.934 46.7434 141.26 49.4306 143.694C53.5692 147.445 58.8132 149.139 65.0251 148.734C80.5287 147.72 99.0183 133.793 109.637 121.282L109.639 121.28C126.978 101.511 133.974 82.725 129.87 66.9535C127.608 58.2617 121.865 50.6517 113.26 44.9453C105.998 40.1224 96.9602 36.7153 86.397 34.8184L86.2345 34.7881C85.5909 34.6711 84.8879 34.5536 84.088 34.4281C80.2433 33.8287 76.5289 32.6427 73.049 30.9028C52.242 20.4911 32.693 19.7784 19.4142 28.9477C9.42427 35.8456 -1.72559 51.4953 1.88942 86.8763C3.29239 103.227 10.2891 125.292 22.3359 135.104C27.1618 139.035 32.4215 140.695 37.9686 140.035C38.5407 139.968 39.1128 139.934 39.6825 139.934H39.6813Z" fill="#512D16"/>
<g opacity="0.3">
<path d="M109.745 121.374C95.1058 138.622 65.5833 158.524 49.3361 143.798C46.2501 141.004 42.12 139.685 37.9844 140.175C30.6823 141.042 24.4213 137.872 19.25 132.426C24.7771 136.041 30.8277 137.535 37.1323 135.606C41.0225 134.419 45.2199 134.97 48.67 137.122C66.8408 148.46 91.7689 124.212 102.848 105.091C108.912 95.0106 112.756 85.788 114.687 77.4871C114.706 77.4089 114.723 77.3307 114.741 77.2525C114.798 77.0126 114.852 76.7726 114.901 76.535C114.903 76.5271 114.906 76.5186 114.906 76.5108C117.207 65.6124 113.625 56.6273 106.182 48.8985C102.106 50.4875 97.6663 51.1293 93.2204 50.6948C93.9113 51.7039 94.4155 52.7505 94.7016 53.8183C79.0234 56.5831 61.8235 49.3161 53.2668 40.5867C56.7952 35.6233 70.6364 37.1772 81.4184 42.0139C82.7135 39.2625 84.4019 36.8184 86.3873 34.7173C86.3982 34.7039 86.4116 34.693 86.4225 34.6797C86.7837 34.7445 87.1455 34.8118 87.5043 34.8791C87.7739 34.9306 88.0412 34.9845 88.3079 35.0385C88.6557 35.1088 89.0012 35.1785 89.3466 35.2518C89.9375 35.3785 90.5254 35.5081 91.1084 35.6457C91.1568 35.6566 91.2053 35.6675 91.2538 35.6809C91.5695 35.7536 91.8823 35.8293 92.195 35.9075C92.4622 35.9724 92.7289 36.0396 92.9937 36.1099C93.0749 36.1287 93.1531 36.1505 93.2313 36.1693C93.4501 36.2257 93.6682 36.2851 93.887 36.3445C94.0004 36.3742 94.1106 36.4039 94.2185 36.4336C94.7743 36.5845 95.327 36.7408 95.8724 36.9026C96.1772 36.9941 96.4797 37.0863 96.7815 37.1778C97.0754 37.2693 97.3669 37.3614 97.6584 37.4553C97.9523 37.5499 98.2462 37.6468 98.5378 37.7438C99.0771 37.9244 99.6141 38.1105 100.146 38.302C100.246 38.3395 100.345 38.3747 100.445 38.4123C100.669 38.4935 100.893 38.5771 101.116 38.6607C101.389 38.7632 101.659 38.8656 101.929 38.9735C102.215 39.0838 102.503 39.2001 102.787 39.3159C103.339 39.5395 103.882 39.7692 104.419 40.0037C104.683 40.1195 104.945 40.2358 105.204 40.3516C105.22 40.3595 105.236 40.368 105.252 40.3734C105.471 40.4734 105.687 40.5728 105.902 40.6758C105.97 40.7055 106.034 40.7376 106.099 40.7673C106.253 40.8401 106.404 40.9104 106.553 40.9861C107.119 41.2558 107.677 41.5364 108.225 41.8224C108.387 41.9061 108.549 41.9897 108.708 42.0758C108.991 42.2242 109.275 42.3782 109.552 42.5345C109.731 42.6315 109.903 42.7315 110.079 42.8285C111.206 43.4654 112.293 44.1314 113.34 44.8272C113.507 44.9405 113.677 45.0538 113.844 45.1672C114.24 45.4368 114.629 45.7096 115.015 45.9871C115.166 46.095 115.314 46.2059 115.463 46.3138C115.53 46.3623 115.595 46.4107 115.657 46.4592C115.821 46.5835 115.986 46.7077 116.148 46.8313C116.334 46.9744 116.52 47.1198 116.701 47.2628C116.885 47.4083 117.068 47.5543 117.246 47.7028C117.608 47.9943 117.961 48.2907 118.306 48.5955C118.46 48.7276 118.608 48.8597 118.759 48.9949C118.802 49.03 118.845 49.0676 118.886 49.1082C119.021 49.2294 119.153 49.3512 119.285 49.4724C119.518 49.6827 119.744 49.8985 119.968 50.1197C120.084 50.23 120.2 50.3409 120.313 50.4542C120.634 50.77 120.947 51.0906 121.254 51.4148C121.26 51.4172 121.262 51.4202 121.265 51.4257C121.416 51.5851 121.567 51.7493 121.716 51.9111C121.856 52.062 121.991 52.2135 122.126 52.3644C122.585 52.8771 123.024 53.4002 123.448 53.9317C123.585 54.1044 123.723 54.2795 123.855 54.4522C123.968 54.5977 124.079 54.7437 124.189 54.8922C124.605 55.448 125.004 56.0146 125.382 56.5891C125.503 56.7697 125.622 56.9534 125.738 57.137C125.843 57.3042 125.948 57.4715 126.051 57.6388C126.409 58.2188 126.746 58.8096 127.068 59.4084C127.151 59.5678 127.235 59.7266 127.316 59.886C127.338 59.9211 127.354 59.9563 127.372 59.9938C127.437 60.1205 127.502 60.2472 127.561 60.3744C127.621 60.4847 127.675 60.5956 127.726 60.709C127.778 60.809 127.826 60.9114 127.875 61.0138C127.942 61.1568 128.01 61.3023 128.072 61.4483C128.226 61.7829 128.374 62.1228 128.514 62.4628C128.603 62.6731 128.687 62.8889 128.77 63.1022C128.86 63.3234 128.943 63.547 129.024 63.7713C129.043 63.8197 129.061 63.8682 129.078 63.9167C129.148 64.1082 129.215 64.2997 129.277 64.4912C129.482 65.0821 129.666 65.6785 129.833 66.2827C129.884 66.4578 129.933 66.6336 129.978 66.8111C129.989 66.8463 130 66.8814 130.006 66.919H130.008C133.817 81.5536 128.322 100.193 109.746 121.375L109.745 121.374Z" fill="#512D16"/>
</g>
<g opacity="0.3">
<path d="M86.2632 34.6499C86.3171 34.6608 86.3686 34.6687 86.4226 34.6796C86.4117 34.6929 86.3983 34.7038 86.3874 34.7172C86.3468 34.6954 86.3038 34.6711 86.2632 34.6499Z" fill="#512D16"/>
</g>
<g opacity="0.3">
<path d="M102.786 39.3164C103.338 39.54 103.881 39.7697 104.418 40.0043C103.881 39.7667 103.336 39.5376 102.786 39.3164Z" fill="#512D16"/>
</g>
<g opacity="0.6">
<path d="M111.267 43.5198C104.456 40.0079 96.3739 37.488 87.3482 36.0856C83.5229 35.4923 79.8139 34.3051 76.3504 32.5736C36.0435 12.4065 -1.24527 27.6962 4.9866 88.6883C6.47321 106.012 14.2123 129.705 27.6002 138.574C12.2215 131.642 3.35212 105.564 1.74976 86.8914C-4.48151 25.8969 32.8067 10.6072 73.1136 30.7767C76.5771 32.5088 80.2866 33.693 84.1113 34.2887C94.6127 35.9232 103.836 39.0661 111.268 43.5198H111.267Z" fill="white"/>
</g>
<path d="M63.2417 150C57.4995 150 52.5882 148.183 48.6211 144.588C45.7666 142.001 41.9365 140.778 38.1112 141.232C32.226 141.932 26.6619 140.184 21.5731 136.038C9.25354 126.004 2.1114 103.574 0.689034 86.981C-0.798786 72.4215 0.125422 59.8699 3.43681 49.6922C6.5482 40.1283 11.6934 32.8159 18.7283 27.9579C32.3799 18.5304 52.3761 19.2115 73.5886 29.8251C76.9569 31.5104 80.5519 32.6583 84.2742 33.237C107.71 36.8824 124.399 47.9165 130.06 63.5098C132.977 71.5458 132.932 80.4867 129.926 90.0839C126.726 100.296 120.208 111.057 110.55 122.07C99.7736 134.766 80.958 148.9 65.1065 149.938C64.4756 149.979 63.8544 150 63.2423 150L63.2417 150ZM39.6826 139.012C43.494 139.012 47.1926 140.422 50.0495 143.011C53.9966 146.588 59.017 148.205 64.9671 147.815C80.2041 146.817 98.4391 133.053 108.934 120.687C108.937 120.683 108.941 120.678 108.945 120.674C127.27 99.7799 133.88 80.2637 128.061 64.2358C122.673 49.394 106.594 38.8617 83.9481 35.3394C80.0083 34.7261 76.203 33.511 72.6377 31.7274C52.1397 21.4721 32.9314 20.7363 19.938 29.7087C5.9064 39.398 -0.0169974 59.1342 2.80774 86.7828C4.19496 102.96 11.0783 124.746 22.9172 134.39C27.5425 138.157 32.5702 139.749 37.8609 139.121C38.4687 139.049 39.0778 139.013 39.6832 139.013L39.6826 139.012Z" fill="#512D16"/>
<path d="M75.1473 53.4828C83.3112 35.9562 84.1414 18.9315 80.064 3.18119C79.6731 1.67156 78.1302 0.76553 76.6193 1.15218L69.5675 2.95635C67.9984 3.35755 67.2985 5.18839 68.1972 6.5356C77.3623 20.2799 78.5859 35.2484 69.8675 51.7429" fill="#EF701B"/>
<path d="M75.2752 53.5425L75.0189 53.4231C82.6556 37.028 84.307 20.1366 79.9272 3.21726C79.5569 1.78701 78.0885 0.922201 76.6546 1.28946L69.6033 3.09363C68.9009 3.27302 68.3495 3.76451 68.0901 4.44085C67.8307 5.1184 67.9125 5.85352 68.3155 6.45774C72.9808 13.4544 75.5261 20.7372 75.8807 28.1017C76.2479 35.7469 74.2674 43.7229 69.993 51.8093L69.7427 51.6772C78.0715 35.9202 77.5121 20.759 68.0804 6.61409C67.6258 5.9323 67.5337 5.10385 67.8264 4.33964C68.1192 3.57664 68.741 3.02212 69.533 2.8197L76.5843 1.01553C78.1685 0.610091 79.7914 1.56581 80.2005 3.14636C84.5973 20.1311 82.9404 37.0868 75.2752 53.5431V53.5425Z" fill="#512D16"/>
<g opacity="0.6">
<path d="M71.5967 51.6525L75.3626 53.0094C75.2923 53.1657 75.2196 53.3251 75.1469 53.4815L69.8677 51.744C78.5861 35.2483 77.3644 20.2798 68.1981 6.53546C67.2999 5.18945 67.9987 3.35801 69.5683 2.9556L76.6195 1.15083C77.3886 0.953866 78.1649 1.09143 78.794 1.47748L72.63 2.87743C71.0495 3.23378 70.3022 5.04643 71.1628 6.41668C79.9485 20.4064 80.7636 35.4022 71.5973 51.6518L71.5967 51.6525Z" fill="white"/>
</g>
<path d="M75.1465 54.5468C74.9962 54.5468 74.8435 54.5147 74.698 54.4468C74.1653 54.199 73.935 53.5663 74.1829 53.0336C81.7268 36.8378 83.3595 20.1549 79.0342 3.44824C78.7912 2.50949 77.8264 1.94164 76.8834 2.18284L69.8322 3.98701C69.4237 4.09185 69.1025 4.3773 68.9516 4.77122C68.8001 5.16575 68.8479 5.59361 69.0831 5.94572C73.8429 13.0836 76.4398 20.5227 76.8022 28.057C77.1779 35.8694 75.161 44.0054 70.8085 52.2402C70.534 52.759 69.8903 52.9578 69.371 52.6833C68.8516 52.4087 68.6528 51.7651 68.928 51.2457C77.201 35.5942 76.6731 21.1621 67.3135 7.12567C66.7002 6.20571 66.5705 5.04091 66.9656 4.00943C67.3607 2.97856 68.2353 2.19981 69.3049 1.92588L76.3567 0.121707C78.4336 -0.408575 80.5584 0.843497 81.0941 2.91432C85.5461 20.1118 83.8698 37.2766 76.1119 53.9317C75.9313 54.319 75.5477 54.5462 75.1471 54.5462L75.1465 54.5468Z" fill="#512D16"/>
<path d="M121.576 29.237C115.088 43.3861 98.3562 49.5998 84.204 43.1109C82.6883 42.4158 81.2666 41.6062 79.9399 40.6904C80.3017 39.499 80.7502 38.3178 81.2829 37.1554C87.7711 23.0063 104.504 16.7956 118.654 23.2839C120.17 23.979 121.594 24.7899 122.919 25.7074C122.556 26.8952 122.109 28.074 121.576 29.2364V29.237Z" fill="#73C612"/>
<path d="M95.9106 45.8169C91.9653 45.8169 87.96 44.9891 84.145 43.2401C82.6414 42.5504 81.1997 41.7322 79.8597 40.8074L79.7749 40.7486L79.8052 40.6499C80.1688 39.4517 80.6234 38.2566 81.1548 37.0967C87.6655 22.8984 104.514 16.6435 118.713 23.156C120.224 23.8481 121.665 24.6681 123 25.5923L123.085 25.6511L123.054 25.7498C122.687 26.9504 122.233 28.1437 121.705 29.2964C116.943 39.6808 106.65 45.8169 95.9106 45.8169ZM80.1058 40.6335C81.4082 41.5244 82.8063 42.3146 84.2632 42.9831C98.3208 49.4289 115.002 43.2364 121.448 29.1788C121.957 28.0691 122.396 26.9213 122.754 25.7662C121.457 24.8753 120.058 24.0845 118.595 23.4136C104.537 16.9678 87.857 23.159 81.4118 37.2155C80.9003 38.3318 80.4609 39.4814 80.1058 40.6341V40.6335Z" fill="#512D16"/>
<g opacity="0.3">
<path d="M122.92 25.7071C122.556 26.8968 122.108 28.0731 121.576 29.2354C115.089 43.387 98.3556 49.5995 84.2046 43.1119C82.6889 42.4161 81.2672 41.6065 79.9399 40.6895C80.1854 39.8859 80.469 39.0848 80.7926 38.2915C81.3593 38.6017 81.9417 38.8932 82.538 39.1654C96.6896 45.653 113.422 39.4405 119.91 25.2889C120.083 24.9138 120.247 24.5338 120.398 24.1562C121.275 24.6338 122.114 25.1514 122.921 25.7071H122.92Z" fill="#512D16"/>
</g>
<g opacity="0.6">
<path d="M122.92 25.7069C122.828 26.0039 122.734 26.3002 122.631 26.5972C121.79 26.0954 120.913 25.6366 120.004 25.2215C105.853 18.7314 89.1201 24.9439 82.6324 39.0924C82.2331 39.9639 81.8797 40.8457 81.5749 41.736C81.0137 41.4045 80.4689 41.056 79.9404 40.6894C80.3022 39.4997 80.7495 38.3179 81.284 37.1556C87.7716 23.007 104.505 16.797 118.656 23.2846C120.169 23.9779 121.593 24.79 122.921 25.7069H122.92Z" fill="white"/>
</g>
<path d="M95.9087 46.7388C91.8343 46.7388 87.6993 45.8843 83.7601 44.0777C82.208 43.3656 80.719 42.5208 79.3354 41.5657C78.9542 41.3027 78.787 40.8239 78.9215 40.3809C79.2972 39.1434 79.7663 37.9089 80.3154 36.7113C87.0381 22.0513 104.435 15.594 119.096 22.3167C120.656 23.0313 122.145 23.8779 123.524 24.833C123.905 25.0966 124.071 25.576 123.935 26.0184C123.557 27.2584 123.088 28.4904 122.542 29.6795C117.625 40.4021 106.998 46.7376 95.9081 46.7376L95.9087 46.7388ZM81.1972 40.2524C82.2911 40.9596 83.4486 41.5948 84.6473 42.1451C98.2425 48.3793 114.375 42.3899 120.61 28.7947C121.006 27.9305 121.359 27.042 121.662 26.1457C120.571 25.4384 119.414 24.8033 118.211 24.2518C104.616 18.0181 88.4835 24.0058 82.2498 37.5998C81.8517 38.4688 81.499 39.3579 81.1972 40.253V40.2524Z" fill="#512D16"/>
<path d="M85.4995 55.8236C73.2 55.8236 61.8689 50.7081 51.7003 40.5382C51.2845 40.1231 51.2851 39.4497 51.7003 39.034C52.116 38.6189 52.7893 38.6189 53.2044 39.034C65.6452 51.4759 79.8725 56.0285 95.4918 52.5644C96.0645 52.4377 96.6336 52.7989 96.7609 53.3728C96.8882 53.9461 96.5264 54.514 95.953 54.6413C92.398 55.4297 88.9109 55.8236 85.5001 55.8236H85.4995Z" fill="#512D16"/>
<path d="M79.5673 39.6948L87.9597 36.5544C90.7614 35.5186 93.5449 34.4338 96.3302 33.3551C99.1144 32.2721 101.95 31.3279 104.795 30.4067C107.643 29.4946 110.506 28.6238 113.417 27.8814C113.56 27.845 113.707 27.9311 113.743 28.0741C113.774 28.1983 113.714 28.3238 113.604 28.3789C110.921 29.7298 108.189 30.9522 105.441 32.1339C102.691 33.306 99.9319 34.4557 97.1205 35.4659C94.3109 36.4804 91.4989 37.4895 88.7057 38.547L80.3133 41.6875C79.763 41.8935 79.1503 41.6142 78.9443 41.0639C78.7382 40.5136 79.0176 39.9009 79.5679 39.6948H79.5673Z" fill="#512D16"/>
<path d="M102.228 31.5303L110.099 34.8811C110.234 34.9387 110.297 35.0956 110.24 35.2314C110.189 35.3514 110.06 35.4144 109.937 35.3878L101.581 33.5569C101.004 33.4309 100.64 32.8612 100.766 32.2848C100.892 31.7085 101.461 31.3437 102.038 31.4697C102.102 31.4837 102.169 31.5061 102.227 31.5303H102.228Z" fill="#512D16"/>
<path d="M97.344 29.0303L92.22 37.0573C91.903 37.5542 91.243 37.6997 90.7461 37.3827C90.2491 37.0658 90.1037 36.4058 90.4206 35.9088C90.4522 35.8591 90.4915 35.8088 90.5291 35.7664L96.9216 28.7073C97.0204 28.5982 97.1895 28.5897 97.2985 28.6885C97.3967 28.777 97.4131 28.9225 97.3446 29.0297L97.344 29.0303Z" fill="#512D16"/>
<g opacity="0.19">
<path d="M32.281 112.223C34.5256 109.979 34.5256 106.34 32.281 104.095C30.0364 101.85 26.3972 101.85 24.1526 104.095C21.908 106.34 21.908 109.979 24.1526 112.223C26.3972 114.468 30.0364 114.468 32.281 112.223Z" fill="white"/>
</g>
<g opacity="0.19">
<path d="M17.398 61.1217C11.7171 71.6322 11.0837 82.4354 15.5163 92.6708C16.8781 95.8149 20.5767 97.2088 23.7014 95.804C26.7019 94.455 28.1146 90.9933 26.9249 87.9255C23.9117 80.1555 23.6196 72.1498 26.0541 64.8604C26.9401 62.2078 25.3456 59.3703 22.619 58.7485C20.5434 58.2752 18.4101 59.2491 17.3974 61.1217H17.398Z" fill="white"/>
</g>
<g opacity="0.3">
<path d="M110.762 43.2236C111.612 43.7176 112.44 44.2327 113.244 44.7666C112.44 44.2351 111.612 43.7224 110.762 43.2236Z" fill="#512D16"/>
</g>
<g opacity="0.3">
<path d="M114.685 77.4895C114.703 77.4113 114.722 77.3301 114.741 77.252C114.722 77.3301 114.706 77.4083 114.687 77.4865L114.685 77.4889V77.4895Z" fill="#512D16"/>
</g>
<g opacity="0.3">
<path d="M120.312 50.4551C120.633 50.7708 120.948 51.0914 121.253 51.4156C120.945 51.092 120.632 50.7708 120.312 50.4551Z" fill="#512D16"/>
</g>
<g opacity="0.3">
<path d="M130.007 66.9184H130.004C129.999 66.8808 129.988 66.8457 129.977 66.8105C129.988 66.8457 129.999 66.8833 130.007 66.9184Z" fill="#512D16"/>
</g>
<g opacity="0.3">
<path d="M81.1724 40.6905C91.4513 29.1994 103.332 23.6511 117.522 26.6704L81.1724 40.6905Z" fill="#512D16"/>
</g>
<g opacity="0.25">
<path d="M91.5054 65.8817C90.1757 70.2063 79.5349 70.7724 67.7378 67.1458C55.9407 63.5193 47.455 57.0735 48.7846 52.7488C50.1143 48.4242 58.3479 55.6887 70.145 59.3152C81.9421 62.9418 92.835 61.5564 91.5054 65.8817Z" fill="white"/>
</g>
</svg>
