<svg width="24" height="24" viewBox="0 0 24 24" fill="none" xmlns="http://www.w3.org/2000/svg">
<g clip-path="url(#clip0_319_8837)">
<path d="M14.8772 5.21497C14.7181 5.29423 14.6175 5.45675 14.6175 5.6345L14.6175 9.31558L0.396561 11.537C0.168327 11.5726 -3.08837e-07 11.7691 -2.98739e-07 12.0001L-2.98576e-07 12.0039C0.00192158 12.2361 0.173624 12.4319 0.403593 12.4642L14.6175 14.4624L14.6175 18.3657C14.6175 18.6246 14.8273 18.8345 15.0862 18.8345C15.1877 18.8345 15.2863 18.8016 15.3675 18.7407L23.8125 12.3746C24.0195 12.2193 24.0615 11.9255 23.9062 11.7184C23.8795 11.6829 23.848 11.6513 23.8125 11.6246L15.3675 5.25903C15.2255 5.15276 15.0358 5.13575 14.8772 5.21497Z" fill="#512D16"/>
</g>
<defs>
<clipPath id="clip0_319_8837">
<rect width="24" height="24" fill="white" transform="translate(0 24) rotate(-90)"/>
</clipPath>
</defs>
</svg>
