<svg width="146" height="149" viewBox="0 0 146 149" fill="none" xmlns="http://www.w3.org/2000/svg">
<path d="M102.048 49.2222C82.6431 60.6915 54.089 62.3645 40.488 51.4243C33.7361 45.9936 28.8732 39.577 27.4279 31.8862C27.1795 30.5644 26.1668 29.373 24.7601 28.8059L24.7415 28.7983C22.8802 28.0477 20.8305 28.1733 19.3673 29.155C-8.83572 48.0743 3.38 73.4543 22.7456 86.3144C43.6125 100.171 76.1396 99.0268 96.5001 78.1048C103.031 71.3936 107.465 63.7228 109.804 55.8575L102.048 49.2222Z" fill="#FEDA24"/>
<g opacity="0.8">
<path d="M37.622 52.2C52.2213 65.4877 77.8186 62.9607 99.3498 50.7229C80.0801 60.8166 53.4714 61.8679 40.4878 51.4245C33.7359 45.9938 28.873 39.5772 27.4277 31.8864C27.1793 30.5646 26.1666 29.3732 24.7599 28.8061L24.7413 28.7985C24.2859 28.615 23.8189 28.4846 23.3525 28.4053C25.5257 37.2971 30.508 45.7254 37.6213 52.2H37.622Z" fill="white"/>
</g>
<g opacity="0.3">
<path d="M105.343 52.0421C103.38 55.5639 100.799 58.9471 97.5947 62.0612C96.7599 62.8725 95.8996 63.6424 95.0173 64.3771C78.4098 79.9091 52.3799 80.6383 35.6054 70.1038C21.4208 61.1961 11.9543 44.4851 26.9226 30.6151C26.4445 29.8348 25.6919 29.1822 24.7598 28.8069L24.7412 28.7993C22.8799 28.0487 20.8303 28.1743 19.3663 29.156C17.6955 30.277 16.1715 31.4208 14.7773 32.5833C-4.66564 50.7375 7.04094 72.8682 24.6971 84.5927C44.211 97.5514 73.9214 97.3886 94.3433 80.203C95.0752 79.5269 95.7955 78.8294 96.4992 78.1058C103.03 71.3946 107.464 63.7238 109.803 55.8585L105.343 52.0427L105.343 52.0421Z" fill="#512D16"/>
</g>
<path d="M22.2943 28.3147C23.1035 28.3147 23.9403 28.4754 24.7413 28.7983L24.7599 28.8059C26.1666 29.3729 27.1786 30.5644 27.4277 31.8862C28.8737 39.577 33.7359 45.9936 40.4878 51.4243C46.7043 56.4246 56.0405 58.7895 66.2024 58.7895C78.2753 58.7895 91.5114 55.4497 102.048 49.2222L109.804 55.8575C107.465 63.7228 103.031 71.3936 96.4999 78.1047C84.9382 89.9859 69.4524 95.4891 54.4068 95.4891C42.9576 95.4891 31.7629 92.3025 22.7455 86.3143C3.37912 73.4543 -8.8366 48.0742 19.3671 29.1549C20.2005 28.5961 21.2236 28.3147 22.2943 28.3147ZM22.295 25.5586C20.651 25.5586 19.1077 26.0112 17.8321 26.8666C11.7929 30.9183 7.21279 35.4805 4.22008 40.4269C1.40744 45.0753 -0.0123371 50.0501 8.0755e-05 55.2152C0.0145682 61.4648 2.18907 67.9814 6.28765 74.0607C9.98817 79.5494 15.1519 84.5807 21.2215 88.6109C30.5777 94.824 42.3636 98.2458 54.4075 98.2458C62.5178 98.2458 70.3803 96.755 77.7779 93.814C85.6571 90.682 92.6207 86.0439 98.475 80.0274C105.086 73.2349 109.917 65.1488 112.445 56.6432C112.756 55.6001 112.422 54.4715 111.595 53.7637L103.84 47.1284C103.328 46.6903 102.69 46.4668 102.047 46.4668C101.565 46.4668 101.081 46.5931 100.645 46.8504C90.7705 52.6868 78.2167 56.0341 66.2024 56.0341C56.1508 56.0341 47.6315 53.6347 42.2146 49.2781C35.3061 43.7218 31.3552 37.8668 30.1355 31.3784C29.7119 29.1253 28.0465 27.1605 25.7899 26.2512L25.7616 26.2402C24.6454 25.7904 23.476 25.56 22.2936 25.56L22.295 25.5586Z" fill="#512D16"/>
<path d="M100.993 56.2882C101.064 56.3564 100.83 56.7304 100.318 57.3809C99.8107 58.0356 99.0139 58.9552 97.9563 60.1128C95.8287 62.4108 92.6525 65.6726 88.249 69.2179C86.0428 70.9812 83.5144 72.8011 80.6031 74.4734C77.7028 76.1567 74.3783 77.6344 70.6992 78.661C67.018 79.6599 62.9725 80.1539 58.8208 79.92L58.0405 79.8848L57.261 79.8096C56.7408 79.7558 56.2158 79.7158 55.6936 79.6482C54.6532 79.4881 53.597 79.3557 52.556 79.1232C50.4567 78.7251 48.3781 78.1284 46.3036 77.4613C45.2777 77.0984 44.2457 76.7666 43.255 76.3554C42.7562 76.1588 42.2588 75.9622 41.7628 75.7662C41.2757 75.5531 40.7908 75.3406 40.3071 75.1288C39.3337 74.7176 38.3955 74.2547 37.4614 73.8035C36.9943 73.5807 36.5287 73.3565 36.0658 73.1033C35.6035 72.857 35.1379 72.6218 34.6929 72.3513C31.0869 70.2872 27.9162 67.7071 25.4313 64.7633C22.9401 61.8286 21.1312 58.5592 20.0633 55.3009C19.5335 53.67 19.1775 52.0502 18.9553 50.48C18.7553 48.9064 18.6925 47.3859 18.7318 45.942C18.8291 43.0514 19.3548 40.4871 19.9943 38.314C20.6435 36.1409 21.3913 34.3403 22.1074 32.9288C22.4448 32.2127 22.7966 31.6042 23.0995 31.0778C23.2526 30.815 23.3892 30.5708 23.5265 30.3548C23.6693 30.1424 23.799 29.9492 23.9149 29.7753C24.3875 29.0903 24.6745 28.7571 24.76 28.8054C24.8455 28.8537 24.7248 29.2807 24.4213 30.043C24.3426 30.2327 24.2557 30.4445 24.1591 30.677C24.0674 30.9123 23.9673 31.1696 23.859 31.4476C23.641 32.003 23.374 32.6349 23.1236 33.3648C22.5793 34.806 22.0081 36.601 21.5314 38.7134C21.0636 40.8252 20.7063 43.2694 20.7408 45.9613C20.7663 47.3066 20.8843 48.7091 21.123 50.1489C21.383 51.5852 21.7604 53.0561 22.2895 54.5296C23.3582 57.4734 25.0767 60.4026 27.4105 63.0476C29.7382 65.6995 32.6929 68.0389 36.0671 69.9285C36.4825 70.1761 36.9191 70.3907 37.3517 70.617C37.7787 70.8467 38.2306 71.0599 38.6859 71.273C39.5931 71.7028 40.5031 72.1457 41.4413 72.5362C41.9077 72.7383 42.3754 72.9412 42.8459 73.1447C43.3219 73.331 43.7993 73.5172 44.2788 73.7049C45.2308 74.0981 46.2153 74.4113 47.1949 74.759C49.17 75.3937 51.141 75.9649 53.1141 76.3471C54.0951 76.5727 55.0823 76.6996 56.0578 76.8583C56.5463 76.9252 57.0354 76.9652 57.5217 77.0204L58.2496 77.0977L58.976 77.1363C62.8414 77.3902 66.5806 76.9866 70.0313 76.1243C73.478 75.2337 76.6432 73.9277 79.4627 72.4058C82.2905 70.8971 84.8024 69.2331 87.0293 67.6153C91.4777 64.3611 94.8353 61.356 97.1837 59.3167C98.3523 58.2881 99.2719 57.4982 99.9094 56.9746C100.551 56.4558 100.922 56.215 100.993 56.2833L100.993 56.2882Z" fill="#512D16"/>
<path d="M12.876 34.2514L20.9076 37.6325L28.6025 36.11C28.6025 36.11 28.0416 30.0066 26.0575 28.4109C20.7392 24.1364 12.876 34.2507 12.876 34.2507V34.2514Z" fill="#512D16"/>
<path d="M117.531 53.1968C115.687 53.3851 113.928 53.1354 112.269 52.3179C111.902 52.1372 110.772 49.6839 110.429 49.4639C93.8889 72.9398 68.1266 82.5016 50.9155 73.8767C43.0095 69.9147 36.6543 65.1 33.4857 56.7794C32.9413 55.3492 31.6706 54.3234 30.1508 54.144L30.1308 54.1419C28.1198 53.9046 26.1212 54.7325 24.896 56.344C1.27858 87.4149 19.0982 112.387 41.1592 120.641C64.9304 129.535 96.8429 117.366 112.251 86.6215C117.96 75.2295 120.611 63.3056 120.475 52.2006C119.567 52.738 118.559 53.0919 117.531 53.1968Z" fill="#FEDA24"/>
<g opacity="0.8">
<path d="M108.658 52.1929C108.636 52.1094 108.624 52.0246 108.608 51.9404C92.0446 73.602 67.507 82.1924 50.9146 73.8773C43.5805 70.2016 37.5827 65.7905 34.2237 58.5295C33.9926 59.0455 33.4468 60.2687 33.4848 60.3687C36.6534 68.6893 43.0086 73.5033 50.9146 77.466C67.8057 85.9308 92.9325 76.8769 109.496 54.346C109.143 53.6631 108.859 52.9442 108.658 52.1929Z" fill="white"/>
</g>
<g opacity="0.3">
<path d="M117.653 53.1791C117.169 56.1187 116.32 59.2183 114.885 62.7154C113 67.3024 110.663 71.4486 107.99 75.1587C93.1494 98.6512 65.2368 106.55 47.9001 98.6395C32.7206 91.7117 22.0792 77.0973 30.5027 54.205C30.3854 54.1774 30.2681 54.1567 30.1515 54.1429H30.1308C28.1191 53.9049 26.1205 54.7321 24.8946 56.3443C24.44 56.9424 24.0061 57.5378 23.5818 58.1311C5.16748 86.9654 22.2641 109.821 43.1827 117.648C64.2399 125.528 91.6834 116.876 108.387 93.4281C109.766 91.2716 111.059 89.0039 112.251 86.6239C117.96 75.2312 120.613 63.3073 120.475 52.2002C119.601 52.7162 118.638 53.0619 117.654 53.1798L117.653 53.1791Z" fill="#512D16"/>
</g>
<path d="M124.527 49.4638H124.528H124.527ZM124.527 49.4638C123.992 59.247 117.193 76.7596 112.25 86.6215C100.136 110.793 77.8232 123.482 57.2827 123.482C51.6968 123.482 46.2405 122.543 41.1575 120.642C19.0965 112.387 1.27614 87.4155 24.8942 56.3447C25.9815 54.9145 27.6765 54.1019 29.4488 54.1019C29.6744 54.1019 29.9021 54.115 30.129 54.1419L30.149 54.1439C31.6681 54.3233 32.9389 55.3492 33.4839 56.7793C36.6525 65.0993 42.9125 70.8211 50.8179 74.7824C54.7315 76.7437 59.3096 77.6758 64.2367 77.6758C79.3603 77.6758 97.7656 68.8895 110.286 54.1012L124.525 49.4631M124.526 46.7077C124.49 46.7077 124.454 46.7084 124.417 46.7098C124.136 46.7208 123.866 46.774 123.612 46.8629L109.434 51.481C108.947 51.6397 108.514 51.9301 108.184 52.3206C96.7384 65.8381 79.0781 74.9204 64.2367 74.9204C59.5966 74.9204 55.4973 74.0449 52.0527 72.3189C43.9846 68.2755 38.7525 62.8716 36.0592 55.7983C35.141 53.3878 33.0003 51.7052 30.4719 51.4065L30.4464 51.4037C30.1194 51.3651 29.782 51.3451 29.4481 51.3451C26.8079 51.3451 24.285 52.5896 22.6997 54.6758C9.5009 72.0401 9.79479 86.2855 12.3653 95.1781C15.9444 107.558 26.3464 118.042 40.1909 123.222C45.5382 125.222 51.2884 126.237 57.2814 126.237C68.3001 126.237 79.4113 122.848 89.4126 116.435C99.9939 109.651 108.742 99.7685 114.713 87.8557C119.247 78.8072 126.654 60.4715 127.273 49.6915C127.279 49.6163 127.282 49.5404 127.282 49.4631C127.282 47.953 126.068 46.7263 124.563 46.707C124.55 46.707 124.538 46.707 124.525 46.707L124.526 46.7077Z" fill="#512D16"/>
<path d="M112.859 65.7066C112.947 65.7507 112.819 66.2102 112.494 67.0477C112.332 67.4665 112.12 67.979 111.861 68.5813C111.594 69.1787 111.274 69.8638 110.91 70.6337C109.431 73.6968 107.151 78.0872 103.635 83.1233C101.863 85.6276 99.7623 88.285 97.1767 90.8589C94.5945 93.4246 91.5383 95.9447 87.8957 97.942C87.6694 98.0689 87.4424 98.1958 87.2155 98.3235C86.9851 98.4463 86.7471 98.5559 86.5118 98.6725C86.0385 98.8995 85.5687 99.143 85.0838 99.3596C84.5939 99.5652 84.1007 99.7722 83.6047 99.9798C83.1121 100.197 82.5926 100.351 82.0835 100.54C80.0318 101.253 77.8773 101.822 75.6545 102.176C73.4351 102.547 71.1523 102.77 68.8419 102.8L67.9733 102.821C67.6836 102.826 67.3945 102.814 67.1034 102.81C66.5232 102.799 65.9402 102.787 65.3559 102.775C64.1921 102.695 63.0152 102.659 61.8451 102.522C59.4933 102.319 57.2008 101.94 54.9484 101.548C54.3889 101.436 53.8315 101.324 53.2761 101.212C52.7173 101.091 52.1757 101.005 51.61 100.857C50.4862 100.597 49.3824 100.286 48.3062 99.9191C43.9972 98.4649 40.1449 96.1269 37.1074 93.2376C35.5862 91.7958 34.2568 90.2298 33.1385 88.5954C32.0223 86.9584 31.1109 85.2626 30.3686 83.5703C28.8764 80.1796 28.1375 76.7992 27.7595 73.7216C27.3973 70.6337 27.447 67.8259 27.6305 65.3892C27.8437 62.9519 28.1872 60.8795 28.546 59.2065C28.9164 57.5356 29.2641 56.2552 29.5663 55.406C29.8567 54.5533 30.0554 54.12 30.1506 54.1435C30.2458 54.1669 30.2341 54.6464 30.1251 55.5322C30.0057 56.4159 29.836 57.7164 29.638 59.3845C29.4518 61.054 29.2759 63.0981 29.2179 65.4672C29.1889 67.8342 29.2814 70.5316 29.7505 73.4477C30.2341 76.3542 31.0433 79.5001 32.5155 82.5983C33.2482 84.1457 34.1278 85.6841 35.184 87.1598C36.243 88.6334 37.4847 90.0345 38.8928 91.3218C41.7061 93.9006 45.2287 95.9785 49.1906 97.279C50.1799 97.6067 51.1961 97.8854 52.233 98.1179C52.7401 98.2489 53.2989 98.3359 53.8328 98.4483C54.373 98.5539 54.9146 98.6601 55.4589 98.7664C57.6417 99.1354 59.8603 99.4983 62.1149 99.6922C63.2407 99.8253 64.3618 99.8584 65.4746 99.9385C66.0306 99.9509 66.5846 99.9633 67.1372 99.9764C67.4131 99.9805 67.6898 99.9937 67.9644 99.9902L68.7867 99.973C70.9771 99.955 73.1233 99.7563 75.2026 99.4279C77.2867 99.1161 79.2936 98.607 81.208 97.9702C81.6826 97.7998 82.169 97.6667 82.6285 97.4701C83.0921 97.2838 83.5529 97.0989 84.011 96.9147C84.4649 96.7209 84.9037 96.5008 85.348 96.2973C85.5681 96.1917 85.7916 96.0944 86.0082 95.9841C86.222 95.8689 86.4352 95.7536 86.6477 95.6398C90.0716 93.8434 93.0029 91.544 95.5354 89.1687C98.0708 86.7866 100.192 84.2933 102.019 81.9291C105.65 77.1738 108.175 72.9834 109.939 70.1059C110.375 69.3823 110.769 68.7427 111.114 68.1895C111.45 67.6313 111.741 67.1622 111.985 66.7869C112.473 66.037 112.773 65.6631 112.86 65.7066H112.859Z" fill="#512D16"/>
<path d="M19.6274 64.24L28.3358 65.5342L35.6023 60.8403C35.6023 60.8403 33.7617 54.9653 31.4872 53.5738C25.8888 50.1485 19.6274 64.24 19.6274 64.24Z" fill="#512D16"/>
<path d="M142.959 83.9794C142.959 118.369 121.328 146.245 94.6439 146.245C70.4408 146.245 50.3956 134.826 46.8835 96.5869C46.7827 95.5245 46.6972 94.44 46.6248 93.3335C46.6123 93.1603 46.6089 92.9864 46.6089 92.8133C46.6089 89.3266 48.8917 86.2146 52.268 85.1936C55.5911 84.185 59.1723 85.4454 61.1585 88.2925C61.7952 89.2038 62.4541 90.0579 63.1384 90.8554C69.3653 98.1695 77.4169 100.919 86.2101 100.919C105.971 100.919 121.994 73.0427 121.994 38.6528C121.994 36.5756 121.934 34.5197 121.82 32.4922C134.579 43.7 142.959 62.5786 142.959 83.9787V83.9794Z" fill="#FEDA24"/>
<g opacity="0.8">
<path d="M142.943 85.5709C142.953 85.0418 142.959 84.5106 142.959 83.9787C142.959 62.5779 134.579 43.7 121.82 32.4922C121.876 33.4808 121.918 34.4763 121.947 35.478C134.379 46.4747 142.617 64.771 142.943 85.5716V85.5709Z" fill="white"/>
<path d="M46.7062 94.4588C47.1698 91.4868 49.2932 88.9632 52.268 88.0636C55.5911 87.0543 59.1723 88.3161 61.1585 91.1625C61.7952 92.0739 62.4541 92.9279 63.1384 93.7254C69.3653 101.04 77.4169 103.789 86.2101 103.789C105.971 103.789 121.994 75.9127 121.994 41.5228C121.994 41.0392 121.989 40.557 121.983 40.0762C121.548 73.8079 105.698 100.918 86.2101 100.918C77.4176 100.918 69.3653 98.169 63.1384 90.8549C62.4541 90.0573 61.7952 89.2026 61.1585 88.2919C59.1723 85.4448 55.5911 84.1837 52.268 85.193C48.8917 86.2147 46.6089 89.3261 46.6089 92.8134C46.6089 92.9866 46.6123 93.1604 46.6248 93.3336C46.6496 93.713 46.6779 94.0856 46.7062 94.4595V94.4588Z" fill="white"/>
</g>
<g opacity="0.3">
<path d="M93.592 144.446C119.865 144.446 141.161 116.571 141.161 82.1796C141.161 67.8549 137.463 54.6623 131.251 44.1416C132.24 49.5682 132.774 55.2928 132.774 61.2168C132.774 95.606 114.954 123.483 92.9656 123.483C82.9782 123.483 73.8517 120.617 66.8646 112.955C60.7957 107.256 56.1218 98.3759 53.5672 85.2226C50.2868 86.2671 48.0723 89.3536 48.0723 92.8155C48.0723 92.9879 48.0757 93.1597 48.0895 93.3356C48.1606 94.4415 48.2454 95.5267 48.3441 96.5877C49.9108 113.905 54.8158 125.721 61.9264 133.468C70.3354 141.467 81.4301 144.446 93.5927 144.446H93.592Z" fill="#512D16"/>
</g>
<path d="M121.82 32.4928C134.579 43.7006 142.959 62.5792 142.959 83.9793C142.959 118.369 121.329 146.245 94.6439 146.245C70.4408 146.245 50.3956 134.826 46.8835 96.5875C46.7827 95.5251 46.6972 94.4406 46.6248 93.3341C46.6117 93.1609 46.6089 92.9871 46.6089 92.8139C46.6089 89.3272 48.8917 86.2152 52.268 85.1942C53.0324 84.9617 53.8119 84.8499 54.5819 84.8499C57.1558 84.8499 59.6297 86.1014 61.1592 88.2931C61.7959 89.2044 62.4548 90.0585 63.1391 90.856C69.366 98.1701 77.4176 100.919 86.2108 100.919C105.972 100.919 121.994 73.0433 121.994 38.6534C121.994 36.5762 121.934 34.5204 121.82 32.4935M121.82 29.7367C121.41 29.7367 120.998 29.8278 120.614 30.0147C119.616 30.5004 119.006 31.538 119.068 32.6466C119.181 34.6473 119.237 36.668 119.237 38.6528C119.237 54.8104 115.645 69.9588 109.123 81.3088C102.877 92.1771 94.7398 98.1626 86.2108 98.1626C77.6818 98.1626 70.447 95.1878 65.2377 89.0685C64.6148 88.3428 64.0049 87.5522 63.4185 86.7133C61.4006 83.8206 58.0968 82.0925 54.5825 82.0925C53.5284 82.0925 52.4805 82.2484 51.4684 82.5554C46.9152 83.9331 43.8535 88.0551 43.8535 92.8125C43.8535 92.9988 43.8563 93.2471 43.8756 93.5217C43.9515 94.6773 44.0405 95.7956 44.1398 96.8469C47.3181 131.451 64.3106 149.001 94.6439 149.001C101.632 149.001 108.404 147.241 114.77 143.771C120.859 140.452 126.314 135.717 130.985 129.697C140.484 117.456 145.715 101.219 145.715 83.9786C145.715 62.5854 137.463 42.5644 123.639 30.4211C123.125 29.9699 122.476 29.7354 121.819 29.7354L121.82 29.7367Z" fill="#512D16"/>
<path d="M132.643 58.1543C132.741 58.1543 132.83 58.651 132.907 59.6003C132.946 60.0749 132.981 60.6627 133.015 61.3581C133.034 62.0528 133.034 62.8551 133.035 63.7589C133.048 64.664 132.998 65.6671 132.952 66.7668C132.921 67.8678 132.813 69.0592 132.708 70.3417C132.663 70.984 132.588 71.6449 132.504 72.3272C132.421 73.0102 132.336 73.7139 132.247 74.4389C132.02 75.8815 131.809 77.413 131.479 79.0032C130.243 85.3632 128.084 92.9077 123.977 100.554C122.975 102.476 121.781 104.357 120.517 106.249C120.183 106.71 119.846 107.174 119.508 107.64C119.338 107.873 119.168 108.106 118.998 108.34L118.452 109.019C118.084 109.471 117.726 109.934 117.345 110.383C116.953 110.823 116.56 111.265 116.164 111.71C114.54 113.448 112.789 115.145 110.815 116.644C108.845 118.144 106.697 119.492 104.376 120.584C102.062 121.686 99.6127 122.461 97.1422 122.9C94.6793 123.347 92.155 123.437 89.8053 123.302C85.0527 123.069 80.4664 122.075 76.4078 120.338C72.3403 118.615 68.8529 116.159 66.0541 113.441C64.6571 112.075 63.4367 110.64 62.3425 109.208C62.0776 108.844 61.8155 108.483 61.5561 108.126C61.2932 107.773 61.0683 107.399 60.8269 107.041C60.3398 106.329 59.9245 105.597 59.5037 104.892C57.8583 102.049 56.7152 99.3112 55.8321 96.8828C54.9746 94.4427 54.3841 92.3006 53.9729 90.5373C53.5728 88.7705 53.3196 87.3901 53.2113 86.4415C53.0933 85.4957 53.0774 84.9913 53.1733 84.9713C53.2692 84.9513 53.4721 85.4156 53.7694 86.3145C54.0612 87.2176 54.4882 88.538 55.0367 90.2365C55.6045 91.9281 56.3371 93.9812 57.3112 96.304C58.3095 98.6137 59.5437 101.204 61.2256 103.858C61.6547 104.515 62.0769 105.199 62.5647 105.857C62.8061 106.188 63.0317 106.536 63.2932 106.863C63.5498 107.192 63.8092 107.524 64.0714 107.861C65.1497 109.179 66.3363 110.493 67.6753 111.733C70.3596 114.198 73.6255 116.391 77.413 117.921C81.1928 119.463 85.4584 120.337 89.9323 120.521C92.1944 120.629 94.3985 120.528 96.6303 120.119C98.8538 119.714 101.063 119.014 103.172 118.008C105.286 117.013 107.263 115.779 109.094 114.399C110.929 113.018 112.577 111.44 114.119 109.819C114.495 109.403 114.869 108.99 115.243 108.578C115.606 108.158 115.949 107.722 116.302 107.299L116.825 106.661L117.317 106.002C117.644 105.564 117.969 105.127 118.293 104.693C119.518 102.904 120.687 101.125 121.679 99.2953C125.748 92.0219 128.057 84.7499 129.512 78.5824C129.897 77.0412 130.17 75.5517 130.461 74.1485C130.583 73.4421 130.703 72.7563 130.818 72.0913C130.937 71.4262 131.047 70.7805 131.128 70.1534C131.306 68.9006 131.489 67.7347 131.6 66.655C131.725 65.5767 131.857 64.5909 131.929 63.7002C132.018 62.8103 132.099 62.0197 132.169 61.3326C132.224 60.6455 132.279 60.0639 132.332 59.5927C132.44 58.651 132.543 58.155 132.641 58.155L132.643 58.1543Z" fill="#512D16"/>
<path d="M63.1396 90.8549L56.9948 97.6461L46.8839 96.5871C46.7832 95.5247 46.6977 94.4402 46.6252 93.3337C46.6128 93.1605 46.6094 92.9866 46.6094 92.8135C46.6094 89.3268 48.8922 86.2148 52.2685 85.1938C55.5916 84.1852 59.1728 85.4456 61.159 88.2927C61.7957 89.204 62.4546 90.0581 63.1389 90.8556L63.1396 90.8549Z" fill="#512D16"/>
<path d="M134.604 30.5408C141.697 21.2406 141.382 13.9106 141.382 13.9106C141.382 6.98971 131.572 1.37891 119.471 1.37891C110.75 1.37891 103.22 4.29296 99.693 8.51158H99.6923C99.6923 8.51158 99.6903 8.51503 99.6896 8.51641C99.1763 9.1311 98.7527 9.77475 98.4181 10.4398C96.6444 13.1572 94.9266 17.0213 98.821 26.443C103.707 38.2654 93.6193 41.1029 95.6682 46.9352C97.7172 52.7674 104.653 48.3536 104.653 48.3536C110.959 60.4913 120.259 50.7178 120.259 50.7178C123.097 59.5455 135.392 62.0677 139.175 52.2942C142.958 42.5206 127.51 39.8411 134.604 30.5408Z" fill="#CBD02A"/>
<path d="M134.604 30.5415C141.698 21.2413 141.383 13.9106 141.383 13.9106C141.383 6.98971 131.573 1.37891 119.472 1.37891C110.751 1.37891 103.221 4.29365 99.6943 8.51227L99.6915 8.5171C99.1976 9.10902 98.7864 9.72715 98.4573 10.366C98.4318 10.4157 98.4042 10.4633 98.3745 10.5102C96.6174 13.2242 94.9624 17.102 98.8229 26.4436C103.709 38.2661 93.6213 41.1036 95.6702 46.9359C97.0907 50.9799 100.861 50.0983 103.04 49.1773C103.976 48.7813 105.051 49.1414 105.607 49.9927C109.987 56.6942 115.426 54.3576 118.289 52.3611C119.283 51.6671 120.669 51.9596 121.28 53.0075C125.305 59.9091 135.745 61.1626 139.178 52.2956C142.961 42.522 127.512 39.8425 134.606 30.5422L134.604 30.5415Z" fill="#5CD13F"/>
<g opacity="0.8">
<path d="M98.7474 14.9954C98.7777 14.9485 98.8046 14.9009 98.8302 14.8512C99.1585 14.2124 99.5697 13.5942 100.064 13.0023L100.067 12.9975C103.594 8.77955 111.124 5.8648 119.845 5.8648C130.351 5.8648 139.127 10.0951 141.258 15.7398C141.408 14.5718 141.381 13.9116 141.381 13.9116C141.381 6.99068 131.571 1.37988 119.47 1.37988C110.749 1.37988 103.219 4.29463 99.6925 8.51325L99.6897 8.51808C99.1958 9.10999 98.7846 9.72813 98.4556 10.367C98.43 10.4166 98.4024 10.4642 98.3728 10.5111C97.0565 12.5442 95.7967 15.232 96.8723 20.382C97.0392 17.9598 97.8802 16.3351 98.7474 14.9961V14.9954Z" fill="white"/>
</g>
<path d="M130.642 59.943C126.472 59.943 122.312 57.5126 120.088 53.701C119.957 53.4768 119.752 53.403 119.641 53.3781C119.526 53.3526 119.3 53.3333 119.076 53.4899C117.157 54.8283 114.194 56.2929 110.97 55.6679C108.462 55.1815 106.269 53.5258 104.452 50.7456C104.254 50.4406 103.885 50.3144 103.575 50.4455C101.902 51.1526 99.4645 51.799 97.3534 50.8656C95.9674 50.2523 94.963 49.0829 94.3683 47.3913C93.319 44.4055 94.774 42.0627 96.1806 39.7971C98.1495 36.6271 100.185 33.3488 97.5473 26.9688C93.6184 17.4636 95.0658 13.0808 97.2154 9.76043C97.6032 9.00915 98.0709 8.30685 98.618 7.6494C98.6242 7.64181 98.6304 7.63491 98.6359 7.62732C102.569 2.92233 110.552 0 119.471 0C132.517 0 142.739 6.09647 142.761 13.8852C142.78 14.5289 142.841 22.0148 135.7 31.3765C132.622 35.413 134.511 37.7006 137.126 40.8672C139.538 43.7867 142.54 47.421 140.461 52.7917C138.835 56.9904 135.562 59.585 131.481 59.9092C131.202 59.9313 130.921 59.9424 130.642 59.9424L130.642 59.943ZM119.49 50.6055C119.739 50.6055 119.989 50.6324 120.235 50.6862C121.173 50.8932 121.988 51.4858 122.469 52.3123C124.32 55.4843 127.859 57.4298 131.264 57.1621C134.292 56.9207 136.646 55.0159 137.892 51.7969C139.388 47.9315 137.355 45.4714 135.002 42.6222C132.375 39.4405 129.104 35.4806 133.509 29.7049C140.168 20.9738 140.008 14.0329 140.006 13.9639C140.006 13.948 140.005 13.9259 140.005 13.9101C140.005 7.86395 130.602 2.75607 119.472 2.75607C111.479 2.75607 104.136 5.35692 100.761 9.38375C100.757 9.38927 100.752 9.3948 100.748 9.39962C100.324 9.90669 99.9653 10.4434 99.6818 10.9953C99.6342 11.0871 99.5845 11.1733 99.53 11.2575C97.9081 13.7631 96.48 17.1691 100.096 25.9154C103.272 33.6013 100.527 38.0228 98.5228 41.2507C97.1403 43.4777 96.3862 44.8181 96.9699 46.4773C97.3065 47.4369 97.797 48.0474 98.469 48.3448C99.7411 48.907 101.542 48.3123 102.502 47.906C104.042 47.2548 105.832 47.8163 106.761 49.2368C108.154 51.3692 109.747 52.622 111.496 52.9608C113.775 53.403 116.018 52.2626 117.5 51.2285C118.086 50.8194 118.785 50.6048 119.49 50.6048L119.49 50.6055Z" fill="#512D16"/>
<path d="M118.763 19.5063C126.555 19.5063 132.871 16.8951 132.871 13.674C132.871 10.453 126.555 7.8418 118.763 7.8418C110.971 7.8418 104.655 10.453 104.655 13.674C104.655 16.8951 110.971 19.5063 118.763 19.5063Z" fill="#512D16"/>
<path d="M118.762 20.8842C111.255 20.8842 103.275 18.3571 103.275 13.6735C103.275 8.98992 111.254 6.46289 118.762 6.46289C126.27 6.46289 134.248 8.98992 134.248 13.6735C134.248 18.3571 126.269 20.8842 118.762 20.8842ZM118.762 9.21966C110.991 9.21966 106.031 11.8578 106.031 13.6742C106.031 15.4907 110.99 18.1288 118.762 18.1288C126.533 18.1288 131.492 15.4907 131.492 13.6742C131.492 11.8578 126.533 9.21966 118.762 9.21966Z" fill="#512D16"/>
<g opacity="0.3">
<path d="M134.604 30.5414C141.698 21.2411 141.383 13.9104 141.383 13.9104C141.383 12.6286 141.045 11.393 140.42 10.2285C139.406 16.3167 136.347 23.9151 128.171 29.9722C114.978 39.7464 118.911 49.2502 120.931 52.5672C121.063 52.6948 121.182 52.8397 121.279 53.0066C125.304 59.9082 135.744 61.1617 139.177 52.2947C142.96 42.5211 127.511 39.8416 134.605 30.5414H134.604Z" fill="#512D16"/>
</g>
</svg>
