<svg width="548" height="287" viewBox="0 0 548 287" fill="none" xmlns="http://www.w3.org/2000/svg">
<path d="M0 15.4624C0 15.4624 5.4 -3.13754 34.2 0.462456C63 4.06245 66.6 44.2624 66.6 44.2624C66.6 44.2624 78 30.5105 96.6 34.3985C115.2 38.2865 114.6 61.6624 114.6 61.6624C114.6 61.6624 133.8 31.6624 165.6 50.2624C197.4 68.8624 183.6 97.0624 183.6 97.0624C183.6 97.0624 192.6 83.8624 204 89.8624C215.4 95.8624 210 108.462 210 108.462C210 108.462 215.4 97.6624 228 102.462C240.6 107.262 238.8 118.062 238.8 118.062C238.8 118.062 250.8 99.4624 270.6 110.262C290.4 121.062 287.4 133.662 287.4 133.662C287.4 133.662 292.2 105.462 328.8 114.462C365.4 123.462 362.592 160.854 362.592 160.854C362.592 160.854 376.992 150.054 391.392 163.662C405.792 177.27 401.784 190.062 401.784 190.062C401.784 190.062 415.392 182.862 422.592 193.662C429.792 204.462 426.192 216.054 426.192 216.054C426.192 216.054 445.8 210.846 451.392 225.654C451.392 225.654 485.76 203.286 519.96 229.374C554.16 255.462 547.2 286.638 547.2 286.638H0V15.4385V15.4624Z" fill="url(#paint0_linear_116_2712)"/>
<path d="M0 162.799C0 162.799 15.072 131.311 66.3839 131.311C117.696 131.311 127.584 175.399 127.584 175.399C127.584 175.399 150.984 158.311 177.984 166.399C204.984 174.487 205.872 199.687 205.872 199.687C205.872 199.687 222.072 189.799 243.672 199.687C265.272 209.575 268.872 227.575 268.872 227.575C268.872 227.575 292.272 214.975 310.272 227.575C328.272 240.175 328.272 250.975 328.272 250.975C328.272 250.975 354.36 235.687 378.672 255.463C378.672 255.463 394.872 244.663 411.072 255.463C427.272 266.263 432.672 286.639 432.672 286.639H0V162.775V162.799Z" fill="url(#paint1_linear_116_2712)"/>
<defs>
<linearGradient id="paint0_linear_116_2712" x1="390.216" y1="-338.465" x2="236.616" y2="306.342" gradientUnits="userSpaceOnUse">
<stop offset="0.48" stop-color="white"/>
<stop offset="0.59" stop-color="white" stop-opacity="0.76"/>
<stop offset="0.79" stop-color="white" stop-opacity="0.36"/>
<stop offset="0.93" stop-color="white" stop-opacity="0.1"/>
<stop offset="1" stop-color="white" stop-opacity="0"/>
</linearGradient>
<linearGradient id="paint1_linear_116_2712" x1="222.84" y1="156.847" x2="201.24" y2="381.871" gradientUnits="userSpaceOnUse">
<stop stop-color="white"/>
<stop offset="0.22" stop-color="white" stop-opacity="0.76"/>
<stop offset="0.6" stop-color="white" stop-opacity="0.36"/>
<stop offset="0.87" stop-color="white" stop-opacity="0.1"/>
<stop offset="1" stop-color="white" stop-opacity="0"/>
</linearGradient>
</defs>
</svg>
