<svg width="548" height="281" viewBox="0 0 548 281" fill="none" xmlns="http://www.w3.org/2000/svg">
<path d="M547.999 9.46295C547.999 9.46295 539.336 -2.17698 510.536 1.42302C481.736 5.02301 481.399 38.2629 481.399 38.2629C481.399 38.2629 469.999 24.511 451.4 28.399C432.799 32.287 433.4 55.6629 433.4 55.6629C433.4 55.6629 414.2 25.6629 382.4 44.2629C350.6 62.8629 364.4 91.0629 364.4 91.0629C364.4 91.0629 355.4 77.8629 344 83.8629C332.6 89.8629 338 102.463 338 102.463C338 102.463 332.6 91.6629 320 96.4629C307.4 101.263 309.2 112.063 309.2 112.063C309.2 112.063 297.2 93.4629 277.4 104.263C257.6 115.063 260.6 127.663 260.6 127.663C260.6 127.663 255.8 99.4629 219.2 108.463C182.6 117.463 185.408 154.855 185.408 154.855C185.408 154.855 171.008 144.055 156.608 157.663C142.208 171.271 146.216 184.063 146.216 184.063C146.216 184.063 132.608 176.863 125.408 187.663C118.208 198.463 121.808 210.055 121.808 210.055C121.808 210.055 102.2 204.847 96.6077 219.655C96.6077 219.655 62.2397 197.287 28.0397 223.375C-6.16028 249.463 0.799702 280.639 0.799702 280.639H547.999V9.439V9.46295Z" fill="url(#paint0_linear_116_2715)"/>
<path d="M548 156.799C548 156.799 532.928 125.311 481.616 125.311C430.304 125.311 420.416 169.399 420.416 169.399C420.416 169.399 397.016 152.311 370.016 160.399C343.016 168.487 342.128 193.687 342.128 193.687C342.128 193.687 325.928 183.799 304.328 193.687C282.728 203.575 279.128 221.575 279.128 221.575C279.128 221.575 255.728 208.975 237.728 221.575C219.728 234.175 219.728 244.975 219.728 244.975C219.728 244.975 193.64 229.687 169.328 249.463C169.328 249.463 153.128 238.663 136.928 249.463C120.728 260.263 115.328 280.639 115.328 280.639H548V156.775V156.799Z" fill="url(#paint1_linear_116_2715)"/>
<defs>
<linearGradient id="paint0_linear_116_2715" x1="223.952" y1="-34.145" x2="336.752" y2="366.655" gradientUnits="userSpaceOnUse">
<stop stop-color="white"/>
<stop offset="0.22" stop-color="white" stop-opacity="0.76"/>
<stop offset="0.6" stop-color="white" stop-opacity="0.36"/>
<stop offset="0.87" stop-color="white" stop-opacity="0.1"/>
<stop offset="1" stop-color="white" stop-opacity="0"/>
</linearGradient>
<linearGradient id="paint1_linear_116_2715" x1="312.176" y1="115.255" x2="364.4" y2="392.503" gradientUnits="userSpaceOnUse">
<stop stop-color="white"/>
<stop offset="0.22" stop-color="white" stop-opacity="0.76"/>
<stop offset="0.6" stop-color="white" stop-opacity="0.36"/>
<stop offset="0.87" stop-color="white" stop-opacity="0.1"/>
<stop offset="1" stop-color="white" stop-opacity="0"/>
</linearGradient>
</defs>
</svg>
