<svg width="200" height="57" viewBox="0 0 200 57" fill="none" xmlns="http://www.w3.org/2000/svg">
<path d="M0 48.4095C0 50.775 0.950416 52.9123 2.52066 54.4685C4.07025 56.0247 6.19835 57 8.55372 57H191.446C196.136 57 200 53.1405 200 48.4095C200 46.044 199.05 43.9068 197.479 42.3506C195.93 40.7943 193.802 39.8191 191.446 39.8191H182.81C179.401 31.8511 171.508 26.2901 162.335 26.2901C156.157 26.2901 150.579 28.8216 146.529 32.8886C141.136 23.7171 131.198 17.5544 119.835 17.5544C116.715 17.5544 113.698 18.0317 110.847 18.8824C104.897 7.63596 93.1405 0 79.5661 0C63.2851 0 49.5868 11.039 45.4545 26.0619C42.4587 24.5472 39.0702 23.6964 35.4752 23.6964C25.3306 23.6964 16.7562 30.5024 14.0702 39.8398H8.55372C3.86364 39.8398 0 43.6993 0 48.4303V48.4095Z" fill="url(#paint0_linear_116_2722)"/>
<defs>
<linearGradient id="paint0_linear_116_2722" x1="99.9793" y1="17.5337" x2="99.9793" y2="115.245" gradientUnits="userSpaceOnUse">
<stop stop-color="white"/>
<stop offset="0.22" stop-color="white" stop-opacity="0.76"/>
<stop offset="0.6" stop-color="white" stop-opacity="0.36"/>
<stop offset="0.87" stop-color="white" stop-opacity="0.1"/>
<stop offset="1" stop-color="white" stop-opacity="0"/>
</linearGradient>
</defs>
</svg>
