<svg width="299" height="230" viewBox="0 0 299 230" fill="none" xmlns="http://www.w3.org/2000/svg">
<path d="M299 229.5L106.162 55.1393L22.5088 112.252L299 229.5Z" fill="url(#paint0_linear_116_2848)"/>
<path d="M103.565 48.1143C116.117 74.667 108.203 104.756 85.8838 115.307L71.3673 122.17C65.184 125.093 58.5494 126.206 51.9161 125.733C42.9196 125.094 33.9256 121.52 26.0905 115.542C22.1027 112.494 18.4037 108.828 15.1677 104.605C14.9856 104.362 14.8061 104.127 14.6279 103.891C14.4823 103.69 14.3405 103.496 14.1974 103.302C11.9434 100.21 9.93 96.8261 8.21315 93.1934C-4.33938 66.6407 3.58155 36.549 25.9019 25.9968L40.4184 19.1333C62.7388 8.58119 91.0135 21.5616 103.566 48.1143H103.565Z" fill="#F1C65E" stroke="#512D16" stroke-width="2"/>
<path d="M85.879 115.318C108.202 104.766 116.123 74.6835 103.57 48.1272C91.0165 21.5708 62.7435 8.59692 40.4201 19.1491C18.0967 29.7014 10.1763 59.7838 22.7295 86.3401C35.2826 112.896 63.5556 125.87 85.879 115.318Z" fill="#FCDC65" stroke="#512D16" stroke-width="2"/>
<path d="M81.9696 107.048C99.7243 98.6557 105.691 74.0271 95.2976 52.0388C84.9038 30.0506 62.085 19.0291 44.3303 27.4217C26.5756 35.8143 20.6085 60.4428 31.0023 82.4311C41.3961 104.419 64.215 115.441 81.9696 107.048Z" fill="#FFF2C4"/>
<path d="M45.1608 80.0963C45.1608 80.0963 42.2776 77.1465 38.7227 79.9332C35.3081 82.6102 36.0958 87.2176 38.2332 89.4707C40.479 91.8385 42.8291 92.1936 45.3278 91.2441C47.9381 90.2526 49.8116 87.9806 49.8116 87.9806L45.1608 80.095L45.1608 80.0963Z" fill="#FCE5D8"/>
<path opacity="0.15" d="M49.951 88.0024C49.951 88.0024 48.0773 90.2739 45.4684 91.2659C43.5901 91.9794 41.7958 91.9564 40.069 90.8951C40.6025 90.7117 41.1703 90.3502 41.1425 89.6462C41.1172 88.9826 40.1304 88.3422 39.3834 86.4795C38.5874 84.4961 40.9526 80.177 46.6664 82.4331L49.9515 88.0021L49.951 88.0024Z" fill="#231F20"/>
<path d="M47.0043 83.4665C47.8353 84.8858 46.9919 87.758 45.0229 88.8788C43.0956 89.9752 40.4045 89.2157 39.4742 87.0759C38.739 85.3844 39.2343 83.132 40.5836 82.0833C42.2002 80.8266 44.3373 81.8457 45.6521 82.4727C46.3304 82.7962 46.7267 82.9927 47.0043 83.4665Z" fill="#FAC1C0"/>
<path d="M44.672 85.2351C45.1113 86.1771 46.3599 86.4465 47.4603 85.8365C47.7546 85.6734 48.0081 85.4642 48.2137 85.2273C47.4008 83.8959 46.8017 82.9146 46.3718 82.2095C46.2034 82.2617 46.0348 82.3339 45.8697 82.4254C44.7693 83.0354 44.233 84.2936 44.6723 85.2356L44.672 85.2351Z" fill="#FCE5D8"/>
<path d="M40.6683 91.2444C43.6787 92.5208 47.4949 91.2758 49.8574 88.0807C49.2996 87.1351 48.803 86.2935 48.3625 85.5463C47.4451 83.9908 46.769 82.8444 46.2838 82.0208C45.4921 80.6795 45.2069 80.1956 45.2069 80.1956C44.9076 79.9322 43.204 78.4843 40.9297 78.9102C38.4793 79.3693 36.8903 81.7077 36.4649 83.7074C35.7666 86.9914 38.045 90.1316 40.6683 91.2444Z" stroke="#512E18" stroke-width="1.5" stroke-miterlimit="10"/>
<path d="M45.376 82.4517C43.306 80.8868 40.644 81.4358 39.5701 83.0363C38.3141 84.9086 39.3362 88.0652 41.5698 88.989C43.6124 89.834 46.2217 88.6285 47.1766 86.1413C45.8354 86.4985 44.6369 85.6935 44.4456 84.6246C44.3104 83.8672 44.6862 83.0113 45.376 82.4517Z" stroke="#512E18" stroke-width="1.5" stroke-miterlimit="10"/>
<path opacity="0.25" d="M42.8614 84.9772C42.3051 83.5652 41.1399 82.7607 40.2589 83.1805C39.3778 83.6002 39.1146 85.0851 39.6709 86.4972C40.2272 87.9092 41.3924 88.7136 42.2735 88.2939C43.1545 87.8742 43.4177 86.3892 42.8614 84.9772Z" fill="white"/>
<path d="M82.119 59.7938C82.119 59.7938 81.6319 55.5159 85.7916 54.0262C89.7874 52.5956 92.7377 56.0042 93.1479 59.2148C93.5794 62.5882 92.4578 64.8678 90.2819 66.5094C88.0091 68.2247 85.2215 68.5364 85.2215 68.5364L82.1181 59.7931L82.119 59.7938Z" fill="#FCE5D8"/>
<path opacity="0.15" d="M85.1552 68.672C85.1552 68.672 87.9426 68.3598 90.2149 66.646C91.8505 65.4119 92.8906 63.8177 93.1216 61.6712C92.6714 62.033 92.0689 62.3202 91.5636 61.8809C91.0866 61.4676 91.1936 60.221 90.2533 58.4654C89.2525 56.5955 84.6581 56.1342 82.9634 62.4969L85.1548 68.6722L85.1552 68.672Z" fill="#231F20"/>
<path d="M83.5294 63.4037C84.0916 64.972 86.717 65.9214 88.7077 64.8473C90.6559 63.7955 91.6786 60.9774 90.6411 58.897C89.8208 57.2527 87.8597 56.3619 86.2875 56.9326C84.4037 57.6162 83.8997 60.0993 83.5897 61.627C83.4297 62.4151 83.3418 62.88 83.5294 63.4037Z" fill="#FAC1C0"/>
<path d="M86.2153 62.3913C86.6545 63.3333 86.1185 64.592 85.018 65.202C84.7238 65.3651 84.4194 65.4651 84.1227 65.5067C83.615 64.0061 83.2408 62.9002 82.9716 62.106C83.1094 61.9884 83.2623 61.8824 83.4274 61.7909C84.5279 61.1809 85.7762 61.4498 86.2155 62.3918L86.2153 62.3913Z" fill="#FCE5D8"/>
<path d="M93.027 62.4047C92.1991 65.8086 89.0279 68.4368 85.2681 68.6354C84.896 67.5869 84.5649 66.6536 84.2708 65.8252C83.6586 64.1005 83.2074 62.8294 82.883 61.9167C82.3554 60.429 82.1649 59.8926 82.1649 59.8926C82.146 59.4738 82.0768 57.1199 83.7325 55.3673C85.5166 53.4793 88.1858 53.4573 89.9183 54.2608C92.7634 55.5807 93.7481 59.4381 93.027 62.4047Z" stroke="#512E18" stroke-width="1.5" stroke-miterlimit="10"/>
<path d="M83.7371 61.3711C83.7971 58.6256 85.7724 56.6041 87.5913 56.6011C89.7189 56.5978 91.4558 59.3581 90.8244 61.8701C90.247 64.1674 87.8162 65.7557 85.4104 65.1313C86.4653 64.1603 86.5749 62.6302 85.8956 61.8318C85.414 61.2665 84.5582 61.0932 83.7371 61.3711Z" stroke="#512E18" stroke-width="1.5" stroke-miterlimit="10"/>
<path opacity="0.25" d="M89.8946 62.0758C90.7247 61.547 90.8151 60.0466 90.0965 58.7245C89.3779 57.4024 88.1224 56.7593 87.2922 57.2881C86.462 57.8169 86.3716 59.3174 87.0902 60.6394C87.8089 61.9615 89.0644 62.6046 89.8946 62.0758Z" fill="white"/>
<path d="M42.7897 56.5497C44.7101 55.064 46.9081 53.533 49.3907 52.0596C53.9414 49.3593 58.2174 47.5843 61.8303 46.394C61.6832 46.0631 61.4202 45.3454 61.5233 44.4159C61.69 42.914 62.6869 42.0071 62.9045 41.8178C59.4665 41.4798 57.5097 43.5241 57.1104 44.1335C56.3045 41.8848 55.3612 40.8085 53.5371 41.3398C51.968 46.39 49.3069 49.0986 46.03 52.3769C45.0359 53.2705 42.7894 56.5492 42.7894 56.5492L42.7897 56.5497Z" fill="#F5BD61"/>
<path d="M84.319 63.0728C84.4413 60.0101 83.8448 57.0057 82.5425 54.2129C79.0098 46.6372 70.9117 42.9168 62.2724 44.0094C62.1463 44.0257 62.02 44.0427 61.8939 44.0602C61.8939 44.0602 62.0506 43.2096 63.1578 41.9195C61.6308 41.1898 58.6915 42.0529 57.1369 43.9061C55.809 40.2115 53.3328 41.2116 53.3328 41.2116C52.0068 46.9007 48.1003 50.4482 48.1003 50.4482C48.0117 50.5241 47.924 50.6008 47.8368 50.6772C39.7855 57.7695 36.53 68.7728 40.5855 77.47C41.8952 80.2787 43.8326 82.5572 46.1921 84.2574C45.5753 86.4805 45.6197 88.5617 46.4435 90.3282C49.3984 96.6649 61.2583 96.5561 72.9337 90.0844C84.609 83.6126 91.678 73.2295 88.7229 66.8923C87.8918 65.1099 86.3562 63.8378 84.3187 63.0736L84.319 63.0728Z" fill="#FFAE64"/>
<path opacity="0.25" d="M39.205 73.2334C39.205 73.2334 37.1578 60.7624 48.1342 52.4818C53.0124 48.8013 54.8486 43.2686 54.8486 43.2686C56.0749 43.6259 57.0171 44.5437 57.0171 44.5437C59.4893 42.9075 61.1105 43.059 61.1105 43.059C60.2219 44.3739 60.4387 45.886 60.4387 45.886C64.4253 44.8529 74.529 43.5357 81.3648 52.2385C77.1646 46.8273 73.8263 43.5265 61.8941 44.0603C62.1003 42.9969 63.1581 41.9196 63.1581 41.9196C59.8861 41.2494 57.7008 43.2013 57.1371 43.9062C55.9484 41.4242 55.3321 41.0439 53.333 41.2117C51.8269 47.1305 48.6038 50.0695 46.843 51.6033C45.0823 53.1371 41.0565 58.0491 39.623 63.2856C38.1895 68.5221 39.2057 73.2336 39.2057 73.2336L39.205 73.2334Z" fill="white"/>
<path opacity="0.15" d="M89.2311 67.7949C90.3741 71.8434 88.1898 80.2695 72.9823 89.9084L72.9789 89.9102C56.8755 97.6279 49.3447 94.587 47.0177 91.1942C46.4607 90.3805 46.099 89.5403 45.92 88.6967C48.6922 89.642 52.7388 88.0142 65.9323 74.8115C83.5231 70.9602 87.094 68.3525 88.0192 65.347C88.5421 66.0024 88.9557 66.8208 89.2306 67.7952L89.2311 67.7949Z" fill="#231F20"/>
<path d="M84.319 63.0728L85.0069 63.2963L85.0423 63.1875L85.0468 63.0737L84.319 63.0728ZM62.2724 44.0094L62.2154 43.244L62.2138 43.2442L62.2724 44.0094ZM61.8939 44.0602L61.179 43.9428L60.9918 44.9586L61.9593 44.8244L61.8939 44.0602ZM63.1578 41.9195L63.688 42.4247L64.364 41.637L63.48 41.2146L63.1578 41.9195ZM57.1369 43.9061L56.4545 44.2056L56.87 45.3616L57.6729 44.4044L57.1369 43.9061ZM53.3328 41.2116L53.0977 40.4928L52.7218 40.6446L52.6258 41.0563L53.3328 41.2116ZM48.1003 50.4482L48.5447 51.0393L48.5532 51.0319L48.5616 51.0243L48.1003 50.4482ZM47.8368 50.6772L47.386 50.0918L47.3845 50.0931L47.8368 50.6772ZM46.1921 84.2574L46.8905 84.4462L47.0376 83.9163L46.6189 83.6145L46.1921 84.2574ZM84.3187 63.0736L83.6307 62.85L83.4008 63.5576L84.0505 63.8013L84.3187 63.0736ZM85.0468 63.0737C85.1743 59.8809 84.5518 56.7517 83.1984 53.8493L81.8865 54.5765C83.1377 57.2598 83.7082 60.1392 83.5911 63.0719L85.0468 63.0737ZM83.1984 53.8493C79.509 45.9374 71.0891 42.1218 62.2154 43.244L62.3295 44.7748C70.7343 43.7119 78.5107 47.3371 81.8865 54.5765L83.1984 53.8493ZM62.2138 43.2442C62.0851 43.2608 61.9565 43.2781 61.8285 43.2959L61.9593 44.8244C62.0835 44.8072 62.2076 44.7905 62.331 44.7746L62.2138 43.2442ZM61.8939 44.0602C62.6088 44.1775 62.6087 44.1779 62.6086 44.1783C62.6086 44.1784 62.6085 44.1788 62.6085 44.179C62.6084 44.1795 62.6083 44.18 62.6082 44.1805C62.608 44.1814 62.6078 44.1823 62.6077 44.1832C62.6074 44.1849 62.6071 44.1864 62.6068 44.1877C62.6063 44.1902 62.6059 44.192 62.6057 44.193C62.6053 44.195 62.6055 44.1937 62.6066 44.1894C62.6087 44.1809 62.6143 44.1599 62.6247 44.1273C62.6456 44.0622 62.6862 43.95 62.7589 43.7968C62.9041 43.4912 63.1797 43.017 63.688 42.4247L62.6277 41.4142C62.0288 42.1121 61.6724 42.7081 61.4624 43.1504C61.3575 43.3711 61.2898 43.5522 61.2466 43.6869C61.2251 43.7542 61.2097 43.8098 61.199 43.8527C61.1936 43.8742 61.1894 43.8925 61.1861 43.9076C61.1845 43.9151 61.1831 43.9218 61.1819 43.9277C61.1813 43.9306 61.1808 43.9334 61.1803 43.9359C61.1801 43.9371 61.1798 43.9383 61.1796 43.9395C61.1795 43.9401 61.1794 43.9406 61.1793 43.9412C61.1792 43.9415 61.1792 43.9419 61.1791 43.942C61.1791 43.9424 61.179 43.9428 61.8939 44.0602ZM63.48 41.2146C62.4977 40.7453 61.1819 40.8227 59.9746 41.2067C58.7485 41.5966 57.4917 42.3458 56.6008 43.4078L57.6729 44.4044C58.3366 43.6132 59.3268 43.0042 60.3408 42.6818C61.3735 42.3533 62.291 42.364 62.8357 42.6243L63.48 41.2146ZM57.8192 43.6066C57.0895 41.5761 55.9845 40.7066 54.9439 40.4259C54.4436 40.2909 53.9964 40.303 53.6725 40.3492C53.5101 40.3723 53.3762 40.4043 53.2787 40.4323C53.2298 40.4463 53.1897 40.4593 53.1593 40.4699C53.1441 40.4752 53.1313 40.4799 53.121 40.4837C53.1159 40.4857 53.1113 40.4874 53.1075 40.4889C53.1055 40.4897 53.1037 40.4904 53.1021 40.491C53.1013 40.4914 53.1005 40.4917 53.0998 40.492C53.0994 40.4921 53.0989 40.4923 53.0987 40.4924C53.0982 40.4926 53.0977 40.4928 53.3328 41.2116C53.5679 41.9304 53.5674 41.9306 53.5669 41.9308C53.5668 41.9308 53.5663 41.931 53.566 41.9312C53.5655 41.9314 53.5649 41.9316 53.5644 41.9318C53.5634 41.9322 53.5625 41.9326 53.5617 41.9329C53.5603 41.9334 53.5593 41.9338 53.5589 41.934C53.558 41.9343 53.5593 41.9338 53.5626 41.9327C53.5691 41.9304 53.5835 41.9256 53.6049 41.9194C53.648 41.9071 53.7179 41.8899 53.8084 41.877C53.9903 41.8511 54.2451 41.844 54.5299 41.9209C55.0594 42.0637 55.8564 42.5415 56.4545 44.2056L57.8192 43.6066ZM52.6258 41.0563C51.9946 43.7648 50.7455 45.975 49.6449 47.5145C49.0958 48.2826 48.5876 48.8783 48.2191 49.2796C48.035 49.4801 47.8863 49.6316 47.7854 49.7314C47.7349 49.7812 47.6964 49.8181 47.6715 49.8417C47.6591 49.8534 47.65 49.8619 47.6446 49.867C47.6418 49.8695 47.64 49.8712 47.6391 49.872C47.6386 49.8724 47.6384 49.8726 47.6384 49.8726C47.6384 49.8726 47.6385 49.8726 47.6386 49.8725C47.6387 49.8724 47.6388 49.8723 47.6388 49.8723C47.639 49.8721 47.6391 49.872 48.1003 50.4482C48.5616 51.0243 48.5618 51.0242 48.562 51.024C48.5621 51.0239 48.5623 51.0237 48.5625 51.0235C48.5628 51.0232 48.5632 51.0228 48.5637 51.0224C48.5647 51.0215 48.5659 51.0204 48.5673 51.0191C48.5701 51.0165 48.5739 51.013 48.5786 51.0087C48.588 51 48.6011 50.9878 48.6175 50.9722C48.6505 50.941 48.6973 50.8961 48.7562 50.8379C48.8741 50.7214 49.0409 50.5513 49.2438 50.3303C49.6492 49.8887 50.2005 49.242 50.7938 48.4121C51.9779 46.7556 53.3451 44.3476 54.0398 41.3669L52.6258 41.0563ZM47.656 49.8571C47.5638 49.9361 47.4733 50.0153 47.386 50.0918L48.2877 51.2627C48.3748 51.1863 48.4596 51.1121 48.5447 51.0393L47.656 49.8571ZM47.3845 50.0931C39.1303 57.364 35.6924 68.7471 39.9296 77.8336L41.2415 77.1064C37.3675 68.7986 40.4406 58.1749 48.2892 51.2613L47.3845 50.0931ZM39.9296 77.8336C41.2946 80.7609 43.3132 83.1333 45.7654 84.9002L46.6189 83.6145C44.352 81.9812 42.4959 79.7965 41.2415 77.1064L39.9296 77.8336ZM45.4938 84.0685C44.8386 86.4299 44.8666 88.717 45.7875 90.6918L47.0995 89.9646C46.3729 88.4064 46.3121 86.531 46.8905 84.4462L45.4938 84.0685ZM45.7875 90.6918C47.442 94.2397 51.5002 95.8253 56.3948 95.7803C61.3284 95.7349 67.3289 94.0466 73.2506 90.7641L72.6167 89.4046C66.8632 92.5939 61.096 94.1958 56.442 94.2386C51.7491 94.2817 48.3999 92.7533 47.0995 89.9646L45.7875 90.6918ZM73.2506 90.7641C79.1724 87.4816 83.9592 83.1906 86.8998 78.8713C89.8173 74.5861 91.0334 70.0769 89.3789 66.5287L88.0669 67.2559C89.3675 70.0449 88.5267 73.8959 85.7296 78.0045C82.9556 82.079 78.3703 86.2154 72.6167 89.4046L73.2506 90.7641ZM89.3789 66.5287C88.4497 64.5361 86.75 63.1571 84.5869 62.3458L84.0505 63.8013C85.9624 64.5185 87.3338 65.6838 88.0669 67.2559L89.3789 66.5287ZM85.0067 63.2971L85.0069 63.2963L83.631 62.8493L83.6307 62.85L85.0067 63.2971Z" fill="#512E18"/>
<path d="M81.9515 65.0943C84.2794 65.7607 86.0377 67.0572 86.9349 68.9814C89.6607 74.8268 83.407 84.2569 72.967 90.0439C62.527 95.8308 51.8534 95.7837 49.1276 89.9383C48.2334 88.0205 48.4939 86.0186 49.3631 83.5852C49.0665 83.2604 42.7794 76.1733 44.8486 68.8112C45.1597 67.7041 45.9904 64.7491 48.6312 62.6002C50.2476 61.2849 51.8207 60.8584 52.2947 60.7436C56.3756 59.7512 59.6389 62.2119 60.2612 62.7006C60.2313 61.6964 60.2553 58.4592 62.4305 55.6667C65.8731 51.2471 71.5194 52.0301 72.0215 52.1086C77.1076 52.9051 81.2635 58.1244 81.9511 65.0946L81.9515 65.0943Z" fill="#FCE5D8"/>
<path opacity="0.15" d="M73.1394 90.2503L73.1347 90.253C64.2272 95.1892 51.7033 95.855 48.9821 89.5042C48.8484 89.1928 48.7509 88.883 48.6812 88.5773C52.404 93.6129 63.8417 92.7212 72.141 88.122L72.1458 88.1194C80.4437 83.5185 87.8438 73.9683 86.3061 67.7214C86.4916 67.963 86.664 68.2318 86.8157 68.5327C89.9192 74.6716 82.0459 85.3121 73.1394 90.2503Z" fill="#231F20"/>
<path d="M81.9779 65.1324C84.3057 65.7987 86.064 67.0953 86.9613 69.0194C89.687 74.8648 83.4333 84.295 72.9934 90.082C62.5534 95.8689 51.8798 95.8218 49.154 89.9764C48.2598 88.0586 48.5203 86.0567 49.3894 83.6233C49.0929 83.2985 42.8057 76.2114 44.875 68.8493C45.1861 67.7422 46.0167 64.7872 48.6576 62.6383C50.2739 61.323 51.8471 60.8965 52.321 60.7816C56.4019 59.7893 59.6653 62.25 60.2875 62.7387C60.2576 61.7345 60.2817 58.4972 62.4569 55.7048C65.8994 51.2852 71.5458 52.0681 72.0479 52.1467C77.134 52.9432 81.2898 58.1625 81.9774 65.1327L81.9779 65.1324Z" stroke="#512E18" stroke-width="1.5" stroke-miterlimit="10"/>
<path d="M65.0935 77.8185C65.4528 77.3826 65.4504 76.7613 65.0881 76.4308C64.7258 76.1004 64.1409 76.1859 63.7815 76.6218C63.4222 77.0577 63.4245 77.679 63.7868 78.0094C64.1491 78.3399 64.7341 78.2544 65.0935 77.8185Z" fill="#512D16"/>
<path d="M64.3364 76.6663C64.3364 76.6663 65.2225 76.1596 66.1492 77.8228" stroke="#512D16" stroke-width="1.5" stroke-miterlimit="10"/>
<path d="M69.6115 74.6417C69.5756 74.1284 69.1132 73.7649 68.5788 73.8298C68.0443 73.8947 67.6402 74.3635 67.6761 74.8768C67.7121 75.3901 68.1745 75.7537 68.7089 75.6887C69.2433 75.6238 69.6474 75.1551 69.6115 74.6417Z" fill="#512D16"/>
<path d="M68.2867 74.3453C68.2867 74.3453 67.3932 74.8362 68.0958 76.6243" stroke="#512D16" stroke-width="1.5" stroke-miterlimit="10"/>
<path d="M53.1086 85.2305C54.3951 84.5174 55.1635 83.3502 54.8248 82.6239C54.4861 81.8975 53.1684 81.8867 51.8819 82.5998C50.5953 83.313 49.8267 84.4797 50.1656 85.2065C50.5045 85.9333 51.822 85.9437 53.1086 85.2305Z" fill="#FAC1C0"/>
<path d="M81.2223 69.6467C82.5089 68.9335 83.2778 67.7661 82.9391 67.0397C82.6004 66.3134 81.2827 66.3026 79.9956 67.016C78.7086 67.7294 77.9404 68.8958 78.2794 69.6227C78.6183 70.3495 79.9358 70.3598 81.2223 69.6467Z" fill="#FAC1C0"/>
<path d="M59.2775 79.9906C60.9846 79.0444 61.5966 76.6212 60.6439 74.578C59.6911 72.5348 57.5348 71.6461 55.8276 72.5924C54.1205 73.5387 53.5085 75.9619 54.4613 78.0051C55.414 80.0482 57.5704 80.9369 59.2775 79.9906Z" fill="#512E18"/>
<path d="M58.5098 76.0785C59.0668 75.7698 59.2419 74.9278 58.9014 74.1975C58.5608 73.4672 57.8336 73.1253 57.2767 73.434C56.7197 73.7427 56.5446 74.5848 56.8851 75.3151C57.2257 76.0454 57.9529 76.3873 58.5098 76.0785Z" fill="white"/>
<g opacity="0.2">
<path d="M57.3983 79.0722C57.7065 78.9014 57.7699 78.3621 57.5394 77.8678C57.3089 77.3735 56.8723 77.1114 56.5637 77.2824C56.2551 77.4535 56.1922 77.9925 56.4227 78.4868C56.6532 78.9811 57.0897 79.2433 57.3983 79.0722Z" fill="white"/>
</g>
<path d="M73.7653 71.9602C75.4724 71.0139 76.0844 68.5907 75.1317 66.5475C74.1789 64.5044 72.0226 63.6157 70.3154 64.562C68.6083 65.5083 67.9963 67.9315 68.949 69.9746C69.9018 72.0178 72.0581 72.9065 73.7653 71.9602Z" fill="#512E18"/>
<path d="M71.3179 68.9791C71.8749 68.6704 72.05 67.8283 71.7095 67.098C71.3689 66.3677 70.6417 66.0258 70.0848 66.3345C69.5278 66.6432 69.3527 67.4853 69.6932 68.2156C70.0338 68.9459 70.761 69.2878 71.3179 68.9791Z" fill="white"/>
<g opacity="0.2">
<path d="M74.1913 69.763C74.4994 69.5922 74.5629 69.0529 74.3324 68.5586C74.1019 68.0643 73.6653 67.8021 73.3567 67.9732C73.0481 68.1443 72.9851 68.6833 73.2156 69.1776C73.4461 69.6719 73.8827 69.9341 74.1913 69.763Z" fill="white"/>
</g>
<path d="M74.5095 80.5983C74.1808 81.3383 73.7036 82.0221 73.1433 82.6359C72.3868 83.4645 71.4774 84.1652 70.5752 84.7046C69.573 85.3044 68.5783 85.7048 67.8105 85.8596C67.5121 85.9196 67.1912 85.9583 66.8603 85.9745C65.217 86.0518 63.3493 85.5497 62.9913 84.1995C62.9455 84.0265 62.9242 83.8386 62.932 83.6371C62.9744 82.4962 63.7491 81.8527 64.445 81.5038C65.0241 81.2127 65.5482 81.1256 65.5482 81.1256C66.7149 80.8526 67.5647 80.5108 68.2427 80.1455C68.9325 79.7744 69.4452 79.3798 69.934 79.009C70.762 78.3816 70.768 78.1711 71.633 77.4938C71.7803 77.3785 71.9532 77.2496 72.1592 77.1023C72.8378 76.6182 73.6977 76.7474 74.2691 77.3273C74.2712 77.3292 74.2726 77.3309 74.2741 77.3327C74.8895 77.963 75.1664 79.1198 74.5097 80.5975L74.5095 80.5983Z" fill="#512D16"/>
<path d="M71.6531 77.3784C72.1816 78.6733 71.4137 80.3631 69.9017 81.1906L68.2665 82.0858C66.8372 82.8675 65.2462 82.6101 64.5385 81.5379C65.0749 81.273 65.5428 81.1865 65.5428 81.1865C66.7336 80.884 67.5903 80.517 68.2698 80.1304C68.9321 79.7545 69.426 79.3597 69.898 78.9889C70.733 78.3326 70.715 78.1286 71.6288 77.3974C71.6368 77.3912 71.6451 77.3846 71.6531 77.3784Z" fill="white"/>
<path d="M73.4206 82.4832C72.6641 83.3118 71.7547 84.0125 70.8525 84.5518C69.8851 85.1449 68.925 85.5473 68.1766 85.7138C67.8533 85.785 67.5024 85.833 67.1415 85.852C67.1405 85.842 67.1392 85.8315 67.1376 85.8217C67.101 85.4952 67.1607 85.1519 67.3015 84.8262C67.5161 84.3323 67.9181 83.8773 68.4564 83.5789L70.8951 82.2271C71.8262 81.711 72.8612 81.8299 73.3988 82.4584C73.4063 82.4668 73.4136 82.4746 73.4201 82.4835L73.4206 82.4832Z" fill="#FAC0C0"/>
<path d="M74.5307 80.4766C74.2422 81.1619 73.8264 81.803 73.3324 82.3862C73.284 82.4437 73.2345 82.5004 73.1849 82.5566C73.1731 82.57 73.1613 82.5835 73.1492 82.5964C72.3993 83.4326 71.4969 84.1431 70.6027 84.6905C70.495 84.7565 70.3877 84.8197 70.2808 84.8808C69.4239 85.3701 68.5918 85.7047 67.9265 85.852C67.603 85.924 67.2523 85.9712 66.8912 85.991C66.8701 85.9921 66.848 85.9937 66.8261 85.9946C65.1683 86.0706 63.3246 85.5683 63.0188 84.1854C62.988 84.0459 62.9728 83.8983 62.9751 83.7405C62.9913 82.5666 63.8042 81.9057 64.5116 81.5516C64.521 81.5471 64.5298 81.5428 64.5386 81.5385C65.0751 81.2736 65.5429 81.1871 65.5429 81.1871C66.7337 80.8846 67.5905 80.5176 68.27 80.131C68.9323 79.7551 69.4262 79.3603 69.8982 78.9895C70.7332 78.3332 70.7151 78.1292 71.629 77.398C71.6369 77.3918 71.6453 77.3852 71.6532 77.379C71.7792 77.2786 71.9229 77.1683 72.0881 77.0462C72.7908 76.5257 73.7098 76.6733 74.2964 77.3127C74.2985 77.3147 74.2999 77.3164 74.3011 77.3189C74.8761 77.9504 75.127 79.0592 74.5307 80.4766Z" stroke="#512D16" stroke-width="1.5" stroke-miterlimit="10"/>
<path d="M99.8278 81.3472C100.149 73.5707 98.535 65.2504 94.7709 57.2892C84.3918 35.3343 61.5303 24.2983 43.809 32.6771C33.9722 37.3269 27.7539 46.9894 25.9434 58.4129C26.487 44.738 33.0163 32.7538 44.328 27.4056C62.0506 19.0268 84.9146 30.0706 95.2938 52.0255C99.928 61.8271 101.307 72.1647 99.8278 81.3485V81.3472Z" fill="#F6BD60"/>
<defs>
<linearGradient id="paint0_linear_116_2848" x1="424.983" y1="-33.5524" x2="-265.069" y2="263.432" gradientUnits="userSpaceOnUse">
<stop stop-color="#FCDC65" stop-opacity="0"/>
<stop offset="1" stop-color="#FCDC65"/>
</linearGradient>
</defs>
</svg>
