<svg width="71" height="96" viewBox="0 0 71 96" fill="none" xmlns="http://www.w3.org/2000/svg">
<path d="M56.0448 54.2558C48.0619 77.1815 33.3863 92.9061 23.272 89.3833L9.88439 84.7218C6.86159 83.6697 4.58404 81.0143 3.09038 77.1992C0.400547 70.305 0.267995 59.6114 2.91712 47.7112C3.70309 44.1686 4.73226 40.5248 6.01716 36.835C13.9979 13.9155 28.6736 -1.80911 38.7879 1.71263L52.1755 6.37418C62.2908 9.89591 64.0256 31.3353 56.0448 54.2547V54.2558Z" fill="#F1C65E" stroke="#512D16" stroke-width="2"/>
<path d="M56.0502 54.2646C64.0325 31.3426 62.3006 9.90403 52.1818 6.3803C42.063 2.85656 27.3891 18.582 19.4068 41.504C11.4245 64.4261 13.1565 85.8646 23.2753 89.3883C33.3941 92.9121 48.0679 77.1867 56.0502 54.2646Z" fill="#FCDC65" stroke="#512D16" stroke-width="2"/>
<path d="M51.2228 52.5824C57.6159 34.2241 56.7616 17.2395 49.3147 14.6462C41.8678 12.0529 30.6484 24.833 24.2553 43.1913C17.8623 61.5497 18.7166 78.5343 26.1634 81.1275C33.6103 83.7208 44.8298 70.9407 51.2228 52.5824Z" fill="#FFA04A"/>
<path d="M51.2193 52.5753C44.8251 70.9366 33.6044 83.7146 26.1549 81.1208C25.4587 80.8786 24.8199 80.5091 24.2343 80.0248L24.2281 80.0227C18.6135 75.3194 18.4539 59.8192 24.2469 43.1833C29.352 28.5223 37.5363 17.4154 44.4222 14.8633C46.1538 14.2193 47.8051 14.1139 49.305 14.6358C56.7545 17.2296 57.6094 34.2193 51.2183 52.5753H51.2193Z" fill="#F6BD60"/>
<path d="M46.7853 51.9929C41.1478 68.1831 31.5314 79.8787 24.2343 80.0258L24.2281 80.0238C18.6135 75.3205 18.4539 59.8202 24.2469 43.1844C29.352 28.5234 37.5363 17.4164 44.4222 14.8644C44.4775 14.8769 44.5255 14.8936 44.5787 14.9124C52.0282 17.5062 53.0126 34.1076 46.7843 51.9929H46.7853Z" fill="#FFF2C4"/>
<path d="M26.0766 59.4906C26.0766 59.4906 25.4756 57.639 23.5407 59.944C21.6821 62.1582 21.1397 65.3793 21.5729 66.7993C22.0279 68.2917 22.8987 68.3374 24.0711 67.4381C25.2959 66.4989 26.465 64.7103 26.465 64.7103L26.0769 59.4897L26.0766 59.4906Z" fill="#FCE5D8"/>
<path opacity="0.15" d="M26.5167 64.7131C26.5167 64.7131 25.3476 66.5014 24.1233 67.4407C23.242 68.1167 22.5311 68.259 22.04 67.6538C22.2868 67.4756 22.5803 67.1671 22.7001 66.6668C22.8133 66.195 22.539 65.825 22.5875 64.5607C22.6389 63.2146 24.3844 59.9203 26.2426 61.026L26.5169 64.7129L26.5167 64.7131Z" fill="#231F20"/>
<path d="M26.1851 61.7344C26.2526 62.6746 25.3826 64.8006 24.3894 65.7754C23.4174 66.7291 22.4859 66.4248 22.5128 64.9788C22.5341 63.8358 23.1502 62.1831 23.883 61.3147C24.7609 60.274 25.4234 60.8128 25.8309 61.1443C26.0411 61.3153 26.1626 61.4205 26.1851 61.7344Z" fill="#FAC1C0"/>
<path d="M24.9268 63.2042C24.9268 63.8382 25.3744 63.9201 25.9264 63.387C26.074 63.2445 26.2139 63.0726 26.3399 62.8852C26.2634 62.0063 26.207 61.3584 26.1666 60.8928C26.0898 60.945 26.0092 61.0115 25.9264 61.0915C25.3744 61.6246 24.9268 62.5706 24.9268 63.2046V63.2042Z" fill="#FCE5D8"/>
<path d="M22.2138 67.8504C23.1765 68.4955 24.929 67.2686 26.4646 64.7774C26.4181 64.1514 26.3765 63.5943 26.3398 63.0995C26.2633 62.0698 26.2069 61.3108 26.1665 60.7655C26.1003 59.8776 26.0765 59.5572 26.0765 59.5572C26.0062 59.3955 25.5963 58.5122 24.6106 59.0177C23.5485 59.5625 22.4805 61.3733 21.9393 62.8392C21.0505 65.2465 21.375 67.2878 22.2138 67.8504Z" stroke="#512E18" stroke-miterlimit="10"/>
<path d="M25.7249 61.1537C25.1906 60.2193 24.0275 60.847 23.302 62.0852C22.4533 63.5336 22.274 65.6977 22.9926 66.1598C23.6498 66.5826 24.9139 65.4906 25.7568 63.6296C25.1558 64.0035 24.8277 63.5346 24.9501 62.7881C25.037 62.2591 25.3459 61.6145 25.7249 61.1537Z" stroke="#512E18" stroke-miterlimit="10"/>
<path opacity="0.25" d="M24.2529 63.1804C24.2937 62.2212 23.9787 61.7497 23.5495 62.1275C23.1203 62.5053 22.7394 63.5892 22.6987 64.5484C22.658 65.5077 22.9729 65.9792 23.4021 65.6014C23.8313 65.2236 24.2122 64.1397 24.2529 63.1804Z" fill="white"/>
<path d="M44.5817 41.7185C44.5817 41.7185 45.1827 38.7062 47.1176 37.274C48.9762 35.8986 49.5187 38.072 49.0854 40.3288C48.6304 42.7 47.7596 44.4274 46.5872 45.7925C45.3624 47.2188 44.1934 47.6882 44.1934 47.6882L44.5815 41.7181L44.5817 41.7185Z" fill="#FCE5D8"/>
<path opacity="0.15" d="M44.1418 47.791C44.1418 47.791 45.3109 47.3214 46.5352 45.8962C47.4165 44.87 48.1274 43.6393 48.6185 42.0857C48.3717 42.384 48.0782 42.6424 47.9585 42.3734C47.8452 42.1205 48.1195 41.2206 48.071 40.0499C48.0197 38.803 46.2741 38.8801 44.4159 43.5746L44.1416 47.7913L44.1418 47.791Z" fill="#231F20"/>
<path d="M44.4729 44.172C44.4055 45.2424 45.2755 45.6881 46.2687 44.7447C47.2407 43.821 48.1722 41.7177 48.1453 40.3237C48.1239 39.2219 47.5078 38.7592 46.7751 39.306C45.8971 39.9609 45.2347 41.7791 44.8272 42.8977C44.6169 43.4747 44.4955 43.8145 44.4729 44.172Z" fill="#FAC1C0"/>
<path d="M45.7315 43.211C45.7315 43.8449 45.2839 44.7913 44.7319 45.3244C44.5843 45.4669 44.4444 45.5654 44.3184 45.6213C44.3949 44.5945 44.4513 43.8377 44.4916 43.2942C44.5684 43.1981 44.6491 43.1088 44.7319 43.0289C45.2839 42.4958 45.7315 42.5774 45.7315 43.2113V43.211Z" fill="#FCE5D8"/>
<path d="M48.4446 42.6179C47.482 45.1224 45.7294 47.2803 44.1938 47.7549C44.2404 47.0389 44.2819 46.4016 44.3187 45.836C44.3952 44.6583 44.4516 43.7904 44.4919 43.1672C44.5582 42.1514 44.5819 41.7851 44.5819 41.7851C44.6523 41.4876 45.0622 39.8125 46.0479 38.4142C47.1099 36.9078 48.178 36.6559 48.7192 37.0764C49.608 37.7673 49.2835 40.4353 48.4446 42.6179Z" stroke="#512E18" stroke-miterlimit="10"/>
<path d="M44.9338 42.702C45.468 40.7357 46.6311 39.117 47.3567 38.9539C48.2053 38.7633 48.3846 40.581 47.666 42.431C47.0089 44.123 45.7448 45.4725 44.9019 45.2395C45.5028 44.4526 45.8309 43.35 45.7085 42.84C45.6216 42.4788 45.3127 42.4307 44.9338 42.702Z" stroke="#512E18" stroke-miterlimit="10"/>
<path opacity="0.25" d="M47.2571 42.66C47.6862 42.2088 48.0012 41.1292 47.9605 40.2485C47.9198 39.3678 47.5388 39.0196 47.1096 39.4708C46.6804 39.922 46.3655 41.0016 46.4062 41.8823C46.4469 42.763 46.8279 43.1112 47.2571 42.66Z" fill="white"/>
<path d="M29.5083 42.8829C30.5499 41.6518 31.7106 40.3638 32.974 39.0917C35.2899 36.7602 37.3242 35.114 38.9855 33.9441C38.9884 33.7208 39.0169 33.2314 39.2308 32.5585C39.5764 31.471 40.1423 30.735 40.2643 30.5805C38.9567 30.6434 37.7967 32.2767 37.5243 32.7473C37.6211 31.2126 37.4451 30.5273 36.6193 31.0683C35.0551 34.8142 33.491 36.9843 31.5755 39.6158C31.0132 40.342 29.5083 42.8826 29.5083 42.8826V42.8829Z" fill="#F5BD61"/>
<path d="M44.8491 43.8659C45.4671 41.6676 45.7878 39.5746 45.7878 37.6951C45.7878 32.5969 43.2514 30.6565 39.6047 32.2015C39.5514 32.2242 39.4979 32.2476 39.4444 32.2712C39.4444 32.2712 39.6649 31.6498 40.3461 30.6304C39.873 30.2444 38.541 31.121 37.5769 32.5822C37.7343 30.0609 36.5614 30.9944 36.5614 30.9944C34.9754 35.1752 32.759 38.0546 32.759 38.0546C32.7095 38.1167 32.6603 38.1793 32.6113 38.2416C28.0838 44.0197 24.741 52.1669 24.741 58.0198C24.741 59.9099 25.0897 61.3658 25.7142 62.3713C25.0552 64.0137 24.686 65.4962 24.686 66.685C24.686 70.9494 29.4336 69.822 35.2903 64.1663C41.147 58.5106 45.8946 50.4689 45.8946 46.2042C45.8946 45.0047 45.519 44.232 44.8489 43.8665L44.8491 43.8659Z" fill="#FFAE64"/>
<path opacity="0.25" d="M24.978 55.1164C24.978 55.1164 26.48 46.3903 32.3943 39.5045C35.0229 36.444 36.7831 32.3299 36.7831 32.3299C37.2055 32.4765 37.4105 33.0486 37.4105 33.0486C38.7 31.6612 39.318 31.6259 39.318 31.6259C38.7195 32.6437 38.5248 33.7045 38.5248 33.7045C40.3059 32.6137 44.5781 30.7787 45.6852 36.3895C45.0168 32.8964 44.2996 30.8343 39.4443 32.2717C39.7241 31.494 40.346 30.6309 40.346 30.6309C39.1664 30.4418 37.9325 32.0293 37.5768 32.5827C37.5643 30.9152 37.3893 30.6981 36.5613 30.9949C34.8608 35.3556 33.0298 37.74 32.0429 38.9914C31.056 40.2427 28.5383 44.1074 26.9936 47.9743C25.4489 51.8413 24.9783 55.1165 24.9783 55.1165L24.978 55.1164Z" fill="white"/>
<path opacity="0.15" d="M45.9296 46.8044C45.6327 49.5948 43.1959 55.8063 35.3426 64.0368L35.3409 64.0384C27.4876 70.976 25.0511 69.4706 24.7542 67.2533C24.6834 66.7214 24.6954 66.1533 24.7808 65.5666C25.7101 65.9965 27.6256 64.4757 35.3385 53.8781C43.0661 49.5703 44.9741 47.3918 45.9015 45.1633C45.9882 45.5851 46.0009 46.133 45.9294 46.8046L45.9296 46.8044Z" fill="#231F20"/>
<path d="M44.8491 43.8659L45.1035 43.9739L45.141 43.8855L45.1661 43.7962L44.8491 43.8659ZM39.6047 32.2015L39.7354 31.6095L39.7346 31.6098L39.6047 32.2015ZM39.4444 32.2712L39.1568 32.2488L38.8688 33.0599L39.3176 32.8616L39.4444 32.2712ZM40.3461 30.6304L40.4744 30.9735L40.929 30.2932L40.6297 30.049L40.3461 30.6304ZM37.5769 32.5822L37.2187 32.8821L37.1649 33.7443L37.7092 32.9194L37.5769 32.5822ZM36.5614 30.9944L36.605 30.456L36.4104 30.6109L36.2849 30.9416L36.5614 30.9944ZM32.759 38.0546L32.8324 38.4731L32.8377 38.4666L32.8428 38.4598L32.759 38.0546ZM32.6113 38.2416L32.5339 37.8281L32.5329 37.8293L32.6113 38.2416ZM25.7142 62.3713L25.9801 62.4512L26.1519 62.0232L26.0307 61.8282L25.7142 62.3713ZM44.8489 43.8665L44.5946 43.7585L44.3506 44.3332L44.5842 44.4606L44.8489 43.8665ZM45.1661 43.7962C45.8128 41.4959 46.1475 39.3078 46.1475 37.3478L45.4281 38.0424C45.4281 39.8413 45.1215 41.8393 44.5322 43.9356L45.1661 43.7962ZM46.1475 37.3478C46.1475 32.0023 43.4902 30.0186 39.7354 31.6095L39.4741 32.7935C43.0126 31.2943 45.4281 33.1916 45.4281 38.0424L46.1475 37.3478ZM39.7346 31.6098C39.6801 31.6331 39.6256 31.6568 39.5712 31.6809L39.3176 32.8616C39.3702 32.8383 39.4227 32.8154 39.4748 32.7932L39.7346 31.6098ZM39.4444 32.2712C39.732 32.2937 39.7319 32.294 39.7318 32.2943C39.7317 32.2944 39.7316 32.2947 39.7316 32.2949C39.7314 32.2953 39.7313 32.2957 39.7311 32.2961C39.7309 32.2969 39.7306 32.2976 39.7304 32.2983C39.7299 32.2997 39.7294 32.3009 39.729 32.302C39.7282 32.3041 39.7277 32.3057 39.7273 32.3067C39.7265 32.3088 39.7266 32.3085 39.7276 32.3059C39.7296 32.3007 39.7352 32.2865 39.745 32.2635C39.7644 32.2175 39.8003 32.1362 39.8566 32.0227C39.9689 31.7964 40.1643 31.4377 40.4744 30.9735L40.2178 30.2872C39.8467 30.8426 39.5913 31.3042 39.423 31.6435C39.339 31.8128 39.2773 31.9505 39.234 32.053C39.2124 32.1041 39.1955 32.1464 39.1828 32.1792C39.1764 32.1956 39.1711 32.2096 39.1668 32.2213C39.1646 32.2271 39.1627 32.2323 39.161 32.2369C39.1602 32.2392 39.1594 32.2413 39.1587 32.2433C39.1584 32.2443 39.158 32.2452 39.1577 32.2461C39.1575 32.2466 39.1574 32.2471 39.1572 32.2475C39.1571 32.2477 39.157 32.248 39.157 32.2481C39.1569 32.2485 39.1568 32.2488 39.4444 32.2712ZM40.6297 30.049C40.319 29.7955 39.772 29.9719 39.2157 30.3556C38.65 30.7457 38.0036 31.3978 37.4446 32.2451L37.7092 32.9194C38.1143 32.3055 38.616 31.7887 39.0756 31.4717C39.5445 31.1483 39.9001 31.0793 40.0625 31.2118L40.6297 30.049ZM37.935 32.2824C38.0223 30.8851 37.7411 30.3502 37.3702 30.2393C37.1924 30.1861 37.0083 30.2353 36.8678 30.2982C36.7973 30.3297 36.7367 30.3652 36.6915 30.3945C36.6688 30.4092 36.6499 30.4225 36.6353 30.4331C36.628 30.4384 36.6218 30.4431 36.6167 30.4469C36.6142 30.4489 36.6119 30.4506 36.61 30.4521C36.609 30.4529 36.6081 30.4536 36.6073 30.4542C36.6069 30.4545 36.6065 30.4549 36.6061 30.4552C36.6059 30.4553 36.6056 30.4555 36.6055 30.4556C36.6053 30.4558 36.605 30.456 36.5614 30.9944C36.5178 31.5329 36.5175 31.5331 36.5173 31.5332C36.5172 31.5333 36.517 31.5335 36.5168 31.5336C36.5165 31.5339 36.5162 31.5341 36.516 31.5343C36.5154 31.5347 36.515 31.5351 36.5145 31.5354C36.5137 31.5361 36.5132 31.5365 36.5128 31.5367C36.5122 31.5372 36.5125 31.537 36.5138 31.536C36.5163 31.5342 36.5224 31.5299 36.5315 31.524C36.5498 31.5121 36.5796 31.4944 36.6166 31.4778C36.6911 31.4444 36.7904 31.4178 36.8861 31.4464C37.0623 31.4991 37.2889 31.7581 37.2187 32.8821L37.935 32.2824ZM36.2849 30.9416C35.5334 32.9226 34.6286 34.6048 33.9063 35.7975C33.5461 36.3925 33.234 36.8611 33.0136 37.1788C32.9035 37.3376 32.8165 37.4582 32.7582 37.5378C32.729 37.5776 32.7071 37.607 32.693 37.6257C32.6859 37.6351 32.6809 37.6418 32.6779 37.6458C32.6763 37.6478 32.6754 37.6491 32.6749 37.6497C32.6747 37.65 32.6745 37.6501 32.6746 37.6501C32.6746 37.6501 32.6746 37.65 32.6747 37.6499C32.6748 37.6498 32.6748 37.6497 32.6749 37.6497C32.675 37.6496 32.6751 37.6494 32.759 38.0546C32.8428 38.4598 32.843 38.4597 32.8431 38.4595C32.8431 38.4594 32.8433 38.4593 32.8434 38.4591C32.8436 38.4588 32.8439 38.4585 32.8441 38.4582C32.8447 38.4574 32.8454 38.4565 32.8462 38.4554C32.8479 38.4532 32.8501 38.4503 32.8529 38.4467C32.8583 38.4395 32.8659 38.4296 32.8755 38.4168C32.8946 38.3913 32.9218 38.3548 32.9564 38.3077C33.0255 38.2134 33.1241 38.0765 33.2465 37.9C33.4913 37.5472 33.8324 37.0346 34.2245 36.3871C35.007 35.0949 36.0034 33.247 36.8379 31.0473L36.2849 30.9416ZM32.6855 37.6362C32.6338 37.701 32.5829 37.7658 32.5339 37.8281L32.6888 38.655C32.7378 38.5927 32.7852 38.5325 32.8324 38.4731L32.6855 37.6362ZM32.5329 37.8293C27.8808 43.7666 24.3813 52.2278 24.3813 58.3671L25.1007 57.6725C25.1007 52.106 28.2869 44.2729 32.6898 38.6538L32.5329 37.8293ZM24.3813 58.3671C24.3813 60.3445 24.7464 61.8658 25.3977 62.9144L26.0307 61.8282C25.4331 60.8659 25.1007 59.4754 25.1007 57.6725L24.3813 58.3671ZM25.4483 62.2914C24.7444 64.0455 24.3264 65.6903 24.3264 67.0324L25.0457 66.3377C25.0457 65.3022 25.3659 63.9819 25.9801 62.4512L25.4483 62.2914ZM24.3264 67.0324C24.3264 69.4438 25.6619 70.216 27.625 69.7498C29.6052 69.2795 32.3159 67.5387 35.2903 64.6663V63.6663C32.4081 66.4496 29.8166 68.1004 27.9588 68.5416C26.084 68.9869 25.0457 68.1907 25.0457 66.3377L24.3264 67.0324ZM35.2903 64.6663C38.2648 61.7939 40.9754 58.2995 42.9556 54.9454C44.9187 51.6201 46.2543 48.2684 46.2543 45.8568L45.5349 46.5515C45.5349 48.4046 44.4967 51.2061 42.6218 54.3818C40.764 57.5287 38.1725 60.883 35.2903 63.6663V64.6663ZM46.2543 45.8568C46.2543 44.5027 45.8288 43.6625 45.1136 43.2724L44.5842 44.4606C45.2091 44.8015 45.5349 45.5067 45.5349 46.5515L46.2543 45.8568ZM45.1032 43.9744L45.1035 43.9739L44.5948 43.758L44.5946 43.7585L45.1032 43.9744Z" fill="#512E18"/>
<path d="M43.5299 45.5194C44.334 45.7893 44.7938 46.5597 44.7938 47.8546C44.7938 51.7884 40.5483 59.0772 35.3113 64.1345C30.0744 69.1918 25.8286 70.1028 25.8286 66.1691C25.8286 64.8785 26.3045 63.4257 27.1033 61.6107C27.0455 61.4049 25.8567 56.8995 28.0499 51.4581C28.3797 50.6398 29.26 48.4557 30.7121 46.6872C31.6008 45.6047 32.3072 45.1608 32.5174 45.0369C34.3285 43.9669 35.1719 45.4356 35.3291 45.7295C35.5038 45.015 36.1151 42.7007 37.5012 40.5137C39.6948 37.0523 41.8 37.1118 41.9855 37.1235C43.8647 37.2422 44.5512 40.6022 43.5297 45.5196L43.5299 45.5194Z" fill="#FCE5D8"/>
<path opacity="0.15" d="M35.3413 64.267L35.3389 64.2693C30.8709 68.5833 25.7552 70.1674 25.8509 65.8722C25.8555 65.6616 25.8742 65.449 25.9033 65.2368C26.4512 68.504 31.176 66.8547 35.3389 62.8353L35.3413 62.833C39.504 58.8124 44.2288 51.3363 44.777 47.0106C44.8061 47.1668 44.8248 47.3435 44.8293 47.545C44.9253 51.655 39.8093 59.9516 35.3413 64.267Z" fill="#231F20"/>
<path d="M43.5334 45.5443C44.3374 45.8142 44.7972 46.5846 44.7972 47.8795C44.7972 51.8133 40.5517 59.1021 35.3148 64.1594C30.0778 69.2167 25.832 70.1278 25.832 66.194C25.832 64.9034 26.308 63.4506 27.1067 61.6356C27.0489 61.4298 25.8601 56.9244 28.0533 51.483C28.3831 50.6647 29.2634 48.4807 30.7155 46.7121C31.6042 45.6296 32.3106 45.1857 32.5208 45.0618C34.3319 43.9918 35.1753 45.4605 35.3325 45.7544C35.5072 45.0399 36.1185 42.7256 37.5046 40.5386C39.6983 37.0772 41.8034 37.1367 41.9889 37.1484C43.8682 37.2671 44.5546 40.6271 43.5331 45.5445L43.5334 45.5443Z" stroke="#512E18" stroke-miterlimit="10"/>
<path d="M34.4453 56.0995C34.6696 55.7564 34.7841 55.3128 34.7011 55.1089C34.6182 54.9049 34.3691 55.0177 34.1448 55.3609C33.9206 55.7041 33.806 56.1476 33.889 56.3515C33.972 56.5555 34.2211 56.4427 34.4453 56.0995Z" fill="#512D16"/>
<path d="M34.3579 55.3434C34.3579 55.3434 34.8053 54.903 34.8655 56.0089" stroke="#512D16" stroke-miterlimit="10"/>
<path d="M36.8365 53.4313C36.9176 53.0678 36.8008 52.8491 36.5757 52.9428C36.3506 53.0365 36.1024 53.407 36.0213 53.7705C35.9402 54.1339 36.057 54.3527 36.2821 54.259C36.5072 54.1653 36.7554 53.7948 36.8365 53.4313Z" fill="#512D16"/>
<path d="M36.3635 53.337C36.3635 53.337 35.9161 53.7667 35.8638 54.9817" stroke="#512D16" stroke-miterlimit="10"/>
<path d="M28.2902 62.4542C28.9356 61.831 29.4588 60.9293 29.4588 60.4405C29.4588 59.9517 28.9356 60.0606 28.2902 60.6839C27.6448 61.3071 27.1216 62.2084 27.1216 62.6976C27.1216 63.1867 27.6448 63.0775 28.2902 62.4542Z" fill="#FAC1C0"/>
<path d="M42.3927 48.8353C43.0381 48.2121 43.5616 47.3102 43.5616 46.8214C43.5616 46.3326 43.0383 46.4415 42.3927 47.065C41.7471 47.6884 41.2241 48.5895 41.2241 49.0787C41.2241 49.5678 41.7473 49.4586 42.3927 48.8353Z" fill="#FAC1C0"/>
<path d="M31.7231 58.1659C32.5794 57.339 33.2737 55.5541 33.2737 54.1791C33.2737 52.8041 32.5794 52.3602 31.7231 53.1872C30.8667 54.0142 30.1724 55.7991 30.1724 57.1741C30.1724 58.549 30.8667 58.9929 31.7231 58.1659Z" fill="#512E18"/>
<path d="M32.1444 55.4397C32.4237 55.1699 32.6501 54.553 32.6501 54.0615C32.6501 53.5701 32.4237 53.3902 32.1444 53.66C31.865 53.9298 31.6387 54.5468 31.6387 55.0382C31.6387 55.5297 31.865 55.7095 32.1444 55.4397Z" fill="white"/>
<g opacity="0.2">
<path d="M31.1448 57.6762C31.2994 57.5269 31.4249 57.1361 31.4249 56.8035C31.4249 56.4708 31.2996 56.3222 31.1448 56.4717C30.99 56.6212 30.8647 57.0118 30.8647 57.3444C30.8647 57.6771 30.99 57.8257 31.1448 57.6762Z" fill="white"/>
</g>
<path d="M38.9906 51.1478C39.847 50.3208 40.5413 48.5359 40.5413 47.1609C40.5413 45.7859 39.847 45.3421 38.9906 46.169C38.1343 46.996 37.4399 48.7809 37.4399 50.1559C37.4399 51.5308 38.1343 51.9747 38.9906 51.1478Z" fill="#512E18"/>
<path d="M38.5692 49.2354C38.8485 48.9656 39.0749 48.3487 39.0749 47.8572C39.0749 47.3657 38.8485 47.1859 38.5692 47.4557C38.2898 47.7255 38.0635 48.3424 38.0635 48.8339C38.0635 49.3253 38.2898 49.5052 38.5692 49.2354Z" fill="white"/>
<g opacity="0.2">
<path d="M39.5687 49.5411C39.7232 49.3918 39.8488 49.001 39.8488 48.6683C39.8488 48.3357 39.7235 48.1871 39.5687 48.3366C39.4139 48.4861 39.2886 48.8766 39.2886 49.2093C39.2886 49.5419 39.4139 49.6906 39.5687 49.5411Z" fill="white"/>
</g>
<path d="M37.6815 57.2517C37.413 57.8094 37.0957 58.34 36.7582 58.828C36.3027 59.4868 35.81 60.0677 35.3501 60.5328C34.8391 61.05 34.3682 61.424 34.0334 61.6025C33.9033 61.6717 33.7682 61.7278 33.6333 61.7686C32.9639 61.9693 32.3128 61.776 32.421 60.8433C32.435 60.7238 32.4614 60.5915 32.5019 60.4469C32.7309 59.6282 33.1593 59.1001 33.5016 58.7893C33.7864 58.5302 34.0116 58.4215 34.0116 58.4215C34.5273 58.1233 34.9296 57.8039 35.2678 57.483C35.6117 57.1569 35.8894 56.8297 36.1532 56.5216C36.5998 56.0002 36.6413 55.8493 37.112 55.289C37.1922 55.1936 37.285 55.0862 37.3945 54.9628C37.755 54.557 38.0737 54.5732 38.1937 54.9367C38.1942 54.9379 38.1944 54.9391 38.1947 54.9402C38.3228 55.3359 38.2182 56.1376 37.6818 57.2512L37.6815 57.2517Z" fill="#512D16"/>
<path d="M37.1417 55.2047C37.1117 56.0828 36.4915 57.3577 35.735 58.0826L34.9168 58.8667C34.2019 59.5515 33.6155 59.5084 33.5327 58.8053C33.7958 58.5686 33.9983 58.4655 33.9983 58.4655C34.5292 58.144 34.9389 57.806 35.2817 57.4697C35.6155 57.1427 35.8858 56.817 36.1428 56.5103C36.5976 55.9677 36.6283 55.8236 37.1285 55.2205C37.1328 55.2153 37.1374 55.2099 37.1417 55.2047Z" fill="white"/>
<path d="M36.8971 58.694C36.4415 59.3528 35.9488 59.9337 35.4889 60.3988C34.9931 60.908 34.5356 61.2804 34.2063 61.4656C34.0642 61.5451 33.9154 61.6104 33.7681 61.6559C33.7695 61.6489 33.7709 61.6415 33.7721 61.6346C33.8182 61.4046 33.9058 61.1542 34.0225 60.9091C34.1998 60.5373 34.4446 60.1768 34.7147 59.916L35.938 58.7347C36.405 58.2836 36.7955 58.2769 36.893 58.6783C36.8944 58.6836 36.8959 58.6885 36.8968 58.6943L36.8971 58.694Z" fill="#FAC0C0"/>
<path d="M37.7127 57.1626C37.4703 57.6777 37.1854 58.1723 36.8801 58.6326C36.8501 58.678 36.8198 58.7228 36.7896 58.7674C36.7824 58.778 36.7752 58.7886 36.768 58.7989C36.3137 59.4626 35.8219 60.0499 35.3637 60.52C35.3085 60.5767 35.254 60.6313 35.2 60.6845C34.7675 61.1098 34.3737 61.4224 34.0811 61.5865C33.9388 61.6665 33.7902 61.7313 33.6426 61.7774C33.634 61.78 33.6249 61.7832 33.616 61.7857C32.9411 61.9867 32.2995 61.7912 32.4347 60.8305C32.4483 60.7336 32.4697 60.6295 32.4999 60.5166C32.7246 59.6767 33.1715 59.1327 33.5193 58.8172C33.5238 58.8132 33.5281 58.8093 33.5325 58.8055C33.7955 58.5688 33.9981 58.4656 33.9981 58.4656C34.529 58.1441 34.9387 57.8062 35.2814 57.4699C35.6152 57.1428 35.8855 56.8171 36.1425 56.5105C36.5974 55.9679 36.6281 55.8238 37.1283 55.2206C37.1326 55.2155 37.1371 55.2101 37.1415 55.2049C37.2103 55.122 37.2881 55.0306 37.3767 54.9287C37.7535 54.4947 38.0924 54.5188 38.2073 54.9236C38.2078 54.9248 38.2081 54.9259 38.2081 54.9276C38.3199 55.3277 38.2138 56.0975 37.7127 57.1626Z" stroke="#512D16" stroke-miterlimit="10"/>
</svg>
