<svg width="558" height="218" viewBox="0 0 558 218" fill="none" xmlns="http://www.w3.org/2000/svg">
<path d="M557.5 0L33.5 102L167 210L557.5 0Z" fill="url(#paint0_linear_116_2732)"/>
<path d="M43.2155 101.14C60.9653 98.1199 84.2027 99.3181 108.698 105.499L108.698 105.5C133.2 111.683 154.227 121.656 168.42 132.738C175.518 138.28 180.868 144.069 184.105 149.762C187.338 155.449 188.433 160.984 187.143 166.094L188.113 166.338L187.143 166.094L179.892 194.829C178.352 200.933 173.517 205.972 165.998 209.706C152.388 216.447 130.37 218.703 105.194 215.38L105.193 215.38C97.71 214.397 89.9709 212.931 82.0892 210.942L81.8444 211.911L82.0892 210.942C57.594 204.759 36.57 194.787 22.3784 183.706C15.2815 178.165 9.9316 172.376 6.69551 166.683C3.46283 160.996 2.3676 155.462 3.65724 150.352L3.65725 150.352L10.9087 121.617C10.9087 121.617 10.9087 121.617 10.9087 121.617C12.1983 116.507 15.7886 112.155 21.3328 108.683C26.8827 105.207 34.3389 102.65 43.2155 101.14Z" fill="#F1C65E" stroke="#512D16" stroke-width="2"/>
<path d="M108.689 105.447C133.188 111.628 154.215 121.597 168.408 132.678C175.506 138.219 180.857 144.008 184.093 149.702C187.326 155.389 188.421 160.925 187.132 166.037C185.842 171.15 182.251 175.503 176.707 178.977C171.157 182.453 163.701 185.011 154.824 186.522C137.073 189.543 113.833 188.345 89.334 182.164C64.8351 175.983 43.8084 166.013 29.6152 154.932C22.5175 149.391 17.167 143.602 13.9305 137.909C10.6975 132.221 9.60211 126.685 10.8919 121.573C12.1817 116.461 15.7723 112.107 21.3165 108.634C26.8666 105.157 34.323 102.599 43.1999 101.088C60.9509 98.0672 84.1904 99.2658 108.689 105.447Z" fill="#FCDC65" stroke="#512D16" stroke-width="2"/>
<path d="M170.37 161.784C174.403 145.799 145.727 124.781 106.321 114.839C66.9141 104.897 31.6995 109.795 27.6665 125.78C23.6336 141.765 52.3096 162.783 91.7162 172.725C131.123 182.668 166.338 177.769 170.37 161.784Z" fill="#FFA04A"/>
<path d="M106.329 114.886C145.741 124.833 174.411 145.858 170.376 161.847C169.999 163.342 169.348 164.738 168.447 166.048V166.061C159.679 178.615 127.428 181.792 91.719 172.78C60.2497 164.839 35.6171 149.832 29.0378 135.96C27.3771 132.47 26.8556 129.051 27.6674 125.832C31.7022 109.843 66.9293 104.944 106.329 114.886Z" fill="#F6BD60"/>
<path d="M105.927 124.228C140.678 132.998 166.799 150.879 168.447 166.048V166.061C159.679 178.615 127.428 181.792 91.7188 172.78C60.2495 164.839 35.6169 149.832 29.0376 135.96C29.0529 135.842 29.0791 135.739 29.1096 135.624C33.1445 119.635 67.538 114.539 105.929 124.228H105.927Z" fill="#FFF2C4"/>
<path d="M64.9763 149.818C64.9763 149.818 58.5468 146.012 52.8651 146.814C47.4079 147.585 50.4934 151.877 55.2832 154.755C60.3157 157.779 64.84 159.129 69.1863 159.428C73.727 159.741 76.4404 158.631 76.4404 158.631L64.9759 149.817L64.9763 149.818Z" fill="#FCE5D8"/>
<path opacity="0.15" d="M76.709 158.712C76.709 158.712 73.995 159.822 69.4571 159.51C66.1898 159.285 62.8224 158.467 59.2182 156.791C60.1529 156.871 61.0896 156.815 60.7914 156.2C60.5121 155.621 58.4406 154.634 56.3908 152.709C54.207 150.658 57.1255 148.015 68.6121 152.487L76.7098 158.712L76.709 158.712Z" fill="#231F20"/>
<path d="M69.6065 153.522C71.6586 155.105 71.0837 157.187 67.789 157.27C64.5637 157.35 59.2598 155.504 56.7697 153.259C54.802 151.485 54.9419 149.779 57.1015 149.482C59.6889 149.126 64.0465 150.949 66.7274 152.07C68.1105 152.648 68.9212 152.993 69.6065 153.522Z" fill="#FAC1C0"/>
<path d="M65.8581 153.997C67.0099 154.999 69.4418 155.784 71.289 155.752C71.7829 155.744 72.1844 155.677 72.4866 155.566C70.4991 154.066 69.0343 152.96 67.9828 152.165C67.6858 152.135 67.3954 152.122 67.1183 152.127C65.2712 152.159 64.707 152.997 65.8588 153.998L65.8581 153.997Z" fill="#FCE5D8"/>
<path d="M60.4629 157.355C66.5454 159.786 73.2552 160.419 76.5615 158.737C75.1866 157.68 73.9626 156.739 72.8765 155.904C70.615 154.165 68.9484 152.884 67.752 151.963C65.8009 150.464 65.0976 149.923 65.0976 149.923C64.4452 149.565 60.7494 147.568 56.64 146.921C52.2128 146.223 50.0551 147.517 49.9578 149.038C49.7985 151.537 55.1622 155.236 60.4629 157.355Z" stroke="#512E18" stroke-width="2" stroke-miterlimit="10"/>
<path d="M66.2029 151.928C61.78 149.669 56.988 148.954 55.5369 149.845C53.8398 150.888 56.8571 154.043 61.362 155.827C65.4819 157.459 69.9458 157.588 70.864 155.885C68.4778 155.594 65.9524 154.372 65.2205 153.373C64.7026 152.665 65.1069 152.1 66.2029 151.928Z" stroke="#512E18" stroke-width="2" stroke-miterlimit="10"/>
<path opacity="0.25" d="M62.3781 152.97C60.8429 151.515 58.38 150.309 56.8772 150.276C55.3744 150.243 55.4007 151.396 56.936 152.851C58.4712 154.307 60.9341 155.513 62.4369 155.546C63.9397 155.579 63.9134 154.426 62.3781 152.97Z" fill="white"/>
<path d="M127.075 148.892C127.075 148.892 124.667 145.016 131.935 145.592C138.916 146.146 145.631 150.374 147.522 153.303C149.509 156.381 148.206 157.832 144.706 158.268C141.051 158.724 135.94 157.751 135.94 157.751L127.073 148.891L127.075 148.892Z" fill="#FCE5D8"/>
<path opacity="0.15" d="M135.864 157.838C135.864 157.838 140.974 158.811 144.629 158.356C147.26 158.028 148.65 157.127 148.332 155.394C147.616 155.503 146.588 155.481 145.488 154.88C144.451 154.314 144.215 153.296 141.841 151.376C139.313 149.331 130.55 146.892 129.602 151.581L135.863 157.838L135.864 157.838Z" fill="#231F20"/>
<path d="M130.978 152.608C132.579 154.2 137.826 156.18 141.178 156.147C144.458 156.113 145.388 154.158 142.718 151.917C140.607 150.145 136.624 148.511 133.88 148.3C130.592 148.046 130.516 149.946 130.47 151.115C130.446 151.718 130.444 152.077 130.978 152.608Z" fill="#FAC1C0"/>
<path d="M135.652 152.937C136.804 153.938 136.24 154.776 134.393 154.809C133.899 154.817 133.364 154.768 132.823 154.671C131.348 153.162 130.261 152.049 129.479 151.25C129.696 151.211 129.946 151.188 130.223 151.183C132.07 151.151 134.501 151.936 135.653 152.938L135.652 152.937Z" fill="#FCE5D8"/>
<path d="M148.412 155.979C148.052 158.522 143.033 159.36 136.063 157.857C135 156.794 134.054 155.849 133.213 155.009C131.464 153.261 130.175 151.973 129.248 151.048C127.741 149.541 127.196 148.997 127.196 148.997C127.015 148.631 126.062 146.587 128.549 145.824C131.23 145.003 136.219 146.171 139.744 147.629C145.532 150.024 148.725 153.762 148.412 155.979Z" stroke="#512E18" stroke-width="2" stroke-miterlimit="10"/>
<path d="M130.656 150.961C129.809 148.639 132.8 147.789 136.205 148.596C140.187 149.539 144.404 152.673 144.1 154.541C143.822 156.249 139.826 156.527 135.104 154.922C136.739 154.561 136.41 153.301 134.859 152.316C133.759 151.618 132.096 151.089 130.656 150.961Z" stroke="#512E18" stroke-width="2" stroke-miterlimit="10"/>
<path opacity="0.25" d="M142.432 154.304C143.801 154.221 143.446 152.977 141.638 151.527C139.83 150.076 137.255 148.967 135.885 149.05C134.516 149.133 134.871 150.377 136.679 151.827C138.487 153.278 141.062 154.387 142.432 154.304Z" fill="white"/>
<path d="M52.3052 128.62C55.3815 128.204 58.9615 127.872 63.0944 127.716C70.6707 127.43 78.0561 127.814 84.4044 128.403C84.0133 128.055 83.2699 127.324 83.138 126.575C82.9251 125.364 84.4745 125.032 84.8157 124.967C78.2606 123.148 75.3116 124.026 74.7771 124.37C72.482 122.088 70.3396 120.748 67.11 120.391C65.9378 124.013 61.9024 125.146 56.9133 126.492C55.3644 126.814 52.3046 128.62 52.3046 128.62L52.3052 128.62Z" fill="#F5BD61"/>
<path d="M132.341 152.675C131.499 150.11 129.332 147.274 125.917 144.306C116.655 136.254 100.192 129.469 84.3985 126.56C84.1681 126.518 83.9374 126.477 83.7074 126.435C83.7074 126.435 83.7035 125.778 85.3256 125.167C82.2114 123.863 77.0098 123.294 74.747 124.187C70.9693 120.436 66.6826 120.19 66.6826 120.19C66.189 124.467 60.1151 125.764 60.1151 125.764C59.9758 125.789 59.8384 125.816 59.7018 125.842C47.1068 128.327 44.8584 136.292 55.4923 145.535C58.9264 148.521 63.3504 151.332 68.3625 153.836C67.9849 155.463 68.7956 157.263 70.9555 159.14C78.7033 165.876 100.871 171.059 120.468 170.716C140.065 170.374 149.67 164.637 141.922 157.902C139.743 156.007 136.423 154.236 132.341 152.676L132.341 152.675Z" fill="#FFAE64"/>
<path opacity="0.25" d="M51.4265 141.297C51.4265 141.297 43.2336 129.719 60.8897 127.519C68.7365 126.54 70.2399 122.624 70.2399 122.624C72.6609 123.476 74.7458 124.68 74.7458 124.68C78.8026 124.38 81.8908 125.231 81.8908 125.231C80.6869 125.96 81.6214 127.35 81.6214 127.35C88.7244 128.24 107.181 131.608 123.022 142.094C113.266 135.596 105.862 131.288 83.7081 126.436C83.7225 125.618 85.3262 125.167 85.3262 125.167C78.9657 123.138 75.5566 123.836 74.7477 124.188C71.6543 121.536 70.3675 120.937 66.6833 120.191C65.9327 124.584 60.9255 125.664 58.1651 126.193C55.4047 126.721 49.5845 129.132 48.7312 132.974C47.878 136.816 51.4279 141.298 51.4279 141.298L51.4265 141.297Z" fill="white"/>
<path opacity="0.15" d="M143.19 158.9C146.745 162.872 145.601 169.108 120.498 170.588L120.492 170.588C93.0401 170.026 77.877 164.074 72.3341 160.137C71.0066 159.193 70.0356 158.313 69.4056 157.512C74.9266 159.554 81.9338 159.962 102.02 154.537C133.609 159.068 139.383 158.426 140.065 156.267C141.273 157.06 142.333 157.944 143.189 158.9L143.19 158.9Z" fill="#231F20"/>
<path d="M132.341 152.675L133.582 153.127L133.607 153.057L133.579 152.97L132.341 152.675ZM84.3985 126.56L84.0585 125.943L84.0559 125.942L84.3985 126.56ZM83.7074 126.435L82.4547 126.055L82.459 126.769L84.0613 127.056L83.7074 126.435ZM85.3256 125.167L86.3874 125.773L87.2867 125.434L85.6496 124.749L85.3256 125.167ZM74.747 124.187L73.682 124.144L74.7553 125.21L75.8166 124.791L74.747 124.187ZM66.6826 120.19L66.0547 119.537L65.4638 119.503L65.4313 119.784L66.6826 120.19ZM60.1151 125.764L61.0582 126.402L61.0704 126.4L61.0822 126.397L60.1151 125.764ZM59.7018 125.842L58.7495 125.205L58.7473 125.206L59.7018 125.842ZM68.3625 153.836L69.6099 154.264L69.6917 153.912L68.8839 153.509L68.3625 153.836ZM132.341 152.676L131.1 152.224L130.934 152.681L132.116 153.133L132.341 152.676ZM133.579 152.97C132.705 150.306 130.454 147.363 126.917 144.289L124.917 144.324C128.211 147.186 130.294 149.914 131.103 152.381L133.579 152.97ZM126.917 144.289C117.281 135.912 100.241 128.923 84.0585 125.943L84.7384 127.178C100.143 130.015 116.028 136.596 124.917 144.324L126.917 144.289ZM84.0559 125.942C83.8212 125.899 83.5867 125.857 83.3536 125.815L84.0613 127.056C84.2882 127.096 84.515 127.137 84.7411 127.179L84.0559 125.942ZM83.7074 126.435C84.9601 126.815 84.9601 126.816 84.9601 126.816C84.9601 126.816 84.9601 126.816 84.9601 126.816C84.9601 126.817 84.9601 126.817 84.9601 126.817C84.9601 126.818 84.9601 126.819 84.9601 126.819C84.9601 126.82 84.9601 126.821 84.9601 126.822C84.96 126.824 84.9599 126.825 84.9599 126.825C84.9598 126.826 84.9599 126.825 84.9605 126.821C84.9617 126.814 84.965 126.797 84.9736 126.773C84.9907 126.724 85.0287 126.644 85.1131 126.543C85.2814 126.342 85.6366 126.056 86.3874 125.773L84.2638 124.56C83.3925 124.888 82.9386 125.236 82.7034 125.517C82.5859 125.657 82.5236 125.78 82.4907 125.874C82.4743 125.921 82.4653 125.96 82.4604 125.991C82.4579 126.006 82.4565 126.019 82.4557 126.03C82.4553 126.036 82.455 126.041 82.4549 126.045C82.4548 126.047 82.4548 126.049 82.4548 126.051C82.4547 126.051 82.4547 126.052 82.4547 126.053C82.4547 126.054 82.4547 126.054 82.4547 126.054C82.4547 126.055 82.4547 126.055 82.4547 126.055C82.4547 126.055 82.4547 126.055 83.7074 126.435ZM85.6496 124.749C83.6872 123.928 81.2837 123.413 79.1715 123.206C77.0294 122.996 74.959 123.078 73.6775 123.584L75.8166 124.791C76.7979 124.404 78.4596 124.323 80.2626 124.5C82.0954 124.68 83.8498 125.102 85.0016 125.584L85.6496 124.749ZM75.8121 124.23C73.7531 122.186 71.4131 120.972 69.4127 120.285C68.4485 119.954 67.6318 119.769 67.0534 119.666C66.7634 119.615 66.5292 119.584 66.3608 119.565C66.2764 119.555 66.208 119.549 66.1567 119.544C66.1311 119.542 66.1096 119.541 66.0926 119.539C66.0841 119.539 66.0767 119.538 66.0704 119.538C66.0672 119.538 66.0643 119.537 66.0617 119.537C66.0604 119.537 66.0592 119.537 66.058 119.537C66.0574 119.537 66.0566 119.537 66.0563 119.537C66.0555 119.537 66.0547 119.537 66.6826 120.19C67.3105 120.844 67.3098 120.844 67.3091 120.843C67.3088 120.843 67.3081 120.843 67.3077 120.843C67.3068 120.843 67.3059 120.843 67.3051 120.843C67.3036 120.843 67.3023 120.843 67.3012 120.843C67.299 120.843 67.2978 120.843 67.2975 120.843C67.2969 120.843 67.3 120.843 67.3067 120.843C67.3201 120.845 67.3474 120.847 67.3876 120.852C67.4684 120.861 67.5986 120.878 67.7695 120.908C68.1129 120.969 68.604 121.08 69.1836 121.279C70.271 121.653 71.9632 122.438 73.682 124.144L75.8121 124.23ZM65.4313 119.784C65.1952 121.829 63.6223 123.17 62.0946 124C61.3323 124.414 60.5861 124.699 60.034 124.879C59.7582 124.969 59.5314 125.033 59.3761 125.074C59.2985 125.094 59.2388 125.109 59.1998 125.118C59.1803 125.122 59.166 125.126 59.1573 125.128C59.1529 125.129 59.1499 125.129 59.1484 125.13C59.1476 125.13 59.1472 125.13 59.1471 125.13C59.1471 125.13 59.1471 125.13 59.1473 125.13C59.1474 125.13 59.1476 125.13 59.1476 125.13C59.1478 125.13 59.148 125.13 60.1151 125.764C61.0822 126.397 61.0825 126.397 61.0828 126.397C61.0829 126.397 61.0832 126.397 61.0835 126.397C61.084 126.397 61.0846 126.397 61.0854 126.397C61.0868 126.396 61.0886 126.396 61.0907 126.396C61.095 126.395 61.1007 126.393 61.1078 126.392C61.1221 126.389 61.142 126.384 61.1671 126.378C61.2174 126.366 61.2886 126.349 61.3781 126.325C61.5568 126.278 61.8084 126.208 62.1097 126.109C62.7119 125.913 63.515 125.606 64.3329 125.161C65.9656 124.274 67.6764 122.828 67.9339 120.596L65.4313 119.784ZM59.172 125.125C59.0275 125.151 58.8861 125.179 58.7495 125.205L60.6542 126.479C60.7907 126.453 60.924 126.427 61.0582 126.402L59.172 125.125ZM58.7473 125.206C45.8642 127.748 43.4262 135.933 54.4924 145.553L56.4921 145.518C46.2906 136.65 48.3494 128.907 60.6564 126.479L58.7473 125.206ZM54.4924 145.553C58.0582 148.653 62.6502 151.569 67.8411 154.163L68.8839 153.509C64.0506 151.094 59.7946 148.389 56.4921 145.518L54.4924 145.553ZM67.1151 153.407C66.7162 155.126 67.5645 157.079 69.9557 159.158L71.9554 159.123C70.0268 157.447 69.2536 155.8 69.6099 154.264L67.1151 153.407ZM69.9557 159.158C74.2511 162.892 82.3416 166.037 91.4728 168.172C100.67 170.322 111.296 171.546 121.223 171.373L119.713 170.06C110.043 170.229 99.7863 169.033 91.0636 166.993C82.2748 164.938 75.4078 162.124 71.9554 159.123L69.9557 159.158ZM121.223 171.373C131.149 171.199 138.597 169.66 142.582 167.28C146.539 164.916 147.217 161.618 142.922 157.884L140.922 157.919C144.375 160.921 144.125 163.859 140.317 166.134C136.537 168.391 129.384 169.892 119.713 170.06L121.223 171.373ZM142.922 157.884C140.509 155.787 136.876 153.866 132.566 152.219L132.116 153.133C135.969 154.606 138.976 156.228 140.922 157.919L142.922 157.884ZM133.581 153.127L133.582 153.127L131.1 152.224L131.1 152.224L133.581 153.127Z" fill="#512E18"/>
<path d="M128.616 153.352C133.207 154.957 136.952 156.849 139.305 158.894C146.452 165.107 138.04 170.391 120.517 170.697C102.993 171.003 82.9923 166.214 75.8453 160.002C73.5005 157.963 73.2884 156.367 74.0649 154.672C73.3961 154.262 59.147 145.403 60.4474 140.025C60.6427 139.217 61.1649 137.059 65.3581 136.395C67.9246 135.989 70.7209 136.324 71.5681 136.437C78.8618 137.403 85.8321 140.96 87.168 141.655C86.7609 140.783 85.6742 138.024 88.7705 136.603C93.6709 134.354 104.516 137.536 105.484 137.826C115.285 140.77 124.891 147.084 128.615 153.352L128.616 153.352Z" fill="#FCE5D8"/>
<path opacity="0.15" d="M120.911 170.95L120.903 170.95C105.952 171.21 82.7358 166.208 75.4206 159.565C75.0612 159.239 74.7705 158.931 74.533 158.638C83.2638 164.602 104.367 168.927 118.298 168.685L118.306 168.685C132.233 168.441 142.75 163.564 137.687 157.536C138.119 157.825 138.535 158.132 138.925 158.457C146.881 165.089 135.86 170.688 120.911 170.95Z" fill="#231F20"/>
<path d="M128.678 153.396C133.269 155.002 137.014 156.893 139.367 158.938C146.514 165.151 138.102 170.435 120.579 170.741C103.055 171.047 83.0544 166.258 75.9073 160.046C73.5625 158.007 73.3504 156.411 74.1269 154.716C73.4581 154.306 59.209 145.447 60.5094 140.07C60.7048 139.261 61.2269 137.103 65.4201 136.439C67.9866 136.033 70.7829 136.368 71.6301 136.481C78.9238 137.448 85.8941 141.004 87.23 141.699C86.8229 140.827 85.7362 138.068 88.8325 136.647C93.7329 134.398 104.578 137.58 105.546 137.87C115.347 140.814 124.953 147.128 128.677 153.396L128.678 153.396Z" stroke="#512E18" stroke-width="2" stroke-miterlimit="10"/>
<path d="M101.5 156.737C102.02 156.524 101.799 155.991 101.005 155.547C100.211 155.103 99.1458 154.916 98.6254 155.129C98.105 155.342 98.3266 155.875 99.1205 156.319C99.9143 156.763 100.98 156.95 101.5 156.737Z" fill="#512D16"/>
<path d="M99.6802 155.414C99.6802 155.414 101.162 155.374 103.479 157.209" stroke="#512D16" stroke-width="2" stroke-miterlimit="10"/>
<path d="M108.849 156.029C108.602 155.574 107.609 155.057 106.632 154.875C105.654 154.693 105.061 154.914 105.308 155.369C105.554 155.824 106.547 156.341 107.525 156.523C108.503 156.705 109.096 156.484 108.849 156.029Z" fill="#512D16"/>
<path d="M106.265 155.186C106.265 155.186 104.764 155.208 106.705 157.05" stroke="#512D16" stroke-width="2" stroke-miterlimit="10"/>
<path d="M81.6521 157.745C83.8117 157.707 84.8423 157.051 83.9542 156.279C83.0661 155.507 80.5952 154.911 78.4357 154.949C76.2761 154.986 75.2449 155.642 76.1336 156.415C77.0223 157.188 79.4926 157.782 81.6521 157.745Z" fill="#FAC1C0"/>
<path d="M128.841 156.921C131.001 156.884 132.032 156.227 131.144 155.455C130.256 154.683 127.785 154.087 125.625 154.125C123.464 154.163 122.434 154.819 123.323 155.591C124.211 156.364 126.682 156.959 128.841 156.921Z" fill="#FAC1C0"/>
<path d="M91.3707 156.007C94.2361 155.957 94.5348 154.156 92.0367 151.985C89.5385 149.813 85.1905 148.094 82.325 148.144C79.4596 148.194 79.1609 149.994 81.6591 152.166C84.1572 154.338 88.5052 156.057 91.3707 156.007Z" fill="#512E18"/>
<path d="M88.5657 152.319C89.5005 152.303 89.534 151.66 88.6411 150.884C87.7482 150.108 86.2671 149.492 85.3323 149.508C84.3975 149.524 84.3639 150.167 85.2569 150.943C86.1498 151.719 87.6309 152.335 88.5657 152.319Z" fill="white"/>
<g opacity="0.2">
<path d="M87.5313 154.385C88.0485 154.376 87.9787 153.942 87.3744 153.417C86.77 152.892 85.861 152.473 85.343 152.482C84.825 152.491 84.8956 152.924 85.4999 153.45C86.1043 153.975 87.0133 154.394 87.5313 154.385Z" fill="white"/>
</g>
<path d="M115.689 155.583C118.554 155.533 118.853 153.732 116.355 151.561C113.856 149.389 109.508 147.67 106.643 147.72C103.777 147.77 103.479 149.57 105.977 151.742C108.475 153.913 112.823 155.633 115.689 155.583Z" fill="#512E18"/>
<path d="M110.064 151.944C110.999 151.928 111.033 151.285 110.14 150.509C109.247 149.733 107.766 149.117 106.831 149.133C105.896 149.15 105.862 149.792 106.755 150.568C107.648 151.345 109.129 151.961 110.064 151.944Z" fill="white"/>
<g opacity="0.2">
<path d="M115.718 153.893C116.236 153.884 116.166 153.451 115.561 152.925C114.957 152.4 114.048 151.982 113.53 151.991C113.012 152 113.083 152.433 113.687 152.958C114.291 153.483 115.2 153.902 115.718 153.893Z" fill="white"/>
</g>
<path d="M120.101 163.303C119.745 163.79 119.09 164.163 118.256 164.439C117.129 164.811 115.671 165.006 114.171 165.066C112.504 165.133 110.782 165.033 109.398 164.824C108.861 164.742 108.273 164.633 107.659 164.5C104.61 163.835 100.937 162.574 99.7949 161.26C99.6487 161.092 99.5431 160.921 99.4872 160.753C99.1677 159.795 100.393 159.59 101.574 159.601C102.557 159.609 103.508 159.768 103.508 159.768C105.597 160.054 107.068 160.139 108.21 160.128C109.372 160.118 110.194 160.008 110.979 159.909C112.31 159.74 112.248 159.563 113.63 159.368C113.866 159.335 114.145 159.302 114.479 159.267C115.58 159.155 117.235 159.648 118.508 160.398C118.512 160.401 118.516 160.403 118.519 160.405C119.892 161.218 120.814 162.331 120.102 163.303L120.101 163.303Z" fill="#512D16"/>
<path d="M113.628 159.278C115.07 160.621 114.223 161.725 111.682 161.76L108.933 161.798C106.53 161.831 103.461 160.903 101.761 159.671C102.673 159.683 103.519 159.817 103.519 159.817C105.643 160.088 107.118 160.156 108.256 160.127C109.364 160.1 110.151 159.982 110.905 159.875C112.239 159.685 112.134 159.502 113.589 159.284C113.602 159.282 113.615 159.28 113.628 159.278Z" fill="white"/>
<path d="M118.721 164.431C117.595 164.803 116.137 164.998 114.636 165.058C113.032 165.135 111.376 165.052 110.032 164.862C109.452 164.779 108.812 164.664 108.143 164.519C108.137 164.51 108.131 164.501 108.125 164.492C107.942 164.196 107.934 163.929 108.084 163.713C108.313 163.386 108.907 163.176 109.81 163.16L113.903 163.089C115.466 163.061 117.446 163.623 118.672 164.4C118.689 164.411 118.705 164.421 118.721 164.431L118.721 164.431Z" fill="#FAC0C0"/>
<path d="M120.098 163.208C119.798 163.666 119.243 164.029 118.523 164.309C118.452 164.336 118.379 164.363 118.306 164.389C118.288 164.395 118.271 164.401 118.253 164.407C117.141 164.788 115.7 164.995 114.217 165.065C114.039 165.074 113.86 165.08 113.681 165.085C112.248 165.122 110.807 165.038 109.613 164.868C109.032 164.786 108.392 164.67 107.723 164.527C107.684 164.518 107.643 164.51 107.602 164.501C104.525 163.828 100.897 162.578 99.8413 161.259C99.7349 161.126 99.6548 160.993 99.6039 160.859C99.2238 159.862 100.515 159.659 101.716 159.67C101.731 159.671 101.746 159.671 101.762 159.671C102.673 159.683 103.519 159.817 103.519 159.817C105.643 160.088 107.119 160.156 108.256 160.127C109.364 160.1 110.151 159.982 110.905 159.875C112.239 159.685 112.134 159.503 113.589 159.284C113.602 159.282 113.615 159.28 113.628 159.278C113.829 159.248 114.059 159.218 114.326 159.187C115.459 159.054 117.232 159.589 118.554 160.397C118.558 160.4 118.561 160.402 118.564 160.405C119.862 161.201 120.719 162.261 120.098 163.208Z" stroke="#512D16" stroke-width="2" stroke-miterlimit="10"/>
<defs>
<linearGradient id="paint0_linear_116_2732" x1="508" y1="-29.9996" x2="-519" y2="412" gradientUnits="userSpaceOnUse">
<stop stop-color="#FCDC65" stop-opacity="0"/>
<stop offset="1" stop-color="#FCDC65"/>
</linearGradient>
</defs>
</svg>
