<svg width="475" height="355" viewBox="0 0 475 355" fill="none" xmlns="http://www.w3.org/2000/svg">
<path d="M0.5 0L383.5 169.5L308 305L0.5 0Z" fill="url(#paint0_linear_116_3239)"/>
<path d="M442.9 281.859C425.244 322.239 383.406 342.954 349.465 328.111L327.388 318.459C317.985 314.346 310.186 307.939 304.181 299.969C296.033 289.162 291.209 275.466 290.243 260.709C289.759 253.194 290.258 245.395 291.843 237.573C291.939 237.128 292.028 236.692 292.118 236.257C292.202 235.894 292.282 235.541 292.36 235.19C293.635 229.59 295.477 223.977 297.893 218.454C315.55 178.075 357.397 157.364 391.34 172.206L413.417 181.859C447.36 196.701 460.557 241.482 442.9 281.861V281.859Z" fill="#F1C65E" stroke="#512D16" stroke-width="2"/>
<path d="M442.907 281.879C460.567 241.496 447.364 196.724 413.418 181.879C379.471 167.034 337.636 187.737 319.976 228.121C302.316 268.504 315.519 313.276 349.466 328.121C383.412 342.966 425.247 322.263 442.907 281.879Z" fill="#FCDC65" stroke="#512D16" stroke-width="2"/>
<path d="M430.328 276.378C444.95 242.941 434.917 206.264 407.918 194.457C380.919 182.65 347.178 200.185 332.556 233.622C317.934 267.059 327.967 303.736 354.966 315.543C381.965 327.35 415.706 309.815 430.328 276.378Z" fill="#FFF2C4"/>
<path d="M349.183 274.256C349.183 274.256 346.259 268.732 339.839 272.251C333.672 275.632 332.804 283.254 334.943 287.456C337.19 291.872 340.471 293.079 344.542 292.228C348.794 291.341 352.529 288.194 352.529 288.194L349.183 274.254L349.183 274.256Z" fill="#FCE5D8"/>
<path opacity="0.15" d="M352.724 288.266C352.724 288.266 348.988 291.412 344.738 292.301C341.678 292.94 339.064 292.417 337.004 290.243C337.864 290.092 338.853 289.665 339.121 288.525C339.375 287.451 338.212 286.154 337.936 282.956C337.641 279.551 342.993 273.246 350.361 278.421L352.725 288.266L352.724 288.266Z" fill="#231F20"/>
<path d="M350.402 280.174C350.996 282.682 348.503 287.072 345.133 288.342C341.833 289.583 338.231 287.633 337.808 283.94C337.474 281.021 339.185 277.533 341.618 276.212C344.533 274.629 347.212 276.846 348.86 278.21C349.71 278.914 350.204 279.337 350.402 280.174Z" fill="#FAC1C0"/>
<path d="M346.216 282.388C346.446 284.022 348.154 284.793 350.03 284.11C350.532 283.927 350.994 283.659 351.399 283.334C350.794 280.973 350.347 279.233 350.028 277.982C349.759 278.021 349.48 278.091 349.199 278.194C347.322 278.877 345.986 280.755 346.216 282.389L346.216 282.388Z" fill="#FCE5D8"/>
<path d="M337.727 290.968C341.571 293.835 347.698 292.866 352.553 288.367C352.152 286.696 351.794 285.208 351.477 283.887C350.817 281.137 350.331 279.11 349.982 277.655C349.412 275.283 349.207 274.428 349.207 274.428C348.885 273.923 347.028 271.134 343.515 271.203C339.73 271.278 336.381 274.608 334.883 277.709C332.422 282.801 334.378 288.468 337.727 290.968Z" stroke="#512E18" stroke-width="2" stroke-miterlimit="10"/>
<path d="M348.466 278.102C346.124 275.025 341.99 275.187 339.719 277.47C337.061 280.141 337.173 285.494 340.034 287.584C342.651 289.496 346.996 288.264 349.482 284.522C347.364 284.734 345.964 283.115 346.153 281.344C346.287 280.09 347.212 278.815 348.466 278.102Z" stroke="#512E18" stroke-width="2" stroke-miterlimit="10"/>
<path opacity="0.25" d="M343.681 281.483C343.486 279.062 342.135 277.453 340.662 277.889C339.19 278.326 338.154 280.643 338.349 283.064C338.544 285.485 339.895 287.094 341.368 286.658C342.84 286.221 343.876 283.905 343.681 281.483Z" fill="white"/>
<path d="M412.131 251.61C412.131 251.61 413.294 244.599 420.03 243.329C426.501 242.11 429.322 248.391 428.515 253.665C427.668 259.206 425.028 262.569 421.127 264.62C417.051 266.763 412.838 266.509 412.838 266.509L412.13 251.609L412.131 251.61Z" fill="#FCE5D8"/>
<path opacity="0.15" d="M412.681 266.71C412.681 266.71 416.895 266.963 420.969 264.822C423.902 263.28 426.121 260.998 427.4 257.608C426.583 258.068 425.576 258.367 425.029 257.524C424.513 256.73 425.216 254.754 424.61 251.677C423.966 248.399 417.448 246.413 412.182 256.187L412.68 266.711L412.681 266.71Z" fill="#231F20"/>
<path d="M412.612 257.798C412.747 260.472 416.171 262.71 419.553 261.521C422.863 260.357 425.594 256.102 424.988 252.475C424.509 249.609 422.031 247.646 419.482 248.138C416.427 248.727 414.602 252.584 413.479 254.957C412.9 256.181 412.567 256.905 412.612 257.798Z" fill="#FAC1C0"/>
<path d="M416.983 256.897C417.213 258.53 415.877 260.409 414.001 261.092C413.499 261.275 413.01 261.354 412.558 261.34C412.473 258.789 412.41 256.91 412.364 255.56C412.618 255.408 412.888 255.279 413.169 255.176C415.046 254.493 416.754 255.264 416.983 256.897L416.983 256.897Z" fill="#FCE5D8"/>
<path d="M426.941 258.762C424.238 264.012 418.449 267.38 412.863 266.682C412.778 264.895 412.703 263.305 412.636 261.893C412.496 258.953 412.393 256.787 412.319 255.232C412.199 252.696 412.156 251.782 412.156 251.782C412.312 251.104 413.242 247.3 416.432 244.929C419.868 242.376 423.781 243.063 425.963 244.824C429.546 247.717 429.295 254.187 426.941 258.762Z" stroke="#512E18" stroke-width="2" stroke-miterlimit="10"/>
<path d="M413.807 254.585C415.098 250.186 418.873 247.47 421.534 247.957C424.647 248.528 425.978 253.437 423.953 257.306C422.102 260.844 417.851 262.74 414.606 261.085C416.575 259.809 417.406 257.378 416.762 255.91C416.305 254.871 415.13 254.36 413.807 254.585Z" stroke="#512E18" stroke-width="2" stroke-miterlimit="10"/>
<path opacity="0.25" d="M422.504 257.385C423.949 256.759 424.739 254.371 424.268 252.05C423.796 249.73 422.242 248.356 420.796 248.981C419.35 249.607 418.56 251.995 419.032 254.316C419.503 256.637 421.058 258.011 422.504 257.385Z" fill="white"/>
<path d="M356.034 235.748C359.494 233.878 363.379 232.011 367.656 230.314C375.495 227.203 382.526 225.506 388.332 224.57C388.262 223.998 388.191 222.772 388.75 221.306C389.652 218.936 391.507 217.747 391.908 217.501C387.028 216.027 383.27 218.785 382.42 219.657C382.226 215.823 381.318 213.836 378.418 214.197C373.91 221.894 368.831 225.529 362.602 229.914C360.756 231.082 356.034 235.747 356.034 235.747L356.034 235.748Z" fill="#F5BD61"/>
<path d="M413.912 257.479C415.433 252.587 415.878 247.594 415.197 242.75C413.35 229.611 403.137 221.436 390.023 220.855C389.832 220.847 389.64 220.84 389.447 220.834C389.447 220.834 390.049 219.508 392.234 217.733C390.321 216.147 385.644 216.739 382.558 219.298C382.235 212.997 378.175 213.936 378.175 213.936C373.743 222.726 366.475 227.373 366.475 227.373C366.312 227.471 366.15 227.571 365.989 227.67C351.106 236.896 341.523 253.71 343.643 268.794C344.327 273.665 346.162 277.854 348.868 281.226C346.992 284.635 346.145 287.993 346.575 291.057C348.12 302.047 365.513 305.083 385.424 297.836C405.335 290.589 420.224 275.805 418.679 264.813C418.245 261.722 416.557 259.261 413.912 257.48L413.912 257.479Z" fill="#FFAE64"/>
<path opacity="0.25" d="M343.48 261.607C343.48 261.607 345.951 240.998 365.633 230.653C374.38 226.054 379.49 217.654 379.49 217.654C381.127 218.561 382.103 220.292 382.103 220.292C386.436 218.33 388.74 219.012 388.74 219.012C386.865 220.886 386.519 223.376 386.519 223.376C392.802 222.794 408.156 223.411 414.34 239.257C410.568 229.418 407.132 223.206 389.448 220.834C390.215 219.18 392.234 217.734 392.234 217.734C387.743 215.77 383.691 218.318 382.558 219.299C381.907 214.986 381.173 214.207 378.175 213.936C373.379 223.047 367.377 226.901 364.13 228.891C360.883 230.881 352.842 237.69 348.451 245.723C344.06 253.756 343.481 261.608 343.481 261.608L343.48 261.607Z" fill="white"/>
<path opacity="0.15" d="M419.027 266.403C418.925 273.223 412.038 286.182 385.572 297.567L385.567 297.569C358.633 305.621 348.952 298.692 347.036 292.606C346.578 291.147 346.417 289.698 346.525 288.293C350.165 290.563 356.796 289.041 381.878 271.38C409.292 269.948 415.657 266.721 418.327 262.139C418.805 263.334 419.051 264.762 419.026 266.404L419.027 266.403Z" fill="#231F20"/>
<path d="M413.912 257.479L414.675 257.937L414.759 257.798L414.806 257.646L413.912 257.479ZM390.023 220.855L390.235 219.808L390.233 219.808L390.023 220.855ZM389.447 220.834L388.612 220.513L388.009 221.842L389.246 221.881L389.447 220.834ZM392.234 217.733L392.699 218.536L393.82 217.626L392.889 216.855L392.234 217.733ZM382.558 219.298L381.609 219.548L381.694 221.204L383.033 220.093L382.558 219.298ZM378.175 213.936L378.151 212.911L377.633 213.031L377.364 213.565L378.175 213.936ZM366.475 227.373L366.803 228.272L366.816 228.264L366.829 228.256L366.475 227.373ZM365.989 227.67L365.651 226.777L365.649 226.778L365.989 227.67ZM348.868 281.226L349.657 281.64L350.032 280.958L349.629 280.455L348.868 281.226ZM413.912 257.48L413.149 257.022L412.606 257.925L413.314 258.402L413.912 257.48ZM414.806 257.646C416.382 252.579 416.84 247.412 416.137 242.408L414.257 243.092C414.915 247.776 414.485 252.595 413.019 257.312L414.806 257.646ZM416.137 242.408C414.221 228.779 403.648 220.403 390.235 219.808L389.812 221.902C402.626 222.47 412.479 230.443 414.257 243.092L416.137 242.408ZM390.233 219.808C390.038 219.8 389.843 219.793 389.648 219.787L389.246 221.881C389.436 221.887 389.625 221.894 389.814 221.902L390.233 219.808ZM389.447 220.834C390.282 221.155 390.282 221.155 390.282 221.156C390.282 221.156 390.282 221.157 390.282 221.157C390.281 221.157 390.281 221.158 390.281 221.159C390.28 221.16 390.28 221.161 390.279 221.162C390.278 221.164 390.277 221.166 390.277 221.168C390.275 221.17 390.274 221.172 390.274 221.173C390.274 221.174 390.276 221.17 390.28 221.161C390.289 221.143 390.309 221.107 390.341 221.053C390.405 220.946 390.519 220.768 390.699 220.533C391.058 220.065 391.682 219.363 392.699 218.536L391.769 216.93C390.601 217.879 389.833 218.727 389.344 219.365C389.1 219.684 388.927 219.948 388.81 220.145C388.752 220.243 388.707 220.324 388.675 220.386C388.659 220.417 388.646 220.443 388.635 220.464C388.63 220.475 388.626 220.484 388.622 220.492C388.62 220.496 388.618 220.5 388.617 220.504C388.616 220.505 388.615 220.507 388.614 220.508C388.614 220.509 388.614 220.51 388.613 220.511C388.613 220.511 388.613 220.511 388.613 220.512C388.613 220.512 388.612 220.513 389.447 220.834ZM392.889 216.855C391.702 215.87 389.794 215.636 387.882 215.923C385.945 216.214 383.815 217.067 382.083 218.503L383.033 220.093C384.386 218.971 386.138 218.247 387.789 217.999C389.466 217.747 390.852 218.01 391.579 218.612L392.889 216.855ZM383.506 219.049C383.331 215.636 382.119 213.996 380.775 213.291C380.126 212.951 379.489 212.853 379.012 212.84C378.773 212.834 378.572 212.848 378.424 212.866C378.349 212.875 378.288 212.885 378.242 212.893C378.219 212.897 378.2 212.901 378.185 212.904C378.177 212.905 378.17 212.907 378.165 212.908C378.162 212.909 378.159 212.909 378.157 212.91C378.156 212.91 378.155 212.91 378.154 212.91C378.153 212.911 378.153 212.911 378.152 212.911C378.152 212.911 378.151 212.911 378.175 213.936C378.199 214.96 378.199 214.96 378.198 214.96C378.198 214.96 378.197 214.96 378.197 214.961C378.196 214.961 378.195 214.961 378.195 214.961C378.193 214.961 378.192 214.962 378.191 214.962C378.19 214.962 378.189 214.962 378.189 214.962C378.189 214.962 378.192 214.962 378.199 214.96C378.213 214.958 378.239 214.954 378.277 214.949C378.352 214.94 378.47 214.931 378.617 214.935C378.912 214.943 379.31 215.004 379.716 215.217C380.483 215.619 381.461 216.66 381.609 219.548L383.506 219.049ZM377.364 213.565C375.237 217.783 372.421 221.023 370.122 223.214C368.975 224.307 367.964 225.133 367.244 225.683C366.884 225.958 366.597 226.163 366.403 226.298C366.306 226.366 366.233 226.415 366.185 226.447C366.161 226.463 366.143 226.475 366.132 226.482C366.127 226.485 366.123 226.488 366.121 226.489C366.12 226.49 366.12 226.49 366.12 226.49C366.119 226.49 366.12 226.49 366.12 226.49C366.12 226.49 366.12 226.49 366.12 226.49C366.12 226.49 366.12 226.49 366.475 227.373C366.829 228.256 366.83 228.256 366.83 228.256C366.83 228.256 366.831 228.255 366.831 228.255C366.832 228.255 366.832 228.254 366.833 228.254C366.835 228.253 366.837 228.251 366.839 228.25C366.844 228.247 366.851 228.242 366.86 228.237C366.877 228.226 366.9 228.21 366.931 228.19C366.991 228.149 367.078 228.091 367.189 228.014C367.409 227.86 367.725 227.634 368.116 227.336C368.897 226.739 369.979 225.854 371.203 224.687C373.647 222.357 376.681 218.878 378.986 214.306L377.364 213.565ZM366.147 226.473C365.978 226.575 365.812 226.677 365.651 226.777L366.328 228.563C366.488 228.464 366.646 228.367 366.803 228.272L366.147 226.473ZM365.649 226.778C350.45 236.199 340.503 253.484 342.703 269.136L344.582 268.452C342.542 253.935 351.762 237.593 366.33 228.562L365.649 226.778ZM342.703 269.136C343.412 274.18 345.312 278.514 348.107 281.998L349.629 280.455C347.012 277.194 345.243 273.15 344.582 268.452L342.703 269.136ZM348.08 280.812C346.105 284.399 345.162 288.032 345.636 291.399L347.515 290.715C347.127 287.955 347.878 284.87 349.657 281.64L348.08 280.812ZM345.636 291.399C346.486 297.447 351.645 301.073 358.799 302.321C366.002 303.578 375.487 302.493 385.563 298.826L385.285 296.845C375.45 300.425 366.283 301.446 359.425 300.25C352.519 299.044 348.21 295.657 347.515 290.715L345.636 291.399ZM385.563 298.826C395.639 295.159 404.492 289.569 410.657 283.447C416.781 277.366 420.469 270.52 419.619 264.471L417.74 265.155C418.434 270.098 415.45 276.14 409.538 282.01C403.668 287.839 395.12 293.266 385.285 296.845L385.563 298.826ZM419.619 264.471C419.142 261.074 417.291 258.431 414.509 256.558L413.314 258.402C415.822 260.091 417.348 262.37 417.74 265.155L419.619 264.471ZM414.675 257.939L414.675 257.937L413.15 257.021L413.149 257.022L414.675 257.939Z" fill="#512E18"/>
<path d="M409.564 260.089C412.677 261.791 414.68 264.352 415.149 267.689C416.574 277.827 403.295 291.3 385.491 297.78C367.686 304.26 352.097 301.295 350.672 291.157C350.204 287.831 351.463 284.682 353.8 281.004C353.509 280.401 347.42 267.303 353.672 256.023C354.612 254.327 357.122 249.8 361.926 247.059C364.866 245.381 367.354 245.121 368.097 245.065C374.501 244.574 378.195 249.414 378.891 250.369C379.287 248.746 380.741 243.546 385.146 239.644C392.118 233.469 400.032 236.256 400.732 236.519C407.822 239.176 411.612 248.694 409.563 260.09L409.564 260.089Z" fill="#FCE5D8"/>
<path opacity="0.15" d="M385.652 298.159L385.644 298.161C370.454 303.689 351.846 301.369 350.649 290.42C350.59 289.883 350.583 289.358 350.615 288.847C353.853 297.953 370.971 299.615 385.125 294.466L385.133 294.463C399.285 289.31 414.293 275.955 414.781 265.493C414.947 265.932 415.081 266.411 415.171 266.935C417.02 277.648 400.842 292.628 385.652 298.159Z" fill="#231F20"/>
<path d="M409.586 260.157C412.699 261.859 414.702 264.42 415.171 267.757C416.596 277.895 403.317 291.368 385.513 297.848C367.708 304.328 352.119 301.363 350.694 291.225C350.226 287.899 351.485 284.75 353.822 281.072C353.531 280.469 347.442 267.371 353.694 256.091C354.634 254.395 357.144 249.868 361.948 247.127C364.888 245.449 367.376 245.189 368.119 245.133C374.523 244.642 378.217 249.482 378.913 250.437C379.309 248.814 380.763 243.614 385.168 239.712C392.14 233.537 400.054 236.324 400.754 236.587C407.844 239.244 411.634 248.762 409.585 260.158L409.586 260.157Z" stroke="#512E18" stroke-width="2" stroke-miterlimit="10"/>
<path d="M379.333 275.988C380.049 275.384 380.318 274.384 379.933 273.755C379.548 273.125 378.655 273.104 377.939 273.708C377.222 274.312 376.953 275.312 377.338 275.941C377.723 276.571 378.616 276.591 379.333 275.988Z" fill="#512D16"/>
<path d="M378.731 273.929C378.731 273.929 380.249 273.354 380.875 276.28" stroke="#512D16" stroke-width="2" stroke-miterlimit="10"/>
<path d="M387.333 272.103C387.505 271.268 386.989 270.558 386.178 270.518C385.368 270.478 384.572 271.122 384.4 271.958C384.227 272.793 384.744 273.503 385.554 273.543C386.364 273.583 387.161 272.939 387.333 272.103Z" fill="#512D16"/>
<path d="M385.526 271.269C385.526 271.269 384.004 271.816 384.248 274.882" stroke="#512D16" stroke-width="2" stroke-miterlimit="10"/>
<path d="M358.557 284.663C360.751 283.865 362.386 282.196 362.209 280.936C362.032 279.676 360.11 279.302 357.916 280.101C355.722 280.899 354.086 282.567 354.263 283.828C354.441 285.089 356.363 285.462 358.557 284.663Z" fill="#FAC1C0"/>
<path d="M406.502 267.213C408.697 266.414 410.333 264.745 410.156 263.485C409.978 262.225 408.056 261.851 405.861 262.65C403.666 263.449 402.032 265.117 402.209 266.377C402.386 267.638 404.308 268.011 406.502 267.213Z" fill="#FAC1C0"/>
<path d="M369.875 277.907C372.786 276.848 374.743 273.117 374.245 269.573C373.747 266.029 370.983 264.017 368.072 265.076C365.16 266.136 363.203 269.867 363.701 273.411C364.199 276.954 366.964 278.967 369.875 277.907Z" fill="#512E18"/>
<path d="M370.467 271.408C371.417 271.062 372.042 269.756 371.864 268.489C371.686 267.222 370.772 266.476 369.822 266.821C368.872 267.167 368.247 268.474 368.425 269.741C368.603 271.007 369.517 271.754 370.467 271.408Z" fill="white"/>
<g opacity="0.2">
<path d="M367.53 275.921C368.055 275.73 368.384 274.88 368.264 274.022C368.143 273.165 367.62 272.625 367.093 272.817C366.567 273.008 366.239 273.858 366.359 274.716C366.48 275.573 367.003 276.113 367.53 275.921Z" fill="white"/>
</g>
<path d="M394.583 268.914C397.494 267.855 399.451 264.123 398.953 260.58C398.455 257.036 395.691 255.023 392.779 256.083C389.868 257.143 387.911 260.874 388.409 264.418C388.907 267.961 391.671 269.974 394.583 268.914Z" fill="#512E18"/>
<path d="M392.31 263.458C393.259 263.112 393.885 261.806 393.707 260.539C393.529 259.272 392.615 258.526 391.665 258.871C390.715 259.217 390.09 260.524 390.268 261.791C390.446 263.057 391.36 263.804 392.31 263.458Z" fill="white"/>
<g opacity="0.2">
<path d="M396.169 265.497C396.694 265.306 397.023 264.456 396.903 263.599C396.782 262.741 396.259 262.201 395.733 262.393C395.206 262.585 394.878 263.434 394.998 264.292C395.119 265.149 395.642 265.689 396.169 265.497Z" fill="white"/>
</g>
<path d="M391.886 283.008C391.081 284.109 390.083 285.079 388.995 285.915C387.525 287.042 385.888 287.923 384.333 288.546C382.604 289.24 380.974 289.614 379.783 289.655C379.32 289.671 378.834 289.646 378.343 289.583C375.906 289.262 373.394 287.949 373.462 285.681C373.471 285.39 373.522 285.083 373.622 284.761C374.184 282.937 375.599 282.112 376.77 281.739C377.744 281.428 378.549 281.43 378.549 281.43C380.375 281.307 381.767 280.987 382.919 280.583C384.091 280.173 385.013 279.677 385.891 279.213C387.377 278.428 387.478 278.092 389.039 277.237C389.305 277.091 389.615 276.93 389.981 276.749C391.185 276.155 392.386 276.595 392.968 277.682C392.97 277.686 392.971 277.689 392.973 277.692C393.597 278.873 393.495 280.808 391.887 283.006L391.886 283.008Z" fill="#512D16"/>
<path d="M389.119 277.056C389.325 279.282 387.461 281.792 384.887 282.713L382.103 283.71C379.671 284.58 377.457 283.735 376.891 281.82C377.792 281.539 378.514 281.527 378.514 281.527C380.388 281.362 381.802 281.004 382.965 280.566C384.099 280.141 384.994 279.64 385.847 279.171C387.356 278.342 387.419 278.009 389.076 277.081C389.09 277.073 389.105 277.064 389.119 277.056Z" fill="white"/>
<path d="M389.467 285.743C387.998 286.871 386.361 287.752 384.805 288.375C383.13 289.067 381.55 289.454 380.382 289.519C379.878 289.546 379.344 289.528 378.808 289.461C378.811 289.445 378.813 289.428 378.815 289.412C378.905 288.876 379.143 288.341 379.491 287.855C380.022 287.119 380.809 286.496 381.727 286.162L385.886 284.648C387.474 284.07 388.936 284.541 389.446 285.698C389.454 285.713 389.461 285.728 389.467 285.744L389.467 285.743Z" fill="#FAC0C0"/>
<path d="M391.97 282.817C391.248 283.841 390.359 284.759 389.381 285.564C389.285 285.643 389.188 285.721 389.09 285.798C389.067 285.816 389.044 285.834 389.021 285.852C387.558 286.994 385.926 287.892 384.379 288.53C384.192 288.607 384.008 288.68 383.825 288.749C382.357 289.304 380.994 289.617 379.956 289.674C379.451 289.702 378.918 289.683 378.381 289.617C378.349 289.613 378.316 289.61 378.284 289.605C375.826 289.279 373.35 287.972 373.509 285.665C373.525 285.432 373.567 285.191 373.64 284.938C374.178 283.054 375.656 282.212 376.846 281.834C376.862 281.829 376.877 281.824 376.891 281.82C377.792 281.539 378.514 281.527 378.514 281.527C380.388 281.362 381.802 281.004 382.965 280.566C384.099 280.141 384.994 279.64 385.847 279.171C387.356 278.342 387.419 278.009 389.076 277.081C389.09 277.073 389.105 277.065 389.119 277.057C389.348 276.929 389.606 276.791 389.901 276.639C391.157 275.992 392.436 276.478 393.014 277.666C393.016 277.669 393.018 277.672 393.018 277.677C393.582 278.848 393.464 280.699 391.97 282.817Z" stroke="#512D16" stroke-width="2" stroke-miterlimit="10"/>
<path d="M401.625 310.4C410.737 303.097 418.557 293.068 423.85 280.96C438.448 247.573 428.391 210.833 401.441 199.049C386.482 192.507 369.422 194.999 354.715 204.215C370.718 191.346 390.713 186.916 407.915 194.437C434.865 206.221 444.918 242.973 430.32 276.36C423.801 291.266 413.467 303.017 401.625 310.4Z" fill="#F6BD60"/>
<defs>
<linearGradient id="paint0_linear_116_3239" x1="28.0954" y1="19.5798" x2="932.592" y2="408.857" gradientUnits="userSpaceOnUse">
<stop stop-color="#FCDC65" stop-opacity="0"/>
<stop offset="1" stop-color="#FCDC65"/>
</linearGradient>
</defs>
</svg>
