<svg width="504" height="282" viewBox="0 0 504 282" fill="none" xmlns="http://www.w3.org/2000/svg">
<path d="M0.5 282L400 47.9997L440 111L0.5 282Z" fill="url(#paint0_linear_116_2790)"/>
<path d="M465.919 17.1933C450.307 14.5369 429.858 15.59 408.297 21.0305L408.297 21.031C386.73 26.4739 368.227 35.251 355.743 44.9987C349.499 49.8734 344.8 54.9609 341.959 59.9572C339.123 64.9474 338.169 69.79 339.295 74.2524L338.326 74.4971L339.295 74.2524L345.682 99.5599C347.027 104.891 351.252 109.305 357.856 112.585C369.812 118.507 389.176 120.496 411.338 117.571L411.339 117.571C417.925 116.705 424.736 115.415 431.673 113.664L431.918 114.634L431.673 113.664C453.235 108.222 471.735 99.4462 484.217 89.6993C490.46 84.825 495.159 79.7378 497.999 74.7417C500.836 69.7516 501.79 64.9091 500.663 60.4468L500.663 60.4468L494.277 35.1393C494.277 35.1393 494.277 35.1392 494.277 35.1392C493.151 30.6769 490.013 26.8667 485.149 23.8202C480.278 20.77 473.727 18.5219 465.919 17.1933Z" fill="#F1C65E" stroke="#512D16" stroke-width="2"/>
<path d="M408.305 20.9845C386.74 26.4251 368.238 35.1994 355.753 44.9458C349.51 49.8199 344.81 54.9072 341.97 59.9039C339.133 64.8946 338.179 69.7384 339.306 74.203C340.432 78.6675 343.569 82.4791 348.434 85.5267C353.305 88.578 359.856 90.8267 367.664 92.1557C383.278 94.813 403.728 93.7596 425.293 88.319C446.857 82.8784 465.36 74.1041 477.844 64.3577C484.087 59.4836 488.787 54.3964 491.627 49.3996C494.464 44.409 495.418 39.5651 494.292 35.1006C493.165 30.636 490.028 26.8244 485.163 23.7768C480.292 20.7256 473.741 18.4768 465.933 17.1479C450.319 14.4905 429.869 15.5439 408.305 20.9845Z" fill="#FCDC65" stroke="#512D16" stroke-width="2"/>
<path d="M353.952 70.4861C350.4 56.4079 375.655 37.8969 410.362 29.1407C445.068 20.3845 476.082 24.6988 479.634 38.777C483.186 52.8552 457.93 71.3661 423.224 80.1223C388.518 88.8786 357.504 84.5642 353.952 70.4861Z" fill="#FFA04A"/>
<path d="M410.354 29.1822C375.643 37.9422 350.393 56.4597 353.947 70.5414C354.279 71.8579 354.852 73.0879 355.646 74.2411V74.2526C363.368 85.3092 391.772 88.1075 423.221 80.1701C450.937 73.1763 472.631 59.9594 478.426 47.742C479.889 44.6689 480.348 41.6573 479.633 38.8225C476.079 24.7408 445.054 20.4261 410.354 29.1822Z" fill="#F6BD60"/>
<path d="M410.708 37.4099C380.102 45.134 357.097 60.882 355.646 74.2411V74.2526C363.368 85.3092 391.772 88.1075 423.222 80.1701C450.937 73.1763 472.632 59.9595 478.426 47.742C478.413 47.6382 478.39 47.5479 478.363 47.446C474.809 33.3643 444.518 28.8767 410.706 37.4099H410.708Z" fill="#FFF2C4"/>
<path d="M446.774 59.9464C446.774 59.9464 452.437 56.5945 457.44 57.3011C462.247 57.98 459.529 61.7597 455.311 64.2947C450.879 66.9584 446.894 68.1467 443.066 68.4104C439.067 68.6861 436.677 67.7085 436.677 67.7085L446.774 59.9455L446.774 59.9464Z" fill="#FCE5D8"/>
<path opacity="0.15" d="M436.441 67.7799C436.441 67.7799 438.831 68.7571 442.828 68.4823C445.705 68.2839 448.671 67.5636 451.845 66.0874C451.022 66.1583 450.197 66.1084 450.46 65.5671C450.706 65.0573 452.53 64.1882 454.335 62.4922C456.259 60.6861 453.688 58.3588 443.572 62.2972L436.44 67.7799L436.441 67.7799Z" fill="#231F20"/>
<path d="M442.696 63.2086C440.889 64.6035 441.395 66.4369 444.297 66.5098C447.138 66.5806 451.809 64.9541 454.002 62.9775C455.735 61.4152 455.612 59.9123 453.71 59.6509C451.431 59.3375 447.593 60.9426 445.232 61.9301C444.014 62.4396 443.3 62.7429 442.696 63.2086Z" fill="#FAC1C0"/>
<path d="M445.997 63.6276C444.983 64.5094 442.841 65.2015 441.214 65.1732C440.779 65.1656 440.426 65.1073 440.159 65.0094C441.91 63.6879 443.2 62.7138 444.126 62.0142C444.388 61.9875 444.643 61.9759 444.887 61.9801C446.514 62.0085 447.011 62.7463 445.997 63.6281L445.997 63.6276Z" fill="#FCE5D8"/>
<path d="M450.749 66.5844C445.392 68.7254 439.483 69.2827 436.571 67.8012C437.781 66.8703 438.859 66.0417 439.816 65.3061C441.808 63.7748 443.276 62.6462 444.329 61.8356C446.048 60.515 446.667 60.0386 446.667 60.0386C447.242 59.723 450.497 57.9647 454.116 57.3944C458.015 56.7803 459.915 57.9194 460.001 59.2592C460.141 61.4598 455.417 64.7182 450.749 66.5844Z" stroke="#512E18" stroke-width="2" stroke-miterlimit="10"/>
<path d="M445.694 61.8047C449.589 59.8148 453.809 59.1854 455.087 59.9704C456.582 60.8889 453.925 63.6674 449.957 65.2385C446.328 66.6755 442.397 66.7896 441.588 65.2899C443.69 65.0335 445.914 63.9574 446.559 63.0772C447.015 62.4537 446.659 61.956 445.694 61.8047Z" stroke="#512E18" stroke-width="2" stroke-miterlimit="10"/>
<path opacity="0.25" d="M449.062 62.7229C450.414 61.4412 452.583 60.3786 453.907 60.3496C455.23 60.3206 455.207 61.3362 453.855 62.618C452.503 63.8998 450.334 64.9623 449.01 64.9913C447.687 65.0203 447.71 64.0047 449.062 62.7229Z" fill="white"/>
<path d="M392.083 59.1317C392.083 59.1317 394.203 55.718 387.803 56.2255C381.654 56.7132 375.74 60.4371 374.075 63.0166C372.324 65.7272 373.472 67.0051 376.554 67.3893C379.774 67.7911 384.275 66.9337 384.275 66.9337L392.084 59.1308L392.083 59.1317Z" fill="#FCE5D8"/>
<path opacity="0.15" d="M384.342 67.0099C384.342 67.0099 379.842 67.8668 376.623 67.466C374.306 67.177 373.081 66.3835 373.361 64.8569C373.992 64.9531 374.898 64.9334 375.866 64.4044C376.78 63.9062 376.987 63.0089 379.078 61.3179C381.304 59.5171 389.022 57.3694 389.858 61.499L384.343 67.0099L384.342 67.0099Z" fill="#231F20"/>
<path d="M388.645 62.4031C387.235 63.8049 382.614 65.5488 379.662 65.5195C376.773 65.4904 375.954 63.768 378.306 61.7942C380.165 60.234 383.673 58.7945 386.09 58.6085C388.985 58.3854 389.052 60.0587 389.093 61.0882C389.114 61.6192 389.116 61.935 388.645 62.4031Z" fill="#FAC1C0"/>
<path d="M384.529 62.6931C383.514 63.5749 384.011 64.3131 385.637 64.3415C386.072 64.3491 386.544 64.3052 387.02 64.2203C388.319 62.8909 389.277 61.911 389.965 61.2072C389.774 61.1727 389.555 61.1527 389.311 61.1485C387.684 61.1201 385.543 61.8118 384.528 62.6936L384.529 62.6931Z" fill="#FCE5D8"/>
<path d="M373.291 65.3726C373.608 67.6127 378.028 68.3503 384.167 67.0267C385.103 66.091 385.936 65.2582 386.677 64.5188C388.217 62.9796 389.352 61.8452 390.168 61.0305C391.496 59.703 391.976 59.2243 391.976 59.2243C392.136 58.9013 392.975 57.1009 390.784 56.4292C388.424 55.7058 384.029 56.735 380.925 58.0192C375.827 60.1283 373.015 63.4201 373.291 65.3726Z" stroke="#512E18" stroke-width="2" stroke-miterlimit="10"/>
<path d="M388.929 60.9537C389.675 58.9088 387.04 58.1597 384.042 58.8701C380.534 59.7013 376.82 62.4613 377.088 64.1064C377.333 65.611 380.852 65.8551 385.011 64.4421C383.571 64.1239 383.861 63.0141 385.227 62.1465C386.196 61.5319 387.66 61.066 388.929 60.9537Z" stroke="#512E18" stroke-width="2" stroke-miterlimit="10"/>
<path opacity="0.25" d="M378.558 63.8977C377.352 63.8246 377.665 62.7296 379.257 61.452C380.849 60.1744 383.117 59.198 384.324 59.2712C385.53 59.3443 385.217 60.4392 383.625 61.7168C382.033 62.9944 379.764 63.9708 378.558 63.8977Z" fill="white"/>
<path d="M457.934 41.2775C455.225 40.9106 452.071 40.6184 448.432 40.481C441.759 40.2296 435.255 40.5677 429.663 41.0865C430.008 40.7796 430.663 40.1358 430.779 39.476C430.966 38.4098 429.602 38.1171 429.301 38.0598C435.074 36.4581 437.672 37.2316 438.142 37.5343C440.164 35.5244 442.051 34.3439 444.895 34.0295C445.927 37.2195 449.481 38.2175 453.875 39.4034C455.24 39.6871 457.934 41.277 457.934 41.277L457.934 41.2775Z" fill="#F5BD61"/>
<path d="M387.445 62.4634C388.186 60.2039 390.095 57.7068 393.102 55.0925C401.26 48.0011 415.759 42.0254 429.669 39.4636C429.872 39.4264 430.075 39.3898 430.277 39.3535C430.277 39.3535 430.281 38.7741 428.852 38.236C431.595 37.088 436.176 36.5866 438.169 37.3737C441.496 34.07 445.271 33.8532 445.271 33.8532C445.706 37.6198 451.055 38.7618 451.055 38.7618C451.178 38.7843 451.299 38.8077 451.419 38.8311C462.512 41.0197 464.492 48.0339 455.127 56.1752C452.102 58.8043 448.206 61.28 443.792 63.4853C444.124 64.9185 443.41 66.5038 441.508 68.1574C434.685 74.0891 415.161 78.6539 397.902 78.3526C380.642 78.0514 372.183 72.9986 379.007 67.0664C380.926 65.398 383.85 63.838 387.445 62.4639L387.445 62.4634Z" fill="#FFAE64"/>
<path opacity="0.25" d="M458.708 52.4427C458.708 52.4427 465.923 42.2453 450.373 40.3074C443.463 39.4459 442.138 35.9971 442.138 35.9971C440.006 36.7467 438.17 37.8073 438.17 37.8073C434.597 37.5433 431.877 38.2926 431.877 38.2926C432.938 38.935 432.115 40.1591 432.115 40.1591C425.859 40.9428 409.604 43.9091 395.652 53.1439C404.244 47.4216 410.765 43.6269 430.277 39.354C430.264 38.6337 428.852 38.2364 428.852 38.2364C434.453 36.4495 437.456 37.0639 438.168 37.3741C440.893 35.0385 442.026 34.5105 445.271 33.8537C445.932 37.7227 450.342 38.674 452.773 39.1397C455.204 39.6054 460.33 41.7287 461.081 45.1121C461.833 48.4955 458.706 52.4432 458.706 52.4432L458.708 52.4427Z" fill="white"/>
<path opacity="0.15" d="M377.89 67.9457C374.759 71.4436 375.766 76.9358 397.875 78.2392L397.88 78.2393C422.058 77.7443 435.412 72.5028 440.294 69.035C441.463 68.2037 442.318 67.429 442.873 66.7233C438.011 68.5217 431.839 68.8808 414.149 64.1034C386.328 68.0939 381.243 67.5285 380.642 65.6267C379.578 66.3253 378.644 67.1039 377.891 67.9457L377.89 67.9457Z" fill="#231F20"/>
<path d="M387.445 62.4634L386.204 62.915L386.179 62.8447L386.207 62.7582L387.445 62.4634ZM429.669 39.4636L430.009 38.846L430.011 38.8456L429.669 39.4636ZM430.277 39.3535L431.53 38.9736L431.526 39.6871L429.923 39.9736L430.277 39.3535ZM428.852 38.236L427.79 38.8426L426.891 38.5039L428.528 37.8186L428.852 38.236ZM438.169 37.3737L439.234 37.3307L438.161 38.3964L437.099 37.9773L438.169 37.3737ZM445.271 33.8532L445.899 33.1999L446.49 33.166L446.523 33.447L445.271 33.8532ZM451.055 38.7618L450.112 39.4004L450.1 39.3982L450.088 39.3957L451.055 38.7618ZM451.419 38.8311L452.372 38.1942L452.374 38.1946L451.419 38.8311ZM443.792 63.4853L442.544 63.9142L442.463 63.5619L443.27 63.1584L443.792 63.4853ZM387.445 62.4639L388.686 62.0123L388.852 62.4691L387.67 62.9209L387.445 62.4639ZM386.207 62.7582C386.981 60.3998 388.973 57.7951 392.102 55.0751L394.102 55.11C391.216 57.6185 389.392 60.0081 388.683 62.1687L386.207 62.7582ZM392.102 55.0751C400.634 47.6591 415.71 41.4795 430.009 38.846L429.329 40.0812C415.808 42.5713 401.887 48.3431 394.102 55.11L392.102 55.0751ZM430.011 38.8456C430.219 38.8076 430.425 38.7702 430.631 38.7334L429.923 39.9736C429.724 40.0093 429.525 40.0453 429.326 40.0817L430.011 38.8456ZM430.277 39.3535C429.025 39.7335 429.025 39.7337 429.025 39.734C429.025 39.7341 429.025 39.7344 429.025 39.7346C429.025 39.7349 429.025 39.7352 429.025 39.7356C429.025 39.7362 429.025 39.7369 429.025 39.7375C429.025 39.7387 429.025 39.7397 429.025 39.7406C429.025 39.7425 429.025 39.7437 429.025 39.7445C429.025 39.746 429.025 39.7453 429.025 39.7427C429.024 39.7374 429.021 39.7241 429.014 39.704C429 39.6638 428.968 39.5958 428.896 39.5095C428.751 39.3374 428.444 39.089 427.79 38.8426L429.914 37.6293C430.689 37.9211 431.094 38.2315 431.305 38.4836C431.411 38.6094 431.467 38.7199 431.497 38.8052C431.512 38.8478 431.52 38.884 431.525 38.9125C431.527 38.9267 431.528 38.9391 431.529 38.9493C431.529 38.9544 431.53 38.959 431.53 38.9631C431.53 38.9651 431.53 38.967 431.53 38.9687C431.53 38.9696 431.53 38.9704 431.53 38.9713C431.53 38.9717 431.53 38.9721 431.53 38.9724C431.53 38.9726 431.53 38.9729 431.53 38.973C431.53 38.9733 431.53 38.9736 430.277 39.3535ZM428.528 37.8186C430.305 37.075 432.46 36.6165 434.337 36.4323C436.244 36.2452 438.092 36.3172 439.238 36.77L437.099 37.9773C436.253 37.6431 434.814 37.5723 433.246 37.7261C431.649 37.8828 430.142 38.249 429.176 38.6533L428.528 37.8186ZM437.104 37.4166C438.937 35.5959 441.037 34.5015 442.853 33.8775C443.725 33.5779 444.464 33.4106 444.987 33.3179C445.25 33.2714 445.462 33.2428 445.616 33.2255C445.693 33.2168 445.756 33.2109 445.803 33.2069C445.827 33.2049 445.847 33.2034 445.863 33.2023C445.871 33.2017 445.878 33.2012 445.884 33.2008C445.887 33.2006 445.89 33.2005 445.892 33.2003C445.894 33.2002 445.895 33.2002 445.896 33.2001C445.897 33.2001 445.897 33.2 445.898 33.2C445.898 33.2 445.899 33.1999 445.271 33.8532C444.643 34.5066 444.644 34.5065 444.645 34.5065C444.645 34.5065 444.646 34.5064 444.646 34.5064C444.647 34.5064 444.648 34.5063 444.649 34.5063C444.651 34.5062 444.652 34.5061 444.653 34.506C444.656 34.5058 444.657 34.5057 444.658 34.5057C444.66 34.5056 444.658 34.5057 444.653 34.5061C444.644 34.5069 444.622 34.5088 444.589 34.5125C444.523 34.52 444.415 34.5342 444.271 34.5596C443.983 34.6107 443.57 34.7041 443.082 34.8716C442.179 35.1819 440.727 35.8477 439.234 37.3307L437.104 37.4166ZM446.523 33.447C446.729 35.2374 448.106 36.4115 449.446 37.1393C450.114 37.5024 450.767 37.7517 451.251 37.9095C451.492 37.9883 451.69 38.044 451.826 38.0795C451.893 38.0973 451.945 38.1099 451.979 38.1179C451.996 38.1218 452.008 38.1246 452.015 38.1263C452.019 38.1271 452.022 38.1277 452.023 38.1279C452.023 38.1281 452.024 38.1281 452.024 38.1281C452.024 38.1281 452.023 38.1281 452.023 38.1281C452.023 38.128 452.023 38.128 452.023 38.128C452.023 38.1279 452.023 38.1279 451.055 38.7618C450.088 39.3957 450.088 39.3956 450.088 39.3956C450.088 39.3955 450.087 39.3955 450.087 39.3954C450.087 39.3953 450.086 39.3952 450.085 39.395C450.084 39.3948 450.082 39.3944 450.08 39.394C450.076 39.3931 450.071 39.3919 450.065 39.3905C450.052 39.3876 450.034 39.3835 450.012 39.3782C449.967 39.3676 449.903 39.3521 449.824 39.3312C449.665 39.2896 449.442 39.2267 449.175 39.1395C448.642 38.9654 447.931 38.6939 447.207 38.3006C445.763 37.5158 444.248 36.2357 444.02 34.2595L446.523 33.447ZM451.999 38.1231C452.126 38.1466 452.251 38.1708 452.372 38.1942L450.467 39.468C450.347 39.4446 450.23 39.422 450.112 39.4004L451.999 38.1231ZM452.374 38.1946C463.755 40.4401 465.924 47.6756 456.127 56.1926L454.127 56.1577C463.06 48.3923 461.27 41.5994 450.465 39.4676L452.374 38.1946ZM456.127 56.1926C452.971 58.9362 448.906 61.5176 444.313 63.8123L443.27 63.1584C447.506 61.0424 451.234 58.6724 454.127 56.1577L456.127 56.1926ZM445.039 63.0565C445.393 64.5815 444.642 66.3202 442.508 68.1749L440.508 68.1399C442.179 66.6874 442.856 65.2554 442.544 63.9142L445.039 63.0565ZM442.508 68.1749C438.675 71.5071 431.476 74.2966 423.414 76.1816C415.285 78.0821 405.905 79.1615 397.147 79.0087L398.656 77.6966C407.158 77.845 416.169 76.7926 423.823 75.0031C431.543 73.1981 437.518 70.7394 440.508 68.1399L442.508 68.1749ZM397.147 79.0087C388.389 78.8558 381.813 77.498 378.29 75.3942C374.797 73.3075 374.173 70.3814 378.007 67.049L380.007 67.0839C377.016 69.6836 377.21 72.25 380.555 74.248C383.872 76.229 390.155 77.5482 398.656 77.6966L397.147 79.0087ZM378.007 67.049C380.16 65.1776 383.396 63.4683 387.22 62.0069L387.67 62.9209C384.303 64.2076 381.693 65.6184 380.007 67.0839L378.007 67.049ZM386.204 62.9155L386.204 62.915L388.686 62.0119L388.686 62.0123L386.204 62.9155Z" fill="#512E18"/>
<path d="M390.726 63.0591C386.682 64.4732 383.384 66.1389 381.312 67.9401C375.017 73.4118 382.426 78.0661 397.859 78.3355C413.292 78.6049 430.907 74.3874 437.202 68.9156C439.267 67.1205 439.454 65.7144 438.77 64.2216C439.359 63.8607 451.908 56.0581 450.763 51.3224C450.591 50.6102 450.131 48.7094 446.438 48.1252C444.178 47.7676 441.715 48.0626 440.969 48.1618C434.545 49.0131 428.406 52.1455 427.23 52.7575C427.588 51.9892 428.545 49.5598 425.818 48.3082C421.502 46.3274 411.951 49.1295 411.099 49.3854C402.467 51.9782 394.007 57.5386 390.727 63.0592L390.726 63.0591Z" fill="#FCE5D8"/>
<path opacity="0.15" d="M397.511 78.5585L397.518 78.5587C410.686 78.7876 431.133 74.3823 437.576 68.5316C437.892 68.2445 438.148 67.973 438.357 67.7153C430.668 72.9677 412.082 76.7772 399.813 76.564L399.806 76.5638C387.54 76.3488 378.278 72.0532 382.737 66.7445C382.356 66.9991 381.989 67.2692 381.647 67.5553C374.639 73.3962 384.345 78.3278 397.511 78.5585Z" fill="#231F20"/>
<path d="M390.671 63.0978C386.627 64.5119 383.329 66.1776 381.257 67.9788C374.962 73.4505 382.371 78.1048 397.804 78.3742C413.237 78.6436 430.852 74.4261 437.147 68.9543C439.212 67.1592 439.399 65.7531 438.715 64.2603C439.304 63.8994 451.853 56.0968 450.708 51.3611C450.536 50.6489 450.076 48.7481 446.383 48.1638C444.123 47.8063 441.66 48.1013 440.914 48.2005C434.49 49.0517 428.351 52.1842 427.175 52.7962C427.533 52.0279 428.49 49.5985 425.763 48.3469C421.448 46.3661 411.896 49.1682 411.044 49.4241C402.412 52.0169 393.952 57.5773 390.672 63.0979L390.671 63.0978Z" stroke="#512E18" stroke-width="2" stroke-miterlimit="10"/>
<path d="M414.607 66.0404C414.149 65.8527 414.344 65.3837 415.043 64.9928C415.742 64.6019 416.681 64.4371 417.139 64.6248C417.597 64.8124 417.402 65.2814 416.703 65.6723C416.004 66.0632 415.065 66.228 414.607 66.0404Z" fill="#512D16"/>
<path d="M416.21 64.8759C416.21 64.8759 414.905 64.8413 412.865 66.4575" stroke="#512D16" stroke-width="2" stroke-miterlimit="10"/>
<path d="M408.134 65.4168C408.352 65.016 409.226 64.5609 410.087 64.4005C410.949 64.24 411.471 64.4348 411.253 64.8356C411.036 65.2364 410.162 65.6914 409.3 65.8519C408.439 66.0124 407.917 65.8176 408.134 65.4168Z" fill="#512D16"/>
<path d="M410.41 64.6747C410.41 64.6747 411.732 64.6945 410.023 66.3169" stroke="#512D16" stroke-width="2" stroke-miterlimit="10"/>
<path d="M432.087 66.9279C430.185 66.8947 429.278 66.3165 430.06 65.6365C430.842 64.9566 433.018 64.4322 434.92 64.4654C436.822 64.4986 437.73 65.0764 436.948 65.7568C436.165 66.4371 433.989 66.9611 432.087 66.9279Z" fill="#FAC1C0"/>
<path d="M390.527 66.2028C388.625 66.1696 387.717 65.5913 388.499 64.9114C389.281 64.2315 391.457 63.7071 393.36 63.7403C395.263 63.7735 396.17 64.3513 395.388 65.0317C394.605 65.712 392.429 66.236 390.527 66.2028Z" fill="#FAC1C0"/>
<path d="M423.528 65.3981C421.005 65.3541 420.741 63.7682 422.942 61.8557C425.142 59.9431 428.971 58.4287 431.495 58.4728C434.018 58.5168 434.282 60.1027 432.081 62.0152C429.881 63.9278 426.052 65.4422 423.528 65.3981Z" fill="#512E18"/>
<path d="M425.998 62.1502C425.175 62.1359 425.146 61.5701 425.932 60.8865C426.718 60.2029 428.023 59.6604 428.846 59.6747C429.669 59.6891 429.699 60.2549 428.913 60.9385C428.126 61.6221 426.822 62.1646 425.998 62.1502Z" fill="white"/>
<g opacity="0.2">
<path d="M426.91 63.97C426.454 63.962 426.516 63.5806 427.048 63.1178C427.58 62.6551 428.381 62.2866 428.837 62.2946C429.293 62.3025 429.231 62.684 428.699 63.1467C428.166 63.6094 427.366 63.9779 426.91 63.97Z" fill="white"/>
</g>
<path d="M402.111 65.0246C399.588 64.9805 399.324 63.3947 401.525 61.4821C403.725 59.5696 407.554 58.0552 410.078 58.0992C412.601 58.1433 412.865 59.7291 410.664 61.6417C408.464 63.5542 404.635 65.0686 402.111 65.0246Z" fill="#512E18"/>
<path d="M407.065 61.8197C406.241 61.8054 406.212 61.2396 406.998 60.556C407.785 59.8723 409.089 59.3299 409.913 59.3442C410.736 59.3586 410.765 59.9244 409.979 60.608C409.193 61.2916 407.888 61.8341 407.065 61.8197Z" fill="white"/>
<g opacity="0.2">
<path d="M402.085 63.5362C401.629 63.5283 401.691 63.1468 402.223 62.6841C402.755 62.2214 403.556 61.8529 404.012 61.8608C404.468 61.8688 404.406 62.2502 403.874 62.7129C403.342 63.1757 402.541 63.5442 402.085 63.5362Z" fill="white"/>
</g>
<path d="M398.224 71.8234C398.538 72.2522 399.115 72.5804 399.85 72.8233C400.842 73.1511 402.126 73.3227 403.447 73.3756C404.915 73.4348 406.432 73.3467 407.65 73.1625C408.124 73.0908 408.641 72.9942 409.182 72.8768C411.868 72.2912 415.102 71.1811 416.108 70.0237C416.237 69.8754 416.33 69.7255 416.379 69.5768C416.661 68.7338 415.581 68.5526 414.541 68.5623C413.676 68.57 412.839 68.7097 412.839 68.7097C410.999 68.9611 409.703 69.0365 408.697 69.027C407.674 69.0177 406.95 68.9212 406.258 68.8334C405.086 68.6851 405.141 68.5289 403.923 68.3576C403.716 68.3284 403.47 68.299 403.176 68.2688C402.206 68.17 400.748 68.6042 399.628 69.2649C399.624 69.2672 399.621 69.2691 399.618 69.2709C398.409 69.9869 397.596 70.9669 398.224 71.823L398.224 71.8234Z" fill="#512D16"/>
<path d="M403.925 68.2779C402.655 69.4605 403.401 70.4327 405.64 70.4637L408.06 70.4975C410.176 70.5264 412.879 69.7091 414.376 68.6241C413.573 68.6347 412.828 68.7528 412.828 68.7528C410.958 68.9914 409.658 69.0507 408.657 69.0256C407.68 69.0019 406.988 68.898 406.324 68.8035C405.149 68.6363 405.241 68.4755 403.959 68.2827C403.948 68.2811 403.936 68.2795 403.925 68.2779Z" fill="white"/>
<path d="M399.44 72.8163C400.432 73.1442 401.716 73.3157 403.037 73.3686C404.45 73.4364 405.909 73.3634 407.092 73.1956C407.603 73.1226 408.167 73.0212 408.756 72.8942C408.761 72.8862 408.766 72.8778 408.772 72.8699C408.933 72.6094 408.94 72.3743 408.808 72.184C408.607 71.896 408.084 71.7107 407.288 71.6969L403.683 71.6339C402.307 71.6099 400.563 72.105 399.483 72.7891C399.468 72.7984 399.454 72.8071 399.44 72.8163L399.44 72.8163Z" fill="#FAC0C0"/>
<path d="M398.227 71.7398C398.491 72.1431 398.98 72.4631 399.615 72.709C399.677 72.7333 399.741 72.7567 399.805 72.7796C399.821 72.785 399.836 72.7905 399.852 72.7955C400.831 73.1317 402.1 73.3134 403.406 73.3755C403.564 73.383 403.721 73.3885 403.879 73.3927C405.141 73.4256 406.41 73.3517 407.462 73.202C407.973 73.1295 408.537 73.0276 409.126 72.9011C409.16 72.8936 409.196 72.8862 409.232 72.8783C411.942 72.286 415.137 71.1852 416.067 70.0236C416.161 69.9064 416.232 69.7893 416.277 69.6712C416.611 68.7932 415.474 68.6138 414.417 68.6242C414.403 68.6244 414.39 68.6247 414.376 68.6249C413.573 68.6355 412.828 68.7537 412.828 68.7537C410.958 68.9923 409.658 69.0515 408.657 69.0264C407.68 69.0028 406.988 68.8988 406.323 68.8044C405.149 68.6371 405.241 68.4764 403.959 68.2836C403.948 68.2819 403.936 68.2803 403.925 68.2787C403.748 68.2524 403.545 68.2257 403.311 68.1984C402.312 68.0815 400.751 68.5528 399.587 69.2644C399.583 69.2667 399.58 69.2685 399.578 69.2709C398.435 69.9719 397.68 70.9056 398.227 71.7398Z" stroke="#512D16" stroke-width="2" stroke-miterlimit="10"/>
<defs>
<linearGradient id="paint0_linear_116_2790" x1="56.5955" y1="-98.4209" x2="961.092" y2="290.856" gradientUnits="userSpaceOnUse">
<stop stop-color="#FCDC65" stop-opacity="0"/>
<stop offset="1" stop-color="#FCDC65"/>
</linearGradient>
</defs>
</svg>
