<svg width="82" height="96" viewBox="0 0 82 96" fill="none" xmlns="http://www.w3.org/2000/svg">
<path d="M58.3221 37.7782C71.0517 58.6535 73.8987 80.1302 64.6879 85.7475L52.4977 93.1815C49.7453 94.8594 46.2233 94.934 42.2987 93.6556C35.2148 91.3385 26.8094 84.6005 19.2461 74.9271C16.9931 72.0496 14.8158 68.9177 12.7678 65.5587C0.0413621 44.6886 -2.80565 23.212 6.40509 17.5947L18.5953 10.1607C27.8061 4.54448 45.5957 16.9082 58.3221 37.7793V37.7782Z" fill="#F1C65E" stroke="#512D16" stroke-width="2"/>
<path d="M64.6735 85.7639C73.8882 80.1458 71.0413 58.6697 58.3147 37.7957C45.5882 16.9217 27.8013 4.55434 18.5866 10.1724C9.37185 15.7905 12.2188 37.2665 24.9453 58.1405C37.6719 79.0145 55.4588 91.3819 64.6735 85.7639Z" fill="#FCDC65" stroke="#512D16" stroke-width="2"/>
<path d="M60.0954 78.2325C66.8769 74.098 64.1116 57.1936 53.9189 40.4755C43.7261 23.7575 29.9658 13.5566 23.1843 17.6911C16.4028 21.8257 19.1681 38.7301 29.3608 55.4482C39.5536 72.1662 53.3139 82.3671 60.0954 78.2325Z" fill="#FFA04A"/>
<path d="M53.9274 40.4581C64.1233 57.1786 66.8872 74.0819 60.104 78.2189C59.4701 78.6058 58.7741 78.8666 58.0234 79.0116L58.0182 79.0148C50.7671 80.3742 38.6053 70.5831 29.3682 55.4344C21.2278 42.0846 17.8214 28.6117 20.2406 21.6214C20.8472 19.8614 21.8218 18.5094 23.1864 17.6768C29.9696 13.5398 43.7358 23.743 53.9285 40.4571L53.9274 40.4581Z" fill="#F6BD60"/>
<path d="M50.6378 43.5344C59.6278 58.2773 62.5757 73.2399 58.0234 79.0117L58.0182 79.0149C50.7671 80.3742 38.6053 70.5832 29.3682 55.4345C21.2278 42.0846 17.8214 28.6118 20.2406 21.6214C20.2858 21.5867 20.3289 21.5594 20.3783 21.53C27.1615 17.393 40.7069 27.2471 50.6388 43.5334L50.6378 43.5344Z" fill="#FFF2C4"/>
<path d="M36.8462 57.3842C36.8462 57.3842 34.9512 55.1043 34.3277 57.2517C33.7289 59.3147 35.2604 62.872 36.6829 64.6134C38.1777 66.4434 39.1759 66.7199 39.8832 65.9895C40.6224 65.2269 40.7367 63.475 40.7367 63.475L36.8459 57.3832L36.8462 57.3842Z" fill="#FCE5D8"/>
<path opacity="0.15" d="M40.7958 63.4917C40.7958 63.4917 40.6812 65.2432 39.9428 66.0062C39.411 66.5551 38.7151 66.5355 37.7682 65.7145C37.9244 65.5735 38.0463 65.295 37.8478 64.7516C37.6612 64.2393 37.111 63.744 36.3271 62.3054C35.4922 60.7735 35.2496 57.4419 38.0479 59.1893L40.7959 63.4915L40.7958 63.4917Z" fill="#231F20"/>
<path d="M38.4533 59.9877C39.1513 61.0841 39.593 63.3003 39.1349 64.1635C38.6863 65.0079 37.4493 64.4188 36.521 62.7661C35.7873 61.4597 35.377 59.7215 35.6161 58.9134C35.9024 57.945 36.9958 58.7338 37.6684 59.2192C38.0155 59.4695 38.2202 59.6216 38.4533 59.9877Z" fill="#FAC1C0"/>
<path d="M38.0284 61.3509C38.4485 62.0785 39.0003 62.2877 39.2607 61.818C39.3303 61.6924 39.372 61.5312 39.3879 61.3485C38.7203 60.32 38.2283 59.5619 37.875 59.0171C37.8242 59.0572 37.7786 59.1128 37.7396 59.1833C37.4792 59.653 37.6086 60.6237 38.0286 61.3513L38.0284 61.3509Z" fill="#FCE5D8"/>
<path d="M38.092 65.9849C39.5896 66.9732 40.7247 66.0161 40.7809 63.5521C40.3143 62.8216 39.8989 62.1715 39.5303 61.5942C38.7628 60.3926 38.1972 59.507 37.791 58.8707C37.129 57.8346 36.8903 57.4607 36.8903 57.4607C36.705 57.2571 35.664 56.1377 34.9032 56.4641C34.0836 56.8161 34.0963 58.6195 34.4661 60.1626C35.0734 62.6969 36.7867 65.1232 38.092 65.9849Z" stroke="#512E18" stroke-miterlimit="10"/>
<path d="M37.5568 59.2023C36.3437 57.9923 35.4667 58.4134 35.4807 59.6477C35.4971 61.0917 36.7318 63.5293 37.8369 64.2448C38.8475 64.8991 39.5291 63.9712 39.2329 62.0522C38.8126 62.3266 38.1372 61.704 37.7786 60.8787C37.5246 60.2939 37.4408 59.6336 37.5568 59.2023Z" stroke="#512E18" stroke-miterlimit="10"/>
<path opacity="0.25" d="M37.2639 61.1497C36.6734 60.0592 36.011 59.4371 35.7842 59.7602C35.5574 60.0833 35.8522 61.2292 36.4427 62.3198C37.0331 63.4103 37.6955 64.0325 37.9223 63.7094C38.1491 63.3863 37.8543 62.2403 37.2639 61.1497Z" fill="white"/>
<path d="M45.6399 41.7497C45.6399 41.7497 44.3118 38.447 45.5137 37.3014C46.6683 36.2011 48.7115 38.8353 49.7254 41.314C50.7909 43.9184 50.9676 45.6769 50.5689 46.9419C50.1526 48.2637 49.164 48.5014 49.164 48.5014L45.6393 41.7492L45.6399 41.7497Z" fill="#FCE5D8"/>
<path opacity="0.15" d="M49.1745 48.6061C49.1745 48.6061 50.1629 48.368 50.5794 47.0474C50.879 46.0964 50.8538 44.8668 50.3701 43.2101C50.2936 43.489 50.1385 43.7101 49.8271 43.3705C49.5336 43.051 49.2422 42.0888 48.4126 40.7327C47.5292 39.2883 45.6399 38.9275 46.6852 43.8373L49.1744 48.6063L49.1745 48.6061Z" fill="#231F20"/>
<path d="M47.1449 44.5376C47.7792 45.7488 49.0417 46.4843 49.5206 45.6572C49.989 44.8472 49.6307 42.6729 48.677 41.066C47.9232 39.7959 46.9317 39.1063 46.4795 39.5452C45.9376 40.071 46.406 41.9872 46.6942 43.1662C46.8429 43.7744 46.9331 44.1331 47.1449 44.5376Z" fill="#FAC1C0"/>
<path d="M47.9069 43.7588C48.327 44.4864 48.4566 45.4574 48.1962 45.9272C48.1265 46.0528 48.0362 46.1297 47.9332 46.1615C47.3379 45.0026 46.8991 44.1485 46.5838 43.5352C46.6055 43.4446 46.636 43.3629 46.675 43.2925C46.9354 42.8227 47.487 43.0316 47.9071 43.7592L47.9069 43.7588Z" fill="#FCE5D8"/>
<path d="M50.5297 43.7765C51.1192 46.4032 50.601 48.4287 49.2085 48.5782C48.7858 47.7685 48.4097 47.0477 48.0757 46.4079C47.3804 45.076 46.868 44.0943 46.4999 43.3895C45.9003 42.2406 45.684 41.8263 45.684 41.8263C45.5651 41.503 44.9108 39.686 45.0799 38.3348C45.2623 36.8792 46.2825 36.8649 47.1629 37.4869C48.6086 38.5087 50.0158 41.4872 50.5297 43.7765Z" stroke="#512E18" stroke-miterlimit="10"/>
<path d="M46.6829 42.9691C45.9739 40.8498 46.1942 39.2914 46.8926 39.2909C47.7096 39.2905 49.1135 41.423 49.5406 43.3614C49.9313 45.1342 49.4204 46.3577 48.329 45.8733C48.4756 45.1248 48.1097 43.9438 47.6356 43.3269C47.2997 42.89 46.9245 42.7553 46.6829 42.9691Z" stroke="#512E18" stroke-miterlimit="10"/>
<path opacity="0.25" d="M49.2379 43.5193C49.416 43.1119 49.0507 41.9538 48.4218 40.9326C47.793 39.9113 47.1388 39.4136 46.9607 39.821C46.7826 40.2283 47.1479 41.3864 47.7768 42.4077C48.4056 43.429 49.0598 43.9266 49.2379 43.5193Z" fill="white"/>
<path d="M29.6556 39.2056C29.9976 38.0607 30.4344 36.8811 30.9958 35.7463C32.0252 33.6665 33.1957 32.3007 34.2672 31.3856C34.1224 31.13 33.8299 30.5757 33.6216 29.8584C33.2852 28.6992 33.4266 28.0001 33.4598 27.8542C32.048 27.5898 31.8409 29.1659 31.8499 29.6359C30.9404 27.8992 30.2907 27.0674 29.7312 27.4757C30.4747 31.3725 30.174 33.4606 29.7885 35.9878C29.6446 36.6766 29.6553 39.2052 29.6553 39.2052L29.6556 39.2056Z" fill="#F5BD61"/>
<path d="M47.3601 44.283C46.5904 41.919 45.5599 39.5993 44.3145 37.4422C40.9362 31.5907 36.8308 28.7107 33.801 29.5453C33.7568 29.5577 33.7128 29.5707 33.669 29.5841C33.669 29.5841 33.5024 28.9277 33.584 27.9329C32.8024 27.3682 31.9026 28.0314 31.7991 29.4603C30.3034 26.6071 29.6181 27.3766 29.6181 27.3766C30.6255 31.7667 30.0698 34.5011 30.0698 34.5011C30.0559 34.5596 30.0427 34.6187 30.0295 34.6776C28.8256 40.1441 30.5084 48.6345 34.3868 55.3521C35.6393 57.5215 36.9918 59.2823 38.3522 60.5971C38.708 62.3125 39.28 63.919 40.0678 65.2835C42.8936 70.1779 47.424 70.106 50.1865 65.1222C52.9491 60.1384 52.8978 52.1307 50.0717 47.2359C49.2769 45.8592 48.3474 44.8756 47.3603 44.2836L47.3601 44.283Z" fill="#FFAE64"/>
<path opacity="0.25" d="M32.7266 52.0803C32.7266 52.0803 28.6139 42.4517 30.6254 36.0709C31.5192 33.2348 30.7497 28.9659 30.7497 28.9659C31.3164 29.2429 31.9234 29.9523 31.9234 29.9523C32.4375 28.6918 33.1011 28.8104 33.1011 28.8104C33.1101 29.8245 33.5967 30.9919 33.5967 30.9919C34.8538 30.1985 38.3868 29.192 43.3355 35.9168C40.2778 31.7356 38.1142 29.1842 33.6694 29.5841C33.4651 28.7635 33.5844 27.933 33.5844 27.933C32.1478 27.4123 31.8282 28.9168 31.7995 29.4604C30.6806 27.5433 30.3423 27.2491 29.6185 27.3766C30.6179 31.9439 30.1626 34.2093 29.8947 35.3915C29.6269 36.5736 29.3891 40.3612 30.2345 44.4019C31.0798 48.4425 32.7269 52.0805 32.7269 52.0805L32.7266 52.0803Z" fill="white"/>
<path opacity="0.15" d="M50.5078 47.9332C52.0269 51.0595 53.4342 57.5615 50.1583 64.9865L50.1575 64.9879C46.0249 70.929 42.3188 68.574 40.5195 65.9527C40.0883 65.324 39.7252 64.675 39.4315 64.0237C40.7493 64.7562 41.8708 63.5038 43.4221 53.3258C49.1575 50.3708 49.8349 48.3614 49.3891 46.0424C49.7649 46.5488 50.1421 47.181 50.5077 47.9334L50.5078 47.9332Z" fill="#231F20"/>
<path d="M47.3601 44.283L47.6912 44.0985L47.6799 44.0367L47.6615 43.9803L47.3601 44.283ZM33.801 29.5453L33.7438 28.9372L33.7428 28.9375L33.801 29.5453ZM33.669 29.5841L33.3515 29.831L33.4635 30.2724L33.7317 30.1905L33.669 29.5841ZM33.584 27.9329L33.9286 28.0275L33.968 27.5479L33.7129 27.3636L33.584 27.9329ZM31.7991 29.4603L31.5448 29.876L32.0507 30.841L32.1445 29.5447L31.7991 29.4603ZM29.6181 27.3765L29.4292 26.8561L29.1868 27.1283L29.2956 27.6027L29.6181 27.3765ZM30.0698 34.5011L30.3914 34.743L30.3947 34.7289L30.3976 34.7145L30.0698 34.5011ZM30.0295 34.6776L29.7054 34.4466L29.7049 34.4492L30.0295 34.6776ZM38.3522 60.597L38.6791 60.3906L38.6334 60.1704L38.5168 60.0578L38.3522 60.597ZM47.3603 44.2836L47.0292 44.4681L47.0838 44.7656L47.2515 44.8662L47.3603 44.2836ZM47.6615 43.9803C46.874 41.5615 45.8227 39.1973 44.5569 37.0048L44.0721 37.8794C45.2971 40.0012 46.3069 42.2764 47.0588 44.5857L47.6615 43.9803ZM44.5569 37.0048C41.133 31.0745 36.922 28.0617 33.7438 28.9372L33.8581 30.1534C36.7396 29.3596 40.7393 32.1069 44.0721 37.8794L44.5569 37.0048ZM33.7428 28.9375C33.6969 28.9504 33.6513 28.9638 33.6062 28.9776L33.7317 30.1905C33.7743 30.1775 33.8168 30.165 33.8592 30.1531L33.7428 28.9375ZM33.669 29.5841C33.9864 29.3371 33.9865 29.3374 33.9865 29.3376C33.9866 29.3376 33.9866 29.3378 33.9866 29.338C33.9867 29.3382 33.9868 29.3385 33.9868 29.3387C33.987 29.3392 33.9871 29.3396 33.9872 29.34C33.9874 29.3408 33.9875 29.3415 33.9877 29.342C33.9879 29.343 33.988 29.3434 33.988 29.3432C33.9879 29.3429 33.9872 29.3402 33.9862 29.3353C33.984 29.3254 33.98 29.3065 33.9749 29.2793C33.9647 29.2247 33.9504 29.1371 33.9378 29.0212C33.9125 28.7895 33.8942 28.4467 33.9286 28.0275L33.2394 27.8383C33.1922 28.4138 33.2163 28.8966 33.254 29.2418C33.2728 29.4144 33.295 29.5531 33.3135 29.6526C33.3228 29.7025 33.3312 29.7427 33.3378 29.7726C33.3411 29.7875 33.3439 29.7999 33.3463 29.8097C33.3474 29.8145 33.3484 29.8188 33.3493 29.8223C33.3498 29.8241 33.3502 29.8257 33.3505 29.8272C33.3507 29.8279 33.3509 29.8286 33.351 29.8292C33.3511 29.8295 33.3512 29.8298 33.3513 29.8301C33.3513 29.8303 33.3513 29.8305 33.3514 29.8306C33.3514 29.8308 33.3515 29.831 33.669 29.5841ZM33.7129 27.3636C32.7862 26.694 31.5944 27.4322 31.4537 29.3759L32.1445 29.5447C32.2107 28.6306 32.8186 28.0423 33.4551 28.5022L33.7129 27.3636ZM32.0534 29.0446C31.2805 27.5701 30.6797 26.9582 30.2319 26.7529C30.0058 26.6492 29.8227 26.6513 29.6841 26.6949C29.6155 26.7165 29.5598 26.7476 29.5171 26.7781C29.4958 26.7933 29.4779 26.8083 29.4632 26.8217C29.4559 26.8285 29.4494 26.8348 29.4437 26.8406C29.4409 26.8435 29.4383 26.8462 29.4359 26.8488C29.4346 26.8501 29.4335 26.8514 29.4324 26.8526C29.4318 26.8532 29.4313 26.8538 29.4308 26.8544C29.4305 26.8547 29.4301 26.8551 29.43 26.8552C29.4296 26.8557 29.4292 26.8561 29.6181 27.3765C29.8071 27.897 29.8067 27.8974 29.8063 27.8978C29.8062 27.8979 29.8058 27.8983 29.8056 27.8986C29.8051 27.8992 29.8046 27.8997 29.8042 27.9002C29.8032 27.9012 29.8023 27.9022 29.8014 27.9032C29.7997 27.905 29.7981 27.9067 29.7966 27.9082C29.7936 27.9113 29.7911 27.9137 29.7892 27.9154C29.7853 27.919 29.7835 27.9202 29.7839 27.92C29.7845 27.9195 29.7941 27.9128 29.8131 27.9068C29.8497 27.8953 29.9314 27.8834 30.0636 27.944C30.3324 28.0673 30.822 28.4972 31.5448 29.876L32.0534 29.0446ZM29.2956 27.6027C29.7807 29.7167 29.8857 31.4144 29.8736 32.5672C29.8675 33.1446 29.8319 33.5875 29.7992 33.8798C29.7829 34.0259 29.7672 34.1343 29.7563 34.203C29.7509 34.2374 29.7466 34.2618 29.744 34.276C29.7427 34.2831 29.7419 34.2876 29.7415 34.2896C29.7413 34.2906 29.7412 34.2909 29.7413 34.2906C29.7413 34.2904 29.7414 34.2901 29.7415 34.2896C29.7415 34.2894 29.7416 34.2891 29.7417 34.2888C29.7417 34.2886 29.7418 34.2883 29.7418 34.2882C29.7418 34.288 29.7419 34.2877 30.0698 34.5011C30.3976 34.7145 30.3977 34.7142 30.3978 34.7138C30.3978 34.7137 30.3978 34.7134 30.3979 34.7131C30.398 34.7127 30.3981 34.7121 30.3982 34.7115C30.3984 34.7104 30.3987 34.7091 30.399 34.7076C30.3996 34.7046 30.4003 34.7009 30.4011 34.6966C30.4028 34.688 30.4049 34.6766 30.4075 34.6626C30.4126 34.6346 30.4192 34.596 30.427 34.547C30.4426 34.449 30.4625 34.3095 30.4825 34.1307C30.5225 33.7731 30.563 33.258 30.5699 32.6031C30.5837 31.2911 30.4629 29.4266 29.9406 27.1504L29.2956 27.6027ZM29.7482 34.2591C29.7329 34.3237 29.7186 34.3877 29.7054 34.4466L30.3537 34.9086C30.3668 34.8498 30.379 34.7956 30.3914 34.743L29.7482 34.2591ZM29.7049 34.4492C29.0623 37.3669 29.2025 41.0194 29.9755 44.7518C30.7504 48.4936 32.1718 52.3727 34.1444 55.7894L34.6292 54.9148C32.7235 51.6139 31.3643 47.8889 30.6292 44.3395C29.8921 40.7807 29.7929 37.4548 30.3542 34.906L29.7049 34.4492ZM34.1444 55.7894C35.4192 57.9974 36.7976 59.793 38.1876 61.1363L38.5168 60.0578C37.1859 58.7716 35.8595 57.0456 34.6292 54.9148L34.1444 55.7894ZM38.0254 60.8035C38.3988 62.6038 38.9992 64.2898 39.8254 65.7208L40.3102 64.8461C39.5608 63.5482 39.0172 62.0211 38.6791 60.3906L38.0254 60.8035ZM39.8254 65.7208C42.7912 70.8577 47.542 70.7771 50.4365 65.5552L49.9365 64.6892C47.306 69.4348 42.996 69.4981 40.3102 64.8461L39.8254 65.7208ZM50.4365 65.5552C53.3311 60.3332 53.2802 51.9358 50.3142 46.7985L49.8293 47.6732C52.5154 52.3255 52.5671 59.9435 49.9365 64.6892L50.4365 65.5552ZM50.3142 46.7985C49.4806 45.3548 48.5051 44.3224 47.4691 43.701L47.2515 44.8662C48.1897 45.4289 49.0732 46.3635 49.8293 47.6732L50.3142 46.7985ZM47.6914 44.0991L47.6912 44.0985L47.0291 44.4675L47.0292 44.4681L47.6914 44.0991Z" fill="#512E18"/>
<path d="M46.9892 45.8409C48.0618 46.3577 49.0835 47.3603 49.9415 48.8465C52.5482 53.3614 52.6589 60.6344 50.1886 65.0908C47.7184 69.5473 43.6025 69.5 40.9958 64.9851C40.1406 63.5039 39.7069 61.9588 39.3921 60.0813C39.1914 59.8303 34.8845 54.3532 33.7167 48.6724C33.541 47.8181 33.0724 45.5379 33.5145 43.8818C33.7852 42.8682 34.2762 42.5406 34.4278 42.4524C35.732 41.6905 37.6428 43.5933 38.0123 43.9712C37.733 43.196 36.879 40.6971 36.9705 38.5438C37.1154 35.1357 39.4948 35.7458 39.7088 35.807C41.8765 36.427 44.866 40.4601 46.9891 45.8412L46.9892 45.8409Z" fill="#FCE5D8"/>
<path opacity="0.15" d="M50.3101 65.2504L50.309 65.2525C48.201 69.0538 43.564 69.555 40.8242 64.6499C40.6898 64.4094 40.5697 64.1702 40.4613 63.9341C43.2354 67.825 47.3947 67.1483 49.3587 63.6065L49.3599 63.6045C51.3229 60.0615 51.621 52.697 49.364 47.8733C49.4997 48.06 49.6377 48.2677 49.7762 48.5001C52.6064 53.242 52.4172 61.4476 50.3101 65.2504Z" fill="#231F20"/>
<path d="M47.0092 45.8703C48.0818 46.3871 49.1035 47.3897 49.9616 48.8759C52.5683 53.3908 52.6789 60.6637 50.2086 65.1202C47.7384 69.5767 43.6225 69.5294 41.0158 65.0145C40.1606 63.5332 39.7269 61.9882 39.4121 60.1107C39.2115 59.8597 34.9045 54.3826 33.7367 48.7018C33.5611 47.8475 33.0924 45.5673 33.5346 43.9112C33.8052 42.8976 34.2962 42.5699 34.4478 42.4818C35.752 41.7199 37.6628 43.6227 38.0323 44.0006C37.753 43.2254 36.899 40.7265 36.9905 38.5732C37.1354 35.1651 39.5148 35.7752 39.7288 35.8364C41.8965 36.4564 44.886 40.4894 47.0091 45.8705L47.0092 45.8703Z" stroke="#512E18" stroke-miterlimit="10"/>
<path d="M43.9012 55.6458C43.9231 55.3097 43.7565 54.8301 43.5291 54.5747C43.3017 54.3192 43.0996 54.3846 43.0777 54.7207C43.0558 55.0569 43.2224 55.5364 43.4498 55.7919C43.6772 56.0474 43.8793 55.982 43.9012 55.6458Z" fill="#512D16"/>
<path d="M43.3032 54.7554C43.3032 54.7554 43.5087 54.3652 44.3085 55.65" stroke="#512D16" stroke-miterlimit="10"/>
<path d="M44.7913 53.1986C44.6406 52.8023 44.3659 52.5212 44.1777 52.5708C43.9896 52.6204 43.9592 52.9818 44.1099 53.3781C44.2606 53.7744 44.5353 54.0554 44.7235 54.0059C44.9116 53.9563 44.942 53.5949 44.7913 53.1986Z" fill="#512D16"/>
<path d="M44.203 52.9683C44.203 52.9683 43.9904 53.3463 44.7374 54.7273" stroke="#512D16" stroke-miterlimit="10"/>
<path d="M41.2707 61.3552C41.5752 60.806 41.5593 59.9058 41.2354 59.3448C40.9115 58.7838 40.402 58.7741 40.0976 59.3233C39.7932 59.8725 39.8088 60.7723 40.1329 61.3337C40.4571 61.8951 40.9663 61.9044 41.2707 61.3552Z" fill="#FAC1C0"/>
<path d="M47.9226 49.3543C48.227 48.8051 48.2113 47.9047 47.8874 47.3437C47.5635 46.7827 47.054 46.773 46.7495 47.3224C46.4449 47.8718 46.4607 48.7714 46.7848 49.3328C47.1089 49.8942 47.6182 49.9035 47.9226 49.3543Z" fill="#FAC1C0"/>
<path d="M42.245 57.3168C42.6489 56.588 42.238 54.7181 41.3268 53.14C40.4157 51.5619 39.3497 50.8737 38.9458 51.6024C38.5419 52.3312 38.9528 54.2011 39.8639 55.7792C40.7751 57.3573 41.841 58.0455 42.245 57.3168Z" fill="#512E18"/>
<path d="M40.9066 54.296C41.0384 54.0583 40.8812 53.4084 40.5555 52.8444C40.2298 52.2803 39.8591 52.0156 39.7273 52.2534C39.5955 52.4911 39.7528 53.1409 40.0784 53.705C40.4041 54.2691 40.7748 54.5337 40.9066 54.296Z" fill="white"/>
<g opacity="0.2">
<path d="M41.2774 56.6055C41.3503 56.474 41.2309 56.0577 41.0105 55.6759C40.79 55.2941 40.5523 55.0913 40.4793 55.2231C40.4063 55.3548 40.5258 55.7708 40.7462 56.1526C40.9667 56.5344 41.2044 56.7372 41.2774 56.6055Z" fill="white"/>
</g>
<path d="M45.6732 51.1324C46.0771 50.4037 45.6662 48.5338 44.7551 46.9557C43.8439 45.3776 42.778 44.6894 42.374 45.4181C41.9701 46.1468 42.381 48.0167 43.2922 49.5948C44.2033 51.173 45.2693 51.8611 45.6732 51.1324Z" fill="#512E18"/>
<path d="M43.9374 48.8285C44.0692 48.5908 43.9119 47.9409 43.5863 47.3769C43.2606 46.8128 42.8898 46.5481 42.7581 46.7859C42.6263 47.0236 42.7835 47.6734 43.1092 48.2375C43.4349 48.8016 43.8056 49.0662 43.9374 48.8285Z" fill="white"/>
<g opacity="0.2">
<path d="M45.2511 49.4371C45.324 49.3055 45.2045 48.8893 44.9841 48.5075C44.7637 48.1257 44.5259 47.9229 44.4529 48.0546C44.3799 48.1863 44.4994 48.6024 44.7199 48.9842C44.9403 49.366 45.178 49.5688 45.2511 49.4371Z" fill="white"/>
</g>
<path d="M48.2631 57.8014C48.334 58.3723 48.333 58.8996 48.2812 59.3729C48.2114 60.0118 48.0486 60.5517 47.8456 60.9671C47.6203 61.4291 47.3447 61.7372 47.0908 61.8559C46.9921 61.9019 46.879 61.9315 46.7562 61.9436C46.145 62.0016 45.2931 61.6121 44.7954 60.5695C44.7317 60.4359 44.6734 60.2909 44.6226 60.1354C44.3347 59.2547 44.4609 58.7588 44.6354 58.4901C44.7804 58.2661 44.9587 58.1993 44.9587 58.1993C45.3344 57.9898 45.5699 57.7268 45.7332 57.4455C45.8994 57.1598 45.9912 56.8557 46.0803 56.5699C46.2313 56.0865 46.1774 55.924 46.3294 55.4021C46.3552 55.3132 46.3873 55.2139 46.4272 55.1004C46.559 54.7274 46.9241 54.828 47.2984 55.2762C47.2997 55.2777 47.3007 55.279 47.3017 55.2804C47.7064 55.7676 48.1213 56.6608 48.263 57.8008L48.2631 57.8014Z" fill="#512D16"/>
<path d="M46.3063 55.313C46.8549 56.3132 47.0103 57.6168 46.6497 58.254L46.2598 58.9434C45.9188 59.5453 45.2385 59.345 44.6805 58.5166C44.8161 58.3127 44.9729 58.2464 44.9729 58.2464C45.35 58.0141 45.5815 57.7317 45.7396 57.4339C45.894 57.1445 45.9786 56.8402 46.0611 56.5544C46.2071 56.0487 46.1458 55.8912 46.3021 55.3277C46.3035 55.3229 46.305 55.3179 46.3063 55.313Z" fill="white"/>
<path d="M48.3469 59.2549C48.2771 59.8938 48.1143 60.4337 47.9113 60.8491C47.6975 61.3059 47.4358 61.6155 47.1924 61.7433C47.0872 61.798 46.965 61.8346 46.8314 61.849C46.8283 61.8413 46.825 61.8331 46.8218 61.8256C46.7206 61.5735 46.6521 61.3086 46.6193 61.0573C46.5701 60.6762 46.6033 60.3255 46.7307 60.0957L47.3077 59.0547C47.528 58.6572 47.9576 58.75 48.3319 59.2358C48.337 59.2422 48.3419 59.2483 48.3468 59.2551L48.3469 59.2549Z" fill="#FAC0C0"/>
<path d="M48.2385 57.707C48.3103 58.2357 48.3214 58.7302 48.2871 59.1799C48.2837 59.2242 48.2799 59.2679 48.2758 59.3113C48.2748 59.3216 48.2738 59.3319 48.2727 59.3419C48.2074 59.9866 48.0499 60.5342 47.8521 60.9558C47.8283 61.0066 47.8039 61.0553 47.7791 61.1024C47.5802 61.4792 47.3495 61.7366 47.1331 61.8497C47.0279 61.9049 46.9056 61.941 46.7721 61.9559C46.7643 61.9567 46.7562 61.958 46.7481 61.9587C46.131 62.0156 45.2883 61.626 44.8019 60.5582C44.7529 60.4505 44.7077 60.3366 44.6665 60.2147C44.3596 59.3086 44.4959 58.7992 44.6735 58.5267C44.6758 58.5232 44.6781 58.5199 44.6803 58.5166C44.8159 58.3127 44.9727 58.2464 44.9727 58.2464C45.3498 58.014 45.5813 57.7316 45.7394 57.4338C45.8938 57.1444 45.9784 56.8401 46.061 56.5544C46.207 56.0486 46.1456 55.8911 46.302 55.3277C46.3033 55.3228 46.3048 55.3178 46.3062 55.313C46.3278 55.2356 46.3537 55.1507 46.3846 55.0565C46.5159 54.6555 46.9086 54.7703 47.3046 55.2645C47.306 55.266 47.307 55.2674 47.3081 55.2693C47.6976 55.7573 48.0897 56.6135 48.2385 57.707Z" stroke="#512D16" stroke-miterlimit="10"/>
</svg>
