<svg width="238" height="247" viewBox="0 0 238 247" fill="none" xmlns="http://www.w3.org/2000/svg">
<path d="M186.029 79.7685C214.724 123.806 207.985 179.076 170.969 203.197L146.891 218.886C136.636 225.569 125.142 229.149 113.266 229.917C97.1584 230.967 80.3456 226.809 65.0017 218.109C57.19 213.67 49.7439 208.067 42.9843 201.366C42.6026 200.979 42.2278 200.604 41.8531 200.23C41.5458 199.909 41.2456 199.599 40.9476 199.289C36.2015 194.352 31.8115 188.843 27.8848 182.816C-0.810654 138.779 5.93957 83.5021 42.9564 59.3805L67.0338 43.6921C104.053 19.5705 157.333 35.7314 186.029 79.7685Z" fill="#F1C65E" stroke="#512D16" stroke-width="2"/>
<path d="M170.966 203.174C207.988 179.049 214.734 123.788 186.034 79.7457C157.335 35.7035 104.056 19.5575 67.0344 43.6827C30.0123 67.8079 23.2658 123.068 51.9656 167.111C80.6654 211.153 133.944 227.299 170.966 203.174Z" fill="#FCDC65" stroke="#512D16" stroke-width="2"/>
<path d="M162.027 189.455C191.472 170.268 196.078 125.151 172.315 88.6848C148.552 52.2185 105.418 38.2114 75.9733 57.3992C46.5282 76.5869 41.9219 121.703 65.685 158.17C89.448 194.636 132.582 208.643 162.027 189.455Z" fill="#FFA04A"/>
<path d="M162.027 189.456C191.472 170.268 196.078 125.152 172.315 88.6853C148.552 52.219 105.418 38.2119 75.9733 57.3996C46.5282 76.5874 41.9219 121.704 65.685 158.17C89.448 194.637 132.582 208.644 162.027 189.456Z" fill="#FFF2C4"/>
<path d="M79.2511 133.533C79.2511 133.533 74.8305 126.304 68.5349 127.98C62.4879 129.59 63.1954 137.832 66.464 143.3C69.898 149.047 73.7709 151.561 78.0631 152.047C82.5471 152.555 85.9706 150.347 85.9706 150.347L79.2513 133.531L79.2511 133.533Z" fill="#FCE5D8"/>
<path opacity="0.15" d="M86.1359 150.503C86.1359 150.503 82.9564 152.702 78.5786 152.147C75.4268 151.747 72.4319 150.191 69.5731 146.961C70.4679 147.107 71.424 146.985 71.3935 145.789C71.3663 144.662 69.7334 142.76 68.5285 139.024C67.2445 135.046 71.2908 129.851 80.7785 138.445L86.1367 150.503L86.1359 150.503Z" fill="#231F20"/>
<path d="M81.8873 140.579C83.2424 143.647 81.7696 147.718 78.4576 147.92C75.2156 148.116 70.7409 144.573 69.2364 140.221C68.0475 136.781 68.9253 133.448 71.2013 132.842C73.9281 132.116 77.4723 135.622 79.6528 137.779C80.7777 138.892 81.4348 139.555 81.8873 140.579Z" fill="#FAC1C0"/>
<path d="M78.7493 141.223C79.4404 143.149 81.4575 144.642 83.2539 144.557C83.7343 144.535 84.1496 144.402 84.488 144.183C83.2001 141.3 82.251 139.176 81.5698 137.65C81.2959 137.595 81.0211 137.573 80.7516 137.585C78.9552 137.67 78.0586 139.299 78.7497 141.224L78.7493 141.223Z" fill="#FCE5D8"/>
<path d="M70.2607 148.214C75.1074 152.787 81.6277 153.867 85.9828 150.54C85.178 148.524 84.4613 146.73 83.8256 145.137C82.5019 141.821 81.5263 139.377 80.8263 137.621C79.6839 134.762 79.2723 133.73 79.2723 133.73C78.8084 133.05 76.1609 129.267 72.3165 128.102C68.1746 126.848 65.2205 129.398 64.2492 132.344C62.6546 137.183 66.0372 144.227 70.2607 148.214Z" stroke="#512E18" stroke-width="2" stroke-miterlimit="10"/>
<path d="M79.4203 137.538C76.1472 133.25 71.5984 131.967 69.5804 133.728C67.2201 135.788 68.5201 141.845 72.1532 145.209C75.4758 148.285 80.0231 148.44 81.9586 145.116C79.6561 144.603 77.7476 142.287 77.5677 140.363C77.4408 139.001 78.1862 137.895 79.4203 137.538Z" stroke="#512E18" stroke-width="2" stroke-miterlimit="10"/>
<path opacity="0.25" d="M74.3722 139.788C73.6725 137.079 71.9407 134.858 70.504 134.828C69.0674 134.798 68.4699 136.969 69.1696 139.679C69.8693 142.388 71.6012 144.609 73.0378 144.639C74.4745 144.669 75.0719 142.498 74.3722 139.788Z" fill="white"/>
<path d="M157.994 126.432C157.994 126.432 157.744 118.98 164.877 119.939C171.729 120.861 176.202 128.901 176.464 134.53C176.74 140.446 174.57 143.283 170.725 144.203C166.709 145.165 162.019 143.391 162.019 143.391L157.992 126.43L157.994 126.432Z" fill="#FCE5D8"/>
<path opacity="0.15" d="M161.932 143.542C161.932 143.542 166.593 145.381 170.424 144.448C173.182 143.776 174.955 142 175.388 138.619C174.629 138.841 173.616 138.809 172.783 137.65C171.996 136.558 172.202 134.571 170.672 130.85C169.043 126.888 161.384 122.232 158.412 131.399L161.932 143.542L161.932 143.542Z" fill="#231F20"/>
<path d="M159.798 133.543C160.701 136.632 165.062 140.435 168.409 140.33C171.684 140.226 173.455 136.396 171.769 132.052C170.437 128.619 167.184 125.475 164.547 125.096C161.387 124.641 160.49 128.351 159.938 130.634C159.654 131.812 159.497 132.512 159.798 133.543Z" fill="#FAC1C0"/>
<path d="M163.025 134.326C163.716 136.252 162.82 137.882 161.024 137.967C160.544 137.989 160.049 137.899 159.567 137.719C158.777 134.813 158.195 132.671 157.776 131.132C158.002 131.054 158.252 131.007 158.521 130.994C160.318 130.91 162.334 132.402 163.026 134.327L163.025 134.326Z" fill="#FCE5D8"/>
<path d="M175.812 139.678C173.987 144.608 168.36 146.337 162.071 143.58C161.589 141.546 161.16 139.737 160.778 138.13C159.985 134.786 159.4 132.321 158.98 130.551C158.296 127.666 158.05 126.626 158.05 126.626C158.073 125.92 158.267 121.985 161.255 120.455C164.474 118.808 168.923 120.961 171.703 123.707C176.269 128.217 177.403 135.381 175.812 139.678Z" stroke="#512E18" stroke-width="2" stroke-miterlimit="10"/>
<path d="M160.259 130.377C160.724 125.89 164.313 124.175 167.371 125.667C170.949 127.412 173.504 133.402 172.109 137.033C170.834 140.354 166.536 140.978 162.574 137.967C164.476 137.231 164.864 134.793 163.827 132.915C163.092 131.584 161.676 130.594 160.259 130.377Z" stroke="#512E18" stroke-width="2" stroke-miterlimit="10"/>
<path opacity="0.25" d="M170.985 136.449C172.41 136.261 172.752 133.891 171.747 131.155C170.743 128.419 168.774 126.353 167.349 126.541C165.924 126.729 165.583 129.1 166.587 131.836C167.591 134.572 169.56 136.637 170.985 136.449Z" fill="white"/>
<path d="M90.4752 93.3843C94.257 92.4465 98.5608 91.6733 103.385 91.2533C112.228 90.4844 120.427 91.1128 127.311 92.1921C127.085 91.4759 126.7 89.9718 127.025 88.4158C127.551 85.9015 129.534 85.174 129.966 85.0307C123.628 81.3975 119.698 83.2932 118.868 84.0207C117.695 79.3246 116.098 76.5848 112.633 75.9164C108.99 83.481 103.656 85.9323 97.0962 88.8496C95.1207 89.5558 90.4749 93.3832 90.4749 93.3832L90.4752 93.3843Z" fill="#F5BD61"/>
<path d="M156.051 136.153C156.658 131.192 156.048 125.737 154.224 120.049C149.277 104.623 136.148 91.809 121.48 86.5036C121.266 86.4266 121.051 86.3507 120.837 86.2758C120.837 86.2758 121.212 84.9992 123.242 83.7786C120.77 81.316 115.715 80.3229 112.859 82.1058C111.11 74.9074 106.816 74.5219 106.816 74.5219C103.841 82.832 96.8086 85.4789 96.8086 85.4789C96.6496 85.5314 96.4922 85.586 96.3356 85.6405C81.8697 90.7336 74.9552 106.238 80.635 123.948C82.4692 129.668 85.4283 135.028 89.1728 139.779C87.8446 142.945 87.6467 146.421 88.8003 150.018C92.9386 162.922 112.893 172.504 133.371 171.419C153.849 170.334 167.094 158.994 162.955 146.09C161.791 142.46 159.376 139.094 156.05 136.154L156.051 136.153Z" fill="#FFAE64"/>
<path opacity="0.25" d="M80.0509 117.648C80.0509 117.648 78.0952 94.4207 99.1911 89.5763C108.567 87.4227 112.681 79.4714 112.681 79.4714C114.857 81.1381 116.438 83.5263 116.438 83.5263C121.157 82.8293 124.079 84.4803 124.079 84.4803C122.28 85.9822 122.46 88.7716 122.46 88.7716C129.844 90.4116 148.372 96.8082 159.553 117.655C152.692 104.736 147.098 96.1898 125.36 86.8763C125.885 85.2224 127.957 84.2745 127.957 84.2745C122.112 80.3146 117.869 81.8014 116.746 82.5317C114.939 77.2389 113.873 76.0556 110.221 74.6302C106.651 83.5293 100.384 85.8256 96.9712 86.9565C93.5581 88.0874 85.556 93.0924 82.2142 100.879C78.8725 108.666 80.0521 117.649 80.0521 117.649L80.0509 117.648Z" fill="white"/>
<path opacity="0.15" d="M163.034 146.174C164.575 154.36 159.301 167.369 129.654 171.029L129.648 171.03C98.6133 170.494 85.0584 158.454 81.2238 150.385C80.306 148.451 79.755 146.642 79.544 144.988C84.5589 149.112 92.3125 149.799 118.731 138.042C151.972 146.745 158.983 145.275 161.135 140.764C162.013 142.388 162.663 144.204 163.033 146.174L163.034 146.174Z" fill="#231F20"/>
<path d="M156.051 136.153C156.658 131.192 156.048 125.737 154.224 120.049C149.277 104.623 136.148 91.809 121.48 86.5036C121.266 86.4266 121.051 86.3507 120.837 86.2758C120.837 86.2758 121.212 84.9992 123.242 83.7786C120.77 81.316 115.715 80.3229 112.859 82.1058C111.11 74.9074 106.816 74.5219 106.816 74.5219C103.841 82.832 96.8086 85.4789 96.8086 85.4789C96.6496 85.5314 96.4922 85.586 96.3356 85.6405C81.8697 90.7336 74.9552 106.238 80.635 123.948C82.4692 129.668 85.4283 135.028 89.1728 139.779C87.8446 142.945 87.6467 146.421 88.8003 150.018C92.9386 162.922 112.893 172.504 133.371 171.419C153.849 170.334 167.094 158.994 162.955 146.09C161.791 142.46 159.376 139.094 156.05 136.154L156.051 136.153Z" stroke="#512E18" stroke-width="2" stroke-miterlimit="10"/>
<path d="M150.69 136.962C154.633 140.012 157.504 143.64 158.799 147.601C162.733 159.634 150.626 170.183 131.759 171.164C112.891 172.144 94.406 163.185 90.4725 151.152C89.1821 147.205 89.9035 144.077 91.7376 140.735C91.2677 139.946 81.3319 122.876 85.9101 112.299C86.5984 110.709 88.4362 106.464 93.3013 105.071C96.279 104.219 99.062 104.815 99.8985 105.018C107.102 106.756 112.424 113.582 113.436 114.916C113.52 113.213 113.998 107.825 118.143 104.971C124.704 100.452 134.38 106.458 135.239 107.007C143.943 112.569 150.439 124.746 150.689 136.962L150.69 136.962Z" fill="#FCE5D8"/>
<path opacity="0.15" d="M129.294 171.495L129.285 171.495C111.924 172.391 88.4228 162.413 84.2573 148.612C84.0524 147.935 83.9151 147.293 83.829 146.684C90.0569 159.022 111.561 167.627 127.736 166.792L127.746 166.792C143.919 165.953 159.132 155.45 157.163 142.891C157.474 143.489 157.757 144.124 157.997 144.798C162.908 158.56 146.654 170.594 129.294 171.495Z" fill="#231F20"/>
<path d="M150.72 137.042C154.663 140.092 157.534 143.72 158.829 147.681C162.762 159.714 150.656 170.263 131.788 171.244C112.921 172.225 94.4358 163.265 90.5023 151.232C89.2119 147.285 89.9333 144.157 91.7674 140.815C91.2974 140.026 81.3617 122.956 85.9399 112.379C86.6282 110.789 88.466 106.544 93.331 105.151C96.3088 104.299 99.0917 104.895 99.9283 105.098C107.132 106.836 112.454 113.662 113.466 114.996C113.549 113.293 114.028 107.905 118.173 105.051C124.733 100.532 134.41 106.538 135.269 107.087C143.973 112.649 150.468 124.826 150.719 137.042L150.72 137.042Z" stroke="#512E18" stroke-width="2" stroke-miterlimit="10"/>
<path d="M118.714 144.093C119.396 143.682 119.406 142.672 118.738 141.837C118.069 141.002 116.974 140.658 116.292 141.069C115.61 141.48 115.6 142.49 116.269 143.325C116.938 144.16 118.033 144.504 118.714 144.093Z" fill="#512D16"/>
<path d="M117.577 141.503C117.577 141.503 118.935 141.41 120.315 144.896" stroke="#512D16" stroke-width="2" stroke-miterlimit="10"/>
<path d="M128.238 142.193C128.183 141.374 127.238 140.451 126.127 140.132C125.017 139.813 124.161 140.218 124.216 141.037C124.271 141.856 125.216 142.778 126.327 143.098C127.437 143.417 128.293 143.012 128.238 142.193Z" fill="#512D16"/>
<path d="M125.241 140.686C125.241 140.686 123.878 140.746 124.91 144.248" stroke="#512D16" stroke-width="2" stroke-miterlimit="10"/>
<path d="M93.7915 147.628C96.2096 147.504 97.7576 146.162 97.2492 144.632C96.7408 143.101 94.3682 141.96 91.9501 142.084C89.5321 142.207 87.9837 143.548 88.4925 145.08C89.0012 146.611 91.3735 147.751 93.7915 147.628Z" fill="#FAC1C0"/>
<path d="M151.697 142.561C154.115 142.437 155.664 141.096 155.155 139.565C154.647 138.034 152.274 136.893 149.855 137.017C147.436 137.141 145.889 138.481 146.398 140.013C146.907 141.545 149.279 142.685 151.697 142.561Z" fill="#FAC1C0"/>
<path d="M108.216 143.683C111.014 143.551 112.072 140.058 110.577 135.881C109.081 131.703 105.6 128.425 102.801 128.557C100.002 128.689 98.9448 132.182 100.44 136.359C101.935 140.536 105.417 143.815 108.216 143.683Z" fill="#512E18"/>
<path d="M107.783 136.567C108.682 136.524 108.984 135.283 108.457 133.795C107.931 132.307 106.777 131.136 105.878 131.179C104.979 131.222 104.677 132.463 105.203 133.951C105.729 135.438 106.884 136.61 107.783 136.567Z" fill="white"/>
<g opacity="0.2">
<path d="M104.257 140.584C104.722 140.562 104.809 139.732 104.451 138.731C104.093 137.729 103.426 136.935 102.961 136.956C102.495 136.978 102.408 137.808 102.766 138.81C103.125 139.812 103.792 140.606 104.257 140.584Z" fill="white"/>
</g>
<path d="M138.056 141.073C140.855 140.941 141.913 137.448 140.418 133.271C138.922 129.093 135.441 125.815 132.642 125.947C129.843 126.079 128.786 129.572 130.281 133.749C131.776 137.926 135.257 141.205 138.056 141.073Z" fill="#512E18"/>
<path d="M134.164 134.26C135.063 134.217 135.364 132.976 134.838 131.488C134.312 130 133.157 128.829 132.258 128.872C131.36 128.915 131.058 130.156 131.584 131.643C132.11 133.131 133.265 134.302 134.164 134.26Z" fill="white"/>
<g opacity="0.2">
<path d="M138.846 137.558C139.311 137.536 139.398 136.706 139.04 135.704C138.682 134.702 138.015 133.908 137.549 133.93C137.083 133.952 136.997 134.782 137.355 135.783C137.713 136.785 138.38 137.579 138.846 137.558Z" fill="white"/>
</g>
<path d="M133.776 155.912C133.075 156.913 132.11 157.687 131.001 158.267C129.506 159.051 127.747 159.48 126.024 159.636C124.109 159.809 122.236 159.643 120.81 159.247C120.256 159.093 119.664 158.882 119.056 158.624C116.04 157.335 112.691 154.846 112.218 152.191C112.158 151.851 112.144 151.507 112.185 151.163C112.417 149.219 113.921 148.773 115.242 148.769C116.34 148.765 117.311 149.068 117.311 149.068C119.482 149.604 121.083 149.747 122.373 149.7C123.685 149.652 124.676 149.411 125.62 149.191C127.22 148.818 127.259 148.458 128.933 148.031C129.218 147.958 129.552 147.884 129.949 147.807C131.256 147.554 132.811 148.523 133.778 150.025C133.782 150.03 133.784 150.034 133.787 150.038C134.827 151.666 135.178 153.914 133.777 155.911L133.776 155.912Z" fill="#512D16"/>
<path d="M129.649 148.031C130.46 150.831 128.79 153.178 125.845 153.311L122.661 153.454C119.877 153.578 116.934 151.69 115.757 149.13C116.798 149.135 117.685 149.398 117.685 149.398C119.956 149.921 121.611 150.03 122.936 149.944C124.228 149.862 125.207 149.595 126.142 149.352C127.795 148.921 127.79 148.538 129.601 148.043C129.617 148.039 129.633 148.035 129.649 148.031Z" fill="white"/>
<path d="M131.099 157.942C129.564 158.759 127.76 159.205 125.991 159.367C124.092 159.567 122.234 159.429 120.805 159.056C120.189 158.893 119.523 158.663 118.843 158.372C118.842 158.353 118.841 158.333 118.839 158.314C118.816 157.69 118.975 157.124 119.285 156.662C119.756 155.962 120.574 155.502 121.626 155.448L126.392 155.202C128.212 155.109 130.139 156.257 131.062 157.878C131.075 157.9 131.087 157.921 131.098 157.942L131.099 157.942Z" fill="#FAC0C0"/>
<path d="M133.835 155.723C133.215 156.662 132.369 157.414 131.388 157.998C131.291 158.056 131.193 158.111 131.095 158.166C131.072 158.179 131.048 158.192 131.024 158.204C129.541 159.006 127.796 159.457 126.088 159.633C125.883 159.654 125.678 159.671 125.474 159.685C123.843 159.792 122.277 159.653 121.041 159.333C120.44 159.178 119.793 158.956 119.131 158.679C119.092 158.662 119.051 158.646 119.011 158.629C115.972 157.326 112.67 154.861 112.298 152.198C112.261 151.929 112.253 151.66 112.278 151.389C112.466 149.367 114.041 148.924 115.381 148.922C115.399 148.922 115.416 148.922 115.433 148.922C116.449 148.927 117.315 149.181 117.315 149.181C119.532 149.687 121.147 149.791 122.441 149.708C123.702 149.629 124.658 149.372 125.57 149.137C127.185 148.721 127.179 148.352 128.948 147.874C128.963 147.87 128.98 147.866 128.995 147.862C129.239 147.797 129.516 147.73 129.835 147.661C131.189 147.366 132.848 148.417 133.834 150.033C133.837 150.038 133.84 150.042 133.842 150.048C134.807 151.64 135.116 153.78 133.835 155.723Z" stroke="#512D16" stroke-width="2" stroke-miterlimit="10"/>
<path d="M187.46 139.601C186.145 125.735 181.266 111.374 172.661 98.1687C148.935 61.7571 105.724 47.7306 76.3304 66.8826C60.0158 77.513 51.3313 96.153 50.8914 116.846C48.5405 92.466 57.211 69.6339 75.972 57.409C105.366 38.257 148.583 52.2928 172.309 88.7044C182.902 104.961 187.853 122.956 187.46 139.599V139.601Z" fill="#F6BD60"/>
<path d="M110.555 38.3872C131.998 39.2749 132.715 39.9912 133.587 61.4195C134.475 39.9757 135.191 39.2593 156.619 38.3872C135.175 37.4996 134.459 36.7832 133.587 15.355C132.699 36.7988 131.983 37.5152 110.555 38.3872Z" fill="white"/>
<path d="M46.8325 192.703C68.2763 193.591 68.9926 194.307 69.8647 215.735C70.7523 194.292 71.4687 193.575 92.897 192.703C71.4531 191.816 70.7368 191.099 69.8647 169.671C68.977 191.115 68.2607 191.831 46.8325 192.703Z" fill="white"/>
</svg>
