<svg width="100" height="100" viewBox="0 0 100 100" fill="none" xmlns="http://www.w3.org/2000/svg">
<g clip-path="url(#clip0_116_4759)">
<path d="M50 100C77.6142 100 100 77.6142 100 50C100 22.3858 77.6142 0 50 0C22.3858 0 0 22.3858 0 50C0 77.6142 22.3858 100 50 100Z" fill="#26A17B"/>
<path fill-rule="evenodd" clip-rule="evenodd" d="M56.0063 54.3216V54.3153C55.6625 54.3403 53.8906 54.4466 49.9375 54.4466C46.7813 54.4466 44.5594 54.3528 43.7781 54.3153V54.3247C31.6281 53.7903 22.5594 51.6747 22.5594 49.1435C22.5594 46.6153 31.6281 44.4997 43.7781 43.956V52.2185C44.5719 52.2747 46.8469 52.4091 49.9906 52.4091C53.7625 52.4091 55.6531 52.2528 56.0063 52.2216V43.9622C68.1313 44.5028 77.1781 46.6185 77.1781 49.1435C77.1781 51.6747 68.1313 53.7841 56.0063 54.3216ZM56.0063 43.1028V35.7091H72.925V24.4341H26.8594V35.7091H43.7781V43.0997C30.0281 43.731 19.6875 46.456 19.6875 49.7185C19.6875 52.981 30.0281 55.7028 43.7781 56.3372V80.031H56.0063V56.331C69.7344 55.6997 80.05 52.9778 80.05 49.7185C80.05 46.4591 69.7344 43.7372 56.0063 43.1028Z" fill="white"/>
</g>
<defs>
<clipPath id="clip0_116_4759">
<rect width="100" height="100" fill="white"/>
</clipPath>
</defs>
</svg>
