<svg width="100" height="100" viewBox="0 0 100 100" fill="none" xmlns="http://www.w3.org/2000/svg">
<g clip-path="url(#clip0_116_4763)">
<path d="M50 100C77.6142 100 100 77.6142 100 50C100 22.3858 77.6142 0 50 0C22.3858 0 0 22.3858 0 50C0 77.6142 22.3858 100 50 100Z" fill="#EAAF20"/>
<path d="M37.8625 45.0125L50 32.875L62.1438 45.0188L69.2063 37.9563L50 18.75L30.8 37.95L37.8625 45.0125ZM18.75 50L25.8125 42.9375L32.875 50L25.8125 57.0625L18.75 50ZM37.8625 54.9875L50 67.125L62.1438 54.9813L69.2063 62.0406L50 81.25L30.8 62.05L30.7906 62.0406L37.8625 54.9875ZM67.125 50L74.1875 42.9375L81.25 50L74.1875 57.0625L67.125 50ZM57.1625 49.9938H57.1688V50L50 57.1688L42.8406 50.0125L42.8281 50L42.8406 49.9906L44.0938 48.7344L44.7031 48.125L50 42.8313L57.1656 49.9969L57.1625 49.9938Z" fill="white"/>
</g>
<defs>
<clipPath id="clip0_116_4763">
<rect width="100" height="100" fill="white"/>
</clipPath>
</defs>
</svg>
