<svg width="50" height="42" viewBox="0 0 50 42" fill="none" xmlns="http://www.w3.org/2000/svg">
<path d="M9.04665 23.8105C9.04665 23.8105 8.01043 20.7908 4.67419 21.3327C1.46954 21.8534 0.534298 25.2025 1.28125 27.4852C2.06586 29.884 3.56721 30.9847 5.58874 31.2739C7.70048 31.5763 9.71621 30.7573 9.71621 30.7573L9.04706 23.8097L9.04665 23.8105Z" fill="#FCE5D8"/>
<path opacity="0.15" d="M9.80506 30.8225C9.80506 30.8225 7.78933 31.6412 5.67841 31.3396C4.15885 31.122 2.93311 30.4463 2.08643 29.1061C2.51184 29.1807 3.01794 29.1496 3.22444 28.672C3.41977 28.222 2.94676 27.4337 3.03036 25.9219C3.11892 24.312 6.12865 22.3147 9.33247 25.9157L9.80547 30.8225H9.80506Z" fill="#231F20"/>
<path d="M9.23377 26.7267C9.35005 27.975 7.84995 29.5716 6.13754 29.5911C4.46156 29.6098 2.85551 28.115 2.90186 26.3518C2.93869 24.9581 4.00097 23.6449 5.26438 23.4452C6.77814 23.2057 7.92029 24.669 8.62297 25.5692C8.98548 26.0336 9.19487 26.31 9.23377 26.7267Z" fill="#FAC1C0"/>
<path d="M7.06396 27.0426C7.06396 27.8297 7.83575 28.4682 8.78754 28.4682C9.04204 28.4682 9.2833 28.4226 9.50056 28.341C9.36855 27.1578 9.2713 26.2857 9.20178 25.6593C9.06935 25.6319 8.93031 25.6179 8.78754 25.6179C7.83575 25.6179 7.06396 26.2559 7.06396 27.043V27.0426Z" fill="#FCE5D8"/>
<path d="M2.38655 29.5594C4.0464 31.5149 7.06814 32.0928 9.71578 30.8408C9.6355 30.0077 9.56391 29.2661 9.50059 28.6078C9.36858 27.2374 9.27133 26.2273 9.20181 25.5019C9.0876 24.32 9.04663 23.8937 9.04663 23.8937C8.92538 23.6086 8.21857 22.0202 6.51899 21.4659C4.68782 20.8689 2.84631 21.8367 1.91314 23.0079C0.38075 24.9314 0.940239 27.8551 2.38655 29.5594Z" stroke="#512E18" stroke-width="0.8" stroke-miterlimit="10"/>
<path d="M8.44006 25.4538C7.51889 23.6529 5.5135 23.0377 4.26251 23.7051C2.79923 24.4861 2.49011 26.9581 3.72909 28.3936C4.86214 29.7065 7.04175 29.8664 8.4951 28.5664C7.45888 28.3099 6.89319 27.3343 7.10424 26.5542C7.25404 26.0015 7.78663 25.5715 8.44006 25.4538Z" stroke="#512E18" stroke-width="0.8" stroke-miterlimit="10"/>
<path opacity="0.25" d="M5.90212 26.2055C5.97231 25.0632 5.42931 24.1002 4.6893 24.0546C3.94929 24.0091 3.29249 24.8982 3.2223 26.0405C3.15211 27.1828 3.69511 28.1458 4.43513 28.1913C5.17514 28.2369 5.83194 27.3478 5.90212 26.2055Z" fill="white"/>
<path d="M40.9533 23.9325C40.9533 23.9325 41.9895 20.9127 45.3257 21.4546C48.5304 21.9754 49.4656 25.3245 48.7187 27.6072C47.934 30.0059 46.4327 31.1067 44.4112 31.3958C42.2994 31.6983 40.2837 30.8792 40.2837 30.8792L40.9528 23.9316L40.9533 23.9325Z" fill="#FCE5D8"/>
<path opacity="0.15" d="M40.1948 30.945C40.1948 30.945 42.2105 31.7636 44.3214 31.462C45.841 31.2445 47.0667 30.5688 47.9134 29.2286C47.488 29.3032 46.9819 29.2721 46.7754 28.7945C46.58 28.3445 47.053 27.5561 46.9695 26.0444C46.8809 24.4345 43.8712 22.4372 40.6673 26.0382L40.1943 30.945H40.1948Z" fill="#231F20"/>
<path d="M40.7656 26.8486C40.6493 28.0969 42.1494 29.6935 43.8618 29.713C45.5378 29.7317 47.1439 28.2369 47.0975 26.4737C47.0607 25.08 45.9984 23.7667 44.735 23.5671C43.2212 23.3276 42.0791 24.7909 41.3764 25.6911C41.0139 26.1555 40.8045 26.4319 40.7656 26.8486Z" fill="#FAC1C0"/>
<path d="M42.9361 27.1645C42.9361 27.9516 42.1643 28.59 41.2125 28.59C40.958 28.59 40.7168 28.5445 40.4995 28.4629C40.6315 27.2797 40.7288 26.4076 40.7983 25.7812C40.9307 25.7538 41.0698 25.7397 41.2125 25.7397C42.1643 25.7397 42.9361 26.3777 42.9361 27.1649V27.1645Z" fill="#FCE5D8"/>
<path d="M47.6134 29.6814C45.9536 31.6368 42.9318 32.2148 40.2842 30.9628C40.3645 30.1297 40.4361 29.3881 40.4994 28.7298C40.6314 27.3593 40.7286 26.3493 40.7981 25.6239C40.9124 24.4419 40.9533 24.0156 40.9533 24.0156C41.0746 23.7306 41.7814 22.1422 43.481 21.5879C45.3121 20.9909 47.1536 21.9587 48.0868 23.1299C49.6192 25.0534 49.0597 27.977 47.6134 29.6814Z" stroke="#512E18" stroke-width="0.8" stroke-miterlimit="10"/>
<path d="M41.5599 25.5758C42.4811 23.7749 44.4865 23.1597 45.7375 23.8271C47.2007 24.608 47.5099 27.0801 46.2709 28.5156C45.1378 29.8284 42.9582 29.9884 41.5049 28.6883C42.5411 28.4319 43.1068 27.4562 42.8957 26.6761C42.7459 26.1235 42.2133 25.6934 41.5599 25.5758Z" stroke="#512E18" stroke-width="0.8" stroke-miterlimit="10"/>
<path opacity="0.25" d="M45.5658 28.3093C46.3058 28.2637 46.8488 27.3007 46.7786 26.1584C46.7084 25.0161 46.0516 24.127 45.3116 24.1726C44.5716 24.2181 44.0286 25.1811 44.0988 26.3234C44.169 27.4657 44.8258 28.3548 45.5658 28.3093Z" fill="white"/>
<path d="M14.9634 7.3038C16.7594 7.02416 18.7606 6.8166 20.939 6.75197C24.932 6.6339 28.4395 7.02913 31.304 7.56853C31.309 7.29469 31.3582 6.72132 31.727 6.14214C32.3229 5.20627 33.2987 4.97095 33.5089 4.92538C31.2544 3.4356 29.2544 4.07278 28.7847 4.33046C28.9514 2.54074 28.6481 1.47893 27.2241 1.16034C24.5273 3.93606 21.8304 4.75511 18.5276 5.72578C17.5581 5.95323 14.9634 7.30339 14.9634 7.30339V7.3038Z" fill="#F5BD61"/>
<path d="M41.4147 26.9199C42.4803 24.9313 43.0332 22.7169 43.0332 20.3833C43.0332 14.0529 38.6599 8.60217 32.3723 6.14793C32.2804 6.1123 32.1881 6.07709 32.0958 6.04229C32.0958 6.04229 32.4761 5.5352 33.6506 5.08611C32.8349 4.03962 30.5382 3.53088 28.8759 4.18918C29.1473 1.24733 27.125 1 27.125 1C24.3904 4.28944 20.5688 5.20709 20.5688 5.20709C20.4835 5.2249 20.3987 5.24354 20.3143 5.26219C12.5079 7.00799 6.74418 13.1158 6.74418 20.3833C6.74418 22.7302 7.34547 24.9562 8.42223 26.9534C7.28588 28.2025 6.64941 29.6007 6.64941 31.0768C6.64941 36.3718 14.8353 40.6647 24.9334 40.6647C35.0315 40.6647 43.2173 36.3722 43.2173 31.0768C43.2173 29.5875 42.5697 28.1777 41.4143 26.9203L41.4147 26.9199Z" fill="#F5BD61"/>
<path opacity="0.25" d="M7.15283 17.0625C7.15283 17.0625 9.74254 8.02858 19.94 6.57029C24.4722 5.92193 27.5072 2.92415 27.5072 2.92415C28.2355 3.61269 28.5889 4.56887 28.5889 4.56887C30.8124 4.39238 31.878 5.08962 31.878 5.08962C30.8459 5.63565 30.5103 6.71943 30.5103 6.71943C33.5813 7.50078 40.9473 10.3449 42.8563 18.6393C41.7038 13.5005 40.4673 10.0801 32.0956 6.0429C32.5781 5.41277 33.6504 5.08672 33.6504 5.08672C31.6164 3.43745 29.489 3.92921 28.8757 4.18979C28.8541 2.10427 28.5525 1.62494 27.1248 1.00061C24.1928 4.37622 21.0358 5.14141 19.3341 5.51178C17.6325 5.88216 13.2915 7.66193 10.6281 10.6112C7.96475 13.5606 7.15325 17.0629 7.15325 17.0629L7.15283 17.0625Z" fill="white"/>
<path opacity="0.15" d="M43.2774 31.8638C42.7655 34.9726 38.564 39.7634 25.0233 40.5663H25.0204C11.4796 39.7638 7.27851 34.973 6.76661 31.8638C6.64453 31.1185 6.66522 30.4274 6.81254 29.8014C8.41487 31.4495 11.7176 31.858 25.0162 27.9475C38.3401 31.8646 41.63 31.4474 43.229 29.7923C43.3784 30.42 43.4003 31.1156 43.277 31.8638H43.2774Z" fill="#231F20"/>
<path d="M41.4147 26.9199C42.4803 24.9313 43.0332 22.7169 43.0332 20.3833C43.0332 14.0529 38.6599 8.60217 32.3723 6.14793C32.2804 6.1123 32.1881 6.07709 32.0958 6.04229C32.0958 6.04229 32.4761 5.5352 33.6506 5.08611C32.8349 4.03962 30.5382 3.53088 28.8759 4.18918C29.1473 1.24733 27.125 1 27.125 1C24.3904 4.28944 20.5688 5.20709 20.5688 5.20709C20.4835 5.2249 20.3987 5.24354 20.3143 5.26219C12.5079 7.00799 6.74418 13.1158 6.74418 20.3833C6.74418 22.7302 7.34547 24.9562 8.42223 26.9534C7.28588 28.2025 6.64941 29.6007 6.64941 31.0768C6.64941 36.3718 14.8353 40.6647 24.9334 40.6647C35.0315 40.6647 43.2173 36.3723 43.2173 31.0768C43.2173 29.5875 42.5697 28.1777 41.4143 26.9203L41.4147 26.9199Z" stroke="#512E18" stroke-width="0.8" stroke-miterlimit="10"/>
<path d="M39.1399 27.3912C40.5262 28.6905 41.3191 30.1985 41.3191 31.8063C41.3191 36.6908 33.9989 40.6505 24.9693 40.6505C15.9397 40.6505 8.61914 36.6908 8.61914 31.8063C8.61914 30.2038 9.43975 28.9705 10.817 27.6746C10.7172 27.3498 8.66756 20.3301 12.4491 16.2034C13.0177 15.5828 14.5356 13.9265 17.0392 13.4716C18.5716 13.1932 19.7895 13.489 20.152 13.5872C23.2747 14.4303 24.7289 17.2652 24.9999 17.8187C25.3012 17.141 26.3552 15.0003 28.745 13.9468C32.5274 12.2793 36.157 14.8773 36.4769 15.1143C39.7171 17.5151 40.9007 22.5101 39.1394 27.3912H39.1399Z" fill="#FCE5D8"/>
<path opacity="0.15" d="M25.0215 40.8512H25.0173C17.3136 40.8503 8.49293 36.683 8.65805 31.4646C8.66591 31.2086 8.69819 30.9671 8.74826 30.7384C9.69302 35.4522 17.8395 39.0697 25.0173 39.0705H25.0215C32.1988 39.0697 40.3453 35.4522 41.2905 30.7384C41.3406 30.9671 41.3729 31.209 41.3807 31.4646C41.5463 36.683 32.7252 40.8503 25.0215 40.8512Z" fill="#231F20"/>
<path d="M39.1457 27.4258C40.532 28.725 41.3249 30.233 41.3249 31.8409C41.3249 36.7253 34.0048 40.6851 24.9752 40.6851C15.9455 40.6851 8.625 36.7253 8.625 31.8409C8.625 30.2384 9.44561 29.0051 10.8228 27.7092C10.7231 27.3844 8.67342 20.3647 12.4549 16.238C13.0235 15.6174 14.5414 13.961 17.0451 13.5062C18.5775 13.2278 19.7953 13.5236 20.1578 13.6217C23.2806 14.4648 24.7347 17.2998 25.0058 17.8533C25.3071 17.1755 26.3611 15.0349 28.7509 13.9813C32.5332 12.3138 36.1629 14.9118 36.4828 15.1488C39.723 17.5496 40.9065 22.5447 39.1453 27.4258H39.1457Z" stroke="#512E18" stroke-width="0.8" stroke-miterlimit="10"/>
<path d="M23.4761 29.634C23.8627 29.4768 24.0602 29.0634 23.9171 28.7107C23.774 28.3579 23.3446 28.1994 22.9579 28.3566C22.5713 28.5138 22.3738 28.9271 22.5169 29.2799C22.66 29.6327 23.0894 29.7912 23.4761 29.634Z" fill="#512D16"/>
<path d="M23.3252 28.59C23.3252 28.59 24.0966 28.5796 24.2004 30.0251" stroke="#512D16" stroke-width="0.8" stroke-miterlimit="10"/>
<path d="M27.599 29.1888C27.7388 28.8347 27.5376 28.4231 27.1495 28.2695C26.7614 28.1159 26.3334 28.2785 26.1936 28.6325C26.0538 28.9866 26.2551 29.3981 26.6432 29.5517C27.0313 29.7053 27.4592 29.5428 27.599 29.1888Z" fill="#512D16"/>
<path d="M26.7835 28.5045C26.7835 28.5045 26.0121 28.5016 25.9219 29.9475" stroke="#512D16" stroke-width="0.8" stroke-miterlimit="10"/>
<path d="M12.864 30.1451C13.9768 30.1451 14.8789 29.6529 14.8789 29.046C14.8789 28.4391 13.9768 27.9469 12.864 27.9469C11.7513 27.9469 10.8491 28.4387 10.8491 29.046C10.8491 29.6533 11.7513 30.1451 12.864 30.1451Z" fill="#FAC1C0"/>
<path d="M37.1799 30.1451C38.2927 30.1451 39.1953 29.6529 39.1953 29.046C39.1953 28.4391 38.2931 27.9469 37.1799 27.9469C36.0668 27.9469 35.165 28.4387 35.165 29.046C35.165 29.6533 36.0672 30.1451 37.1799 30.1451Z" fill="#FAC1C0"/>
<path d="M18.7826 28.9369C20.2591 28.9369 21.4563 27.5532 21.4563 25.8459C21.4563 24.1386 20.2591 22.7549 18.7826 22.7549C17.3061 22.7549 16.1089 24.1386 16.1089 25.8459C16.1089 27.5532 17.3061 28.9369 18.7826 28.9369Z" fill="#512E18"/>
<path d="M19.5091 26.0564C19.9908 26.0564 20.3811 25.5617 20.3811 24.9515C20.3811 24.3412 19.9908 23.8466 19.5091 23.8466C19.0274 23.8466 18.6372 24.3412 18.6372 24.9515C18.6372 25.5617 19.0274 26.0564 19.5091 26.0564Z" fill="white"/>
<g opacity="0.2">
<path d="M17.7857 27.6353C18.0522 27.6353 18.2686 27.3005 18.2686 26.8875C18.2686 26.4745 18.0526 26.1397 17.7857 26.1397C17.5188 26.1397 17.3027 26.4745 17.3027 26.8875C17.3027 27.3005 17.5188 27.6353 17.7857 27.6353Z" fill="white"/>
</g>
<path d="M31.3134 28.9369C32.7899 28.9369 33.9871 27.5532 33.9871 25.8459C33.9871 24.1386 32.7899 22.7549 31.3134 22.7549C29.8368 22.7549 28.6396 24.1386 28.6396 25.8459C28.6396 27.5532 29.8368 28.9369 31.3134 28.9369Z" fill="#512E18"/>
<path d="M30.5868 26.0564C31.0685 26.0564 31.4587 25.5617 31.4587 24.9515C31.4587 24.3412 31.0685 23.8466 30.5868 23.8466C30.1051 23.8466 29.7148 24.3412 29.7148 24.9515C29.7148 25.5617 30.1051 26.0564 30.5868 26.0564Z" fill="white"/>
<g opacity="0.2">
<path d="M32.3101 27.6353C32.5766 27.6353 32.793 27.3005 32.793 26.8875C32.793 26.4745 32.577 26.1397 32.3101 26.1397C32.0432 26.1397 31.8271 26.4745 31.8271 26.8875C31.8271 27.3005 32.0432 27.6353 32.3101 27.6353Z" fill="white"/>
</g>
<path d="M29.0564 34.9456C28.5934 35.316 28.0463 35.5944 27.4645 35.7958C26.679 36.0675 25.8295 36.198 25.0366 36.2241C24.1555 36.2535 23.3436 36.1533 22.7663 35.9735C22.542 35.9035 22.3091 35.8111 22.0765 35.7001C20.9223 35.1466 19.7996 34.1258 19.9863 33.0975C20.0103 32.9658 20.0558 32.8332 20.1257 32.7023C20.5205 31.9603 21.2592 31.8182 21.8493 31.8426C22.3405 31.8625 22.7287 31.9976 22.7287 31.9976C23.618 32.2457 24.3115 32.3315 24.8946 32.3385C25.4876 32.346 25.9664 32.2727 26.4212 32.2064C27.1913 32.0945 27.2629 31.957 28.0744 31.8256C28.2127 31.8033 28.3728 31.7813 28.5615 31.7594C29.1831 31.6877 29.7326 32.09 29.9395 32.6853C29.9404 32.6874 29.9408 32.689 29.9412 32.6907C30.1622 33.3357 29.9818 34.2057 29.0569 34.9452L29.0564 34.9456Z" fill="#512D16"/>
<path d="M28.1255 31.7567C28.0738 32.811 27.0044 33.6504 25.7001 33.6433L24.2894 33.6359C23.0566 33.6288 22.0456 32.8723 21.9028 31.9C22.3564 31.9215 22.7057 32.0363 22.7057 32.0363C23.621 32.2737 24.3274 32.3454 24.9184 32.3387C25.494 32.3329 25.96 32.2526 26.4032 32.1801C27.1874 32.0516 27.2403 31.9095 28.1027 31.7604C28.1102 31.7591 28.118 31.7579 28.1255 31.7567Z" fill="white"/>
<path d="M27.7041 35.7964C26.9187 36.0681 26.0691 36.1986 25.2762 36.2247C24.4212 36.2624 23.6325 36.1763 23.0647 36.0114C22.8197 35.9397 22.5632 35.8423 22.3091 35.7222C22.3116 35.7152 22.314 35.7077 22.3161 35.7007C22.3956 35.4703 22.5466 35.2644 22.7477 35.0999C23.0536 34.851 23.4757 34.6968 23.9412 34.6968H26.0505C26.8558 34.6968 27.5291 35.1567 27.6971 35.7719C27.6995 35.7802 27.702 35.7881 27.7037 35.7964H27.7041Z" fill="#FAC0C0"/>
<path d="M29.1102 34.8723C28.6922 35.2211 28.201 35.4937 27.6747 35.6992C27.6229 35.7195 27.5708 35.739 27.5186 35.758C27.5062 35.7626 27.4938 35.7672 27.4814 35.7713C26.698 36.0505 25.8501 36.1902 25.0601 36.2245C24.9649 36.2287 24.871 36.2312 24.7779 36.2324C24.0322 36.2419 23.3531 36.1578 22.8486 36.0108C22.6033 35.9395 22.3471 35.8417 22.0926 35.722C22.0777 35.715 22.062 35.7079 22.0467 35.7005C20.883 35.1408 19.7768 34.1287 20.0098 33.0979C20.0334 32.9939 20.0702 32.8904 20.1224 32.7864C20.5097 32.0129 21.2803 31.8733 21.8799 31.8986C21.8877 31.899 21.8952 31.8994 21.9026 31.8998C22.3562 31.9213 22.7055 32.0361 22.7055 32.0361C23.6208 32.2735 24.3272 32.3452 24.9182 32.3385C25.4938 32.3327 25.9598 32.2524 26.403 32.1799C27.1872 32.0514 27.2401 31.9093 28.1025 31.7602C28.11 31.7589 28.1179 31.7577 28.1253 31.7565C28.2441 31.7362 28.3782 31.7158 28.5309 31.6955C29.1806 31.6085 29.7649 32.0448 29.9631 32.6853C29.9639 32.6874 29.9643 32.689 29.9643 32.6911C30.1572 33.322 29.9743 34.1506 29.1102 34.8723Z" stroke="#512D16" stroke-width="0.8" stroke-miterlimit="10"/>
</svg>
