<svg width="100" height="100" viewBox="0 0 100 100" fill="none" xmlns="http://www.w3.org/2000/svg">
<g clip-path="url(#clip0_116_4772)">
<path d="M50 100C77.6142 100 100 77.6142 100 50C100 22.3858 77.6142 0 50 0C22.3858 0 0 22.3858 0 50C0 77.6142 22.3858 100 50 100Z" fill="#8247E5"/>
<path d="M63.8877 40.6706C62.9008 40.1009 61.6319 40.1009 60.5039 40.6706L52.6084 45.3709L47.2507 48.362L39.4961 53.0623C38.5091 53.632 37.2402 53.632 36.1123 53.0623L30.0496 49.359C29.0627 48.7893 28.3577 47.6499 28.3577 46.368V39.2463C28.3577 38.1068 28.9217 36.9674 30.0496 36.2552L36.1123 32.6944C37.0992 32.1246 38.3681 32.1246 39.4961 32.6944L45.5587 36.3976C46.5457 36.9674 47.2507 38.1068 47.2507 39.3887V44.089L52.6084 40.9555V36.1128C52.6084 34.9733 52.0444 33.8338 50.9164 33.1217L39.6371 26.4273C38.6501 25.8576 37.3812 25.8576 36.2533 26.4273L24.6919 33.2641C23.564 33.8338 23 34.9733 23 36.1128V49.5015C23 50.6409 23.564 51.7804 24.6919 52.4926L36.1123 59.1869C37.0992 59.7567 38.3681 59.7567 39.4961 59.1869L47.2507 54.6291L52.6084 51.4955L60.3629 46.9377C61.3499 46.368 62.6188 46.368 63.7467 46.9377L69.8094 50.4985C70.7963 51.0682 71.5013 52.2077 71.5013 53.4896V60.6113C71.5013 61.7507 70.9373 62.8902 69.8094 63.6024L63.8877 67.1632C62.9008 67.7329 61.6319 67.7329 60.5039 67.1632L54.4413 63.6024C53.4543 63.0326 52.7493 61.8932 52.7493 60.6113V56.0534L47.3916 59.1869V63.8872C47.3916 65.0267 47.9556 66.1662 49.0835 66.8783L60.5039 73.5727C61.4909 74.1424 62.7598 74.1424 63.8877 73.5727L75.3081 66.8783C76.295 66.3086 77 65.1691 77 63.8872V50.3561C77 49.2166 76.436 48.0772 75.3081 47.365L63.8877 40.6706Z" fill="white"/>
</g>
<defs>
<clipPath id="clip0_116_4772">
<rect width="100" height="100" fill="white"/>
</clipPath>
</defs>
</svg>
