<svg width="148" height="40" viewBox="0 0 148 40" fill="none" xmlns="http://www.w3.org/2000/svg">
<path d="M0 5.77811L17.7774 0V40C5.07907 34.6662 0 24.444 0 18.6672V5.77811Z" fill="#0500FF"/>
<path d="M35.5559 5.77811L17.7786 0V40C30.4769 34.6662 35.5559 24.444 35.5559 18.6672V5.77811Z" fill="url(#paint0_linear_281_3258)"/>
<path d="M66.7749 9.43555H73.8255V13.3848C76.1356 9.83552 78.7939 9.43555 82.6853 9.43555V16.4148H80.9131C76.25 16.4148 74.0175 18.6091 74.0175 22.9559V30.3746H66.7749V9.43555Z" fill="#0500FF"/>
<path d="M106.21 30.3731H98.9687V28.3769C97.3872 30.2119 95.2323 31.0094 92.5752 31.0094C87.5294 31.0094 84.6766 28.0176 84.6766 22.5151V9.43408H91.918V20.882C91.918 23.4726 93.1893 24.9876 95.3455 24.9876C97.5017 24.9876 98.9674 23.5108 98.9674 21.0001V9.43408H106.209V30.3731H106.21Z" fill="#0500FF"/>
<path d="M107.98 23.9097H114.762C115.071 25.4247 116.111 26.0622 118.613 26.0622C120.656 26.0622 121.85 25.5847 121.85 24.7072C121.85 24.0278 121.271 23.5885 119.617 23.2303L114.147 21.9935C110.487 21.1578 108.637 19.0435 108.637 15.6517C108.637 11.1831 111.911 8.87061 118.267 8.87061C124.624 8.87061 127.744 11.124 128.285 15.952H121.545C121.43 14.677 120.118 13.8968 117.962 13.8968C116.229 13.8968 115.114 14.4543 115.114 15.2936C115.114 16.0111 115.844 16.5686 117.311 16.9304L123.05 18.3272C126.824 19.2429 128.637 21.1591 128.637 24.269C128.637 28.5777 124.899 31.1302 118.547 31.1302C112.194 31.1302 107.991 28.3783 107.991 23.9097H107.984H107.98Z" fill="#0500FF"/>
<path d="M147.92 15.9469V9.43408H130.045V15.9506H135.379V30.3731H142.583V15.9469H147.92Z" fill="#0500FF"/>
<path d="M64.7591 15.9469V9.43408H46.8857V15.9506H52.2196V30.3731H59.4253V15.9469H64.7591Z" fill="#0500FF"/>
<defs>
<linearGradient id="paint0_linear_281_3258" x1="30.8338" y1="-2.80106" x2="17.4044" y2="39.4536" gradientUnits="userSpaceOnUse">
<stop offset="0.02" stop-color="#0000FF"/>
<stop offset="0.08" stop-color="#0094FF"/>
<stop offset="0.16" stop-color="#48FF91"/>
<stop offset="0.42" stop-color="#0094FF"/>
<stop offset="0.68" stop-color="#0038FF"/>
<stop offset="0.9" stop-color="#0500FF"/>
</linearGradient>
</defs>
</svg>
