<svg width="44" height="72" viewBox="0 0 44 72" fill="none" xmlns="http://www.w3.org/2000/svg">
<path d="M41.3113 8.30341C39.6017 7.87082 36.9358 7.45036 34.0107 8.20455C28.8747 9.53067 23.1859 14.4161 13.3197 45.3413C11.4428 51.2261 9.01839 59.2962 6.54884 69.0571C3.36374 68.7051 2.2173 67.751 2.2173 67.751C2.8346 64.0822 3.84513 58.4394 5.33786 51.5927C7.31955 42.5041 11.9518 23.0207 20.973 11.007C20.973 11.007 27.0632 2.89673 32.9798 2.89657C33.5189 2.89704 34.0443 2.97008 34.0443 2.97008C37.8526 3.50107 40.2595 6.66874 41.3128 8.30352L41.3113 8.30341Z" fill="#C0DEF5"/>
<path d="M41.1565 8.50751C39.4469 8.07492 36.781 7.65446 33.8559 8.40865C28.7199 9.73478 23.0311 14.6202 13.165 45.5454C11.288 51.4303 8.8636 59.5003 6.39406 69.2612C3.20896 68.9092 2.06251 67.9551 2.06251 67.9551C2.67982 64.2863 3.69035 58.6435 5.18308 51.7968C7.16476 42.7082 11.797 23.2247 20.8182 11.2111C20.8182 11.2111 26.9084 3.10083 32.8251 3.10067C33.3641 3.10115 33.8895 3.17419 33.8895 3.17419C37.6978 3.70517 40.1047 6.87284 41.158 8.50762L41.1565 8.50751Z" stroke="#591224" stroke-width="2" stroke-miterlimit="10"/>
</svg>
