<svg width="77" height="117" viewBox="0 0 77 117" fill="none" xmlns="http://www.w3.org/2000/svg">
<path d="M22.4547 72.557C22.4547 72.557 26.3208 43.8734 24.3523 37.4356C30.844 36.8786 41.4828 34.3773 43.652 33.1718C44.5975 43.1704 44.0439 65.4009 42.819 67.2785C41.5942 69.1561 22.4532 72.5568 22.4532 72.5568L22.4547 72.557Z" fill="#CEE4BB"/>
<path d="M35.4533 45.1766C33.2607 44.8014 31.1119 46.9445 30.6527 49.9616C30.195 52.9788 31.5994 55.7301 33.7921 56.1053C35.9832 56.4803 38.1335 54.3373 38.5912 51.3201C39.0504 48.3016 37.6459 45.5518 35.4533 45.1766Z" fill="#90C696"/>
<path d="M25.8049 68.4215C27.22 62.1134 27.6659 56.8876 27.7944 53.1224C27.9617 48.2052 27.7643 40.52 27.7643 40.52C30.216 40.2999 33.2012 39.7934 36.4464 38.6902C38.0299 38.1519 39.4499 37.548 40.7033 36.935C41.6326 42.3592 41.7374 46.8134 41.6419 49.9814C41.3771 58.7916 39.2406 68.3496 39.2406 68.3496C39.2406 68.3496 40.6407 67.9321 42.8212 67.2811C43.9803 58.4451 44.5261 48.7802 44.0499 38.4055C43.9668 36.6034 43.8561 34.8289 43.7191 33.0822C43.7191 33.0822 28.6985 37.6769 24.6796 37.3039C24.8371 41.0043 24.8796 44.8909 24.7712 48.9473C24.5381 57.6049 23.6535 65.5141 22.452 72.5603C23.5701 71.1812 24.6882 69.8021 25.8049 68.4229L25.8049 68.4215Z" fill="#90C696"/>
<path d="M42.9589 67.5818L23.1079 72.0362L22.4141 69.4353C25.4294 68.3513 28.9282 67.2944 32.8742 66.4453C36.2618 65.716 39.4175 65.2596 42.2652 64.9809C42.496 65.8474 42.7283 66.7139 42.9589 67.5818Z" fill="#90C696"/>
<path d="M23.6752 62.6922C24.6242 53.746 25.6302 41.3172 24.4162 37.3477C30.9079 36.7907 41.5468 34.2894 43.7159 33.084C44.6615 43.0825 44.1079 65.313 42.883 67.1906C41.6581 69.0682 22.5172 72.4689 22.5172 72.4689L23.6751 62.6937L23.6752 62.6922Z" stroke="#591224" stroke-width="2" stroke-miterlimit="10"/>
<path d="M26.6032 70.3092C26.6032 70.3092 41.3311 50.8414 41.2756 37.7349C56.6522 36.6528 62.236 41.9251 65.2898 44.808C57.901 55.7905 48.0009 72.6374 46.7419 77.78C35.6599 74.4881 26.6032 70.3092 26.6032 70.3092Z" fill="#CEE4BB"/>
<path d="M49.5523 51.0211C51.4256 51.9526 51.9102 54.777 50.6343 57.3326C49.3583 59.8883 46.8056 61.2047 44.9324 60.2732C43.0591 59.3417 42.5745 56.5158 43.8504 53.9617C45.1263 51.4075 47.679 50.0896 49.5538 51.0212L49.5523 51.0211Z" fill="#90C696"/>
<path d="M60.5586 45.4502C60.5586 45.4502 54.1636 40.1919 44.8191 40.9888C41.9137 56.6516 31.377 68.8215 31.377 68.8215C37.4041 70.6991 44.8244 73.5505 44.8244 73.5505C46.2989 77.1788 46.7402 77.7812 46.7402 77.7812C46.7402 77.7812 27.1686 71.2793 26.6024 70.3108C37.0619 54.3067 41.0055 45.9652 41.2742 37.7382C53.9879 37.2495 62.386 40.3677 65.2873 44.811C62.295 45.1934 60.5601 45.4503 60.5601 45.4503L60.5586 45.4502Z" fill="#90C696"/>
<path d="M64.5843 44.4006C64.5843 44.4006 46.8474 73.4094 45.9973 76.9771L42.0206 76.411C51.9197 61.873 59.5307 48.3616 60.8988 41.518C62.6645 42.6757 64.5844 44.3991 64.5844 44.3991L64.5843 44.4006Z" fill="#90C696"/>
<path d="M26.6032 70.3092C26.6032 70.3092 41.3311 50.8414 41.2756 37.7349C56.6522 36.6528 62.236 41.9251 65.2898 44.808C57.901 55.7905 48.0009 72.6374 46.7419 77.78C35.6599 74.4881 26.6032 70.3092 26.6032 70.3092Z" stroke="#591224" stroke-width="2" stroke-miterlimit="10"/>
<path d="M31.089 73.5135C31.089 73.5135 50.2563 52.1655 52.1643 45.8774C57.953 48.8487 68.3204 52.4228 70.8205 52.584C66.074 61.2353 53.2819 79.0686 51.2073 79.9535C49.1326 80.8384 31.0891 73.512 31.0891 73.512L31.089 73.5135Z" fill="#CEE4BB"/>
<path d="M57.2283 57.9867C55.5738 56.513 52.5521 57.1272 50.4803 59.3577C48.4085 61.5895 48.0712 64.5916 49.7257 66.0653C51.3802 67.5389 54.4019 66.9247 56.4722 64.6927C58.544 62.4623 58.8813 59.4587 57.2268 57.9851L57.2283 57.9867Z" fill="#90C696"/>
<path d="M36.2131 71.907C40.9037 67.5115 44.1779 63.4854 46.3729 60.4844C49.2403 56.564 53.3343 50.1949 53.3343 50.1949C55.5258 51.3082 58.3248 52.4709 61.6752 53.2825C63.31 53.6791 64.8435 53.9358 66.2414 54.0972C64.0197 59.0091 61.6379 62.6956 59.8023 65.2276C54.695 72.2695 47.5935 78.9343 47.5935 78.9343C47.5935 78.9343 49.0066 79.332 51.2069 79.9521C57.0821 73.3602 62.9012 65.7688 68.2518 57.0614C69.1815 55.5494 70.0713 54.0446 70.9227 52.5484C70.9227 52.5484 55.6998 48.3714 52.5152 45.9471C50.5968 49.046 48.4773 52.238 46.1374 55.4873C41.141 62.4229 36.0099 68.4028 31.0899 73.5129C32.7981 72.9781 34.5048 72.4433 36.213 71.9085L36.2131 71.907Z" fill="#90C696"/>
<path d="M51.3814 80.5855L31.9439 73.8001L32.8214 71.3005C36.0042 71.9969 39.5831 72.9704 43.4271 74.3487C46.7266 75.5324 49.6758 76.8173 52.259 78.0859C51.9659 78.9196 51.6745 79.7519 51.3814 80.5855Z" fill="#90C696"/>
<path d="M37.5906 66.1133C43.3518 59.3206 51.0923 49.7159 52.2678 45.8374C58.0565 48.8087 68.4239 52.3828 70.924 52.544C66.1775 61.1953 53.3854 79.0286 51.3108 79.9135C49.2361 80.7984 31.1926 73.472 31.1926 73.472L37.5892 66.1117L37.5906 66.1133Z" stroke="#591224" stroke-width="2" stroke-miterlimit="10"/>
<path d="M39.884 87.6273C39.884 87.6273 32.7557 62.1945 37.8245 49.2436C23.0191 41.7397 15.4752 44.6218 11.3485 46.1981C14.4595 60.1615 17.8131 80.9791 17.0929 86.5977C29.3211 87.9754 39.884 87.6273 39.884 87.6273Z" fill="#CEE4BB"/>
<path d="M24.5626 58.9896C22.3556 59.1273 20.799 61.7163 21.0833 64.774C21.3677 67.8317 23.3876 70.1988 25.5945 70.0611C27.8015 69.9235 29.3597 67.3346 29.0753 64.2769C28.7893 61.2205 26.7709 58.8536 24.5641 58.9898L24.5626 58.9896Z" fill="#90C696"/>
<path d="M15.7854 48.8088C15.7854 48.8088 24.1278 46.2792 33.0712 50.9779C29.9542 67.6986 35.7281 84.153 35.7281 84.153C29.0444 83.4904 20.6093 83.208 20.6093 83.208C17.761 86.1841 17.0952 86.595 17.0952 86.595C17.0952 86.595 38.9549 88.3455 39.8857 87.6246C35.6572 67.4066 34.9437 57.4984 37.8263 49.2418C25.4292 43.4399 15.924 43.0135 11.351 46.1964C14.1673 47.826 15.7855 48.8074 15.7855 48.8074L15.7854 48.8088Z" fill="#90C696"/>
<path d="M12.1254 46.2718C12.1254 46.2718 18.6552 82.4424 18.1255 86.3337L22.3246 87.4349C18.0402 68.8859 15.6504 52.3096 16.9287 44.9546C14.7131 45.3632 12.1254 46.2718 12.1254 46.2718Z" fill="#90C696"/>
<path d="M39.884 87.6273C39.884 87.6273 32.7557 62.1945 37.8245 49.2436C23.0191 41.7397 15.4752 44.6218 11.3485 46.1981C14.4595 60.1615 17.8131 80.9791 17.0929 86.5977C29.3211 87.9754 39.884 87.6273 39.884 87.6273Z" stroke="#591224" stroke-width="2" stroke-miterlimit="10"/>
<path d="M13.2631 56.2604C13.2631 56.2604 22.7932 69.8877 39.6317 72.5061C48.4619 73.9695 54.5481 70.7532 54.5481 70.7532C57.3158 70.442 62.7542 67.8583 65.7594 62.3473C73.3684 81.7106 71.8551 102.125 68.0635 105.75C64.2717 109.377 56.7042 113.207 50.2498 114.548C26.9119 112.715 12.0378 111.881 3.93496 96.6873C-1.02583 86.8133 6.59062 78.9937 9.8863 70.0473C13.182 61.1009 13.2631 56.2604 13.2631 56.2604Z" fill="#C0DEF5"/>
<path opacity="0.2" d="M13.4153 56.264C13.4153 56.264 15.4984 59.2276 19.4403 62.6643C19.0081 65.0088 18.1536 68.5083 16.4667 73.0647C13.1346 82.0713 5.42797 89.9437 10.4478 99.8817C13.0681 104.77 16.389 108.182 20.4636 110.62C13.3041 108.222 7.87169 104.22 3.97942 96.9618C-1.04019 87.0208 6.66485 79.1497 9.99847 70.1432C13.3305 61.1382 13.4137 56.2639 13.4137 56.2639L13.4153 56.264Z" fill="white"/>
<path opacity="0.15" d="M65.6522 61.9802C73.3579 81.4747 71.8276 102.027 67.9888 105.679C64.4637 109.032 57.7178 112.557 51.5794 114.156C56.5286 112.327 61.3672 109.551 64.1691 106.886C67.8357 103.398 69.3966 84.4741 62.8034 65.7889C63.8622 64.7199 64.8443 63.4532 65.6522 61.9802Z" fill="#231F20"/>
<path d="M13.1617 56.295C13.1617 56.295 22.7358 69.9009 39.6054 72.5769C48.4522 74.0701 54.5406 70.8932 54.5406 70.8932C57.3118 70.5948 62.7528 68.045 65.7506 62.5709C73.413 81.8793 71.9419 102.197 68.1523 105.79C64.3627 109.385 56.7921 113.167 50.3308 114.475C26.9537 112.554 12.0554 111.663 3.9073 96.5034C-1.08242 86.6529 6.52856 78.8995 9.80979 70.0066C13.091 61.1137 13.1617 56.295 13.1617 56.295Z" stroke="#591224" stroke-width="2" stroke-miterlimit="10"/>
<path d="M50.0137 114.737C50.0137 114.737 63.2001 102.703 54.6646 70.1019" stroke="#591224" stroke-width="2" stroke-miterlimit="10"/>
<path d="M52.722 3.99713C55.5492 14.9216 58.1069 27.6502 59.6619 41.9177C61.1156 55.2578 61.4175 67.4153 61.1172 78.0594C64.3691 78.1687 65.6435 77.388 65.6435 77.388C66.8903 66.8893 67.4243 53.4509 65.3882 38.051C64.0595 28.0012 61.9012 19.1308 59.5692 11.6301C58.8441 10.4635 57.9071 9.14046 56.7067 7.77118C55.3209 6.19026 53.9328 4.94689 52.7222 3.99414L52.722 3.99713Z" fill="#C0DEF5"/>
<path d="M52.7884 4.00201L51.791 3.92936L51.7812 4.08832L51.8213 4.24301L52.7884 4.00201ZM59.7283 41.9226L60.7217 41.825L60.7217 41.8249L59.7283 41.9226ZM61.1836 78.0643L60.1847 78.0249L60.1563 79.0307L61.1611 79.0645L61.1836 78.0643ZM65.7099 77.3928L66.2382 78.2481L66.6456 77.9985L66.7022 77.5219L65.7099 77.3928ZM65.4546 38.0559L64.4641 38.1765L64.4641 38.1765L65.4546 38.0559ZM59.6356 11.635L60.5894 11.3471L60.5509 11.2232L60.4823 11.1129L59.6356 11.635ZM56.7731 7.77606L56.0254 8.43157L56.0254 8.43159L56.7731 7.77606ZM52.7886 3.99902L53.4006 3.21477L51.9075 2.0397L51.7912 3.92637L52.7886 3.99902ZM51.8213 4.24301C54.6379 15.1263 57.1858 27.8068 58.735 42.0203L60.7217 41.8249C59.1607 27.5033 56.5934 14.7267 53.7555 3.76102L51.8213 4.24301ZM58.735 42.0203C60.1832 55.3098 60.4839 67.4212 60.1847 78.0249L62.1824 78.1036C62.4839 67.4191 62.1809 55.2156 60.7217 41.825L58.735 42.0203ZM61.1611 79.0645C62.8719 79.122 64.0966 78.9464 64.9186 78.7406C65.3293 78.6378 65.6379 78.5278 65.8549 78.4367C65.9633 78.3912 66.0486 78.3505 66.1121 78.3179C66.1439 78.3016 66.1701 78.2874 66.1911 78.2756C66.2016 78.2697 66.2107 78.2645 66.2186 78.2598C66.2225 78.2575 66.2261 78.2554 66.2294 78.2535C66.231 78.2525 66.2325 78.2515 66.234 78.2506C66.2347 78.2502 66.2355 78.2498 66.2362 78.2493C66.2365 78.2491 66.237 78.2488 66.2372 78.2487C66.2377 78.2484 66.2382 78.2481 65.7099 77.3928C65.1816 76.5376 65.1821 76.5373 65.1826 76.537C65.1827 76.5369 65.1832 76.5366 65.1835 76.5364C65.1841 76.536 65.1847 76.5357 65.1853 76.5353C65.1865 76.5346 65.1875 76.534 65.1886 76.5334C65.1906 76.5321 65.1923 76.5311 65.1937 76.5303C65.1965 76.5286 65.1981 76.5277 65.1985 76.5275C65.1992 76.5271 65.1949 76.5296 65.1854 76.5344C65.1665 76.5441 65.1269 76.5636 65.065 76.5895C64.9414 76.6414 64.7282 76.7198 64.4138 76.7985C63.7857 76.9557 62.7472 77.1159 61.206 77.0641L61.1611 79.0645ZM66.7022 77.5219C67.9568 66.9573 68.4943 53.4335 66.4452 37.9354L64.4641 38.1765C66.4872 53.478 65.9566 66.8311 64.7176 77.2638L66.7022 77.5219ZM66.4452 37.9354C65.108 27.8214 62.936 18.8947 60.5894 11.3471L58.6818 11.9228C60.9992 19.3765 63.1438 28.1908 64.4641 38.1765L66.4452 37.9354ZM60.4823 11.1129C59.7318 9.90554 58.7624 8.53676 57.5208 7.12053L56.0254 8.43159C57.1846 9.75392 58.0892 11.0313 58.7889 12.157L60.4823 11.1129ZM57.5209 7.12055C56.0875 5.48534 54.6521 4.19967 53.4006 3.21477L52.1766 4.78328C53.3464 5.70389 54.6872 6.90494 56.0254 8.43157L57.5209 7.12055ZM51.7912 3.92637L51.791 3.92936L53.7857 4.07467L53.7859 4.07167L51.7912 3.92637Z" fill="#591224"/>
<path d="M42.9853 106.707C33.5417 110.691 14.6845 100.903 10.8562 95.3097C7.32834 88.2072 15.994 74.6876 18.3394 73.7106C20.6848 72.7337 25.1206 76.6912 32.8558 79.2228C40.5909 81.7559 44.5404 78.5658 48.4744 84.2122C52.4083 89.8585 52.4291 102.722 42.9853 106.707Z" fill="#591224"/>
<path d="M24.0061 87.0932C23.7933 87.1301 23.5727 87.119 23.3443 87.0612C23.1219 87.0038 22.9597 86.9036 22.8576 86.7591C22.7558 86.6101 22.7341 86.3887 22.7893 86.096L23.5124 82.2004L21.1199 86.0646C20.9846 86.2768 20.7908 86.3509 20.5371 86.2867C20.3926 86.2443 20.2989 86.1895 20.2561 86.1179C20.2133 86.0477 20.1874 85.9477 20.1815 85.8166L19.8068 81.2449L18.6442 85.0128C18.5535 85.2909 18.4435 85.4858 18.3111 85.5974C18.1851 85.7049 18.0019 85.7278 17.7571 85.6658C17.5123 85.6037 17.3199 85.4492 17.1769 85.2035C17.36 85.1048 17.4934 84.9236 17.5742 84.6596L18.8355 80.8607C18.8434 80.8302 18.8515 80.7966 18.8596 80.7616C18.9176 80.5241 18.9129 80.3217 18.8441 80.1531C19.2652 80.0521 19.6894 80.0538 20.1132 80.1638C20.5386 80.2726 20.8116 80.4467 20.9352 80.6879C21.0633 80.9295 21.1336 81.3032 21.1478 81.8063L21.2352 84.143L22.3664 82.1576C22.6472 81.6641 22.9228 81.3588 23.195 81.2403C23.472 81.1177 23.7955 81.1042 24.1627 81.198C24.5358 81.2937 24.8414 81.4303 25.0778 81.609C24.9475 81.737 24.8552 81.9125 24.7996 82.1354C24.7879 82.1805 24.7788 82.2318 24.7708 82.2891L24.039 86.2804C23.9619 86.6368 23.9519 86.9078 24.0045 87.0945L24.0061 87.0932Z" fill="white"/>
<path d="M27.7454 87.3771C28.203 87.4944 28.5726 87.3787 28.8559 87.03C29.079 86.7481 29.2505 86.3654 29.3686 85.8833C29.3946 85.7766 29.4194 85.6654 29.4431 85.5467C29.5635 84.898 29.555 84.3495 29.4162 83.898C29.2789 83.4482 28.9815 83.1646 28.5239 83.0472C27.7343 82.846 27.1913 83.3503 26.8949 84.5629C26.6448 85.5826 26.6932 86.3546 27.0386 86.8801C27.2027 87.1325 27.4374 87.2981 27.744 87.3755L27.7454 87.3771ZM30.6262 83.6912C30.7594 84.0052 30.8305 84.3442 30.8408 84.7083C30.8574 85.0683 30.8147 85.4566 30.7127 85.8715C30.6125 86.282 30.4712 86.6447 30.2886 86.9595C30.112 87.2748 29.8913 87.542 29.6293 87.7614C29.366 87.9792 29.045 88.118 28.6665 88.178C28.2941 88.2384 27.8812 88.2123 27.4281 88.0953C26.5667 87.8751 25.9851 87.4429 25.6846 86.8003C25.3904 86.1537 25.3482 85.4046 25.5565 84.5528C25.7648 83.7011 26.1487 83.0624 26.7036 82.6395C27.2644 82.217 27.9763 82.116 28.8377 82.3361C29.2938 82.4534 29.6735 82.6288 29.9755 82.8621C30.2759 83.0953 30.4933 83.3727 30.6247 83.6911L30.6262 83.6912Z" fill="white"/>
<path d="M33.8601 88.8976C34.3162 89.0148 34.6874 88.8992 34.9706 88.5505C35.1938 88.2686 35.3652 87.8859 35.4833 87.4038C35.5094 87.2971 35.5342 87.1859 35.5579 87.0672C35.6783 86.4185 35.6697 85.87 35.5325 85.4187C35.3952 84.9688 35.0962 84.6851 34.6401 84.5678C33.8521 84.3653 33.3076 84.8709 33.0111 86.0835C32.761 87.1032 32.8094 87.8752 33.1548 88.4007C33.319 88.6531 33.5551 88.8188 33.8617 88.8962L33.8601 88.8976ZM36.741 85.2117C36.8742 85.5257 36.9452 85.8647 36.9555 86.2288C36.9722 86.5888 36.9295 86.9771 36.8275 87.392C36.7273 87.8025 36.5859 88.1652 36.4033 88.4801C36.2268 88.7954 36.0075 89.0627 35.7441 89.2819C35.4807 89.4997 35.1598 89.6386 34.7813 89.6985C34.4073 89.7588 33.9945 89.7312 33.5429 89.6158C32.6815 89.3956 32.0999 88.9635 31.7994 88.3209C31.5052 87.6743 31.463 86.9251 31.6713 86.0734C31.8796 85.2216 32.262 84.5828 32.8183 84.16C33.3807 83.7377 34.0911 83.6365 34.9524 83.8567C35.41 83.974 35.7884 84.1478 36.0902 84.3826C36.3922 84.6159 36.6081 84.8917 36.7395 85.2116L36.741 85.2117Z" fill="white"/>
<path d="M37.6416 89.6596L38.6224 85.6579C38.6866 85.3934 38.6451 85.1966 38.4934 85.0672C38.7342 84.8969 39.0415 84.8597 39.4154 84.9557C39.873 85.0731 40.1837 85.389 40.3489 85.9065L41.645 89.9404L42.4537 86.6385C42.518 86.374 42.4765 86.1773 42.3247 86.0479C42.5656 85.8775 42.828 85.8294 43.1137 85.9022C43.6341 86.0349 43.819 86.4005 43.6727 86.9996L42.6939 90.994C42.6236 91.2833 42.6193 91.5108 42.6838 91.6781C42.4878 91.7834 42.2349 91.7981 41.9283 91.7192C41.6218 91.6403 41.3731 91.4826 41.1836 91.246C40.9946 91.0036 40.8191 90.6327 40.6544 90.133L39.6289 86.8883L38.8624 90.0148C38.7962 90.2881 38.8343 90.4906 38.98 90.6195C38.7286 90.7876 38.4677 90.8358 38.1985 90.7673C37.9278 90.6986 37.7484 90.5746 37.6603 90.395C37.5707 90.2169 37.5654 89.9723 37.6415 89.6625L37.6416 89.6596Z" fill="white"/>
<path d="M22.8716 91.6656C22.7658 92.0938 22.5293 92.418 22.1607 92.6395C21.8014 92.8558 21.3476 92.9501 20.7976 92.9236C21.3293 93.1572 21.7712 93.497 22.1262 93.9447C22.3009 94.1758 22.4219 94.4429 22.4893 94.743C22.5661 95.038 22.5646 95.3462 22.4863 95.6678C22.3102 96.3855 21.8141 96.8876 20.998 97.1726C20.1838 97.4503 19.207 97.4442 18.0694 97.1531C16.9302 96.8618 16.1317 96.4868 15.6726 96.028C15.2228 95.564 15.0862 94.9694 15.2643 94.2445L16.4294 89.4911C16.5577 88.9648 16.5552 88.5178 16.4219 88.1514C17.6334 88.0402 18.8209 88.1326 19.9826 88.4287C21.1442 88.7262 21.9553 89.1692 22.4159 89.7577C22.8841 90.3483 23.0365 90.9828 22.8688 91.6624L22.8716 91.6656ZM19.1593 92.1034C19.6188 92.2211 20.0134 92.2042 20.3399 92.0523C20.6685 91.8932 20.8765 91.6383 20.9626 91.286C21.0507 90.9264 20.9803 90.6007 20.7545 90.3075C20.5381 90.0092 20.18 89.7951 19.6799 89.6683C19.1889 89.5421 18.7592 89.4848 18.3923 89.4965L17.8397 91.7519L19.1115 92.0892C19.1264 92.0934 19.1429 92.0977 19.1578 92.1018L19.1593 92.1034ZM17.0768 94.8682C16.9666 95.3184 17.4063 95.67 18.3972 95.9244C18.99 96.0763 19.4824 96.0759 19.8756 95.9263C20.269 95.7752 20.5129 95.5052 20.6088 95.1165C20.7047 94.7277 20.6132 94.372 20.3361 94.0481C20.0607 93.7183 19.6267 93.4774 19.0339 93.3255L17.5489 92.9462L17.0767 94.8697L17.0768 94.8682Z" fill="white"/>
<path d="M26.6846 96.2973L28.5086 96.7639L28.3762 93.6046L26.6846 96.2988L26.6846 96.2973ZM31.2261 99.7703C31.0836 99.9453 30.8853 100.064 30.6278 100.129C30.3812 100.188 30.107 100.177 29.8032 100.1C29.4995 100.021 29.2675 99.8858 29.1073 99.6916C28.9507 99.4889 28.8401 99.1765 28.7769 98.7547L28.6696 97.9736L26.0151 97.2949L25.5272 98.0207C25.1569 98.5829 24.7113 98.7969 24.1891 98.6639C23.9407 98.5999 23.7151 98.4856 23.5152 98.3211C23.3247 98.1514 23.2153 97.9732 23.1867 97.7878C23.3322 97.7679 23.4633 97.7081 23.5786 97.6084C23.7033 97.5019 23.8532 97.3305 24.0283 97.091L27.9085 91.6489C27.8415 91.3161 27.7391 91.0699 27.604 90.915C27.9349 90.6102 28.3546 90.5238 28.8619 90.6526C29.251 90.7514 29.5109 90.928 29.6404 91.1793C29.7698 91.4306 29.8696 91.8507 29.9413 92.437L30.6761 98.5125C30.7459 99.106 30.9292 99.5253 31.2245 99.7716L31.2261 99.7703Z" fill="white"/>
<path d="M40.3748 99.2038L39.6081 102.331C39.5077 102.743 39.5688 103.047 39.7944 103.242C39.4178 103.495 39.0257 103.57 38.6215 103.465C38.2157 103.362 37.9472 103.174 37.814 102.906C37.6809 102.638 37.6723 102.27 37.7865 101.803L37.9385 101.185C37.3497 101.659 36.5873 101.777 35.6515 101.537C34.7472 101.306 33.9899 100.772 33.3842 99.9347C33.0952 99.5278 32.8983 99.0268 32.7951 98.4318C32.6993 97.8403 32.7334 97.2113 32.8972 96.5476C33.2337 95.1734 33.912 94.1624 34.9337 93.5149C35.9632 92.8621 37.2236 92.7263 38.7135 93.106C39.5474 93.32 40.2168 93.6701 40.7186 94.1546C41.2293 94.6428 41.4259 95.123 41.3098 95.5966C41.2434 95.8716 41.0523 96.0712 40.7411 96.193C40.4393 96.311 40.1207 96.3265 39.7853 96.2408C39.4499 96.155 39.1689 95.9976 38.9422 95.7698C38.9695 95.6945 38.9904 95.6231 39.0066 95.5543C39.0907 95.2108 39.0607 94.8956 38.9152 94.6057C38.7696 94.3172 38.4954 94.1215 38.0897 94.017C37.38 93.8351 36.7447 93.9897 36.1868 94.4796C35.601 94.9793 35.1886 95.71 34.9539 96.672C34.7193 97.6341 34.7374 98.4341 35.0128 99.0723C35.2887 99.7031 35.7934 100.112 36.5271 100.3C37.5482 100.561 38.1727 100.23 38.399 99.3062L38.5311 98.7682L38.1568 98.672C37.751 98.5689 37.3822 98.4821 37.0519 98.4132C36.9594 98.178 36.9451 97.931 37.009 97.6723C37.075 97.4048 37.2555 97.2565 37.5536 97.2275C37.8537 97.1898 38.3346 97.2571 38.9964 97.4263C39.6597 97.5957 40.0831 97.8134 40.2665 98.0794C40.4573 98.3476 40.4945 98.7214 40.3765 99.2024L40.3748 99.2038Z" fill="white"/>
</svg>
