<svg width="345" height="386" viewBox="0 0 345 386" fill="none" xmlns="http://www.w3.org/2000/svg">
<path d="M326.511 331.357C324.453 338.088 323.326 347.594 321.723 356.618C319.045 371.732 315.029 385.503 303.061 382.622C298.287 384.95 293.93 383.457 291.901 380.403C288.293 382.992 284.42 383.095 281.919 381.182C280.8 380.326 280.28 379.268 279.723 378.069C279.317 377.199 277.55 373.146 278.927 367.24C280.184 361.844 283.158 358.813 282.594 358.337C281.801 357.667 277.065 364.639 273.058 363.66C269.978 362.908 267.758 357.564 268.216 353.076C268.765 347.706 272.846 346.45 279.479 337.48C280.051 336.707 281.655 335.04 283.939 333.024C285.069 332.024 286.173 331.436 287.286 331.148C292.726 329.746 300.486 334.117 307.087 335.504C311.241 336.377 317.612 336.345 326.509 331.357H326.511Z" fill="#FCE5D8"/>
<path opacity="0.15" d="M269.84 358.987C270.192 359.357 270.756 359.828 271.522 359.963C275.169 360.607 277.764 352.585 282.503 352.641C283.604 352.653 284.79 353.091 286.073 354.155C289.611 357.091 283.102 366.814 285.568 373.557C287.148 377.869 291.666 377.631 295.994 374.824C296.837 379.104 302.092 379.665 306.866 377.334C309.083 377.863 313.064 378.604 314.776 378.096C312.022 381.946 308.308 383.883 303.058 382.622C298.284 384.95 293.927 383.457 291.898 380.403C288.29 382.993 284.42 383.095 281.919 381.182C280.668 380.227 280.104 379.007 279.72 378.066C277.142 371.776 281.587 366.547 279.435 363.866C278.622 362.852 276.669 361.956 271.34 363.214C270.841 361.803 270.339 360.392 269.84 358.981V358.987Z" fill="#231F20"/>
<path opacity="0.15" d="M326.512 331.357C324.453 338.088 323.326 347.594 321.723 356.618C317.586 358.27 311.855 359.207 304.148 357.873C288.651 355.192 281.948 343.502 279.479 337.483C280.985 335.81 282.506 334.293 283.939 333.027C293.002 325.014 300.246 343.441 326.512 331.357Z" fill="#231F20"/>
<path d="M293.05 379.5C296.89 382.407 300.172 382.919 303.928 379.547C307.404 376.382 309.283 371.494 310.261 366.885C310.607 369.439 310.475 372.087 309.87 374.595C308.305 381.67 301.72 388.683 294.071 384.706C292.762 384.015 291.617 383.128 290.671 382.105L293.047 379.5H293.05Z" fill="#512E18"/>
<path d="M304.512 381.149C318.487 386.411 322.066 348.746 322.815 339.852C323.018 337.353 323.185 334.828 323.279 332.353L326.259 334.473C323.37 335.587 320.346 336.307 317.287 336.663C309.758 337.524 302.198 336.536 294.926 334.623C293.446 334.223 292.028 333.803 290.571 333.279L291.079 333.403L288.716 333.121L290.163 332.786C286.614 335.081 283.249 337.659 280.195 340.557C277.174 343.426 274.373 346.668 272.104 350.136C270.556 352.641 269.247 355.036 269.676 357.843C269.89 359.098 270.277 360.127 271.141 360.906C273.472 362.708 276.922 361.35 279.185 359.692L284.881 355.439L282.207 362.008C280.756 365.586 279.737 369.486 279.831 373.325C279.893 376.449 280.924 380.529 284.641 380.726C287.671 381.061 290.228 379.039 292.113 376.84C293.117 375.609 293.892 374.254 294.741 372.884C296.217 370.397 298.135 367.37 299.609 364.901C299.374 367.011 298.739 369.036 298.105 371.053C297.433 373.078 296.693 375.033 295.733 376.961C294.708 379.045 293.229 380.826 291.349 382.246C288.346 384.521 283.977 385.147 280.598 383.163C277.318 381.144 276.205 377.046 276.059 373.463C275.891 368.984 276.945 364.648 278.539 360.536L281.561 362.852C279.602 364.339 277.271 365.486 274.588 365.762C268.842 366.35 265.38 361.985 265.415 356.53C265.483 353.361 266.916 350.445 268.536 347.864C273.463 340.251 280.213 333.976 287.782 329.082L288.443 328.656L289.23 328.75L291.593 329.029L291.846 329.058C293.208 329.561 294.65 329.981 296.062 330.364C305.346 332.753 315.525 333.785 324.665 330.396L327.786 329.238C327.563 335.469 327.108 341.718 326.309 347.882C324.847 358.24 322.483 373.131 315.551 381.238C312.325 384.903 307.876 386.337 303.258 384.45L304.509 381.152L304.512 381.149Z" fill="#512E18"/>
<path d="M328.667 342.726C326.685 346.448 324.588 349.555 322.53 351.874C316.365 355.774 305.04 354.181 297.785 350.833C290.519 347.476 284.655 340.066 283.261 333.647C280.357 312.375 294.805 266.448 245.794 263.864H217.555C239.904 252.03 270.856 237.363 296.675 241.869C306.303 243.55 315.214 247.889 322.698 256.039C347.029 282.526 339.7 322.039 328.67 342.729L328.667 342.726Z" fill="#F5BD61"/>
<path opacity="0.15" d="M328.667 342.726C326.685 346.448 324.588 349.554 322.53 351.874C316.365 355.774 305.04 354.181 297.785 350.833C290.519 347.476 284.655 340.066 283.261 333.647C280.357 312.375 294.805 266.447 245.794 263.864H217.555C239.094 252.459 268.616 238.427 293.836 241.451C286.895 255.883 278.572 259.834 279.843 264.966C281.39 271.227 291.311 276.723 291.082 304.165C290.868 329.943 288.158 344.522 310.801 348.77C318.843 350.277 324.762 346.58 328.67 342.729L328.667 342.726Z" fill="#231F20"/>
<path d="M221.862 262.862C221.862 262.862 279.902 225.573 314.77 249.129C349.639 272.685 340.904 330.846 322.941 351.389C298.367 360.906 284.611 344.061 282.976 330.931C281.34 317.801 287.747 284.204 270.926 272.03C254.106 259.855 221.859 262.862 221.859 262.862H221.862Z" stroke="#512E18" stroke-width="4" stroke-miterlimit="10"/>
<path d="M18.1592 331.231C20.2174 337.962 21.3448 347.467 22.9479 356.491C25.6256 371.605 29.6421 385.376 41.6094 382.496C46.3834 384.824 50.7405 383.33 52.7694 380.276C56.3778 382.866 60.2504 382.969 62.7519 381.055C63.8706 380.2 64.3902 379.142 64.9481 377.943C65.3533 377.072 67.1208 373.019 65.7438 367.114C64.4871 361.717 61.5129 358.687 62.0766 358.211C62.8694 357.541 67.6052 364.513 71.6129 363.534C74.6929 362.781 76.9125 357.438 76.4545 352.949C75.9054 347.579 71.8243 346.324 65.1918 337.353C64.6193 336.58 63.0162 334.913 60.7319 332.897C59.6015 331.898 58.4976 331.31 57.3848 331.022C51.9443 329.62 44.1843 333.991 37.5841 335.378C33.4296 336.251 27.0583 336.219 18.1621 331.231H18.1592Z" fill="#FCE5D8"/>
<path opacity="0.15" d="M74.8308 358.861C74.4785 359.231 73.9147 359.701 73.1484 359.836C69.5019 360.48 66.9064 352.459 62.1676 352.514C61.0666 352.526 59.8804 352.964 58.5974 354.028C55.0594 356.965 61.5686 366.688 59.1024 373.431C57.5228 377.743 53.0042 377.505 48.6765 374.698C47.8338 378.977 42.5783 379.539 37.8043 377.208C35.5875 377.737 31.6062 378.478 29.8945 377.969C32.6485 381.82 36.3626 383.757 41.6123 382.496C46.3863 384.824 50.7434 383.331 52.7722 380.277C56.3806 382.866 60.2504 382.969 62.7519 381.055C64.0026 380.1 64.5664 378.88 64.951 377.94C67.5288 371.65 63.0837 366.42 65.2358 363.74C66.0491 362.726 68.0015 361.829 73.3305 363.087C73.8296 361.676 74.3317 360.266 74.8308 358.855V358.861Z" fill="#231F20"/>
<path opacity="0.15" d="M18.1592 331.231C20.2174 337.962 21.3448 347.468 22.9479 356.491C27.0848 358.143 32.8159 359.081 40.5231 357.746C56.0196 355.066 62.7226 343.376 65.1918 337.356C63.6856 335.684 62.1647 334.167 60.7319 332.9C51.6683 324.887 44.4251 343.314 18.1592 331.231Z" fill="#231F20"/>
<path d="M53.9993 381.978C51.991 384.109 49.2517 385.691 46.1541 385.735C39.3249 385.576 35.2232 378.533 34.4334 372.537C34.2455 371.279 34.1839 369.939 34.2426 368.666C34.2514 368.028 34.3424 367.387 34.4099 366.758C34.7006 368.002 34.9795 369.219 35.37 370.397C37.0348 375.888 42.2609 384.227 48.8729 381.061C49.8066 380.632 50.7138 380.041 51.624 379.377L53.9993 381.981V381.978Z" fill="#512E18"/>
<path d="M41.4096 384.321C28.7905 389.015 23.4292 372.255 21.1156 362.97C18.4468 351.847 17.3017 340.51 16.8818 329.105L20.0029 330.264C29.9913 333.964 41.6327 332.439 51.6212 329.341C52.0469 329.205 52.4374 329.064 52.825 328.923C53.5355 328.841 55.535 328.603 56.2279 328.521C62.1469 332.262 67.5845 336.851 72.0884 342.244C75.2946 346.245 79.0674 351.009 79.2553 356.397C79.1144 366.276 69.9744 368.049 63.1129 362.72L66.1341 360.404C67.7254 364.516 68.7824 368.848 68.6151 373.331C68.3714 380.509 64.255 385.788 56.6037 383.783C53.189 382.734 50.4938 379.93 48.9406 376.829C47.9805 374.903 47.2406 372.946 46.5682 370.921C45.9341 368.907 45.3028 366.882 45.065 364.768C46.536 367.235 48.4591 370.274 49.933 372.752C50.7815 374.121 51.5566 375.477 52.5607 376.708C54.4457 378.904 57.0059 380.929 60.033 380.594C63.7471 380.397 64.7776 376.32 64.8393 373.193C64.9333 369.354 63.9144 365.453 62.464 361.876L59.7893 355.307L65.4852 359.56C66.9944 360.689 68.7648 361.459 70.4383 361.597C73.0955 361.859 74.6281 360.277 74.9951 357.711C75.7144 353.349 71.4895 348.317 68.8118 345.001C64.7219 340.172 59.8275 336.086 54.5073 332.65L55.9548 332.985L53.5913 333.268L54.0992 333.144C44.2047 336.463 33.1476 338.094 22.8508 335.725C21.3505 335.366 19.8678 334.89 18.4115 334.337L21.3916 332.218C21.4856 334.693 21.6529 337.218 21.8555 339.716C22.7862 350.069 25.3377 374.853 34.3631 380.659C36.1717 381.743 38.1711 381.752 40.1588 381.014L41.4096 384.312V384.321Z" fill="#512E18"/>
<path d="M16.0037 342.6C17.9855 346.321 20.0819 349.428 22.14 351.747C28.3057 355.648 39.6301 354.055 46.8851 350.707C54.1518 347.35 60.0151 339.94 61.4097 333.52C64.3135 312.248 49.8652 266.321 98.8767 263.737H127.116C104.766 251.904 73.8145 237.236 47.9949 241.742C38.3676 243.424 29.4567 247.762 21.9727 255.913C-2.35837 282.399 4.97001 321.913 16.0008 342.603L16.0037 342.6Z" fill="#F5BD61"/>
<path opacity="0.15" d="M16.0039 342.6C17.9858 346.321 20.0821 349.428 22.1403 351.747C28.306 355.648 39.6303 354.054 46.8853 350.707C54.152 347.35 60.0153 339.94 61.4099 333.52C64.3137 312.248 49.8654 266.321 98.8769 263.737H127.116C105.577 252.333 76.055 238.3 50.8343 241.325C57.7751 255.757 66.0988 259.707 64.8275 264.84C63.2802 271.1 53.3593 276.597 53.5883 304.039C53.8026 329.817 56.5126 344.396 33.8698 348.643C25.8279 350.151 19.9089 346.453 16.001 342.603L16.0039 342.6Z" fill="#231F20"/>
<path d="M122.809 262.735C122.809 262.735 64.7688 225.447 29.9003 249.003C-4.96829 272.559 3.76647 330.719 21.7292 351.262C46.304 360.78 60.0594 343.935 61.6948 330.804C63.3301 317.674 56.9237 284.078 73.7443 271.903C90.565 259.728 122.812 262.735 122.812 262.735H122.809Z" stroke="#512E18" stroke-width="4" stroke-miterlimit="10"/>
<path d="M59.0902 164.843C59.0902 164.843 51.7383 143.418 28.0679 147.263C5.3311 150.958 -1.30437 174.719 3.9952 190.915C9.56195 207.934 20.2139 215.744 34.5566 217.795C49.5392 219.941 63.8407 214.13 63.8407 214.13L59.0931 164.837L59.0902 164.843Z" fill="#FCE5D8"/>
<path opacity="0.15" d="M64.4722 214.594C64.4722 214.594 50.1707 220.403 35.1939 218.263C24.4127 216.72 15.7161 211.926 9.70898 202.417C12.7272 202.946 16.318 202.725 17.7831 199.336C19.1689 196.144 15.813 190.551 16.4061 179.825C17.0344 168.403 38.3883 154.232 61.1192 179.781L64.4751 214.594H64.4722Z" fill="#231F20"/>
<path d="M60.4173 185.533C61.2423 194.389 50.5992 205.718 38.4498 205.856C26.5588 205.988 15.164 195.383 15.4928 182.873C15.7541 172.985 23.2909 163.667 32.2547 162.251C42.9948 160.552 51.0983 170.933 56.0837 177.321C58.6557 180.616 60.1413 182.576 60.4173 185.533Z" fill="#FAC1C0"/>
<path d="M45.0239 187.776C45.0239 193.361 50.4997 197.89 57.2526 197.89C59.0583 197.89 60.77 197.567 62.3114 196.988C61.3748 188.593 60.6848 182.406 60.1916 177.961C59.252 177.767 58.2655 177.667 57.2526 177.667C50.4997 177.667 45.0239 182.194 45.0239 187.779V187.776Z" fill="#FCE5D8"/>
<path d="M11.8375 205.63C23.614 219.503 45.053 223.604 63.8379 214.721C63.2683 208.81 62.7604 203.548 62.3112 198.878C61.3746 189.155 60.6846 181.988 60.1913 176.842C59.381 168.456 59.0903 165.431 59.0903 165.431C58.23 163.409 53.2153 152.139 41.1569 148.207C28.1649 143.971 15.0995 150.837 8.47866 159.147C-2.39354 172.794 1.576 193.537 11.8375 205.63Z" stroke="#512E18" stroke-width="4" stroke-miterlimit="10"/>
<path d="M54.7859 176.501C48.2503 163.723 34.0222 159.358 25.1465 164.094C14.7646 169.634 12.5714 187.173 21.3619 197.358C29.4008 206.673 44.865 207.808 55.1764 198.584C47.8245 196.764 43.811 189.842 45.3083 184.308C46.3712 180.386 50.1499 177.335 54.7859 176.501Z" stroke="#512E18" stroke-width="4" stroke-miterlimit="10"/>
<path opacity="0.25" d="M36.7815 181.834C37.2795 173.73 33.427 166.897 28.1766 166.574C22.9263 166.251 18.2664 172.559 17.7684 180.664C17.2704 188.768 21.1229 195.6 26.3733 195.924C31.6236 196.247 36.2836 189.939 36.7815 181.834Z" fill="white"/>
<path d="M285.466 165.707C285.466 165.707 292.818 144.282 316.488 148.127C339.225 151.822 345.86 175.583 340.561 191.779C334.994 208.798 324.342 216.608 310 218.659C295.017 220.805 280.715 214.994 280.715 214.994L285.463 165.701L285.466 165.707Z" fill="#FCE5D8"/>
<path opacity="0.15" d="M280.084 215.461C280.084 215.461 294.385 221.269 309.362 219.129C320.143 217.586 328.84 212.792 334.847 203.283C331.829 203.813 328.238 203.592 326.773 200.203C325.387 197.011 328.743 191.417 328.15 180.692C327.522 169.269 306.168 155.099 283.437 180.648L280.081 215.461H280.084Z" fill="#231F20"/>
<path d="M284.136 186.397C283.311 195.253 293.954 206.581 306.103 206.72C317.994 206.852 329.389 196.247 329.06 183.737C328.799 173.849 321.262 164.531 312.298 163.114C301.558 161.415 293.455 171.797 288.469 178.184C285.897 181.479 284.412 183.44 284.136 186.397Z" fill="#FAC1C0"/>
<path d="M299.533 188.64C299.533 194.224 294.057 198.754 287.304 198.754C285.498 198.754 283.787 198.431 282.245 197.852C283.182 189.457 283.872 183.269 284.365 178.825C285.304 178.631 286.291 178.531 287.304 178.531C294.057 178.531 299.533 183.058 299.533 188.643V188.64Z" fill="#FCE5D8"/>
<path d="M332.719 206.493C320.942 220.367 299.503 224.467 280.718 215.585C281.288 209.674 281.796 204.412 282.245 199.742C283.182 190.018 283.872 182.852 284.365 177.705C285.175 169.319 285.466 166.295 285.466 166.295C286.326 164.273 291.341 153.003 303.399 149.07C316.391 144.835 329.457 151.701 336.077 160.011C346.95 173.658 342.98 194.401 332.719 206.493Z" stroke="#512E18" stroke-width="4" stroke-miterlimit="10"/>
<path d="M289.77 177.364C296.306 164.587 310.534 160.222 319.409 164.957C329.791 170.498 331.984 188.037 323.194 198.222C315.155 207.537 299.691 208.671 289.379 199.448C296.731 197.628 300.745 190.706 299.247 185.171C298.185 181.25 294.406 178.199 289.77 177.364Z" stroke="#512E18" stroke-width="4" stroke-miterlimit="10"/>
<path opacity="0.25" d="M318.193 196.762C323.443 196.439 327.296 189.607 326.798 181.502C326.3 173.397 321.64 167.089 316.389 167.413C311.139 167.736 307.287 174.568 307.784 182.673C308.282 190.778 312.942 197.086 318.193 196.762Z" fill="white"/>
<path d="M101.07 47.7252C113.812 45.7411 128.011 44.2685 143.466 43.81C171.796 42.9723 196.682 45.7764 217.006 49.6034C217.041 47.6605 217.39 43.5925 220.006 39.4833C224.234 32.8433 231.157 31.1738 232.649 30.8504C216.653 20.2806 202.463 24.8013 199.131 26.6295C200.314 13.9316 198.162 6.39805 188.059 4.1377C168.925 23.8313 149.791 29.6424 126.358 36.5292C119.479 38.1429 101.07 47.7222 101.07 47.7222V47.7252Z" fill="#F5BD61"/>
<path d="M288.739 186.9C296.3 172.791 300.222 157.08 300.222 140.523C300.222 95.6098 269.194 56.9369 224.584 39.5243C223.932 39.2715 223.277 39.0216 222.622 38.7747C222.622 38.7747 225.32 35.177 233.653 31.9907C227.866 24.5659 211.571 20.9564 199.777 25.627C201.703 4.75478 187.354 3 187.354 3C167.953 26.3384 140.839 32.849 140.839 32.849C140.234 32.9754 139.632 33.1077 139.033 33.2399C83.6472 45.6263 42.7539 88.961 42.7539 140.523C42.7539 157.174 47.02 172.967 54.6596 187.138C46.5972 196 42.0815 205.92 42.0815 216.393C42.0815 253.961 100.16 284.418 171.805 284.418C243.451 284.418 301.529 253.964 301.529 216.393C301.529 205.826 296.934 195.824 288.736 186.903L288.739 186.9Z" fill="#F5BD61"/>
<path opacity="0.25" d="M45.6548 116.961C45.6548 116.961 64.0286 52.8659 136.379 42.5194C168.534 37.9194 190.067 16.6503 190.067 16.6503C195.235 21.5355 197.742 28.3195 197.742 28.3195C213.518 27.0673 221.078 32.0142 221.078 32.0142C213.755 35.8883 211.374 43.5776 211.374 43.5776C233.163 49.1212 285.424 69.2998 298.968 128.148C290.792 91.6887 282.019 67.4215 222.622 38.7776C226.046 34.3069 233.653 31.9937 233.653 31.9937C219.222 20.2921 204.128 23.7811 199.777 25.63C199.624 10.8333 197.484 7.43252 187.355 3.00293C166.553 26.9527 144.153 32.3816 132.08 35.0094C120.007 37.6372 89.2082 50.2646 70.3117 71.1898C51.4153 92.1149 45.6577 116.964 45.6577 116.964L45.6548 116.961Z" fill="white"/>
<path opacity="0.15" d="M301.954 221.975C298.322 244.032 268.513 278.022 172.442 283.719H172.422C76.3511 278.025 46.5443 244.035 42.9124 221.975C42.0463 216.687 42.1931 211.784 43.2383 207.343C54.6067 219.036 78.0393 221.934 172.392 194.189C266.924 221.981 290.266 219.021 301.611 207.278C302.671 211.731 302.826 216.667 301.951 221.975H301.954Z" fill="#231F20"/>
<path d="M288.739 186.9C296.3 172.791 300.222 157.08 300.222 140.523C300.222 95.6098 269.194 56.9369 224.584 39.5243C223.932 39.2715 223.277 39.0216 222.622 38.7747C222.622 38.7747 225.32 35.177 233.653 31.9907C227.866 24.5659 211.571 20.9564 199.777 25.627C201.703 4.75478 187.354 3 187.354 3C167.953 26.3384 140.839 32.849 140.839 32.849C140.234 32.9754 139.632 33.1077 139.033 33.2399C83.6472 45.6263 42.7539 88.961 42.7539 140.523C42.7539 157.174 47.02 172.967 54.6596 187.138C46.5972 196 42.0815 205.92 42.0815 216.393C42.0815 253.961 100.16 284.418 171.805 284.418C243.451 284.418 301.529 253.964 301.529 216.393C301.529 205.826 296.934 195.824 288.736 186.903L288.739 186.9Z" stroke="#512E18" stroke-width="4" stroke-miterlimit="10"/>
<path d="M272.6 190.242C282.436 199.46 288.061 210.159 288.061 221.566C288.061 256.221 236.125 284.316 172.061 284.316C107.996 284.316 56.0571 256.221 56.0571 221.566C56.0571 210.197 61.8793 201.447 71.6505 192.252C70.9429 189.948 56.4007 140.144 83.2303 110.865C87.2644 106.462 98.0339 94.7104 115.797 91.483C126.669 89.5078 135.31 91.6065 137.882 92.3031C160.037 98.2846 170.355 118.399 172.278 122.326C174.415 117.517 181.893 102.329 198.849 94.8544C225.685 83.0236 251.437 101.456 253.706 103.137C276.696 120.171 285.093 155.611 272.597 190.242H272.6Z" fill="#FCE5D8"/>
<path opacity="0.15" d="M172.43 285.738H172.401C117.744 285.732 55.1616 256.165 56.3331 219.141C56.3889 217.325 56.6179 215.611 56.9732 213.989C63.6762 247.433 121.475 273.099 172.401 273.105H172.43C223.353 273.099 281.152 247.433 287.858 213.989C288.214 215.611 288.443 217.328 288.498 219.141C289.673 256.165 227.088 285.732 172.43 285.738Z" fill="#231F20"/>
<path d="M272.641 190.489C282.476 199.707 288.102 210.406 288.102 221.814C288.102 256.468 236.166 284.563 172.102 284.563C108.037 284.563 56.0981 256.468 56.0981 221.814C56.0981 210.444 61.9203 201.694 71.6915 192.5C70.9839 190.195 56.4417 140.391 83.2713 111.112C87.3054 106.709 98.0749 94.9575 115.838 91.7301C126.71 89.7548 135.351 91.8535 137.923 92.5501C160.078 98.5317 170.396 118.646 172.319 122.573C174.456 117.764 181.934 102.576 198.89 95.1015C225.726 83.2707 251.478 101.703 253.747 103.385C276.737 120.418 285.134 155.858 272.638 190.489H272.641Z" stroke="#512E18" stroke-width="4" stroke-miterlimit="10"/>
<path d="M161.465 206.16C164.209 205.045 165.61 202.112 164.595 199.609C163.579 197.106 160.532 195.981 157.789 197.096C155.046 198.212 153.645 201.145 154.66 203.647C155.675 206.15 158.722 207.275 161.465 206.16Z" fill="#512D16"/>
<path d="M160.396 198.754C160.396 198.754 165.868 198.68 166.605 208.936" stroke="#512D16" stroke-width="4" stroke-miterlimit="10"/>
<path d="M190.718 202.997C191.71 200.485 190.282 197.565 187.529 196.476C184.775 195.386 181.739 196.539 180.747 199.051C179.755 201.563 181.183 204.483 183.936 205.573C186.69 206.663 189.726 205.51 190.718 202.997Z" fill="#512D16"/>
<path d="M184.932 198.143C184.932 198.143 179.459 198.122 178.819 208.381" stroke="#512D16" stroke-width="4" stroke-miterlimit="10"/>
<path d="M86.1721 209.783C94.0671 209.783 100.468 206.291 100.468 201.985C100.468 197.678 94.0671 194.187 86.1721 194.187C78.2771 194.187 71.8765 197.676 71.8765 201.985C71.8765 206.294 78.2771 209.783 86.1721 209.783Z" fill="#FAC1C0"/>
<path d="M258.692 209.783C266.587 209.783 272.99 206.291 272.99 201.985C272.99 197.678 266.59 194.187 258.692 194.187C250.794 194.187 244.396 197.676 244.396 201.985C244.396 206.294 250.797 209.783 258.692 209.783Z" fill="#FAC1C0"/>
<path d="M128.167 201.209C138.642 201.209 147.136 191.391 147.136 179.278C147.136 167.165 138.642 157.348 128.167 157.348C117.691 157.348 109.197 167.165 109.197 179.278C109.197 191.391 117.691 201.209 128.167 201.209Z" fill="#512E18"/>
<path d="M133.32 180.774C136.737 180.774 139.506 177.265 139.506 172.935C139.506 168.605 136.737 165.096 133.32 165.096C129.902 165.096 127.133 168.605 127.133 172.935C127.133 177.265 129.902 180.774 133.32 180.774Z" fill="white"/>
<g opacity="0.2">
<path d="M121.094 191.973C122.985 191.973 124.52 189.598 124.52 186.668C124.52 183.737 122.988 181.362 121.094 181.362C119.2 181.362 117.667 183.737 117.667 186.668C117.667 189.598 119.2 191.973 121.094 191.973Z" fill="white"/>
</g>
<path d="M217.07 201.209C227.546 201.209 236.04 191.391 236.04 179.278C236.04 167.165 227.546 157.348 217.07 157.348C206.595 157.348 198.101 167.165 198.101 179.278C198.101 191.391 206.595 201.209 217.07 201.209Z" fill="#512E18"/>
<path d="M211.915 180.774C215.332 180.774 218.101 177.265 218.101 172.935C218.101 168.605 215.332 165.096 211.915 165.096C208.497 165.096 205.729 168.605 205.729 172.935C205.729 177.265 208.497 180.774 211.915 180.774Z" fill="white"/>
<g opacity="0.2">
<path d="M224.143 191.973C226.034 191.973 227.57 189.598 227.57 186.668C227.57 183.737 226.037 181.362 224.143 181.362C222.249 181.362 220.717 183.737 220.717 186.668C220.717 189.598 222.249 191.973 224.143 191.973Z" fill="white"/>
</g>
<path d="M201.057 243.847C197.772 246.474 193.89 248.45 189.762 249.878C184.189 251.806 178.162 252.732 172.536 252.917C166.285 253.126 160.525 252.415 156.429 251.139C154.838 250.642 153.185 249.987 151.535 249.199C143.346 245.272 135.38 238.03 136.705 230.734C136.875 229.8 137.198 228.859 137.694 227.93C140.495 222.666 145.736 221.658 149.923 221.831C153.408 221.972 156.162 222.93 156.162 222.93C162.471 224.691 167.392 225.299 171.529 225.349C175.736 225.402 179.133 224.882 182.36 224.412C187.824 223.618 188.332 222.642 194.09 221.71C195.07 221.552 196.207 221.396 197.545 221.24C201.955 220.732 205.854 223.586 207.323 227.81C207.328 227.824 207.331 227.836 207.334 227.848C208.902 232.424 207.622 238.597 201.06 243.844L201.057 243.847Z" fill="#512D16"/>
<path d="M194.451 221.219C194.084 228.7 186.497 234.655 177.242 234.605L167.233 234.552C158.487 234.502 151.314 229.135 150.301 222.236C153.519 222.389 155.997 223.203 155.997 223.203C162.492 224.888 167.504 225.396 171.696 225.349C175.78 225.308 179.086 224.738 182.231 224.223C187.795 223.312 188.17 222.304 194.289 221.246C194.342 221.237 194.398 221.228 194.451 221.219Z" fill="white"/>
<path d="M191.462 249.881C185.889 251.809 179.862 252.735 174.236 252.92C168.17 253.188 162.574 252.576 158.546 251.407C156.808 250.898 154.987 250.207 153.185 249.355C153.202 249.305 153.22 249.252 153.234 249.202C153.798 247.568 154.87 246.107 156.297 244.94C158.467 243.174 161.461 242.08 164.764 242.08H179.729C185.443 242.08 190.22 245.343 191.412 249.708C191.43 249.766 191.447 249.822 191.459 249.881H191.462Z" fill="#FAC0C0"/>
<path d="M201.439 243.326C198.473 245.801 194.988 247.735 191.254 249.193C190.887 249.337 190.517 249.475 190.147 249.61C190.059 249.643 189.97 249.675 189.882 249.705C184.324 251.686 178.308 252.676 172.704 252.92C172.028 252.95 171.362 252.967 170.701 252.976C165.41 253.044 160.592 252.447 157.013 251.404C155.272 250.898 153.455 250.204 151.649 249.355C151.543 249.305 151.432 249.255 151.323 249.202C143.067 245.231 135.219 238.05 136.872 230.737C137.039 229.999 137.301 229.264 137.671 228.527C140.419 223.039 145.886 222.048 150.14 222.228C150.196 222.231 150.249 222.233 150.301 222.236C153.519 222.389 155.997 223.203 155.997 223.203C162.492 224.888 167.504 225.396 171.696 225.349C175.781 225.308 179.087 224.738 182.231 224.223C187.795 223.312 188.171 222.304 194.289 221.246C194.342 221.237 194.398 221.228 194.451 221.219C195.294 221.075 196.245 220.931 197.328 220.787C201.938 220.17 206.084 223.265 207.49 227.809C207.496 227.824 207.499 227.836 207.499 227.851C208.867 232.327 207.569 238.206 201.439 243.326Z" stroke="#512D16" stroke-width="4" stroke-miterlimit="10"/>
</svg>
