<svg width="143" height="144" viewBox="0 0 143 144" fill="none" xmlns="http://www.w3.org/2000/svg">
<g clip-path="url(#clip0_666_858)">
<path d="M134.056 95.915C135.935 94.7709 137.653 93.833 139.121 93.3621C138.967 93.2211 138.791 93.0585 138.596 92.8767C137.848 92.1807 136.821 91.2011 135.702 90.0669C133.475 87.8082 130.85 84.9006 129.367 82.3863C126.486 77.5 124.943 76.0433 122.978 75.0096L121.688 74.3309L123.123 74.0749L123.123 74.0749L123.123 74.0748L123.124 74.0746L123.13 74.0737L123.151 74.0697L123.235 74.0542C123.308 74.0405 123.413 74.0204 123.541 73.9949C123.797 73.9439 124.143 73.8715 124.502 73.786C124.824 73.7096 125.15 73.6242 125.431 73.5358C125.03 73.227 124.476 72.799 123.85 72.3115C122.579 71.3226 121.008 70.0858 119.812 69.102L119.812 69.1019C117.553 67.243 114.622 64.9433 110.562 63.8978C106.561 62.8675 101.405 63.0422 94.6584 66.1914L87.6126 98.6054C87.6568 98.6663 87.7134 98.7427 87.7825 98.8331C87.981 99.0924 88.2825 99.4661 88.6893 99.9151C89.5032 100.813 90.7365 102.012 92.407 103.2C95.7443 105.574 100.829 107.912 107.82 107.741C114.196 107.586 120.624 104.286 126.294 100.815C127.707 99.9504 129.068 99.0784 130.366 98.2454L130.468 98.1803C131.727 97.3721 132.929 96.6007 134.056 95.915Z" fill="url(#paint0_linear_666_858)" stroke="url(#paint1_linear_666_858)"/>
<path d="M97.2012 70.699C97.2012 70.699 101.607 68.3921 106.637 69.1243C110.931 69.749 112.937 71.6657 114.119 73.6305C115.301 75.5953 116.432 78.0698 118.862 78.6837C118.862 78.6837 117.586 79.6982 116.439 79.6471C116.439 79.6471 121.488 83.0635 122.056 89.3933C122.056 89.3933 120.229 90.3329 118.831 91.409C117.433 92.485 112.392 95.0548 111.005 95.6876C111.005 95.6876 113.506 96.3441 113.865 96.9387C113.865 96.9387 111.48 97.7 109.835 99.0239C108.19 100.348 98.8047 104.562 93.453 96.4673C88.1012 88.3724 97.2012 70.699 97.2012 70.699Z" fill="#FFAC48"/>
<path d="M96.6097 97.9307C96.6097 97.9307 96.6344 95.9804 95.2635 94.8701C93.8927 93.7599 92.6666 95.5127 92.6666 95.5127L91.2857 97.9045L92.2932 99.3898L96.6092 97.9309L96.6097 97.9307Z" fill="#B2B2B2"/>
<path d="M102.573 70.4977C102.573 70.4977 101.786 72.283 100.078 72.7263C98.3691 73.1697 97.981 71.0673 97.981 71.0673L97.7176 68.3195L99.2512 67.3844L102.573 70.4977Z" fill="#B2B2B2"/>
<path d="M96.8938 98.5849C97.15 98.474 97.3202 98.2224 97.3238 97.9391C97.325 97.8457 97.3347 95.6287 95.7142 94.3162C95.202 93.9014 94.6192 93.7259 94.029 93.8091C92.909 93.967 92.1649 94.9882 92.0837 95.1038C92.0717 95.121 92.0609 95.1382 92.0505 95.1564L90.6695 97.5482C90.5327 97.7847 90.5434 98.0784 90.6967 98.3046L91.7042 99.79C91.8841 100.055 92.2192 100.168 92.5231 100.065L96.8391 98.6063C96.858 98.5998 96.876 98.5926 96.8942 98.5847L96.8938 98.5849ZM94.0073 95.2848C94.0803 95.2531 94.155 95.2305 94.2299 95.2203C94.3529 95.2036 94.5465 95.2065 94.8152 95.4239C95.5209 95.9956 95.7664 96.8845 95.8519 97.4344L92.5806 98.5404L92.1281 97.8733L93.2664 95.9008C93.3761 95.7558 93.6746 95.4287 94.0073 95.2848Z" fill="#512D16"/>
<g opacity="0.7">
<path d="M71.6297 50.5059C71.6297 50.5059 71.8368 50.6547 72.2088 50.9157L80.4755 34.5069L80.9746 33.517C80.9746 33.517 82.6264 32.3048 85.229 33.0195C87.998 33.7784 96.4529 37.4307 98.9133 39.8585C99.1505 40.0952 99.4624 40.5219 99.7609 40.9728C100.384 41.1615 100.772 41.2804 100.772 41.2804C100.772 41.2804 99.5268 39.0906 98.8517 38.4223C96.3913 35.9946 87.9369 32.342 85.1674 31.5833C82.5648 30.8687 80.913 32.0808 80.913 32.0808L80.4139 33.0707L71.6302 50.5057L71.6297 50.5059Z" fill="white"/>
</g>
<path d="M100.813 73.2258C102.445 72.5195 103.192 70.8633 103.226 70.7855C103.348 70.5085 103.282 70.185 103.061 69.9778L99.7392 66.865C99.5055 66.6456 99.1537 66.6108 98.8801 66.7766L97.3465 67.7117C97.1129 67.8539 96.9815 68.1172 97.0076 68.3887L97.2712 71.137C97.2734 71.1578 97.276 71.1783 97.28 71.1982C97.3054 71.3372 97.5584 72.5748 98.5127 73.1815C99.0153 73.5013 99.619 73.5827 100.257 73.4171C100.453 73.3667 100.638 73.3013 100.813 73.2256L100.813 73.2258ZM101.677 70.6361C101.371 71.1011 100.778 71.8087 99.8987 72.0371C99.5641 72.1237 99.3861 72.0462 99.2818 71.9807C98.9289 71.7587 98.7369 71.1831 98.6873 70.9616L98.4701 68.6963L99.1589 68.2767L101.677 70.6361Z" fill="#512D16"/>
<path d="M93.6519 66.5018C93.6519 66.5018 95.6923 64.6419 96.5885 64.7924C98.0775 65.0428 101.808 68.62 101.808 68.62C101.808 68.62 102.597 70.3867 102.573 70.4988C102.573 70.4988 99.0978 69.1677 99.0227 69.2607C99.512 69.9614 100.564 72.6503 100.712 72.9745C100.712 72.9745 103.164 74.225 103.399 74.5108C103.635 74.7962 105.005 78.2843 103.53 85.068L92.3492 82.6469L93.6515 66.502L93.6519 66.5018Z" fill="#D8D8D8"/>
<g opacity="0.7">
<path d="M92.3494 82.6449L92.6671 82.7144L93.8624 67.9036C93.8624 67.9036 95.9021 66.0422 96.7988 66.1926C98.2887 66.4437 102.018 70.0206 102.018 70.0206C102.018 70.0206 102.077 70.1503 102.16 70.3424C102.414 70.4374 102.572 70.4982 102.572 70.4982C102.597 70.3868 101.809 68.6204 101.809 68.6204C101.809 68.6204 98.0784 65.0411 96.5895 64.7923C95.6928 64.642 93.6521 66.501 93.6521 66.501L92.35 82.6452L92.3494 82.6449Z" fill="white"/>
</g>
<path d="M86.832 97.8788C86.832 97.8788 87.9166 100.415 88.7951 100.649C90.2542 101.037 95.1344 99.3244 95.1344 99.3244C95.1344 99.3244 96.5866 98.043 96.6112 97.9308C96.6112 97.9308 92.896 97.7051 92.8663 97.5891C93.6027 97.154 95.6764 95.1417 95.9455 94.9077C95.9455 94.9077 98.6961 94.7838 99.0286 94.6211C99.3612 94.4584 102.057 91.8511 103.532 85.0674L92.3504 82.6462L86.8325 97.8786L86.832 97.8788Z" fill="#B2B2B2"/>
<path d="M103.814 85.7211C104.017 85.6329 104.177 85.4513 104.228 85.2177C105.766 78.1418 104.303 74.4831 103.951 74.056C103.863 73.9501 103.636 73.6739 101.269 72.4569C101.24 72.3878 101.207 72.3058 101.169 72.2148C100.927 71.6257 100.671 71.0088 100.426 70.4561C101.007 70.6672 101.684 70.92 102.318 71.1633C102.512 71.2378 102.729 71.2232 102.912 71.1252C103.095 71.026 103.226 70.8524 103.271 70.6497C103.325 70.4016 103.345 70.3089 102.459 68.3283C102.422 68.2441 102.369 68.1685 102.302 68.1049C101.653 67.4821 98.3312 64.3616 96.7076 64.089C95.5895 63.9005 93.8624 65.3448 93.1715 65.9746C93.0381 66.0962 92.9556 66.2642 92.9411 66.4444L91.6388 82.5893C91.6101 82.945 91.8495 83.2675 92.1984 83.3429L103.38 85.764C103.531 85.7967 103.682 85.7788 103.813 85.7218L103.814 85.7211ZM102.846 74.9709C103.176 75.6164 104.031 78.7979 102.978 84.2168L93.1107 82.08L94.3398 66.8423C95.1925 66.1049 96.1713 65.4822 96.4798 65.4947C97.3271 65.6379 99.7206 67.6195 101.214 69.0368C101.246 69.111 101.279 69.1863 101.313 69.2619C101.233 69.2325 101.152 69.203 101.072 69.1734C99.0897 68.4486 98.8347 68.3565 98.4678 68.8118C98.2688 69.0588 98.2569 69.4073 98.4385 69.6674C98.7788 70.1543 99.5287 71.9781 99.8493 72.757C99.9536 73.0113 100.03 73.1965 100.064 73.2694C100.13 73.4156 100.245 73.5349 100.388 73.608C101.372 74.1099 102.547 74.7509 102.846 74.9711L102.846 74.9709Z" fill="#512D16"/>
<path d="M98.8027 67.9717C98.3198 66.8821 97.3523 64.0427 95.8788 64.1882C95.4896 64.2488 95.2227 64.6135 95.283 65.0021C95.3435 65.3911 95.7082 65.6575 96.097 65.5971C96.0003 65.607 95.9597 65.5738 95.9674 65.5693C96.3948 65.7511 96.6947 66.2053 97.0109 66.5772C97.4229 67.1112 97.8099 67.6982 98.1629 68.2857C98.3882 68.6547 98.9577 68.3734 98.8025 67.9712L98.8027 67.9717Z" fill="#512D16"/>
<path d="M100.597 74.8924C100.796 76.2602 100.921 77.8579 100.546 79.1653C100.284 80.1501 101.768 80.4751 101.94 79.467C102.132 77.7774 101.762 76.2809 101.288 74.7138C101.146 74.2954 100.517 74.4602 100.597 74.8924Z" fill="#512D16"/>
<path d="M99.0445 72.881L96.6238 73.6839C96.2459 73.8093 96.0415 74.2165 96.1666 74.5941C96.3077 75.044 96.8736 75.232 97.2575 74.9609L99.3613 73.5195C99.7021 73.2848 99.4331 72.7516 99.0445 72.881Z" fill="#512D16"/>
<path d="M95.417 99.9782C95.4857 99.9485 95.5494 99.9084 95.6059 99.8583C97.2338 98.4221 97.2542 98.3294 97.3076 98.081C97.3515 97.8778 97.3049 97.6659 97.1793 97.4996C97.0538 97.3337 96.8618 97.2315 96.6542 97.2186C95.9759 97.1774 95.2552 97.1277 94.6386 97.0798C95.0912 96.6774 95.5803 96.2223 96.0458 95.7864C96.1175 95.7189 96.1817 95.6586 96.2363 95.6082C98.8961 95.4791 99.2186 95.3207 99.341 95.262C99.8385 95.0188 102.69 92.2942 104.227 85.219C104.311 84.8344 104.067 84.4547 103.682 84.3714L92.5008 81.9503C92.152 81.8748 91.8006 82.0691 91.6787 82.4047L86.1606 97.6366C86.0988 97.8065 86.1044 97.9934 86.1751 98.1595C86.5421 99.0181 87.5145 101.047 88.6102 101.339C90.2013 101.761 94.5196 100.296 95.369 99.9979C95.3848 99.9922 95.4003 99.986 95.4162 99.9791L95.417 99.9782ZM94.9505 98.5337C94.8888 98.5889 94.8275 98.6439 94.7663 98.6978C92.8195 99.3704 89.818 100.183 88.9782 99.96C88.7017 99.8458 88.0699 98.8754 87.5998 97.851L92.8073 83.4749L102.674 85.6119C101.382 90.979 99.2832 93.5208 98.7153 93.9719C98.3512 94.0484 97.0167 94.1458 95.9128 94.1958C95.7523 94.2036 95.5983 94.2646 95.4768 94.3702C95.4167 94.4225 95.2699 94.5595 95.0697 94.7471C94.4545 95.3236 93.0142 96.6735 92.5024 96.976C92.2298 97.1373 92.0955 97.4589 92.1737 97.7661C92.3185 98.3342 92.5888 98.3547 94.694 98.5146C94.7795 98.521 94.865 98.5273 94.95 98.5339L94.9505 98.5337Z" fill="#512D16"/>
<path d="M91.6707 98.125C90.8419 98.6827 89.96 99.2537 89.0353 99.5963C88.8516 99.6519 88.7056 99.7116 88.5526 99.6838C88.5473 99.6769 88.5985 99.6633 88.6819 99.7122C88.3526 99.496 87.9105 99.5875 87.6939 99.9168C87.3053 100.558 87.9213 101.114 88.5293 101.065C89.307 101.008 89.919 100.516 90.4996 100.097C91.0815 99.6478 91.6107 99.1747 92.1295 98.6707C92.2709 98.5331 92.2745 98.3068 92.1369 98.1656C92.0114 98.0364 91.8115 98.023 91.6705 98.1257L91.6707 98.125Z" fill="#512D16"/>
<path d="M97.1904 93.5621C98.2727 92.3318 99.2311 91.1237 99.7582 89.5063C99.8738 89.1284 99.6603 88.7286 99.2824 88.6139C98.8653 88.4824 98.4179 88.7713 98.364 89.2046C98.2797 89.8394 98.0282 90.5271 97.7216 91.1862C97.4098 91.8492 97.0342 92.5125 96.6298 93.1226C96.3912 93.4865 96.8948 93.8799 97.19 93.5623L97.1904 93.5621Z" fill="#512D16"/>
<path d="M56.2548 101.739L58.508 119.329C58.508 119.329 60.0877 124.67 63.6976 124.891C67.3072 125.112 83.0506 122.807 83.0506 122.807C83.0506 122.807 74.2605 120.285 69.8143 116.221C65.3681 112.156 65.9622 101.306 65.9622 101.306" fill="#F75252"/>
<path d="M63.6978 124.89C67.3074 125.112 83.0505 122.806 83.0505 122.806C83.0505 122.806 74.2616 120.284 69.8154 116.22C68.0481 114.602 67.0763 111.914 66.5477 109.261C65.7489 105.242 65.9648 101.304 65.9648 101.304L56.2563 101.736L57.1862 108.991L58.5084 119.327C58.5084 119.327 60.0891 124.668 63.6987 124.889L63.6978 124.89Z" fill="#FF2727"/>
<path d="M65.1127 124.886C70.2916 124.675 83.0497 122.807 83.0497 122.807C83.0497 122.807 74.2607 120.286 69.8146 116.221C69.4541 115.89 69.1263 115.517 68.8296 115.107L65.1122 124.886L65.1127 124.886Z" fill="#CC3232"/>
<g opacity="0.2">
<path d="M57.1854 108.994L60.6972 111.109C60.6972 111.109 63.6945 110.18 66.5473 109.263C65.7485 105.244 65.9644 101.306 65.9644 101.306L56.2559 101.738L57.1859 108.993L57.1854 108.994Z" fill="#512D16"/>
</g>
<path d="M94.9426 93.8525L93.6261 91.6705C93.4206 91.33 92.9781 91.2203 92.6374 91.426C92.2291 91.6631 92.1706 92.2559 92.5191 92.5704L94.389 94.3025C94.693 94.5827 95.1544 94.2022 94.9426 93.8525Z" fill="#512D16"/>
<path d="M83.3343 123.459C83.5747 123.355 83.7442 123.125 83.7626 122.853C83.7855 122.518 83.5711 122.213 83.2486 122.12C83.1625 122.095 74.5663 119.596 70.2969 115.694C66.1481 111.901 66.6696 101.448 66.6754 101.343C66.6971 100.95 66.3953 100.614 66.0019 100.593C65.6083 100.572 65.2721 100.873 65.2507 101.266C65.2257 101.723 64.6916 112.503 69.3334 116.746C72.264 119.425 76.9286 121.423 79.9439 122.524C75.2078 123.176 66.2848 124.335 63.7421 124.179C60.8465 124.002 59.3742 119.691 59.2081 119.176L56.9632 101.648C56.9129 101.257 56.556 100.981 56.1652 101.032C55.7751 101.082 55.4979 101.439 55.5482 101.829L57.8013 119.42C57.8063 119.458 57.8138 119.495 57.825 119.531C57.8953 119.769 59.5932 125.354 63.6543 125.603C67.2963 125.825 82.5085 123.606 83.1546 123.511C83.218 123.502 83.2783 123.484 83.3345 123.46L83.3343 123.459Z" fill="#512D16"/>
<path d="M60.3586 102.355L61.1563 122.964C61.1563 122.964 62.156 124.751 64.8217 125.177C67.6572 125.631 76.8679 125.804 80.1151 124.612C81.0085 124.284 83.0504 122.806 83.0504 122.806C83.0504 122.806 77.9336 122.158 74.8373 121.53C71.7412 120.903 70.3975 120.465 70.875 119.273C71.3761 118.023 80.1204 100.66 81.5033 99.3229C82.8857 97.9855 60.3584 102.354 60.3584 102.354L60.3586 102.355Z" fill="#F75252"/>
<path d="M61.1564 122.963C61.1564 122.963 62.1569 124.749 64.8215 125.176C67.6588 125.631 76.8695 125.803 80.1161 124.612C81.0099 124.282 83.0503 122.806 83.0503 122.806C83.0503 122.806 77.9343 122.157 74.8384 121.529C71.7426 120.901 70.3983 120.465 70.8766 119.272C71.1199 118.667 73.3007 114.269 75.6413 109.751C78.1262 104.95 80.7929 100.011 81.5051 99.3219C82.8875 97.9834 60.3598 102.352 60.3598 102.352L60.6971 111.107L61.1562 122.963L61.1564 122.963Z" fill="#FF2727"/>
<g opacity="0.2">
<path d="M60.6974 111.108C66.5415 110.955 71.7634 110.376 75.6413 109.751C78.1262 104.95 80.7929 100.011 81.5051 99.3224C82.8875 97.9838 60.3598 102.353 60.3598 102.353L60.6971 111.108L60.6974 111.108Z" fill="#512D16"/>
</g>
<path d="M80.5236 125.215C81.5221 124.783 83.263 123.531 83.4681 123.383C83.7054 123.211 83.8135 122.912 83.7411 122.629C83.6687 122.345 83.4303 122.135 83.1398 122.098C83.089 122.091 78.0134 121.446 74.979 120.831C74.0094 120.634 71.7396 120.174 71.4984 119.728C71.4857 119.704 71.5015 119.625 71.5364 119.537C72.2196 117.832 80.8068 100.987 81.999 99.8343C82.3421 99.5022 82.3158 99.1012 82.1896 98.8581C81.8765 98.2574 81.6698 97.8603 70.6698 99.7459C65.4786 100.636 60.2749 101.643 60.2227 101.653C59.8779 101.72 59.632 102.029 59.6455 102.381L60.4432 122.99C60.4473 123.103 60.4782 123.213 60.5333 123.311C60.5811 123.396 61.736 125.404 64.7082 125.879C67.6204 126.345 76.9581 126.529 80.3603 125.279C80.412 125.26 80.4665 125.238 80.5232 125.214L80.5236 125.215ZM81.1029 123.264C80.6256 123.566 80.1592 123.836 79.8695 123.942C76.7279 125.096 67.6597 124.909 64.9351 124.473C63.0408 124.17 62.129 123.111 61.8616 122.739L61.095 102.938C68.8894 101.436 77.3717 99.9924 80.2901 99.7948C77.6943 103.866 70.5788 118.096 70.2128 119.008C70.008 119.519 70.0184 119.989 70.2432 120.406C70.7207 121.29 72.0025 121.682 74.6952 122.228C76.6121 122.617 79.3167 123.016 81.1026 123.264L81.1029 123.264Z" fill="#512D16"/>
<path d="M83.5906 101.083C95.2188 94.383 95.961 83.429 95.961 83.429C95.961 83.429 99.8334 73.153 92.0328 62.2433C84.2341 51.3368 59.3089 41.8886 37.261 44.1787C34.7322 44.4416 32.3702 44.9043 30.1687 45.516C26.5299 46.5273 23.3336 47.9516 20.556 49.5614C10.3676 55.4694 5.82028 63.9074 5.82028 63.9074C5.82028 63.9074 6.45359 73.4648 13.2728 83.0564C15.132 85.6708 17.4544 88.29 20.3478 90.7186C22.0951 92.1855 24.0529 93.5812 26.2431 94.8661C45.357 106.073 71.9639 107.785 83.5904 101.082L83.5906 101.083Z" fill="white"/>
<path d="M81.8413 103.018C82.6311 102.676 83.3747 102.305 84.0659 101.906C95.4227 95.3629 96.7683 85.0158 96.8985 83.6324C97.3539 82.3198 100.426 72.3466 92.807 61.6909C88.8509 56.1578 80.6477 50.936 70.3018 47.3641C59.4279 43.6101 47.6593 42.1435 37.1638 43.2335C34.6928 43.4902 32.2543 43.9501 29.9148 44.6004C26.4802 45.5547 23.1714 46.9473 20.0795 48.7393C9.77639 54.7134 5.17381 63.1029 4.98308 63.4575C4.89831 63.6151 4.85934 63.7928 4.87148 63.9712C4.89795 64.3726 5.6019 73.9086 12.498 83.6078C14.5631 86.5123 16.999 89.1497 19.7369 91.4471C21.5846 92.9983 23.6118 94.425 25.762 95.6861C34.8613 101.021 46.181 104.555 57.6353 105.637C67.2561 106.546 75.8913 105.592 81.8408 103.018L81.8413 103.018ZM25.2328 48.2668C26.9192 47.537 28.6535 46.9233 30.4231 46.4318C32.6602 45.8099 34.9936 45.3698 37.3587 45.1241C47.5839 44.0621 59.0625 45.4957 69.6793 49.1608C79.6613 52.6068 87.5266 57.5767 91.2587 62.7966C98.6506 73.135 95.1069 82.9979 95.07 83.096C95.038 83.1817 95.0179 83.2737 95.0118 83.3653C95.0045 83.4683 94.1349 93.9104 83.116 100.259C77.5535 103.466 68.3304 104.737 57.8151 103.743C46.6311 102.687 35.59 99.2432 26.7249 94.0455C24.6663 92.8377 22.7266 91.4735 20.9601 89.9898C18.3457 87.7958 16.0203 85.2777 14.0482 82.5052C8.11069 74.1545 6.96485 65.7314 6.79462 64.1181C7.61846 62.7219 12.1607 55.5277 21.0327 50.3828C22.3915 49.5951 23.7945 48.8881 25.2323 48.2659L25.2328 48.2668Z" fill="#512D16"/>
<path d="M83.591 101.083C95.2193 94.383 95.9615 83.429 95.9615 83.429C95.9615 83.429 99.8339 73.153 92.0333 62.2433C84.2346 51.3368 59.3094 41.8886 37.2615 44.1787C34.7327 44.4416 32.3707 44.9043 30.1692 45.516C26.5304 46.5273 23.3341 47.9516 20.5565 49.5614C10.3681 55.4694 5.82076 63.9074 5.82076 63.9074C5.82076 63.9074 6.45408 73.4648 13.2733 83.0564C15.1325 85.6708 17.4549 88.29 20.3483 90.7186C22.0955 92.1855 24.0534 93.5812 26.2436 94.8661C45.3575 106.073 71.9644 107.785 83.5908 101.082L83.591 101.083Z" fill="white"/>
<path d="M13.2742 83.0571C15.1342 85.6722 17.4539 88.2904 20.3494 90.7186C22.0966 92.1866 24.055 93.581 26.2433 94.8655C45.3575 106.073 71.9652 107.786 83.5911 101.084C89.674 97.5795 92.7788 92.9115 94.354 89.2528C95.7938 85.9219 95.9621 83.4304 95.9621 83.4304C95.9621 83.4304 99.8347 73.1537 92.0349 62.2431C84.2345 51.3379 59.3105 41.8886 37.2617 44.1791C34.733 44.4425 32.3706 44.9054 30.1708 45.5158C26.5302 46.5268 23.335 47.9511 20.5574 49.5621C10.3685 55.4703 5.82207 63.9079 5.82207 63.9079C5.82207 63.9079 6.05175 67.3969 7.74089 72.2759C8.84534 75.469 10.5752 79.2617 13.2744 83.0564L13.2742 83.0571Z" fill="white"/>
<path d="M13.2742 83.0571C15.1342 85.6722 17.4539 88.2904 20.3494 90.7186C22.0966 92.1866 24.055 93.581 26.2433 94.8655C45.3575 106.073 71.9652 107.786 83.5911 101.084C89.674 97.5795 92.7788 92.9115 94.354 89.2528C95.7938 85.9219 95.9621 83.4304 95.9621 83.4304C95.9621 83.4304 99.8347 73.1537 92.0349 62.2431C89.6435 58.9027 85.6473 55.6972 80.6174 52.9243C74.5542 49.5835 66.9905 46.8709 58.934 45.3063C51.8626 43.929 44.4114 43.4386 37.2617 44.1791C34.733 44.4425 32.3706 44.9054 30.1708 45.5158C26.5302 46.5268 23.335 47.9511 20.5574 49.5621C10.3685 55.4703 5.82207 63.9079 5.82207 63.9079C5.82207 63.9079 6.05175 67.3969 7.74089 72.2759C8.84534 75.469 10.5752 79.2617 13.2744 83.0564L13.2742 83.0571Z" fill="white"/>
<g opacity="0.2">
<path d="M13.2737 83.0557C15.1337 85.6708 17.4534 88.289 20.3489 90.7172C22.0961 92.1852 24.0545 93.5796 26.2428 94.8642C45.357 106.072 71.9647 107.784 83.5906 101.083C89.6735 97.5781 92.7783 92.9101 94.3536 89.2514C87.3487 88.4407 79.2908 85.6939 77.7271 77.1043C77.5871 76.3443 55.1481 71.1758 55.1481 71.1758C55.1481 71.1758 49.7676 80.5362 39.3764 78.5528C26.7756 76.1512 3.91937 58.8476 7.74061 72.275C8.84506 75.4681 10.5749 79.2608 13.2741 83.0555L13.2737 83.0557Z" fill="#512D16"/>
</g>
<path d="M60.585 104.904C60.7911 104.918 60.9946 104.928 61.1978 104.936C61.5025 104.952 61.8063 104.965 62.1092 104.977C62.3536 104.985 62.5951 104.992 62.8385 104.998C62.8491 104.998 62.8596 104.999 62.8725 104.998C63.1088 105.005 63.3436 105.01 63.5779 105.011C63.6024 105.014 63.6277 105.013 63.6536 105.012C63.8865 105.018 64.1175 105.019 64.3485 105.019C64.9116 105.022 65.471 105.015 66.0233 105.004C66.2602 105 66.4978 104.993 66.7324 104.985C66.9543 104.977 67.174 104.97 67.394 104.957C67.5393 104.951 67.6822 104.947 67.8265 104.938C68.8305 104.887 69.8132 104.811 70.773 104.712C70.9389 104.694 71.105 104.677 71.2679 104.658C71.4726 104.634 71.6751 104.611 71.8756 104.584C72.0286 104.567 72.182 104.544 72.3314 104.524C72.531 104.5 72.7282 104.472 72.9229 104.441C73.0885 104.417 73.2534 104.391 73.4182 104.365C73.7608 104.312 74.0985 104.254 74.4312 104.19C74.7398 104.137 75.0455 104.077 75.345 104.015C75.5399 103.974 75.7343 103.932 75.9257 103.89C76.1292 103.846 76.3289 103.798 76.5286 103.751C76.7054 103.711 76.8825 103.665 77.0578 103.62C77.1312 103.604 77.2023 103.584 77.2748 103.565C77.6128 103.478 77.9461 103.386 78.2722 103.289C78.6492 103.177 79.0186 103.062 79.3798 102.939C79.561 102.879 79.7411 102.816 79.9161 102.754C80.0934 102.69 80.2693 102.624 80.4413 102.56C81.5825 102.125 82.6367 101.633 83.5903 101.083C84.3001 100.675 84.9658 100.249 85.5957 99.8137C85.6188 99.7957 85.6409 99.781 85.6655 99.7652C85.9766 99.5502 86.2752 99.3303 86.5657 99.1088C86.5734 99.1026 86.5836 99.0959 86.5912 99.0897C86.7392 98.9767 86.8837 98.8622 87.0263 98.7486C87.1732 98.6331 87.3169 98.5168 87.4577 98.3988C87.6003 98.2801 87.7392 98.1629 87.8767 98.0441C88.0142 97.9253 88.1468 97.8058 88.2813 97.6854C88.4135 97.566 88.5437 97.4475 88.6696 97.3257C88.7988 97.2048 88.9258 97.0854 89.0487 96.962C89.1704 96.8421 89.2944 96.7211 89.4117 96.5979C89.652 96.3565 89.8796 96.1109 90.1021 95.864C90.2121 95.7411 90.32 95.6197 90.4273 95.4957C90.5316 95.3781 90.6311 95.2598 90.7317 95.1387C90.7433 95.1234 90.7534 95.1111 90.7661 95.0982C90.8588 94.9828 90.9521 94.87 91.0431 94.7558C91.2292 94.5276 91.4087 94.2948 91.578 94.0636C91.5896 94.0483 91.6013 94.033 91.6105 94.0187C91.7025 93.8962 91.7915 93.7721 91.8781 93.6491C92.1424 93.2838 92.3854 92.9169 92.6133 92.5519C92.6904 92.4307 92.7649 92.3101 92.8377 92.1908C92.9113 92.0682 92.9822 91.9497 93.0524 91.8309C93.1571 91.6482 93.259 91.4695 93.3561 91.2929C93.4047 91.2074 93.4507 91.1225 93.4939 91.0365C93.628 90.7897 93.7524 90.5442 93.8689 90.3045C93.9288 90.1856 93.9857 90.0652 94.041 89.9477C94.0946 89.8315 94.1475 89.7151 94.2011 89.5989C94.2547 89.4828 94.3057 89.3672 94.3535 89.2507C91.2055 88.8862 87.8475 88.1312 84.9599 86.6314C78.4312 102.542 61.1402 104.833 60.5848 104.903L60.585 104.904Z" fill="#CC3232"/>
<path d="M8.72944 74.8586C9.80457 77.4273 11.2736 80.2402 13.2747 83.0561C13.5069 83.3828 13.7471 83.7111 13.9946 84.0363C14.1114 84.1928 14.234 84.3496 14.357 84.5085C14.6016 84.8218 14.8503 85.1339 15.1089 85.444C15.1869 85.5398 15.2657 85.6323 15.3456 85.7271C15.3617 85.7458 15.3775 85.7652 15.3936 85.784C15.3997 85.7916 15.4046 85.7974 15.4126 85.8042C18.7219 89.7027 23.9673 91.4123 28.9 90.0515C34.4384 88.5221 38.924 84.7684 41.7241 78.8214C40.9718 78.7951 40.1905 78.7083 39.3767 78.5529C26.7811 76.1514 3.93505 58.8594 7.73709 72.2609C7.75489 72.3205 7.77509 72.379 7.79873 72.439C7.86225 72.6213 7.92956 72.8072 7.99578 72.9958C8.03116 73.0895 8.06633 73.1826 8.10275 73.2786C8.13655 73.3752 8.17193 73.4688 8.21055 73.5633C8.23449 73.6305 8.2614 73.6993 8.28879 73.7678C8.33726 73.8917 8.38573 74.0156 8.43524 74.1419C8.48746 74.2744 8.54181 74.4066 8.59747 74.5405C8.64039 74.6462 8.68377 74.7518 8.72992 74.8584L8.72944 74.8586Z" fill="#E5E5E5"/>
<path d="M81.8413 103.018C82.6311 102.676 83.3747 102.305 84.0659 101.906C95.4227 95.3629 96.7683 85.0158 96.8985 83.6324C97.3539 82.3198 100.426 72.3466 92.807 61.6909C88.8509 56.1578 80.6477 50.936 70.3018 47.3641C59.4279 43.6101 47.6593 42.1435 37.1638 43.2335C34.6928 43.4902 32.2543 43.9501 29.9148 44.6004C26.4802 45.5547 23.1714 46.9473 20.0795 48.7393C9.77639 54.7134 5.17381 63.1029 4.98308 63.4575C4.89831 63.6151 4.85934 63.7928 4.87148 63.9712C4.89795 64.3726 5.6019 73.9086 12.498 83.6078C14.5631 86.5123 16.999 89.1497 19.7369 91.4471C21.5846 92.9983 23.6118 94.425 25.762 95.6861C34.8613 101.021 46.181 104.555 57.6353 105.637C67.2561 106.546 75.8913 105.592 81.8408 103.018L81.8413 103.018ZM25.2328 48.2668C26.9192 47.537 28.6535 46.9233 30.4231 46.4318C32.6602 45.8099 34.9936 45.3698 37.3587 45.1241C47.5839 44.0621 59.0625 45.4957 69.6793 49.1608C79.6613 52.6068 87.5266 57.5767 91.2587 62.7966C98.6506 73.135 95.1069 82.9979 95.07 83.096C95.038 83.1817 95.0179 83.2737 95.0118 83.3653C95.0045 83.4683 94.1349 93.9104 83.116 100.259C77.5535 103.466 68.3304 104.737 57.8151 103.743C46.6311 102.687 35.59 99.2432 26.7249 94.0455C24.6663 92.8377 22.7266 91.4735 20.9601 89.9898C18.3457 87.7958 16.0203 85.2777 14.0482 82.5052C8.11069 74.1545 6.96485 65.7314 6.79462 64.1181C7.61846 62.7219 12.1607 55.5277 21.0327 50.3828C22.3915 49.5951 23.7945 48.8881 25.2323 48.2659L25.2328 48.2668Z" fill="#512D16"/>
<path d="M60.5763 104.904C69.9352 105.436 78.3106 104.126 83.591 101.081C95.2199 94.3806 95.9612 83.4282 95.9612 83.4282C95.9612 83.4282 99.8347 73.1523 92.0338 62.2433C88.492 57.2865 81.4136 52.6353 72.676 49.2462C73.0026 49.4459 91.0968 60.6122 86.5779 81.3947C82.0581 102.192 60.9267 104.86 60.5766 104.904L60.5763 104.904Z" fill="#FF2727"/>
<g opacity="0.7">
<path d="M92.2307 65.0245C95.197 69.1724 96.4754 73.2278 96.9202 76.6624C96.8712 72.7588 95.8469 67.5789 92.034 62.2462C88.4918 57.2885 81.4132 52.6368 72.6765 49.2485C72.8097 49.3282 75.8742 51.2197 79.1635 54.832C84.972 57.7937 89.5882 61.324 92.231 65.0239L92.2307 65.0245Z" fill="white"/>
</g>
<g opacity="0.2">
<path d="M60.5809 104.906C60.7879 104.917 60.9929 104.93 61.1981 104.937C61.5028 104.952 61.8066 104.966 62.1095 104.977C62.3539 104.986 62.5954 104.992 62.8388 104.998C62.8493 104.999 62.8599 104.999 62.8728 104.999C63.1091 105.006 63.3439 105.01 63.5782 105.012C63.6027 105.014 63.628 105.014 63.6539 105.013C63.8868 105.018 64.1178 105.019 64.3488 105.02C64.9119 105.022 65.4713 105.016 66.0236 105.005C66.2605 105.001 66.4981 104.993 66.7327 104.985C66.9546 104.977 67.1743 104.97 67.3943 104.958C67.5396 104.952 67.6825 104.947 67.8268 104.939C68.8308 104.888 69.8134 104.812 70.7732 104.713C70.9391 104.695 71.1052 104.678 71.2682 104.659C71.4729 104.634 71.6754 104.612 71.8759 104.584C72.0288 104.567 72.1823 104.545 72.3317 104.525C72.5313 104.5 72.7285 104.472 72.9232 104.442C73.0888 104.417 73.2537 104.392 73.4185 104.365C73.7611 104.313 74.0988 104.254 74.4315 104.191C74.7401 104.138 75.0458 104.078 75.3453 104.015C75.5401 103.975 75.7346 103.932 75.926 103.891C76.1295 103.847 76.3292 103.799 76.5289 103.751C76.7057 103.711 76.8828 103.665 77.0581 103.621C77.1315 103.605 77.2025 103.584 77.2751 103.566C77.6122 103.477 77.9455 103.385 78.2724 103.289C78.6495 103.178 79.0188 103.062 79.3801 102.939C79.5613 102.879 79.7414 102.817 79.9164 102.754C80.0937 102.69 80.2696 102.625 80.4416 102.56C81.5839 102.123 82.6378 101.63 83.5898 101.082C84.2971 100.675 84.9663 100.25 85.5962 99.8147C85.6193 99.7967 85.6414 99.782 85.666 99.7662C85.9743 99.5501 86.2757 99.3313 86.5662 99.1097C86.5738 99.1036 86.5841 99.0969 86.5917 99.0907C86.7397 98.9776 86.8842 98.8632 87.0268 98.7496C87.1737 98.6341 87.3174 98.5177 87.4582 98.3998C87.6008 98.281 87.7397 98.1639 87.8772 98.0451C88.0147 97.9263 88.1473 97.8067 88.2818 97.6863C88.414 97.567 88.5442 97.4485 88.6701 97.3267C88.7993 97.2058 88.9263 97.0864 89.0492 96.963C89.1708 96.8431 89.2949 96.7221 89.4122 96.5989C89.6516 96.3555 89.8801 96.1118 90.1026 95.865C90.2126 95.7421 90.3205 95.6207 90.4278 95.4967C90.5311 95.3767 90.6308 95.2589 90.7322 95.1397C90.7438 95.1244 90.7539 95.1121 90.7666 95.0992C90.8593 94.9837 90.9526 94.8709 91.0436 94.7568C91.2288 94.5267 91.4057 94.2944 91.5785 94.0645C91.5901 94.0492 91.6018 94.0339 91.611 94.0197C91.703 93.8972 91.792 93.7731 91.8786 93.6501C92.1418 93.2824 92.385 92.9159 92.6138 92.5529C92.6909 92.4317 92.7654 92.3111 92.8382 92.1917C92.9118 92.0692 92.9827 91.9507 93.0529 91.8319C93.1576 91.6492 93.2595 91.4705 93.3565 91.2939C93.4052 91.2084 93.4512 91.1235 93.4944 91.0375C93.6285 90.7907 93.7529 90.5452 93.8694 90.3054C93.9293 90.1866 93.9862 90.0661 94.0415 89.9487C94.097 89.8317 94.1504 89.715 94.2016 89.5999C94.2552 89.4838 94.3062 89.3682 94.354 89.2517C91.206 88.8871 87.8479 88.1322 84.9603 86.6324C78.4317 102.543 61.1406 104.834 60.5853 104.904L60.5809 104.906Z" fill="#512D16"/>
</g>
<path d="M81.8078 103.033C82.6092 102.686 83.362 102.31 84.065 101.905C95.4228 95.3612 96.7674 85.0157 96.898 83.6321C97.3537 82.3188 100.426 72.3461 92.8074 61.6914C89.2023 56.6463 82.1754 51.9123 73.0205 48.361C72.5615 48.1827 72.0427 48.3845 71.8239 48.8259C71.6049 49.2668 71.7593 49.8017 72.1793 50.0585C72.3662 50.1726 76.7997 52.9168 80.6786 58.1685C85.7932 65.0925 87.465 72.8397 85.6483 81.1949C81.3123 101.148 61.3093 103.856 60.4594 103.962C59.9716 104.023 59.6094 104.445 59.6257 104.937C59.642 105.428 60.0306 105.826 60.5214 105.854C69.0423 106.338 76.4757 105.341 81.8085 103.034L81.8078 103.033ZM78.7382 53.0069C84.3774 55.9176 88.7887 59.3398 91.2587 62.7973C98.6515 73.1353 95.1064 82.9976 95.0697 83.0962C95.0377 83.1819 95.0176 83.2739 95.0116 83.3655C95.0042 83.4684 94.1352 93.9093 83.1155 100.259C79.4339 102.382 74.01 103.672 67.6857 103.99C74.5921 101.387 84.5242 95.3208 87.5066 81.5969C89.4175 72.8091 87.5853 64.3169 82.2088 57.038C81.0645 55.4887 79.87 54.1436 78.7387 53.0067L78.7382 53.0069Z" fill="#512D16"/>
<path d="M61.6361 91.3302L63.9684 91.8356L64.0455 91.4812C69.1212 91.0497 73.9466 85.9748 75.4647 78.9897C76.9836 72.0025 74.6992 65.3879 70.2587 62.8954L70.3359 62.5409L68.0036 62.0355C62.1238 60.7619 55.9304 66.288 54.1719 74.378C52.414 82.4655 55.7556 90.0564 61.6359 91.3298L61.6361 91.3302Z" fill="#FF2727"/>
<path d="M67.2322 91.3907C71.4285 89.5747 74.8968 84.9593 76.1609 79.1415C77.681 72.1492 75.5835 65.4189 71.0487 62.5384C71.0476 62.2115 70.82 61.9176 70.4867 61.8452L68.1544 61.3398C61.8993 59.9851 55.3136 65.7665 53.4744 74.2279C51.6355 82.6875 55.2292 90.6723 61.484 92.0277L63.8163 92.5331C64.1496 92.6056 64.4787 92.4323 64.6153 92.1348C65.5086 92.0094 66.3856 91.7571 67.2317 91.3909L67.2322 91.3907ZM69.5769 63.1075C69.6296 63.278 69.7459 63.4267 69.9088 63.5182C74.1375 65.8919 76.1806 72.3355 74.7672 78.8396C73.3537 85.3425 68.8191 90.3612 63.9848 90.7715C63.7982 90.7872 63.631 90.8744 63.5124 91.0079L61.7867 90.634C56.3 89.4458 53.1965 82.2218 54.8683 74.5303C56.5407 66.8374 62.3647 61.5459 67.8513 62.7336L69.5767 63.107L69.5769 63.1075Z" fill="#512D16"/>
<path d="M64.5971 91.4683C58.717 90.1952 55.3754 82.6055 57.1333 74.5162C58.8912 66.4268 65.0831 60.9012 70.9631 62.1743C76.8431 63.4474 80.1848 71.0372 78.4268 79.1265C76.6689 87.2158 70.4771 92.7415 64.5971 91.4683Z" fill="#D8D8D8"/>
<path d="M63.9923 91.7196C69.8733 92.9932 76.064 87.4689 77.8228 79.3782C78.5008 76.2629 78.4205 73.222 77.732 70.5891C76.7894 66.9867 74.7062 64.1419 71.8537 62.9092C71.3778 62.7012 70.8775 62.5396 70.3597 62.4272C64.4787 61.1535 58.288 66.6779 56.5292 74.7686C54.7694 82.8569 58.1119 90.4485 63.992 91.7203L63.9923 91.7196Z" fill="#FF2727"/>
<path d="M69.4956 91.9039C73.651 90.1055 77.217 85.522 78.4947 79.6459C79.3771 75.5878 79.0536 71.5138 77.5837 68.1755C76.0795 64.759 73.5589 62.5113 70.486 61.8457C67.4132 61.18 64.1859 62.1831 61.3987 64.6702C58.6749 67.1008 56.689 70.6743 55.807 74.7322C53.968 83.1929 57.5606 91.1777 63.8157 92.5324C65.7263 92.9459 67.6681 92.6942 69.4959 91.9032L69.4956 91.9039ZM65.347 63.7782C66.944 63.0871 68.5944 62.8953 70.1826 63.239C72.7975 63.8052 74.962 65.7628 76.2771 68.7501C77.6265 71.8155 77.9189 75.5773 77.1002 79.3437C75.4279 87.0354 69.6041 92.3274 64.1183 91.1388C58.6321 89.9503 55.5291 82.7261 57.2007 75.0341C58.0194 71.2677 59.8474 67.965 62.3483 65.733C63.3048 64.8793 64.3147 64.2244 65.3468 63.7777L65.347 63.7782Z" fill="#512D16"/>
<path d="M64.3674 87.7712C64.6171 87.8616 64.877 87.9373 65.1415 87.9945C66.2766 88.2407 67.4269 88.137 68.5296 87.7441C69.315 87.467 70.0745 87.0419 70.7881 86.4884C72.5298 85.1399 73.9886 83.036 74.8238 80.4818C74.9807 80.0004 75.1169 79.504 75.2279 78.994C76.5098 73.0933 74.0738 67.5593 69.7852 66.6299C69.4491 66.5575 69.1113 66.5155 68.7746 66.5038C66.7971 66.4237 64.8254 67.3426 63.2019 68.9588C62.5356 69.6218 61.9291 70.4016 61.4035 71.2775C60.6407 72.5458 60.0489 74.0178 59.6986 75.6299C59.6305 75.9474 59.5716 76.2649 59.5234 76.5783C58.7397 81.7508 60.7844 86.4583 64.3669 87.7702L64.3674 87.7712Z" fill="#30AAFC"/>
<path d="M69.2638 88.2279C70.1373 87.8499 70.9868 87.3003 71.7867 86.5863C73.8031 84.7869 75.2728 82.144 75.9247 79.1449C76.5766 76.1459 76.3366 73.133 75.2481 70.6613C74.1259 68.1118 72.2396 66.4331 69.9367 65.9349C67.6334 65.4358 65.2205 66.1829 63.1405 68.0394C61.1241 69.8388 59.6542 72.4813 59.0023 75.4803C58.3505 78.4793 58.5904 81.4922 59.6789 83.9639C60.8009 86.5129 62.6877 88.1915 64.9903 88.6903C66.4072 88.997 67.8666 88.832 69.2636 88.2274L69.2638 88.2279ZM66.2236 67.7106C67.3518 67.2223 68.515 67.0863 69.6329 67.3285C71.4777 67.7283 73.0079 69.1158 73.9416 71.2364C74.9095 73.4347 75.118 76.1361 74.53 78.8434C73.9418 81.5503 72.6299 83.9225 70.8362 85.5228C69.1065 87.0664 67.1373 87.6967 65.2925 87.2969C63.4479 86.8975 61.9175 85.5096 60.9837 83.389C60.0159 81.1907 59.8072 78.4888 60.3954 75.7819C60.9841 73.0748 62.2955 70.7029 64.0891 69.1026C64.7706 68.4945 65.4898 68.0276 66.2234 67.7102L66.2236 67.7106Z" fill="#512D16"/>
<path d="M65.1426 87.9937C69.4303 88.9224 73.9446 84.8923 75.2263 78.995C76.5088 73.0956 74.0736 67.5608 69.7859 66.6321C69.4837 66.5667 69.1805 66.5257 68.8758 66.5099C72.6094 67.9572 74.6291 73.1255 73.4371 78.6076C72.246 84.0876 68.2621 87.956 64.2631 87.7287C64.5471 87.8402 64.8399 87.9285 65.1422 87.9939L65.1426 87.9937Z" fill="#FF2727"/>
<path d="M69.1254 87.9252C72.117 86.6306 74.6877 83.3201 75.6104 79.0769C76.2483 76.1432 76.0153 73.2004 74.9546 70.7902C73.8751 68.3368 72.0692 66.7237 69.8692 66.2471C69.5482 66.1779 69.221 66.1341 68.8966 66.1165C68.7039 66.1064 68.5324 66.2377 68.4919 66.4263C68.4514 66.6149 68.5537 66.8051 68.7339 66.8748C72.3366 68.2715 74.1938 73.2792 73.054 78.5231C71.914 83.7665 68.1452 87.5555 64.2869 87.3353C64.0944 87.3245 63.922 87.455 63.8808 87.6433C63.8396 87.8317 63.9409 88.0223 64.1209 88.0926C64.4235 88.2115 64.7393 88.3069 65.0604 88.3761C66.4275 88.6719 67.8173 88.4913 69.1264 87.9248L69.1254 87.9252ZM71.2915 67.6277C72.5233 68.335 73.5404 69.5271 74.2353 71.1066C75.2298 73.3663 75.4452 76.1378 74.8427 78.9107C73.7803 83.7978 70.4346 87.3683 66.9306 87.7071C70.1167 86.5467 72.8624 83.1 73.8212 78.6895C74.7807 74.2765 73.7124 70.0024 71.2915 67.6277Z" fill="#512D16"/>
<path d="M15.393 85.7848C18.7023 89.6952 23.9575 91.4142 28.8995 90.0511C36.2817 88.0146 41.7924 82.0255 43.9365 72.1609C45.7742 63.7053 43.593 56.1209 39.3379 51.162C35.4733 46.6581 29.0666 45.3896 23.692 47.9174C22.5927 48.4342 21.5482 48.9855 20.5565 49.56C10.3681 55.468 5.82076 63.906 5.82076 63.906C5.82076 63.906 6.45408 73.4634 13.2733 83.055C13.9219 83.9668 14.6268 84.8794 15.3923 85.7845L15.393 85.7848Z" fill="#FF2727"/>
<g opacity="0.5">
<path d="M32.4409 50.9069C31.5361 49.3794 28.5901 48.9645 24.8948 50.3042C20.1256 52.0334 11.8259 59.3909 13.1227 60.6268C15.1528 62.5615 33.3459 52.4337 32.4409 50.9069Z" fill="white"/>
</g>
<g opacity="0.2">
<path d="M8.72895 74.8581C9.80408 77.4269 11.2731 80.2397 13.2742 83.0556C13.5064 83.3823 13.7466 83.7106 13.9941 84.0358C14.1109 84.1923 14.2335 84.3491 14.3565 84.508C14.6012 84.8213 14.8498 85.1335 15.1084 85.4436C15.1864 85.5393 15.2652 85.6318 15.3451 85.7267C15.3612 85.7454 15.377 85.7648 15.3931 85.7835C15.3992 85.7911 15.4041 85.797 15.4122 85.8037C18.7214 89.7022 23.9668 91.4118 28.8995 90.051C34.4379 88.5216 38.9235 84.768 41.7236 78.8209C40.9713 78.7946 40.1901 78.7078 39.3762 78.5525C26.7806 76.1509 3.93457 58.8589 7.7366 72.2604C7.7544 72.32 7.7746 72.3785 7.79824 72.4385C7.86259 72.6228 7.92715 72.8076 7.9953 72.9953C8.03068 73.089 8.06584 73.1821 8.10226 73.2781C8.13607 73.3747 8.17144 73.4683 8.21006 73.5628C8.234 73.63 8.26091 73.6988 8.2883 73.7673C8.33677 73.8912 8.38524 74.0151 8.43476 74.1414C8.48697 74.2739 8.54133 74.4061 8.59699 74.54C8.6399 74.6457 8.68328 74.7513 8.72943 74.8579L8.72895 74.8581Z" fill="#512D16"/>
</g>
<path d="M31.8435 90.0214C38.4079 87.1806 42.9849 81.0149 44.8655 72.3628C46.6268 64.2596 44.8304 56.1032 40.0599 50.5439C35.9659 45.7725 29.0728 44.3403 23.2875 47.0585C22.2021 47.5693 21.123 48.1343 20.08 48.7391C9.77694 54.7132 5.17435 63.1028 4.98363 63.4573C4.89886 63.6149 4.85989 63.7926 4.87202 63.971C4.8985 64.3724 5.60245 73.9084 12.4985 83.6076C13.1795 84.5653 13.9091 85.5047 14.6663 86.3998C18.236 90.6179 23.9216 92.4107 29.1516 90.968C30.0817 90.7115 30.9801 90.3951 31.843 90.0216L31.8435 90.0214ZM24.454 48.617C29.3873 46.4821 35.1599 47.7547 38.6157 51.782C43.0007 56.8922 44.6426 64.4357 43.007 71.9604C41.0077 81.156 36.0434 87.0952 28.6466 89.1351C24.129 90.3813 19.2119 88.8251 16.1191 85.1711C15.3961 84.3166 14.6995 83.4193 14.0492 82.5048C8.11171 74.1541 6.96587 65.731 6.79586 64.1182C7.61969 62.722 12.1619 55.5277 21.0339 50.3828C22.0299 49.8052 23.0606 49.2656 24.0967 48.7779C24.2152 48.7221 24.3346 48.6681 24.4538 48.6165L24.454 48.617Z" fill="#512D16"/>
<path d="M60.859 105.559C61.06 105.472 61.2183 105.295 61.2712 105.065C61.3596 104.681 61.1205 104.299 60.7365 104.211C60.5582 104.169 60.3667 104.199 60.2093 104.292C59.87 104.491 59.7568 104.929 59.9573 105.268C60.0996 105.51 60.3628 105.637 60.6252 105.617C60.7067 105.611 60.7862 105.591 60.8592 105.56L60.859 105.559Z" fill="#512D16"/>
<path d="M97.4679 89.9275C98.7311 90.0595 124.297 91.6758 124.858 89.6882C125.173 87.6448 101.235 78.5404 100.031 78.1378C98.8238 77.735 87.2981 75.3803 87.2981 75.3803L87.2974 75.3828C87.2616 77.2889 87.0359 79.2931 86.5783 81.3983C86.1215 83.5013 85.4937 85.4206 84.7358 87.1681L84.7351 87.1707C84.7351 87.1707 96.202 89.7956 97.4677 89.9282L97.4679 89.9275Z" fill="#FF2727"/>
<g opacity="0.7">
<path d="M87.2337 76.8241C89.6742 77.3266 98.2896 79.105 99.3249 79.4491C100.382 79.8021 120.089 86.7941 124.705 89.8866C124.788 89.8252 124.839 89.7587 124.858 89.6882C125.174 87.6461 101.236 78.5417 100.03 78.139C98.8237 77.7344 87.298 75.3796 87.298 75.3796L87.2966 75.3831C87.2871 75.8583 87.267 76.338 87.2337 76.8241Z" fill="white"/>
</g>
<path d="M84.7343 87.17C84.7343 87.17 96.2034 89.795 97.4678 89.9259C98.7298 90.0578 124.296 91.6749 124.858 89.6866C124.867 89.6287 124.856 89.563 124.826 89.4933C119.475 90.1315 99.2837 87.2968 98.1764 87.1806C97.0332 87.0594 87.5523 84.9045 85.7447 84.4931C85.4416 85.4267 85.1033 86.3162 84.7356 87.1665L84.7343 87.17Z" fill="#CC3232"/>
<path d="M124.748 90.676C125.248 90.4596 125.456 90.1948 125.544 89.881C125.552 89.8531 125.558 89.8248 125.563 89.796C125.681 89.0292 125.071 88.2349 121.609 86.4445C119.614 85.4127 116.816 84.1331 113.292 82.641C107.171 80.0485 100.902 77.6773 100.257 77.4615C99.023 77.0498 87.9128 74.7782 87.4406 74.6814C87.2541 74.6435 87.061 74.6814 86.9022 74.7866C86.7441 74.8921 86.6344 75.0565 86.5975 75.243C86.5894 75.2836 86.5845 75.3279 86.5836 75.3693C86.5474 77.2904 86.3113 79.2677 85.8808 81.2471C85.45 83.2283 84.8444 85.1248 84.0806 86.884C84.0561 86.9408 84.039 87.0001 84.03 87.061C83.9738 87.4298 84.2116 87.7814 84.5753 87.8647C85.0453 87.9721 96.0994 90.5007 97.3926 90.6363C98.0694 90.7072 104.76 91.1424 111.406 91.3149C115.232 91.4145 118.31 91.4075 120.554 91.2942C122.811 91.1805 124.058 90.9742 124.748 90.6757L124.748 90.676ZM87.9822 76.248C91.6143 76.9939 98.9214 78.519 99.8039 78.8134C100.386 79.0076 106.219 81.2132 112.099 83.6851C120.662 87.2855 123.159 88.8651 123.886 89.4772C122.97 89.733 120.042 90.1374 110.754 89.8709C104.378 89.6881 98.1524 89.282 97.5423 89.2187C96.6155 89.1214 89.3334 87.4868 85.7186 86.6633C86.3659 85.0453 86.8887 83.3294 87.2753 81.5493C87.662 79.7708 87.8993 77.9914 87.9824 76.2485L87.9822 76.248Z" fill="#512D16"/>
<path d="M100.172 80.625C98.7922 82.4117 97.9954 85.0349 98.1648 87.2862C99.5498 85.5023 100.335 82.8759 100.172 80.625Z" fill="#512D16"/>
<path opacity="0.15" d="M42.6349 32.4134C42.6349 32.4134 39.1342 36.2116 44.8984 42.2448C44.4793 42.8775 44.7818 43.3993 44.8092 43.473C42.7941 42.7484 40.833 44.7561 41.8987 46.3173C41.5331 46.3649 40.862 47.7698 41.5665 48.6139C41.3773 48.8242 41.1551 49.276 41.3034 50.1397C41.46 51.0526 42.405 51.834 43.1731 52.2224C44.696 52.9925 46.2333 53.0348 47.3092 52.9285C48.0936 54.2635 50.2212 57.4537 54.2988 59.1725C61.7243 62.3025 68.7158 57.6433 69.2666 57.2631C69.5962 57.6206 70.001 57.9823 70.4953 58.3037C72.8184 59.8135 75.4605 59.358 76.3501 59.162C75.8247 59.9241 74.8133 61.6226 74.7018 63.9748C74.521 67.7797 76.8336 70.3613 77.319 70.8807C76.8446 71.4303 76.7276 72.1991 77.0211 72.8368C77.3534 73.5598 78.153 73.986 78.9757 73.8624C78.7852 73.6224 78.5705 73.2771 78.4562 72.8273C78.0909 71.39 79.0816 70.1701 79.2238 70.0009C77.4379 68.1312 76.4741 66.1 76.5803 63.3378C76.6865 60.5759 78.5467 58.2967 79.9841 57.7095C76.9574 58.0706 73.3407 58.4636 69.3612 56.2066C65.1778 58.462 63.1041 59.2511 58.626 58.4814C54.148 57.7116 49.9243 56.1088 48.4981 52.0583C46.8872 52.2262 43.6076 51.5701 42.5305 50.4008C41.4533 49.2316 42.8907 46.5752 42.8907 46.5752C42.184 45.9052 42.2648 45.2832 42.846 44.7101C43.619 43.9481 46.0303 44.7124 45.8708 44.6095C45.5533 43.6664 45.4652 43.1675 46.5314 42.7556C47.5977 42.3438 52.1343 48.6873 52.1343 48.6873L54.324 47.3736C54.324 47.3736 50.443 45.4544 50.032 45.1794C49.6209 44.9049 44.0463 41.2048 42.9487 37.563C41.8512 33.9213 42.6357 32.4121 42.6357 32.4121L42.6349 32.4134Z" fill="#231F20"/>
<path d="M84.7711 66.6997C84.7711 66.6997 83.0839 66.5597 81.549 67.5649C80.014 68.5701 78.6602 70.4798 78.4757 71.8986C78.2913 73.3174 79.1561 74.177 79.8312 74.3242C80.5064 74.4714 80.5911 74.1092 80.5911 74.1092C80.9921 74.8893 81.2824 75.4377 81.8667 75.4155C82.451 75.3933 82.685 74.7002 82.685 74.7002C83.4476 75.2128 83.885 75.3617 84.294 74.9837C84.6138 74.7702 84.4063 74.6185 84.4063 74.6185C85.294 75.1383 86.1511 75.1201 86.4184 74.3894C86.7081 73.6102 85.8705 72.8456 85.8737 72.1745C85.877 71.5034 86.1497 71.0162 86.3082 70.7242C86.4671 70.4317 87.0208 69.7442 86.8978 68.8618C86.7749 67.9794 86.2849 67.2284 85.8908 67.0726C85.4966 66.9169 84.7716 66.6997 84.7716 66.6997L84.7711 66.6997Z" fill="#FCE5D8"/>
<path opacity="0.15" d="M85.8654 67.2637C85.8654 67.2637 87.175 68.7079 85.091 71.0783C83.007 73.4488 79.6796 71.522 79.6796 71.522C79.3329 72.4716 79.2784 73.7505 80.0593 74.4031C79.0433 73.9482 78.7947 73.7479 78.6686 73.4292C78.5426 73.1106 78.1238 71.7218 79.2232 70.004C80.6279 70.6579 81.4245 71.1123 82.8011 70.9713C84.1776 70.8303 85.4289 69.6489 85.8654 67.2637Z" fill="#231F20"/>
<path d="M84.2805 66.6391C84.2805 66.6391 86.7111 66.7747 86.8848 68.6358C86.9925 69.8689 86.5627 70.3021 86.2966 70.7538C86.0305 71.2054 85.4905 71.8517 86.3313 73.4124C87.1724 74.9732 84.5458 76.057 83.5998 73.356" stroke="#512D16" stroke-linecap="round" stroke-linejoin="round"/>
<path d="M84.4057 74.618C84.4057 74.618 84.3626 75.4097 83.6587 75.2676C82.9543 75.1261 82.4732 74.6509 81.9944 73.4991" stroke="#512D16" stroke-linecap="round" stroke-linejoin="round"/>
<path d="M82.6842 74.6996C82.6842 74.6996 82.5886 75.3914 81.8659 75.4148C81.1432 75.4383 80.5039 74.3613 80.4001 73.2678" stroke="#512D16" stroke-linecap="round" stroke-linejoin="round"/>
<path d="M80.5997 74.1448C80.5997 74.1448 80.4396 74.5247 79.7346 74.3601C79.0295 74.1955 77.3061 72.7785 79.5867 69.536C81.8672 66.2929 84.5583 66.6718 84.5583 66.6718" stroke="#512D16" stroke-linejoin="round"/>
<path d="M88.7414 54.4367C88.7414 54.4367 103.283 64.6308 111.943 48.8291C115.468 42.4553 114.417 28.7394 118.768 26.6514C121.255 25.5032 123.42 30.2923 126.957 26.3373C130.493 22.3822 122.332 13.2988 114.994 18.758C107.657 24.2172 110.078 35.242 108.372 42.3576C106.665 49.4731 99.2602 54.8083 88.0775 50.0429C87.9535 50.1098 88.7414 54.4372 88.7414 54.4372L88.7414 54.4367Z" fill="#F6BD60"/>
<path opacity="0.15" d="M88.7415 54.4373C88.7415 54.4373 103.283 64.6318 111.943 48.8301C112.772 47.3314 113.348 45.4273 113.8 43.3638C113.489 44.3225 113.128 45.2065 112.699 45.9819C104.039 61.7836 89.4978 51.5895 89.4978 51.5895C89.4978 51.5895 89.4164 51.1425 89.3104 50.5336C88.9048 50.3841 88.4942 50.2208 88.0781 50.0435C87.9536 50.1104 88.7415 54.4373 88.7415 54.4373Z" fill="#231F20"/>
<path opacity="0.2" d="M109.497 30.5943C110.109 26.7298 111.432 23.128 114.747 20.6619C120.631 16.2838 127.046 21.2583 127.531 25.4403C129.358 21.1845 121.82 13.68 114.995 18.758C111.14 21.6254 109.979 26.0287 109.497 30.5943Z" fill="white"/>
<path d="M88.7414 54.4367C88.7414 54.4367 103.283 64.6308 111.943 48.8291C115.468 42.4553 114.417 28.7394 118.768 26.6514C121.255 25.5032 123.42 30.2923 126.957 26.3373C130.493 22.3822 122.332 13.2988 114.994 18.758C107.657 24.2172 110.078 35.242 108.372 42.3576C106.665 49.4731 99.2602 54.8083 88.0775 50.0429C87.9535 50.1098 88.7414 54.4372 88.7414 54.4372L88.7414 54.4367Z" stroke="#512D16" stroke-linejoin="round"/>
<path d="M95.7484 36.6017C95.7484 36.6017 93.4571 46.1934 93.8394 49.728C91.0644 49.1817 87.8916 46.2669 87.3979 44.7274C88.7394 40.6351 89.7198 37.7029 90.4286 35.5864C92.0751 30.6727 92.2603 30.1545 92.1076 29.7178C95.2041 35.0638 95.7484 36.6017 95.7484 36.6017Z" fill="#CEE5BA"/>
<path d="M98.9065 36.3542C98.9065 36.3542 92.138 47.2062 89.1766 48.8515C87.6633 45.4487 87.3035 43.6619 85.5722 42.2094C93.0661 33.6319 94.607 32.6538 94.348 32.1271C94.089 31.6003 98.9065 36.3537 98.9065 36.3537L98.9065 36.3542Z" fill="#CEE5BA"/>
<path d="M94.2723 31.228C94.2723 31.228 89.3346 41.3711 87.3459 43.0319C89.2416 44.6221 92.0092 47.7436 92.4246 48.6055C94.8575 45.5674 99.4426 38.2371 99.4644 37.3622C99.4861 36.4873 94.2723 31.228 94.2723 31.228Z" fill="#CEE5BA"/>
<path d="M99.3486 33.5767C99.3486 33.5767 89.1811 34.5066 85.086 38.112C80.5057 33.814 80.6191 30.7017 80.6811 28.9995C86.1634 28.2001 94.1776 26.5455 96.1377 25.5136C98.1616 29.7264 99.3486 33.5767 99.3486 33.5767Z" fill="#CEE5BA"/>
<path d="M91.7877 43.3715C91.0229 43.0147 90.8122 41.848 91.3169 40.7658C91.8219 39.6835 92.8511 39.0953 93.6159 39.4519C94.3806 39.8085 94.5914 40.9751 94.0865 42.0574C93.5818 43.1399 92.5526 43.728 91.7877 43.3715Z" fill="#90C696"/>
<path d="M85.7521 33.8467C85.435 33.0646 86.0751 32.067 87.1818 31.6182C88.2886 31.1693 89.443 31.4394 89.7601 32.2212C90.0772 33.0033 89.4372 34.0011 88.3304 34.45C87.2236 34.8986 86.0694 34.6288 85.7521 33.8467Z" fill="#90C696"/>
<path d="M93.6546 35.333C93.6546 35.333 89.8331 42.291 89.0652 42.7725C90.9883 44.3661 92.2285 46.5337 92.2285 46.5337C93.8921 45.0389 94.747 44.4631 94.747 44.4631C94.0064 45.933 94.0149 46.5577 93.667 46.994C93.319 47.4303 92.4254 48.6485 92.4254 48.6485C92.4254 48.6485 88.7469 43.8976 87.4197 43.1463C88.3313 41.8892 91.5631 37.1557 92.4119 34.836C93.0062 34.6665 93.2333 34.6118 93.2333 34.6118L93.6542 35.3334L93.6546 35.333Z" fill="#90C696"/>
<path d="M92.3247 33.434L88.3284 34.4533L89.1341 35.6087L93.2259 34.3406L92.3247 33.434Z" fill="#90C696"/>
<path d="M90.1384 48.2182L89.277 46.9158L88.4572 47.1646L89.0709 48.8533L90.1384 48.2182Z" fill="#90C696"/>
<path d="M87.8757 43.975C87.8757 43.975 86.8463 42.3906 87.0741 41.7476C85.8193 42.4268 85.7413 42.5076 85.7413 42.5076L86.7502 43.5209L87.475 44.9297L87.8761 43.975L87.8757 43.975Z" fill="#90C696"/>
<path d="M93.8801 47.131C93.6714 47.4667 93.4403 47.6391 93.2248 47.7275C91.9966 48.2316 89.8831 46.5846 87.901 43.6887C87.5938 44.3005 87.6925 45.0196 87.6925 45.0196C87.6925 45.0196 89.3066 47.8455 92.0835 49.1053C93.3384 49.6258 93.8933 49.7686 93.8933 49.7686C93.8889 48.8894 93.8845 48.0102 93.8806 47.1309L93.8801 47.131Z" fill="#90C696"/>
<path d="M87.964 43.4847C87.8131 43.955 87.7439 44.2949 87.5934 44.7648C88.0769 46.3046 91.1802 49.2215 93.8932 49.7697C93.9278 48.675 93.9624 47.5803 93.997 46.4856" stroke="#512D16" stroke-miterlimit="10"/>
<path d="M90.3345 36.876C89.098 38.2239 87.5929 39.8963 85.5727 42.2085C87.304 43.661 87.6638 45.4479 89.1771 48.8507C89.5881 48.5807 89.999 48.3104 90.41 48.0405" stroke="#512D16" stroke-miterlimit="10"/>
<path d="M92.541 34.6936C90.9214 37.8014 88.5737 42.051 87.3474 43.0753C89.2431 44.6655 92.0106 47.787 92.426 48.649C94.859 45.6109 99.4441 38.2806 99.4658 37.4057C99.4876 36.5308 94.2737 31.2714 94.2737 31.2714" stroke="#512D16" stroke-miterlimit="10"/>
<path d="M99.3486 33.5767C99.3486 33.5767 89.1811 34.5066 85.086 38.112C80.5057 33.814 80.6191 30.7017 80.6811 28.9995C86.1634 28.2001 94.1776 26.5455 96.1377 25.5136C98.1616 29.7264 99.3486 33.5767 99.3486 33.5767Z" stroke="#512D16" stroke-miterlimit="10"/>
<path d="M84.5359 28.3474C84.5359 28.3474 90.7329 29.9438 93.8515 35.6806C95.5198 38.6769 95.1278 41.3163 95.1278 41.3163C95.3698 42.3599 95.1256 44.679 93.5007 46.5156C101.544 46.6367 108.799 43.3145 109.635 41.4497C110.471 39.5848 110.897 36.3258 110.557 33.8082C106.89 25.6125 104.675 20.3434 98.0896 19.4768C93.8492 19.024 91.9744 22.8429 89.1332 25.2515C86.2919 27.66 84.5359 28.3474 84.5359 28.3474Z" fill="#BDE0FE"/>
<path opacity="0.2" d="M84.5357 28.3481C84.5357 28.3481 85.8743 28.693 87.6207 29.6385C88.4158 29.1673 89.5755 28.3891 91.0132 27.1705C93.8545 24.7623 95.7292 20.943 99.9696 21.3962C102.074 21.6734 103.733 22.4001 105.134 23.5283C103.356 21.2916 101.215 19.8891 98.0898 19.4775C93.849 19.0247 91.9742 22.8436 89.133 25.2522C86.2921 27.6603 84.5357 28.3481 84.5357 28.3481Z" fill="white"/>
<path opacity="0.15" d="M93.5008 46.5172C101.544 46.6383 108.799 43.316 109.635 41.4512C110.403 39.7389 110.824 36.8519 110.625 34.442C110.59 36.4578 110.198 38.5616 109.588 39.9228C108.789 41.7042 102.129 44.8178 94.5198 44.9846C94.2666 45.5074 93.9323 46.0293 93.5008 46.5172Z" fill="#231F20"/>
<path d="M84.5359 28.3474C84.5359 28.3474 90.7329 29.9438 93.8515 35.6806C95.5198 38.6769 95.1278 41.3163 95.1278 41.3163C95.3698 42.3599 95.1256 44.679 93.5007 46.5156C101.544 46.6367 108.799 43.3145 109.635 41.4497C110.471 39.5848 110.897 36.3258 110.557 33.8082C106.89 25.6125 104.675 20.3434 98.0896 19.4768C93.8492 19.024 91.9744 22.8429 89.1332 25.2515C86.2919 27.66 84.5359 28.3474 84.5359 28.3474Z" stroke="#512D16" stroke-miterlimit="10"/>
<path d="M110.599 33.8071C110.599 33.8071 107.852 40.0058 95.0267 41.4798" stroke="#512D16" stroke-miterlimit="10"/>
<path d="M106.727 32.2606C106.968 28.3017 100.973 22.8086 98.4404 22.1833C95.3952 21.8719 91.5747 26.8458 91.5195 27.8274C91.4644 28.8089 93.4783 29.8762 95.3963 32.331C97.3142 34.7858 96.6577 36.6485 99.2235 37.3048C101.789 37.9611 106.486 36.2194 106.727 32.2606Z" fill="#512D16"/>
<path d="M97.1121 28.0204C97.0988 27.9384 97.0668 27.8601 97.0165 27.7856C96.9674 27.7128 96.91 27.6679 96.8443 27.6507C96.7767 27.6345 96.693 27.6566 96.5933 27.7166L95.2604 28.5119L96.37 27.1172C96.4306 27.0392 96.4331 26.9589 96.3771 26.876C96.3435 26.8298 96.3111 26.8035 96.2798 26.7974C96.2488 26.7913 96.2089 26.7962 96.1601 26.8117L94.4409 27.3026L95.671 26.366C95.7613 26.2952 95.8184 26.2283 95.8423 26.1654C95.8658 26.1052 95.8507 26.0354 95.7971 25.9559C95.7433 25.8762 95.6624 25.8273 95.5542 25.8093C95.5415 25.8892 95.4922 25.962 95.4058 26.0275L94.177 27.0042C94.1668 27.0111 94.1557 27.0185 94.1438 27.0265C94.0643 27.0803 93.9894 27.106 93.9191 27.1041C93.9355 27.2706 93.9902 27.4231 94.0839 27.5619C94.1775 27.7007 94.2763 27.7759 94.3799 27.7872C94.4847 27.8002 94.6301 27.7748 94.816 27.711L95.6819 27.4224L95.0994 28.1034C94.9549 28.2725 94.878 28.4142 94.869 28.5286C94.8594 28.6459 94.8952 28.7645 94.9762 28.8847C95.0583 29.0066 95.1472 29.0982 95.2428 29.1594C95.273 29.0946 95.3253 29.0372 95.3998 28.9869C95.4151 28.9767 95.4324 28.9661 95.4523 28.9553L96.819 28.1442C96.9398 28.0676 97.0373 28.0265 97.1121 28.0204Z" fill="white"/>
<path d="M97.7207 29.3488C97.8211 29.4978 97.8259 29.6472 97.7349 29.7972C97.6604 29.9164 97.5426 30.0303 97.3817 30.1388C97.3462 30.1629 97.3084 30.1871 97.2683 30.2117C97.0469 30.3438 96.8455 30.4155 96.6637 30.4273C96.4821 30.439 96.3409 30.3705 96.2405 30.2215C96.0669 29.9642 96.1825 29.699 96.587 29.4263C96.9272 29.1967 97.2151 29.1086 97.4504 29.1617C97.5632 29.1866 97.6533 29.2488 97.7207 29.3488ZM96.741 30.8923C96.8724 30.8972 97.0051 30.8767 97.1392 30.8307C97.2725 30.7876 97.4087 30.7191 97.5475 30.6256C97.6846 30.533 97.7989 30.4325 97.8908 30.3239C97.9836 30.2168 98.0531 30.101 98.0995 29.9762C98.1458 29.8512 98.1559 29.7165 98.1295 29.5716C98.1045 29.4286 98.0423 29.2833 97.9428 29.136C97.7533 28.855 97.5222 28.7043 97.2498 28.6837C96.9767 28.6658 96.698 28.753 96.4137 28.9447C96.1293 29.1366 95.9451 29.3619 95.861 29.6205C95.778 29.8808 95.8312 30.1514 96.0207 30.4325C96.1214 30.5813 96.2333 30.6944 96.3564 30.7714C96.4798 30.8481 96.608 30.8885 96.741 30.8923Z" fill="white"/>
<path d="M99.0799 31.3639C99.1805 31.5127 99.1853 31.6623 99.0943 31.8123C99.0195 31.9315 98.9018 32.0455 98.7411 32.1539C98.7056 32.1778 98.6678 32.2022 98.6276 32.2266C98.4063 32.3587 98.2049 32.4307 98.0231 32.4424C97.8415 32.4542 97.7003 32.3854 97.5999 32.2364C97.4262 31.9793 97.5419 31.7142 97.9464 31.4413C98.2866 31.2119 98.5744 31.1236 98.8098 31.1766C98.9226 31.2015 99.0127 31.2639 99.0799 31.3639ZM98.1004 32.9074C98.2318 32.9123 98.3645 32.8919 98.4986 32.8458C98.6319 32.8025 98.768 32.7342 98.9068 32.6405C99.044 32.5481 99.1582 32.4475 99.2501 32.3388C99.3429 32.232 99.4125 32.1161 99.4589 31.9911C99.5051 31.8664 99.5153 31.7314 99.4889 31.5868C99.4638 31.4435 99.4015 31.2985 99.3021 31.1511C99.1127 30.8702 98.8816 30.7194 98.6091 30.6988C98.3361 30.681 98.0574 30.7679 97.7731 30.9598C97.4886 31.1515 97.3044 31.3768 97.2203 31.6354C97.1374 31.8959 97.1906 32.1665 97.3801 32.4474C97.4805 32.5965 97.5924 32.7093 97.7158 32.7863C97.8391 32.8632 97.9673 32.9036 98.1004 32.9074Z" fill="white"/>
<path d="M99.8682 32.6421L98.5327 33.543C98.4446 33.6024 98.3674 33.6139 98.3009 33.5774C98.2693 33.6874 98.2946 33.8034 98.3768 33.9252C98.4772 34.0743 98.6323 34.1432 98.8418 34.1325L100.477 34.0489L99.3754 34.7921C99.2873 34.8514 99.2101 34.863 99.1436 34.8264C99.112 34.9365 99.1275 35.038 99.1902 35.1311C99.3045 35.3006 99.4614 35.3177 99.6611 35.1829L100.994 34.2838C101.091 34.2189 101.174 34.1863 101.243 34.1865C101.256 34.1011 101.229 34.0082 101.162 33.9085C101.095 33.8085 101.006 33.7405 100.895 33.7043C100.783 33.6694 100.625 33.6563 100.422 33.6653L99.1081 33.7386L100.151 33.0347C100.243 32.9731 100.321 32.9597 100.387 32.9945C100.416 32.8809 100.401 32.7802 100.342 32.6923C100.282 32.6043 100.214 32.5565 100.138 32.5491C100.061 32.5414 99.9716 32.5725 99.8682 32.6421Z" fill="white"/>
<path d="M98.6 27.022C98.7426 26.9256 98.8311 26.7959 98.8653 26.6323C98.8987 26.473 98.8758 26.2963 98.7966 26.1021C98.9489 26.2619 99.129 26.375 99.337 26.4417C99.4434 26.4734 99.5559 26.4806 99.6741 26.4637C99.7915 26.451 99.9037 26.4086 100.011 26.3365C100.25 26.1749 100.37 25.9275 100.372 25.5941C100.37 25.2625 100.244 24.9112 99.9943 24.5406C99.7441 24.1697 99.5066 23.9329 99.2812 23.8297C99.0554 23.7309 98.8214 23.763 98.5795 23.9262L96.9941 24.9956C96.8184 25.1141 96.6551 25.1742 96.5046 25.1761C96.6171 25.6285 96.8011 26.044 97.0562 26.4224C97.3115 26.8009 97.5755 27.0329 97.8483 27.1187C98.1228 27.207 98.3734 27.1748 98.6 27.022ZM98.2903 25.6234C98.3913 25.7733 98.435 25.9174 98.4211 26.0561C98.4045 26.1965 98.3378 26.3064 98.2207 26.3854C98.1009 26.4662 97.9733 26.4856 97.8378 26.444C97.7014 26.4066 97.5784 26.3067 97.4688 26.1441C97.3608 25.9842 97.2858 25.8372 97.2435 25.703L97.9961 25.1955L98.28 25.6082C98.2833 25.6132 98.2869 25.6182 98.2903 25.6234ZM99.0351 24.4946C99.1854 24.3933 99.3692 24.504 99.5868 24.8264C99.7171 25.0194 99.7795 25.1971 99.7742 25.3596C99.769 25.5221 99.7014 25.647 99.5714 25.7347C99.4416 25.8224 99.3004 25.8381 99.1477 25.7822C98.9926 25.728 98.8499 25.6043 98.7196 25.4113L98.3933 24.9275L99.0351 24.4946Z" fill="white"/>
<path d="M100.814 27.7908L101.215 28.3852L100.046 28.7693L100.814 27.7908ZM102.655 28.9547C102.701 28.8794 102.72 28.7913 102.71 28.6902C102.701 28.5933 102.663 28.4955 102.596 28.3963C102.529 28.2974 102.45 28.2323 102.359 28.2014C102.265 28.1724 102.137 28.1754 101.975 28.2104L101.677 28.2788L101.094 27.4139L101.297 27.1384C101.455 26.9282 101.477 26.738 101.362 26.5677C101.307 26.4865 101.237 26.4211 101.152 26.3716C101.066 26.3261 100.987 26.311 100.916 26.3258C100.927 26.381 100.922 26.4363 100.9 26.4918C100.877 26.5515 100.833 26.6291 100.768 26.7248L99.2738 28.8688C99.1436 28.8901 99.0415 28.8868 98.9674 28.8593C98.8982 29.0205 98.9194 29.1837 99.0307 29.3487C99.1162 29.4756 99.2131 29.5453 99.3213 29.5573C99.4295 29.5693 99.595 29.5483 99.8179 29.494L102.127 28.9288C102.352 28.8729 102.528 28.8815 102.655 28.9547Z" fill="white"/>
<path d="M103.653 32.3609L104.696 31.6575C104.834 31.5649 104.952 31.5457 105.052 31.6004C105.096 31.4301 105.074 31.2787 104.985 31.1468C104.896 31.0147 104.794 30.943 104.679 30.9319C104.564 30.9207 104.429 30.9676 104.273 31.0723L104.067 31.2116C104.166 30.9344 104.112 30.6436 103.906 30.3389C103.708 30.0442 103.417 29.8445 103.036 29.7399C102.851 29.691 102.643 29.6887 102.414 29.7326C102.186 29.7792 101.961 29.8772 101.739 30.0268C101.281 30.3358 100.998 30.7188 100.891 31.1754C100.783 31.636 100.893 32.109 101.22 32.594C101.404 32.8657 101.616 33.059 101.856 33.1739C102.098 33.2915 102.298 33.2969 102.456 33.1905C102.548 33.1286 102.596 33.033 102.602 32.9037C102.607 32.7788 102.572 32.6616 102.498 32.5525C102.425 32.4431 102.332 32.3635 102.22 32.313C102.196 32.3329 102.173 32.3505 102.15 32.3659C102.036 32.4431 101.917 32.4755 101.793 32.4627C101.67 32.4498 101.563 32.3775 101.474 32.2454C101.318 32.0143 101.294 31.7644 101.402 31.4958C101.51 31.2163 101.724 30.9681 102.045 30.7517C102.366 30.5354 102.66 30.4331 102.928 30.4449C103.192 30.4583 103.405 30.5845 103.566 30.8232C103.791 31.1559 103.749 31.4262 103.441 31.634L103.261 31.7552L103.179 31.6333C103.09 31.5012 103.012 31.38 102.945 31.27C102.848 31.269 102.756 31.2976 102.669 31.356C102.58 31.4161 102.549 31.5018 102.576 31.613C102.6 31.726 102.685 31.8904 102.831 32.1062C102.977 32.3222 103.109 32.4449 103.23 32.4749C103.351 32.5071 103.493 32.4691 103.653 32.3609Z" fill="white"/>
<path d="M80.2136 57.6337C72.5549 63.0312 78.4873 69.8661 80.191 70.5041C81.6823 71.062 85.2955 72.0564 85.89 67.0719C86.4744 60.0052 92.7797 60.1323 90.2176 51.4537C87.6551 42.7747 70.5746 43.0316 70.1835 43.116C70.1835 43.116 65.9281 43.6316 64.8172 44.8645C63.7063 46.097 61.814 52.7475 70.811 57.0664C74.8319 58.7411 80.2136 57.6337 80.2136 57.6337Z" fill="#F6BD60"/>
<path d="M67.771 55.2363C68.6099 55.8756 69.6143 56.4915 70.8112 57.0662C74.3168 58.5257 78.8552 57.8724 79.9622 57.6804C79.9804 57.6772 79.9974 57.6742 80.0135 57.6715C79.4687 55.6215 75.6747 54.2744 71.207 54.6201C69.9744 54.7159 68.8123 54.9308 67.771 55.2363Z" fill="#FCE5D8"/>
<path opacity="0.2" d="M76.509 64.3224C76.5436 65.452 76.8388 66.52 77.3426 67.4844C77.3435 67.4865 77.3448 67.4886 77.3458 67.4907C77.8775 68.5054 78.64 69.4048 79.5739 70.1392C79.5739 70.1392 79.5743 70.1394 79.5747 70.14C79.8183 70.3175 80.0317 70.4409 80.1914 70.5054C81.0244 70.8412 82.5413 71.2923 83.8128 70.7267C80.328 69.6253 77.8025 66.7537 77.6969 63.3103C77.6335 61.243 78.4534 59.328 79.8569 57.8437C79.8986 57.7994 79.9411 57.7555 79.9841 57.712C79.8282 57.8237 79.6762 57.9391 79.5286 58.0595C78.1485 59.1801 77.1537 60.6545 76.7314 62.3081C76.5655 62.9556 76.4878 63.6303 76.509 64.3224Z" fill="white"/>
<path opacity="0.2" d="M84.1785 45.4103C85.8192 46.5358 87.4679 48.532 88.6735 51.0563C89.885 53.5929 90.4003 56.1426 90.2367 58.1304C91.1954 56.2265 91.0884 53.3217 89.7617 50.5441C88.4391 47.7749 86.2568 45.8689 84.1785 45.4103Z" fill="white"/>
<path d="M80.2134 57.6343C80.2134 57.6343 80.213 57.6343 80.2125 57.6347C80.1509 57.6686 80.0898 57.7033 80.03 57.7387C80.0107 57.7496 79.9914 57.7608 79.9726 57.772C79.9312 57.7967 79.8898 57.8219 79.8492 57.847C78.5494 58.6558 77.6312 59.7674 77.0992 61.092C76.699 62.0867 76.5167 63.2008 76.5533 64.3965C76.6222 66.6442 77.7071 68.6368 79.3824 69.9977" stroke="#512D16" stroke-linejoin="round"/>
<path d="M80.2138 57.6334C80.2138 57.6334 80.2134 57.6334 80.213 57.6338C80.2041 57.6358 80.1347 57.6494 80.0135 57.671C79.9974 57.6736 79.9804 57.6767 79.9622 57.6798C78.8552 57.8718 74.3168 58.5252 70.8112 57.0657C69.6143 56.491 68.6099 55.8751 67.771 55.2358C67.5494 55.0675 67.3392 54.8971 67.1406 54.7255C62.4291 50.6633 63.8932 45.8894 64.8174 44.8637C65.9287 43.6312 70.1838 43.1157 70.1838 43.1157C80.1146 42.5126 88.2521 45.8533 90.1496 51.1572C90.6771 52.6322 90.9548 54.9094 90.5665 57.1694C89.83 61.4541 86.5571 61.4871 85.8907 67.0715C85.6314 69.2446 84.7955 70.2884 83.8127 70.725C82.5413 71.2906 81.0243 70.8395 80.1913 70.5037C80.0317 70.4392 79.8183 70.3158 79.5746 70.1383L79.5738 70.1375C79.331 69.9609 79.0572 69.7299 78.7768 69.4505" stroke="#512D16" stroke-linecap="round" stroke-linejoin="round"/>
<path d="M56.9305 47.4669L68.7573 49.4774L64.4937 51.8508L54.1718 51.6649L52.228 47.813L52.7024 47.4159C54.1694 47.0838 56.9305 47.4669 56.9305 47.4669Z" fill="#F6BD60"/>
<path opacity="0.15" d="M59.3023 52.5744C55.4531 51.9528 52.5808 49.9138 52.8864 48.0205C53.1922 46.1272 56.5605 45.0963 60.4099 45.7179C64.259 46.3395 67.1313 48.3782 66.8257 50.2715C66.5199 52.165 63.1516 53.196 59.3023 52.5744Z" fill="#231F20"/>
<path d="M64.493 51.8493L54.1711 51.6634L52.2274 47.8116L52.7018 47.4145C54.1688 47.0823 56.9299 47.4655 56.9299 47.4655" stroke="#512D16" stroke-linejoin="round"/>
<path d="M65.9388 49.4895C62.8389 51.7875 56.3667 49.2457 54.3423 48.0718C52.3183 46.8979 49.0936 46.8894 48.3294 48.2561C47.5652 49.6228 47.9483 55.0916 54.5242 57.5229C66.0844 61.2521 71.2502 54.4846 71.2502 54.4846L65.9383 49.489L65.9388 49.4895Z" fill="#F6BD60"/>
<path opacity="0.2" d="M49.0377 53.2043C50.5655 55.5948 53.7568 57.5577 57.6945 58.3244C58.094 58.4021 58.5008 58.4676 58.9144 58.5201C61.0808 58.7941 63.158 58.6746 64.9843 58.2386C66.8437 57.7947 68.4433 57.0231 69.6127 56.0048C68.4822 56.8477 66.7525 57.8222 64.3796 58.318C63.1512 58.4528 61.8536 58.4466 60.5238 58.2782C54.0217 57.455 49.221 53.0751 49.8004 48.4958C49.8536 48.0766 49.9498 47.6702 50.0861 47.2788C49.4158 47.3875 48.8522 47.6268 48.5123 48.0032C48.3044 48.4633 48.1646 48.9481 48.1004 49.4545C48.0719 49.6773 48.0591 49.9001 48.0608 50.122C48.0691 51.1856 48.4152 52.2303 49.0377 53.2043Z" fill="white"/>
<path d="M65.9388 49.4894C62.8385 51.787 56.3663 49.2452 54.3423 48.0717C53.0939 47.3478 51.3887 47.0669 50.086 47.279C49.4157 47.3877 48.8521 47.627 48.5121 48.0034C48.4408 48.0818 48.3799 48.1659 48.3294 48.2561C48.123 48.6254 48 49.2946 48.0607 50.1222C48.1271 51.0225 48.4097 52.1101 49.0376 53.2045C49.9688 54.8268 51.6585 56.4634 54.5242 57.5229C55.64 57.8827 56.6966 58.1447 57.6944 58.3246C60.3215 58.7983 62.543 58.7017 64.3795 58.3182C66.7524 57.8224 68.4821 56.8479 69.6126 56.005C70.7181 55.1817 71.2502 54.4846 71.2502 54.4846" stroke="#512D16" stroke-linecap="round" stroke-linejoin="round"/>
<path d="M48.7726 52.4925C47.6466 52.0961 48.1725 52.1157 46.6549 51.7805C44.113 51.2202 41.8081 50.4423 42.3802 48.4326C42.0194 47.6065 42.303 46.878 42.8346 46.5553C42.4213 45.9251 42.431 45.2675 42.7728 44.8566C42.9256 44.6729 43.1085 44.5922 43.3156 44.506C43.4659 44.4434 44.1651 44.172 45.1559 44.447C46.0614 44.698 46.5539 45.2238 46.6386 45.1315C46.7577 45.0018 45.6097 44.1495 45.8037 43.4766C45.9528 42.9595 46.8738 42.6205 47.631 42.7297C48.537 42.8605 48.721 43.5616 50.1943 44.7495C50.3212 44.8521 50.8564 46.3305 51.182 46.7321C51.3433 46.9308 51.141 46.5413 51.182 46.7321C51.3813 47.6647 51.398 48.5062 51.1165 49.6159C50.9394 50.3145 50.5015 50.6377 48.7726 52.4925Z" fill="#FCE5D8"/>
<path opacity="0.15" d="M46.6185 42.9634C46.5532 43.0205 46.4696 43.1129 46.4413 43.2419C46.3066 43.8559 47.6474 44.3524 47.6047 45.1558C47.5949 45.3425 47.5124 45.5406 47.3231 45.7508C46.8007 46.3302 45.1991 45.1579 44.0393 45.5289C43.2977 45.7666 43.3062 46.5347 43.7514 47.2884C43.0204 47.4013 42.8884 48.2888 43.2497 49.1149C43.1445 49.4872 42.991 50.1573 43.0652 50.4512C42.4321 49.957 42.13 49.3135 42.3806 48.4319C42.0197 47.6058 42.3033 46.8772 42.835 46.5546C42.4216 45.9243 42.4314 45.2672 42.7732 44.8564C42.9438 44.6509 43.1544 44.5639 43.3165 44.5052C44.4003 44.1121 45.255 44.9028 45.7244 44.5566C45.9019 44.4258 46.0675 44.1009 45.8918 43.1882C46.1343 43.1134 46.3769 43.0382 46.6195 42.9634L46.6185 42.9634Z" fill="#231F20"/>
<path d="M42.555 46.3324C42.1798 46.6581 41.8926 47.1116 41.8634 47.6367C41.8423 48.7962 43.0067 49.5413 44.017 49.7174C44.2289 49.7581 44.4555 49.778 44.6716 49.7769C44.7797 49.7799 44.8889 49.769 44.996 49.7619C44.7873 49.7039 44.5831 49.648 44.3862 49.5735C43.4676 49.2526 42.0915 48.3076 42.6743 47.2084C42.7536 47.053 42.86 46.9033 42.979 46.7536L42.5545 46.3324L42.555 46.3324Z" fill="#512E18"/>
<path d="M42.0694 48.4523C41.1854 50.5598 43.9873 51.5868 45.5443 52.0444C47.41 52.5752 47.8335 52.5868 48.6901 52.8592C48.6901 52.8592 51.1091 51.4766 51.591 49.5661C51.9324 48.2125 51.6034 47.3375 51.6034 47.3375C51.1092 46.0188 50.2961 44.3458 49.4139 43.544C48.7587 42.9721 47.9779 42.2987 47.0664 42.2291C45.3916 42.1836 45.0271 43.7215 45.8817 44.9227L46.2954 44.4265C45.6099 44.1277 44.8832 43.918 44.1226 43.915C42.9048 43.9059 41.9814 44.5671 42.2673 45.8789C42.4211 46.4655 42.8772 46.9423 43.3917 47.2275C43.7112 47.4039 44.0377 47.5431 44.376 47.6714C44.7127 47.7931 45.0514 47.9144 45.4078 47.9696C45.0003 47.7027 44.4989 47.3552 44.0894 47.0878C43.8633 46.9343 43.6392 46.7933 43.4376 46.6143C43.0788 46.2792 42.7537 45.8307 42.8317 45.3196C42.8912 44.6911 43.5892 44.5449 44.1195 44.5564C44.7705 44.5674 45.4242 44.7676 46.0201 45.0387L47.1144 45.5385L46.4338 44.5425C46.2531 44.2786 46.1351 43.9729 46.1235 43.6881C46.0978 43.2355 46.3765 42.9867 46.8138 42.9424C47.5579 42.851 48.3808 43.603 48.9238 44.0805C49.7132 44.8081 50.3467 46.4836 50.8915 47.4101C51.8729 50.6504 48.4867 52.0407 48.4867 52.0407C46.7393 51.8101 43.5605 51.2449 42.6404 49.6732C42.4693 49.3589 42.4819 49.0197 42.6209 48.6877L42.0709 48.4524L42.0694 48.4523Z" fill="#512E18"/>
<path d="M70.3553 48.7288C70.3553 48.7288 74.8958 49.7288 86.3711 45.6803C91.4437 43.8152 97.8298 42.6029 98.5716 42.6722C99.0224 43.8137 98.901 44.3717 98.901 44.3717C90.7102 46.3934 88.4935 47.0774 82.6403 49.0905C76.7866 51.1032 69.0789 51.4157 66.6212 49.6276C68.4099 49.188 70.3557 48.7288 70.3557 48.7288L70.3553 48.7288Z" fill="#BDE0FE"/>
<path d="M70.3553 48.7288C70.3553 48.7288 74.8958 49.7288 86.3711 45.6803C91.4437 43.8152 97.8298 42.6029 98.5716 42.6722C99.0224 43.8137 98.901 44.3717 98.901 44.3717C90.7102 46.3934 88.4935 47.0774 82.6403 49.0905C76.7866 51.1032 69.0789 51.4157 66.6212 49.6276C68.4099 49.188 70.3557 48.7288 70.3557 48.7288L70.3553 48.7288Z" stroke="#512D16" stroke-miterlimit="10"/>
<path d="M40.2108 28.4226C39.3488 25.5191 40.7586 22.5395 43.3599 21.7672C45.9612 20.995 48.7688 22.7225 49.6307 25.6259C50.4928 28.5294 49.0829 31.509 46.4816 32.2813C43.8806 33.0535 41.0729 31.326 40.2108 28.4226Z" fill="#FCE5D8"/>
<path d="M42.0425 28.2774C41.4555 26.3003 42.3308 24.2967 43.9975 23.8019C45.6642 23.3071 47.4911 24.5085 48.0781 26.4856C48.6651 28.4625 47.7898 30.4664 46.1231 30.9612C44.4564 31.456 42.6295 30.2543 42.0425 28.2774Z" fill="#FAC0C0"/>
<g opacity="0.15">
<path d="M40.2183 28.5062C41.0806 31.4096 43.8881 33.1368 46.4893 32.3643C48.0072 31.9135 49.1194 30.7107 49.6107 29.2101C49.0722 29.783 48.3957 30.2174 47.6108 30.4507C45.0096 31.2227 42.2021 29.4956 41.3398 26.5922C40.9807 25.3834 41.0157 24.1618 41.3663 23.0915C40.1215 24.4154 39.6164 26.4793 40.2183 28.5062Z" fill="#231F20"/>
<path d="M42.6269 29.6562C42.8041 30.2524 43.0938 30.7777 43.4576 31.2075C43.9604 31.3502 44.4886 31.3587 45.002 31.2062C46.6685 30.7112 47.544 28.7075 46.9567 26.7304C46.78 26.1343 46.4899 25.6089 46.1257 25.1791C45.6228 25.0365 45.0947 25.028 44.5817 25.1804C42.9147 25.6751 42.0397 27.6791 42.6269 29.6562Z" fill="#231F20"/>
</g>
<path d="M40.2108 28.4226C39.3488 25.5191 40.7586 22.5395 43.3599 21.7672C45.9612 20.995 48.7688 22.7225 49.6307 25.6259C50.4928 28.5294 49.0829 31.509 46.4816 32.2813C43.8806 33.0535 41.0729 31.326 40.2108 28.4226Z" stroke="#512D16" stroke-miterlimit="10"/>
<path d="M42.0425 28.2774C41.4555 26.3003 42.3308 24.2967 43.9975 23.8019C45.6642 23.3071 47.4911 24.5085 48.0781 26.4856C48.6651 28.4625 47.7898 30.4664 46.1231 30.9612C44.4564 31.456 42.6295 30.2543 42.0425 28.2774Z" stroke="#512D16" stroke-miterlimit="10"/>
<path d="M70.3449 49.7213C77.3752 48.2434 83.3644 43.5613 85.899 36.6819C89.3407 27.3409 85.306 16.95 76.758 11.3494C76.758 11.3494 66.7508 5.10882 66.0252 1.87274C63.9449 3.50305 63.8927 5.88533 64.3614 6.87343C61.149 4.27765 58.2621 6.18319 57.6479 6.57779C58.3539 7.12021 59.2572 7.96973 59.2572 7.96973C47.9299 8.44222 43.2099 22.0705 45.06 29.2756C38.3289 34.5509 44.6726 43.2111 54.007 47.2381C63.3414 51.2652 70.3453 49.7204 70.3453 49.7204L70.3449 49.7213Z" fill="#F6BD60"/>
<path d="M70.3449 49.7213C77.3752 48.2434 83.3644 43.5613 85.899 36.682C89.3407 27.3409 85.306 16.95 76.758 11.3494C76.758 11.3494 66.7508 5.10882 66.0252 1.87274C63.9449 3.50305 63.8927 5.88533 64.3614 6.87343C61.149 4.27765 58.2621 6.18319 57.6479 6.57779C58.3539 7.12021 59.2572 7.96973 59.2572 7.96973C47.9299 8.44222 43.2099 22.0705 45.06 29.2756C38.3289 34.5509 44.6726 43.2111 54.007 47.2381C63.3414 51.2652 70.3453 49.7204 70.3453 49.7204L70.3449 49.7213Z" stroke="#512D16" stroke-miterlimit="10"/>
<path d="M76.3211 36.8503C76.3211 36.8503 82.6518 28.4525 75.7229 21.3933C69.6935 15.301 63.366 21.7721 62.5363 23.1029C61.4115 18.8489 59.4754 14.4958 53.5525 15.9202C47.6292 17.3449 46.288 28.3245 47.22 30.3468C43.1357 32.958 43.734 38.2847 47.7586 41.8282C51.7831 45.3717 62.6689 51.7502 72.108 47.4211C80.3222 43.6891 76.5266 37.466 76.3211 36.8507L76.3211 36.8503Z" fill="#FCE5D8"/>
<path d="M76.3211 36.8503C76.3211 36.8503 82.6518 28.4525 75.7229 21.3933C69.6935 15.301 63.366 21.7721 62.5363 23.1029C61.4115 18.8489 59.4754 14.4958 53.5525 15.9202C47.6292 17.3449 46.288 28.3245 47.22 30.3468C43.1358 32.958 43.734 38.2847 47.7586 41.8282C51.7831 45.3717 62.6689 51.7502 72.108 47.4211C80.3222 43.689 76.5266 37.466 76.3211 36.8507L76.3211 36.8503Z" stroke="#512D16" stroke-miterlimit="10"/>
<path opacity="0.15" d="M53.9605 47.2556C63.2949 51.2827 70.2988 49.7375 70.2988 49.7375C74.6079 48.8317 78.526 46.722 81.4971 43.6401C77.0391 46.068 71.7499 47.3298 66.1525 47.0008C55.5637 46.3783 46.7374 40.2323 42.8511 31.8312C40.2257 37.03 46.0073 43.8245 53.9605 47.2556Z" fill="#231F20"/>
<path opacity="0.2" d="M44.9758 28.7054C44.9727 27.3098 45.1034 20.4956 50.4976 15.044C54.726 10.7708 59.725 9.82468 61.4311 9.57939C61.4917 9.40498 61.5146 9.2475 61.5195 9.11443C61.5543 8.13689 60.6391 7.45645 60.4897 7.34898C60.8457 7.3436 61.2242 7.36268 61.6212 7.41697C63.9209 7.73075 65.5551 9.04355 66.4207 9.88825C66.1667 9.45594 65.5829 8.3261 65.7109 6.82978C65.7889 5.91482 66.1028 5.21544 66.3313 4.80243C67.0568 8.03808 77.0641 14.2786 77.0641 14.2786C82.5633 17.8817 86.1946 23.4678 87.1684 29.4812C87.0553 22.3861 83.1883 15.5305 76.8038 11.347C76.8038 11.347 66.7965 5.10642 66.071 1.87077C63.9902 3.50066 63.938 5.88337 64.4071 6.87145C61.1943 4.27569 58.3078 6.18121 57.6932 6.57624C58.3992 7.11825 59.3025 7.96776 59.3025 7.96776C48.2672 8.4279 43.5024 21.3759 44.9758 28.7054Z" fill="white"/>
<path d="M79.8923 41.6056C81.588 43.1619 84.48 43.3676 86.962 41.9436C89.9159 40.2486 91.1694 36.8866 89.7624 34.4345C88.3549 31.9823 84.8198 31.3686 81.8659 33.0636C81.8659 33.0636 83.0955 35.9519 80.7448 40.3397C80.3987 41.0043 79.8923 41.6052 79.8923 41.6052L79.8923 41.6056Z" fill="#FCE5D8"/>
<path d="M81.0164 39.9417C82.0057 40.9126 83.8726 41.076 85.5916 40.2399C87.6378 39.245 88.7002 37.2113 87.964 35.698C87.2283 34.1847 85.2631 33.9007 83.2166 34.8956C83.2166 34.8956 82.4006 35.3241 82.2023 35.498C82.1528 36.0525 82.116 36.3242 82.116 36.3242C82.116 36.3242 83.3503 36.8551 83.0547 37.8858C82.7591 38.9165 81.4337 39.3065 81.231 39.3655L81.0164 39.9413L81.0164 39.9417Z" fill="#FAC0C0"/>
<g opacity="0.15">
<path d="M79.886 41.6307C81.5817 43.187 84.4742 43.3927 86.9558 41.9687C88.8294 40.8934 90.0187 39.1481 90.2788 37.3892C89.7005 38.3727 88.824 39.2568 87.7019 39.9008C85.3899 41.2276 82.7209 41.1395 80.9958 39.8623C80.9152 40.0275 80.8296 40.1954 80.7385 40.3652C80.3929 41.0298 79.886 41.6307 79.886 41.6307Z" fill="#231F20"/>
<path d="M82.2364 36.1923C82.2364 36.1923 84.0712 35.9473 84.3883 37.8151C84.5641 38.9196 83.9232 40.3635 82.8502 40.8002C81.6494 40.5324 81.0543 40.0075 81.0543 40.0075C81.0543 40.0075 81.6975 38.2636 81.7894 37.7887C81.8809 37.3134 82.2364 36.1927 82.2364 36.1927L82.2364 36.1923Z" fill="#231F20"/>
</g>
<path d="M79.8923 41.6056C81.588 43.1619 84.48 43.3676 86.962 41.9436C89.9159 40.2486 91.1694 36.8866 89.7624 34.4345C88.3549 31.9823 84.8198 31.3686 81.8659 33.0636C81.8659 33.0636 83.0955 35.9519 80.7448 40.3397C80.3987 41.0043 79.8923 41.6052 79.8923 41.6052L79.8923 41.6056Z" stroke="#512D16" stroke-miterlimit="10"/>
<path d="M81.0164 39.9417C82.0057 40.9126 83.8726 41.076 85.5916 40.2399C87.6378 39.245 88.7002 37.2113 87.964 35.698C87.2283 34.1847 85.2631 33.9007 83.2166 34.8956C83.2166 34.8956 82.4006 35.3241 82.2023 35.498C82.1528 36.0525 82.116 36.3242 82.116 36.3242C82.116 36.3242 83.3503 36.8551 83.0547 37.8858C82.7591 38.9165 81.4337 39.3065 81.231 39.3655L81.0164 39.9413L81.0164 39.9417Z" stroke="#512D16" stroke-miterlimit="10"/>
<path d="M68.7907 35.2062C66.8684 34.7502 65.7655 32.4613 66.3271 30.0939C66.8887 27.7264 68.9023 26.1768 70.8245 26.6327C72.7468 27.0886 73.85 29.3776 73.2884 31.745C72.7268 34.1124 70.713 35.6621 68.7907 35.2062Z" fill="#512D16"/>
<path d="M70.7122 31.5192C70.0222 31.44 69.5422 30.681 69.6405 29.824C69.7389 28.967 70.3782 28.3365 71.0683 28.4157C71.7586 28.4949 72.2384 29.2538 72.1403 30.1108C72.0419 30.9678 71.4025 31.5984 70.7122 31.5192Z" fill="white"/>
<path d="M52.1298 31.3585C50.2075 30.9026 49.1043 28.6136 49.666 26.2462C50.2276 23.8788 52.2411 22.3291 54.1634 22.7851C56.0857 23.241 57.1889 25.5299 56.6272 27.8974C56.0656 30.2648 54.0521 31.8144 52.1298 31.3585Z" fill="#512D16"/>
<path d="M54.0503 27.6725C53.36 27.5933 52.8802 26.8344 52.9783 25.9774C53.0767 25.1204 53.7161 24.4898 54.4064 24.569C55.0964 24.6482 55.5764 25.4071 55.4781 26.2641C55.3797 27.1211 54.7404 27.7517 54.0503 27.6725Z" fill="white"/>
<path d="M62.8137 37.4119C62.8137 37.4119 65.2624 36.7476 65.8646 38.9236C66.4669 41.0997 63.8458 42.9621 61.9258 43.4027C60.0059 43.8429 56.2985 43.2255 54.4082 40.7672C52.5178 38.309 54.1304 35.5973 55.6912 36.0466C57.252 36.496 57.1477 36.7365 58.2288 37.0902C59.3095 37.4435 60.502 37.8581 62.8137 37.4123L62.8137 37.4119Z" fill="#512D16"/>
<path d="M63.3049 37.3098C63.3049 37.3098 63.6221 38.7469 62.5518 39.262C61.4816 39.7771 58.5947 39.9862 56.9091 38.1087C56.0657 37.1398 56.289 36.5604 56.3371 36.1674C56.8639 36.6335 58.4945 37.1071 58.9594 37.2079C59.4243 37.3087 60.3945 37.5188 61.374 37.4355C62.354 37.3522 63.3049 37.3098 63.3049 37.3098Z" fill="white"/>
<path d="M63.678 42.6875C63.678 42.6875 62.2537 40.8255 60.2587 41.0843C58.5148 40.3181 56.9685 40.5917 55.6513 41.8757C57.2949 42.9279 58.3815 43.601 60.3331 43.513C62.2848 43.4251 63.678 42.6875 63.678 42.6875Z" fill="#FAC0C0"/>
<path d="M62.8137 37.4119C62.8137 37.4119 65.2624 36.7476 65.8646 38.9236C66.4669 41.0997 63.8458 42.9621 61.9258 43.4027C60.0059 43.8429 56.2985 43.2255 54.4082 40.7672C52.5178 38.309 54.1304 35.5973 55.6912 36.0466C57.252 36.496 57.1477 36.7365 58.2288 37.0902C59.3095 37.4435 60.502 37.8581 62.8137 37.4123L62.8137 37.4119Z" stroke="#512D16" stroke-miterlimit="10"/>
<path d="M72.0286 40.7495C70.2943 40.4695 69.0107 39.4866 69.1613 38.554C69.3119 37.6217 70.8397 37.0928 72.574 37.3728C74.3082 37.6531 75.592 38.636 75.4414 39.5683C75.2908 40.5008 73.7628 41.0295 72.0286 40.7495Z" fill="#FAC0C0"/>
<path d="M47.6151 35.0027C46.376 34.5537 45.6056 33.5433 45.8943 32.7461C46.1833 31.9486 47.4221 31.6661 48.6612 32.1151C49.9005 32.5641 50.6709 33.5742 50.382 34.3717C50.0931 35.1689 48.8545 35.4514 47.6151 35.0027Z" fill="#FAC0C0"/>
<path d="M60.8616 32.8757C60.5543 32.6585 60.4659 32.2554 60.664 31.9754C60.862 31.6956 61.2716 31.6447 61.5789 31.8622C61.8861 32.0796 61.9745 32.4827 61.7765 32.7625C61.5784 33.0425 61.1688 33.0932 60.8616 32.8757Z" fill="#512D16"/>
<path d="M61.2078 31.9937C61.2078 31.9937 60.5329 31.8261 60.1446 33.0722" stroke="#512D16" stroke-miterlimit="10"/>
<path d="M57.3339 31.6372C57.2839 31.2979 57.5453 30.9785 57.9174 30.9236C58.2898 30.8688 58.6322 31.0992 58.6822 31.4385C58.7323 31.7776 58.4709 32.0972 58.0987 32.1521C57.7263 32.207 57.3839 31.9763 57.3339 31.6372Z" fill="#512D16"/>
<path d="M58.1905 31.2074C58.1905 31.2074 58.8685 31.3634 58.6506 32.6503" stroke="#512D16" stroke-miterlimit="10"/>
</g>
<defs>
<linearGradient id="paint0_linear_666_858" x1="98.3447" y1="83.9122" x2="143.81" y2="93.5078" gradientUnits="userSpaceOnUse">
<stop stop-color="#FF4545"/>
<stop offset="1" stop-color="#F7931E"/>
</linearGradient>
<linearGradient id="paint1_linear_666_858" x1="84.5022" y1="89.2755" x2="116.216" y2="89.2755" gradientUnits="userSpaceOnUse">
<stop offset="0.55" stop-color="white"/>
<stop offset="1" stop-color="white" stop-opacity="0"/>
</linearGradient>
<clipPath id="clip0_666_858">
<rect width="142.259" height="143.823" fill="white" transform="translate(0 0.000976562)"/>
</clipPath>
</defs>
</svg>
