<svg width="272" height="194" viewBox="0 0 272 194" fill="none" xmlns="http://www.w3.org/2000/svg">
<g clip-path="url(#clip0_382_636)">
<path d="M220.279 129.27C200.546 128.82 184.362 135.567 184.129 144.334L184.129 149.6C184.059 152.22 185.422 154.728 187.894 156.967C192.362 161.006 200.457 164.174 210.27 165.553C213.19 165.965 216.257 166.221 219.433 166.294C239.161 166.743 255.344 159.997 255.577 151.23L255.577 145.963C255.811 137.197 240.006 129.72 220.278 129.27L220.279 129.27Z" fill="black" fill-opacity="0.2"/>
<path d="M245.178 127.391C238.966 124.462 230.227 122.492 220.448 122.25L220.448 122.25C210.666 122.008 201.839 123.544 195.489 126.162C192.311 127.472 189.822 129.025 188.135 130.699C186.457 132.366 185.639 134.084 185.597 135.785L184.097 135.748L185.597 135.785L185.31 147.394L185.31 147.394C185.259 149.423 186.317 151.547 188.622 153.621C192.816 157.388 200.638 160.507 210.389 161.888L210.39 161.889C213.275 162.299 216.308 162.557 219.449 162.634L219.412 164.134L219.449 162.634C229.229 162.876 238.054 161.339 244.404 158.722C247.581 157.412 250.071 155.859 251.757 154.185C253.435 152.518 254.253 150.801 254.295 149.099L254.295 149.099L254.582 137.49C254.582 137.49 254.582 137.49 254.582 137.49C254.624 135.789 253.892 134.033 252.298 132.285C250.697 130.529 248.287 128.856 245.178 127.391Z" fill="#F1C65E" stroke="#512D16" stroke-width="3"/>
<path d="M220.457 122.23C210.676 121.988 201.85 123.523 195.499 126.14C192.322 127.45 189.832 129.002 188.146 130.677C186.467 132.344 185.649 134.062 185.607 135.764C185.564 137.467 186.297 139.223 187.891 140.971C189.492 142.728 191.902 144.402 195.01 145.867C201.223 148.795 209.962 150.766 219.743 151.009C229.524 151.251 238.35 149.716 244.7 147.099C247.878 145.789 250.368 144.237 252.054 142.562C253.733 140.894 254.551 139.177 254.593 137.474C254.635 135.772 253.903 134.016 252.309 132.267C250.708 130.511 248.298 128.837 245.189 127.372C238.977 124.443 230.237 122.473 220.457 122.23Z" fill="#FCDC65" stroke="#512D16" stroke-width="3"/>
<path d="M191.273 135.896C191.433 129.438 204.469 124.523 220.39 124.917C236.31 125.312 249.087 130.867 248.927 137.325C248.766 143.783 235.731 148.699 219.81 148.304C203.89 147.909 191.113 142.354 191.273 135.896Z" fill="#FFA04A"/>
<path d="M220.382 124.935C204.458 124.541 191.424 129.46 191.264 135.919C191.25 136.523 191.348 137.119 191.55 137.708L191.549 137.713C193.537 143.374 205.376 147.968 219.803 148.324C232.517 148.639 243.394 145.567 247.338 141.023C248.332 139.881 248.888 138.645 248.921 137.345C249.08 130.885 236.299 125.328 220.382 124.935Z" fill="#F6BD60"/>
<path d="M219.55 128.503C205.51 128.156 193.769 132.156 191.55 137.708L191.549 137.713C193.537 143.374 205.376 147.968 219.803 148.324C232.517 148.639 243.394 145.567 247.338 141.023C247.344 140.977 247.345 140.936 247.346 140.889C247.506 134.429 235.06 128.886 219.549 128.503L219.55 128.503Z" fill="#FFF2C4"/>
<path d="M232.314 142.471C232.314 142.471 235.142 141.711 237.202 142.612C239.18 143.477 237.564 144.773 235.453 145.355C233.235 145.967 231.386 146 229.714 145.656C227.967 145.296 227.059 144.591 227.059 144.591L232.314 142.471L232.314 142.471Z" fill="#FCE5D8"/>
<path opacity="0.15" d="M226.95 144.593C226.95 144.593 227.857 145.297 229.603 145.657C230.86 145.916 232.217 145.962 233.754 145.708C233.393 145.64 233.045 145.521 233.222 145.32C233.389 145.131 234.274 144.976 235.251 144.465C236.291 143.921 235.467 142.616 230.661 143.095L226.949 144.593L226.95 144.593Z" fill="#231F20"/>
<path d="M230.177 143.381C229.236 143.763 229.234 144.609 230.469 144.987C231.677 145.357 233.874 145.218 235.05 144.633C235.979 144.17 236.106 143.512 235.322 143.172C234.383 142.766 232.546 142.995 231.417 143.136C230.834 143.209 230.491 143.254 230.177 143.381Z" fill="#FAC1C0"/>
<path d="M231.541 143.955C231.001 144.212 230 144.252 229.306 144.046C229.121 143.99 228.976 143.923 228.874 143.849C229.782 143.492 230.451 143.229 230.932 143.04C231.047 143.06 231.158 143.085 231.262 143.116C231.956 143.323 232.081 143.698 231.541 143.955L231.541 143.955Z" fill="#FCE5D8"/>
<path d="M233.225 145.79C230.673 146.068 228.074 145.6 227.003 144.617C227.633 144.363 228.194 144.137 228.692 143.936C229.728 143.518 230.492 143.209 231.041 142.988C231.935 142.627 232.258 142.497 232.258 142.497C232.541 142.431 234.147 142.066 235.766 142.254C237.51 142.457 238.189 143.172 238.065 143.757C237.862 144.716 235.448 145.548 233.225 145.79Z" stroke="#512E18" stroke-width="3" stroke-miterlimit="10"/>
<path d="M231.629 143.138C233.536 142.751 235.42 142.985 235.874 143.474C236.405 144.047 234.934 144.92 233.046 145.119C231.319 145.301 229.62 144.88 229.453 144.141C230.384 144.282 231.466 144.087 231.848 143.787C232.118 143.574 232.025 143.318 231.629 143.138Z" stroke="#512E18" stroke-width="3" stroke-miterlimit="10"/>
<path opacity="0.25" d="M232.963 143.934C233.696 143.546 234.752 143.35 235.323 143.496C235.894 143.642 235.762 144.074 235.03 144.462C234.297 144.85 233.24 145.046 232.67 144.9C232.099 144.754 232.23 144.322 232.963 143.934Z" fill="white"/>
<path d="M208.973 135.586C208.973 135.586 210.289 134.377 207.486 133.829C204.792 133.304 201.812 134.193 200.791 135.099C199.717 136.052 200.056 136.737 201.331 137.27C202.663 137.827 204.694 137.997 204.694 137.997L208.973 135.586L208.973 135.586Z" fill="#FCE5D8"/>
<path opacity="0.15" d="M204.713 138.038C204.713 138.038 202.682 137.867 201.35 137.311C200.392 136.91 199.962 136.424 200.264 135.803C200.523 135.919 200.913 136.019 201.392 135.908C201.843 135.804 202.039 135.444 203.137 134.969C204.306 134.463 207.871 134.465 207.735 136.335L204.713 138.038L204.713 138.038Z" fill="#231F20"/>
<path d="M207.108 136.577C206.336 137.01 204.147 137.205 202.886 136.839C201.651 136.482 201.506 135.646 202.75 135.081C203.733 134.634 205.408 134.437 206.466 134.646C207.734 134.896 207.563 135.621 207.457 136.067C207.403 136.297 207.366 136.433 207.108 136.577Z" fill="#FAC1C0"/>
<path d="M205.309 136.21C204.769 136.467 204.893 136.843 205.587 137.049C205.772 137.104 205.98 137.142 206.194 137.162C206.91 136.748 207.437 136.442 207.816 136.223C207.739 136.185 207.647 136.151 207.543 136.12C206.849 135.913 205.849 135.954 205.308 136.21L205.309 136.21Z" fill="#FCE5D8"/>
<path d="M200.173 136.016C200.041 137.014 201.847 137.858 204.636 138.025C205.15 137.736 205.606 137.478 206.012 137.25C206.856 136.774 207.478 136.424 207.925 136.172C208.653 135.762 208.916 135.614 208.916 135.614C209.023 135.495 209.597 134.823 208.739 134.274C207.814 133.682 205.807 133.597 204.323 133.777C201.886 134.072 200.288 135.146 200.173 136.016Z" stroke="#512E18" stroke-width="3" stroke-miterlimit="10"/>
<path d="M207.403 135.991C207.967 135.203 206.927 134.567 205.558 134.514C203.955 134.451 202.033 135.19 201.952 135.927C201.877 136.601 203.356 137.126 205.307 137.017C204.728 136.709 204.985 136.268 205.674 136.059C206.162 135.912 206.846 135.887 207.403 135.991Z" stroke="#512E18" stroke-width="3" stroke-miterlimit="10"/>
<path opacity="0.25" d="M202.606 136.013C202.098 135.838 202.363 135.406 203.198 135.049C204.033 134.691 205.122 134.544 205.63 134.719C206.138 134.895 205.873 135.327 205.038 135.684C204.203 136.041 203.115 136.189 202.606 136.013Z" fill="white"/>
<path d="M239.328 135.803C238.211 135.322 236.894 134.82 235.351 134.326C232.521 133.421 229.693 132.789 227.235 132.343C227.419 132.253 227.777 132.055 227.905 131.786C228.113 131.352 227.563 131.063 227.441 131.003C230.107 131.006 231.128 131.648 231.293 131.834C232.4 131.214 233.349 130.934 234.606 131.139C234.667 132.629 236.071 133.482 237.813 134.515C238.363 134.8 239.328 135.803 239.328 135.803L239.328 135.803Z" fill="#F5BD61"/>
<path d="M206.586 136.46C207.174 135.581 208.291 134.738 209.892 133.977C214.235 131.913 221.164 131.085 227.431 131.649C227.522 131.657 227.614 131.666 227.705 131.674C227.705 131.674 227.776 131.427 227.228 131.025C228.54 130.861 230.564 131.193 231.324 131.769C233.144 130.751 234.788 131.109 234.788 131.109C234.524 132.775 236.681 133.904 236.681 133.904C236.731 133.928 236.78 133.953 236.828 133.977C241.321 136.241 241.331 139.483 236.345 141.853C234.734 142.619 232.769 143.214 230.613 143.632C230.584 144.286 230.089 144.88 229.076 145.361C225.443 147.088 216.53 146.711 209.169 144.52C201.808 142.328 198.786 139.152 202.42 137.425C203.442 136.939 204.881 136.62 206.586 136.461L206.586 136.46Z" fill="#FFAE64"/>
<path opacity="0.25" d="M238.326 140.681C238.326 140.681 242.637 137.173 236.204 134.484C233.345 133.289 233.19 131.653 233.19 131.653C232.186 131.72 231.272 131.955 231.272 131.955C229.773 131.415 228.518 131.411 228.518 131.411C228.895 131.813 228.396 132.239 228.396 132.239C225.622 131.827 218.301 131.156 211.218 133.447C215.584 132.021 218.832 131.174 227.705 131.674C227.785 131.364 227.228 131.025 227.228 131.025C229.842 130.929 231.055 131.551 231.324 131.769C232.77 131.093 233.319 131.003 234.788 131.109C234.609 132.846 236.385 133.781 237.372 134.271C238.358 134.761 240.301 136.283 240.219 137.823C240.137 139.363 238.325 140.681 238.325 140.681L238.326 140.681Z" fill="white"/>
<path opacity="0.15" d="M201.837 137.668C200.077 138.793 199.852 141.267 209.172 144.468L209.174 144.468C219.595 147.145 225.944 146.495 228.451 145.592C229.051 145.375 229.511 145.145 229.833 144.909C227.534 145.099 224.846 144.515 217.835 140.354C205.435 138.74 203.323 137.89 203.293 137.003C202.754 137.175 202.26 137.397 201.837 137.668L201.837 137.668Z" fill="#231F20"/>
<path d="M206.586 136.46C207.174 135.581 208.291 134.738 209.892 133.977C214.235 131.913 221.164 131.085 227.431 131.649C227.522 131.657 227.614 131.666 227.705 131.674C227.705 131.674 227.776 131.427 227.228 131.025C228.54 130.861 230.564 131.193 231.324 131.769C233.144 130.751 234.788 131.109 234.788 131.109C234.524 132.775 236.681 133.904 236.681 133.904C236.731 133.928 236.78 133.953 236.828 133.977C241.321 136.241 241.331 139.483 236.345 141.853C234.734 142.619 232.769 143.214 230.613 143.632C230.584 144.286 230.089 144.88 229.076 145.361C225.443 147.088 216.53 146.711 209.169 144.52C201.808 142.328 198.786 139.152 202.42 137.425C203.442 136.939 204.881 136.62 206.586 136.461L206.586 136.46Z" stroke="#512E18" stroke-width="3" stroke-miterlimit="10"/>
<path d="M207.922 137.108C206.02 137.23 204.407 137.55 203.304 138.074C199.952 139.667 202.571 142.547 209.153 144.507C215.735 146.467 223.789 146.764 227.14 145.171C228.24 144.649 228.488 144.069 228.373 143.347C228.669 143.263 234.98 141.418 235.055 139.252C235.066 138.926 235.096 138.057 233.583 137.365C232.657 136.941 231.566 136.774 231.235 136.727C228.38 136.324 225.375 136.933 224.797 137.055C225.043 136.768 225.743 135.842 224.724 134.979C223.111 133.615 218.683 133.674 218.287 133.682C214.278 133.762 209.987 135.134 207.922 137.108L207.922 137.108Z" fill="#FCE5D8"/>
<path opacity="0.15" d="M208.977 144.561L208.98 144.562C214.597 146.234 223.886 146.789 227.346 145.052C227.516 144.967 227.658 144.881 227.779 144.795C223.856 146.128 215.435 145.539 210.202 143.982L210.199 143.981C204.968 142.423 201.512 139.475 204.057 137.733C203.864 137.796 203.674 137.868 203.493 137.95C199.792 139.616 203.362 142.889 208.977 144.561Z" fill="#231F20"/>
<path d="M207.893 137.118C205.991 137.241 204.379 137.561 203.275 138.085C199.924 139.678 202.543 142.558 209.125 144.518C215.707 146.478 223.76 146.775 227.112 145.182C228.211 144.66 228.46 144.079 228.345 143.358C228.64 143.273 234.951 141.429 235.026 139.263C235.038 138.937 235.068 138.067 233.555 137.376C232.629 136.952 231.538 136.784 231.206 136.738C228.352 136.335 225.346 136.944 224.769 137.065C225.014 136.779 225.715 135.852 224.696 134.99C223.083 133.625 218.654 133.685 218.259 133.693C214.249 133.772 209.959 135.144 207.894 137.118L207.893 137.118Z" stroke="#512E18" stroke-width="3" stroke-miterlimit="10"/>
<path d="M217.8 141.239C217.626 141.104 217.766 140.926 218.112 140.842C218.458 140.758 218.88 140.8 219.054 140.935C219.228 141.07 219.088 141.248 218.742 141.332C218.396 141.416 217.974 141.374 217.8 141.239Z" fill="#512D16"/>
<path d="M218.626 140.932C218.626 140.932 218.071 140.761 217.003 141.21" stroke="#512D16" stroke-width="3" stroke-miterlimit="10"/>
<path d="M215.1 140.198C215.241 140.052 215.67 139.962 216.059 139.996C216.447 140.03 216.647 140.176 216.506 140.322C216.365 140.468 215.936 140.558 215.548 140.524C215.16 140.49 214.959 140.344 215.1 140.198Z" fill="#512D16"/>
<path d="M216.164 140.152C216.164 140.152 216.728 140.318 215.802 140.809" stroke="#512D16" stroke-width="3" stroke-miterlimit="10"/>
<path d="M225.185 143.708C224.374 143.467 224.054 143.11 224.471 142.913C224.887 142.715 225.883 142.75 226.694 142.991C227.505 143.233 227.825 143.589 227.408 143.787C226.992 143.985 225.997 143.95 225.185 143.708Z" fill="#FAC1C0"/>
<path d="M207.46 138.432C206.649 138.19 206.329 137.834 206.746 137.636C207.162 137.438 208.157 137.473 208.969 137.715C209.78 137.957 210.1 138.313 209.683 138.511C209.267 138.709 208.272 138.673 207.46 138.432Z" fill="#FAC1C0"/>
<path d="M221.7 142.029C220.624 141.709 220.701 140.998 221.872 140.441C223.044 139.884 224.866 139.693 225.942 140.013C227.018 140.334 226.942 141.045 225.77 141.602C224.599 142.159 222.777 142.35 221.7 142.029Z" fill="#512E18"/>
<path d="M223.147 140.933C222.796 140.828 222.851 140.582 223.27 140.383C223.689 140.184 224.313 140.108 224.664 140.212C225.015 140.317 224.96 140.563 224.541 140.762C224.122 140.961 223.499 141.037 223.147 140.933Z" fill="white"/>
<g opacity="0.2">
<path d="M223.32 141.821C223.126 141.764 223.198 141.607 223.482 141.473C223.765 141.338 224.152 141.276 224.347 141.334C224.541 141.392 224.469 141.548 224.186 141.682C223.902 141.817 223.515 141.879 223.32 141.821Z" fill="white"/>
</g>
<path d="M212.566 139.311C211.49 138.99 211.566 138.279 212.738 137.722C213.909 137.166 215.732 136.974 216.808 137.295C217.884 137.615 217.807 138.326 216.636 138.883C215.464 139.44 213.642 139.631 212.566 139.311Z" fill="#512E18"/>
<path d="M215.072 138.529C214.721 138.425 214.776 138.179 215.195 137.98C215.614 137.781 216.237 137.704 216.589 137.809C216.94 137.913 216.885 138.159 216.466 138.358C216.047 138.557 215.423 138.634 215.072 138.529Z" fill="white"/>
<g opacity="0.2">
<path d="M212.733 138.67C212.539 138.612 212.611 138.456 212.894 138.321C213.178 138.187 213.565 138.124 213.759 138.182C213.954 138.24 213.882 138.396 213.598 138.531C213.315 138.666 212.928 138.728 212.733 138.67Z" fill="white"/>
</g>
<path d="M210.088 141.759C210.172 141.981 210.379 142.19 210.665 142.382C211.051 142.641 211.581 142.868 212.141 143.049C212.763 143.249 213.424 143.393 213.968 143.46C214.18 143.485 214.413 143.506 214.659 143.52C215.88 143.59 217.398 143.501 217.968 143.125C218.041 143.077 218.099 143.024 218.138 142.966C218.359 142.638 217.918 142.432 217.471 142.312C217.099 142.211 216.724 142.171 216.724 142.171C215.905 142.059 215.341 141.937 214.911 141.812C214.473 141.686 214.175 141.558 213.889 141.438C213.404 141.234 213.446 141.174 212.945 140.955C212.859 140.918 212.758 140.876 212.635 140.828C212.231 140.669 211.555 140.681 210.995 140.83C210.993 140.831 210.992 140.831 210.99 140.832C210.387 140.994 209.921 141.317 210.088 141.759L210.088 141.759Z" fill="#512D16"/>
<path d="M212.955 140.921C212.269 141.276 212.473 141.782 213.429 142.063L214.462 142.366C215.366 142.632 216.622 142.604 217.393 142.318C217.047 142.227 216.714 142.188 216.714 142.188C215.884 142.067 215.32 141.937 214.894 141.807C214.478 141.68 214.194 141.553 213.92 141.433C213.437 141.221 213.496 141.163 212.969 140.927C212.965 140.925 212.96 140.923 212.955 140.921Z" fill="white"/>
<path d="M210.491 142.33C210.877 142.589 211.406 142.816 211.966 142.997C212.564 143.195 213.198 143.338 213.725 143.407C213.953 143.437 214.207 143.461 214.474 143.477C214.477 143.474 214.48 143.471 214.484 143.468C214.584 143.376 214.615 143.276 214.581 143.179C214.529 143.031 214.327 142.889 213.988 142.788L212.45 142.331C211.863 142.156 211.057 142.16 210.512 142.324C210.505 142.326 210.498 142.328 210.491 142.33L210.491 142.33Z" fill="#FAC0C0"/>
<path d="M210.1 141.724C210.165 141.928 210.336 142.124 210.579 142.305C210.603 142.323 210.627 142.34 210.652 142.358C210.658 142.362 210.664 142.366 210.67 142.37C211.05 142.631 211.572 142.861 212.124 143.044C212.191 143.066 212.258 143.087 212.325 143.108C212.862 143.272 213.414 143.392 213.883 143.454C214.111 143.484 214.365 143.508 214.632 143.524C214.648 143.525 214.664 143.526 214.681 143.527C215.913 143.597 217.414 143.507 217.951 143.12C218.005 143.081 218.05 143.039 218.083 142.994C218.331 142.658 217.865 142.445 217.411 142.323C217.405 142.322 217.399 142.32 217.394 142.319C217.048 142.227 216.715 142.189 216.715 142.189C215.885 142.068 215.321 141.938 214.894 141.807C214.479 141.68 214.194 141.553 213.921 141.433C213.437 141.221 213.496 141.163 212.97 140.928C212.965 140.925 212.96 140.923 212.956 140.921C212.883 140.889 212.799 140.853 212.702 140.813C212.288 140.644 211.563 140.66 210.979 140.825C210.977 140.826 210.975 140.826 210.974 140.827C210.401 140.991 209.965 141.301 210.1 141.724Z" stroke="#512D16" stroke-width="3" stroke-miterlimit="10"/>
<path d="M245.868 111.546C239.655 108.618 230.917 106.647 221.138 106.405L221.138 106.405C211.355 106.163 202.529 107.7 196.178 110.318C193.001 111.627 190.511 113.18 188.825 114.854C187.146 116.522 186.328 118.239 186.286 119.94L184.787 119.903L186.286 119.94L185.999 131.55L185.999 131.55C185.949 133.579 187.007 135.702 189.312 137.776C193.505 141.543 201.327 144.662 211.079 146.044L211.08 146.044C213.965 146.454 216.997 146.712 220.139 146.789L220.102 148.289L220.139 146.789C229.918 147.031 238.744 145.494 245.093 142.877C248.27 141.567 250.76 140.015 252.446 138.34C254.125 136.673 254.943 134.956 254.985 133.255L254.985 133.255L255.272 121.645C255.272 121.645 255.272 121.645 255.272 121.645C255.314 119.944 254.582 118.188 252.987 116.44C251.386 114.685 248.976 113.011 245.868 111.546Z" fill="#F1C65E" stroke="#512D16" stroke-width="3"/>
<path d="M221.146 106.385C211.365 106.143 202.539 107.678 196.189 110.296C193.012 111.605 190.522 113.158 188.835 114.832C187.157 116.5 186.338 118.217 186.296 119.92C186.254 121.622 186.986 123.378 188.58 125.127C190.181 126.883 192.591 128.557 195.7 130.022C201.913 132.951 210.652 134.921 220.433 135.164C230.213 135.406 239.04 133.871 245.39 131.254C248.567 129.944 251.057 128.392 252.743 126.717C254.422 125.05 255.24 123.332 255.282 121.63C255.325 119.927 254.592 118.171 252.998 116.423C251.397 114.667 248.987 112.993 245.879 111.527C239.666 108.599 230.927 106.628 221.146 106.385Z" fill="#FCDC65" stroke="#512D16" stroke-width="3"/>
<path d="M191.962 120.051C192.122 113.593 205.158 108.678 221.079 109.073C236.999 109.467 249.776 115.023 249.616 121.481C249.455 127.939 236.42 132.854 220.499 132.459C204.578 132.065 191.802 126.509 191.962 120.051Z" fill="#FFA04A"/>
<path d="M221.071 109.089C205.147 108.695 192.113 113.614 191.953 120.074C191.939 120.678 192.037 121.273 192.239 121.862L192.238 121.867C194.226 127.529 206.065 132.122 220.492 132.479C233.206 132.793 244.083 129.721 248.027 125.178C249.021 124.035 249.577 122.8 249.61 121.499C249.769 115.039 236.988 109.483 221.071 109.089Z" fill="#F6BD60"/>
<path d="M220.239 112.658C206.199 112.311 194.458 116.311 192.24 121.863L192.239 121.868C194.227 127.529 206.065 132.123 220.493 132.479C233.207 132.794 244.084 129.722 248.027 125.178C248.034 125.132 248.035 125.091 248.035 125.044C248.195 118.584 235.749 113.041 220.239 112.658L220.239 112.658Z" fill="#FFF2C4"/>
<path d="M44.3905 118.496L51.6718 113.43C109.849 115.474 225.832 119.371 225.437 125.268C224.943 132.64 208.262 136.555 200.961 139.476C195.133 141.807 155.242 150.144 144.019 154.175C138.254 157.337 123.492 163.537 110.566 163.042C97.6407 162.547 85.769 157.834 81.4489 155.539C81.2233 156.604 80.0593 159.704 77.2077 163.585C74.3561 167.467 68.2976 171.548 66.3827 172.499L66.3827 121.82L46.939 121.907L44.3905 118.496Z" fill="black" fill-opacity="0.2"/>
<path d="M22.964 111.294C22.8368 111.471 22.7061 111.652 22.5757 111.828C22.6877 111.543 22.7997 111.256 22.9179 110.979C22.9291 111.083 22.9445 111.188 22.9631 111.294L22.964 111.294Z" fill="#FFF3E9"/>
<path d="M22.3965 112.073C22.4575 111.991 22.5152 111.91 22.5763 111.828C22.5368 111.922 22.5006 112.016 22.4645 112.11C22.4468 112.102 22.4283 112.093 22.4104 112.088C22.4076 112.081 22.4003 112.077 22.3965 112.073Z" fill="#FF9343"/>
<path d="M28.2682 121.973C28.2682 121.973 32.2349 127.347 29.4886 129.663C28.3158 130.652 26.665 130.642 24.6469 128.165C23.0993 126.266 21.5219 124.106 18.6886 123.436C17.0947 123.059 14.348 123.249 12.1956 122.555C10.5214 122.015 8.7954 120.612 9.07133 118.647C9.07133 118.647 5.65888 117.619 6.48952 114.888C6.48952 114.888 3.99394 112.963 6.20244 110.962C8.46039 108.916 17.4824 111.235 20.6101 113.939C23.1137 116.103 28.2682 121.973 28.2682 121.973L28.2682 121.973Z" fill="#F8D5B5"/>
<path d="M29.4894 129.661C28.3158 130.65 26.665 130.64 24.646 128.164C23.0985 126.263 21.5219 124.104 18.6894 123.433C17.0947 123.056 14.3496 123.247 12.1948 122.552C10.5205 122.012 8.79373 120.61 9.07214 118.645C9.07214 118.645 5.65886 117.617 6.48955 114.885C6.48955 114.885 3.99304 112.962 6.20314 110.962C6.50424 110.689 6.92292 110.494 7.43731 110.368C6.7183 111.977 8.46065 113.32 8.46065 113.32C7.63172 116.05 11.0432 117.08 11.0432 117.08C10.7666 119.043 12.4926 120.445 14.1659 120.986C16.3217 121.681 19.0676 121.49 20.6605 121.868C23.4948 122.537 25.0722 124.696 26.6189 126.596C28.0041 128.294 29.2156 128.832 30.2167 128.684C30.0623 129.045 29.8286 129.376 29.4903 129.66L29.4894 129.661Z" fill="#E1B189"/>
<path d="M27.7042 131.303C27.6753 131.301 27.6456 131.299 27.6167 131.296C26.3588 131.179 25.0892 130.345 23.8452 128.817L23.5242 128.421C22.0955 126.654 20.7458 124.984 18.4513 124.441C17.8781 124.306 17.0558 124.248 16.1864 124.188C14.8175 124.093 13.2654 123.985 11.8785 123.538C9.96483 122.92 8.1602 121.417 8.01662 119.337C7.30907 119.002 6.29068 118.367 5.72741 117.315C5.38759 116.68 5.26238 115.973 5.35783 115.241C4.90125 114.751 4.30065 113.909 4.25829 112.845C4.23173 112.176 4.4274 111.174 5.50824 110.195C8.34373 107.625 17.8976 110.226 21.2865 113.155C23.8152 115.34 28.8329 121.047 29.0457 121.289C29.0649 121.312 29.0833 121.334 29.1008 121.358C29.2864 121.609 33.6036 127.545 30.1557 130.453C29.4252 131.069 28.5795 131.362 27.7041 131.303L27.7042 131.303ZM9.89677 111.226C8.50783 111.133 7.39766 111.274 6.89787 111.727C6.30624 112.263 6.32089 112.639 6.32592 112.762C6.34931 113.354 6.9594 113.942 7.12187 114.068C7.46263 114.33 7.60448 114.776 7.47989 115.187C6.97244 116.857 9.1272 117.579 9.37502 117.656C9.85933 117.806 10.1672 118.287 10.0971 118.789C9.88482 120.299 11.5168 121.246 12.5139 121.569C13.6612 121.938 15.0787 122.037 16.3304 122.124C17.2864 122.191 18.1897 122.254 18.9278 122.429C21.9106 123.134 23.6227 125.252 25.1333 127.121L25.4497 127.511C26.5474 128.858 27.3395 129.193 27.8102 129.237C28.1572 129.269 28.4928 129.151 28.8233 128.872C30.4382 127.51 28.355 123.85 27.4619 122.62C27.0356 122.136 22.2582 116.728 19.935 114.72C17.8587 112.925 13.1247 111.442 9.8976 111.226L9.89677 111.226Z" fill="#591224"/>
<path d="M16.8336 117.478C14.9027 117.242 12.6778 117.146 10.9417 118.063C10.4354 118.353 10.1147 118.745 9.96907 119.161C9.7781 119.709 9.179 119.997 8.63188 119.807C7.93884 119.578 7.7086 118.68 8.17505 118.131C10.2902 115.393 14.1244 116.466 16.8328 117.478L16.8336 117.478Z" fill="#591224"/>
<path d="M14.6862 113.792C12.9203 113.568 8.05092 113.141 7.45233 115.267C7.35015 115.839 6.80458 116.22 6.23246 116.118C5.49468 116 5.13605 115.125 5.5293 114.504C7.27245 111.326 12.0229 112.837 14.6863 113.791L14.6862 113.792Z" fill="#591224"/>
<path d="M67.3238 101.389L61.7537 123.643L39.1039 123.981L33.6048 125.724C33.7599 125.352 33.9114 124.973 34.0585 124.597C33.1234 124.713 32.1852 124.824 31.2502 124.939C29.7149 124.269 25.1421 122.038 22.8817 116.96C22.8753 116.945 22.8658 116.926 22.8593 116.91C22.1702 115.347 21.9361 113.64 22.1257 111.972C22.2195 112.008 22.3172 112.048 22.4108 112.088C22.4288 112.092 22.4473 112.101 22.4649 112.11C22.5011 112.016 22.5373 111.921 22.5767 111.828C22.6887 111.542 22.8008 111.256 22.9189 110.979C26.9999 101.055 33.0737 95.5486 39.6958 93.3733C39.7035 93.3705 39.7145 93.3671 39.7221 93.3643C39.7221 93.3643 39.7247 93.3634 39.7298 93.3615C42.1383 92.573 44.6167 92.2272 47.0958 92.2671C50.9749 92.3335 54.8614 93.3436 58.4872 95.0993C61.6994 96.6531 64.7053 98.7987 67.3247 101.389L67.3238 101.389Z" fill="#F6BD60"/>
<path d="M31.1745 126.064C31.0456 126.056 30.9183 126.025 30.7982 125.973C28.416 124.933 24.0856 122.438 21.8503 117.418L21.8199 117.352C21.0718 115.654 20.7874 113.745 21.0033 111.845C21.1243 110.77 21.4079 109.705 21.8454 108.683C23.8961 103.922 28.8912 95.4734 39.3348 92.3048C39.3578 92.2964 39.3816 92.288 39.4053 92.2813C41.9023 91.5336 44.4886 91.1493 47.0904 91.1394C55.0943 91.1096 62.7771 94.5752 68.1666 100.64C68.4142 100.918 68.508 101.301 68.4175 101.662L62.8473 123.917C62.7237 124.413 62.2813 124.763 61.7699 124.77L39.1791 125.107C37.699 125.285 36.2228 125.467 34.7433 125.648L31.3881 126.057C31.317 126.066 31.2456 126.068 31.1746 126.063L31.1745 126.064ZM40.079 94.4341C40.0603 94.4411 40.0408 94.4473 40.0204 94.4534C30.4286 97.3497 25.815 105.169 23.9185 109.572C23.5693 110.389 23.3415 111.24 23.245 112.098C23.0738 113.603 23.2972 115.109 23.8907 116.454L23.9238 116.529C25.7546 120.639 29.2975 122.805 31.4245 123.78L34.4686 123.408C35.969 123.224 37.4678 123.04 38.9688 122.86C39.0081 122.855 39.0472 122.852 39.0871 122.852L60.87 122.526L66.0834 101.699C61.1485 96.3889 54.262 93.3706 47.0997 93.3929C44.7268 93.4015 42.3685 93.7504 40.0901 94.429C40.0867 94.4305 40.0833 94.4311 40.0799 94.4325L40.079 94.4341Z" fill="#591224"/>
<path d="M11.8202 145.494C11.8468 145.927 11.8812 146.355 11.9199 146.781C11.7745 146.957 11.6334 147.132 11.4914 147.309C11.5877 146.7 11.6987 146.095 11.8202 145.494Z" fill="#7BA2FF"/>
<path d="M127.198 113.456C118.94 109.273 108.654 102.827 103.256 93.9179C95.8723 81.7313 101.979 71.1273 98.1275 58.5302C99.2403 51.176 87.6875 46.9013 80.4517 51.1921C65.1113 66.9153 62.6992 90.368 76.4586 108.75C87.6918 123.758 99.7738 125.592 110.807 126.437" fill="#F6BD60"/>
<path d="M127.198 113.455L110.806 126.435C99.7731 125.59 87.6918 123.756 76.4578 108.749C63.6304 91.6101 64.8556 70.0645 77.5155 54.4845C78.4357 53.3533 79.4134 52.2534 80.4509 51.1906C87.6875 46.9007 99.2395 51.1753 98.1267 58.5279C98.6026 60.0802 98.9261 61.604 99.14 63.1039C100.678 73.7661 96.782 83.2333 103.255 93.9189C108.652 102.827 118.94 109.273 127.197 113.456L127.198 113.455Z" fill="#F6BD60"/>
<path d="M127.198 113.455L110.806 126.435C110.131 126.384 109.45 126.33 108.768 126.266C98.2957 125.317 87.0036 122.835 76.4577 108.749C65.3676 93.9336 64.7818 75.8235 73.0083 61.1212L73.0101 61.1188C74.295 58.8135 75.8015 56.5943 77.5154 54.4845C78.4355 53.3533 79.4133 52.2533 80.4508 51.1906C87.6873 46.9007 99.2393 51.1753 98.1266 58.5279C98.6025 60.0802 98.926 61.604 99.1399 63.1039C100.678 73.766 96.7819 83.2332 103.255 93.9189C108.652 102.827 118.94 109.273 127.197 113.456L127.198 113.455Z" fill="#F6BD60"/>
<g opacity="0.25">
<path d="M108.768 126.266C98.2952 125.317 87.003 122.836 76.4571 108.75C65.367 93.9342 64.7813 75.8242 73.0077 61.1218C62.6952 87.7417 84.683 118.561 103.849 118.055C113.057 120.221 112.438 123.379 108.768 126.266L108.768 126.266Z" fill="#591224"/>
</g>
<g opacity="0.25">
<path d="M99.1407 63.1041C92.3798 68.6518 76.9997 66.6217 77.5153 54.4854C78.4354 53.3542 79.4132 52.2543 80.4507 51.1915C87.6872 46.9016 99.2392 51.1762 98.1265 58.5288C98.6024 60.0811 98.9259 61.6049 99.1398 63.1048L99.1407 63.1041Z" fill="#591224"/>
</g>
<path d="M110.724 127.504C99.1488 126.618 86.9015 124.489 75.6013 109.392C68.7749 100.271 65.6191 89.724 66.4755 78.8904C67.3027 68.4314 71.9937 58.329 79.6849 50.4456C79.7499 50.3786 79.8243 50.3206 79.9047 50.272C85.0069 47.2468 91.5126 48.2489 95.3015 50.8019C98.1492 52.7204 99.5661 55.4936 99.2168 58.443C100.835 63.8857 100.669 68.941 100.509 73.8333C100.294 80.4156 100.09 86.6321 104.169 93.3643C108.363 100.287 116.274 106.726 127.68 112.503L126.714 114.411C114.945 108.451 106.744 101.743 102.34 94.4728C97.9319 87.1977 98.1552 80.3687 98.371 73.7639C98.5271 68.9792 98.6891 64.0323 97.103 58.844C97.056 58.6907 97.0445 58.529 97.0683 58.3713C97.5221 55.3717 95.4077 53.4534 94.106 52.5766C90.983 50.4721 85.3921 49.5843 81.115 52.0427C65.9005 67.7312 64.3308 90.7667 77.3129 108.11C88.0847 122.502 99.3412 124.487 110.887 125.371L110.724 127.504L110.724 127.504Z" fill="#591224"/>
<path d="M89.3717 63.432C91.4773 63.8351 92.7262 63.6417 93.7465 63.4794C98.258 62.7612 100.439 60.2529 105.172 58.2265C106.979 57.4526 108.076 54.6486 106.222 52.7096C103.763 50.1386 100.521 52.741 99.3184 52.3859C101.431 48.589 105.884 37.2098 100.27 35.71C96.7699 34.7748 95.5771 41.3041 94.5847 43.094C95.1441 40.8082 95.4744 33.2622 90.9755 33.2347C86.897 33.2096 88.4625 39.9328 87.6535 42.3272C87.7779 38.6112 85.8113 34.7453 82.8958 35.7221C80.167 36.6368 81.0534 42.0927 81.6583 44.7153C81.8216 45.423 75.7245 56.1844 81.7091 59.8508C81.7091 59.8508 83.9599 61.5177 85.8854 62.3923C87.6395 63.1891 89.3709 63.432 89.3709 63.432L89.3717 63.432Z" fill="#F8D5B5"/>
<path d="M89.3714 63.4329C92.2546 63.4451 94.9168 62.5716 97.3567 61.2029C99.3406 60.1156 101.115 58.7811 103.182 57.755C103.678 57.5087 104.222 57.2589 104.729 57.0307C105.465 56.6794 105.982 55.7004 105.913 54.8812C105.798 53.5787 104.523 52.6158 103.195 52.7766C101.821 52.814 100.494 53.7569 99.0148 53.4107C98.3471 53.2483 98.021 52.4451 98.3834 51.8638C99.9575 49.0437 104.216 38.8559 100.403 36.8877C97.6712 35.532 96.5297 41.9013 95.5194 43.6113C94.906 44.7074 93.2503 44.04 93.5447 42.8387C94.0166 40.5851 94.2507 34.9579 91.3808 34.3377C90.7841 34.2546 90.2141 34.2953 89.8357 34.7685C88.4812 36.9853 89.4507 40.1467 88.6664 42.668C88.3127 43.8255 86.6154 43.58 86.5857 42.3885C86.533 40.5378 86.0906 38.3855 84.7062 37.1838C84.1751 36.7675 83.6248 36.7349 83.0976 37.0396C82.5498 37.4791 82.4358 38.203 82.3353 39.0341C82.2061 40.6429 82.437 42.5089 82.7851 44.1845C82.8472 44.4101 82.8907 44.6893 82.8622 44.9171C82.8119 45.2953 82.6612 45.6386 82.5388 45.9439C81.6725 47.9554 80.8496 49.9632 80.3404 52.0551C79.6403 54.7446 79.461 57.844 81.7081 59.8499C80.2032 59.3452 79.0473 57.9523 78.5944 56.4281C77.384 52.4668 79.2454 48.0932 80.4516 44.6587C80.4452 44.7536 80.4445 44.8631 80.468 44.9584L80.4084 44.7089C79.8426 41.8732 79.1539 38.9289 80.5322 36.1462C81.5806 34.1029 84.6264 33.7188 86.2897 35.2386C88.3183 37.0524 88.8573 39.8423 88.7202 42.3606C88.7202 42.3606 86.6361 41.983 86.6379 41.9814C87.3721 38.9192 85.9223 33.6148 89.8747 32.3026C95.9384 31.0961 96.5706 39.1726 95.6201 43.3459L93.6454 42.5734C93.7409 42.3989 93.8492 42.1432 93.9494 41.8854C94.7713 39.7821 95.2525 37.773 96.8135 35.9158C98.4887 33.839 101.631 34.2816 103.078 36.448C105.746 40.6679 102.361 48.8661 100.248 52.9036C100.248 52.9077 99.6167 51.3575 99.6159 51.3582C99.5297 51.3326 99.5788 51.3425 99.6582 51.3213C100.746 51.0249 101.723 50.5355 102.952 50.3971C108.075 49.7522 110.569 56.331 106.133 59.1561C105.85 59.3214 105.44 59.4921 105.137 59.6278C102.47 60.7814 100.124 62.4781 97.3304 63.5029C94.7687 64.35 91.8347 64.4887 89.3666 63.4301L89.3714 63.4329Z" fill="#591224"/>
<path d="M99.4931 53.4408C96.2905 53.4412 93.4927 50.6037 90.6109 53.5072C92.2948 50.6438 95.5104 51.2548 98.2823 51.4312C98.6494 51.4492 98.9354 51.3895 99.1552 51.3271C100.701 50.9711 101.076 53.2955 99.4931 53.4408Z" fill="#591224"/>
<path d="M222.244 162.695C222.231 162.412 222.205 162.133 222.185 161.851C222.187 161.843 222.189 161.836 222.19 161.827C222.211 162.118 222.226 162.405 222.243 162.695L222.244 162.695Z" fill="white"/>
<path d="M222.277 163.636C222.296 164.242 222.296 164.854 222.285 165.465C222.296 164.854 222.293 164.241 222.277 163.636Z" fill="white"/>
<path d="M152.845 126.032L142.645 150.944C109.768 162.361 94.3267 160.529 77.5594 151.342C77.5417 151.333 77.5232 151.325 77.5016 151.312C77.4767 151.3 77.448 151.283 77.4193 151.266C77.2439 151.173 77.0649 151.072 76.8866 150.971C69.6525 146.937 62.1273 141.551 52.813 135.286C52.0651 133.882 51.4583 132.476 50.9778 131.068C50.9649 131.037 50.9564 131.003 50.947 130.969C47.5737 120.969 50.7444 111.114 57.7608 104.388C62.2163 100.12 68.219 97.113 75.0842 96.126C80.0175 95.4137 85.3917 95.7478 90.9599 97.408C103.451 101.434 111.24 110.083 122.247 110.059C124.043 110.054 125.92 109.823 127.918 109.3L132.332 109.014L139.604 108.543L139.608 108.543L140.293 108.501L140.558 108.871L152.845 126.033L152.845 126.032Z" fill="#F6BD60"/>
<g opacity="0.25">
<path d="M62.0397 122.185C61.4839 122.508 60.935 122.838 60.3924 123.188C57.174 125.22 54.1929 127.636 51.5286 130.361C51.3293 130.563 51.1341 130.765 50.9464 130.968C47.5731 120.967 50.7438 111.112 57.7602 104.386L58.1757 104.437C56.1835 107.208 55.4321 110.837 56.1585 114.172C56.8809 117.507 59.0771 120.496 62.0397 122.185Z" fill="#591224"/>
</g>
<path d="M130.635 132.472C129.628 132.89 128.589 133.232 127.533 133.496C123.235 134.569 118.695 134.403 114.359 133.515C112.796 133.196 111.252 132.781 109.756 132.235C105.269 130.603 101.28 127.81 96.8198 126.113C92.1434 124.327 87.0712 123.794 82.344 122.147C81.4346 121.829 79.946 121.181 78.1877 120.125C77.9774 119.995 75.7207 118.628 74.0647 117.048C73.0394 116.071 67.8349 110.811 68.9671 104.481C69.6965 100.401 72.6553 97.8729 73.7653 97.0273C74.1877 96.7031 74.6308 96.4026 75.0832 96.1251C80.0165 95.4128 85.3906 95.7469 90.9589 97.4071C103.45 101.434 111.238 110.082 122.246 110.059C122.645 112.867 124.077 115.567 125.62 118.011C127.679 121.279 130.046 124.532 130.674 128.343C130.9 129.731 130.874 131.12 130.635 132.473L130.635 132.472Z" fill="#F8D5B5"/>
<path d="M101.249 159.862C98.7535 159.695 96.3527 159.365 94.0156 158.877C81.7502 156.313 71.9108 149.614 58.2929 140.341C56.3406 139.012 54.3137 137.632 52.1937 136.206C52.042 136.105 51.9185 135.967 51.8331 135.806C47.5404 127.731 47.3512 118.998 51.3005 111.216C55.6863 102.574 64.5181 96.5224 74.9262 95.0253C80.2615 94.2553 85.7627 94.6983 91.2773 96.3424C96.5168 98.0311 100.838 100.451 105.017 102.792C112.427 106.941 118.826 110.524 127.637 108.225C127.705 108.207 127.775 108.196 127.846 108.191L140.223 107.392C140.604 107.367 140.973 107.541 141.197 107.853L153.748 125.386C153.97 125.696 154.017 126.1 153.872 126.453L143.672 151.365C143.551 151.659 143.309 151.889 143.009 151.993C125.382 158.113 112.376 160.608 101.249 159.863L101.249 159.862ZM53.6652 134.52C55.705 135.893 57.6581 137.223 59.5422 138.506C86.2369 156.682 98.4703 165.015 141.807 150.059L151.584 126.18L139.749 109.648L128.093 110.401C118.47 112.871 111.407 108.915 103.931 104.729C99.8471 102.442 95.6233 100.077 90.6185 98.464C85.4381 96.9203 80.2571 96.5004 75.2426 97.2247C65.5498 98.6187 57.3392 104.225 53.2811 112.222C49.7074 119.263 49.8465 127.171 53.6659 134.521L53.6652 134.52Z" fill="#591224"/>
<path d="M62.5921 168.108C62.5921 168.108 69.7171 171.356 68.2226 175.292C67.5842 176.973 65.887 177.903 62.4083 176.515C59.7406 175.45 56.894 174.136 53.6103 175.062C51.763 175.584 49.0564 177.343 46.4556 177.857C44.4323 178.258 41.8656 177.803 41.0289 175.633C41.0289 175.633 36.9472 176.522 36.243 173.252C36.243 173.252 32.5895 172.701 33.7127 169.392C34.8607 166.009 45.4265 163.248 50.1704 164.236C53.9678 165.027 62.593 168.107 62.593 168.107L62.5921 168.108Z" fill="#F8D5B5"/>
<path d="M68.2223 175.291C67.583 176.972 65.8859 177.902 62.407 176.516C59.7395 175.45 56.8936 174.136 53.61 175.061C51.761 175.583 49.0569 177.343 46.4536 177.856C44.4311 178.257 41.8636 177.803 41.0294 175.632C41.0294 175.632 36.946 176.522 36.2419 173.25C36.2419 173.25 32.5891 172.702 33.7131 169.393C33.8661 168.942 34.1849 168.504 34.6395 168.082C34.8186 170.139 37.3691 170.524 37.3691 170.524C38.0743 173.793 42.1566 172.906 42.1566 172.906C42.991 175.075 45.5586 175.528 47.5809 175.131C50.1852 174.614 52.8893 172.854 54.7372 172.336C58.0219 171.407 60.8678 172.721 63.5353 173.787C65.9211 174.738 67.4699 174.599 68.4108 173.877C68.4588 174.335 68.4073 174.807 68.2223 175.292L68.2223 175.291Z" fill="#E1B189"/>
<path d="M44.5988 179.184C42.9084 179.071 41.281 178.391 40.3403 176.942C39.4238 177.002 38.0201 176.932 36.844 176.174C36.1331 175.717 35.6029 175.063 35.2843 174.259C34.5374 174.017 33.4425 173.496 32.7931 172.43C32.385 171.761 32.0142 170.622 32.5639 169.002C34.0063 164.754 45.2771 161.98 50.417 163.049C54.2521 163.849 62.6444 166.838 63 166.965C63.0325 166.976 63.0639 166.989 63.0953 167.004C63.4286 167.155 71.2326 170.779 69.3564 175.722C68.9456 176.803 68.2119 177.602 67.2351 178.032C65.8788 178.628 64.1042 178.496 61.9585 177.64L61.4028 177.416C58.9322 176.42 56.5989 175.477 53.9391 176.228C53.2746 176.416 52.4003 176.825 51.4755 177.258C50.018 177.941 48.3662 178.714 46.69 179.046C46.0125 179.18 45.2999 179.231 44.5997 179.184L44.5988 179.184ZM41.1053 174.423C41.5669 174.454 41.9861 174.747 42.1592 175.196C42.8024 176.864 45.0134 176.906 46.2189 176.668C47.6051 176.393 49.1147 175.687 50.4463 175.063C51.4636 174.587 52.4244 174.136 53.28 173.895C56.7378 172.92 59.6987 174.114 62.3106 175.168L62.8575 175.388C64.7487 176.142 65.7513 176.034 66.2589 175.812C66.6375 175.646 66.9088 175.335 67.089 174.862C67.9681 172.547 63.7494 169.983 62.1341 169.232C61.4219 168.979 53.4463 166.159 49.9221 165.424C45.418 164.483 35.7041 167.296 34.8599 169.782C34.5603 170.664 34.7857 171.04 34.8603 171.163C35.2044 171.736 36.1327 172.006 36.4306 172.055C36.922 172.136 37.3224 172.51 37.4275 172.998C37.8585 174.997 40.4766 174.509 40.7744 174.448C40.8854 174.424 40.9962 174.418 41.1052 174.425L41.1053 174.423Z" fill="#591224"/>
<path d="M48.3154 170.016C46.2034 170.873 43.8681 172.042 42.6118 173.97C42.2574 174.556 42.1519 175.14 42.2406 175.649C42.3566 176.319 41.9075 176.957 41.2379 177.072C40.3977 177.232 39.65 176.444 39.8158 175.616C40.3858 171.637 44.9981 170.503 48.3154 170.016Z" fill="#591224"/>
<path d="M44.0156 167.462C41.7713 168.387 39.2503 169.544 37.7864 171.5C37.4446 172.008 37.2511 172.556 37.444 173.095C37.6655 173.738 37.3224 174.44 36.6789 174.661C36.0353 174.883 35.3341 174.54 35.1126 173.896C34.9165 173.134 35.0935 172.249 35.4233 171.585C37.0163 168.742 41.0854 167.953 44.0156 167.462Z" fill="#591224"/>
<path d="M46.503 158.358C46.7802 159.631 47.1291 160.912 47.5457 162.197C48.2016 163.328 48.9347 164.223 49.6501 164.934C55.2581 170.51 64.3181 169.288 66.1518 169.007C67.3986 167.755 68.8899 166.096 70.3828 164.004C71.5319 162.39 72.6865 160.519 73.7252 158.386C73.9197 157.983 74.1065 157.584 74.2823 157.188C74.5915 156.671 74.8709 156.141 75.1169 155.601C75.7923 154.111 76.2595 152.547 76.5985 150.952C76.7202 150.385 76.8271 149.818 76.9185 149.245C76.9375 149.135 76.9567 149.021 76.9718 148.907C77.0205 149.208 77.0654 149.503 77.1101 149.803C77.1007 149.15 77.1006 148.52 77.1191 147.909C77.1207 147.823 77.1231 147.738 77.1246 147.653C77.1443 147.012 77.1853 146.399 77.2476 145.817C77.314 145.172 77.4122 144.56 77.5491 143.99L77.8834 143.493L88.9828 126.951C88.9645 126.939 88.9463 126.926 88.928 126.914C79.8657 120.825 70.8275 119.504 63.185 121.766C51.395 125.84 43.2727 140.449 46.1952 156.81L46.5029 158.359L46.503 158.358Z" fill="#F6BD60"/>
<path d="M88.7148 127.344C77.9433 121.248 65.0893 118.493 55.4297 128.075C46.6448 136.686 44.8115 150.453 48.596 161.855L48.5008 161.641C48.9061 162.34 49.3755 162.998 49.9066 163.601C53.8585 168.02 60.3903 168.755 65.99 167.963L65.4026 168.262C67.0208 166.654 68.4895 164.898 69.8139 163.044C72.4629 159.32 74.4328 155.121 75.5939 150.701C76.1956 148.466 76.6639 146.229 77.2465 143.969C77.3178 143.649 77.8175 143.68 77.8477 144.009C78.1243 146.394 77.842 148.802 77.3053 151.132C76.1763 155.792 74.1868 160.245 71.4831 164.204C70.1339 166.193 68.5843 168.041 66.8989 169.75C66.7342 169.918 66.5268 170.017 66.3115 170.049C64.5044 170.329 62.6808 170.434 60.8503 170.358C55.2487 170.212 49.4516 167.82 46.5901 162.75C46.0027 161.18 45.611 159.522 45.275 157.876C43.6543 149.983 44.489 141.53 48.0711 134.264C52.407 125.278 61.3563 118.673 71.6116 119.457C74.8836 119.635 78.0752 120.43 81.0426 121.664C83.9893 122.896 86.8036 124.507 89.2479 126.555C89.6907 126.929 89.2204 127.621 88.714 127.343L88.7148 127.344Z" fill="#591224"/>
<path d="M139.718 123.741C139.68 124.758 139.127 125.686 138.517 126.502C136.521 129.176 133.726 131.189 130.635 132.473C130.874 131.121 130.9 129.731 130.675 128.343C130.047 124.532 127.679 121.281 125.621 118.012C124.078 115.568 122.645 112.868 122.247 110.059C122.27 110.057 122.292 110.059 122.314 110.056C122.519 110.055 122.719 110.053 122.923 110.045C123.18 110.04 123.433 110.023 123.694 110.008C123.81 109.997 123.929 109.99 124.044 109.979C124.112 109.973 124.175 109.965 124.242 109.959C124.32 109.953 124.402 109.944 124.481 109.934C124.638 109.919 124.798 109.9 124.956 109.881C125.24 109.844 125.528 109.8 125.818 109.752C125.986 109.723 126.156 109.694 126.325 109.66C126.543 109.619 126.764 109.574 126.987 109.523C127.096 109.5 127.205 109.475 127.318 109.449C127.518 109.403 127.717 109.353 127.918 109.3L132.332 109.013C132.681 109.46 133.013 109.916 133.335 110.379C135.642 113.705 137.322 117.419 138.989 121.11C139.367 121.947 139.75 122.822 139.718 123.741Z" fill="#E1B189"/>
<path d="M183.18 165.784C181.916 168.073 180.05 169.912 177.504 171.074C174.042 172.654 169.619 172.361 165.957 170.56C160.451 167.85 155.622 163.812 151.373 159.158C149.799 157.443 148.305 155.638 146.882 153.788L146.921 153.119L147.846 137.03L151.627 128.537L153.717 123.835L162.867 127.919L176.378 133.95C179.371 137.292 181.739 141.435 183.274 145.757C185.814 152.9 186.09 160.522 183.179 165.783L183.18 165.784Z" fill="#F6BD60"/>
<g opacity="0.25">
<path d="M183.179 165.783C181.915 168.072 180.049 169.912 177.504 171.073C174.041 172.653 169.618 172.36 165.956 170.56C160.451 167.85 155.622 163.811 151.372 159.158C152.25 159.28 153.158 159.39 154.097 159.484L160.863 158.292C164.115 161.026 167.888 163.346 171.964 165.113C173.974 165.983 176.104 166.734 178.299 166.871C180.064 166.982 181.882 166.642 183.179 165.782L183.179 165.783Z" fill="#591224"/>
</g>
<g opacity="0.25">
<path d="M183.275 145.757C182.955 145.125 182.28 144.008 181.004 143.125C180.322 142.653 178.334 141.277 176.253 142.065C174.535 142.715 173.899 144.405 173.864 144.502C173.519 145.463 173.634 146.315 173.716 146.717C174.06 147.111 174.405 147.505 174.75 147.9C173.626 146.885 172.614 146.245 171.919 145.855C170.793 145.224 170.157 145.057 167.956 144.106C166.474 143.466 165.804 143.128 165.075 142.8C160.363 140.679 158.011 141.149 155.278 139.548C153.869 138.722 151.97 137.118 150.479 133.663C154.045 132.697 157.871 131.166 161.634 128.747C162.057 128.475 162.468 128.199 162.868 127.919L176.38 133.951C179.373 137.293 181.74 141.436 183.275 145.758L183.275 145.757Z" fill="#591224"/>
</g>
<path d="M171.477 173.297C169.421 173.159 167.333 172.613 165.411 171.667C158.533 168.282 152.152 162.681 145.902 154.541C145.721 154.305 145.632 154.013 145.649 153.717L146.613 136.961C146.621 136.812 146.657 136.666 146.717 136.53L152.589 123.334C152.721 123.034 152.969 122.8 153.275 122.683C153.581 122.566 153.922 122.576 154.221 122.708L176.882 132.823C177.041 132.894 177.182 132.998 177.298 133.126C184.298 140.936 187.888 152.605 186.028 161.502C184.964 166.594 182.194 170.293 178.015 172.199C176.062 173.09 173.789 173.452 171.477 173.297L171.477 173.297ZM148.142 153.399C154.065 161.034 160.074 166.288 166.502 169.451C169.94 171.143 173.959 171.335 176.991 169.952C181.33 167.972 182.986 163.989 183.612 160.997C185.278 153.022 181.927 142.121 175.633 134.97L154.343 125.468L149.066 137.329L148.142 153.399Z" fill="#591224"/>
<g opacity="0.25">
<path d="M128.656 87.508C127.152 89.0845 125.983 89.8208 125.983 89.8208C124.433 82.5927 128.248 74.3477 131.157 69.4022C131.192 69.3847 131.225 69.3661 131.257 69.3476C129.069 76.6671 128.586 82.976 128.656 87.508Z" fill="#591224"/>
</g>
<path d="M132.899 68.5341C132.899 68.5341 133.957 59.0892 124.283 56.2907C114.99 53.6023 108.204 61.4161 107.304 68.51C106.359 75.9634 108.999 80.8391 114.074 84.1973C119.374 87.705 125.846 88.0753 125.846 88.0753L132.899 68.5349L132.899 68.5341Z" fill="#F8D5B5"/>
<path d="M125.846 88.0743C125.846 88.0743 119.375 87.7048 114.075 84.1988C110.261 81.6765 107.822 78.2933 107.249 73.609C107.055 72.0565 107.068 70.3628 107.305 68.5107C108.202 61.4165 114.989 53.6028 124.282 56.2904C133.958 59.0907 132.9 68.533 132.9 68.533L130.827 74.2727L125.846 88.0743Z" fill="#F8D5B5"/>
<path d="M125.847 88.0748C125.847 88.0748 119.375 87.7053 114.076 84.1994C110.262 81.677 107.823 78.2938 107.25 73.6095C108.301 74.3526 109.703 74.9151 110.868 73.8941C111.967 72.9333 111.699 70.2096 113.85 66.2494C116.142 62.0324 126.791 60.5 130.827 74.274L125.847 88.0756L125.847 88.0748Z" fill="#E1B189"/>
<path d="M125.726 89.2094C125.028 89.1627 118.739 88.6512 113.445 85.1472C107.61 81.286 105.231 75.7966 106.173 68.3654C106.758 63.7488 109.494 59.3217 113.313 56.8111C116.687 54.5926 120.591 54.0336 124.6 55.1937C135.076 58.2252 134.045 68.556 134.033 68.6597L134.018 68.7939L126.63 89.2608L125.78 89.2122C125.77 89.2115 125.752 89.2103 125.726 89.2086L125.726 89.2094ZM121.346 56.916C118.935 56.7546 116.629 57.3616 114.566 58.7174C111.339 60.8396 108.932 64.7395 108.437 68.6521C107.603 75.2263 109.595 79.8637 114.704 83.2449C118.588 85.8151 123.213 86.6199 125.075 86.8507L131.777 68.2847C131.859 67.1853 132.102 59.7388 123.966 57.3851C123.084 57.1302 122.208 56.9737 121.346 56.916Z" fill="#591224"/>
<path d="M125.726 89.2094C125.028 89.1627 118.739 88.6512 113.445 85.1472C107.61 81.286 105.231 75.7966 106.173 68.3654C106.758 63.7488 109.494 59.3217 113.313 56.8111C116.687 54.5926 120.591 54.0336 124.6 55.1937C135.076 58.2252 134.045 68.556 134.033 68.6597L134.018 68.7939L126.63 89.2608L125.78 89.2122C125.77 89.2115 125.752 89.2103 125.726 89.2086L125.726 89.2094ZM121.346 56.916C118.935 56.7546 116.629 57.3616 114.566 58.7174C111.339 60.8396 108.932 64.7395 108.437 68.6521C107.603 75.2263 109.595 79.8637 114.704 83.2449C118.588 85.8151 123.213 86.6199 125.075 86.8507L131.777 68.2847C131.859 67.1853 132.102 59.7388 123.966 57.3851C123.084 57.1302 122.208 56.9737 121.346 56.916Z" fill="#591224"/>
<path d="M112.269 70.0386C111.14 77.9882 122.847 85.6218 127.739 78.4467L128.911 75.9721C131.237 63.6044 118.725 57.4904 113.851 66.2485C113.851 66.2485 113.432 67.0433 112.995 68.0558C112.603 68.9619 112.269 70.0386 112.269 70.0386Z" fill="#F28475"/>
<path d="M128.91 75.9729L127.738 78.4475C122.847 85.621 111.14 77.989 112.268 70.0378C112.268 70.0378 112.603 68.9636 112.993 68.0558C113.431 67.0441 113.85 66.2485 113.85 66.2485C114.028 65.9311 114.214 65.6308 114.413 65.3539C114.675 64.9741 114.957 64.6305 115.256 64.3229C120.755 58.582 131.04 64.6613 128.91 75.9729Z" fill="#F28475"/>
<path d="M128.91 75.9729L127.738 78.4475C122.847 85.621 111.14 77.989 112.268 70.0378C112.268 70.0378 112.603 68.9636 112.993 68.0558C113.431 67.0441 113.85 66.2485 113.85 66.2485C114.028 65.9311 114.214 65.6309 114.413 65.3539C114.413 65.3539 111.724 70.9926 116.457 72.8266C121.13 74.6358 124.44 69.3738 123.081 66.5638C120.53 61.2992 115.258 64.3247 115.258 64.3247L115.256 64.3245C120.755 58.5828 131.04 64.6613 128.91 75.9729Z" fill="#FAC0C0"/>
<path d="M112.269 70.04C111.831 77.0346 122.376 84.0712 126.721 77.9653L127.883 75.4858L127.793 75.7635C128.176 73.7279 128.181 71.6371 127.663 69.683C126.729 65.8373 123.206 62.281 119.022 62.8179C116.893 63.0669 115.086 64.502 113.852 66.2509C115.179 62.8426 118.766 60.7727 122.402 61.6731C128.72 63.1553 131.445 70.6397 129.941 76.4622L128.758 78.932C123.168 87.3567 110.176 78.4957 112.27 70.0417L112.269 70.04Z" fill="#591224"/>
<path d="M125.98 81.212C124.5 79.9781 122.286 76.9309 123.443 74.4668C125.016 71.1141 129.508 73.2422 129.508 73.2422" fill="#F8D5B5"/>
<path d="M125.432 81.8692C123.651 80.3846 121.326 76.9642 122.667 74.1035C123.154 73.0661 123.915 72.3556 124.93 71.9906C127.143 71.1965 129.763 72.4171 129.873 72.4692L129.141 74.0153C128.99 73.9446 125.404 72.2985 124.216 74.8293C123.342 76.6927 125.078 79.3471 126.527 80.554L125.432 81.8683L125.432 81.8692Z" fill="#591224"/>
<path d="M134.081 64.9527C134.081 64.9527 123.579 78.6085 125.984 89.8213C125.984 89.8213 131.743 86.1956 134.11 77.8263C136.477 69.4562 134.081 64.9527 134.081 64.9527Z" fill="#F6BD60"/>
<g opacity="0.25">
<path d="M128.656 87.508C127.152 89.0845 125.983 89.8208 125.983 89.8208C124.433 82.5927 128.248 74.3477 131.157 69.4022C131.192 69.3847 131.225 69.3661 131.257 69.3476C129.069 76.6671 128.586 82.976 128.656 87.508Z" fill="#591224"/>
</g>
<path d="M134.08 64.9525C130.962 71.7718 127.137 78.9851 126.19 86.4831C126.06 87.571 126.002 88.6728 125.983 89.8212C122.605 81.6868 127.991 70.5219 134.08 64.9525Z" fill="#591224"/>
<path d="M167.9 23.8166C181.433 24.0028 198.01 27.1092 200.384 28.5107C213.983 36.5439 244.272 56.4212 233.583 97.7132C226.889 122.276 214.557 149.592 156.201 132.115L129.248 117.94C105.035 98.8817 114.586 82.3437 120.445 79.1535C122.031 62.1311 126.659 45.6907 138.282 35.5688C148.323 26.8241 162.443 23.7416 167.9 23.8167L167.9 23.8166Z" fill="#F6BD60"/>
<path d="M114.205 88.0483C112.216 95.3422 114.281 106.158 129.247 117.941L156.202 132.116C202.205 145.893 219.608 131.835 228.192 113.228C230.497 108.236 232.164 102.915 233.582 97.7149C244.272 56.4221 213.983 36.5465 200.386 28.5109C198.011 27.111 181.434 24.0021 167.9 23.8168C162.441 23.7416 148.323 26.8242 138.281 35.5714C126.66 45.6933 122.03 62.1337 120.445 79.1544C118.205 80.374 115.429 83.5375 114.204 88.0499L114.205 88.0483Z" fill="#F6BD60"/>
<g opacity="0.25">
<path d="M114.205 88.0482C112.216 95.3421 114.281 106.158 129.247 117.941L156.203 132.115C202.206 145.892 219.609 131.835 228.193 113.228L213.095 118.037C213.095 118.037 201.485 137.398 158.135 122.849C125.896 112.029 116.774 96.4992 114.205 88.049L114.205 88.0482Z" fill="#591224"/>
</g>
<path d="M183.462 138.639C175.313 138.094 166.143 136.283 155.873 133.208C155.803 133.187 155.735 133.159 155.67 133.124L128.717 118.949C128.655 118.917 128.597 118.879 128.543 118.835C114.298 107.625 111.955 97.6085 112.497 91.1808C113.013 85.0607 116.319 80.4246 119.364 78.4686C121.362 57.9311 127.308 43.6127 137.533 34.7078C148.062 25.5371 162.806 22.605 167.915 22.6751C181.026 22.8553 198.097 25.8339 200.964 27.528C209.051 32.3056 219.321 39.1744 227.02 49.977C236.803 63.7036 239.383 79.8602 234.687 97.9982C230.879 111.975 225.493 125.931 211.969 133.442C204.349 137.673 194.915 139.405 183.462 138.639ZM156.634 131.054C180.665 138.236 198.405 138.365 210.861 131.448C223.648 124.348 228.809 110.894 232.483 97.4136C243.399 55.2458 210.587 35.8623 199.805 29.4926C197.803 28.3101 181.698 25.1465 167.885 24.9565C163.048 24.8899 149.069 27.6865 139.031 36.4289C129.175 45.0135 123.467 59.0234 121.581 79.2598C121.546 79.6382 121.324 79.9742 120.991 80.156C118.769 81.3659 115.278 85.3517 114.77 91.3736C114.276 97.2314 116.498 106.424 129.872 116.98L156.634 131.055L156.634 131.054Z" fill="#591224"/>
<path d="M159.584 45.0453C148.938 40.3825 138.853 44.9811 133.651 52.9922C125.948 64.8562 125.656 80.8522 125.656 80.8522C125.656 80.8522 119.386 82.3501 117.172 91.7275C115.507 98.7826 118.629 118.678 151.861 130.734C185.523 142.837 203.098 133.233 207.615 120.817C210.808 112.041 205.793 106.069 205.793 106.069C205.793 106.069 216.928 94.3579 215.124 77.875C213.984 67.4518 203.713 59.5693 196.717 57.2587C187.723 54.2875 177.095 56.8855 169.516 65.7884C169.865 56.846 167.327 48.4353 159.584 45.0444L159.584 45.0453Z" fill="#F8D5B5"/>
<path d="M119.339 95.4932C119.427 98.8302 120.543 103.314 123.548 107.995C128.907 116.343 138.995 123.389 152.72 128.368C158.786 130.549 164.572 132.094 169.91 132.956C169.91 132.956 169.912 132.956 169.914 132.957C179.648 134.529 188.154 133.835 194.512 130.949C198.672 129.061 201.346 126.553 203.064 124.122C203.064 124.122 189.71 135.897 151.916 124.249C124.389 115.765 119.338 95.4932 119.338 95.4932L119.339 95.4932Z" fill="#E1B189"/>
<path d="M175.815 137.327C168.87 136.862 160.784 135.153 151.476 131.807C136.78 126.476 126.35 119.129 120.471 109.971C115.739 102.6 115.091 95.5783 116.063 91.4645C117.943 83.4956 122.615 80.8148 124.546 80.0283C124.713 76.5806 125.8 62.9896 132.696 52.3695C137.816 44.484 148.258 38.8377 160.043 43.9981C166.64 46.8875 170.354 53.5389 170.668 62.8848C178.016 55.7158 187.897 53.1425 197.077 56.1741C204.324 58.5679 215.066 66.8437 216.259 77.749C217.868 92.4471 209.659 103.309 207.253 106.142C208.57 108.149 211.415 113.71 208.688 121.206C205.299 130.523 194.855 138.6 175.816 137.326L175.815 137.327ZM152.237 44.353C144.603 43.8419 138.172 48.1235 134.608 53.6124C127.179 65.0535 126.8 80.7151 126.797 80.8725C126.787 81.3919 126.427 81.8398 125.921 81.961C125.699 82.0175 120.29 83.481 118.282 91.9896C117.458 95.4805 118.04 101.962 122.39 108.74C127.914 117.344 138.239 124.579 152.25 129.662C185.495 141.615 202.275 132.158 206.543 120.427C209.458 112.414 205.104 107.026 204.917 106.8C204.549 106.356 204.569 105.702 204.967 105.284C205.074 105.171 215.713 93.7361 213.991 77.9994C212.907 68.1001 203.028 60.5449 196.36 58.3425C187.208 55.3185 177.257 58.457 170.385 66.528C170.07 66.8976 169.556 67.0273 169.102 66.851C168.649 66.6739 168.358 66.2297 168.377 65.7441C168.601 60.0141 167.697 49.8423 159.128 46.0892C156.758 45.0513 154.446 44.5017 152.237 44.3538L152.237 44.353Z" fill="#591224"/>
<path d="M159.966 96.2883C159.709 96.2785 159.549 96.0081 159.663 95.7769C160.004 95.0822 160.745 93.9391 161.858 94.1189C163.332 94.3569 163.085 95.6236 162.84 95.9457C162.556 96.3206 162.113 96.4693 161.366 96.3869C160.907 96.3363 160.364 96.3032 159.966 96.2891L159.966 96.2883Z" fill="#591224"/>
<path d="M156.126 95.031C156.339 95.1755 156.628 95.0522 156.673 94.7981C156.809 94.0366 156.887 92.6757 155.884 92.1631C154.554 91.4835 154.004 92.6511 154.011 93.0547C154.019 93.5255 154.288 93.9068 154.939 94.2822C155.339 94.513 155.797 94.8074 156.126 95.031Z" fill="#591224"/>
<path d="M168.403 27.0846C167.289 23.4922 160.986 21.8766 163.17 19.9832C167.552 16.1839 177.996 22.444 178.069 21.641C178.646 15.2595 182.321 11.5058 184.831 12.9653C185.574 13.3975 191.897 21.6038 201.335 28.9511C206.251 32.0747 213.994 37.6861 220.335 43.7187" fill="#F6BD60"/>
<path d="M168.403 27.0838C167.382 25.4818 165.586 24.639 164.043 23.6971C163.339 23.2651 162.429 22.7405 161.883 21.916C160.688 20.0916 162.686 18.4221 164.326 17.938C165.82 17.4641 167.274 17.5497 168.627 17.7042C172.017 18.1079 174.967 19.5148 178.01 20.5762C177.603 20.534 177.153 20.8315 176.996 21.2564C176.968 21.3309 176.948 21.4084 176.938 21.4832C176.927 21.596 176.937 21.5055 176.934 21.5268C176.944 21.4322 176.966 21.2163 176.977 21.1183C177.366 18.0181 178.323 14.9086 180.759 12.711C181.929 11.6472 183.903 11.0511 185.402 11.9793C185.506 12.0459 185.644 12.144 185.725 12.2232C186.252 12.6939 186.659 13.228 187.115 13.7064C188.329 15.0775 189.694 16.5724 190.945 17.8929C194.271 21.431 198.461 25.2741 201.945 27.9883C208.768 32.3984 215.197 37.3238 221.119 42.892L219.547 44.5444C213.744 39.0795 207.323 34.1796 200.633 29.8505C195.561 25.8961 190.973 21.4101 186.689 16.6483C185.987 15.9053 184.901 14.5934 184.189 13.9079C182.664 13.2899 181.032 15.581 180.358 17.1326C179.736 18.5135 179.37 20.065 179.221 21.5946C179.206 22.3707 178.577 22.9142 177.835 22.8488C176.934 22.7346 176.115 22.299 175.358 22.031C171.897 20.76 167.038 18.6007 163.886 20.966C163.903 20.9347 163.911 20.8241 163.894 20.7625C163.838 20.6293 163.866 20.7946 163.998 20.966C164.261 21.332 164.732 21.7584 165.181 22.1891C166.562 23.5 168.254 25.0541 168.404 27.0847L168.403 27.0838Z" fill="#591224"/>
<path d="M203.481 112.278C204.055 110.492 201.864 108.19 198.586 107.136C195.308 106.081 192.185 106.674 191.611 108.46C191.036 110.246 193.228 112.548 196.506 113.602C199.784 114.657 202.906 114.064 203.481 112.278Z" fill="#F28475"/>
<path d="M131.747 88.5443C132.322 86.7585 130.656 84.6252 128.026 83.7795C125.397 82.9337 122.799 83.6957 122.225 85.4814C121.651 87.2672 123.317 89.4005 125.946 90.2462C128.576 91.092 131.173 90.33 131.747 88.5443Z" fill="#F28475"/>
<path d="M172.478 120.474C177.331 119.004 183.097 113.878 180.682 108.236C177.197 101.501 170.277 106.723 161.115 104.001C154.416 102.01 152.782 99.0651 149.212 100.827C146.599 102.116 143.969 107.809 147.978 113.25C152.517 119.409 164.158 122.777 172.478 120.474Z" fill="#591224"/>
<path d="M172.478 120.477C164.157 122.777 152.516 119.41 147.976 113.252C143.969 107.809 146.6 102.115 149.21 100.826C150.956 99.9643 152.236 100.228 153.875 100.957C155.589 101.714 157.687 102.983 161.115 104C166.444 105.583 171.016 104.481 174.591 104.607C177.163 104.693 179.225 105.419 180.682 108.236C183.098 113.877 177.332 119.002 172.478 120.477Z" fill="#591224"/>
<path d="M159.685 108.277C154.135 106.487 153.397 103.614 153.875 100.956C155.589 101.714 157.687 102.983 161.115 103.999C166.444 105.583 171.016 104.481 174.591 104.606C174.208 110.879 166.124 110.349 159.684 108.278L159.685 108.277Z" fill="white"/>
<path d="M153.543 117.88C159.062 120.898 166.597 122.102 172.48 120.472C172.534 120.456 172.589 120.439 172.648 120.422C171.755 117.105 168.823 114.982 165.397 116.024C161.299 113.229 155.925 114.512 153.544 117.88L153.543 117.88Z" fill="#F28475"/>
<path d="M165.098 113.146C165.098 113.146 167.967 115.701 166.959 115.761C165.767 115.833 163.57 116.631 162.95 117.779C162.95 117.779 163.131 114.999 165.097 113.146L165.098 113.146Z" fill="#591224"/>
<path d="M164.865 122.011C157.855 121.542 150.718 118.411 147.289 113.758C145.314 111.077 144.621 107.98 145.336 105.036C145.882 102.792 147.255 100.838 148.834 100.06C151.431 98.7789 153.215 99.6557 155.683 100.87C157.112 101.573 158.892 102.449 161.359 103.181C164.949 104.248 168.201 104.044 171.071 103.864C175.392 103.592 179.122 103.359 181.442 107.843L181.469 107.9C182.36 109.981 182.311 112.195 181.328 114.305C179.685 117.83 175.824 120.355 172.727 121.294L172.707 121.3C170.26 121.977 167.572 122.193 164.866 122.012L164.865 122.011ZM151.541 101.154C150.921 101.112 150.307 101.241 149.591 101.595C148.654 102.057 147.489 103.425 146.999 105.441C146.655 106.856 146.414 109.686 148.667 112.743C152.969 118.581 164.201 121.873 172.24 119.653C174.972 118.822 178.359 116.625 179.777 113.583C180.554 111.913 180.599 110.237 179.908 108.601C178.1 105.137 175.343 105.31 171.177 105.571C168.166 105.76 164.753 105.975 160.871 104.822C158.266 104.047 156.415 103.137 154.928 102.406C153.505 101.706 152.515 101.219 151.54 101.154L151.541 101.154Z" fill="#591224"/>
<path d="M169.525 95.1969C179.002 85.1163 193.289 82.5567 195.536 97.6127L169.525 95.1969Z" fill="#F8D5B5"/>
<path d="M169.525 95.1971C172.521 89.8684 177.966 85.7116 184.171 85.0445C189.564 84.4758 194.34 87.697 195.423 93.0533C195.746 94.5853 195.784 96.1199 195.536 97.6129C194.273 95.1536 193.025 92.6364 190.971 90.9494C184.716 85.9312 175.432 91.5821 169.524 95.197L169.525 95.1971Z" fill="#591224"/>
<path d="M151.442 89.2484C150.164 73.1532 142.572 71.6197 135.464 80.0133L151.442 89.2484Z" fill="#F8D5B5"/>
<path d="M151.441 89.2482C150.163 86.0099 149.323 82.8688 147.629 79.99C146.215 77.5247 144.315 76.1367 141.397 77.11C139.353 77.7412 137.466 78.9702 135.463 80.0132C135.851 78.8373 136.457 77.7738 137.215 76.791C139.276 74.0192 143.16 72.1492 146.522 73.8234C151.768 76.5801 152.475 84.0661 151.441 89.2482Z" fill="#591224"/>
<path d="M176.038 105.025C179.941 108.008 183.777 110.013 187.39 111.254C188.272 111.554 189.137 111.81 189.988 112.025C192.824 112.738 195.493 112.982 197.917 112.867C199.582 112.791 201.132 112.544 202.542 112.166C203.96 111.788 205.235 111.273 206.341 110.663C214.203 106.319 221.772 90.5086 221.342 86.7182C220.646 80.6048 208.443 74.6974 198.206 72.0486C195.628 71.3833 193.171 70.9219 191.061 70.7175C189.887 70.6024 188.78 70.5283 187.736 70.4858C185.567 70.3945 183.671 70.4434 182.026 70.5796C179.459 70.7942 177.505 71.2159 176.078 71.6553C173.844 72.3394 172.892 73.0578 172.892 73.0578C172.892 73.0578 161.734 94.0943 176.039 105.026L176.038 105.025Z" fill="#591224"/>
<g opacity="0.4">
<path d="M187.736 70.4852L197.917 112.867C199.582 112.791 201.132 112.544 202.542 112.166L198.206 72.0481C195.628 71.3828 193.171 70.9213 191.06 70.717C189.886 70.6019 188.779 70.5278 187.736 70.4852Z" fill="white"/>
</g>
<g opacity="0.4">
<path d="M176.078 71.6539L187.391 111.254C188.273 111.553 189.137 111.81 189.989 112.024L182.026 70.5782C179.459 70.7929 177.505 71.2145 176.078 71.6539Z" fill="white"/>
</g>
<path d="M117.059 80.3686C118.981 85.4525 124.994 91.2483 135.926 92.1155C136.626 92.1731 137.345 92.2088 138.086 92.2194C138.439 92.2289 138.799 92.2282 139.164 92.2261C141.254 92.2067 143.126 91.8178 144.804 91.1529C146.118 90.6346 147.313 89.9465 148.399 89.1383C156.895 82.7861 158.677 68.8583 158.677 68.8583C158.677 68.8583 156.914 63.4507 146.314 58.0586C145.35 57.5694 144.268 57.0996 143.103 56.665C139.937 55.4759 136.173 54.5362 132.542 54.0866C131.277 53.9305 130.023 53.8317 128.821 53.8051C126.366 53.7494 124.111 53.9833 122.318 54.5973C120.976 55.0566 119.894 55.7273 119.179 56.6475C117.241 59.1488 114.501 73.5847 117.058 80.3685L117.059 80.3686Z" fill="#591224"/>
<g opacity="0.4">
<path d="M132.542 54.086L144.804 91.1523C146.117 90.6339 147.312 89.9458 148.399 89.1377L143.103 56.6644C139.937 55.4753 136.173 54.5356 132.542 54.0859L132.542 54.086Z" fill="white"/>
</g>
<g opacity="0.4">
<path d="M122.318 54.5971L135.926 92.1153C136.626 92.1729 137.345 92.2086 138.086 92.2192L128.822 53.805C126.366 53.7492 124.112 53.9832 122.318 54.5971Z" fill="white"/>
</g>
<path d="M194.933 114.341C189.095 113.95 182.233 111.654 175.124 106.221C168.813 101.398 166.215 93.9619 167.612 84.7156C168.64 77.9139 171.442 72.5731 171.561 72.3489C171.665 72.1534 171.81 71.9832 171.987 71.8507C172.204 71.6877 177.443 67.882 191.206 69.2157C201.781 70.2406 221.823 77.5995 222.841 86.5496C223.361 91.115 215.258 107.461 207.072 111.983C204.077 113.637 199.873 114.671 194.934 114.341L194.933 114.341ZM174.052 74.1049C172.749 76.7914 164.795 94.5363 176.953 103.827C188.923 112.973 199.872 112.516 205.612 109.345C213.182 105.164 220.166 89.7133 219.845 86.8907C219.117 80.4973 201.299 73.2218 190.914 72.2163C180.106 71.1699 175.174 73.4708 174.052 74.1049Z" fill="#591224"/>
<path d="M136.265 93.6512C124.364 92.8544 117.75 86.465 115.651 80.8998C112.97 73.7893 115.617 58.7863 117.99 55.726C122.941 49.3396 139.75 53.0314 146.998 56.7185C158.029 62.3294 160.033 68.1463 160.113 68.3905C160.183 68.6025 160.204 68.8279 160.175 69.0499C160.144 69.2967 159.368 75.163 156.483 81.1369C152.538 89.3052 146.555 93.6608 139.179 93.7334C138.174 93.7433 137.203 93.7148 136.265 93.652L136.265 93.6512ZM130.288 55.3674C125.726 55.062 121.834 55.6856 120.37 57.5725C118.906 59.4602 115.999 73.282 118.471 79.8361C120.245 84.5427 125.987 89.9412 136.46 90.6433C137.324 90.7012 138.219 90.7271 139.148 90.718C153.057 90.5817 156.646 71.9938 157.126 69.0531C156.59 67.9547 154.071 63.6968 145.63 59.404C141.315 57.2098 135.383 55.7086 130.287 55.3674L130.288 55.3674Z" fill="#591224"/>
<path d="M172.891 73.0547C172.891 73.0547 165.956 67.1764 158.68 68.8575C158.68 68.8575 158.442 71.3565 157.114 75.4623C157.114 75.4623 167.025 75.6174 169.978 80.7919C169.978 80.7919 171.69 75.0803 172.892 73.0548L172.891 73.0547Z" fill="#591224"/>
<path d="M169.876 82.2948C169.378 82.2615 168.922 81.9821 168.669 81.538C166.603 77.9184 159.61 77.013 157.089 76.9687C156.615 76.9626 156.166 76.7261 155.889 76.3375C155.611 75.949 155.533 75.4519 155.681 74.9981C156.932 71.1311 157.178 68.7355 157.181 68.7116C157.244 68.0681 157.712 67.5345 158.341 67.3892C166.262 65.5597 173.559 71.6447 173.866 71.9049C174.426 72.3804 174.563 73.1908 174.188 73.8235C173.28 75.3544 171.882 79.6853 171.42 81.2245C171.247 81.8019 170.746 82.2204 170.148 82.289C170.057 82.2995 169.965 82.3016 169.876 82.2957L169.876 82.2948ZM159.103 74.0901C161.716 74.3678 166.335 75.2105 169.36 77.767C169.817 76.4066 170.404 74.772 170.977 73.5024C169.095 72.1919 164.648 69.5583 160.015 70.1473C159.865 71.0206 159.59 72.365 159.103 74.0901Z" fill="#591224"/>
<path d="M221.076 85.5664C221.076 85.5664 234.556 86.741 236.993 87.9858C239.431 89.2306 238.993 100.359 234.626 100.707C232.049 100.913 232.248 94.1827 232.248 94.1827L219.961 92.3473C219.961 92.3473 222.162 87.3918 221.077 85.5656L221.076 85.5664Z" fill="#591224"/>
<path d="M234.316 102.213C233.658 102.169 233.052 101.898 232.546 101.416C231.157 100.096 230.816 97.3008 230.748 95.483L219.738 93.8384C219.272 93.7691 218.866 93.4856 218.639 93.0731C218.413 92.6606 218.392 92.1665 218.583 91.7364C219.55 89.5524 220.132 86.928 219.781 86.3371C219.492 85.8516 219.499 85.2448 219.799 84.7656C220.1 84.2873 220.639 84.0165 221.207 84.0661C223.507 84.2665 235.11 85.3329 237.679 86.6454C240.236 87.9521 240.248 93.1687 239.655 96.1499C238.928 99.8106 237.138 102.02 234.746 102.211C234.6 102.223 234.457 102.224 234.316 102.215L234.316 102.213ZM222.051 91.1366L232.471 92.6927C233.225 92.8055 233.777 93.4645 233.754 94.2277C233.694 96.348 234.092 98.6955 234.582 99.1962C235.531 99.0457 236.137 97.5276 236.357 96.8689C237.386 93.7916 236.934 89.9483 236.275 89.311C234.865 88.6319 228.161 87.7633 222.871 87.2457C222.825 88.564 222.443 89.9941 222.051 91.1366Z" fill="#591224"/>
<g opacity="0.25">
<path d="M213.094 118.039C213.404 120.251 213.938 121.563 213.938 121.563C219.55 116.468 221.3 107.32 221.833 101.463C221.814 101.427 221.798 101.392 221.782 101.357C219.23 108.763 215.862 114.307 213.095 118.04L213.094 118.039Z" fill="#591224"/>
</g>
<path d="M220.899 99.6968C220.899 99.6968 225.662 91.1968 235.394 94.6479C244.742 97.9629 245.725 108.528 242.233 114.974C238.566 121.747 233.452 124.231 227.218 123.995C220.707 123.749 215.095 120.19 215.095 120.19L220.899 99.6968Z" fill="#F8D5B5"/>
<path d="M215.094 120.188C215.094 120.188 220.706 123.748 227.216 123.996C231.9 124.174 235.954 122.814 239.23 119.255C240.319 118.077 241.322 116.659 242.231 114.974C245.725 108.529 244.74 97.9635 235.393 94.6477C225.659 91.1974 220.897 99.695 220.897 99.695L219.194 105.715L215.093 120.188L215.094 120.188Z" fill="#F8D5B5"/>
<path d="M215.095 120.189C215.095 120.189 220.707 123.749 227.216 123.997C231.901 124.175 235.954 122.815 239.231 119.255C237.911 119.246 236.407 118.876 236.047 117.329C235.706 115.872 237.557 113.764 238.132 109.178C238.744 104.295 230.79 96.655 219.195 105.715L215.095 120.189Z" fill="#E1B189"/>
<path d="M226.575 125.104C220.098 124.67 214.716 121.3 214.484 121.153L213.765 120.697L219.838 99.2565L219.904 99.139C219.956 99.0463 225.258 89.8433 235.775 93.5725C239.8 95 242.711 97.7928 244.193 101.65C245.871 106.016 245.504 111.329 243.236 115.517C239.585 122.259 234.331 125.406 227.175 125.135C226.974 125.128 226.774 125.117 226.575 125.104ZM216.434 119.645C218.109 120.561 222.463 122.677 227.261 122.855C233.55 123.093 237.989 120.416 241.23 114.431C243.16 110.868 243.486 106.172 242.063 102.467C240.828 99.2526 238.39 96.9204 235.012 95.7229C226.799 92.8106 222.539 99.1919 221.955 100.15L216.434 119.646L216.434 119.645Z" fill="#591224"/>
<path d="M226.575 125.104C220.098 124.67 214.716 121.3 214.484 121.153L213.765 120.697L219.838 99.2565L219.904 99.139C219.956 99.0463 225.258 89.8433 235.775 93.5725C239.8 95 242.711 97.7928 244.193 101.65C245.871 106.016 245.504 111.329 243.236 115.517C239.585 122.259 234.331 125.406 227.175 125.135C226.974 125.128 226.774 125.117 226.575 125.104ZM216.434 119.645C218.109 120.561 222.463 122.677 227.261 122.855C233.55 123.093 237.989 120.416 241.23 114.431C243.16 110.868 243.486 106.172 242.063 102.467C240.828 99.2526 238.39 96.9204 235.012 95.7229C226.799 92.8106 222.539 99.1919 221.955 100.15L216.434 119.646L216.434 119.645Z" fill="#591224"/>
<path d="M237.183 113.281C233.372 120.579 219.058 119.94 219.272 111.039L219.774 108.276C225.23 96.5843 239.306 98.9693 238.132 109.178C238.132 109.178 238.006 110.09 237.765 111.195C237.549 112.185 237.185 113.281 237.185 113.281L237.183 113.281Z" fill="#F28475"/>
<path d="M219.774 108.277L219.272 111.039C219.058 119.938 233.372 120.578 237.184 113.28C237.184 113.28 237.547 112.185 237.765 111.195C238.004 110.091 238.131 109.178 238.131 109.178C238.173 108.807 238.197 108.445 238.196 108.096C238.206 107.623 238.176 107.169 238.111 106.733C236.962 98.6645 224.761 97.5814 219.773 108.276L219.774 108.277Z" fill="#FAC0C0"/>
<path d="M219.774 108.277L219.272 111.04C219.058 119.938 233.372 120.578 237.184 113.28C237.184 113.28 237.547 112.185 237.765 111.195C238.004 110.091 238.132 109.178 238.132 109.178C238.173 108.807 238.197 108.446 238.196 108.096C238.196 108.096 237.066 114.4 232.028 113.1C227.054 111.814 227.441 105.452 230.253 103.923C235.525 101.063 238.108 106.733 238.108 106.733L238.111 106.734C236.962 98.6656 224.761 97.5825 219.773 108.277L219.774 108.277Z" fill="#FAC0C0"/>
<path d="M237.184 113.282C233.869 121.543 217.791 121.169 218.163 110.838L218.653 108.074C220.88 102.341 227.602 97.744 233.738 100.273C237.301 101.691 239.053 105.549 238.13 109.179C238.131 108.037 237.983 106.909 237.611 105.879C237.245 104.85 236.654 103.93 235.887 103.22C232.719 100.259 227.644 101.112 224.558 103.762C222.954 105.083 221.706 106.832 220.806 108.759L220.894 108.481L220.38 111.241C220.35 118.962 233.375 119.392 237.183 113.282L237.184 113.282Z" fill="#591224"/>
<path d="M219.085 114.396C221.055 114.253 224.721 113.038 225.23 110.294C225.924 106.56 220.909 105.649 220.909 105.649" fill="#F8D5B5"/>
<path d="M219.147 115.248L219.023 113.541C220.958 113.401 224.002 112.222 224.389 110.137C224.917 107.297 220.925 106.52 220.754 106.489L221.062 104.806C221.185 104.828 224.089 105.376 225.452 107.353C226.076 108.258 226.284 109.3 226.071 110.449C225.481 113.622 221.511 115.077 219.146 115.248L219.147 115.248Z" fill="#591224"/>
<path d="M222.055 96.0063C222.055 96.0063 222.642 113.659 213.937 121.562C213.594 120.587 213.167 119.112 213 117.282C212.56 112.479 214.232 108.769 215.801 105.394C216.906 103.021 218.813 99.584 222.055 96.0063Z" fill="#F6BD60"/>
<g opacity="0.25">
<path d="M213.094 118.039C213.404 120.251 213.938 121.563 213.938 121.563C219.55 116.468 221.3 107.32 221.833 101.463C221.814 101.427 221.798 101.392 221.782 101.357C219.23 108.763 215.862 114.307 213.095 118.04L213.094 118.039Z" fill="#591224"/>
</g>
<path d="M222.055 96.0071C223.754 104.292 221.587 116.766 213.937 121.563C214.607 120.596 215.234 119.656 215.772 118.667C219.485 111.87 220.61 103.55 222.056 96.0072L222.055 96.0071Z" fill="#591224"/>
<path d="M164.545 117.071C164.543 117.017 164.542 116.965 164.54 116.911C164.55 116.967 164.554 117.019 164.545 117.071Z" fill="#E0252C"/>
<path d="M154.317 124.41C158.852 132.505 157.014 142.16 150.209 145.972L145.784 148.451C143.898 149.507 141.832 150.002 139.731 149.998C136.882 149.993 133.969 149.062 131.369 147.349C130.046 146.475 128.8 145.4 127.689 144.14C127.626 144.067 127.565 143.997 127.503 143.927C127.453 143.866 127.403 143.808 127.355 143.75C126.577 142.825 125.869 141.803 125.248 140.695C120.713 132.6 122.554 122.944 129.358 119.132L133.784 116.652C140.589 112.84 149.783 116.315 154.317 124.41Z" fill="#F1C65E" stroke="#591224"/>
<path d="M150.209 145.968C157.014 142.156 158.854 132.502 154.319 124.406C149.783 116.311 140.59 112.839 133.784 116.651C126.979 120.464 125.139 130.118 129.675 138.213C134.21 146.309 143.404 149.781 150.209 145.968Z" fill="#FCDC65" stroke="#591224"/>
<path d="M148.796 143.446C154.209 140.413 155.552 132.521 151.797 125.818C148.041 119.115 140.609 116.139 135.197 119.172C129.784 122.204 128.441 130.096 132.196 136.799C135.952 143.502 143.384 146.478 148.796 143.446Z" fill="#FFA04A"/>
<path d="M148.798 143.446C154.21 140.413 155.553 132.521 151.798 125.818C148.043 119.115 140.611 116.139 135.198 119.172C129.786 122.204 128.442 130.096 132.198 136.799C135.953 143.502 143.385 146.478 148.798 143.446Z" fill="#FFF2C4"/>
<path d="M136.889 132.606C136.889 132.606 136.159 131.257 135.124 131.468C134.129 131.67 134.249 133.147 134.789 134.167C135.356 135.238 135.994 135.74 136.7 135.886C137.438 136.039 138.001 135.694 138.001 135.694L136.889 132.606L136.889 132.606Z" fill="#FCE5D8"/>
<path opacity="0.15" d="M138.025 135.711C138.025 135.711 137.51 136.06 136.791 135.902C136.274 135.788 135.778 135.47 135.3 134.856C135.447 134.894 135.604 134.885 135.595 134.671C135.588 134.47 135.314 134.109 135.106 133.427C134.884 132.701 135.532 131.83 137.112 133.489L138.025 135.711L138.025 135.711Z" fill="#231F20"/>
<path d="M137.337 133.89C137.568 134.455 137.338 135.161 136.796 135.152C136.266 135.143 135.522 134.452 135.263 133.656C135.058 133.027 135.192 132.444 135.563 132.367C136.008 132.275 136.599 132.947 136.963 133.361C137.15 133.575 137.26 133.702 137.337 133.89Z" fill="#FAC1C0"/>
<path d="M136.88 133.951C136.994 134.303 137.326 134.596 137.621 134.605C137.7 134.608 137.768 134.59 137.823 134.555C137.61 134.025 137.453 133.635 137.341 133.354C137.296 133.341 137.251 133.333 137.206 133.332C136.911 133.322 136.765 133.599 136.88 133.951L136.88 133.951Z" fill="#FCE5D8"/>
<path d="M135.412 135.095C136.21 135.977 137.283 136.26 137.999 135.729C137.866 135.358 137.747 135.029 137.642 134.736C137.424 134.128 137.262 133.679 137.147 133.357C136.958 132.831 136.89 132.642 136.89 132.642C136.813 132.515 136.377 131.804 135.744 131.543C135.062 131.262 134.577 131.675 134.418 132.186C134.157 133.025 134.716 134.326 135.412 135.095Z" stroke="#512E18" stroke-miterlimit="10"/>
<path d="M136.924 133.32C136.382 132.51 135.631 132.218 135.301 132.504C134.914 132.838 135.133 133.935 135.734 134.586C136.284 135.18 137.033 135.271 137.349 134.706C136.969 134.582 136.653 134.143 136.622 133.797C136.6 133.553 136.721 133.366 136.924 133.32Z" stroke="#512E18" stroke-miterlimit="10"/>
<path opacity="0.25" d="M136.065 133.657C135.955 133.175 135.676 132.763 135.442 132.738C135.207 132.713 135.105 133.083 135.215 133.565C135.324 134.047 135.603 134.459 135.838 134.484C136.072 134.51 136.174 134.14 136.065 133.657Z" fill="white"/>
<path d="M147.064 131.524C147.064 131.524 147.02 130.193 148.194 130.464C149.322 130.723 150.06 132.217 150.106 133.224C150.153 134.281 149.797 134.756 149.165 134.866C148.504 134.981 147.732 134.6 147.732 134.6L147.063 131.523L147.064 131.524Z" fill="#FCE5D8"/>
<path opacity="0.15" d="M147.694 134.624C147.694 134.624 148.463 135.015 149.088 134.9C149.538 134.818 149.822 134.525 149.883 133.928C149.76 133.958 149.594 133.939 149.454 133.721C149.322 133.515 149.349 133.164 149.088 132.48C148.809 131.752 147.54 130.819 147.081 132.413L147.694 134.624L147.694 134.624Z" fill="#231F20"/>
<path d="M147.344 132.821C147.501 133.384 148.227 134.12 148.775 134.147C149.311 134.173 149.589 133.514 149.3 132.717C149.072 132.087 148.529 131.483 148.096 131.38C147.577 131.256 147.442 131.905 147.358 132.305C147.315 132.511 147.291 132.633 147.344 132.821Z" fill="#FAC1C0"/>
<path d="M147.789 133.009C147.903 133.361 147.757 133.639 147.462 133.629C147.384 133.627 147.302 133.604 147.223 133.565C147.092 133.038 146.995 132.649 146.925 132.37C146.962 132.359 147.003 132.354 147.047 132.356C147.342 132.365 147.674 132.658 147.789 133.01L147.789 133.009Z" fill="#FCE5D8"/>
<path d="M149.998 134.13C149.699 134.983 148.774 135.212 147.738 134.633C147.658 134.264 147.587 133.936 147.524 133.645C147.393 133.038 147.296 132.591 147.226 132.27C147.113 131.747 147.072 131.559 147.072 131.559C147.076 131.433 147.107 130.735 147.598 130.505C148.127 130.256 148.86 130.702 149.318 131.229C150.07 132.096 150.259 133.388 149.998 134.13Z" stroke="#512E18" stroke-miterlimit="10"/>
<path d="M147.422 132.259C147.495 131.466 148.084 131.21 148.589 131.518C149.18 131.879 149.606 132.982 149.379 133.61C149.172 134.184 148.465 134.236 147.81 133.644C148.122 133.539 148.184 133.11 148.012 132.761C147.89 132.513 147.656 132.317 147.422 132.259Z" stroke="#512E18" stroke-miterlimit="10"/>
<path opacity="0.25" d="M149.229 133.482C149.463 133.469 149.52 133.054 149.357 132.554C149.193 132.055 148.871 131.661 148.637 131.675C148.403 131.688 148.346 132.104 148.51 132.603C148.673 133.102 148.995 133.496 149.229 133.482Z" fill="white"/>
<path d="M137.577 125.693C138.217 125.575 138.948 125.495 139.768 125.487C141.273 125.472 142.675 125.702 143.854 125.996C143.812 125.863 143.739 125.583 143.786 125.303C143.863 124.852 144.197 124.747 144.27 124.727C143.17 123.975 142.51 124.265 142.372 124.386C142.147 123.513 141.861 122.99 141.266 122.819C140.684 124.148 139.787 124.52 138.683 124.959C138.35 125.06 137.577 125.693 137.577 125.693L137.577 125.693Z" fill="#F5BD61"/>
<path d="M148.1 134.096C148.195 133.22 148.089 132.239 147.784 131.2C146.954 128.381 144.781 125.915 142.361 124.765C142.326 124.748 142.29 124.731 142.255 124.715C142.255 124.715 142.315 124.493 142.648 124.303C142.239 123.83 141.406 123.583 140.938 123.861C140.643 122.553 139.935 122.425 139.935 122.425C139.454 123.864 138.299 124.238 138.299 124.238C138.273 124.245 138.247 124.253 138.221 124.26C135.845 124.967 134.721 127.634 135.674 130.87C135.981 131.915 136.473 132.911 137.094 133.81C136.879 134.356 136.85 134.973 137.043 135.63C137.737 137.988 141.031 139.974 144.401 140.065C147.77 140.157 149.94 138.321 149.246 135.963C149.051 135.3 148.65 134.666 148.1 134.096L148.1 134.096Z" fill="#FFAE64"/>
<path opacity="0.25" d="M135.796 129.853C135.796 129.853 135.353 125.627 138.884 125.046C140.454 124.788 141.108 123.408 141.108 123.408C141.483 123.74 141.761 124.194 141.761 124.194C142.553 124.134 143.054 124.473 143.054 124.473C142.758 124.719 142.802 125.226 142.802 125.226C144.054 125.626 147.208 127.041 149.195 130.965C147.975 128.534 146.99 126.911 143.281 124.924C143.362 124.633 143.706 124.49 143.706 124.49C142.702 123.693 141.994 123.902 141.808 124.018C141.478 123.037 141.292 122.808 140.67 122.499C140.112 124.058 139.067 124.385 138.497 124.542C137.928 124.699 136.603 125.491 136.079 126.852C135.554 128.213 135.796 129.853 135.796 129.853L135.796 129.853Z" fill="white"/>
<path opacity="0.15" d="M149.128 135.871C149.433 137.387 148.601 139.686 143.562 139.935L143.561 139.935C138.263 139.398 135.889 137.009 135.193 135.482C135.026 135.117 134.923 134.779 134.878 134.474C135.755 135.297 137.081 135.532 141.527 133.761C147.243 135.819 148.432 135.65 148.776 134.857C148.934 135.166 149.054 135.507 149.128 135.871L149.128 135.871Z" fill="#231F20"/>
<path d="M148.1 134.096L148.588 134.357L148.609 134.312L148.614 134.261L148.1 134.096ZM142.361 124.765L142.497 124.384L142.496 124.383L142.361 124.765ZM142.255 124.715L141.749 124.501L141.647 124.878L142.126 125.1L142.255 124.715ZM142.648 124.303L143.01 124.7L143.367 124.497L143.029 124.107L142.648 124.303ZM140.938 123.861L140.431 123.819L140.62 124.66L141.305 124.254L140.938 123.861ZM139.935 122.425L139.895 121.986L139.527 121.919L139.435 122.194L139.935 122.425ZM138.299 124.238L138.573 124.671L138.582 124.668L138.591 124.665L138.299 124.238ZM138.221 124.26L137.94 123.83L137.938 123.831L138.221 124.26ZM137.094 133.81L137.589 134.056L137.661 133.875L137.519 133.67L137.094 133.81ZM148.1 134.096L147.612 133.834L147.503 134.07L147.744 134.32L148.1 134.096ZM148.614 134.261C148.715 133.332 148.603 132.3 148.283 131.214L147.284 131.186C147.576 132.178 147.675 133.107 147.585 133.931L148.614 134.261ZM148.283 131.214C147.417 128.27 145.13 125.635 142.497 124.384L142.224 125.146C144.431 126.195 146.492 128.493 147.284 131.186L148.283 131.214ZM142.496 124.383C142.458 124.365 142.421 124.348 142.384 124.33L142.126 125.1C142.159 125.115 142.193 125.131 142.226 125.146L142.496 124.383ZM142.255 124.715C142.76 124.929 142.76 124.929 142.76 124.93C142.76 124.93 142.76 124.93 142.76 124.93C142.76 124.93 142.76 124.93 142.76 124.931C142.76 124.931 142.76 124.931 142.759 124.932C142.759 124.933 142.759 124.933 142.759 124.934C142.758 124.936 142.758 124.937 142.758 124.938C142.757 124.94 142.757 124.941 142.756 124.942C142.756 124.943 142.757 124.941 142.758 124.937C142.762 124.929 142.771 124.912 142.788 124.889C142.821 124.842 142.887 124.77 143.01 124.7L142.287 123.907C142.077 124.026 141.946 124.16 141.866 124.272C141.826 124.328 141.799 124.378 141.781 124.417C141.772 124.437 141.765 124.454 141.76 124.469C141.757 124.476 141.755 124.482 141.753 124.487C141.753 124.49 141.752 124.492 141.751 124.495C141.751 124.496 141.751 124.497 141.75 124.498C141.75 124.498 141.75 124.499 141.75 124.499C141.75 124.5 141.75 124.5 141.75 124.5C141.75 124.5 141.75 124.5 141.75 124.5C141.75 124.501 141.749 124.501 142.255 124.715ZM143.029 124.107C142.715 123.744 142.264 123.492 141.83 123.374C141.393 123.255 140.921 123.259 140.57 123.467L141.305 124.254C141.422 124.184 141.601 124.173 141.8 124.227C142.003 124.281 142.172 124.39 142.267 124.5L143.029 124.107ZM141.444 123.902C141.282 123.183 140.988 122.707 140.649 122.397C140.481 122.243 140.315 122.143 140.177 122.08C140.109 122.048 140.05 122.027 140.002 122.012C139.978 122.005 139.957 122 139.939 121.995C139.93 121.993 139.922 121.991 139.914 121.99C139.911 121.989 139.907 121.988 139.904 121.988C139.902 121.987 139.901 121.987 139.899 121.987C139.899 121.987 139.898 121.986 139.897 121.986C139.897 121.986 139.896 121.986 139.896 121.986C139.895 121.986 139.895 121.986 139.935 122.425C139.976 122.864 139.975 122.863 139.975 122.863C139.975 122.863 139.974 122.863 139.974 122.863C139.973 122.863 139.972 122.863 139.972 122.863C139.97 122.863 139.969 122.862 139.968 122.862C139.965 122.862 139.963 122.861 139.96 122.861C139.956 122.86 139.952 122.859 139.948 122.858C139.941 122.856 139.935 122.854 139.931 122.853C139.923 122.851 139.921 122.85 139.924 122.851C139.928 122.853 139.957 122.867 140.003 122.908C140.091 122.989 140.298 123.231 140.431 123.819L141.444 123.902ZM139.435 122.194C139.215 122.851 138.844 123.259 138.535 123.502C138.38 123.623 138.24 123.703 138.142 123.752C138.094 123.776 138.056 123.792 138.032 123.801C138.02 123.806 138.012 123.809 138.007 123.811C138.005 123.812 138.004 123.812 138.004 123.812C138.004 123.812 138.004 123.812 138.004 123.812C138.005 123.812 138.005 123.812 138.005 123.812C138.005 123.812 138.006 123.812 138.006 123.811C138.006 123.811 138.006 123.811 138.006 123.811C138.006 123.811 138.007 123.811 138.299 124.238C138.591 124.665 138.591 124.665 138.591 124.665C138.591 124.665 138.592 124.665 138.592 124.665C138.592 124.665 138.592 124.665 138.593 124.665C138.593 124.664 138.594 124.664 138.595 124.664C138.596 124.663 138.598 124.663 138.6 124.662C138.605 124.661 138.61 124.659 138.616 124.656C138.629 124.652 138.646 124.646 138.667 124.637C138.708 124.621 138.764 124.597 138.831 124.563C138.965 124.496 139.144 124.393 139.338 124.241C139.727 123.937 140.174 123.438 140.436 122.656L139.435 122.194ZM138.025 123.806C137.995 123.814 137.966 123.823 137.94 123.83L138.502 124.691C138.528 124.683 138.551 124.677 138.573 124.671L138.025 123.806ZM137.938 123.831C135.325 124.607 134.182 127.485 135.174 130.856L136.173 130.883C135.261 127.782 136.364 125.326 138.504 124.69L137.938 123.831ZM135.174 130.856C135.497 131.952 136.014 133.001 136.67 133.95L137.519 133.67C136.933 132.821 136.465 131.877 136.173 130.883L135.174 130.856ZM136.599 133.564C136.359 134.174 136.324 134.87 136.543 135.616L137.542 135.644C137.375 135.076 137.399 134.538 137.589 134.056L136.599 133.564ZM136.543 135.616C137.339 138.319 141.01 140.418 144.533 140.514L144.269 139.617C141.051 139.529 138.134 137.656 137.542 135.644L136.543 135.616ZM144.533 140.514C148.055 140.61 150.541 138.68 149.745 135.977L148.747 135.949C149.339 137.962 147.486 139.705 144.269 139.617L144.533 140.514ZM149.745 135.977C149.524 135.223 149.069 134.508 148.455 133.872L147.744 134.32C148.231 134.824 148.578 135.376 148.747 135.949L149.745 135.977ZM148.588 134.357L148.588 134.357L147.612 133.834L147.612 133.834L148.588 134.357Z" fill="#512E18"/>
<path d="M147.097 134.126C147.758 134.727 148.243 135.416 148.469 136.142C149.153 138.35 147.177 140.07 144.055 139.983C140.932 139.897 137.846 138.037 137.162 135.829C136.938 135.105 137.049 134.555 137.343 133.983C137.263 133.835 135.571 130.642 136.3 128.813C136.41 128.538 136.703 127.804 137.505 127.623C137.996 127.511 138.458 127.657 138.597 127.705C139.795 128.116 140.695 129.411 140.866 129.664C140.876 129.36 140.94 128.403 141.619 127.95C142.693 127.232 144.312 128.441 144.456 128.551C145.912 129.668 147.022 131.937 147.096 134.126L147.097 134.126Z" fill="#FCE5D8"/>
<path opacity="0.15" d="M143.447 139.999L143.446 139.999C140.478 139.916 136.405 137.755 135.623 135.169C135.584 135.042 135.557 134.922 135.54 134.81C136.668 137.158 140.392 139.039 143.157 139.116L143.158 139.116C145.923 139.192 148.473 137.485 148.073 135.157C148.129 135.271 148.181 135.392 148.225 135.519C149.136 138.108 146.414 140.081 143.447 139.999Z" fill="#231F20"/>
<path d="M147.1 134.142C147.762 134.742 148.247 135.431 148.472 136.158C149.157 138.366 147.181 140.085 144.058 139.999C140.936 139.912 137.85 138.052 137.166 135.845C136.942 135.12 137.053 134.571 137.347 133.998C137.267 133.85 135.575 130.658 136.304 128.829C136.414 128.554 136.707 127.82 137.509 127.638C138 127.527 138.462 127.672 138.601 127.72C139.799 128.131 140.699 129.427 140.87 129.679C140.879 129.376 140.944 128.418 141.623 127.965C142.697 127.248 144.316 128.457 144.46 128.567C145.916 129.683 147.025 131.952 147.1 134.142L147.1 134.142Z" stroke="#512E18" stroke-miterlimit="10"/>
<path d="M141.737 134.949C141.843 134.884 141.825 134.704 141.698 134.547C141.571 134.389 141.382 134.314 141.277 134.378C141.171 134.443 141.189 134.623 141.316 134.78C141.443 134.938 141.632 135.013 141.737 134.949Z" fill="#512D16"/>
<path d="M141.533 134.47C141.533 134.47 141.758 134.472 141.975 135.109" stroke="#512D16" stroke-miterlimit="10"/>
<path d="M143.364 134.722C143.342 134.577 143.186 134.403 143.016 134.334C142.846 134.265 142.726 134.327 142.748 134.472C142.769 134.618 142.925 134.791 143.095 134.86C143.265 134.929 143.385 134.868 143.364 134.722Z" fill="#512D16"/>
<path d="M142.88 134.421C142.88 134.421 142.651 134.413 142.807 135.047" stroke="#512D16" stroke-miterlimit="10"/>
<path d="M137.31 135.286C137.715 135.298 137.969 135.077 137.876 134.794C137.784 134.511 137.38 134.272 136.975 134.261C136.569 134.249 136.315 134.47 136.408 134.753C136.5 135.036 136.904 135.275 137.31 135.286Z" fill="#FAC1C0"/>
<path d="M147.569 135.076C147.974 135.088 148.228 134.868 148.136 134.584C148.043 134.301 147.639 134.062 147.234 134.051C146.828 134.04 146.574 134.26 146.667 134.543C146.76 134.826 147.163 135.065 147.569 135.076Z" fill="#FAC1C0"/>
<path d="M139.919 134.766C140.379 134.781 140.553 134.175 140.306 133.412C140.059 132.649 139.485 132.019 139.024 132.004C138.563 131.989 138.39 132.596 138.637 133.359C138.884 134.122 139.458 134.752 139.919 134.766Z" fill="#512E18"/>
<path d="M139.885 133.495C140.033 133.5 140.084 133.284 139.999 133.012C139.914 132.741 139.725 132.517 139.576 132.512C139.428 132.508 139.377 132.724 139.462 132.995C139.547 133.266 139.737 133.49 139.885 133.495Z" fill="white"/>
<g opacity="0.2">
<path d="M139.198 134.157C139.28 134.16 139.304 134.015 139.252 133.833C139.2 133.651 139.092 133.502 139.011 133.499C138.929 133.496 138.905 133.641 138.957 133.823C139.009 134.005 139.117 134.155 139.198 134.157Z" fill="white"/>
</g>
<path d="M145.206 134.657C145.666 134.672 145.84 134.065 145.593 133.303C145.346 132.54 144.772 131.91 144.311 131.895C143.851 131.88 143.677 132.486 143.924 133.249C144.171 134.012 144.745 134.642 145.206 134.657Z" fill="#512E18"/>
<path d="M144.559 133.399C144.708 133.404 144.759 133.188 144.673 132.917C144.588 132.645 144.399 132.421 144.25 132.417C144.102 132.412 144.051 132.628 144.136 132.899C144.222 133.171 144.411 133.395 144.559 133.399Z" fill="white"/>
<g opacity="0.2">
<path d="M145.328 134.029C145.409 134.032 145.433 133.887 145.382 133.705C145.33 133.523 145.222 133.374 145.14 133.371C145.059 133.368 145.035 133.514 145.086 133.695C145.138 133.877 145.246 134.027 145.328 134.029Z" fill="white"/>
</g>
<path d="M144.179 137.237C144.067 137.408 143.91 137.535 143.727 137.625C143.48 137.746 143.186 137.799 142.897 137.803C142.575 137.808 142.258 137.751 142.016 137.659C141.921 137.623 141.82 137.577 141.716 137.522C141.199 137.245 140.618 136.747 140.521 136.258C140.509 136.196 140.504 136.133 140.509 136.071C140.535 135.722 140.786 135.662 141.008 135.68C141.193 135.695 141.359 135.763 141.359 135.763C141.728 135.891 141.999 135.94 142.216 135.949C142.437 135.959 142.602 135.929 142.76 135.903C143.027 135.857 143.031 135.793 143.311 135.739C143.358 135.73 143.414 135.721 143.48 135.712C143.699 135.685 143.968 135.883 144.14 136.169C144.141 136.17 144.141 136.17 144.142 136.171C144.328 136.481 144.402 136.894 144.179 137.237L144.179 137.237Z" fill="#512D16"/>
<path d="M143.497 135.762C143.654 136.287 143.384 136.694 142.882 136.676L142.339 136.657C141.864 136.64 141.349 136.252 141.131 135.765C141.309 135.781 141.463 135.842 141.463 135.842C141.854 135.97 142.137 136.014 142.363 136.017C142.583 136.02 142.749 135.985 142.907 135.954C143.186 135.899 143.183 135.828 143.489 135.763C143.492 135.763 143.495 135.762 143.497 135.762Z" fill="white"/>
<path d="M143.7 137.551C143.442 137.679 143.136 137.736 142.835 137.74C142.511 137.75 142.192 137.698 141.945 137.608C141.838 137.57 141.723 137.518 141.605 137.454C141.604 137.451 141.604 137.447 141.604 137.444C141.596 137.329 141.619 137.227 141.669 137.146C141.745 137.024 141.882 136.951 142.062 136.956L142.876 136.98C143.187 136.988 143.525 137.227 143.693 137.539C143.695 137.543 143.698 137.547 143.7 137.551L143.7 137.551Z" fill="#FAC0C0"/>
<path d="M144.188 137.204C144.09 137.366 143.953 137.49 143.791 137.582C143.775 137.591 143.759 137.6 143.743 137.609C143.739 137.611 143.735 137.613 143.731 137.614C143.487 137.739 143.196 137.796 142.909 137.804C142.875 137.805 142.84 137.805 142.806 137.805C142.532 137.801 142.268 137.754 142.057 137.679C141.955 137.642 141.845 137.593 141.731 137.533C141.725 137.53 141.718 137.526 141.711 137.522C141.19 137.244 140.618 136.75 140.538 136.262C140.53 136.213 140.527 136.164 140.529 136.115C140.548 135.751 140.81 135.693 141.036 135.711C141.039 135.711 141.042 135.712 141.044 135.712C141.216 135.727 141.363 135.785 141.363 135.785C141.74 135.908 142.013 135.95 142.23 135.953C142.442 135.956 142.601 135.923 142.753 135.893C143.022 135.841 143.019 135.774 143.314 135.712C143.316 135.711 143.319 135.711 143.322 135.71C143.362 135.702 143.409 135.694 143.462 135.686C143.688 135.651 143.974 135.865 144.151 136.172C144.152 136.173 144.152 136.174 144.152 136.175C144.325 136.477 144.391 136.87 144.188 137.204Z" stroke="#512D16" stroke-miterlimit="10"/>
<path d="M153.864 134.965C153.796 132.507 153.106 129.92 151.746 127.493C147.997 120.8 140.551 117.82 135.148 120.847C132.149 122.527 130.4 125.707 130.078 129.347C129.952 125.025 131.748 121.106 135.197 119.174C140.6 116.147 148.046 119.129 151.796 125.822C153.47 128.81 154.13 132.038 153.864 134.965L153.864 134.965Z" fill="#F6BD60"/>
<path d="M153.359 129.976L153.295 129.95L153.779 129.867C153.639 129.913 153.499 129.948 153.36 129.977L153.359 129.976Z" fill="#FFF3E9"/>
<path d="M147.497 162.532C157.307 175.802 171.681 179.452 178.61 174.726C184.801 170.503 185.612 159.21 184.817 152.654C184.362 148.905 183.288 145.921 182.431 143.963C171.361 149.157 160.29 154.352 149.219 159.547L147.497 162.531L147.497 162.532Z" fill="#F6BD60"/>
<g opacity="0.25">
<path d="M147.498 162.531C154.597 174.952 169.881 180.547 178.61 174.724C185.471 170.145 187.584 161.641 184.95 152.385C184.722 154.242 184.123 155.865 182.762 156.093C181.073 156.372 179.308 153.473 179.308 153.473C179.308 153.473 182.269 168.313 171.969 169.832C157.547 171.959 155.115 158.88 155.115 158.88L149.22 159.546L147.497 162.531L147.498 162.531Z" fill="#591224"/>
</g>
<path d="M136.952 146.139C135.725 151.533 134.893 157.063 139.209 159.968C142.038 161.868 143.954 162.032 147.498 162.532C147.546 162.614 147.593 162.699 147.642 162.78C160.054 160.843 158.888 147.304 157.342 140.457C157.191 140.422 157.048 140.388 156.915 140.357C154.558 138.347 153.619 136.311 148.651 135.094C147.624 134.845 146.747 138.406 145.987 138.575C144.24 138.962 141.978 137.962 139.409 138.284C136.882 138.597 134.338 142.835 136.952 146.139Z" fill="#F8D5B5"/>
<path d="M136.951 146.139C135.725 151.532 134.895 157.062 139.209 159.967C142.037 161.867 143.955 162.032 147.498 162.532C147.546 162.612 147.594 162.699 147.642 162.779C151.08 162.241 153.476 160.815 155.108 158.885C155.112 158.882 155.115 158.882 155.115 158.882C159.377 153.85 158.46 145.405 157.342 140.457C157.19 140.42 157.048 140.386 156.915 140.357C154.558 138.345 153.621 136.309 148.65 135.094C147.623 134.845 146.747 138.405 145.985 138.575C144.238 138.962 141.977 137.961 139.409 138.283C138.631 138.378 137.852 138.846 137.221 139.549C135.804 141.118 135.141 143.852 136.95 146.139L136.951 146.139Z" fill="#F8D5B5"/>
<path d="M136.951 146.139C135.725 151.532 134.895 157.062 139.209 159.967C142.037 161.867 143.955 162.032 147.498 162.532C147.547 162.612 147.594 162.699 147.642 162.779C151.08 162.241 153.476 160.815 155.109 158.885C154.857 158.989 148.756 161.475 142.759 158.054C135.718 154.037 142.676 147.258 142.676 147.258C142.676 147.258 136.996 144.264 137.221 139.549C135.805 141.118 135.141 143.852 136.951 146.139L136.951 146.139Z" fill="#E1B189"/>
<path d="M177.065 149.735C172.264 147.357 167.05 144.541 161.95 142.973C160.212 142.435 158.442 142.013 156.657 141.673C156.428 141.629 156.223 141.528 156.056 141.388C154.977 140.478 154.094 139.487 153.214 138.751C151.834 137.566 150.139 136.891 148.387 136.452L148.332 136.438C148.311 136.431 148.342 136.441 148.361 136.446C148.383 136.45 148.404 136.454 148.425 136.457C148.513 136.465 148.595 136.469 148.678 136.454C149.016 136.382 149.039 136.292 149.034 136.311C148.278 137.245 148.006 138.758 146.942 139.61C146.786 139.751 146.303 139.935 146.174 139.934C145.125 140.152 143.895 139.969 142.951 139.83C141.757 139.657 140.686 139.49 139.525 139.648C138.279 139.905 137.332 141.411 137.204 142.672C137.069 143.635 137.392 144.572 137.997 145.373C138.228 145.685 138.296 146.074 138.216 146.426C137.48 149.937 136.405 153.822 138.163 157.102C139.005 158.581 140.638 159.522 142.156 160.18C143.768 160.854 145.686 161.045 147.665 161.332C148.059 161.387 148.386 161.634 148.563 161.959C151.265 167.011 155.481 171.276 160.636 173.714C166.161 176.356 173.438 177.108 178.527 173.28C182.339 170.069 183.382 164.822 183.77 160.008C184.128 154.263 183.36 148.374 180.864 143.148C180.58 142.542 180.84 141.82 181.447 141.536C182.053 141.251 182.774 141.512 183.06 142.118C184.374 144.919 185.305 147.912 185.782 150.973C186.811 158.276 186.564 167.37 181.808 173.432C178.678 177.252 173.34 178.619 168.642 178.304C159.17 177.716 150.76 171.317 146.427 163.106L147.325 163.733C145.296 163.434 143.214 163.238 141.243 162.448C139.164 161.572 137.193 160.356 136.025 158.369C133.806 154.545 134.865 149.854 135.687 145.85L135.935 146.942C134.954 145.711 134.369 144.011 134.575 142.387C134.859 139.83 136.652 137.264 139.398 136.915C141.503 136.594 143.851 137.45 145.639 137.241C145.653 137.243 145.746 137.214 145.555 137.27C145.448 137.3 145.323 137.385 145.251 137.45C146.132 136.075 146.914 133.019 149.3 133.842C151.357 134.355 153.378 135.238 154.987 136.669C156.066 137.611 156.894 138.575 157.781 139.336L157.167 139.039C164.583 140.63 172.173 143.709 177.063 149.735L177.065 149.735Z" fill="#591224"/>
<path d="M154.097 141.083C148.831 140.515 143.474 139.838 138.189 139.92L138.267 137.496C143.671 138.223 148.854 139.7 154.097 141.083Z" fill="#591224"/>
</g>
<defs>
<clipPath id="clip0_382_636">
<rect width="259.881" height="176.593" fill="white" transform="translate(11.7974) rotate(3.83047)"/>
</clipPath>
</defs>
</svg>
