<svg width="269" height="420" viewBox="0 0 269 420" fill="none" xmlns="http://www.w3.org/2000/svg">
<path d="M89.8013 209.052C86.4336 208.44 81.2133 207.985 75.6348 209.866C65.8402 213.173 55.4113 223.528 40.0851 285.469C37.1696 297.256 33.4614 313.398 29.8735 332.86C23.655 332.61 21.3149 330.899 21.3149 330.899C22.0607 323.627 23.3261 312.434 25.3784 298.816C28.1031 280.739 34.6887 241.934 50.7019 217.156C50.7019 217.156 61.5124 200.428 72.9836 199.611C74.0288 199.537 75.0564 199.608 75.0564 199.608C82.5052 200.122 87.5611 205.995 89.8042 209.052H89.8013Z" fill="#C0DEF5"/>
<path d="M89.5254 209.472C86.1577 208.861 80.9374 208.405 75.3589 210.286C65.5643 213.593 55.1354 223.948 39.8092 285.889C36.8937 297.676 33.1855 313.819 29.5977 333.28C23.3791 333.03 21.0391 331.32 21.0391 331.32C21.7848 324.048 23.0503 312.855 25.1026 299.237C27.8272 281.16 34.4128 242.355 50.426 217.576C50.426 217.576 61.2365 200.848 72.7077 200.031C73.7529 199.958 74.7805 200.028 74.7805 200.028C82.2293 200.542 87.2852 206.415 89.5283 209.472H89.5254Z" stroke="#512E18" stroke-width="4" stroke-miterlimit="10"/>
<path d="M175.156 129.387C183.262 219.451 115.281 257.004 80.5121 233.398C46.8033 210.51 81.4692 146.847 56.0577 146.467C45.7404 146.312 42.728 156.808 30.8253 157.846C15.6459 159.168 15.8866 143.384 22.0435 133.693C25.4141 128.391 33.7085 122.362 40.4027 119.937C52.1351 115.687 68.0133 117.277 78.8826 130.524C102.735 160.429 67.4261 210.36 101.15 215.304C123.469 218.575 159.527 197.524 159.377 120.795" fill="#F5BD61"/>
<path opacity="0.15" d="M168.499 187.415C151.053 234.51 106.502 251.04 80.5119 233.393C46.7972 210.507 81.4691 146.841 56.0546 146.465C45.7373 146.312 42.7249 156.805 30.8193 157.84C15.7485 159.157 15.8836 143.602 21.9113 133.902C18.0973 141.629 18.7374 151.735 30.1322 150.115C40.7901 148.601 53.6294 129.358 68.0836 146.541C80.6117 161.432 57.4316 204.334 83.7005 225.73C99.8488 238.883 133.784 228.925 137.8 207.315C139.861 196.225 162.78 199.673 168.497 187.415H168.499Z" fill="#231F20"/>
<path opacity="0.25" d="M157.765 147.543C151.961 207.247 120.968 220.321 100.741 217.932C63.7911 213.561 93.2984 158.977 78.2159 136.374C74.5546 130.889 69.7483 127.426 64.5486 125.489C63.9232 127.903 58.7792 129.781 52.5284 129.781C46.2775 129.781 41.1776 127.917 40.5258 125.516C40.2586 125.604 39.9944 125.695 39.736 125.789C33.0418 128.217 24.7475 134.24 21.3798 139.548C19.9118 141.861 18.7755 144.53 18.1061 147.226C17.9534 142.767 19.4919 137.708 22.0433 133.69C25.411 128.388 33.7053 122.359 40.4054 119.931C52.1379 115.684 68.0131 117.274 78.8853 130.522C102.735 160.423 67.4259 210.354 101.152 215.298C120.618 218.152 150.537 202.503 157.765 147.546V147.543Z" fill="white"/>
<path d="M159.38 120.789C159.38 120.789 158.902 142.461 153.159 165.291C147.416 188.121 132.101 209.893 112.609 213.552C93.1163 217.212 83.4479 208.673 87.9342 180.972C92.4205 153.272 88.0693 116.16 49.2605 116.507C17.7597 116.68 4.53274 161.108 31.5092 159.019C41.2774 158.26 44.1929 148.081 54.0786 147.664C54.5513 147.643 58.4416 147.514 61.3718 149.095C76.0873 157.043 53.509 201.18 71.463 224.869C83.0428 240.144 106.041 239.739 109.993 239.586C149.392 238.049 171.85 188.083 174.68 169.891C174.747 169.456 174.891 168.439 175.059 167.275C178.262 144.698 178.048 136.33 176.632 129.246" stroke="#512E18" stroke-width="4" stroke-miterlimit="10"/>
<path d="M240.697 203.584C241.17 210.609 243.495 219.892 245.207 228.898C248.081 243.977 249.223 258.277 237.018 259.852C233.383 263.732 228.783 263.888 225.799 261.76C223.348 265.466 219.766 266.942 216.748 266.045C215.397 265.643 214.537 264.843 213.588 263.92C212.901 263.25 209.807 260.093 208.994 254.085C208.248 248.595 209.948 244.7 209.255 244.456C208.277 244.112 206.331 252.316 202.238 252.83C199.09 253.227 195.118 249.024 193.949 244.665C192.552 239.453 195.922 236.823 198.929 226.076C199.187 225.147 200.094 223.022 201.51 220.321C202.211 218.984 203.03 218.04 203.97 217.376C208.553 214.128 217.361 215.445 224.023 214.387C228.216 213.722 234.158 211.418 240.697 203.584Z" fill="#FCE5D8"/>
<path opacity="0.15" d="M197.569 249.609C198.03 249.829 198.723 250.067 199.487 249.92C203.124 249.224 202.696 240.803 207.144 239.162C208.177 238.78 209.44 238.769 211.019 239.307C215.371 240.788 212.746 252.195 217.449 257.616C220.459 261.084 224.599 259.25 227.643 255.082C229.954 258.78 235.063 257.43 238.698 253.553C240.958 253.26 244.943 252.531 246.361 251.443C245.157 256.023 242.376 259.156 237.021 259.85C233.389 263.727 228.785 263.885 225.802 261.754C223.354 265.461 219.772 266.936 216.753 266.04C215.247 265.593 214.284 264.652 213.591 263.912C208.947 258.953 211.24 252.484 208.274 250.746C207.156 250.091 205.009 249.947 200.476 253.021C199.507 251.881 198.538 250.743 197.569 249.603V249.609Z" fill="#231F20"/>
<path opacity="0.15" d="M240.697 203.584C241.17 210.609 243.495 219.892 245.207 228.898C241.93 231.917 236.907 234.836 229.229 236.335C213.797 239.353 203.374 230.82 198.926 226.076C199.739 223.975 200.62 222.017 201.507 220.321C207.126 209.604 220.45 224.239 240.694 203.584H240.697Z" fill="#231F20"/>
<path d="M226.551 260.505C231.175 261.851 234.423 261.161 236.733 256.672C238.856 252.475 238.874 247.237 238.149 242.581C239.379 244.844 240.201 247.366 240.527 249.926C241.581 257.096 237.922 265.996 229.358 265.005C227.89 264.826 226.504 264.406 225.256 263.788L226.551 260.508V260.505Z" fill="#512E18"/>
<path d="M237.852 257.957C252.785 257.892 242.732 221.421 240.265 212.841C239.567 210.433 238.824 208.014 238.031 205.669L241.569 206.586C239.267 208.655 236.695 210.407 233.965 211.833C227.238 215.322 219.819 217.094 212.344 217.896C210.82 218.052 209.343 218.164 207.796 218.193L208.315 218.126L206.005 218.705L207.238 217.876C204.736 221.288 202.511 224.895 200.687 228.693C198.885 232.452 197.423 236.479 196.536 240.529C195.981 243.419 195.608 246.126 197.009 248.598C197.654 249.694 198.383 250.517 199.466 250.937C202.285 251.79 205.027 249.291 206.551 246.934L210.362 240.929L210.2 248.019C210.118 251.878 210.553 255.884 212.006 259.438C213.177 262.336 215.591 265.781 219.132 264.641C222.082 263.874 223.753 261.072 224.734 258.348C225.236 256.84 225.476 255.297 225.782 253.712C226.278 250.861 226.991 247.349 227.491 244.515C228.022 246.573 228.151 248.692 228.275 250.799C228.366 252.93 228.371 255.023 228.16 257.166C227.811 260.623 226.293 264.197 223.474 266.395C217.047 270.99 211.319 267.545 208.533 260.911C206.783 256.784 206.228 252.357 206.251 247.948L209.898 249.036C208.597 251.123 206.827 253.027 204.419 254.241C199.258 256.84 194.475 253.994 192.563 248.883C191.498 245.897 191.8 242.66 192.396 239.674C194.293 230.803 198.368 222.535 203.7 215.263L204.167 214.628L204.933 214.434L207.241 213.852L207.487 213.79C208.938 213.772 210.438 213.652 211.891 213.505C221.416 212.429 231.296 209.763 238.633 203.338L241.137 201.142C243.146 207.044 244.943 213.046 246.39 219.093C248.707 229.304 251.795 244.036 248.202 254.097C246.49 258.674 242.843 261.598 237.858 261.484L237.852 257.957Z" fill="#512E18"/>
<path d="M263.983 107.606C263.968 112.953 263.516 119.781 262.732 127.462C259.426 159.668 250.172 206.936 241.654 223.078C241.437 223.487 241.202 223.896 240.935 224.298C239.111 227.05 235.99 229.551 229.202 230.927C220.145 232.764 206.16 228.878 203.808 219.681C200.746 208.814 203.039 179.038 200.094 144.516L263.983 107.606Z" fill="#F5BD61"/>
<path opacity="0.15" d="M263.983 107.606C263.968 112.953 263.516 119.781 262.732 127.462C257.183 136.621 240.491 149.827 226.246 160.623C209.316 173.454 206.407 201.28 211.01 215.122C215.112 227.47 233.04 225.724 240.935 224.298C239.111 227.05 235.99 229.551 229.202 230.927C220.145 232.764 206.16 228.878 203.808 219.681C200.746 208.814 203.039 179.038 200.094 144.516L263.983 107.606Z" fill="#231F20"/>
<path d="M199.357 140.736C199.357 140.736 202.384 195.119 202.141 207.074C201.897 219.028 202.032 227.593 220.72 231.132C221.668 231.311 228.36 232.184 233.806 230.1C240.512 227.534 245.424 220.386 252.385 191.201C258.566 165.288 260.791 145.353 261.39 139.739C262.949 125.169 263.619 113.079 263.939 104.808" stroke="#512E18" stroke-width="4" stroke-miterlimit="10"/>
<path d="M143.746 204.648C143.273 211.673 140.948 220.956 139.236 229.962C136.362 245.041 135.219 259.341 147.425 260.916C151.059 264.796 155.66 264.952 158.643 262.824C161.095 266.53 164.677 268.006 167.695 267.109C169.046 266.707 169.906 265.907 170.854 264.984C171.541 264.314 174.636 261.157 175.449 255.149C176.195 249.659 174.495 245.764 175.188 245.52C176.166 245.176 178.112 253.38 182.205 253.894C185.353 254.291 189.325 250.088 190.494 245.729C191.891 240.517 188.521 237.887 185.514 227.14C185.256 226.211 184.348 224.086 182.933 221.385C182.232 220.048 181.412 219.104 180.473 218.44C175.89 215.192 167.082 216.509 160.42 215.451C156.227 214.786 150.284 212.482 143.746 204.648Z" fill="#FCE5D8"/>
<path opacity="0.15" d="M186.876 250.67C186.415 250.89 185.722 251.128 184.959 250.981C181.321 250.285 181.75 241.864 177.302 240.224C176.268 239.841 175.006 239.83 173.426 240.368C169.075 241.849 171.7 253.257 166.996 258.677C163.987 262.145 159.847 260.311 156.802 256.143C154.492 259.841 149.383 258.492 145.748 254.615C143.487 254.321 139.503 253.592 138.085 252.504C139.289 257.084 142.069 260.217 147.425 260.911C151.056 264.788 155.66 264.946 158.643 262.815C161.092 266.522 164.674 267.997 167.692 267.101C169.198 266.654 170.161 265.713 170.854 264.973C175.499 260.014 173.206 253.545 176.171 251.807C177.29 251.152 179.436 251.008 183.97 254.083C184.938 252.942 185.907 251.805 186.876 250.664V250.67Z" fill="#231F20"/>
<path opacity="0.15" d="M143.746 204.648C143.273 211.673 140.948 220.956 139.236 229.962C142.512 232.981 147.536 235.9 155.214 237.399C170.646 240.417 181.069 231.884 185.517 227.14C184.704 225.039 183.823 223.081 182.936 221.385C177.316 210.668 163.993 225.303 143.749 204.648H143.746Z" fill="#231F20"/>
<path d="M159.186 264.847C156.55 266.122 153.429 266.622 150.519 265.558C144.195 262.974 142.868 254.932 144.263 249.048C144.536 247.804 144.953 246.531 145.46 245.365C145.695 244.771 146.007 244.206 146.294 243.642C146.124 244.909 145.954 246.146 145.898 247.384C145.499 253.104 147.422 262.765 154.724 262.163C155.748 262.095 156.808 261.866 157.892 261.569L159.186 264.849V264.847Z" fill="#512E18"/>
<path d="M146.588 262.545C133.126 262.433 134.077 244.859 135.216 235.359C136.679 224.013 139.641 213.011 143.305 202.206L145.81 204.402C153.828 211.421 165.246 214.146 175.681 214.813C176.127 214.836 176.541 214.845 176.952 214.854C177.645 215.03 179.598 215.518 180.273 215.692C184.475 221.297 187.924 227.523 190.212 234.168C191.785 239.057 193.614 244.838 191.876 249.947C188.218 259.135 179.072 257.527 174.542 250.1L178.188 249.012C178.215 253.424 177.66 257.848 175.907 261.975C173.127 268.594 167.404 272.06 160.966 267.459C158.332 265.405 156.908 262.248 156.377 259.056C156.059 256.651 156.062 254.265 156.162 251.863C156.285 249.756 156.415 247.636 156.946 245.579C157.066 246.49 157.366 247.754 157.525 248.668C157.815 250.185 158.379 253.257 158.655 254.776C158.96 256.36 159.204 257.904 159.703 259.412C160.684 262.136 162.354 264.94 165.305 265.705C168.846 266.845 171.259 263.4 172.431 260.502C173.884 256.948 174.319 252.942 174.237 249.083L174.075 241.993L177.886 247.995C178.896 249.588 180.273 250.94 181.788 251.663C184.163 252.857 186.183 251.919 187.428 249.659C189.651 245.841 187.496 239.633 186.172 235.576C184.066 229.604 180.945 224.042 177.199 218.937L178.432 219.766L176.121 219.187L176.641 219.254C166.215 218.825 155.302 216.409 146.523 210.524C145.249 209.654 144.033 208.681 142.868 207.647L146.406 206.73C145.613 209.075 144.87 211.494 144.171 213.902C141.359 223.907 134.926 247.977 141.297 256.619C142.601 258.277 144.465 259 146.585 259.018L146.579 262.545H146.588Z" fill="#512E18"/>
<path d="M120.463 108.67C120.478 114.017 120.93 120.845 121.714 128.526C125.02 160.732 134.274 208 142.792 224.142C143.009 224.551 143.244 224.96 143.511 225.362C145.334 228.113 148.455 230.615 155.243 231.99C164.301 233.828 178.285 229.942 180.637 220.745C183.7 209.878 181.407 180.102 184.351 145.58L120.463 108.67Z" fill="#F5BD61"/>
<path opacity="0.15" d="M120.463 108.67C120.478 114.017 120.93 120.845 121.714 128.526C127.263 137.685 143.954 150.891 158.2 161.687C175.129 174.518 178.039 202.344 173.435 216.186C169.333 228.534 151.406 226.788 143.511 225.362C145.334 228.113 148.455 230.615 155.243 231.99C164.301 233.828 178.285 229.942 180.637 220.745C183.7 209.878 181.407 180.102 184.351 145.58L120.463 108.67Z" fill="#231F20"/>
<path d="M185.088 141.8C185.088 141.8 182.061 196.183 182.305 208.138C182.549 220.092 182.413 228.657 163.726 232.196C162.777 232.375 156.086 233.248 150.64 231.164C143.934 228.598 139.022 221.45 132.06 192.265C125.88 166.352 123.654 146.417 123.055 140.803C121.496 126.233 120.827 114.143 120.507 105.872" stroke="#512E18" stroke-width="4" stroke-miterlimit="10"/>
<path d="M264.608 116.88C262.964 122.806 260.375 128.241 256.587 132.685C236.948 146.306 226.736 153.384 226.736 153.384C219.443 155.847 209.822 159.212 198.013 160.147C198.004 160.147 197.992 160.147 197.981 160.15C187.599 160.967 175.529 159.9 161.873 154.698C160.69 154.251 159.603 153.813 158.617 153.395C129.852 133.449 128.751 132.685 128.751 132.685C125.445 127.65 122.961 122.503 121.217 117.244C120.278 114.405 119.553 111.536 119.027 108.632C118.276 104.482 117.935 100.267 117.961 95.99C118.044 82.7924 121.64 68.9775 127.551 54.5835C128.149 53.1198 128.775 51.6472 129.424 50.1687C129.735 49.4574 130.043 48.7548 130.343 48.0553C134.694 37.9998 138.094 29.1259 140.678 21.8275C145.041 9.51171 147.084 1.68131 147.448 0.241028C147.469 0.167545 147.483 0.10875 147.492 0.0675991C147.495 0.0529024 147.498 0.0411465 147.501 0.0323284C147.507 0.0117531 147.51 0 147.51 0H237.826C237.826 0 237.852 0.0823037 237.902 0.241028C238.463 2.01051 242.057 13.2741 246.428 26.0867C246.428 26.0867 246.429 26.0886 246.431 26.0925C247.039 27.8738 247.659 29.6785 248.29 31.498C248.29 31.5009 248.29 31.5039 248.293 31.5097C252.168 42.6763 256.384 54.1633 259.547 61.0443C259.658 61.2882 259.773 61.538 259.881 61.7938C260.046 62.1582 260.204 62.5345 260.363 62.9195C260.363 62.9195 260.364 62.9215 260.366 62.9254C263.836 71.3055 266.64 83.539 266.928 95.99C267.089 103.109 266.432 110.299 264.608 116.88Z" fill="#F5BD61"/>
<path d="M250.759 105.643C248.334 137 222.623 147.743 192.725 147.743H192.71C162.812 147.743 137.098 137 134.676 105.643C131.805 68.4984 153.581 29.4257 192.71 24.3877H192.725C231.857 29.4287 253.63 68.5014 250.759 105.643Z" fill="#FCE5D8"/>
<path opacity="0.15" d="M266.928 95.9902H117.961C118.044 82.7926 121.64 68.9777 127.551 54.5837C129.218 49.8808 130.93 45.6305 132.501 42.0504C133.073 40.7483 133.631 39.4491 134.174 38.1558C135.513 34.7755 136.843 31.4747 138.123 28.2796C138.126 28.2737 138.129 28.2708 138.129 28.2649C143.637 13.7916 146.943 2.04891 147.442 0.241211H237.902C238.463 2.01069 242.057 13.2742 246.428 26.0868C246.428 26.0868 246.429 26.0888 246.431 26.0927C248.792 32.0331 251.384 38.3703 253.904 44.9398C253.909 44.9515 253.912 44.9633 253.915 44.975C256.044 50.0748 258.328 56.2121 260.363 62.9197C260.363 62.9197 260.364 62.9217 260.366 62.9256C263.836 71.3056 266.64 83.5392 266.928 95.9902Z" fill="#231F20"/>
<path opacity="0.15" d="M264.609 116.88C262.964 122.806 260.375 128.24 256.587 132.685C236.948 146.306 226.737 153.384 226.737 153.384C219.443 155.847 209.822 159.212 198.013 160.147C198.004 160.147 197.993 160.147 197.981 160.15C187.599 160.967 175.529 159.9 161.873 154.697C160.69 154.251 159.604 153.813 158.617 153.395C129.853 133.449 128.752 132.685 128.752 132.685C125.446 127.65 122.962 122.503 121.218 117.244C132.046 127.079 154.154 140.947 192.716 140.947C231.279 140.947 253.927 126.733 264.609 116.88Z" fill="#231F20"/>
<path d="M256.417 132.685C269.567 112.262 264.849 85.0263 258.448 63.5103L258.36 62.9313C258.343 63.4016 258.595 64.013 258.939 64.3334L258.443 63.5015C256.778 57.8844 253.874 49.9894 252.092 45.7479C251.164 43.5463 250.151 41.2331 249.229 39.0315C248.29 36.7712 247.379 34.4961 246.496 32.2152L246.563 32.371C246.431 32.1123 246.358 31.7919 246.358 31.5009L246.493 32.2064C244.954 28.2647 243.008 22.8504 241.927 19.6789C240.976 16.8865 239.992 13.9266 239.115 11.1107C238.213 8.22426 237.344 5.32902 236.525 2.41025L237.826 2.03401L237.811 1.92819C237.808 2.01637 237.855 2.13101 237.922 2.1898L237.826 2.0252L237.652 0.00292969L238.56 1.81356L238.463 1.64895C238.53 1.71362 238.58 1.83414 238.58 1.92819L238.565 1.82238C238.565 1.82238 239.866 1.44614 239.866 1.44908C240.715 4.30906 241.619 7.1661 242.556 10.0084C243.378 12.4834 244.573 16.037 245.433 18.4473C246.54 21.5983 248.53 26.9449 250.078 30.7984L250.213 31.5038C250.216 31.2217 250.142 30.9072 250.013 30.6573C251.604 34.6225 253.287 38.5818 255.001 42.497C257.468 48.1317 260.236 55.5565 262.277 62.3464L261.781 61.5145C262.127 61.8379 262.383 62.4522 262.365 62.9283L262.277 62.3522C263.023 64.8095 263.716 67.2815 264.356 69.7682C269.092 88.8622 273.096 117.53 256.411 132.697L256.417 132.685Z" fill="#512E18"/>
<path d="M129.045 132.817C112.357 117.647 116.367 88.9857 121.1 69.8888C121.737 67.4021 122.433 64.9301 123.179 62.4729L123.091 63.049C123.076 62.5728 123.329 61.9614 123.675 61.6351L123.179 62.467C125.078 56.1062 127.862 48.6021 130.096 43.4465C131.896 39.302 133.71 35.134 135.372 30.9337L135.44 30.7779C135.311 31.0307 135.237 31.3423 135.24 31.6244L135.375 30.919C136.961 26.9627 138.775 22.0951 140.041 18.515C140.731 16.575 142.131 12.4482 142.897 10.1291C143.834 7.28672 144.735 4.4326 145.587 1.56969C145.587 1.56969 146.887 1.94593 146.887 1.94299L146.873 2.0488C146.873 1.95474 146.923 1.83424 146.99 1.76958L146.893 1.93418L147.801 0.123535L147.627 2.1458L147.53 2.31041C147.595 2.25162 147.645 2.13698 147.642 2.0488L147.627 2.15463C147.627 2.15463 148.928 2.52792 148.928 2.53086C148.109 5.44962 147.243 8.34488 146.338 11.2313C145.463 14.0413 144.477 17.0071 143.526 19.7995C142.439 22.9857 140.502 28.3765 138.96 32.327L139.095 31.6215C139.095 31.9125 139.022 32.2329 138.89 32.4916L138.957 32.3358C138.073 34.6167 137.166 36.8917 136.224 39.1521C135.302 41.3537 134.289 43.667 133.361 45.8685C131.576 50.1188 128.681 57.9933 127.01 63.6221L126.514 64.454C126.858 64.1336 127.11 63.5251 127.093 63.0519L127.004 63.6309C120.604 85.141 115.889 112.392 129.036 132.805L129.045 132.817Z" fill="#512E18"/>
<path d="M158.617 153.396C164.301 154.739 169.909 156.012 175.646 156.87C189.807 159.001 204.17 157.99 218.157 155.191C220.997 154.642 223.833 153.992 226.739 153.384C218.659 158.707 209.003 161.461 199.408 162.346C186.116 163.574 169.956 160.6 158.62 153.396H158.617Z" fill="#512E18"/>
<path d="M38.8345 339.024C38.8345 339.024 43.0654 281.904 38.585 269.538C50.9516 267.401 71.043 260.77 75.0625 258.048C77.978 277.592 79.3755 321.47 77.2381 325.365C75.1006 329.259 38.8316 339.024 38.8316 339.024H38.8345Z" fill="#CEE4BB"/>
<path d="M60.6844 283.026C56.4213 282.638 52.5222 287.221 51.9732 293.258C51.4271 299.296 54.4365 304.507 58.6997 304.895C62.9599 305.283 66.8619 300.701 67.408 294.663C67.957 288.623 64.9476 283.414 60.6844 283.026Z" fill="#90C696"/>
<path d="M44.7947 330.338C46.8059 317.687 47.0818 307.323 46.9116 299.887C46.6884 290.175 45.4611 275.07 45.4611 275.07C50.1295 274.244 55.7872 272.768 61.8766 270.076C64.8479 268.762 67.4991 267.345 69.8304 265.937C72.2086 276.472 72.9015 285.228 73.0688 291.483C73.5357 308.878 70.5027 328.045 70.5027 328.045C70.5027 328.045 73.1364 326.999 77.238 325.368C78.48 307.779 78.4565 288.655 76.3983 268.297C76.0401 264.761 75.632 261.284 75.1769 257.866C75.1769 257.866 46.935 269.32 39.2015 269.229C39.912 276.492 40.4229 284.14 40.6636 292.147C41.1745 309.237 40.3553 324.956 38.8345 339.027C40.8222 336.132 42.8099 333.236 44.7947 330.341V330.338Z" fill="#90C696"/>
<path d="M78.1041 325.612L40.0324 337.81L38.3911 332.675C44.1282 330 50.8077 327.302 58.3798 324.95C64.8802 322.931 70.9607 321.499 76.4629 320.477C77.009 322.187 77.558 323.898 78.1041 325.612Z" fill="#90C696"/>
<path d="M40.0821 319.398C40.9101 301.624 41.462 276.98 38.6992 269.356C51.0659 267.219 71.1573 260.588 75.1767 257.866C78.0922 277.409 79.4898 321.288 77.3523 325.182C75.2149 329.077 38.9458 338.842 38.9458 338.842L40.0821 319.401V319.398Z" stroke="#512E18" stroke-width="4" stroke-miterlimit="10"/>
<path d="M46.7856 334.415C46.7856 334.415 73.0516 293.432 71.4866 267.457C101.05 262.818 112.415 272.365 118.631 277.586C105.589 300.557 88.3513 335.561 86.4928 345.961C64.7337 341.231 46.7856 334.415 46.7856 334.415Z" fill="#CEE4BB"/>
<path d="M88.927 292.568C92.6411 294.108 93.8889 299.619 91.7133 304.883C89.5377 310.148 84.7637 313.166 81.0496 311.626C77.3355 310.086 76.0877 304.572 78.2633 299.31C80.4389 294.049 85.2129 291.027 88.93 292.568H88.927Z" fill="#90C696"/>
<path d="M109.573 279.623C109.573 279.623 96.6427 270.234 78.6917 273.329C74.8249 304.854 55.8375 330.691 55.8375 330.691C67.6815 333.436 82.3236 337.886 82.3236 337.886C85.5738 344.841 86.4928 345.963 86.4928 345.963C86.4928 345.963 47.9865 336.246 46.7856 334.418C65.1976 300.992 71.883 283.814 71.4866 267.46C95.9762 264.429 112.536 269.25 118.631 277.589C112.897 278.832 109.576 279.623 109.576 279.623H109.573Z" fill="#90C696"/>
<path d="M117.292 277.251C117.292 277.251 86.4813 337.307 85.2452 344.479L77.5557 344.003C94.9342 313.743 108.038 285.875 109.905 272.16C113.42 274.158 117.292 277.248 117.292 277.248V277.251Z" fill="#90C696"/>
<path d="M46.7856 334.415C46.7856 334.415 73.0516 293.432 71.4866 267.457C101.05 262.818 112.415 272.365 118.631 277.586C105.589 300.557 88.3513 335.561 86.4928 345.961C64.7337 341.231 46.7856 334.415 46.7856 334.415Z" stroke="#512E18" stroke-width="4" stroke-miterlimit="10"/>
<path d="M55.9487 340.109C55.9487 340.109 90.6382 294.561 93.6271 281.751C105.154 286.718 125.604 292.142 130.457 292.056C122.242 310.024 99.4904 347.551 95.5766 349.647C91.6629 351.743 55.9487 340.106 55.9487 340.106V340.109Z" fill="#CEE4BB"/>
<path d="M104.79 305.13C101.431 302.476 95.6646 304.184 91.9123 308.943C88.16 313.704 87.8429 319.712 91.2018 322.367C94.5606 325.021 100.327 323.313 104.076 318.551C107.829 313.793 108.146 307.782 104.787 305.127L104.79 305.13Z" fill="#90C696"/>
<path d="M65.6788 336.09C74.2609 326.59 80.1447 318.055 84.0555 311.732C89.1643 303.472 96.3723 290.145 96.3723 290.145C100.735 292.003 106.279 293.861 112.849 294.931C116.056 295.454 119.05 295.716 121.772 295.81C118.023 305.936 113.827 313.651 110.559 318.983C101.466 333.812 88.4743 348.215 88.4743 348.215C88.4743 348.215 91.2518 348.776 95.5766 349.652C106.205 335.594 116.613 319.557 125.991 301.377C127.621 298.22 129.174 295.084 130.654 291.971C130.654 291.971 100.744 286.136 94.3141 281.833C90.9494 288.305 87.2059 294.995 83.0426 301.835C74.1522 316.435 64.8949 329.156 55.9487 340.114C59.1931 338.774 62.4345 337.434 65.6788 336.093V336.09Z" fill="#90C696"/>
<path d="M96.1666 350.332L57.6162 339.75L59.0402 334.55C65.3057 335.444 72.3728 336.834 80.0007 339C86.5481 340.861 92.426 342.983 97.5906 345.132C97.1149 346.866 96.6422 348.597 96.1666 350.332Z" fill="#90C696"/>
<path d="M67.6989 324.348C78.0837 309.91 91.9829 289.561 93.8238 281.66C105.351 286.627 125.8 292.05 130.654 291.965C122.439 309.933 99.6871 347.46 95.7734 349.556C91.8596 351.651 56.1455 340.014 56.1455 340.014L67.6959 324.345L67.6989 324.348Z" stroke="#512E18" stroke-width="4" stroke-miterlimit="10"/>
<path d="M73.9791 365.607C73.9791 365.607 57.4374 316.488 65.7582 290.069C36.427 277.63 22.2253 284.546 14.4565 288.329C21.9934 315.427 30.7575 356.034 29.9941 367.256C53.6851 368.003 73.9791 365.607 73.9791 365.607Z" fill="#CEE4BB"/>
<path d="M41.2657 311.491C37.0319 312.12 34.3219 317.49 35.2086 323.489C36.0953 329.489 40.2468 333.842 44.4806 333.213C48.7144 332.584 51.4273 327.214 50.5406 321.214C49.651 315.218 45.5024 310.865 41.2686 311.491H41.2657Z" fill="#90C696"/>
<path d="M23.2852 292.776C23.2852 292.776 39.0636 286.427 56.8003 294.269C52.6546 327.825 65.5937 359.417 65.5937 359.417C52.6546 359.188 36.3859 359.993 36.3859 359.993C31.2331 366.336 29.9971 367.256 29.9971 367.256C29.9971 367.256 72.2703 367.183 73.982 365.607C63.6002 326.326 61.128 306.856 65.7611 290.069C41.2539 280.604 22.9094 281.298 14.4595 288.329C20.0615 291.095 23.2852 292.773 23.2852 292.773V292.776Z" fill="#90C696"/>
<path d="M15.9277 288.332C15.9277 288.332 32.2404 358.323 31.665 366.048L39.7274 367.547C29.5921 331.802 23.2561 299.631 24.868 284.987C20.7223 286.139 15.9277 288.332 15.9277 288.332Z" fill="#90C696"/>
<path d="M73.9791 365.607C73.9791 365.607 57.4374 316.488 65.7582 290.069C36.427 277.63 22.2253 284.546 14.4565 288.329C21.9934 315.427 30.7575 356.034 29.9941 367.256C53.6851 368.003 73.9791 365.607 73.9791 365.607Z" stroke="#512E18" stroke-width="4" stroke-miterlimit="10"/>
<path d="M19.3507 307.567C19.3507 307.567 39.4656 333.063 72.4727 335.761C89.7925 337.354 101.231 330.115 101.231 330.115C106.569 329.095 116.825 323.198 122.01 311.882C139.071 348.979 138.543 389.489 131.608 397.199C124.673 404.912 110.43 413.58 98.0545 417.172C52.5193 416.978 23.5375 417.513 6.0093 388.716C-4.7895 369.957 9.07748 353.409 14.4211 335.27C19.7647 317.132 19.3507 307.567 19.3507 307.567Z" fill="#C0DEF5"/>
<path opacity="0.2" d="M19.3507 307.567C19.3507 307.567 23.6961 313.075 31.6645 319.242C31.1096 323.901 29.8794 330.885 27.1753 340.061C21.8346 358.2 7.96472 374.748 18.7635 393.504C24.3655 402.707 31.139 408.915 39.2454 413.107C25.2228 409.442 14.3271 402.381 6.00637 388.716C-4.79243 369.954 9.07455 353.409 14.4182 335.27C19.7588 317.134 19.3478 307.567 19.3478 307.567H19.3507Z" fill="white"/>
<path opacity="0.15" d="M122.007 311.882C139.068 348.979 138.54 389.486 131.605 397.199C125.236 404.28 112.711 412.166 101.125 416.187C110.403 411.887 119.358 405.747 124.42 400.118C131.044 392.749 131.822 355.431 116.989 319.759C118.894 317.511 120.63 314.886 122.007 311.882Z" fill="#231F20"/>
<path d="M19.3507 307.567C19.3507 307.567 39.4656 333.063 72.4727 335.761C89.7925 337.354 101.231 330.115 101.231 330.115C106.569 329.095 116.825 323.198 122.01 311.882C139.071 348.979 138.543 389.489 131.608 397.199C124.673 404.912 110.43 413.58 98.0545 417.172C52.5193 416.978 23.5375 417.513 6.0093 388.716C-4.7895 369.957 9.07747 353.409 14.4211 335.27C19.7647 317.132 19.3507 307.567 19.3507 307.567Z" stroke="#512E18" stroke-width="4" stroke-miterlimit="10"/>
<path d="M98.1338 417.372C98.1338 417.372 121.249 391.888 101.777 329.309" stroke="#512E18" stroke-width="4" stroke-miterlimit="10"/>
<path d="M89.7163 200.363C96.3958 221.353 102.773 245.914 107.418 273.632C111.76 299.548 113.766 323.313 114.444 344.2C120.662 343.95 123.002 342.239 123.002 342.239C124.147 321.502 123.587 295.11 117.891 265.243C114.174 245.753 109.012 228.69 103.68 214.334C102.159 212.153 100.216 209.696 97.764 207.186C94.9337 204.287 92.1386 202.05 89.7163 200.357V200.363Z" fill="#C0DEF5"/>
<path d="M89.8457 200.363C96.5252 221.353 102.902 245.914 107.547 273.632C111.89 299.548 113.895 323.313 114.573 344.2C120.792 343.95 123.132 342.239 123.132 342.239C124.277 321.502 123.716 295.11 118.02 265.243C114.303 245.753 109.141 228.69 103.81 214.334C102.289 212.153 100.345 209.696 97.8934 207.186C95.0631 204.287 92.2679 202.05 89.8457 200.357V200.363Z" stroke="#512E18" stroke-width="4" stroke-miterlimit="10"/>
<path d="M83.0159 402.569C65.1471 411.816 27.3719 395.265 19.2772 384.786C11.5876 371.286 26.8199 343.333 31.2592 341.061C35.6985 338.788 44.7797 345.949 60.1 349.811C75.4203 353.676 82.7135 346.801 91.0196 357.368C99.3257 367.935 100.885 393.319 83.0159 402.569Z" fill="#512E18"/>
<path d="M43.6288 366.63C43.2206 366.736 42.792 366.748 42.3428 366.668C41.9053 366.589 41.5794 366.416 41.3651 366.145C41.1507 365.866 41.0832 365.431 41.1566 364.843L42.1108 357.021L37.9181 365.037C37.6803 365.478 37.3133 365.654 36.8142 365.566C36.5294 365.504 36.3415 365.41 36.2505 365.275C36.1594 365.143 36.0978 364.949 36.0714 364.69L34.8206 355.699L33.0003 363.335C32.8564 363.9 32.6655 364.302 32.4219 364.543C32.1899 364.775 31.8376 364.849 31.3561 364.764C30.8746 364.678 30.4841 364.402 30.1787 363.938C30.5222 363.714 30.76 363.335 30.8863 362.8L32.8946 355.087C32.9063 355.026 32.918 354.958 32.9298 354.887C33.0149 354.408 32.9826 354.009 32.83 353.685C33.6344 353.421 34.4565 353.359 35.2904 353.512C36.1271 353.662 36.6762 353.965 36.9434 354.423C37.2194 354.882 37.3985 355.611 37.4836 356.604L37.9211 361.216L39.8853 357.113C40.3727 356.093 40.8718 355.446 41.3856 355.17C41.9082 354.885 42.5336 354.808 43.2559 354.937C43.9899 355.07 44.5977 355.293 45.0762 355.611C44.8384 355.884 44.6799 356.245 44.5977 356.695C44.58 356.786 44.5683 356.889 44.5595 357.004L43.5994 365.016C43.4908 365.734 43.5025 366.272 43.6258 366.633L43.6288 366.63Z" fill="white"/>
<path d="M51.0395 366.727C51.938 366.889 52.6397 366.604 53.1476 365.872C53.5469 365.281 53.8347 364.499 54.0079 363.529C54.0461 363.315 54.0813 363.091 54.1136 362.853C54.2721 361.554 54.1929 360.472 53.8728 359.602C53.5557 358.735 52.948 358.221 52.0496 358.059C50.4993 357.783 49.5069 358.862 49.0724 361.301C48.7054 363.353 48.8874 364.87 49.6156 365.854C49.962 366.327 50.4347 366.618 51.0366 366.724L51.0395 366.727ZM56.1894 359.008C56.483 359.608 56.6591 360.267 56.7208 360.984C56.7942 361.692 56.756 362.465 56.6063 363.3C56.4595 364.126 56.2275 364.864 55.9105 365.513C55.6051 366.163 55.2087 366.724 54.7272 367.197C54.2428 367.668 53.6379 367.991 52.9127 368.167C52.1993 368.344 51.3977 368.356 50.5081 368.194C48.817 367.891 47.6425 367.127 46.9878 365.904C46.3448 364.673 46.1774 363.2 46.4828 361.486C46.7881 359.773 47.4576 358.453 48.4822 357.533C49.5187 356.613 50.8839 356.304 52.5751 356.607C53.4706 356.769 54.2252 357.057 54.8359 357.471C55.4436 357.886 55.8958 358.4 56.1864 359.008H56.1894Z" fill="white"/>
<path d="M63.1768 368.9C64.0723 369.061 64.7769 368.776 65.2848 368.044C65.6841 367.453 65.9719 366.672 66.1451 365.702C66.1833 365.487 66.2185 365.264 66.2508 365.026C66.4093 363.726 66.3301 362.645 66.013 361.775C65.6959 360.908 65.0852 360.393 64.1897 360.231C62.6424 359.952 61.6471 361.034 61.2125 363.474C60.8455 365.525 61.0276 367.042 61.7557 368.027C62.1022 368.5 62.5778 368.791 63.1797 368.897L63.1768 368.9ZM68.3266 361.181C68.6202 361.78 68.7964 362.439 68.858 363.156C68.9314 363.864 68.8932 364.638 68.7435 365.472C68.5967 366.298 68.3648 367.036 68.0477 367.686C67.7423 368.335 67.3489 368.897 66.8644 369.37C66.38 369.84 65.7752 370.164 65.05 370.34C64.3336 370.516 63.532 370.525 62.6453 370.366C60.9542 370.064 59.7797 369.299 59.125 368.077C58.482 366.845 58.3147 365.372 58.62 363.659C58.9254 361.945 59.5918 360.625 60.6195 359.705C61.6588 358.785 63.0211 358.477 64.7123 358.779C65.6107 358.941 66.3624 359.226 66.9731 359.644C67.5838 360.058 68.033 360.569 68.3237 361.181H68.3266Z" fill="white"/>
<path d="M70.7227 369.934L72.1614 361.883C72.2553 361.351 72.1526 360.969 71.8443 360.737C72.2905 360.363 72.8807 360.243 73.6147 360.375C74.5131 360.537 75.1503 361.113 75.529 362.109L78.4974 369.875L79.6835 363.232C79.7775 362.7 79.6747 362.318 79.3664 362.086C79.8127 361.713 80.3148 361.577 80.8756 361.677C81.8973 361.86 82.2966 362.553 82.0823 363.758L80.6465 371.795C80.5438 372.377 80.5614 372.826 80.7053 373.147C80.3383 373.385 79.8509 373.452 79.249 373.344C78.6471 373.235 78.148 372.961 77.7545 372.523C77.3611 372.074 76.9794 371.368 76.6036 370.407L74.2489 364.158L73.1244 370.448C73.0275 370.998 73.1244 371.392 73.4209 371.624C72.9541 371.994 72.455 372.13 71.9265 372.036C71.395 371.942 71.0339 371.724 70.8431 371.383C70.6493 371.045 70.6111 370.563 70.7227 369.94V369.934Z" fill="white"/>
<path d="M42.0492 375.589C41.8936 376.451 41.4738 377.127 40.7867 377.62C40.1173 378.103 39.2512 378.358 38.1854 378.391C39.2394 378.77 40.132 379.372 40.869 380.201C41.233 380.63 41.4973 381.139 41.6617 381.721C41.8437 382.291 41.876 382.9 41.7615 383.546C41.5031 384.989 40.6018 386.056 39.0574 386.744C37.516 387.417 35.6281 387.555 33.3967 387.156C31.1624 386.756 29.5769 386.139 28.6374 385.304C27.7154 384.457 27.3837 383.305 27.645 381.847L29.3538 372.288C29.5417 371.23 29.4859 370.349 29.1864 369.646C31.5147 369.24 33.8195 369.24 36.0979 369.646C38.3762 370.055 39.994 370.804 40.9512 371.895C41.923 372.988 42.29 374.217 42.0434 375.583L42.0492 375.589ZM34.9264 377.024C35.8277 377.185 36.5882 377.091 37.2018 376.742C37.8184 376.377 38.1913 375.842 38.3175 375.134C38.4467 374.411 38.2735 373.779 37.8037 373.235C37.3516 372.679 36.6352 372.312 35.6545 372.139C34.6915 371.965 33.8547 371.918 33.1471 371.997L32.3368 376.533L34.8324 377.003C34.8618 377.009 34.8941 377.015 34.9234 377.021L34.9264 377.024ZM31.2181 382.8C31.0567 383.705 31.9463 384.331 33.89 384.681C35.0526 384.889 36.0039 384.813 36.7467 384.457C37.4896 384.099 37.93 383.529 38.0709 382.747C38.2118 381.965 37.9946 381.277 37.422 380.68C36.8524 380.072 35.9863 379.663 34.8236 379.455L31.9111 378.934L31.2181 382.803V382.8Z" fill="white"/>
<path d="M50.1559 384.29L53.7349 384.93L53.1184 378.714L50.1559 384.293V384.29ZM59.331 390.448C59.0756 390.815 58.7057 391.08 58.2154 391.247C57.7456 391.403 57.2142 391.423 56.6181 391.318C56.0221 391.209 55.5582 390.977 55.2264 390.618C54.9005 390.242 54.651 389.642 54.4807 388.819L54.1842 387.294L48.9756 386.362L48.1153 387.87C47.4635 389.037 46.6268 389.528 45.6021 389.345C45.1147 389.257 44.6655 389.066 44.2603 388.772C43.8727 388.466 43.6408 388.131 43.5645 387.77C43.8434 387.708 44.09 387.57 44.3014 387.355C44.5304 387.126 44.8005 386.765 45.1118 386.265L51.9909 374.925C51.8236 374.278 51.5975 373.808 51.3186 373.523C51.9234 372.87 52.7249 372.635 53.7203 372.812C54.4836 372.947 55.0062 373.255 55.2852 373.732C55.5641 374.208 55.8049 375.022 56.0104 376.168L58.1243 388.049C58.3269 389.21 58.7292 390.01 59.3281 390.451L59.331 390.448Z" fill="white"/>
<path d="M77.1819 388.084L76.0574 394.372C75.9106 395.2 76.0632 395.791 76.5213 396.141C75.8225 396.697 75.0738 396.905 74.281 396.761C73.4854 396.62 72.9451 396.291 72.6574 395.782C72.3697 395.274 72.311 394.548 72.4783 393.61L72.7015 392.367C71.618 393.393 70.1588 393.743 68.3238 393.413C66.5504 393.096 65.0266 392.158 63.7612 390.6C63.1564 389.842 62.7189 388.884 62.4517 387.726C62.1992 386.573 62.1933 385.327 62.4341 383.993C62.9273 381.23 64.1223 379.131 66.0219 377.697C67.9362 376.251 70.3555 375.789 73.2769 376.309C74.9123 376.603 76.2453 377.191 77.2699 378.07C78.3122 378.955 78.7468 379.872 78.5765 380.824C78.4796 381.377 78.1331 381.8 77.5459 382.088C76.9763 382.367 76.3627 382.447 75.705 382.329C75.0474 382.212 74.4866 381.944 74.0227 381.53C74.0667 381.377 74.099 381.233 74.1225 381.095C74.2458 380.404 74.1519 379.787 73.8377 379.237C73.5235 378.69 72.9716 378.346 72.1759 378.202C70.7842 377.952 69.5746 378.355 68.5528 379.407C67.4782 380.483 66.7648 381.988 66.4212 383.922C66.0777 385.856 66.204 387.432 66.8088 388.649C67.4136 389.851 68.4354 390.58 69.874 390.838C71.8764 391.197 73.045 390.447 73.3767 388.59L73.5705 387.508L72.8365 387.376C72.0408 387.235 71.3186 387.12 70.6726 387.035C70.4671 386.585 70.4113 386.1 70.5053 385.58C70.6022 385.042 70.9339 384.722 71.5065 384.619C72.0819 384.498 73.0185 384.557 74.3163 384.789C75.617 385.021 76.4596 385.386 76.8442 385.883C77.2435 386.382 77.358 387.114 77.1848 388.081L77.1819 388.084Z" fill="white"/>
</svg>
