<svg width="400" height="460" viewBox="0 0 400 460" fill="none" xmlns="http://www.w3.org/2000/svg">
<g clip-path="url(#clip0_539_5013)">
<path d="M252.878 429.033L343.178 449.814L376.308 409.569L352.09 390.82L285.767 364.429" fill="#B17E4F"/>
<path d="M252.878 429.034L343.178 449.811L356.908 433.134L376.308 409.568L352.092 390.821L285.767 364.429L261.589 411.916L252.878 429.034Z" fill="#F5BD61"/>
<path d="M252.878 429.034L343.178 449.811L356.908 433.132L342.604 405.39C341.33 406.014 338.75 418.631 322.426 416.733C303.74 414.556 298.744 397.076 298.744 397.076L261.588 411.914L252.878 429.031V429.034Z" fill="#CF9251"/>
<path d="M343.178 452.29C342.993 452.29 342.807 452.27 342.623 452.226L252.325 431.443C250.993 431.136 250.161 429.808 250.467 428.476C250.774 427.143 252.101 426.308 253.435 426.617L342.241 447.057L372.776 409.965L350.852 392.991L284.853 366.728C283.584 366.223 282.963 364.782 283.468 363.512C283.973 362.242 285.412 361.619 286.683 362.126L353.006 388.517C353.222 388.603 353.424 388.717 353.607 388.86L377.825 407.609C378.355 408.019 378.696 408.626 378.771 409.293C378.846 409.957 378.647 410.625 378.222 411.143L345.092 451.388C344.616 451.967 343.911 452.29 343.181 452.29H343.178Z" fill="#512E18"/>
<path d="M350.223 450.833C350.223 450.833 337.141 452.725 328.432 438.078C320.742 425.147 317.294 400.81 326.371 398.817C332.395 397.494 335.047 405.395 335.047 405.395C335.047 405.395 336.376 393.635 342.527 384.269C348.777 374.752 355.693 375.051 358.086 378.888C358.086 378.888 362.175 375.267 367.113 377.643C371.585 379.794 370.454 386.612 370.454 386.612C370.454 386.612 378.299 383.781 381.276 388.456C384.617 393.704 376.937 408.087 376.438 410.977C376.211 412.291 374.407 421.001 371.55 430.01C368.122 440.828 364.968 450.04 350.223 450.837V450.833Z" fill="#FCE5D8"/>
<path d="M321.439 417.168C322.465 424.428 325.033 432.367 328.432 438.077C337.144 452.724 350.222 450.833 350.222 450.833C364.966 450.035 368.118 440.825 371.55 430.009C374.086 422.005 375.786 414.253 376.299 411.686C376.363 411.362 376.41 411.123 376.435 410.973C376.934 408.082 384.616 393.699 381.274 388.45C378.297 383.776 370.454 386.609 370.454 386.609C370.454 386.609 371.583 379.791 367.113 377.638C362.177 375.265 358.083 378.883 358.083 378.883C355.689 375.046 348.775 374.748 342.527 384.269C336.378 393.634 335.049 405.392 335.049 405.392C335.049 405.392 332.395 397.491 326.369 398.813C321.303 399.928 320.142 408.004 321.439 417.167V417.168Z" fill="#FCE5D8"/>
<g opacity="0.7">
<path d="M321.013 408.717C321.816 405.729 323.335 403.674 325.716 403.15C331.742 401.828 334.395 409.729 334.395 409.729C334.395 409.729 335.724 397.973 341.874 388.606C348.12 379.085 355.036 379.384 357.43 383.221C357.43 383.221 361.523 379.604 366.459 381.976C370.928 384.128 369.801 390.946 369.801 390.946C369.801 390.946 377.644 388.114 380.621 392.787C381.263 393.798 381.496 395.152 381.451 396.696C382.255 393.41 382.475 390.338 381.276 388.451C378.299 383.778 370.456 386.61 370.456 386.61C370.456 386.61 371.585 379.792 367.115 377.64C362.178 375.267 358.085 378.885 358.085 378.885C355.691 375.048 348.777 374.749 342.529 384.27C336.379 393.635 335.05 405.393 335.05 405.393C335.05 405.393 332.397 397.492 326.371 398.814C322.966 399.566 321.324 403.461 321.013 408.717Z" fill="white"/>
</g>
<path d="M348.672 453.392C344.383 453.392 333.829 451.997 326.305 439.342C320.123 428.945 316.112 410.613 320.001 401.642C321.569 398.023 324.043 396.792 325.841 396.396C329.179 395.664 331.84 396.947 333.792 398.838C334.892 394.403 336.908 388.316 340.46 382.907C345.651 375.003 350.852 373.878 353.48 373.906C355.399 373.928 357.14 374.551 358.51 375.666C360.629 374.56 364.172 373.479 368.186 375.408C371.547 377.025 372.768 380.434 373.023 383.442C376.616 382.93 381.012 383.429 383.363 387.12C386.282 391.707 383.554 399.474 380.247 407.705C379.675 409.13 378.962 410.904 378.877 411.392C378.66 412.651 376.823 421.565 373.91 430.752C370.542 441.376 367.06 452.359 350.448 453.298C350.181 453.331 349.56 453.39 348.672 453.39V453.392ZM327.639 401.153C327.401 401.153 327.156 401.179 326.901 401.234C326.538 401.314 325.431 401.556 324.542 403.612C321.622 410.35 324.603 426.794 330.56 436.812C338.26 449.765 349.415 448.443 349.884 448.38C349.948 448.372 350.026 448.363 350.09 448.36C362.721 447.676 365.578 440.656 369.191 429.256C372.019 420.333 373.789 411.758 373.997 410.552C374.163 409.59 374.679 408.281 375.653 405.859C377.248 401.891 380.98 392.6 379.187 389.781C377.347 386.891 371.347 388.918 371.288 388.94C370.461 389.232 369.54 389.068 368.867 388.505C368.197 387.942 367.868 387.067 368.012 386.202C368.018 386.162 368.728 381.163 366.04 379.871C362.626 378.227 359.756 380.715 359.727 380.739C359.181 381.222 358.452 381.441 357.73 381.335C357.009 381.23 356.371 380.814 355.987 380.196C355.457 379.346 354.545 378.869 353.422 378.857C350.677 378.857 347.401 381.355 344.596 385.625C338.858 394.361 337.519 405.559 337.507 405.67C337.375 406.823 336.461 407.73 335.307 407.852C334.151 407.973 333.071 407.278 332.702 406.179C332.686 406.133 330.932 401.151 327.639 401.151V401.153Z" fill="#512E18"/>
<path d="M337.294 404.355C338.786 406.789 339.139 409.791 339.078 412.531C339.055 412.563 339.117 412.624 338.904 412.203C338.618 411.709 338.177 411.341 337.726 411.197C337.583 411.158 337.604 411.175 337.602 411.18C337.721 411.257 339.517 411.598 339.699 411.648C344.835 412.705 349.702 415.768 352.311 420.343C352.956 421.428 353.491 422.561 353.898 423.728C352.392 421.849 350.647 420.171 348.641 418.901C345.712 417.025 342.473 416.21 339.076 416.076C337.984 415.988 336.468 416.195 335.471 415.547C335.219 415.419 334.723 414.934 334.548 414.566C334.195 413.873 334.2 413.631 334.125 413.364C333.848 411.942 333.757 410.697 333.498 409.369C333.305 408.306 333.04 407.316 332.766 406.301C332.051 403.525 335.799 401.947 337.296 404.355H337.294Z" fill="#512E18"/>
<path d="M345.975 398.945C353.906 393.963 367.365 398.58 370.054 407.685C366.201 405.279 362.668 403.786 358.459 402.67C354.154 401.616 350.241 400.9 345.975 398.945Z" fill="#512E18"/>
<path d="M351.36 400.557C351.205 400.557 351.047 400.542 350.888 400.512C349.546 400.252 348.667 398.954 348.925 397.612C349.349 395.414 350.906 392.888 352.556 390.213C354.648 386.821 357.512 382.173 356.135 380.412C355.292 379.334 355.483 377.778 356.56 376.937C357.636 376.095 359.193 376.284 360.035 377.362C363.534 381.84 359.783 387.925 356.77 392.813C355.427 394.99 354.038 397.243 353.786 398.549C353.558 399.733 352.522 400.557 351.358 400.557H351.36Z" fill="#512E18"/>
<path d="M364 403.809C363.772 403.809 363.539 403.778 363.307 403.711C361.996 403.329 361.24 401.954 361.622 400.642C362.243 398.503 363.32 396.647 364.458 394.682C365.914 392.172 367.42 389.575 368.014 386.182C368.25 384.836 369.535 383.935 370.88 384.172C372.226 384.409 373.127 385.693 372.889 387.039C372.142 391.299 370.334 394.416 368.739 397.168C367.714 398.938 366.827 400.466 366.374 402.024C366.059 403.107 365.071 403.811 363.999 403.811L364 403.809Z" fill="#512E18"/>
<path d="M200.117 400.578C151.833 430.706 51.6969 435.667 41.4618 376.949C35.8954 345.015 54.7912 319.53 69.8953 297.694C82.2679 279.807 87.8779 265.357 88.1484 245.412C88.4987 219.716 73.8465 209.347 58.5672 215.175C40.5314 222.053 47.3533 248.272 24.2765 248.505C6.32673 248.686 -2.54966 224.757 5.41673 203.402C21.1666 161.178 90.5689 154.36 114.482 206.009C143.085 267.788 85.1589 320.676 79.1345 344.2C69.6029 379.139 113.866 399.591 175.132 374.07" fill="#B17E4F"/>
<path d="M200.119 400.581C151.831 430.703 51.6954 435.667 41.4634 376.948C36.0675 345.994 53.6608 321.102 68.4975 299.713C68.9666 299.034 69.4357 298.363 69.8969 297.692C82.2695 279.806 87.8827 265.361 88.1485 245.412C88.4987 219.716 73.8512 209.347 58.5673 215.178C40.533 222.051 47.3565 248.272 24.2766 248.503C13.6959 248.608 6.26267 240.337 3.58271 229.15C1.71424 221.36 2.14736 212.166 5.41679 203.405C21.1698 161.18 90.5705 154.361 114.484 206.012C143.085 267.788 85.1621 320.676 79.1361 344.199C69.6045 379.138 113.868 399.591 175.136 374.07L200.121 400.584L200.119 400.581Z" fill="#B17E4F"/>
<path d="M200.119 400.581C151.831 430.702 51.6954 435.667 41.4634 376.947C40.1828 369.591 40.1969 362.571 41.1694 355.865C44.2762 334.358 57.1882 316.018 68.4975 299.711C68.9666 299.032 69.4357 298.361 69.8969 297.69C82.2695 279.804 87.8827 265.359 88.1485 245.411C88.4987 219.714 73.8512 209.345 58.5673 215.176C40.533 222.049 47.3565 248.27 24.2766 248.501C13.6959 248.606 6.26267 240.335 3.58271 229.148C1.71424 221.358 2.14736 212.164 5.41679 203.403C21.1698 161.178 90.5705 154.359 114.484 206.01C143.085 267.786 85.1621 320.674 79.1361 344.197C75.3428 358.112 80.0742 369.726 91.0192 377.052C107.556 388.134 138.264 389.422 175.138 374.066L200.122 400.581H200.119Z" fill="#F5BD61"/>
<g opacity="0.35">
<path d="M14.7138 217.621C9.69791 217.621 9.4368 204.132 18.7963 191.634C28.9955 178.015 42.6783 179.835 43.2021 181.933C44.1387 185.676 36.8165 191.285 29.5271 202.822C24.125 211.372 19.7298 217.623 14.7138 217.623V217.621Z" fill="white"/>
</g>
<path d="M200.119 400.581C151.831 430.703 51.6954 435.667 41.4634 376.948C40.1829 369.591 40.1969 362.571 41.1695 355.866C41.1695 355.866 43.6602 396.539 71.4574 395.455C86.2582 394.875 90.3391 385.443 91.0177 377.053C107.554 388.135 138.263 389.422 175.136 374.067L200.121 400.581H200.119Z" fill="#CF9251"/>
<path d="M68.4973 299.713C68.9664 299.034 69.4355 298.363 69.8967 297.692C82.2693 279.806 87.8825 265.361 88.1483 245.413C88.4985 219.716 73.851 209.347 58.5671 215.179C40.5329 222.052 47.3563 248.272 24.2764 248.503C13.6957 248.608 6.26248 240.337 3.58252 229.15C7.61341 234.01 13.8067 238.052 22.9739 236.617C40.8409 233.82 36.0548 205.105 55.7667 198.398C72.2139 192.801 94.2134 199.677 94.8091 237.554C95.4049 275.373 68.4958 299.715 68.4958 299.715L68.4973 299.713Z" fill="#CF9251"/>
<path d="M117.134 424.931C99.6501 424.931 83.7736 422.021 71.1634 416.384C53.1854 408.347 42.0731 394.858 39.0257 377.376C33.5173 345.77 50.7525 320.939 65.9598 299.031L67.8627 296.288C80.5949 277.883 85.4216 264.086 85.678 245.381C85.8485 232.874 82.3461 223.472 75.8166 218.904C71.2494 215.71 65.4392 215.208 59.4538 217.49C52.3568 220.196 49.5924 226.386 46.6638 232.938C42.9144 241.327 38.6646 250.837 24.3063 250.983C24.2328 250.983 24.1577 250.983 24.0827 250.983C16.9606 250.983 10.6219 247.53 6.21106 241.244C-0.748398 231.324 -1.96798 216.129 3.10268 202.537C10.7939 181.918 31.505 167.992 55.8638 167.058C68.1019 166.596 80.0461 169.501 90.386 175.482C101.73 182.044 110.839 192.241 116.732 204.969C138.305 251.563 111.898 293.317 94.4231 320.947C88.3158 330.604 83.0403 338.946 81.5377 344.815C78.5106 355.913 81.1124 365.451 89.0522 372.437C105.365 386.788 138.782 386.535 174.186 371.784L176.088 376.357C138.952 391.826 103.506 391.748 85.7828 376.155C76.4608 367.954 73.2523 356.374 76.7516 343.548C78.4387 336.958 83.6454 328.724 90.239 318.299C107.138 291.578 132.677 251.195 112.24 207.051C101.645 184.165 80.6496 171.082 56.053 172.007C33.694 172.864 14.731 185.528 7.74024 204.268C3.29188 216.192 4.30663 229.908 10.2623 238.4C12.7108 241.89 17.0888 246.03 24.0749 246.03C24.1343 246.03 24.1953 246.03 24.2547 246.03C35.4389 245.918 38.3972 239.298 42.1435 230.917C45.205 224.066 48.6761 216.301 57.6901 212.863C65.2547 209.977 72.6988 210.681 78.6529 214.847C86.5677 220.382 90.8222 231.25 90.6283 245.448C90.3625 264.999 85.1214 280.043 71.9342 299.106L70.0282 301.856C55.3651 322.98 38.7443 346.923 43.9041 376.525C46.6935 392.535 56.5456 404.424 73.1851 411.864C109.488 428.092 167.451 418.045 198.81 398.479L201.429 402.682C184.613 413.174 161.283 420.833 137.421 423.692C130.493 424.522 123.699 424.932 117.136 424.932L117.134 424.931Z" fill="#512E18"/>
<path d="M187.091 429.033L96.7932 449.814L63.6611 409.569L87.8809 390.82L154.204 364.429" fill="#B17E4F"/>
<path d="M187.091 429.034L96.7917 449.811L83.0619 433.134L63.6611 409.568L87.8793 390.821L154.203 364.429L178.382 411.916L187.091 429.034Z" fill="#F5BD61"/>
<path d="M187.091 429.034L96.7917 449.811L83.062 433.132L97.3656 405.39C98.6399 406.014 101.22 418.631 117.543 416.733C136.23 414.556 141.225 397.076 141.225 397.076L178.382 411.914L187.091 429.031V429.034Z" fill="#CF9251"/>
<path d="M96.7916 452.29C96.0614 452.29 95.3578 451.967 94.8809 451.388L61.7504 411.143C61.3251 410.625 61.1265 409.959 61.2016 409.293C61.2766 408.626 61.6175 408.021 62.146 407.609L86.3657 388.86C86.5487 388.719 86.7504 388.603 86.9661 388.517L153.29 362.126C154.559 361.619 155.999 362.242 156.504 363.512C157.009 364.782 156.39 366.223 155.119 366.728L89.1207 392.991L67.1963 409.965L97.7313 447.057L186.538 426.617C187.868 426.306 189.197 427.141 189.505 428.476C189.812 429.808 188.98 431.138 187.648 431.443L97.3498 452.226C97.1653 452.269 96.9793 452.29 96.7948 452.29H96.7916Z" fill="#512E18"/>
<path d="M219.694 449.846V449.859L219.675 449.852L219.694 449.846Z" fill="#A1ACC6"/>
<path d="M219.675 449.852L219.656 449.859V449.846L219.675 449.852Z" fill="#A1ACC6"/>
<path d="M303.463 389.137L298.741 397.056L280.757 427.233C280.757 427.233 256.087 437.907 219.978 437.907C183.868 437.907 159.205 427.233 159.205 427.233L141.221 397.075V397.069L136.486 389.137C129.769 355.299 152.972 290.726 176.407 264.997H263.539C286.975 290.726 310.177 355.299 303.46 389.137H303.463Z" fill="#B17E4F"/>
<path d="M303.462 389.14L298.741 397.059L280.762 427.232C280.762 427.232 256.085 437.908 219.981 437.908C183.877 437.908 159.207 427.232 159.207 427.232L141.227 397.078V397.072L136.492 389.14C131.835 365.688 141.544 327.481 155.753 297.671C162.041 284.455 169.215 272.896 176.415 264.995H263.542C270.728 272.888 277.896 284.43 284.184 297.626C298.399 327.442 308.121 365.675 303.463 389.14H303.462Z" fill="#F5BD61"/>
<path d="M284.183 297.626C266.719 305.558 244.33 310.319 219.917 310.319C195.503 310.319 173.203 305.576 155.752 297.671C162.041 284.455 169.215 272.896 176.415 264.995H263.542C270.728 272.888 277.896 284.43 284.184 297.626H284.183Z" fill="#A05F3C"/>
<path d="M191.182 308.034C171.832 304.89 154.904 298.632 142.301 290.331C148.323 281.685 158.012 274.842 172.896 272.169L191.182 308.034Z" fill="#A05F3C"/>
<path d="M297.625 290.268C285.041 298.581 268.139 304.846 248.802 308.008L267.074 272.17C281.925 274.837 291.603 281.649 297.625 290.268Z" fill="#A05F3C"/>
<path d="M220.126 432.56C156.064 432.56 174.7 376.395 174.7 351.327C174.7 347.101 175.102 342.816 175.91 338.628C185.218 338.028 193.17 337.896 193.17 337.896C193.17 337.896 203.593 367.247 219.987 367.247C236.381 367.247 242.281 337.896 242.281 337.896C242.281 337.896 252.875 338.055 264.375 338.806C265.171 342.937 265.561 347.157 265.561 351.327C265.561 376.395 284.197 432.56 220.128 432.56H220.126Z" fill="#E2B28A"/>
<path d="M298.741 397.058L280.757 427.234C280.757 427.234 256.087 437.908 219.978 437.908C183.869 437.908 159.205 427.234 159.205 427.234L141.221 397.077V397.07C145.506 380.348 142.276 348.797 147.527 343.686C152.775 338.576 193.166 337.899 193.166 337.899C193.166 337.899 203.592 367.249 219.983 367.249C236.373 367.249 242.273 337.899 242.273 337.899C242.273 337.899 287.189 338.576 292.44 343.686C297.689 348.797 294.46 380.335 298.74 397.058H298.741Z" fill="#CF9251"/>
<path d="M265.557 351.327C265.557 376.396 284.194 432.561 220.126 432.561C156.059 432.561 174.697 376.396 174.697 351.327C174.697 326.258 196.136 314.986 220.126 314.986C244.116 314.986 265.557 326.258 265.557 351.327Z" fill="#FCE5D8"/>
<path d="M220.126 432.56C156.064 432.56 174.7 376.395 174.7 351.327C174.7 347.101 175.102 342.816 175.91 338.628C185.218 338.028 196.904 337.896 196.904 337.896C196.904 337.896 207.111 361.882 219.987 361.882C232.863 361.882 243.001 337.896 243.001 337.896C243.001 337.896 252.875 338.055 264.375 338.806C265.171 342.937 265.561 347.157 265.561 351.327C265.561 376.395 284.197 432.56 220.128 432.56H220.126Z" fill="#F4B68C"/>
<path d="M303.462 389.139C305.433 353.391 285.176 293.783 261.483 266.873L263.544 267.783L219.972 267.78V262.208C219.991 262.188 219.989 267.799 219.972 267.78V262.208C220 262.188 219.972 267.78 219.981 267.78L176.409 267.792L178.476 266.879C158.783 289.739 145.699 326.94 139.671 356.347C137.579 367.107 136.013 377.931 136.491 389.139C132.907 378.394 133.134 366.638 134.515 355.506C137.686 333.111 145.169 311.541 155.49 291.473C160.783 281.402 166.659 271.639 174.342 263.111L175.171 262.197H176.409L219.981 262.21V267.781H219.972V262.21C219.998 262.189 219.972 267.781 219.981 267.781H219.972V262.21L263.544 262.207H264.784L265.606 263.117C289.358 289.639 314.279 354.239 303.463 389.14L303.462 389.139Z" fill="#512E18"/>
<path d="M159.207 427.231C168.261 428.162 180.596 430.913 189.557 432.638C209.561 436.402 230.401 436.399 250.405 432.641C255.409 431.672 260.376 430.602 265.375 429.602C270.439 428.575 275.543 427.635 280.756 427.231C278.682 429.003 276.356 430.326 273.99 431.511C266.863 434.938 259.083 436.763 251.307 437.941C230.527 441.105 209.435 441.102 188.653 437.944C178.298 436.277 167.77 433.669 159.205 427.231H159.207Z" fill="#512E18"/>
<path d="M165.927 311.775C165.634 311.724 165.34 311.674 165.054 311.609C165.182 311.622 165.5 311.661 165.927 311.775Z" fill="#E23B3B"/>
<path d="M89.7464 450.833C89.7464 450.833 102.829 452.725 111.538 438.078C119.228 425.147 122.675 400.81 113.599 398.817C107.574 397.494 104.922 405.395 104.922 405.395C104.922 405.395 103.593 393.635 97.4423 384.269C91.1927 374.752 84.277 375.051 81.8832 378.888C81.8832 378.888 77.7944 375.267 72.8567 377.643C68.3848 379.794 69.5153 386.612 69.5153 386.612C69.5153 386.612 61.6709 383.781 58.6938 388.456C55.3525 393.704 63.0327 408.087 63.5315 410.977C63.7582 412.291 65.5626 421.001 68.4192 430.01C71.8482 440.828 75.0019 450.04 89.7464 450.837V450.833Z" fill="#FCE5D8"/>
<path d="M118.53 417.169C117.504 424.428 114.937 432.368 111.538 438.077C102.825 452.724 89.7477 450.833 89.7477 450.833C75.0032 450.035 71.851 440.826 68.419 430.009C65.8829 422.005 64.1833 414.253 63.6704 411.686C63.6063 411.363 63.5594 411.123 63.5344 410.973C63.0356 408.082 55.3538 393.7 58.6951 388.45C61.6722 383.777 69.5151 386.609 69.5151 386.609C69.5151 386.609 68.3862 379.791 72.8564 377.639C77.7926 375.266 81.8861 378.884 81.8861 378.884C84.2799 375.047 91.194 374.748 97.442 384.269C103.592 393.634 104.921 405.392 104.921 405.392C104.921 405.392 107.574 397.491 113.6 398.813C118.666 399.928 119.828 408.004 118.53 417.167V417.169Z" fill="#FCE5D8"/>
<g opacity="0.7">
<path d="M118.958 408.718C118.155 405.73 116.637 403.675 114.255 403.151C108.229 401.829 105.576 409.73 105.576 409.73C105.576 409.73 104.247 397.974 98.0973 388.607C91.8508 379.086 84.9352 379.385 82.5413 383.222C82.5413 383.222 78.4479 379.605 73.5117 381.977C69.043 384.129 70.1704 390.947 70.1704 390.947C70.1704 390.947 62.3275 388.114 59.3505 392.788C58.7078 393.799 58.4748 395.153 58.5202 396.697C57.7165 393.411 57.4945 390.339 58.6953 388.452C61.6723 383.779 69.5152 386.611 69.5152 386.611C69.5152 386.611 68.3863 379.793 72.8566 377.641C77.7928 375.268 81.8862 378.886 81.8862 378.886C84.28 375.049 91.1942 374.75 97.4422 384.271C103.592 393.636 104.921 405.394 104.921 405.394C104.921 405.394 107.574 397.493 113.6 398.815C117.006 399.567 118.647 403.462 118.958 408.718Z" fill="white"/>
</g>
<path d="M91.299 453.392C90.4093 453.392 89.7902 453.333 89.5228 453.3C72.913 452.361 69.4309 441.378 66.063 430.754C63.1547 421.578 61.3144 412.654 61.0971 411.395C61.0126 410.907 60.2997 409.132 59.7274 407.707C56.4204 399.476 53.6936 391.707 56.6112 387.122C58.9612 383.431 63.358 382.93 66.9511 383.443C67.2059 380.435 68.4271 377.027 71.7888 375.41C75.7993 373.481 79.3455 374.562 81.4641 375.668C82.8338 374.552 84.5757 373.93 86.4942 373.908C89.1382 373.874 94.323 375.006 99.514 382.908C103.066 388.317 105.082 394.405 106.183 398.84C108.134 396.948 110.792 395.666 114.133 396.398C115.932 396.794 118.405 398.025 119.973 401.644C123.86 410.615 119.851 428.947 113.669 439.344C106.145 451.997 95.591 453.394 91.3006 453.394L91.299 453.392ZM90.0888 448.38C90.5829 448.446 101.719 449.749 109.411 436.812C115.369 426.795 118.349 410.35 115.43 403.612C114.538 401.557 113.433 401.314 113.07 401.234C109.291 400.401 107.288 406.13 107.268 406.188C106.891 407.281 105.811 407.973 104.655 407.849C103.504 407.722 102.594 406.82 102.464 405.67C102.452 405.561 101.114 394.363 95.3753 385.627C92.589 381.383 89.3133 378.859 86.6005 378.859H86.5504C85.4262 378.871 84.5162 379.347 83.9846 380.198C83.5984 380.815 82.9605 381.231 82.2413 381.336C81.5204 381.441 80.7903 381.222 80.2461 380.74C80.1429 380.651 77.2816 378.263 73.934 379.872C71.2462 381.166 71.9561 386.163 71.9623 386.213C72.0984 387.078 71.77 387.956 71.0961 388.514C70.4206 389.071 69.5044 389.235 68.6804 388.94C68.6272 388.919 62.6278 386.891 60.7875 389.784C58.9941 392.603 62.7263 401.894 64.3211 405.861C65.2937 408.282 65.8097 409.592 65.9754 410.554C66.1834 411.761 67.9565 420.345 70.7818 429.258C74.3952 440.658 77.2519 447.678 89.8824 448.362C89.9528 448.365 90.0216 448.371 90.0904 448.382L90.0888 448.38Z" fill="#512E18"/>
<path d="M107.171 406.433C106.477 408.724 106.252 410.95 105.847 413.363C105.772 413.631 105.775 413.873 105.423 414.566C104.994 415.386 104.122 415.868 103.323 415.965C101.44 416.11 99.4109 416.06 97.5768 416.445C94.2558 417.042 91.0646 418.704 88.5456 421.055C87.6638 421.863 86.8601 422.775 86.0752 423.731C86.4817 422.564 87.0165 421.433 87.6622 420.346C90.2703 415.769 95.1377 412.707 100.274 411.651C100.462 411.599 102.243 411.258 102.371 411.183C102.371 411.178 102.39 411.16 102.247 411.199C102.153 411.222 101.939 411.328 101.842 411.389C101.656 411.48 101.218 411.906 101.068 412.204C100.856 412.627 100.917 412.564 100.895 412.533V412.25C100.848 409.609 101.243 406.7 102.679 404.357C104.25 401.864 108.047 403.651 107.172 406.434L107.171 406.433Z" fill="#512E18"/>
<path d="M93.996 398.945C89.7321 400.9 85.8154 401.618 81.5124 402.671C77.3017 403.786 73.7712 405.278 69.917 407.686C72.6048 398.582 86.064 393.961 93.996 398.945Z" fill="#512E18"/>
<path d="M88.6113 400.558C87.448 400.558 86.4113 399.735 86.1831 398.549C85.9313 397.241 84.5429 394.989 83.1998 392.812C80.1868 387.924 76.4358 381.839 79.935 377.361C80.7762 376.283 82.3335 376.092 83.4093 376.935C84.4866 377.778 84.6773 379.333 83.8346 380.411C82.4571 382.172 85.3215 386.819 87.4136 390.212C89.0632 392.887 90.6205 395.414 91.0442 397.611C91.3037 398.953 90.425 400.251 89.0819 400.511C88.924 400.542 88.7661 400.556 88.6113 400.556V400.558Z" fill="#512E18"/>
<path d="M75.9696 403.809C74.897 403.809 73.9088 403.105 73.5946 402.023C73.1411 400.463 72.2546 398.935 71.2289 397.164C69.634 394.414 67.8265 391.295 67.0791 387.038C66.843 385.691 67.7421 384.407 69.0884 384.171C70.4361 383.936 71.7183 384.834 71.9544 386.181C72.5501 389.572 74.0542 392.17 75.5099 394.68C76.6498 396.646 77.7255 398.502 78.3463 400.641C78.7278 401.954 77.9726 403.329 76.6607 403.71C76.4309 403.778 76.1979 403.809 75.9681 403.809H75.9696Z" fill="#512E18"/>
<path d="M172.899 272.167C150.865 276.12 140.223 289.215 135.999 303.776C129.291 326.904 133.136 379.982 154.159 429.927L201.817 448.036C221.396 433.552 196.19 358.477 194.826 315.18" fill="#F5BD61"/>
<path d="M191.182 308.034C171.832 304.89 154.904 298.632 142.301 290.331C148.323 281.685 158.012 274.842 172.896 272.169L191.182 308.034Z" fill="#A05F3C"/>
<path d="M201.817 448.038L154.161 429.927C153.046 427.286 151.981 424.631 150.962 421.977C157.939 419.824 171.223 417.738 193.821 420.907C212.928 423.586 186.915 351.362 194.859 316.083C196.535 359.503 221.262 433.658 201.817 448.038Z" fill="#CF9251"/>
<path d="M173.337 274.604C148.712 278.89 137.074 295.803 135.845 320.019C133.842 357.199 142.411 394.66 156.442 428.967L155.041 427.613L202.699 445.721C202.699 445.721 200.343 446.048 200.35 446.043C202.106 444.654 203.362 442.588 204.247 440.246C206.88 432.645 206.514 424.329 206.095 416.227C205.354 405.126 203.645 393.975 201.951 382.816C199.4 366.522 196.343 348.62 195.167 332.235C194.768 326.56 194.548 320.859 194.829 315.181C197.489 337.336 203.185 359.988 207.125 381.934C209.969 398.666 216.934 432.21 206.866 446.458C205.684 448.183 203.942 449.586 202.236 450.841L200.943 450.35L153.285 432.241L152.292 431.864L151.883 430.888C140.206 402.814 132.868 372.935 130.892 342.557C129.738 319.79 130.002 292.911 150.663 278.447C157.175 273.791 164.813 271.111 172.466 269.729L173.34 274.603L173.337 274.604Z" fill="#512E18"/>
<path d="M203.463 446.267C196.321 454.797 183.09 458.228 178.718 452.873C178.42 452.793 177.786 451.881 177.786 451.881C177.786 451.881 172.207 457.19 166.056 456.71C163.695 456.525 161.101 455.536 159.577 453.099C157.05 454.653 153.437 455.524 150.436 454.986C148.094 454.567 146.595 453.099 146.036 451.881C143.846 452.657 141.751 452.4 140.406 452.075C134.355 450.614 135.592 441.784 136.983 438.546C141.045 429.094 149.887 425.784 155.394 424.22C167.124 421.26 196.06 421.494 204.592 434.323C208.59 440.334 203.462 446.267 203.462 446.267H203.463Z" fill="#FCE5D8"/>
<path d="M203.46 446.267C196.318 454.796 183.091 458.228 178.715 452.868C178.423 452.791 177.785 451.881 177.785 451.881C177.785 451.881 172.21 457.189 166.055 456.706C163.697 456.522 161.098 455.535 159.575 453.098C157.052 454.651 153.434 455.524 150.439 454.982C148.096 454.568 146.598 453.098 146.036 451.882C143.844 452.66 141.749 452.398 140.404 452.073C135.753 450.953 135.409 445.46 136.136 441.512C136.353 440.334 136.664 439.291 136.983 438.546C141.048 429.094 149.892 425.782 155.396 424.216C166.252 421.485 191.84 421.473 202.358 431.657C203.205 432.478 203.957 433.37 204.594 434.324C208.589 440.334 203.46 446.267 203.46 446.267Z" fill="#FCE5D8"/>
<path d="M203.46 446.266C196.318 454.796 183.091 458.228 178.715 452.867C178.423 452.79 177.785 451.88 177.785 451.88C177.785 451.88 172.21 457.189 166.055 456.706C163.697 456.521 161.098 455.534 159.575 453.097C157.052 454.65 153.434 455.523 150.439 454.982C148.096 454.567 146.598 453.097 146.036 451.882C143.844 452.659 141.749 452.398 140.404 452.072C135.753 450.953 135.409 445.459 136.136 441.511C136.919 443.351 138.328 444.79 140.404 445.464C141.724 445.897 143.589 445.885 145.616 444.796C146.221 446.1 147.833 447.973 150.431 448.373C153.444 448.85 157.045 448.048 159.574 446.488C161.103 448.927 163.695 449.914 166.053 450.098C172.207 450.582 177.783 445.267 177.783 445.267C177.783 445.267 178.419 446.183 178.72 446.266C183.084 451.62 197.961 446.961 201.44 439.697C202.72 437.049 202.899 434.363 202.358 431.657C203.205 432.478 203.957 433.37 204.594 434.324C208.589 440.333 203.46 446.266 203.46 446.266Z" fill="#E2B28A"/>
<path d="M166.844 459.215C166.519 459.215 166.192 459.203 165.864 459.178C163.073 458.959 160.681 457.926 158.93 456.215C156.079 457.446 152.764 457.918 150 457.423C147.752 457.021 146.082 455.922 144.982 454.701C142.967 455.042 141.133 454.798 139.827 454.482C137.465 453.911 135.637 452.455 134.544 450.268C132.471 446.124 133.547 440.279 134.711 437.568C139.629 426.125 150.988 422.898 154.72 421.837C165.628 419.086 196.967 418.384 206.654 432.951C210.632 438.934 207.547 445.316 205.349 447.87C200.38 453.795 192.166 457.911 185.332 457.911H185.226C182.02 457.89 179.394 456.974 177.556 455.247C175.299 456.888 171.31 459.214 166.844 459.214V459.215ZM160.373 449.702L161.675 451.785C162.874 453.704 165.056 454.147 166.25 454.241C171.204 454.635 176.037 450.129 176.085 450.083L178.176 448.114L179.819 450.468C179.855 450.521 179.9 450.581 179.944 450.639L180.13 450.689L180.635 451.307C181.737 452.656 183.756 452.952 185.257 452.961H185.327C189.962 452.961 197.003 450.127 201.567 444.679L201.585 444.657C201.781 444.426 205.4 440.01 202.533 435.698C195.179 424.642 168.227 423.539 156.001 426.624C150.566 428.168 142.833 431.21 139.258 439.527C138.398 441.529 137.799 445.718 138.969 448.056C139.413 448.943 140.035 449.442 140.988 449.672C142.04 449.925 143.627 450.112 145.211 449.55L147.345 448.794L148.288 450.853C148.501 451.318 149.315 452.272 150.872 452.55C153.13 452.954 156.107 452.328 158.281 450.992L160.373 449.705V449.702Z" fill="#512E18"/>
<path d="M143.668 452.616C143.055 449.395 143.65 446.869 144.396 444.365C146.621 437.188 152.242 430.98 159.577 429.092C155.301 431.087 151.834 434.525 149.917 438.773C148.251 442.529 147.093 447.232 148.407 451.143L143.669 452.616H143.668Z" fill="#512E18"/>
<path d="M157.347 454.186C156.146 450.861 156.65 448 157.392 445.369C159.661 437.763 165.917 431.844 173.339 429.469C171.135 430.656 169.104 432.085 167.352 433.777C163.007 438 159.056 446.206 161.806 452.009L157.347 454.186Z" fill="#512E18"/>
<path d="M176.535 454.053C172.975 444.956 181.604 437.269 189.235 434.343C187.619 435.472 186.075 436.67 184.725 438.042C181.371 441.41 177.958 447.316 180.898 451.688L176.535 454.053Z" fill="#512E18"/>
<path d="M267.076 272.167C289.11 276.12 299.752 289.215 303.977 303.776C310.684 326.904 306.84 379.982 285.816 429.927L238.158 448.036C218.579 433.552 243.785 358.477 245.149 315.18" fill="#F5BD61"/>
<path d="M297.625 290.268C285.042 298.581 268.139 304.846 248.803 308.008L267.075 272.17C281.925 274.837 291.604 281.649 297.625 290.268Z" fill="#A05F3C"/>
<path d="M238.158 448.038L285.814 429.927C286.929 427.286 287.994 424.631 289.013 421.977C282.036 419.824 268.752 417.738 246.154 420.907C227.047 423.586 253.06 351.362 245.116 316.083C243.44 359.503 218.713 433.658 238.158 448.038Z" fill="#CF9251"/>
<path d="M267.512 269.73C294.49 274.547 307.622 293.026 309.067 319.65C311.128 357.714 302.439 395.805 288.097 430.89L287.687 431.866L286.694 432.243L239.036 450.351L237.743 450.843C236.041 449.577 234.294 448.19 233.114 446.46C223.046 432.232 230.01 398.651 232.852 381.936C236.794 359.984 242.489 337.345 245.148 315.183C245.43 320.861 245.209 326.562 244.811 332.237C243.64 348.594 240.567 366.544 238.026 382.818C236.238 397.169 228.068 436.515 239.627 446.045C239.635 446.048 237.277 445.722 237.279 445.723L284.937 427.615L283.534 428.968C294.981 401.466 302.217 371.998 304.145 342.26C304.799 327.815 305.139 312.278 299.575 298.848C294.013 285.274 280.862 276.876 266.638 274.606L267.512 269.73Z" fill="#512E18"/>
<path d="M236.511 446.267C243.653 454.796 256.884 458.228 261.256 452.872C261.555 452.792 262.188 451.88 262.188 451.88C262.188 451.88 267.767 457.189 273.918 456.709C276.279 456.525 278.873 455.536 280.397 453.099C282.924 454.652 286.539 455.523 289.538 454.985C291.88 454.566 293.38 453.099 293.938 451.88C296.128 452.656 298.224 452.4 299.568 452.074C305.619 450.613 304.383 441.784 302.991 438.546C298.929 429.093 290.087 425.784 284.58 424.219C272.85 421.26 243.915 421.493 235.382 434.322C231.384 440.334 236.513 446.267 236.513 446.267H236.511Z" fill="#FCE5D8"/>
<path d="M236.514 446.266C243.657 454.796 256.883 458.228 261.259 452.867C261.552 452.791 262.19 451.88 262.19 451.88C262.19 451.88 267.764 457.189 273.92 456.706C276.277 456.521 278.876 455.534 280.399 453.097C282.923 454.65 286.541 455.523 289.535 454.982C291.879 454.567 293.377 453.097 293.938 451.882C296.13 452.659 298.225 452.398 299.57 452.073C304.222 450.953 304.566 445.459 303.839 441.511C303.621 440.333 303.31 439.29 302.991 438.545C298.926 429.093 290.082 425.782 284.578 424.216C273.723 421.485 248.135 421.472 237.617 431.657C236.769 432.478 236.017 433.37 235.381 434.324C231.386 440.333 236.514 446.266 236.514 446.266Z" fill="#FCE5D8"/>
<path d="M236.514 446.267C243.657 454.796 256.883 458.228 261.259 452.868C261.552 452.791 262.19 451.881 262.19 451.881C262.19 451.881 267.764 457.189 273.92 456.706C276.278 456.522 278.876 455.535 280.399 453.098C282.923 454.651 286.541 455.524 289.535 454.982C291.879 454.568 293.377 453.098 293.938 451.882C296.13 452.66 298.225 452.398 299.57 452.073C304.222 450.953 304.566 445.46 303.839 441.512C303.055 443.351 301.647 444.79 299.57 445.464C298.25 445.898 296.385 445.885 294.359 444.796C293.754 446.101 292.142 447.973 289.541 448.374C286.528 448.851 282.927 448.048 280.399 446.489C278.87 448.927 276.278 449.914 273.92 450.099C267.765 450.582 262.19 445.267 262.19 445.267C262.19 445.267 261.553 446.184 261.253 446.267C256.889 451.621 242.012 446.961 238.533 439.697C237.252 437.049 237.074 434.363 237.615 431.657C236.768 432.478 236.016 433.37 235.379 434.324C231.384 440.334 236.513 446.267 236.513 446.267H236.514Z" fill="#E2B28A"/>
<path d="M273.132 459.215C268.664 459.215 264.676 456.889 262.418 455.248C260.581 456.975 257.956 457.892 254.749 457.912H254.642C247.808 457.912 239.594 453.797 234.625 447.871C232.427 445.317 229.342 438.935 233.32 432.952C243.008 418.383 274.346 419.086 285.184 421.818C288.988 422.898 300.347 426.123 305.264 437.568C306.429 440.279 307.505 446.124 305.432 450.268C304.339 452.454 302.511 453.911 300.148 454.482C298.843 454.798 297.007 455.042 294.993 454.701C293.893 455.922 292.223 457.02 289.974 457.422C287.213 457.918 283.897 457.446 281.046 456.215C279.294 457.926 276.903 458.958 274.112 459.177C273.784 459.204 273.455 459.215 273.132 459.215ZM261.808 448.106L263.894 450.085C263.938 450.125 268.771 454.615 273.726 454.239C274.919 454.145 277.1 453.703 278.301 451.783L279.603 449.7L281.695 450.987C283.869 452.323 286.846 452.949 289.102 452.545C290.661 452.267 291.475 451.313 291.688 450.848L292.631 448.79L294.765 449.545C296.349 450.107 297.936 449.919 298.988 449.667C299.941 449.437 300.563 448.938 301.007 448.051C302.176 445.713 301.578 441.526 300.718 439.522C297.143 431.205 289.41 428.164 283.905 426.6C271.749 423.533 244.796 424.639 237.445 435.693C234.524 440.085 238.348 444.601 238.387 444.646L238.412 444.676C242.975 450.124 250.017 452.958 254.652 452.958H254.722C256.221 452.949 258.242 452.655 259.344 451.303L259.849 450.685L260.035 450.635C260.08 450.576 260.126 450.515 260.163 450.462L261.813 448.106H261.808Z" fill="#512E18"/>
<path d="M291.569 451.142C292.884 447.229 291.727 442.531 290.061 438.773C288.142 434.524 284.677 431.086 280.401 429.092C287.736 430.981 293.355 437.188 295.58 444.364C296.326 446.869 296.922 449.395 296.309 452.616L291.569 451.142Z" fill="#512E18"/>
<path d="M278.168 452.01C280.081 448.204 278.69 443.299 276.865 439.558C274.687 435.209 270.971 431.754 266.635 429.47C274.057 431.845 280.314 437.762 282.582 445.37C283.324 448.001 283.826 450.864 282.627 454.187L278.168 452.01Z" fill="#512E18"/>
<path d="M259.075 451.688C260.952 449.17 260.185 445.306 258.634 442.533C256.832 439.198 253.892 436.503 250.738 434.343C252.547 435.108 254.347 435.971 256.033 437.08C261.46 440.581 266.277 447.241 263.439 454.053L259.077 451.688H259.075Z" fill="#512E18"/>
<path d="M101.847 172.202C101.847 172.202 94.1603 149.847 69.4136 153.86C45.6442 157.714 38.7066 182.505 44.2464 199.408C50.066 217.166 61.2033 225.314 76.1964 227.457C91.8587 229.695 106.81 223.635 106.81 223.635L101.847 172.203V172.202Z" fill="#FCE5D8"/>
<path d="M106.811 223.632C106.811 223.632 91.8589 229.693 76.2013 227.46C64.9327 225.852 55.8405 220.846 49.558 210.928C47.4675 207.645 45.6898 203.825 44.2497 199.409C38.7037 182.51 45.6444 157.719 69.4138 153.862C94.1636 149.851 101.847 172.2 101.847 172.2L103.303 187.309L106.811 223.634V223.632Z" fill="#FCE5D8"/>
<path d="M83.4609 230.432C80.9857 230.432 78.4293 230.277 75.8463 229.908C58.7549 227.464 47.6488 217.742 41.8933 200.179C38.3237 189.286 39.7403 176.544 45.5927 166.923C50.7619 158.425 58.8612 153.063 69.0166 151.415C95.5129 147.117 104.103 171.154 104.186 171.396L104.281 171.673L109.451 225.234L107.738 225.928C107.204 226.144 96.451 230.432 83.4593 230.432H83.4609ZM75.1646 155.856C73.4853 155.856 71.7028 155.997 69.8093 156.304C61.1268 157.711 54.2143 162.274 49.8222 169.496C44.7797 177.786 43.5148 189.225 46.5981 198.635C51.7798 214.446 61.2957 222.825 76.5468 225.004C88.3783 226.692 99.9081 223.391 104.163 221.957L99.4156 172.756C98.5619 170.519 92.3029 155.855 75.1661 155.855L75.1646 155.856Z" fill="#5E3519"/>
<path d="M83.4609 230.432C80.9857 230.432 78.4293 230.277 75.8463 229.908C58.7549 227.464 47.6488 217.742 41.8933 200.179C38.3237 189.286 39.7403 176.544 45.5927 166.923C50.7619 158.425 58.8612 153.063 69.0166 151.415C95.5129 147.117 104.103 171.154 104.186 171.396L104.281 171.673L109.451 225.234L107.738 225.928C107.204 226.144 96.451 230.432 83.4593 230.432H83.4609ZM75.1646 155.856C73.4853 155.856 71.7028 155.997 69.8093 156.304C61.1268 157.711 54.2143 162.274 49.8222 169.496C44.7797 177.786 43.5148 189.225 46.5981 198.635C51.7798 214.446 61.2957 222.825 76.5468 225.004C88.3783 226.692 99.9081 223.391 104.163 221.957L99.4156 172.756C98.5619 170.519 92.3029 155.855 75.1661 155.855L75.1646 155.856Z" fill="#512E18"/>
<path d="M57.0429 197.558C62.9782 216.629 97.4487 221.317 100.806 199.98V193.169C92.8534 162.895 58.1906 162.478 56.5629 187.354C56.5629 187.354 56.4675 189.586 56.5629 192.329C56.6489 194.784 57.0429 197.56 57.0429 197.56V197.558Z" fill="#F28475"/>
<path d="M100.806 193.17V199.982C97.4501 221.313 62.9796 216.63 57.0427 197.556C57.0427 197.556 56.6518 194.786 56.5596 192.329C56.4673 189.588 56.5596 187.353 56.5596 187.353C56.6205 186.45 56.7206 185.578 56.8738 184.742C57.0583 183.61 57.3257 182.538 57.6713 181.528C63.9224 162.769 93.5365 165.478 100.806 193.169V193.17Z" fill="#FAC1C0"/>
<path d="M57.0425 197.559C63.3906 213.948 94.9576 218.891 98.3599 199.98L98.3349 193.17L98.4162 193.799C96.4586 186.319 92.3714 179.346 85.9061 175.069C77.2751 169.182 64.5993 169.834 59.1658 179.666C57.8446 181.983 57.0269 184.625 56.5641 187.354C56.0887 178.268 61.8239 170.037 70.9614 168.195C86.6237 165.104 99.7624 178.14 103.199 192.55C103.252 192.754 103.277 192.97 103.279 193.171L103.254 199.982C99.6451 224.464 61.4987 218.431 57.0456 197.561L57.0425 197.559Z" fill="#512E18"/>
<path d="M99.7954 208.065C95.1516 206.868 86.9226 202.377 86.8975 195.607C86.8616 186.396 99.2373 186.396 99.2373 186.396" fill="#FCE5D8"/>
<path d="M99.3328 209.864C93.8227 208.445 85.0698 203.321 85.0401 195.614C85.0292 192.841 85.9564 190.498 87.7951 188.652C91.8448 184.585 98.9356 184.54 99.2358 184.54V188.253C99.2108 188.253 96.3651 188.276 93.6226 189.317C90.3328 190.566 88.7395 192.622 88.7521 195.601C88.7739 201.428 96.5136 205.304 100.257 206.268L99.3312 209.865L99.3328 209.864Z" fill="#512E18"/>
<path d="M338.104 172.202C338.104 172.202 345.791 149.847 370.538 153.86C394.307 157.714 401.245 182.505 395.705 199.408C389.885 217.166 378.748 225.314 363.755 227.457C348.092 229.695 333.142 223.635 333.142 223.635L338.104 172.203V172.202Z" fill="#FCE5D8"/>
<path d="M333.142 223.632C333.142 223.632 348.094 229.693 363.752 227.46C375.02 225.852 384.112 220.846 390.395 210.928C392.485 207.645 394.263 203.825 395.703 199.409C401.249 182.51 394.309 157.719 370.539 153.862C345.789 149.851 338.106 172.2 338.106 172.2L336.65 187.309L333.142 223.634V223.632Z" fill="#FCE5D8"/>
<path d="M356.492 230.432C343.498 230.432 332.746 226.144 332.213 225.928L330.5 225.234L335.67 171.673L335.765 171.396C335.849 171.154 344.44 147.117 370.934 151.415C381.09 153.063 389.191 158.425 394.358 166.921C400.209 176.541 401.627 189.284 398.058 200.177C392.302 217.74 381.196 227.463 364.105 229.906C361.523 230.275 358.965 230.43 356.49 230.43L356.492 230.432ZM335.79 221.955C340.051 223.388 351.609 226.687 363.406 225.006C378.657 222.825 388.173 214.447 393.355 198.637C396.438 189.225 395.173 177.788 390.13 169.497C385.737 162.276 378.826 157.713 370.143 156.305C348.929 152.862 341.477 170.303 340.539 172.759L335.792 221.957L335.79 221.955Z" fill="#5E3519"/>
<path d="M356.492 230.432C343.498 230.432 332.746 226.144 332.213 225.928L330.5 225.234L335.67 171.673L335.765 171.396C335.849 171.154 344.44 147.117 370.934 151.415C381.09 153.063 389.191 158.425 394.358 166.921C400.209 176.541 401.627 189.284 398.058 200.177C392.302 217.74 381.196 227.463 364.105 229.906C361.523 230.275 358.965 230.43 356.49 230.43L356.492 230.432ZM335.79 221.955C340.051 223.388 351.609 226.687 363.406 225.006C378.657 222.825 388.173 214.447 393.355 198.637C396.438 189.225 395.173 177.788 390.13 169.497C385.737 162.276 378.826 157.713 370.143 156.305C348.929 152.862 341.477 170.303 340.539 172.759L335.792 221.957L335.79 221.955Z" fill="#512E18"/>
<path d="M382.908 197.558C376.973 216.629 342.502 221.317 339.146 199.98V193.169C347.098 162.895 381.761 162.478 383.388 187.354C383.388 187.354 383.484 189.586 383.388 192.329C383.302 194.784 382.908 197.56 382.908 197.56V197.558Z" fill="#F28475"/>
<path d="M339.147 193.17V199.982C342.502 221.313 376.973 216.63 382.91 197.556C382.91 197.556 383.301 194.786 383.393 192.329C383.485 189.588 383.393 187.353 383.393 187.353C383.332 186.45 383.232 185.578 383.079 184.742C382.894 183.61 382.627 182.538 382.281 181.528C376.03 162.769 346.416 165.478 339.147 193.169V193.17Z" fill="#FAC1C0"/>
<path d="M382.908 197.559C378.454 218.43 340.307 224.462 336.7 199.981C336.713 199.768 336.606 192.504 336.75 192.562C340.184 178.149 353.327 165.101 368.992 168.195C378.125 170.038 383.868 178.265 383.39 187.355C382.927 184.625 382.109 181.983 380.788 179.667C375.348 169.834 362.683 169.18 354.048 175.07C347.582 179.346 343.497 186.319 341.538 193.799L341.619 193.17L341.594 199.981C344.998 218.892 376.563 213.951 382.911 197.559H382.908Z" fill="#512E18"/>
<path d="M340.158 208.066C344.802 206.869 353.031 202.378 353.056 195.608C353.092 186.397 340.716 186.397 340.716 186.397" fill="#FCE5D8"/>
<path d="M340.618 209.864L339.693 206.267C343.438 205.303 351.176 201.427 351.198 195.6C351.209 192.622 349.615 190.565 346.327 189.316C343.586 188.274 340.739 188.252 340.711 188.252L340.714 184.539C341.014 184.539 348.106 184.585 352.155 188.651C353.993 190.498 354.92 192.84 354.91 195.613C354.88 203.32 346.127 208.444 340.617 209.863L340.618 209.864Z" fill="#512E18"/>
<g opacity="0.35">
<path d="M340.004 208.754C339.624 208.564 339.244 208.383 338.848 208.208C342.529 202.658 345.495 196.106 347.764 189.007C345.853 196.151 343.275 202.885 340.004 208.754Z" fill="white"/>
</g>
<path d="M219.945 295.334C320.38 289.393 351.545 253.926 355.341 230.912C357.812 215.935 352.433 203.9 341.747 196.565C380.892 105.719 320.194 32.1274 219.934 32.1274C119.675 32.1274 58.9756 105.719 98.1211 196.565C87.4372 203.898 82.057 215.935 84.5275 230.912C88.3238 253.924 119.489 289.392 219.923 295.334H219.945Z" fill="#B17E4F"/>
<path d="M355.344 230.91C351.546 253.924 320.381 289.39 219.945 295.333H219.923C119.487 289.392 88.3238 253.924 84.5259 230.91C83.619 225.393 83.7754 220.275 84.8683 215.642C86.7415 207.704 91.3712 201.199 98.1212 196.564C58.974 105.719 119.675 32.1274 219.933 32.1274C320.191 32.1274 380.892 105.721 341.752 196.564C348.479 201.191 353.108 207.666 354.989 215.575C356.096 220.224 356.261 225.37 355.346 230.91H355.344Z" fill="#F5BD61"/>
<g opacity="0.35">
<path d="M353.687 146.26C351.471 84.1693 297.564 40.0515 219.931 40.0515C142.298 40.0515 88.3907 84.1709 86.183 146.253C83.9017 80.0352 139.043 32.1289 219.931 32.1289C300.819 32.1289 355.968 80.0352 353.687 146.261V146.26Z" fill="white"/>
</g>
<path d="M355.344 230.91C351.546 253.924 320.381 289.39 219.945 295.333H219.923C119.487 289.392 88.3238 253.924 84.5259 230.91C83.619 225.393 83.7754 220.275 84.8683 215.642C96.753 227.843 121.251 230.866 219.895 201.918C318.726 230.916 343.127 227.827 354.989 215.575C356.096 220.224 356.261 225.37 355.346 230.91H355.344Z" fill="#CF9251"/>
<path d="M219.945 297.81H219.923C219.875 297.81 219.826 297.81 219.776 297.806C174.54 295.131 139.193 286.329 114.712 271.648C89.6306 256.607 83.5046 239.921 82.0833 231.315C79.6472 216.551 84.2519 203.991 95.0703 195.718C78.1603 155.194 80.0506 115.89 100.457 84.8592C123.53 49.773 167.077 29.6514 219.932 29.6514C272.787 29.6514 316.334 49.7746 339.408 84.8592C359.814 115.888 361.705 155.193 344.795 195.718C355.611 203.991 360.218 216.551 357.782 231.315C356.362 239.921 350.234 256.607 325.153 271.648C300.674 286.329 265.324 295.129 220.089 297.806C220.04 297.809 219.992 297.81 219.943 297.81H219.945ZM219.934 34.6036C168.775 34.6036 126.736 53.9134 104.594 87.5809C84.8258 117.64 83.3341 155.997 100.393 195.585C100.862 196.67 100.496 197.937 99.5202 198.607C89.2006 205.689 84.7445 217.019 86.9694 230.508C88.25 238.27 93.8882 253.384 117.259 267.399C141.022 281.651 175.569 290.215 219.934 292.852C264.299 290.213 298.846 281.651 322.609 267.399C345.98 253.384 351.618 238.27 352.899 230.508C355.124 217.019 350.666 205.689 340.348 198.607C339.372 197.937 339.006 196.672 339.475 195.585C356.534 155.995 355.042 117.638 335.274 87.5809C313.132 53.9134 271.092 34.6036 219.934 34.6036Z" fill="#512E18"/>
<path d="M263.556 44.9363C268.511 37.8819 283.407 38.7781 279.969 33.1158C273.07 21.752 245.869 28.0807 246.274 26.2772C249.496 11.9508 244.107 1.18299 237.604 2.6064C235.678 3.02873 218.078 21.2968 192.312 30.7038C182.06 34.4469 172.492 36.521 151.051 45.9546L263.556 44.9348V44.9363Z" fill="#B17E4F"/>
<path d="M263.553 44.9364L174.659 45.7388L151.046 45.9547C172.489 36.5242 182.063 34.4517 192.312 30.7086C218.081 21.3 235.673 3.0319 237.606 2.60801C239.857 2.1106 241.976 3.08352 243.649 5.16232C246.807 9.06809 248.383 16.9109 246.273 26.2741C245.871 28.0792 273.074 21.752 279.972 33.1143C283.406 38.7798 268.511 37.8819 263.553 44.9364Z" fill="#F5BD61"/>
<g opacity="0.35">
<path d="M243.649 5.16183C237.57 -0.824298 233.748 15.7811 216.654 26.7351C199.559 37.689 174.046 45.7446 174.046 45.7446L151.048 45.9542C172.491 36.5237 182.064 34.4512 192.314 30.7081C218.083 21.2995 235.675 3.03141 237.607 2.60752C239.859 2.11011 241.977 3.08303 243.65 5.16183H243.649Z" fill="white"/>
</g>
<path d="M263.556 44.9364C265.929 39.3648 272.709 37.7005 277.451 34.8631C277.736 34.6629 277.96 34.4564 278.024 34.3547C278.11 34.228 277.939 34.3391 277.891 34.5643C277.839 34.788 277.892 34.8099 277.795 34.6535C273.907 28.7284 264.808 28.5375 258.049 28.6048C254.296 28.6001 250.336 29.2148 246.557 29.0522C244.777 28.927 243.337 27.3738 243.928 25.4045C245.171 19.1915 245.542 11.3878 241.344 6.2792C240.432 5.33443 239.392 4.76976 238.149 5.02473C238.093 5.05132 238.52 4.9121 238.461 4.92618C238.481 4.91836 238.501 4.90741 238.522 4.89646L238.517 4.90115C225.388 15.7722 211.428 26.1021 195.17 32.2744C187.899 35.057 180.538 37.1014 173.28 39.7277C166.103 42.2679 159.045 45.1554 152.048 48.2244L150.055 43.6914C157.131 40.5864 164.31 37.6505 171.623 35.0602C178.817 32.4558 186.29 30.3692 193.378 27.6585C207.491 22.187 220.153 13.6637 231.762 3.947C233.165 2.86302 234.853 1.20811 236.465 0.396302C239.408 -0.723654 242.95 0.665341 244.932 2.86928C250.355 9.14791 250.309 18.0372 248.924 25.7048C248.865 25.9394 248.747 26.587 248.693 26.8138C248.896 26.0395 248.544 25.0463 247.955 24.5692C247.493 24.1954 247.282 24.1844 247.135 24.1344C247.817 24.1844 248.511 24.1328 249.232 24.0999C258.926 23.5556 274.823 22.0696 281.553 30.6711C283.254 32.7921 283.854 35.9002 281.568 37.9226C279.307 39.8591 276.546 40.1719 273.894 40.8617C270.229 41.7283 266.549 42.3978 263.559 44.938L263.556 44.9364Z" fill="#512E18"/>
<path d="M219.901 295.297C277.05 295.297 342.501 264.448 341.275 225.811C340.8 210.736 329.169 201.906 324.961 199.538C330.565 187.284 337.069 153.51 320.151 125.12C293.618 80.5785 236.996 86.2894 219.901 128.053H219.933C202.838 86.2878 146.217 80.5785 119.683 125.12C102.767 153.51 109.269 187.284 114.873 199.538C110.666 201.906 99.0343 210.736 98.559 225.811C97.3331 264.45 162.783 295.297 219.933 295.297H219.901Z" fill="#FCE5D8"/>
<path d="M219.931 295.294H219.901C162.76 295.287 97.3312 264.439 98.557 225.809C98.6164 223.914 98.8541 222.125 99.2262 220.433C106.236 255.328 166.661 282.107 219.901 282.115H219.931C273.17 282.107 333.596 255.328 340.606 220.433C340.978 222.125 341.216 223.916 341.275 225.809C342.501 264.439 277.073 295.288 219.931 295.294Z" fill="#F4B68C"/>
<path d="M219.932 297.773H219.898C177.922 297.764 133.032 281.674 110.726 258.639C100.649 248.232 95.7223 237.161 96.0851 225.731C96.5651 210.542 107.202 201.682 111.768 198.568C105.415 182.73 101.758 150.364 117.556 123.85C130.515 102.097 151.822 90.1182 174.562 91.8169C193.908 93.2591 210.848 104.717 219.917 122.139C228.986 104.717 245.927 93.2606 265.271 91.8169C288.007 90.1307 309.319 102.097 322.278 123.85C338.076 150.363 334.419 182.729 328.066 198.568C332.632 201.682 343.269 210.542 343.749 225.731C344.111 237.159 339.185 248.231 329.107 258.639C306.801 281.673 261.911 297.762 219.936 297.773H219.931H219.932ZM170.336 96.6143C150.97 96.6143 133.043 107.529 121.809 126.388C104.413 155.584 112.811 189.076 117.125 198.507C117.661 199.678 117.209 201.063 116.088 201.695C115.494 202.029 101.533 210.069 101.034 225.889C100.715 235.927 105.173 245.787 114.282 255.194C135.733 277.346 179.17 292.818 219.917 292.822C260.665 292.819 304.101 277.346 325.552 255.194C334.661 245.787 339.119 235.928 338.8 225.891C338.301 210.072 324.338 202.031 323.746 201.696C322.625 201.064 322.174 199.678 322.709 198.508C327.023 189.078 335.421 155.586 318.025 126.39C306.048 106.284 286.467 95.2127 265.639 96.7597C246.221 98.2081 230.06 110.116 222.336 128.644C222.267 128.922 222.151 129.192 221.987 129.436C221.527 130.121 220.756 130.532 219.932 130.532C219.108 130.532 218.322 130.121 217.862 129.436C217.712 129.212 217.601 128.969 217.529 128.719C209.818 110.151 193.639 98.2097 174.196 96.7597C172.905 96.6627 171.618 96.6158 170.338 96.6158L170.336 96.6143Z" fill="#512E18"/>
<path d="M225.188 209.065C224.556 209.267 223.934 208.752 224.007 208.093C224.226 206.119 225.019 202.713 227.865 202.176C231.634 201.466 232.144 204.74 231.833 205.73C231.472 206.884 230.532 207.629 228.654 208.081C227.502 208.359 226.16 208.753 225.186 209.063L225.188 209.065Z" fill="#512E18"/>
<path d="M214.81 208.968C215.453 209.131 216.042 208.58 215.93 207.928C215.592 205.971 214.598 202.617 211.724 202.253C207.918 201.771 207.607 205.068 207.976 206.038C208.406 207.168 209.388 207.856 211.289 208.194C212.455 208.402 213.819 208.714 214.81 208.966V208.968Z" fill="#512E18"/>
<path d="M129.753 218.187C138.008 218.187 144.7 214.544 144.7 210.051C144.7 205.558 138.008 201.916 129.753 201.916C121.499 201.916 114.807 205.558 114.807 210.051C114.807 214.544 121.499 218.187 129.753 218.187Z" fill="#FAC1C0"/>
<path d="M310.116 218.187C318.371 218.187 325.062 214.544 325.062 210.051C325.062 205.558 318.371 201.916 310.116 201.916C301.862 201.916 295.17 205.558 295.17 210.051C295.17 214.544 301.862 218.187 310.116 218.187Z" fill="#FAC1C0"/>
<path d="M173.656 209.243C184.609 209.243 193.488 198.999 193.488 186.361C193.488 173.723 184.609 163.479 173.656 163.479C162.702 163.479 153.823 173.723 153.823 186.361C153.823 198.999 162.702 209.243 173.656 209.243Z" fill="#512E18"/>
<path d="M179.043 187.922C182.614 187.922 185.509 184.26 185.509 179.743C185.509 175.226 182.614 171.564 179.043 171.564C175.473 171.564 172.578 175.226 172.578 179.743C172.578 184.26 175.473 187.922 179.043 187.922Z" fill="white"/>
<g opacity="0.2">
<path d="M166.262 199.606C168.239 199.606 169.842 197.128 169.842 194.071C169.842 191.014 168.239 188.535 166.262 188.535C164.284 188.535 162.681 191.014 162.681 194.071C162.681 197.128 164.284 199.606 166.262 199.606Z" fill="white"/>
</g>
<path d="M298.908 175.735C283.462 170.85 270.548 177.734 261.806 190.438C261.273 191.206 260.779 191.987 260.31 192.78L255.566 187.917C261.634 185.056 268.753 183.653 275.431 184.712C281.973 185.713 287.981 188.572 293.129 192.54C284.472 190.161 275.33 188.419 266.642 191.056C263.919 191.846 261.286 192.966 258.723 194.327C255.611 195.978 252.278 192.498 253.979 189.464C261.852 173.113 283.7 162.652 298.908 175.732V175.735Z" fill="#512E18"/>
<path d="M151.911 258.459C127.302 296.225 133.081 343.624 164.826 364.31L185.475 377.764C194.27 383.495 204.127 386.565 214.311 387.224C228.125 388.124 242.543 384.559 255.702 377.098C262.401 373.291 268.787 368.486 274.584 362.739C274.911 362.408 275.233 362.086 275.554 361.765C275.817 361.49 276.075 361.224 276.33 360.959C280.401 356.725 284.165 352 287.533 346.832C312.142 309.066 306.353 261.661 274.608 240.975L253.959 227.521C222.212 206.834 176.52 220.694 151.911 258.459Z" fill="#F1C65E" stroke="#512D16" stroke-width="4"/>
<path d="M164.829 364.29C133.08 343.601 127.294 296.21 151.906 258.44C176.519 220.67 222.209 206.824 253.959 227.513C285.709 248.203 291.494 295.593 266.882 333.363C242.269 371.133 196.579 384.98 164.829 364.29Z" fill="#FCDC65" stroke="#512D16" stroke-width="4"/>
<path d="M172.495 352.525C147.243 336.07 143.293 297.379 163.671 266.106C184.05 234.833 221.041 222.821 246.293 239.276C271.545 255.731 275.495 294.422 255.116 325.695C234.737 356.968 197.746 368.98 172.495 352.525Z" fill="#FFA04A"/>
<path d="M172.495 352.527C147.243 336.072 143.293 297.381 163.672 266.108C184.051 234.835 221.042 222.823 246.293 239.278C271.545 255.733 275.495 294.424 255.117 325.697C234.738 356.97 197.747 368.982 172.495 352.527Z" fill="#FFF2C4"/>
<path d="M241.489 304.418C241.489 304.418 244.744 298.575 251.446 300.293C257.884 301.944 258.586 308.821 256.201 313.245C253.696 317.894 250.185 319.81 245.896 320.004C241.417 320.208 237.548 318.186 237.548 318.186L241.489 304.416L241.489 304.418Z" fill="#FCE5D8"/>
<path opacity="0.15" d="M237.338 318.272C237.338 318.272 241.209 320.298 245.684 320.111C248.906 319.975 251.687 318.869 253.926 316.365C253.019 316.43 251.984 316.269 251.731 315.277C251.491 314.342 252.756 312.864 253.134 309.836C253.537 306.611 248.04 302.042 240.103 308.588L237.338 318.272L237.338 318.272Z" fill="#231F20"/>
<path d="M240.046 310.206C239.351 312.671 241.872 316.146 245.406 316.52C248.865 316.886 252.731 314.222 253.277 310.7C253.709 307.916 251.99 305.091 249.45 304.446C246.407 303.672 243.512 306.364 241.731 308.02C240.812 308.874 240.278 309.384 240.046 310.206Z" fill="#FAC1C0"/>
<path d="M244.466 311.308C244.179 312.879 242.347 314.001 240.374 313.815C239.846 313.765 239.363 313.627 238.942 313.421C239.648 311.086 240.167 309.365 240.54 308.129C240.824 308.1 241.118 308.1 241.413 308.128C243.386 308.314 244.753 309.738 244.466 311.309L244.466 311.308Z" fill="#FCE5D8"/>
<path d="M253.15 317.184C248.996 320.78 242.532 321.362 237.515 318.354C237.987 316.703 238.408 315.233 238.781 313.928C239.559 311.212 240.132 309.21 240.543 307.772C241.214 305.429 241.455 304.584 241.455 304.584C241.811 304.037 243.858 300.994 247.578 300.209C251.586 299.363 255.04 301.649 256.54 304.169C259.003 308.308 256.769 314.05 253.15 317.184Z" stroke="#512E18" stroke-width="2" stroke-miterlimit="10"/>
<path d="M242.15 307.828C244.716 304.402 249.088 303.553 251.429 305.126C254.166 306.966 253.896 311.967 250.807 314.602C247.982 317.012 243.417 316.917 240.891 314.042C243.127 313.726 244.656 311.882 244.506 310.282C244.4 309.149 243.457 308.188 242.15 307.828Z" stroke="#512E18" stroke-width="2" stroke-miterlimit="10"/>
<path opacity="0.25" d="M247.078 309.796C247.353 307.495 248.838 305.67 250.395 305.719C251.953 305.768 252.992 307.672 252.717 309.973C252.442 312.273 250.957 314.099 249.399 314.05C247.842 314.001 246.803 312.096 247.078 309.796Z" fill="white"/>
<path d="M176.475 299.049C176.475 299.049 175.442 292.811 168.341 293.261C161.52 293.693 158.353 300.214 159.058 304.922C159.799 309.869 162.5 312.357 166.575 313.319C170.833 314.326 175.304 313.071 175.304 313.071L176.476 299.047L176.475 299.049Z" fill="#FCE5D8"/>
<path opacity="0.15" d="M175.427 313.221C175.427 313.221 170.96 314.457 166.705 313.443C163.641 312.712 161.352 311.125 160.09 308.289C160.942 308.521 162 308.558 162.601 307.647C163.169 306.789 162.478 305.125 163.201 302.13C163.971 298.94 170.923 295.55 176.237 303.352L175.428 313.221L175.427 313.221Z" fill="#231F20"/>
<path d="M175.765 304.925C175.551 307.435 171.867 310.322 168.319 310.025C164.846 309.734 162.069 306.441 162.807 302.937C163.39 300.168 166.066 297.759 168.751 297.609C171.969 297.428 173.798 300.568 174.924 302.499C175.504 303.495 175.837 304.087 175.765 304.925Z" fill="#FAC1C0"/>
<path d="M171.086 305.101C170.799 306.671 172.166 308.096 174.138 308.283C174.666 308.333 175.183 308.289 175.663 308.169C175.821 305.782 175.937 304.023 176.021 302.759C175.757 302.679 175.474 302.624 175.178 302.596C173.205 302.409 171.373 303.531 171.086 305.101L171.086 305.101Z" fill="#FCE5D8"/>
<path d="M160.579 309.282C163.294 313.509 169.333 315.24 175.272 313.239C175.412 311.557 175.537 310.06 175.648 308.731C175.879 305.965 176.05 303.926 176.173 302.462C176.371 300.076 176.444 299.215 176.444 299.215C176.298 298.622 175.42 295.31 172.107 293.878C168.538 292.336 164.372 293.921 162.011 296.087C158.132 299.643 158.214 305.598 160.579 309.282Z" stroke="#512E18" stroke-width="2" stroke-miterlimit="10"/>
<path d="M174.598 302.217C173.356 298.441 169.437 296.829 166.605 297.926C163.293 299.209 161.745 304.093 163.778 307.199C165.638 310.04 170.084 310.774 173.567 308.451C171.519 307.741 170.709 305.683 171.432 304.163C171.945 303.087 173.204 302.328 174.598 302.217Z" stroke="#512E18" stroke-width="2" stroke-miterlimit="10"/>
<path opacity="0.25" d="M165.345 306.941C163.829 306.708 163.059 304.675 163.625 302.4C164.192 300.125 165.881 298.469 167.397 298.701C168.914 298.934 169.684 300.966 169.117 303.242C168.551 305.517 166.862 307.173 165.345 306.941Z" fill="white"/>
<path d="M236.177 270.205C232.593 269.313 228.563 268.526 224.117 267.988C215.968 267.004 208.628 267.13 202.555 267.662C202.644 267.118 202.752 265.971 202.206 264.753C201.323 262.784 199.407 262.134 198.992 262.004C204.159 259.472 208.031 261.112 208.901 261.711C209.209 258.129 210.217 256.08 213.255 255.715C217.779 261.728 223.014 263.859 229.438 266.405C231.344 267.039 236.177 270.204 236.177 270.204L236.177 270.205Z" fill="#F5BD61"/>
<path d="M174.053 304.648C172.582 300.469 172.253 295.936 173.111 291.27C175.438 278.612 186.483 268.546 200.384 264.835C200.587 264.781 200.79 264.728 200.994 264.676C200.994 264.676 200.394 263.59 198.131 262.468C200.202 260.531 205.137 259.951 208.332 261.583C208.852 255.649 213.124 255.54 213.124 255.54C217.568 262.637 225.131 265.199 225.131 265.199C225.3 265.251 225.469 265.304 225.637 265.357C241.133 270.333 250.802 283.642 248.13 298.173C247.268 302.866 245.206 307.202 242.246 310.991C244.136 313.704 244.937 316.621 244.395 319.573C242.448 330.16 223.947 337.186 203.072 335.265C182.196 333.344 166.852 323.204 168.799 312.616C169.346 309.638 171.203 306.943 174.054 304.648L174.053 304.648Z" fill="#FFAE64"/>
<path opacity="0.25" d="M248.559 291.242C248.559 291.242 246.536 272.782 226.113 267.954C217.037 265.807 211.895 259.271 211.895 259.271C210.147 260.503 209.071 262.338 209.071 262.338C204.567 261.566 202.123 262.752 202.123 262.752C204.044 264.033 204.338 266.253 204.338 266.253C197.742 267.226 181.567 271.491 174.616 287.63C178.861 277.626 182.65 271.056 201.327 264.607C200.566 263.262 198.481 262.411 198.481 262.411C203.263 259.515 207.455 260.895 208.621 261.53C209.426 257.385 210.221 256.489 213.383 255.517C218.175 262.785 224.383 264.904 227.745 265.963C231.106 267.021 239.377 271.382 243.773 277.752C248.169 284.122 248.558 291.243 248.558 291.243L248.559 291.242Z" fill="white"/>
<path opacity="0.15" d="M168.353 314.404C168.273 320.667 175.152 330.96 202.641 335.095L202.647 335.095C230.719 336.046 241.08 327.331 243.26 321.259C243.781 319.803 243.99 318.429 243.915 317.159C240.029 320.127 233.104 320.318 207.242 310.064C178.482 315.332 171.884 313.887 169.205 310.304C168.671 311.521 168.373 312.896 168.354 314.404L168.353 314.404Z" fill="#231F20"/>
<path d="M174.053 304.648C172.582 300.469 172.253 295.936 173.111 291.27C175.438 278.612 186.483 268.546 200.384 264.835C200.587 264.781 200.79 264.728 200.994 264.676C200.994 264.676 200.394 263.59 198.131 262.468C200.202 260.531 205.137 259.951 208.332 261.583C208.852 255.649 213.124 255.54 213.124 255.54C217.568 262.637 225.131 265.199 225.131 265.199C225.3 265.251 225.469 265.304 225.637 265.357C241.133 270.333 250.802 283.642 248.13 298.173C247.268 302.866 245.206 307.202 242.246 310.991C244.136 313.704 244.937 316.621 244.395 319.573C242.448 330.16 223.947 337.186 203.072 335.265C182.196 333.344 166.852 323.204 168.799 312.616C169.346 309.638 171.203 306.943 174.054 304.648L174.053 304.648Z" stroke="#512E18" stroke-width="2" stroke-miterlimit="10"/>
<path d="M178.515 306.089C175.179 308.419 172.991 311.279 172.401 314.489C170.609 324.241 184.25 333.538 202.871 335.254C221.491 336.971 238.04 330.456 239.832 320.705C240.42 317.505 239.18 314.887 236.816 312.038C237.14 311.409 243.943 297.784 237.659 288.826C236.714 287.479 234.192 283.884 229.196 282.5C226.138 281.653 223.518 282.012 222.735 282.139C215.986 283.228 211.947 288.612 211.185 289.665C210.813 288.255 209.425 283.781 204.883 281.223C197.695 277.175 189.257 281.672 188.511 282.084C180.948 286.262 176.675 296.009 178.515 306.089L178.515 306.089Z" fill="#FCE5D8"/>
<path opacity="0.15" d="M202.501 335.693L202.51 335.694C218.309 337.135 237.911 330.527 239.467 320.153C239.543 319.644 239.565 319.159 239.545 318.696C235.897 327.863 217.877 333.507 203.156 332.165L203.148 332.164C188.428 330.818 173.034 322.121 172.806 312.601C172.62 313.044 172.466 313.518 172.357 314.023C170.124 324.336 186.702 334.249 202.501 335.693Z" fill="#231F20"/>
<path d="M178.489 306.158C175.154 308.488 172.965 311.348 172.375 314.558C170.583 324.31 184.225 333.607 202.845 335.323C221.465 337.039 238.014 330.525 239.806 320.774C240.394 317.574 239.155 314.956 236.79 312.107C237.115 311.478 243.918 297.853 237.634 288.895C236.689 287.548 234.167 283.952 229.171 282.568C226.113 281.721 223.493 282.08 222.709 282.208C215.961 283.297 211.922 288.681 211.16 289.734C210.787 288.324 209.399 283.85 204.858 281.292C197.67 277.244 189.232 281.741 188.485 282.153C180.923 286.331 176.649 296.078 178.49 306.158L178.489 306.158Z" stroke="#512E18" stroke-width="2" stroke-miterlimit="10"/>
<path d="M209.913 313.551C209.177 313.159 208.924 312.293 209.347 311.617C209.77 310.94 210.709 310.709 211.445 311.102C212.18 311.494 212.433 312.36 212.01 313.036C211.587 313.713 210.648 313.943 209.913 313.551Z" fill="#512D16"/>
<path d="M210.616 311.508C210.616 311.508 209.012 311.337 208.268 314.207" stroke="#512D16" stroke-width="2" stroke-miterlimit="10"/>
<path d="M201.661 311.914C201.51 311.167 202.075 310.375 202.923 310.146C203.772 309.917 204.582 310.337 204.734 311.084C204.885 311.831 204.32 312.622 203.471 312.851C202.623 313.08 201.813 312.66 201.661 311.914Z" fill="#512D16"/>
<path d="M203.55 310.702C203.55 310.702 205.16 310.847 204.82 313.756" stroke="#512D16" stroke-width="2" stroke-miterlimit="10"/>
<path d="M231.401 316.465C229.113 316.255 227.438 315.104 227.66 313.896C227.882 312.688 229.917 311.879 232.204 312.089C234.492 312.3 236.167 313.45 235.945 314.659C235.723 315.868 233.689 316.676 231.401 316.465Z" fill="#FAC1C0"/>
<path d="M181.742 312.12C179.454 311.91 177.778 310.759 178 309.551C178.222 308.343 180.257 307.534 182.545 307.745C184.834 307.955 186.508 309.105 186.286 310.314C186.064 311.523 184.03 312.331 181.742 312.12Z" fill="#FAC1C0"/>
<path d="M219.838 312.953C216.778 312.664 214.802 309.669 215.424 306.262C216.047 302.856 219.033 300.33 222.092 300.619C225.152 300.908 227.129 303.904 226.506 307.31C225.883 310.717 222.898 313.243 219.838 312.953Z" fill="#512E18"/>
<path d="M219.428 307.065C218.428 306.971 217.799 305.907 218.022 304.689C218.244 303.47 219.235 302.559 220.234 302.653C221.234 302.748 221.863 303.812 221.64 305.03C221.418 306.249 220.427 307.16 219.428 307.065Z" fill="white"/>
<g opacity="0.2">
<path d="M222.322 310.551C221.767 310.498 221.437 309.786 221.588 308.962C221.738 308.137 222.31 307.512 222.866 307.566C223.422 307.619 223.751 308.331 223.6 309.155C223.45 309.98 222.878 310.605 222.322 310.551Z" fill="white"/>
</g>
<path d="M194.248 310.714C191.188 310.424 189.211 307.429 189.834 304.023C190.457 300.616 193.442 298.09 196.502 298.379C199.562 298.669 201.538 301.664 200.916 305.07C200.293 308.477 197.307 311.003 194.248 310.714Z" fill="#512E18"/>
<path d="M196.805 305.084C195.806 304.99 195.177 303.926 195.399 302.708C195.622 301.489 196.612 300.578 197.612 300.672C198.611 300.767 199.24 301.831 199.018 303.049C198.795 304.268 197.805 305.179 196.805 305.084Z" fill="white"/>
<g opacity="0.2">
<path d="M192.659 307.956C192.104 307.903 191.775 307.191 191.925 306.367C192.075 305.542 192.647 304.917 193.204 304.971C193.76 305.024 194.088 305.736 193.938 306.56C193.788 307.385 193.216 308.01 192.659 307.956Z" fill="white"/>
</g>
<path d="M196.405 323.181C197.221 324.005 198.244 324.662 199.365 325.172C200.879 325.86 202.577 326.28 204.196 326.481C205.995 326.706 207.699 326.66 208.95 326.412C209.436 326.315 209.948 326.175 210.466 325.998C213.039 325.116 215.717 323.299 215.708 321.22C215.707 320.954 215.662 320.682 215.566 320.409C215.026 318.859 213.56 318.438 212.339 318.375C211.323 318.322 210.477 318.517 210.477 318.517C208.56 318.842 207.104 318.882 205.904 318.785C204.683 318.688 203.726 318.452 202.817 318.235C201.276 317.867 201.179 317.58 199.56 317.166C199.284 317.095 198.963 317.021 198.584 316.942C197.333 316.682 196.058 317.378 195.416 318.522C195.413 318.526 195.412 318.53 195.41 318.533C194.721 319.773 194.775 321.536 196.405 323.181L196.405 323.181Z" fill="#512D16"/>
<path d="M199.522 316.999C199.246 319.098 201.134 320.962 203.812 321.192L206.707 321.442C209.238 321.658 211.586 320.349 212.231 318.449C211.293 318.406 210.535 318.568 210.535 318.568C208.572 318.867 207.097 318.877 205.888 318.753C204.71 318.634 203.783 318.387 202.901 318.161C201.339 317.759 201.282 317.468 199.567 317.011C199.553 317.007 199.537 317.003 199.522 316.999Z" fill="white"/>
<path d="M198.845 325.164C200.357 325.849 202.051 326.267 203.667 326.467C205.407 326.701 207.055 326.678 208.279 326.458C208.807 326.361 209.369 326.217 209.933 326.026C209.931 326.012 209.928 325.996 209.926 325.982C209.847 325.511 209.612 325.075 209.259 324.712C208.722 324.161 207.913 323.777 206.958 323.69L202.634 323.295C200.983 323.145 199.435 323.93 198.868 325.117C198.86 325.133 198.852 325.148 198.846 325.164L198.845 325.164Z" fill="#FAC0C0"/>
<path d="M196.322 323.026C197.053 323.799 197.963 324.433 198.969 324.941C199.068 324.991 199.168 325.04 199.268 325.087C199.292 325.099 199.316 325.11 199.34 325.121C200.847 325.824 202.538 326.261 204.148 326.479C204.342 326.505 204.534 326.528 204.725 326.548C206.253 326.708 207.678 326.669 208.768 326.472C209.298 326.376 209.86 326.23 210.427 326.04C210.46 326.029 210.495 326.018 210.529 326.006C213.123 325.113 215.764 323.31 215.662 321.218C215.651 321.006 215.613 320.794 215.544 320.577C215.03 318.967 213.499 318.544 212.258 318.481C212.241 318.48 212.226 318.479 212.21 318.479C211.271 318.436 210.512 318.598 210.512 318.598C208.545 318.897 207.068 318.906 205.856 318.781C204.676 318.661 203.748 318.413 202.864 318.186C201.3 317.782 201.244 317.49 199.526 317.031C199.512 317.027 199.496 317.023 199.481 317.019C199.245 316.956 198.977 316.89 198.67 316.821C197.367 316.526 196.008 317.282 195.367 318.518C195.365 318.522 195.364 318.525 195.363 318.529C194.737 319.747 194.81 321.429 196.322 323.026Z" stroke="#512D16" stroke-width="2" stroke-miterlimit="10"/>
<path d="M150.684 309.77C151.812 297.879 155.996 285.563 163.375 274.238C183.722 243.012 220.779 230.983 245.987 247.408C259.978 256.524 267.426 272.51 267.803 290.256C269.819 269.348 262.383 249.767 246.294 239.283C221.087 222.859 184.024 234.896 163.677 266.122C154.592 280.063 150.346 295.496 150.684 309.768V309.77Z" fill="#F6BD60"/>
<path d="M263.386 216.249C265.165 229.154 257.508 235.176 246.613 234.433C233.995 233.571 229.265 226.33 219.917 226.33C210.568 226.33 205.838 233.571 193.22 234.433C182.325 235.177 174.669 229.154 176.448 216.249" fill="#FCE5D8"/>
<path d="M246.613 234.434C233.997 233.569 229.264 226.331 219.919 226.331C210.573 226.331 205.842 233.569 193.217 234.434C182.424 235.168 174.805 229.257 176.411 216.591C177.654 224.977 184.368 228.84 193.217 228.234C205.84 227.375 210.567 220.131 219.919 220.131C229.27 220.131 233.995 227.375 246.613 228.234C255.463 228.84 262.179 224.978 263.427 216.591C265.026 229.257 257.405 235.168 246.613 234.434Z" fill="#E2B28A"/>
<path d="M263.386 216.249C268.417 228.542 259.597 237.732 247.1 237.161C241.974 237.059 236.722 235.612 232.177 233.418C228.052 231.539 224.322 229.37 219.917 229.404C212.994 229.484 207.279 234.591 200.463 236.083C190.117 238.938 175.863 236.682 175.014 223.688C174.899 221.05 175.443 218.527 176.447 216.248C176.869 218.719 177.288 221.037 178.045 223.116C179.463 227.15 182.229 230.033 186.281 231.197C192.609 232.809 199.34 230.928 205.113 228.046C209.53 225.792 214.57 223.161 219.915 223.252C227.743 223.122 233.886 228.501 240.905 230.574C253.914 234.115 261.769 230.252 263.384 216.246L263.386 216.249Z" fill="#512E18"/>
</g>
<defs>
<clipPath id="clip0_539_5013">
<rect width="400" height="459.215" fill="white"/>
</clipPath>
</defs>
</svg>
