<svg width="524" height="420" viewBox="0 0 524 420" fill="none" xmlns="http://www.w3.org/2000/svg">
<circle cx="320.5" cy="193.5" r="192.5" fill="url(#paint0_radial_2005_35)" fill-opacity="0.4"/>
<path d="M494.345 209.985C486.364 305.784 402.231 376.972 306.427 368.993C267.745 365.771 233.086 350.156 206.024 326.346C204.075 324.631 202.164 322.874 200.295 321.075C200.101 320.889 199.909 320.704 199.717 320.517C199.448 320.256 199.179 319.994 198.911 319.73C198.721 319.542 198.531 319.356 198.341 319.167C197.456 318.289 196.58 317.4 195.712 316.502C195.565 316.351 195.418 316.198 195.273 316.046C195.071 315.835 194.869 315.624 194.669 315.412C194.423 315.153 194.178 314.894 193.933 314.632C193.782 314.472 193.634 314.312 193.485 314.152C193.466 314.132 193.447 314.112 193.429 314.092C193.254 313.905 193.082 313.718 192.909 313.53C192.867 313.486 192.826 313.44 192.784 313.394C192.62 313.217 192.458 313.04 192.295 312.861C192.285 312.85 192.274 312.838 192.263 312.826C192.073 312.618 191.884 312.409 191.695 312.2C191.504 311.988 191.314 311.776 191.124 311.564C190.78 311.18 190.438 310.793 190.098 310.406C189.923 310.208 189.75 310.009 189.577 309.81C189.409 309.617 189.242 309.425 189.075 309.231C189.04 309.191 189.005 309.15 188.971 309.11C188.861 308.984 188.753 308.857 188.644 308.73C188.508 308.571 188.372 308.411 188.236 308.251C188.047 308.028 187.858 307.805 187.671 307.582C187.519 307.402 187.367 307.221 187.216 307.04C187.131 306.938 187.046 306.835 186.96 306.733C186.832 306.578 186.704 306.423 186.576 306.268C186.56 306.249 186.545 306.23 186.529 306.211C186.351 305.995 186.173 305.778 185.996 305.561C185.859 305.393 185.722 305.225 185.586 305.056C185.463 304.906 185.341 304.754 185.22 304.602C185.17 304.541 185.12 304.48 185.071 304.418C184.934 304.248 184.798 304.077 184.663 303.906C184.632 303.868 184.601 303.83 184.571 303.791C184.417 303.599 184.266 303.407 184.115 303.214C183.995 303.063 183.876 302.912 183.758 302.76C183.627 302.593 183.497 302.426 183.366 302.258C183.238 302.092 183.109 301.927 182.982 301.76C182.844 301.583 182.708 301.405 182.572 301.227C182.514 301.151 182.456 301.075 182.399 301C182.274 300.836 182.15 300.674 182.027 300.51C181.711 300.094 181.399 299.677 181.087 299.258C180.955 299.081 180.824 298.904 180.694 298.725C180.659 298.678 180.625 298.633 180.591 298.586C180.484 298.441 180.376 298.295 180.27 298.148C180.147 297.98 180.025 297.812 179.903 297.643C179.733 297.41 179.565 297.176 179.397 296.942C179.229 296.708 179.062 296.474 178.895 296.239C178.728 296.004 178.561 295.768 178.396 295.533C178.065 295.062 177.735 294.589 177.409 294.113C177.252 293.884 177.094 293.654 176.936 293.424C176.925 293.406 176.913 293.387 176.9 293.37C176.745 293.142 176.59 292.913 176.436 292.684C176.275 292.445 176.115 292.205 175.955 291.966C175.795 291.726 175.636 291.486 175.477 291.245C175.159 290.765 174.844 290.281 174.532 289.796C174.336 289.493 174.142 289.19 173.948 288.886C173.561 288.278 173.177 287.667 172.798 287.053C172.608 286.747 172.419 286.439 172.231 286.132C171.781 285.394 171.335 284.651 170.894 283.906C184.838 288.389 199.509 291.009 214.557 291.525C225.873 291.913 237.403 291.112 248.998 289.018C249.417 288.942 249.837 288.864 250.255 288.785L250.294 288.778C252.794 288.306 255.271 287.778 257.721 287.197C274.045 283.324 289.248 277.062 303.023 268.856C312.566 263.17 321.423 256.551 329.492 249.143L329.499 249.137C330.08 248.604 330.658 248.066 331.231 247.523C344.986 234.523 356.364 219.201 364.834 202.322C371.527 190.182 376.289 176.774 378.676 162.477C378.891 161.434 379.096 160.388 379.29 159.34C381.688 146.4 382.521 133.013 381.621 119.425C381.46 116.99 381.242 114.548 380.969 112.102C380.965 112.068 380.962 112.035 380.958 112.002C380.547 108.229 380 104.444 379.315 100.652C373.896 70.6456 360.519 44.0787 341.752 22.7351C341.748 22.7303 341.744 22.7253 341.739 22.7205C360.401 24.9611 378.07 30.1125 394.315 37.6634C458.588 67.5757 500.575 135.226 494.345 209.985Z" fill="#F1C65E"/>
<path d="M452.924 182.934C444.941 278.733 360.809 349.921 265.006 341.942C243.977 340.19 224.117 334.756 206.024 326.346C204.075 324.631 202.164 322.874 200.295 321.076C200.101 320.889 199.909 320.704 199.717 320.517C199.448 320.256 199.179 319.994 198.911 319.73C198.721 319.543 198.531 319.356 198.341 319.167C197.456 318.289 196.58 317.4 195.712 316.503C195.565 316.351 195.418 316.198 195.273 316.046C195.071 315.835 194.869 315.624 194.669 315.412C194.423 315.153 194.178 314.894 193.933 314.632C193.782 314.472 193.634 314.312 193.485 314.152C193.466 314.132 193.447 314.112 193.428 314.092C193.254 313.905 193.082 313.718 192.909 313.53C192.867 313.486 192.826 313.441 192.784 313.394C192.62 313.217 192.458 313.04 192.295 312.861C192.285 312.85 192.274 312.838 192.263 312.826C192.073 312.618 191.884 312.409 191.695 312.201C191.504 311.989 191.314 311.777 191.123 311.564C190.78 311.18 190.438 310.794 190.098 310.406C189.923 310.208 189.749 310.009 189.577 309.81C189.409 309.617 189.242 309.425 189.075 309.231C189.04 309.191 189.005 309.15 188.971 309.11C188.861 308.984 188.753 308.857 188.644 308.73C188.508 308.571 188.372 308.411 188.236 308.251C188.047 308.028 187.858 307.806 187.671 307.583C187.519 307.402 187.367 307.221 187.216 307.04C187.131 306.938 187.046 306.836 186.96 306.733C186.832 306.579 186.704 306.423 186.576 306.268C186.56 306.249 186.545 306.23 186.529 306.211C186.351 305.995 186.173 305.778 185.996 305.561C185.859 305.393 185.722 305.225 185.586 305.056C185.463 304.906 185.341 304.754 185.22 304.602C185.17 304.542 185.12 304.48 185.071 304.418C184.934 304.248 184.798 304.077 184.663 303.906C184.632 303.868 184.601 303.83 184.571 303.791C184.417 303.599 184.266 303.407 184.115 303.214C183.995 303.063 183.876 302.912 183.758 302.76C183.627 302.593 183.497 302.426 183.366 302.258C183.238 302.093 183.109 301.927 182.982 301.76C182.844 301.583 182.708 301.405 182.572 301.227C182.514 301.151 182.456 301.076 182.399 301C182.274 300.837 182.15 300.674 182.027 300.51C181.711 300.094 181.399 299.677 181.087 299.258C180.955 299.081 180.824 298.904 180.694 298.725C180.659 298.679 180.625 298.633 180.591 298.586C180.484 298.441 180.376 298.295 180.27 298.148C180.147 297.98 180.025 297.812 179.902 297.643C179.733 297.41 179.565 297.176 179.397 296.942C179.229 296.708 179.062 296.474 178.895 296.239C178.728 296.004 178.561 295.769 178.396 295.533C178.065 295.062 177.736 294.589 177.409 294.113C177.252 293.884 177.094 293.654 176.936 293.424C176.924 293.406 176.913 293.387 176.9 293.37C176.745 293.142 176.59 292.913 176.436 292.684C176.275 292.445 176.115 292.205 175.954 291.966C175.795 291.726 175.635 291.486 175.477 291.245C175.16 290.764 174.845 290.281 174.532 289.796C174.336 289.493 174.142 289.19 173.948 288.886C173.561 288.278 173.178 287.667 172.798 287.054C172.608 286.747 172.419 286.44 172.231 286.132C171.781 285.394 171.335 284.651 170.894 283.906C184.838 288.389 199.509 291.009 214.557 291.525C225.873 291.913 237.403 291.112 248.998 289.018C249.417 288.942 249.837 288.864 250.255 288.785L250.294 288.778C252.794 288.306 255.271 287.778 257.721 287.197C274.045 283.324 289.248 277.062 303.023 268.856C312.566 263.17 321.423 256.551 329.492 249.143L329.499 249.138C330.08 248.604 330.658 248.066 331.231 247.523C344.986 234.523 356.364 219.201 364.834 202.322C371.527 190.182 376.289 176.774 378.676 162.477C378.891 161.434 379.096 160.389 379.29 159.34C381.688 146.4 382.521 133.013 381.621 119.426C381.46 116.99 381.242 114.548 380.969 112.102C380.965 112.069 380.962 112.035 380.958 112.002C380.547 108.23 380 104.444 379.315 100.652C373.896 70.6458 360.519 44.0789 341.752 22.7353C360.403 24.9777 378.065 30.1279 394.303 37.6751C434.296 72.825 457.684 125.804 452.924 182.934Z" fill="#FCDC65"/>
<path d="M329.499 249.137C330.08 248.604 330.658 248.066 331.231 247.523C341.436 250.288 348.547 260.043 347.637 270.95C346.614 283.234 335.815 292.383 323.519 291.359C322.332 291.259 321.189 291.071 320.065 290.789C330.82 289.97 339.693 281.448 340.617 270.365C341.011 265.64 339.901 261.136 337.688 257.322C337.624 257.211 337.558 257.1 337.491 256.989C337.434 256.892 337.375 256.796 337.315 256.701C337.239 256.579 337.161 256.456 337.082 256.335C337.027 256.249 336.97 256.163 336.912 256.078C336.855 255.992 336.797 255.907 336.739 255.823C336.681 255.738 336.621 255.654 336.562 255.57C336.557 255.563 336.552 255.556 336.546 255.548C336.495 255.477 336.443 255.404 336.39 255.333C336.359 255.29 336.328 255.247 336.296 255.205C336.223 255.106 336.149 255.007 336.073 254.91C336.018 254.838 335.961 254.765 335.905 254.693C335.795 254.554 335.684 254.416 335.571 254.279C333.877 252.232 331.823 250.485 329.492 249.143L329.499 249.137Z" fill="#D88B2F"/>
<path opacity="0.5" d="M329.492 249.143C321.422 256.55 312.565 263.17 303.023 268.856C302.992 271.269 303.351 273.598 304.049 275.789C306.357 283.111 312.347 288.897 320.015 290.768C330.788 289.966 339.682 281.437 340.606 270.341C340.942 266.313 340.188 262.446 338.581 259.035C338.308 258.45 338.009 257.879 337.688 257.322C337.623 257.211 337.558 257.1 337.491 256.989C337.433 256.893 337.374 256.797 337.315 256.701C337.238 256.579 337.16 256.456 337.082 256.335C337.026 256.249 336.969 256.163 336.912 256.078C336.855 255.992 336.797 255.907 336.738 255.823C336.68 255.738 336.621 255.654 336.561 255.57C336.556 255.563 336.551 255.556 336.546 255.548C336.494 255.477 336.443 255.404 336.39 255.333C336.359 255.29 336.327 255.247 336.296 255.205C336.223 255.106 336.149 255.007 336.073 254.91C336.017 254.838 335.961 254.765 335.904 254.693C335.795 254.554 335.684 254.415 335.571 254.279C333.881 252.23 331.828 250.482 329.498 249.137L329.492 249.143Z" fill="#D88B2F"/>
<path d="M250.294 288.778C252.794 288.306 255.27 287.778 257.721 287.197C256.064 298.821 245.602 307.286 233.749 306.298C232.55 306.199 231.393 306.007 230.257 305.721L230.233 305.719C230.239 305.719 230.245 305.717 230.251 305.717C239.855 304.995 247.961 298.131 250.254 288.785L250.294 288.778Z" fill="#FBE899"/>
<path opacity="0.5" d="M250.254 288.785C249.836 288.864 249.417 288.942 248.997 289.018C237.402 291.112 225.872 291.913 214.557 291.525C217.035 298.46 222.865 303.9 230.251 305.717C230.257 305.719 230.263 305.72 230.269 305.722C239.884 305.006 248.002 298.135 250.294 288.778L250.254 288.785Z" fill="#FBE899"/>
<path d="M459.27 267.138C459.716 267.246 460.176 267.321 460.651 267.361C465.511 267.766 469.77 264.161 470.175 259.302C470.58 254.444 466.975 250.183 462.116 249.779C461.641 249.739 461.174 249.737 460.717 249.77C464.855 250.784 467.76 254.687 467.395 259.07C467.03 263.454 463.519 266.822 459.27 267.138Z" fill="#D88B2F"/>
<path opacity="0.5" d="M452.591 257.849C452.225 262.233 455.131 266.135 459.268 267.15C463.518 266.834 467.029 263.466 467.394 259.082C467.759 254.699 464.855 250.796 460.716 249.782C456.467 250.098 452.956 253.466 452.591 257.849Z" fill="#D88B2F"/>
<path d="M381.13 346.088C381.435 346.161 381.753 346.211 382.086 346.239C385.448 346.519 388.395 344.025 388.675 340.663C388.956 337.301 386.462 334.354 383.099 334.074C382.779 334.047 382.456 334.045 382.131 334.066C385.004 334.771 387.005 337.462 386.751 340.503C386.498 343.544 384.067 345.866 381.13 346.088Z" fill="#D88B2F"/>
<path opacity="0.5" d="M376.509 339.661C376.257 342.691 378.269 345.394 381.129 346.099C384.078 345.878 386.497 343.556 386.75 340.514C387.003 337.473 384.991 334.782 382.131 334.077C379.182 334.298 376.763 336.62 376.509 339.661Z" fill="#D88B2F"/>
<path d="M416.527 311.917C417.183 312.079 417.856 312.195 418.545 312.252C425.661 312.845 431.916 307.553 432.509 300.437C433.102 293.321 427.809 287.066 420.692 286.473C420.003 286.416 419.321 286.419 418.647 286.471C424.721 287.957 428.981 293.684 428.445 300.111C427.909 306.537 422.762 311.467 416.525 311.941L416.527 311.917Z" fill="#D88B2F"/>
<path opacity="0.5" d="M406.73 298.277C406.194 304.704 410.456 310.419 416.528 311.917C422.763 311.456 427.912 306.514 428.447 300.087C428.983 293.66 424.721 287.945 418.65 286.447C412.415 286.908 407.265 291.85 406.73 298.277Z" fill="#D88B2F"/>
<path d="M474.997 177.583C475.443 177.692 475.904 177.766 476.379 177.806C481.238 178.211 485.498 174.606 485.903 169.747C486.308 164.889 482.703 160.628 477.844 160.224C477.368 160.184 476.902 160.182 476.445 160.215C480.583 161.23 483.488 165.132 483.123 169.515C482.757 173.899 479.248 177.255 474.997 177.583Z" fill="#D88B2F"/>
<path opacity="0.5" d="M468.32 168.283C467.954 172.667 470.86 176.557 474.997 177.583C479.247 177.267 482.757 173.899 483.123 169.515C483.488 165.132 480.583 161.23 476.445 160.215C472.196 160.531 468.685 163.899 468.32 168.283Z" fill="#D88B2F"/>
<path d="M385.073 161.66C386.209 161.946 387.365 162.138 388.565 162.238C400.861 163.262 411.661 154.113 412.684 141.83C413.708 129.546 404.559 118.736 392.275 117.713C391.076 117.612 389.903 117.611 388.735 117.705C399.227 120.278 406.586 130.161 405.662 141.256C404.737 152.353 395.844 160.882 385.07 161.684L385.073 161.66Z" fill="#D88B2F"/>
<path opacity="0.5" d="M405.652 141.231C405.167 147.053 402.505 152.154 398.517 155.806C394.912 159.154 390.213 161.275 385.073 161.659C383.002 161.149 381.067 160.364 379.29 159.34C381.688 146.4 382.521 133.013 381.621 119.425C383.836 118.478 386.229 117.878 388.724 117.691C388.739 117.694 388.752 117.699 388.767 117.702C391.705 118.418 394.403 119.728 396.724 121.456C400.425 124.208 403.219 128.071 404.652 132.507C404.69 132.624 404.727 132.74 404.763 132.858C404.766 132.866 404.769 132.874 404.771 132.883C404.788 132.939 404.805 132.995 404.821 133.051C404.84 133.115 404.86 133.18 404.878 133.245C404.906 133.342 404.933 133.439 404.959 133.537C404.986 133.635 405.012 133.733 405.038 133.83C405.058 133.912 405.079 133.995 405.099 134.077C405.653 136.356 405.857 138.764 405.651 141.232L405.652 141.231Z" fill="#D88B2F"/>
<path opacity="0.15" d="M389.752 145.33C389.752 145.33 408.136 158.366 389.006 189.34C391.368 191.66 390.55 194.161 390.5 194.5C398.443 189.581 408.632 196.372 405.5 204C407.103 203.872 411.241 209.259 409 213.5C409.997 214.226 411.356 215.953 411.506 219.773C411.665 223.811 408.341 228.003 405.414 230.357C399.613 235.024 393.091 236.598 388.403 237.12C386.266 243.529 380.078 259.072 364.235 270.105C335.383 290.195 301.321 276.65 298.626 275.526C297.543 277.351 296.144 279.261 294.326 281.081C285.78 289.631 274.091 290.082 270.117 290.052C273.05 292.828 278.907 299.16 281.515 309.097C285.736 325.172 278.208 338.286 276.607 340.942C279.13 342.858 280.326 346.033 279.652 349.02C278.889 352.407 275.863 354.951 272.24 355.17C272.835 353.973 273.438 352.304 273.518 350.281C273.774 343.816 268.44 339.508 267.68 338.915C273.606 329.316 275.878 319.774 272.92 308.082C269.963 296.392 259.958 288.351 253.291 287.148C266.536 285.945 282.327 284.343 297.264 271.103C317.162 276.936 326.728 278.423 345.141 271.078C363.554 263.733 380.126 253.064 382.54 234.485C389.567 233.74 402.969 227.967 406.506 222C410.043 216.034 401.5 206 401.5 206C403.908 202.5 403 199.919 400 198C396.01 195.449 386.412 200.897 387 200.313C387.5 196 387.423 193.791 382.5 193C377.575 192.209 363.966 223.395 363.966 223.395L353.43 219.773C353.43 219.773 368.253 208.064 369.758 206.518C371.263 204.974 391.699 184.129 393.082 167.592C394.464 151.055 389.747 145.325 389.747 145.325L389.752 145.33Z" fill="#231F20"/>
<path d="M241.014 329.851C241.014 329.851 248.087 327.724 255.549 330.622C263.011 333.52 270.52 340.443 272.594 346.331C274.668 352.218 271.756 356.671 269.008 357.911C266.26 359.151 265.57 357.683 265.57 357.683C264.566 361.376 263.824 363.979 261.311 364.414C258.797 364.849 257.17 362.103 257.17 362.103C254.38 364.982 252.648 366.014 250.561 364.772C249.002 364.151 249.75 363.315 249.75 363.315C246.433 366.338 242.759 367.038 240.955 364.162C239.013 361.099 241.894 357.077 241.272 354.215C240.649 351.354 239.044 349.522 238.103 348.42C237.159 347.316 234.173 344.883 233.898 341.006C233.622 337.129 235.032 333.48 236.574 332.458C238.115 331.436 241.012 329.851 241.012 329.851L241.014 329.851Z" fill="#FCE5D8"/>
<path opacity="0.15" d="M236.851 333.246C236.851 333.246 232.572 340.596 243.615 348.823C254.658 357.05 267.111 345.81 267.111 345.81C269.452 349.549 270.844 354.957 268.103 358.45C272.026 355.588 272.906 354.507 273.155 353.033C273.404 351.559 273.932 345.252 267.683 338.918C262.281 342.982 259.293 345.644 253.29 346.29C247.288 346.936 240.877 343.029 236.851 333.246Z" fill="#231F20"/>
<path d="M243.053 329.152C243.053 329.152 232.803 331.934 233.748 340.034C234.407 345.394 236.634 346.853 238.179 348.54C239.724 350.226 242.615 352.494 240.442 359.918C238.267 367.341 250.459 369.585 252.048 357.2" stroke="#512D16" stroke-width="3" stroke-linecap="round" stroke-linejoin="round"/>
<path d="M249.751 363.315C249.751 363.315 250.653 366.654 253.528 365.41C256.406 364.167 258.028 361.703 259.027 356.353" stroke="#512D16" stroke-width="3" stroke-linecap="round" stroke-linejoin="round"/>
<path d="M257.172 362.103C257.172 362.103 258.207 364.969 261.312 364.414C264.418 363.858 266.17 358.682 265.622 353.922" stroke="#512D16" stroke-width="3" stroke-linecap="round" stroke-linejoin="round"/>
<path d="M265.568 357.847C265.568 357.847 266.595 359.323 269.455 357.981C272.315 356.64 278.385 349.03 265.712 337.259C253.039 325.487 241.898 329.544 241.898 329.544" stroke="#512D16" stroke-width="3" stroke-linejoin="round"/>
<path d="M212.949 281.122C212.949 281.122 160.134 337.811 108.849 278.226C88.0247 254.221 80.0748 194.732 59.6138 189.766C47.957 187.121 43.0592 209.523 24.3808 195.85C5.70239 182.177 32.2992 136.012 68.5619 152.658C104.826 169.304 104.486 218.55 118.222 247.37C131.957 276.189 168.394 292.245 211.798 261.769C212.388 261.942 212.949 281.124 212.949 281.124L212.949 281.122Z" fill="#F6BD60"/>
<path opacity="0.15" d="M212.949 281.122C212.949 281.122 160.134 337.813 108.847 278.228C103.952 272.584 99.7687 264.979 95.9658 256.583C98.1624 260.393 100.507 263.838 103.039 266.758C154.324 326.343 207.139 269.655 207.139 269.655C207.139 269.655 207.081 267.673 206.982 264.978C208.577 263.973 210.181 262.903 211.796 261.77C212.388 261.942 212.949 281.122 212.949 281.122Z" fill="#231F20"/>
<path opacity="0.2" d="M102.753 198.188C96.6402 182.25 87.7274 168.078 71.3461 160.559C42.2643 147.209 19.3984 174.255 21.1173 192.543C9.46237 176.036 34.8295 137.175 68.5617 152.658C87.6108 161.401 96.56 179.14 102.753 198.188Z" fill="white"/>
<path d="M212.949 281.122C212.949 281.122 160.134 337.811 108.849 278.226C88.0247 254.221 80.0748 194.732 59.6138 189.766C47.957 187.121 43.0592 209.523 24.3808 195.85C5.70239 182.177 32.2992 136.012 68.5619 152.658C104.826 169.304 104.486 218.55 118.222 247.37C131.957 276.189 168.394 292.245 211.798 261.769C212.388 261.942 212.949 281.124 212.949 281.124L212.949 281.122Z" stroke="#512D16" stroke-width="3" stroke-linejoin="round"/>
<path d="M166.873 211.359C166.873 211.359 185.348 250.216 186.921 265.647C198.269 260.799 209.166 245.483 209.878 238.466C200.442 222.217 193.6 210.592 188.656 202.202C177.174 182.725 175.914 180.681 176.17 178.679C167.802 204.302 166.873 211.359 166.873 211.359Z" fill="#CEE5BA"/>
<path d="M153.171 213.161C153.171 213.161 191.895 253.338 206.025 257.675C209.398 241.781 209.314 233.829 215.386 226.06C175.627 196.248 168.165 193.471 168.792 190.988C169.42 188.506 153.17 213.16 153.17 213.16L153.171 213.161Z" fill="#CEE5BA"/>
<path d="M168.303 187.086C168.303 187.086 198.572 225.897 208.564 231.181C201.915 239.687 192.935 255.517 191.943 259.572C178.806 248.813 152.592 221.686 151.706 217.972C150.82 214.258 168.303 187.086 168.303 187.086Z" fill="#CEE5BA"/>
<path d="M148.767 201.711C148.767 201.711 193.002 196.462 213.748 208.135C229.398 185.64 226.092 172.461 224.284 165.253C200.163 166.811 164.461 167.016 155.16 164.389C150.342 184.203 148.767 201.711 148.767 201.711Z" fill="#CEE5BA"/>
<path d="M189.917 236.659C192.857 234.443 192.699 229.273 189.564 225.112C186.427 220.951 181.502 219.374 178.561 221.589C175.621 223.804 175.779 228.974 178.915 233.135C182.05 237.297 186.976 238.874 189.917 236.659Z" fill="#90C696"/>
<path d="M207.037 190.537C207.681 186.912 204.045 183.235 198.915 182.322C193.784 181.41 189.103 183.609 188.458 187.234C187.814 190.859 191.45 194.537 196.58 195.449C201.711 196.36 206.392 194.162 207.037 190.537Z" fill="#90C696"/>
<path d="M174.659 204.045C174.659 204.045 197.276 230.275 200.99 231.634C194.227 240.178 190.9 250.553 190.9 250.553C182.445 245.682 178.274 244 178.274 244C182.768 249.602 183.298 252.276 185.178 253.822C187.059 255.368 191.977 259.757 191.977 259.757C191.977 259.757 203.368 236.147 208.351 231.737C203.321 227.199 185.237 209.928 179.512 200.797C176.822 200.613 175.803 200.585 175.803 200.585L174.661 204.047L174.659 204.045Z" fill="#90C696"/>
<path d="M178.615 194.736L196.594 195.463L194.203 201.125L175.591 199.423L178.615 194.736Z" fill="#90C696"/>
<path d="M201.346 255.85L203.841 249.511L207.565 249.83L206.477 257.593L201.346 255.85Z" fill="#90C696"/>
<path d="M207.158 235.689C207.158 235.689 210.114 227.994 208.559 225.456C214.53 227.217 214.936 227.491 214.936 227.491L211.55 232.73L209.733 239.4L207.156 235.689L207.158 235.689Z" fill="#90C696"/>
<path d="M184.394 254.602C185.589 255.845 186.732 256.372 187.731 256.554C193.43 257.592 200.957 248.646 206.79 234.49C208.656 236.823 208.887 239.981 208.887 239.981C208.887 239.981 204.56 253.505 193.852 261.399C188.968 264.758 186.729 265.87 186.729 265.87C185.951 262.114 185.172 258.358 184.392 254.602L184.394 254.602Z" fill="#90C696"/>
<path d="M206.335 233.672C207.405 235.542 208.009 236.93 209.077 238.799C208.41 245.809 197.81 261.071 186.729 265.87C185.589 261.23 184.449 256.589 183.309 251.949" stroke="#512D16" stroke-width="3" stroke-miterlimit="10"/>
<path d="M190.229 207.622C196.728 212.253 204.668 218.026 215.386 226.062C209.314 233.831 209.399 241.783 206.025 257.677C204.027 256.897 202.028 256.116 200.029 255.337" stroke="#512D16" stroke-width="3" stroke-miterlimit="10"/>
<path d="M178.833 200.304C188.563 212.099 202.435 228.106 208.597 231.366C201.949 239.871 192.968 255.702 191.976 259.757C178.839 248.997 152.625 221.871 151.739 218.157C150.853 214.443 168.336 187.27 168.336 187.27" stroke="#512D16" stroke-width="3" stroke-miterlimit="10"/>
<path d="M148.767 201.711C148.767 201.711 193.002 196.462 213.748 208.135C229.398 185.64 226.092 172.461 224.284 165.253C200.163 166.811 164.461 167.016 155.16 164.389C150.342 184.203 148.767 201.711 148.767 201.711Z" stroke="#512D16" stroke-width="3" stroke-miterlimit="10"/>
<path d="M207.242 165.972C207.242 165.972 182.243 178.404 174.135 205.714C169.732 220.014 173.797 230.923 173.797 230.923C173.711 235.596 176.855 245.272 185.455 251.637C151.238 259.446 117.264 251.845 112.006 244.645C106.747 237.444 101.976 223.922 101.145 212.869C109.364 174.567 114.039 150.073 141.357 140.404C159.043 134.627 170.506 149.225 184.816 156.928C199.125 164.631 207.242 165.972 207.242 165.972Z" fill="#BDE0FE"/>
<path opacity="0.2" d="M207.242 165.972C207.242 165.972 201.842 168.658 195.246 174.277C191.426 172.986 185.771 170.717 178.531 166.819C164.222 159.118 152.758 144.518 135.072 150.297C126.341 153.388 119.923 157.993 114.963 164.078C120.527 152.92 128.392 144.994 141.355 140.404C159.043 134.627 170.506 149.225 184.816 156.928C199.123 164.63 207.242 165.972 207.242 165.972Z" fill="white"/>
<path opacity="0.15" d="M185.455 251.637C151.238 259.446 117.266 251.845 112.006 244.644C107.178 238.033 102.761 226.094 101.428 215.628C103.403 224.2 106.982 232.823 110.82 238.079C115.846 244.957 147.093 252.207 179.717 246.02C181.271 248.022 183.171 249.946 185.455 251.637Z" fill="#231F20"/>
<path d="M207.242 165.972C207.242 165.972 182.243 178.404 174.135 205.714C169.732 220.014 173.797 230.923 173.797 230.923C173.711 235.596 176.855 245.272 185.455 251.637C151.238 259.446 117.264 251.845 112.006 244.645C106.747 237.444 101.976 223.922 101.145 212.869C109.364 174.567 114.039 150.073 141.357 140.404C159.043 134.627 170.506 149.225 184.816 156.928C199.125 164.631 207.242 165.972 207.242 165.972Z" stroke="#512D16" stroke-width="3" stroke-miterlimit="10"/>
<path d="M100.962 212.902C100.962 212.902 118.305 236.865 174.377 231.528" stroke="#512D16" stroke-width="3" stroke-miterlimit="10"/>
<path d="M252.243 287.031C289.822 303.123 270.701 337.67 264.008 341.938C258.15 345.671 243.631 353.191 236.575 332.457C227.674 302.829 200.88 309.088 203.946 269.727C207.013 230.364 280.141 215.975 281.886 215.981C281.886 215.981 300.515 214.323 306.373 218.578C312.232 222.83 326.337 249.497 291.856 276.086C276.215 286.878 252.243 287.031 252.243 287.031Z" fill="#F6BD60"/>
<path d="M303.172 265.518C300.171 269.007 296.443 272.546 291.856 276.084C278.219 285.491 258.258 286.817 253.359 287.002C253.279 287.005 253.204 287.007 253.133 287.01C253.599 277.768 268.569 268.579 287.949 266.004C293.297 265.295 298.451 265.159 303.172 265.518Z" fill="#FCE5D8"/>
<path opacity="0.2" d="M274.118 312.212C274.994 317.064 274.703 321.889 273.427 326.462C273.425 326.472 273.421 326.482 273.419 326.492C272.07 331.304 269.631 335.834 266.312 339.815C266.312 339.815 266.31 339.816 266.309 339.819C265.43 340.797 264.631 341.517 264.008 341.938C260.758 344.126 254.693 347.426 248.754 346.165C262.627 338.305 270.802 323.761 268.13 308.97C266.527 300.089 261.292 292.66 253.956 287.598C253.738 287.447 253.517 287.298 253.294 287.151C254.061 287.487 254.814 287.841 255.553 288.221C262.459 291.753 268.041 297.143 271.342 303.817C272.637 306.43 273.581 309.239 274.118 312.212Z" fill="white"/>
<path opacity="0.2" d="M224.241 238.46C218.259 244.751 213.033 254.765 210.176 266.631C207.306 278.554 207.418 289.903 209.919 298.238C204.101 290.982 201.924 278.488 205.068 265.431C208.202 252.414 215.787 242.301 224.241 238.46Z" fill="white"/>
<path d="M252.243 287.031C252.243 287.031 252.245 287.031 252.247 287.033C252.541 287.121 252.833 287.214 253.121 287.311C253.213 287.34 253.305 287.37 253.396 287.401C253.595 287.469 253.794 287.538 253.99 287.609C260.271 289.882 265.197 293.794 268.668 298.964C271.278 302.847 273.066 307.436 273.994 312.572C275.738 322.227 272.914 331.714 266.999 339.041" stroke="#512D16" stroke-width="3" stroke-linejoin="round"/>
<path d="M252.243 287.031C252.243 287.031 252.245 287.031 252.247 287.033C252.287 287.033 252.596 287.028 253.133 287.011C253.204 287.007 253.279 287.005 253.359 287.002C258.258 286.817 278.218 285.491 291.856 276.084C296.443 272.546 300.171 269.007 303.172 265.518C303.965 264.599 304.707 263.681 305.4 262.769C321.824 241.161 311.247 222.115 306.373 218.576C300.513 214.323 281.886 215.981 281.886 215.981C238.958 222.411 207.258 244.046 203.969 268.401C203.055 275.174 203.934 285.144 207.641 294.438C214.669 312.055 228.666 309.229 236.573 332.457C239.65 341.496 244.164 345.193 248.754 346.165C254.693 347.426 260.758 344.126 264.008 341.938C264.631 341.517 265.43 340.797 266.309 339.819L266.312 339.815C267.187 338.841 268.146 337.607 269.09 336.16" stroke="#512D16" stroke-width="3" stroke-linecap="round" stroke-linejoin="round"/>
<path d="M342.392 222.531L293.741 241.834L314.089 248.097L357.971 237.946L362.774 219.745L360.39 218.48C353.828 218.393 342.392 222.531 342.392 222.531Z" fill="#F6BD60"/>
<path opacity="0.15" d="M336.902 246.48C352.765 240.337 363.175 229.031 360.154 221.228C357.133 213.426 341.823 212.08 325.959 218.222C310.096 224.365 299.686 235.67 302.706 243.473C305.728 251.276 321.038 252.622 336.902 246.48Z" fill="#231F20"/>
<path d="M314.089 248.095L357.971 237.944L362.774 219.743L360.39 218.479C353.828 218.391 342.392 222.53 342.392 222.53" stroke="#512D16" stroke-width="3" stroke-linejoin="round"/>
<path d="M305.78 239.339C321.093 246.336 346.41 229.62 353.985 222.775C361.559 215.93 375.313 212.97 379.813 218.11C384.314 223.25 387.638 246.936 361.778 263.275C315.823 289.67 287.642 265.472 287.642 265.472L305.782 239.337L305.78 239.339Z" fill="#F6BD60"/>
<path opacity="0.2" d="M381.276 239.871C376.923 251.458 365.083 262.728 348.973 269.571C347.339 270.264 345.662 270.912 343.945 271.512C334.948 274.645 325.974 276.018 317.785 275.813C309.447 275.605 301.921 273.762 296.007 270.477C301.596 273.049 309.861 275.64 320.438 275.604C325.802 275.066 331.334 273.863 336.857 271.938C363.86 262.53 380.377 239.486 373.752 220.468C373.145 218.727 372.366 217.08 371.43 215.533C374.389 215.39 377.011 215.9 378.803 217.198C380.107 218.973 381.143 220.915 381.876 223.018C382.2 223.943 382.456 224.883 382.65 225.831C383.579 230.378 383.05 235.15 381.276 239.871Z" fill="white"/>
<path d="M305.778 239.339C321.093 246.334 346.41 229.618 353.983 222.775C358.655 218.554 365.677 215.81 371.429 215.533C374.388 215.39 377.011 215.9 378.803 217.198C379.178 217.468 379.514 217.772 379.811 218.111C381.027 219.5 382.159 222.244 382.65 225.831C383.183 229.734 382.963 234.631 381.276 239.871C378.772 247.639 373.045 256.155 361.776 263.275C357.34 265.822 353.068 267.898 348.973 269.571C338.191 273.974 328.623 275.576 320.437 275.604C309.861 275.64 301.596 273.049 296.007 270.477C290.542 267.965 287.64 265.473 287.64 265.473" stroke="#512D16" stroke-width="3" stroke-linecap="round" stroke-linejoin="round"/>
<path d="M381.758 236.585C386.204 233.873 383.977 234.433 390.15 231.626C400.49 226.931 409.622 221.521 405.358 213.463C406.149 209.611 404.278 206.758 401.717 205.863C402.909 202.799 402.271 200.001 400.44 198.558C399.622 197.912 398.768 197.734 397.806 197.553C397.108 197.422 393.878 196.898 389.899 198.97C386.262 200.863 384.637 203.553 384.192 203.236C383.566 202.79 387.692 198.112 386.254 195.416C385.149 193.345 380.911 192.733 377.779 193.885C374.031 195.265 373.881 198.424 368.671 204.829C368.222 205.382 367.278 212.177 366.253 214.186C366.255 213.334 365.745 215.18 366.253 214.186C366.248 218.347 366.94 221.953 369.147 226.434C370.536 229.254 372.698 230.237 381.758 236.585Z" fill="#FCE5D8"/>
<path opacity="0.15" d="M382.313 193.966C382.644 194.15 383.084 194.469 383.322 194.994C384.453 197.492 379.181 200.827 380.092 204.216C380.303 205.004 380.835 205.775 381.833 206.5C384.588 208.5 390.361 202.044 395.646 202.576C399.027 202.918 399.687 206.204 398.47 209.824C401.692 209.643 403.061 213.311 402.267 217.164C403.054 218.658 404.316 221.378 404.267 222.7C406.52 220.017 407.226 216.997 405.357 213.461C406.148 209.609 404.278 206.757 401.716 205.861C402.909 202.797 402.271 200.002 400.44 198.558C399.526 197.836 398.548 197.655 397.803 197.552C392.821 196.857 389.89 201.006 387.574 199.954C386.697 199.557 385.696 198.321 385.618 194.266C384.516 194.167 383.412 194.066 382.309 193.967L382.313 193.966Z" fill="#231F20"/>
<path d="M402.71 204.668C404.607 205.718 406.244 207.393 406.844 209.608C407.986 214.537 403.692 218.773 399.54 220.44C398.673 220.806 397.723 221.096 396.8 221.288C396.342 221.398 395.866 221.451 395.402 221.518C396.24 221.081 397.061 220.657 397.834 220.161C401.463 217.958 406.479 212.678 402.995 208.515C402.516 207.924 401.926 207.381 401.283 206.85L402.713 204.668L402.71 204.668Z" fill="#512E18"/>
<path d="M406.703 213.272C412.386 221.464 401.359 228.388 395.13 231.752C387.649 235.709 385.852 236.142 382.443 238.082C382.443 238.082 370.866 234.374 367.077 226.658C364.393 221.19 365.004 217.158 365.004 217.158C365.918 211.082 367.871 203.205 370.909 198.984C373.187 195.949 375.908 192.367 379.735 191.243C386.841 189.531 389.791 195.764 387.233 201.665L385.018 199.922C387.672 198.026 390.583 196.472 393.827 195.769C399.016 194.627 403.556 196.611 403.525 202.469C403.401 205.111 401.886 207.56 399.949 209.244C398.746 210.286 397.479 211.176 396.151 212.03C394.824 212.855 393.489 213.68 392.018 214.238C393.515 212.73 395.34 210.792 396.845 209.28C397.671 208.42 398.499 207.615 399.198 206.668C400.425 204.913 401.406 202.704 400.609 200.594C399.786 197.965 396.674 197.974 394.422 198.504C391.653 199.141 389.045 200.588 386.748 202.285L382.531 205.41L384.532 200.543C385.064 199.253 385.291 197.841 385.082 196.615C384.781 194.661 383.366 193.851 381.46 194.059C378.201 194.343 375.371 198.299 373.487 200.828C370.777 204.649 369.593 212.374 368.108 216.822C366.857 231.541 382.569 234.404 382.569 234.404C389.818 231.836 402.871 226.541 405.373 219C405.818 217.503 405.457 216.067 404.563 214.776L406.697 213.273L406.703 213.272Z" fill="#512E18"/>
<path d="M286.24 240.089C286.24 240.089 267.77 248.473 215.126 241.6C191.787 238.238 163.434 238.855 160.331 239.823C159.442 245.104 160.466 247.375 160.466 247.375C197.254 248.577 207.335 249.486 234.14 252.771C260.946 256.053 294.123 250.399 302.991 240.539C294.959 240.285 286.238 240.089 286.238 240.089L286.24 240.089Z" fill="#BDE0FE"/>
<path d="M286.24 240.089C286.24 240.089 267.77 248.473 215.126 241.6C191.787 238.238 163.434 238.855 160.331 239.823C159.442 245.104 160.466 247.375 160.466 247.375C197.254 248.577 207.335 249.486 234.14 252.771C260.946 256.053 294.123 250.399 302.991 240.539C294.959 240.285 286.238 240.089 286.238 240.089L286.24 240.089Z" stroke="#512D16" stroke-width="3" stroke-miterlimit="10"/>
<path d="M396.476 126.105C397.523 112.932 388.805 101.494 377.003 100.557C365.201 99.6194 354.785 109.538 353.74 122.71C352.693 135.882 361.411 147.32 373.213 148.258C385.013 149.195 395.429 139.277 396.476 126.105Z" fill="#FCE5D8"/>
<path d="M388.527 127.143C389.24 118.173 383.688 110.416 376.126 109.815C368.565 109.215 361.857 115.998 361.144 124.968C360.432 133.937 365.984 141.696 373.545 142.296C381.107 142.897 387.814 136.112 388.527 127.143Z" fill="#FAC0C0"/>
<g opacity="0.15">
<path d="M396.522 126.467C395.474 139.639 385.059 149.555 373.257 148.617C366.371 148.069 360.534 143.945 357.076 137.986C359.894 139.943 363.175 141.183 366.736 141.467C378.537 142.404 388.953 132.487 390 119.315C390.437 113.831 389.18 108.649 386.713 104.399C393.226 108.921 397.253 117.271 396.522 126.467Z" fill="#231F20"/>
<path d="M387.283 133.563C387.068 136.268 386.308 138.773 385.145 140.937C383.128 142.001 380.882 142.517 378.552 142.331C370.992 141.73 365.439 133.972 366.152 125.002C366.366 122.298 367.128 119.793 368.293 117.628C370.309 116.564 372.556 116.048 374.883 116.234C382.445 116.834 387.997 124.593 387.283 133.563Z" fill="#231F20"/>
</g>
<path d="M396.476 126.105C397.523 112.932 388.805 101.494 377.003 100.557C365.201 99.6194 354.785 109.538 353.74 122.71C352.693 135.882 361.411 147.32 373.213 148.258C385.013 149.195 395.429 139.277 396.476 126.105Z" stroke="#512D16" stroke-width="3" stroke-miterlimit="10"/>
<path d="M388.527 127.143C389.24 118.173 383.688 110.416 376.126 109.815C368.565 109.215 361.857 115.998 361.144 124.968C360.432 133.937 365.984 141.696 373.545 142.296C381.107 142.897 387.814 136.112 388.527 127.143Z" stroke="#512D16" stroke-width="3" stroke-miterlimit="10"/>
<path d="M287.186 244.321C255.843 244.388 226.038 229.836 208.984 202.775C185.827 166.03 193.625 118.027 225.028 86.3758C225.028 86.3758 262.078 50.6702 262.24 36.2019C272.596 41.2734 274.979 51.3929 273.875 56.0347C285.231 42.0443 299.279 47.5592 302.258 48.6863C299.737 51.6413 296.652 56.0857 296.652 56.0857C345.421 47.8326 377.921 101.714 376.557 134.141C410.066 150.552 390.845 193.262 354.66 218.911C318.475 244.56 287.183 244.318 287.183 244.318L287.186 244.321Z" fill="#F6BD60"/>
<path d="M287.186 244.321C255.843 244.388 226.038 229.836 208.984 202.775C185.827 166.03 193.625 118.027 225.028 86.3758C225.028 86.3758 262.078 50.6702 262.24 36.2019C272.596 41.2734 274.979 51.3929 273.875 56.0347C285.231 42.0443 299.279 47.5592 302.258 48.6863C299.737 51.6413 296.652 56.0857 296.652 56.0857C345.421 47.8326 377.921 101.714 376.557 134.141C410.066 150.552 390.845 193.262 354.66 218.911C318.475 244.56 287.183 244.318 287.183 244.318L287.186 244.321Z" stroke="#512D16" stroke-width="3" stroke-miterlimit="10"/>
<path d="M250.012 194.814C250.012 194.814 215.381 164.714 238.552 128.306C258.76 96.8389 291.631 118.719 296.378 123.646C297.321 104.472 301.637 84.1389 328.206 84.8475C354.776 85.5576 370.455 131.199 368.311 140.675C388.108 148.115 390.384 171.39 376.422 190.162C362.459 208.933 321.785 246.024 277.576 236.107C239.137 227.627 249.694 197.628 250.013 194.815L250.012 194.814Z" fill="#FCE5D8"/>
<path d="M250.012 194.814C250.012 194.814 215.381 164.714 238.552 128.306C258.76 96.8389 291.631 118.719 296.378 123.646C297.321 104.472 301.637 84.1389 328.206 84.8475C354.776 85.5576 370.455 131.199 368.311 140.675C388.108 148.115 390.384 171.39 376.422 190.162C362.459 208.933 321.785 246.024 277.576 236.107C239.137 227.627 249.694 197.628 250.013 194.815L250.012 194.814Z" stroke="#512D16" stroke-width="3" stroke-miterlimit="10"/>
<path opacity="0.15" d="M354.873 218.944C318.688 244.593 287.397 244.349 287.397 244.349C268.186 244.39 249.551 238.939 234.078 228.48C255.304 234.8 279.021 235.389 302.611 228.91C347.236 216.653 379.332 182.422 388.301 143.045C404.218 162.852 385.704 197.09 354.873 218.944Z" fill="#231F20"/>
<path opacity="0.2" d="M376.398 131.636C375.146 125.677 368.41 96.7149 340.447 78.3397C318.527 63.9365 296.335 64.431 288.832 64.931C288.415 64.2417 288.174 63.5903 288.033 63.0268C286.998 58.8866 290.287 55.1529 290.827 54.5588C289.303 54.8587 287.705 55.2832 286.06 55.8749C276.53 59.299 270.746 66.3831 267.817 70.7729C268.509 68.6977 269.977 63.3466 268.074 57.0767C266.911 53.2427 264.938 50.5426 263.588 48.9871C263.426 63.4536 226.375 99.1592 226.375 99.1592C206.173 119.522 195.74 146.654 197.036 173.2C191.086 142.818 201.374 110.054 224.828 86.4118C224.828 86.4118 261.878 50.7062 262.041 36.2397C272.399 41.3091 274.782 51.4304 273.676 56.0725C285.034 42.0818 299.08 47.597 302.061 48.7256C299.54 51.6788 296.455 56.1232 296.455 56.1232C343.967 48.082 376.041 99.0201 376.398 131.636Z" fill="white"/>
<path d="M239.084 218.352C233.258 226.531 221.102 230.031 209.219 226.204C195.076 221.648 186.678 208.437 190.46 196.696C194.243 184.955 208.773 179.131 222.916 183.686C222.916 183.686 220.288 197.127 234.298 213.722C236.377 216.244 239.083 218.35 239.083 218.35L239.084 218.352Z" fill="#FCE5D8"/>
<path d="M232.779 212.275C229.437 217.315 221.618 219.705 213.524 217.695C203.89 215.304 197.512 207.588 199.281 200.463C201.049 193.337 209.179 190.344 218.815 192.734C218.815 192.734 222.685 193.823 223.689 194.385C224.403 196.707 224.807 197.833 224.807 197.833C224.807 197.833 220.02 201.218 222.216 205.349C224.412 209.479 230.423 209.942 231.341 210.01L232.779 212.273L232.779 212.275Z" fill="#FAC0C0"/>
<g opacity="0.15">
<path d="M239.131 218.447C233.306 226.626 221.148 230.126 209.266 226.299C200.295 223.409 193.637 217.039 190.933 209.768C194.292 213.441 198.835 216.419 204.207 218.15C215.277 221.717 226.588 218.921 232.792 211.906C233.285 212.538 233.803 213.177 234.346 213.819C236.423 216.342 239.131 218.447 239.131 218.447Z" fill="#231F20"/>
<path d="M224.173 197.364C224.173 197.364 216.121 197.982 216.46 206.241C216.712 211.114 220.756 216.695 225.731 217.586C230.613 215.354 232.677 212.574 232.677 212.574C232.677 212.574 228.351 205.715 227.528 203.772C226.706 201.827 224.173 197.366 224.173 197.366L224.173 197.364Z" fill="#231F20"/>
</g>
<path d="M239.084 218.352C233.258 226.531 221.102 230.031 209.219 226.204C195.076 221.648 186.678 208.437 190.46 196.696C194.243 184.955 208.773 179.131 222.916 183.686C222.916 183.686 220.288 197.127 234.298 213.722C236.377 216.244 239.083 218.35 239.083 218.35L239.084 218.352Z" stroke="#512D16" stroke-width="3" stroke-miterlimit="10"/>
<path d="M232.779 212.275C229.437 217.315 221.618 219.705 213.524 217.695C203.89 215.304 197.512 207.588 199.281 200.463C201.049 193.337 209.179 190.344 218.815 192.734C218.815 192.734 222.685 193.823 223.689 194.385C224.403 196.707 224.807 197.833 224.807 197.833C224.807 197.833 220.02 201.218 222.216 205.349C224.412 209.479 230.423 209.942 231.341 210.01L232.779 212.273L232.779 212.275Z" stroke="#512D16" stroke-width="3" stroke-miterlimit="10"/>
<path d="M280.654 180.969C288.444 177.28 291.076 166.512 286.533 156.917C281.989 147.323 271.991 142.535 264.201 146.224C256.41 149.912 253.778 160.681 258.321 170.275C262.864 179.869 272.863 184.657 280.654 180.969Z" fill="#512D16"/>
<path d="M269.111 166.975C271.984 166.011 273.344 162.337 272.148 158.769C270.951 155.2 267.651 153.089 264.777 154.053C261.903 155.016 260.544 158.691 261.74 162.259C262.936 165.827 266.237 167.938 269.111 166.975Z" fill="white"/>
<path d="M348.272 149.445C356.063 145.756 358.695 134.988 354.152 125.394C349.609 115.799 339.611 111.011 331.82 114.7C324.03 118.389 321.397 129.157 325.941 138.751C330.484 148.346 340.482 153.134 348.272 149.445Z" fill="#512D16"/>
<path d="M336.734 135.456C339.608 134.492 340.968 130.818 339.772 127.25C338.575 123.681 335.275 121.57 332.401 122.534C329.528 123.497 328.167 127.172 329.364 130.74C330.561 134.308 333.861 136.419 336.734 135.456Z" fill="white"/>
<path d="M308.162 184.964C308.162 184.964 297.11 184.35 296.513 194.182C295.915 204.015 308.79 209.587 317.383 209.727C325.976 209.864 341.238 203.868 347.077 191.663C352.916 179.459 343.575 169.348 337.321 172.681C331.068 176.013 331.731 176.945 327.438 179.435C323.146 181.922 318.433 184.773 308.163 184.966L308.162 184.964Z" fill="#512D16"/>
<path d="M305.971 184.971C305.971 184.971 305.921 191.392 310.955 192.62C315.99 193.848 328.5 192.123 333.991 182.582C336.712 177.682 335.233 175.412 334.672 173.778C332.846 176.245 326.317 179.745 324.424 180.596C322.531 181.448 318.581 183.224 314.326 183.757C310.068 184.29 305.971 184.971 305.971 184.971Z" fill="white"/>
<path d="M309.257 208.262C309.257 208.262 313.647 199.025 322.396 198.321C329.143 193.469 335.991 193.235 342.776 197.521C336.716 203.501 332.689 207.359 324.28 208.753C315.871 210.147 309.257 208.262 309.257 208.262Z" fill="#FAC0C0"/>
<path d="M308.162 184.964C308.162 184.964 297.11 184.35 296.513 194.182C295.915 204.015 308.79 209.587 317.383 209.727C325.976 209.864 341.238 203.868 347.077 191.663C352.916 179.459 343.575 169.348 337.321 172.681C331.068 176.013 331.731 176.945 327.438 179.435C323.146 181.922 318.433 184.773 308.163 184.966L308.162 184.964Z" stroke="#512D16" stroke-width="3" stroke-miterlimit="10"/>
<path d="M271.864 207.567C279.012 204.8 283.598 199.441 282.11 195.598C280.623 191.756 273.623 190.884 266.475 193.651C259.328 196.419 254.741 201.778 256.228 205.62C257.716 209.463 264.717 210.334 271.864 207.567Z" fill="#FAC0C0"/>
<path d="M370.843 160.907C375.724 157.867 378.096 152.857 376.141 149.716C374.185 146.575 368.642 146.492 363.761 149.532C358.879 152.571 356.507 157.581 358.463 160.722C360.419 163.863 365.961 163.945 370.843 160.907Z" fill="#FAC0C0"/>
<path d="M312.385 163.835C313.499 162.629 313.511 160.829 312.412 159.813C311.313 158.799 309.518 158.953 308.404 160.159C307.29 161.366 307.278 163.166 308.377 164.181C309.476 165.196 311.27 165.041 312.385 163.835Z" fill="#512D16"/>
<path d="M310.105 160.384C310.105 160.384 312.833 159.057 315.62 164.023" stroke="#512D16" stroke-width="3" stroke-miterlimit="10"/>
<path d="M326.319 155.351C326.225 153.858 324.82 152.731 323.182 152.835C321.543 152.938 320.29 154.232 320.384 155.725C320.478 157.218 321.884 158.345 323.522 158.242C325.161 158.138 326.413 156.844 326.319 155.351Z" fill="#512D16"/>
<path d="M322.273 154.289C322.273 154.289 319.521 155.57 321.618 160.864" stroke="#512D16" stroke-width="3" stroke-miterlimit="10"/>
<path d="M116.083 202.789C111.466 186.112 132.07 157.234 142.313 152.269C155.026 148.179 175.841 165.942 176.966 170.081C178.091 174.22 170.464 180.601 164.504 192.816C158.545 205.032 163.035 212.386 152.68 217.513C142.325 222.64 120.7 219.466 116.083 202.789Z" fill="#512D16"/>
<path d="M153.276 175.978C153.258 175.616 153.324 175.253 153.471 174.889C153.614 174.534 153.819 174.29 154.083 174.158C154.357 174.027 154.734 174.046 155.215 174.211L161.624 176.397L155.624 171.45C155.295 171.173 155.211 170.832 155.375 170.428C155.477 170.2 155.591 170.058 155.719 170.004C155.846 169.95 156.021 169.935 156.243 169.957L164.025 170.493L157.926 167.611C157.477 167.391 157.172 167.157 157.013 166.91C156.858 166.675 156.86 166.363 157.016 165.975C157.173 165.586 157.475 165.304 157.92 165.129C158.046 165.459 158.323 165.725 158.751 165.926L164.881 168.98C164.931 169 164.985 169.022 165.043 169.045C165.431 169.203 165.773 169.245 166.072 169.173C166.153 169.898 166.058 170.599 165.783 171.276C165.51 171.953 165.157 172.363 164.725 172.506C164.289 172.656 163.646 172.68 162.794 172.576L158.838 172.129L161.941 174.508C162.711 175.098 163.167 175.633 163.31 176.113C163.457 176.605 163.412 177.144 163.175 177.73C162.935 178.325 162.639 178.796 162.286 179.144C162.099 178.895 161.823 178.697 161.46 178.551C161.385 178.521 161.302 178.491 161.207 178.463L154.639 176.241C154.054 176.023 153.6 175.936 153.276 175.978Z" fill="white"/>
<path d="M151.884 182.2C151.591 182.927 151.706 183.569 152.23 184.126C152.657 184.568 153.262 184.947 154.047 185.264C154.221 185.335 154.404 185.404 154.598 185.473C155.662 185.835 156.587 185.959 157.373 185.845C158.159 185.73 158.699 185.31 158.993 184.583C159.5 183.327 158.767 182.3 156.793 181.503C155.133 180.832 153.825 180.717 152.868 181.157C152.41 181.365 152.081 181.712 151.884 182.2ZM157.465 187.899C156.909 188.039 156.324 188.072 155.71 187.997C155.102 187.934 154.458 187.765 153.781 187.492C153.112 187.221 152.533 186.896 152.043 186.516C151.55 186.143 151.148 185.712 150.837 185.221C150.526 184.73 150.36 184.164 150.342 183.522C150.319 182.889 150.453 182.212 150.744 181.493C151.298 180.123 152.147 179.27 153.291 178.935C154.44 178.611 155.709 178.73 157.096 179.291C158.484 179.852 159.474 180.646 160.067 181.674C160.658 182.709 160.676 183.912 160.122 185.284C159.827 186.01 159.452 186.594 158.997 187.034C158.54 187.474 158.029 187.762 157.465 187.899Z" fill="white"/>
<path d="M147.91 192.036C147.616 192.762 147.731 193.405 148.255 193.962C148.682 194.403 149.288 194.783 150.072 195.1C150.245 195.17 150.429 195.24 150.622 195.308C151.687 195.67 152.612 195.795 153.398 195.68C154.184 195.566 154.724 195.145 155.017 194.418C155.525 193.163 154.791 192.136 152.818 191.338C151.158 190.668 149.849 190.552 148.893 190.992C148.434 191.2 148.106 191.548 147.91 192.036ZM153.49 197.735C152.934 197.875 152.349 197.908 151.735 197.833C151.126 197.769 150.483 197.601 149.806 197.327C149.137 197.057 148.558 196.731 148.067 196.351C147.575 195.979 147.173 195.547 146.861 195.056C146.551 194.566 146.385 193.999 146.367 193.358C146.344 192.724 146.478 192.048 146.769 191.329C147.323 189.958 148.172 189.106 149.316 188.771C150.465 188.447 151.734 188.565 153.121 189.126C154.509 189.687 155.499 190.481 156.092 191.509C156.683 192.545 156.701 193.748 156.147 195.119C155.853 195.846 155.478 196.429 155.021 196.869C154.565 197.31 154.054 197.598 153.49 197.735Z" fill="white"/>
<path d="M145.704 198.205L152.221 200.838C152.65 201.012 152.99 200.991 153.241 200.775C153.475 201.216 153.473 201.734 153.233 202.328C152.939 203.055 152.34 203.49 151.436 203.635L144.38 204.761L149.757 206.933C150.186 207.107 150.526 207.086 150.777 206.87C151.012 207.311 151.038 207.758 150.854 208.212C150.52 209.039 149.866 209.254 148.892 208.86L142.388 206.232C141.917 206.042 141.534 205.978 141.239 206.042C141.103 205.69 141.134 205.269 141.331 204.782C141.528 204.294 141.846 203.923 142.285 203.668C142.733 203.418 143.394 203.219 144.27 203.073L149.942 202.195L144.851 200.137C144.405 199.957 144.059 199.971 143.811 200.179C143.583 199.72 143.556 199.277 143.729 198.848C143.903 198.419 144.149 198.153 144.469 198.052C144.789 197.95 145.2 198.001 145.704 198.205Z" fill="white"/>
<path d="M146.02 173.065C145.325 172.783 144.83 172.31 144.535 171.643C144.248 170.993 144.186 170.218 144.348 169.318C143.842 170.138 143.177 170.784 142.349 171.257C141.924 171.488 141.45 171.621 140.931 171.656C140.418 171.708 139.901 171.629 139.378 171.419C138.211 170.946 137.473 169.999 137.166 168.578C136.871 167.161 137.089 165.548 137.82 163.739C138.552 161.93 139.351 160.704 140.219 160.059C141.093 159.433 142.121 159.358 143.301 159.835L151.037 162.961C151.894 163.307 152.646 163.416 153.29 163.288C153.22 165.32 152.811 167.26 152.066 169.106C151.319 170.954 150.403 172.183 149.317 172.796C148.225 173.422 147.126 173.512 146.02 173.065ZM146.075 166.816C145.779 167.547 145.724 168.202 145.908 168.781C146.106 169.365 146.491 169.773 147.062 170.004C147.647 170.241 148.209 170.208 148.749 169.907C149.298 169.624 149.732 169.086 150.052 168.293C150.368 167.513 150.555 166.817 150.614 166.206L146.942 164.723L146.105 166.741C146.095 166.766 146.084 166.79 146.075 166.816ZM141.872 162.673C141.139 162.377 140.455 163.016 139.819 164.59C139.437 165.532 139.333 166.346 139.502 167.035C139.672 167.724 140.073 168.196 140.708 168.452C141.341 168.709 141.958 168.647 142.559 168.271C143.172 167.899 143.669 167.242 144.05 166.3L145.004 163.939L141.872 162.673Z" fill="white"/>
<path d="M137.269 178.354L136.097 181.254L141.435 181.833L137.269 178.354ZM130.467 184.99C130.204 184.71 130.045 184.351 129.992 183.911C129.945 183.489 130.02 183.036 130.215 182.553C130.411 182.07 130.689 181.721 131.051 181.506C131.424 181.297 131.972 181.194 132.694 181.197L134.03 181.218L135.735 176.999L134.618 176.007C133.752 175.253 133.486 174.461 133.822 173.63C133.982 173.234 134.222 172.892 134.541 172.603C134.868 172.33 135.191 172.195 135.509 172.193C135.51 172.439 135.583 172.67 135.727 172.887C135.878 173.121 136.137 173.412 136.501 173.762L144.821 181.557C145.396 181.53 145.829 181.424 146.12 181.239C146.561 181.864 146.619 182.58 146.293 183.385C146.044 184.004 145.693 184.389 145.242 184.539C144.792 184.688 144.066 184.748 143.066 184.719L132.699 184.4C131.688 184.366 130.943 184.562 130.467 184.99Z" fill="white"/>
<path d="M129.298 200.436L124.209 198.38C123.538 198.109 123.015 198.135 122.638 198.459C122.294 197.772 122.252 197.106 122.513 196.462C122.773 195.818 123.144 195.419 123.624 195.267C124.105 195.116 124.724 195.193 125.482 195.499L126.489 195.906C125.817 194.813 125.782 193.523 126.383 192.036C126.964 190.599 128.022 189.483 129.556 188.691C130.301 188.315 131.184 188.116 132.204 188.095C133.219 188.088 134.267 188.303 135.348 188.74C137.584 189.643 139.139 191.021 140.009 192.873C140.888 194.741 140.848 196.858 139.892 199.225C139.355 200.551 138.626 201.568 137.704 202.276C136.776 202.998 135.928 203.202 135.158 202.891C134.71 202.711 134.417 202.346 134.276 201.8C134.143 201.271 134.184 200.739 134.399 200.207C134.614 199.673 134.938 199.249 135.369 198.933C135.489 198.996 135.604 199.05 135.716 199.095C136.275 199.32 136.812 199.351 137.328 199.184C137.844 199.017 138.231 198.612 138.492 197.967C138.948 196.84 138.824 195.752 138.12 194.703C137.407 193.608 136.267 192.743 134.701 192.11C133.135 191.479 131.788 191.308 130.657 191.601C129.539 191.899 128.745 192.63 128.274 193.795C127.618 195.418 128.042 196.534 129.546 197.141L130.421 197.496L130.661 196.901C130.922 196.256 131.145 195.669 131.331 195.139C131.744 195.046 132.162 195.085 132.585 195.256C133.019 195.431 133.23 195.769 133.216 196.268C133.214 196.772 133.001 197.551 132.575 198.604C132.15 199.658 131.694 200.302 131.208 200.539C130.718 200.787 130.081 200.753 129.298 200.436Z" fill="white"/>
<defs>
<radialGradient id="paint0_radial_2005_35" cx="0" cy="0" r="1" gradientUnits="userSpaceOnUse" gradientTransform="translate(328.541 193.973) rotate(88.166) scale(192.125)">
<stop offset="0.264166" stop-color="white" stop-opacity="0"/>
<stop offset="1" stop-color="white"/>
</radialGradient>
</defs>
</svg>
