<svg width="917" height="620" viewBox="0 0 917 620" fill="none" xmlns="http://www.w3.org/2000/svg">
<path d="M384.892 397.817C364.379 398.302 318.889 377.424 312.673 337.813C306.513 298.554 346.751 274.055 347.562 252.908C348.017 241.044 337.862 234.718 327.539 235.44C320.07 235.963 311.293 236.008 307.454 228.373C298.467 210.505 327.431 195.342 351.071 204.395C379.866 215.421 392.246 251.165 362.394 284.768C347.929 301.051 337.576 315.952 338.393 331.792C339.14 346.28 353.482 372.298 386.308 376.582" fill="#F6BD60"/>
<path d="M384.889 397.817C384.837 397.82 384.78 397.818 384.732 397.817C364.144 398.195 318.871 377.318 312.674 337.814L312.669 337.809C312.382 335.97 312.193 334.17 312.106 332.384C312.029 330.937 312.015 329.512 312.057 328.116C312.117 326.248 312.269 324.413 312.514 322.613C312.578 322.161 312.642 321.711 312.716 321.267C312.871 320.306 313.055 319.352 313.256 318.415C313.461 317.474 313.697 316.543 313.942 315.62C314.227 314.569 314.544 313.53 314.882 312.493C315.051 311.978 315.225 311.468 315.407 310.958C315.684 310.194 315.969 309.439 316.269 308.687C316.371 308.433 316.47 308.185 316.572 307.938C316.884 307.19 317.206 306.449 317.536 305.718C317.758 305.227 317.978 304.74 318.21 304.257C318.443 303.773 318.68 303.295 318.92 302.811C319.514 301.616 320.144 300.435 320.792 299.273C321.046 298.81 321.311 298.347 321.575 297.884C321.843 297.424 322.112 296.966 322.385 296.51C332.695 279.205 347.078 265.463 347.562 252.909C348.006 241.241 338.191 234.934 328.06 235.411C327.887 235.422 327.713 235.432 327.54 235.442L327.535 235.438C327.159 235.464 326.782 235.491 326.401 235.513L325.83 235.548C325.635 235.563 325.44 235.571 325.249 235.582C318.348 235.894 310.905 235.24 307.445 228.374C307.35 228.184 307.256 227.994 307.172 227.803C306.778 226.944 306.47 226.089 306.243 225.246C306.166 224.964 306.101 224.686 306.045 224.407C305.974 224.033 305.915 223.668 305.866 223.296C305.847 223.114 305.831 222.929 305.813 222.746C305.792 222.473 305.78 222.2 305.769 221.927L305.773 221.923C305.77 221.65 305.772 221.38 305.786 221.113C305.811 220.576 305.866 220.044 305.957 219.517C305.985 219.346 306.02 219.17 306.057 218.999C306.133 218.647 306.221 218.307 306.318 217.966C306.415 217.626 306.534 217.288 306.658 216.956C306.787 216.626 306.924 216.296 307.074 215.97C307.302 215.474 307.559 214.989 307.85 214.517C307.948 214.358 308.044 214.206 308.143 214.048C308.247 213.894 308.347 213.735 308.455 213.586C308.556 213.437 308.664 213.286 308.768 213.142C308.953 212.888 309.151 212.637 309.353 212.39L309.358 212.386C316.938 203.15 335.203 198.321 351.071 204.393C379.865 215.424 392.246 251.163 362.392 284.767C347.927 301.049 337.571 315.948 338.391 331.793C338.957 342.858 347.463 360.654 366.079 370.348C371.835 373.346 378.555 375.573 386.306 376.583L384.903 397.625L384.889 397.817Z" fill="#F6BD60"/>
<path d="M305.771 221.928C305.786 222.201 305.798 222.474 305.819 222.747C305.836 222.928 305.853 223.113 305.87 223.293C305.917 223.665 305.977 224.031 306.049 224.401C306.107 224.685 306.17 224.965 306.247 225.242C306.475 226.088 306.785 226.944 307.174 227.804C307.261 227.993 307.353 228.185 307.451 228.369C310.91 235.239 318.353 235.895 325.253 235.583C325.446 235.572 325.638 235.559 325.831 235.548L326.402 235.514C326.787 235.49 327.16 235.462 327.538 235.434L327.545 235.44C327.719 235.429 327.893 235.418 328.059 235.407C338.196 234.932 348.007 241.239 347.566 252.912C347.081 265.462 332.698 279.206 322.385 296.508C322.118 296.963 321.843 297.424 321.576 297.886C321.316 298.347 321.048 298.809 320.793 299.268C320.147 300.436 319.521 301.616 318.924 302.809C318.682 303.294 318.447 303.774 318.212 304.259C317.983 304.738 317.766 305.229 317.537 305.72C317.209 306.45 316.887 307.194 316.578 307.942C316.473 308.187 316.374 308.433 316.275 308.691C315.972 309.439 315.688 310.193 315.41 310.96C315.232 311.469 315.059 311.983 314.886 312.498C314.547 313.534 314.233 314.574 313.945 315.621C313.703 316.549 313.466 317.474 313.256 318.419C313.058 319.358 312.871 320.307 312.717 321.269C312.642 321.713 312.579 322.162 312.518 322.617C312.269 324.416 312.119 326.247 312.058 328.115C312.016 329.514 312.03 330.939 312.107 332.386C312.193 334.175 312.385 335.974 312.672 337.813L312.678 337.819C313.063 340.272 313.599 342.651 314.271 344.958C314.277 344.977 314.279 344.996 314.285 345.007C324.437 379.848 365.435 398.173 384.735 397.816C384.785 397.82 384.84 397.819 384.89 397.817L384.904 397.624L386.309 376.584C378.558 375.57 371.836 373.346 366.083 370.35C362.682 368.577 359.624 366.54 356.884 364.319C344.629 354.379 338.856 340.836 338.392 331.795C337.574 315.952 347.934 301.05 362.398 284.766C392.249 251.162 379.87 215.421 351.074 204.39C335.206 198.323 316.942 203.149 309.364 212.386L309.357 212.393C309.153 212.641 308.954 212.889 308.775 213.143C308.667 213.289 308.56 213.441 308.458 213.587C308.35 213.739 308.256 213.898 308.147 214.05C308.045 214.208 307.951 214.361 307.856 214.517C307.564 214.991 307.309 215.478 307.08 215.975C306.928 216.297 306.793 216.63 306.666 216.956C306.539 217.289 306.423 217.628 306.327 217.967C306.231 218.312 306.14 218.65 306.063 219C306.024 219.175 305.993 219.35 305.966 219.519C305.875 220.043 305.82 220.58 305.798 221.115C305.781 221.383 305.781 221.65 305.782 221.923L305.776 221.93L305.771 221.928Z" fill="#F6BD60"/>
<path d="M305.771 221.928C305.786 222.201 305.798 222.474 305.819 222.747C305.836 222.928 305.853 223.113 305.87 223.293C305.917 223.665 305.977 224.031 306.049 224.401C306.107 224.685 306.17 224.965 306.247 225.242C306.475 226.088 306.785 226.944 307.174 227.804C307.261 227.993 307.353 228.185 307.451 228.369C310.91 235.239 318.353 235.895 325.253 235.583C325.446 235.572 325.638 235.559 325.831 235.548L326.402 235.514C326.787 235.49 327.16 235.462 327.538 235.434L327.545 235.44C327.719 235.429 327.893 235.418 328.059 235.407C338.196 234.932 348.007 241.239 347.566 252.912C347.376 257.824 345.059 262.924 341.681 268.346C336.444 276.772 328.66 285.982 322.386 296.508C322.119 296.963 321.845 297.424 321.578 297.886C321.317 298.347 321.049 298.809 320.795 299.268C320.148 300.436 319.522 301.616 318.926 302.809C318.684 303.294 318.449 303.774 318.213 304.259C317.984 304.738 317.768 305.229 317.538 305.72C317.21 306.45 316.889 307.194 316.58 307.942C316.474 308.187 316.376 308.433 316.277 308.691C315.974 309.439 315.69 310.193 315.412 310.96C315.233 311.469 315.06 311.983 314.888 312.498C314.549 313.534 314.235 314.574 313.946 315.621C313.705 316.549 313.468 317.474 313.257 318.419C313.06 319.358 312.873 320.307 312.719 321.269C312.644 321.713 312.581 322.162 312.52 322.617C312.27 324.416 312.121 326.247 312.06 328.115C312.017 329.514 312.032 330.939 312.109 332.386C312.195 334.175 312.386 335.974 312.673 337.813L312.68 337.819C313.064 340.272 313.601 342.651 314.273 344.958C314.279 344.977 314.28 344.996 314.287 345.007C324.439 379.848 365.436 398.173 384.736 397.816C384.787 397.82 384.841 397.819 384.892 397.817L384.906 397.624L386.31 376.584C378.559 375.57 371.838 373.346 366.085 370.35C362.684 368.577 359.625 366.54 356.884 364.319C344.629 354.379 338.856 340.836 338.392 331.795C337.574 315.952 347.934 301.05 362.398 284.766C392.249 251.162 379.87 215.421 351.074 204.39C335.206 198.323 316.942 203.149 309.364 212.386L309.357 212.393C309.153 212.641 308.954 212.889 308.775 213.143C308.667 213.289 308.56 213.441 308.458 213.587C308.35 213.739 308.256 213.898 308.147 214.05C308.045 214.208 307.951 214.361 307.856 214.517C307.564 214.991 307.309 215.478 307.08 215.975C306.928 216.297 306.793 216.63 306.666 216.956C306.539 217.289 306.423 217.628 306.327 217.967C306.231 218.312 306.14 218.65 306.063 219C306.024 219.175 305.993 219.35 305.966 219.519C305.875 220.043 305.82 220.58 305.798 221.115C305.781 221.383 305.781 221.65 305.782 221.923L305.776 221.93L305.771 221.928Z" fill="#F6BD60"/>
<path d="M305.771 221.929C305.786 222.202 305.798 222.475 305.819 222.748C305.836 222.929 305.853 223.114 305.87 223.295C305.917 223.666 305.977 224.032 306.049 224.402C306.107 224.687 306.17 224.966 306.247 225.244C306.475 226.09 306.785 226.945 307.174 227.805C307.261 227.995 307.353 228.186 307.451 228.37C310.91 235.24 318.353 235.896 325.253 235.584C325.446 235.573 325.638 235.561 325.831 235.55L326.402 235.515C326.787 235.492 327.16 235.463 327.538 235.435L327.545 235.441C327.719 235.43 327.893 235.419 328.059 235.408C338.196 234.933 348.007 241.24 347.566 252.913C347.376 257.825 345.059 262.925 341.681 268.347C350.437 261.224 362.453 240.94 351.159 229.936C339.028 218.127 314.845 237.915 305.773 221.931L305.771 221.929Z" fill="#B24528"/>
<path d="M314.285 345.007C324.437 379.848 365.435 398.173 384.735 397.815C384.785 397.82 384.84 397.818 384.89 397.817L384.904 397.624L386.309 376.584C378.558 375.57 371.836 373.346 366.083 370.35C362.682 368.577 359.624 366.54 356.883 364.319C344.016 368.439 322.348 370.887 314.287 345.007H314.285Z" fill="#B24528"/>
<g opacity="0.3">
<path d="M370.831 273.496C385.289 245.195 372.675 218.382 348.43 209.095C332.562 203.023 314.297 207.854 306.717 217.088L306.712 217.092C306.656 217.164 306.59 217.238 306.533 217.312C306.574 217.193 306.615 217.072 306.66 216.957C306.789 216.628 306.926 216.298 307.076 215.972C307.304 215.476 307.561 214.991 307.851 214.519C307.95 214.36 308.046 214.208 308.145 214.049C308.248 213.896 308.349 213.737 308.457 213.588C308.558 213.439 308.666 213.288 308.77 213.144C308.955 212.89 309.152 212.638 309.355 212.392L309.36 212.387C316.94 203.152 335.205 198.323 351.073 204.395C376.661 214.194 389.283 243.509 370.832 273.498L370.831 273.496Z" fill="white"/>
</g>
<path d="M384.237 400.481C374.239 400.481 357.525 395.766 341.915 385.041C329.376 376.425 313.67 361.309 310.048 338.225C306.139 313.314 320.14 294.028 331.391 278.532C338.489 268.755 344.619 260.312 344.906 252.806C345.065 248.669 343.713 245.091 340.997 242.459C337.805 239.366 332.844 237.731 327.723 238.09C321.524 238.525 309.99 239.33 305.079 229.567C301.702 222.852 302.772 215.677 308.016 209.878C316.209 200.818 334.909 195.363 352.02 201.914C366.828 207.584 377.374 219.249 380.952 233.914C385.146 251.094 379.259 269.78 364.379 286.531C351.781 300.712 340.237 315.991 341.044 331.655C341.804 346.41 356.824 370.055 386.651 373.948C388.106 374.138 389.132 375.471 388.94 376.927C388.751 378.382 387.418 379.408 385.962 379.217C366.786 376.714 354.911 367.258 348.323 359.768C339.588 349.834 336.094 338.874 335.736 331.929C334.831 314.356 347.058 298.03 360.405 283.005C374.093 267.597 379.557 250.61 375.791 235.176C372.63 222.229 363.274 211.915 350.118 206.877C335.333 201.215 318.797 205.878 311.955 213.444C309.304 216.374 306.784 221.136 309.825 227.18C312.59 232.679 318.582 233.401 327.351 232.79C334.045 232.318 340.371 234.454 344.693 238.644C348.524 242.356 350.432 247.324 350.214 253.01C349.864 262.129 343.294 271.178 335.688 281.655C324.456 297.126 311.725 314.66 315.294 337.403C321.353 376.023 365.826 395.169 384.229 395.169C384.433 395.169 384.629 395.168 384.827 395.163C386.312 395.13 387.511 396.288 387.545 397.755C387.58 399.223 386.42 400.439 384.953 400.474C384.717 400.48 384.479 400.481 384.236 400.481H384.237Z" fill="#591224"/>
<path d="M361.961 544.83C350.492 551.383 343.518 558.809 349.622 568.778C356.222 578.884 359.924 592.014 361.531 607.329C361.931 611.144 364.461 614.499 368.142 615.579C372.048 616.723 376.353 615.345 377.706 611.284C381.027 616.828 390.609 619.632 394.404 615.838C397.999 618.383 402.753 617.355 405.03 613.561C422.487 615.838 405.708 584.211 408.701 575.843L361.961 544.831V544.83Z" fill="#FCE5D8"/>
<path d="M389.444 620C388.871 620 388.281 619.964 387.673 619.889C384.083 619.445 380.539 617.756 378.001 615.405C375.52 618.031 371.522 619.092 367.462 617.9C362.914 616.57 359.64 612.518 359.122 607.58C357.456 591.686 353.686 579.426 347.595 570.1C345.128 566.073 344.386 562.152 345.351 558.388C346.757 552.906 351.654 547.929 360.759 542.727C361.555 542.275 362.536 542.307 363.298 542.812L410.038 573.824C410.966 574.439 411.353 575.608 410.98 576.656C410.168 578.926 411.615 584.957 412.891 590.277C415.085 599.423 417.353 608.881 413.156 613.545C411.537 615.345 409.211 616.207 406.203 616.086C404.778 617.816 402.861 618.993 400.678 619.451C398.602 619.889 396.49 619.63 394.578 618.731C393.153 619.565 391.404 620 389.444 620ZM377.706 608.861C378.551 608.861 379.342 609.304 379.783 610.038C381.305 612.579 384.794 614.653 388.268 615.083C390.227 615.325 391.841 614.975 392.694 614.125C393.527 613.291 394.842 613.18 395.804 613.859C396.975 614.689 398.351 614.989 399.684 614.713C401.036 614.429 402.198 613.577 402.956 612.314C403.451 611.488 404.388 611.036 405.346 611.158C407.394 611.424 408.811 611.138 409.559 610.306C412.053 607.533 409.817 598.211 408.185 591.405C406.808 585.664 405.587 580.58 405.997 576.95L361.88 547.68C354.905 551.845 351.027 555.748 350.042 559.59C349.405 562.072 349.945 564.663 351.688 567.512C358.171 577.438 362.19 590.399 363.938 607.073C364.246 610.003 366.209 612.486 368.822 613.252C371.311 613.979 374.436 613.436 375.41 610.515C375.709 609.617 376.504 608.977 377.444 608.873C377.532 608.864 377.62 608.859 377.708 608.859L377.706 608.861Z" fill="#512D16"/>
<path d="M375.027 611.77C375.924 607.192 376.377 602.49 375.456 597.862C375.366 597.44 375.64 597.026 376.062 596.941C376.421 596.869 376.773 597.06 376.919 597.38C377.957 599.665 378.653 602.121 379.105 604.61C379.558 607.106 379.775 609.639 379.855 612.162C379.801 615.743 374.505 615.321 375.027 611.771V611.77Z" fill="#512D16"/>
<path d="M392.073 615.178C393.818 611.06 394.478 606.312 394.405 601.512C394.398 601.089 394.735 600.739 395.159 600.733C395.523 600.726 395.833 600.977 395.917 601.316C397.091 606.108 397.63 611.253 396.731 616.493C396.003 620.057 390.829 618.603 392.072 615.178H392.073Z" fill="#512D16"/>
<path d="M402.301 613.914C403.581 609.505 404.082 604.782 403.719 600.005C403.696 599.692 403.93 599.419 404.242 599.396C404.509 599.375 404.746 599.543 404.824 599.786C406.332 604.46 407.034 609.515 406.798 614.622C406.528 618.03 401.508 617.244 402.301 613.912V613.914Z" fill="#512D16"/>
<path d="M345.938 461.094C351.691 472.985 353.243 483.052 342.571 487.821C331.413 492.424 320.936 501.159 310.951 512.882C308.463 515.803 304.48 517.14 300.833 515.947C296.965 514.682 294.193 511.11 295.373 506.995C289.499 509.69 280.009 506.584 279.025 501.308C274.622 501.374 271.281 497.838 271.549 493.421C255.863 485.426 287.588 468.831 289.851 460.237L345.936 461.091L345.938 461.094Z" fill="#FCE5D8"/>
<path d="M303.597 518.809C302.419 518.809 301.234 518.625 300.082 518.249C296.061 516.935 293.36 513.798 292.8 510.229C289.379 510.735 285.501 510.124 282.287 508.457C279.891 507.216 278.155 505.531 277.246 503.599C275.161 503.258 273.274 502.276 271.809 500.743C270.268 499.129 269.353 497.077 269.155 494.843C266.617 493.239 265.173 491.217 264.856 488.816C264.033 482.596 271.253 476.079 278.234 469.775C282.295 466.109 286.898 461.951 287.512 459.623C287.796 458.546 288.784 457.818 289.889 457.819L345.974 458.673C346.889 458.687 347.718 459.216 348.117 460.04C352.685 469.48 353.909 476.353 351.969 481.669C350.637 485.321 347.806 488.134 343.559 490.032C333.198 494.308 323.156 502.288 312.794 514.452C310.399 517.263 307.023 518.809 303.597 518.809ZM295.372 504.576C295.94 504.576 296.502 504.777 296.951 505.162C297.668 505.779 297.96 506.756 297.7 507.665C296.851 510.625 299.118 512.841 301.584 513.647C304.173 514.492 307.197 513.558 309.107 511.314C319.98 498.55 330.623 490.132 341.648 485.584C344.633 484.25 346.542 482.417 347.421 480.008C348.78 476.284 347.79 470.872 344.393 463.493L291.455 462.686C289.74 465.911 285.859 469.414 281.477 473.37C276.281 478.061 269.166 484.486 269.656 488.181C269.803 489.291 270.809 490.33 272.65 491.267C273.508 491.705 274.026 492.609 273.967 493.571C273.877 495.041 274.354 496.4 275.308 497.4C276.248 498.384 277.563 498.947 278.99 498.891H279.028C280.191 498.891 281.192 499.719 281.407 500.868C281.628 502.051 282.761 503.252 284.514 504.161C287.621 505.771 291.672 506.033 294.365 504.798C294.688 504.65 295.032 504.576 295.374 504.576H295.372Z" fill="#512D16"/>
<path d="M293.112 506.498C296.081 502.457 299.566 498.59 303.885 495.975C304.252 495.754 304.728 495.872 304.949 496.239C305.141 496.556 305.078 496.956 304.82 497.201C301.442 500.497 299.158 504.632 297.308 508.915C295.732 512.14 291.112 509.486 293.113 506.499L293.112 506.498Z" fill="#512D16"/>
<path d="M276.732 500.534C278.955 495.705 282.308 491.765 285.987 488.479C286.302 488.196 286.787 488.223 287.07 488.54C287.313 488.811 287.325 489.21 287.123 489.496C284.35 493.413 282.208 497.703 281.32 502.085C280.411 505.606 275.32 503.891 276.732 500.534Z" fill="#512D16"/>
<path d="M269.488 493.301C272.183 488.957 275.62 485.185 279.505 482.182C279.753 481.991 280.11 482.036 280.301 482.284C280.464 482.496 280.455 482.787 280.295 482.986C277.294 486.721 275.036 490.9 273.6 495.26C272.373 498.45 267.784 496.269 269.488 493.301Z" fill="#512D16"/>
<path d="M477.818 200.659C473.312 200.659 468.83 200.338 464.417 199.68C444.813 196.755 429.692 187.695 421.839 174.166C419.942 170.897 421.243 166.812 424.746 165.042C428.249 163.271 432.626 164.486 434.523 167.755C440.191 177.521 451.616 184.139 466.693 186.388C490.076 189.876 515.881 182.091 534.037 166.069C536.932 163.515 541.497 163.635 544.233 166.336C546.97 169.037 546.841 173.298 543.947 175.851C526.002 191.684 501.601 200.659 477.816 200.659H477.818Z" fill="#62C84F"/>
<path d="M477.82 202.875C473.179 202.875 468.561 202.538 464.091 201.871C443.806 198.845 428.12 189.401 419.923 175.277C418.72 173.205 418.429 170.811 419.106 168.532C419.81 166.161 421.458 164.218 423.748 163.061C428.272 160.775 433.969 162.38 436.442 166.639C441.766 175.81 452.625 182.044 467.023 184.191C489.775 187.588 514.894 180.002 532.573 164.403C536.32 161.098 542.249 161.255 545.794 164.754C547.557 166.493 548.489 168.78 548.422 171.193C548.354 173.617 547.287 175.861 545.418 177.51C527.149 193.629 502.512 202.872 477.821 202.872L477.82 202.875ZM428.192 166.438C427.365 166.438 426.527 166.625 425.747 167.019C424.559 167.62 423.709 168.606 423.357 169.794C423.032 170.889 423.175 172.046 423.757 173.052C431.265 185.986 445.821 194.663 464.746 197.485C468.998 198.119 473.397 198.44 477.82 198.44C501.445 198.44 525.013 189.6 542.483 174.186C543.422 173.359 543.957 172.253 543.99 171.071C544.023 169.9 543.557 168.778 542.679 167.91C540.76 166.016 537.543 165.931 535.507 167.728C516.875 184.169 490.384 192.155 466.37 188.577C450.612 186.226 438.622 179.225 432.608 168.865C431.709 167.314 429.983 166.437 428.194 166.437L428.192 166.438Z" fill="#512D16"/>
<path d="M176.949 67.9004C176.949 67.9004 84.9446 112.529 85.0685 121.633C85.1953 130.738 202.686 87.5909 202.686 87.5909" fill="#DD8E58"/>
<path d="M87.9977 123.564C86.6259 123.564 85.6347 123.387 85.0859 123.01C84.5992 122.673 84.3366 122.201 84.3307 121.643C84.2009 112.338 167.166 71.8266 176.624 67.2345C176.993 67.0545 177.433 67.2109 177.61 67.5769C177.787 67.9429 177.636 68.3826 177.267 68.5626C140.453 86.4204 85.7173 115.286 85.8028 121.623C85.8028 121.667 85.8028 121.714 85.9208 121.794C86.3338 122.077 87.0949 122.213 88.1658 122.213C101.365 122.213 161.891 101.784 202.429 86.8985C202.815 86.7628 203.234 86.9546 203.376 87.3382C203.517 87.7189 203.32 88.1439 202.939 88.2856C192.49 92.1222 106.3 123.567 87.9947 123.567L87.9977 123.564Z" fill="#512D16"/>
<path d="M202.688 87.5888L192.543 79.83L176.951 67.8923C176.951 67.8923 131.122 90.112 104.199 106.406C92.9801 113.196 85.0297 118.963 85.068 121.637C85.2008 130.739 202.688 87.5888 202.688 87.5888Z" fill="#E57C35"/>
<g opacity="0.3">
<path d="M202.686 87.5852C202.686 87.5852 85.1983 130.738 85.0655 121.639C85.0331 119.146 91.9894 113.928 102.07 107.71C121.977 103.964 167.116 88.4499 192.183 79.5608L192.537 79.8264L202.683 87.5822L202.686 87.5852Z" fill="#512D16"/>
</g>
<path d="M87.8402 127.347C84.8636 127.347 83.8576 126.654 82.9932 126.058C81.5211 125.045 80.6626 123.455 80.639 121.699C80.5889 118.157 80.521 113.311 128.873 87.4468C151.671 75.2523 174.785 64.0259 175.015 63.9138C177.213 62.8513 179.868 63.7662 180.936 65.9678C182.004 68.1724 181.084 70.8226 178.883 71.8909C144.963 88.344 108.718 107.76 94.8968 117.638C113.373 113.902 159.374 98.7765 201.162 83.4302C203.457 82.5861 206.006 83.7666 206.847 86.0656C207.69 88.3646 206.51 90.9115 204.215 91.7556C203.941 91.8559 176.476 101.931 148.408 111.219C108.742 124.346 94.0324 127.347 87.8402 127.347Z" fill="#512D16"/>
<path d="M757.424 153.528C757.424 153.528 839.062 237.815 848.404 235.563C857.747 233.308 767.776 122.44 767.776 122.44" fill="#E57C35"/>
<g opacity="0.3">
<path d="M767.772 122.435L757.426 153.532C757.426 153.532 839.052 237.816 848.398 235.57C851.115 234.921 845.457 225.111 836.067 211.538C808.929 187.371 770.492 147.674 770.492 147.674L775.643 132.207C770.79 126.145 767.772 122.435 767.772 122.435Z" fill="#512D16"/>
</g>
<path d="M847.758 240.117C843.793 240.117 834.79 235.632 796.341 198.585C774.956 177.98 754.45 156.825 754.246 156.613C752.544 154.854 752.589 152.05 754.344 150.344C756.102 148.639 758.908 148.686 760.61 150.445C790.907 181.725 824.99 214.498 840.658 226.492C829.373 208.014 796.185 164.478 764.339 125.235C762.796 123.335 763.085 120.543 764.985 118.999C766.888 117.459 769.675 117.748 771.218 119.646C771.431 119.906 792.547 145.947 813.03 172.729C855.824 228.684 854.313 233.158 853.207 236.423C852.623 238.155 851.216 239.442 849.446 239.87C848.95 239.991 848.425 240.117 847.758 240.117Z" fill="#512D16"/>
<path d="M838.885 114.323C840.324 115.383 840.242 117.564 838.669 118.417C537.309 281.767 163.669 89.7398 98.1088 31.2083C94.8342 28.3013 92.9668 24.1519 92.9668 19.7782C92.9668 10.7652 100.363 4.43188 108.293 4.43188C111.169 4.43188 114.116 5.26117 116.815 7.09978C216.853 75.1667 536.471 197.037 839.846 42.7269C833.117 46.4926 828.093 61.231 828.093 78.8291C828.093 96.4272 832.645 109.728 838.887 114.323H838.885Z" fill="#E57C35"/>
<g opacity="0.5">
<path d="M829.875 61.4029C529.508 208.078 215.761 88.1351 116.818 20.809C114.121 18.9704 111.171 18.1411 108.295 18.1411C102.589 18.1411 97.179 21.4169 94.5711 26.5933C93.5327 24.4891 92.9692 22.1606 92.9692 19.7731C92.9692 10.7601 100.365 4.42676 108.295 4.42676C111.171 4.42676 114.118 5.25604 116.818 7.09465C216.855 75.1615 536.474 197.032 839.849 42.7218C835.521 45.1388 831.904 52.0771 829.875 61.4029Z" fill="white"/>
</g>
<g opacity="0.3">
<path d="M98.1144 22.3493C163.459 80.6978 534.937 271.68 835.793 111.084C832.975 107.179 830.721 101.138 829.4 93.8455C438.307 247.037 138.318 45.841 97.6748 21.9185C97.8223 22.0601 97.958 22.2136 98.1144 22.3523V22.3493Z" fill="#512D16"/>
</g>
<g opacity="0.35">
<path d="M154.61 41.1251C160.655 45.1033 166.998 48.7304 173.37 52.2335C179.757 55.7277 186.238 59.0449 192.788 62.2292C199.334 65.4136 205.939 68.4799 212.612 71.3898C219.262 74.3587 225.988 77.1447 232.732 79.8834C259.769 90.7115 287.515 99.7156 315.614 107.333C343.741 114.864 372.28 120.879 401.025 125.459C429.762 130.054 458.815 132.566 487.908 133.843C546.105 136.269 604.617 132.97 662.164 123.724C690.922 119.049 719.446 112.784 747.262 104.258C761.145 99.931 774.857 95.0793 788.201 89.4365C794.856 86.5798 801.402 83.4898 807.798 80.1608C814.197 76.8407 820.427 73.2284 826.366 69.2502L826.381 69.2384C828.074 68.1022 830.366 68.5567 831.499 70.2507C832.635 71.9447 832.18 74.2377 830.487 75.371C830.422 75.4153 830.346 75.4625 830.278 75.5009C817.368 82.9556 803.898 89.0499 790.142 94.244C776.424 99.5326 762.435 103.98 748.324 107.89C720.098 115.705 691.408 121.558 662.542 126.102C648.107 128.387 633.619 130.302 619.093 131.863C611.83 132.636 604.558 133.348 597.277 133.947C590.002 134.596 582.718 135.16 575.426 135.626C546.267 137.509 517.011 138.084 487.781 137.164C458.555 136.261 429.364 133.643 400.435 129.186C385.986 126.867 371.616 124.169 357.326 121.053C343.035 117.954 328.81 114.534 314.709 110.662C286.494 102.953 258.737 93.5682 231.681 82.4539C218.164 76.8732 204.827 70.8527 191.787 64.2243C185.262 60.9248 178.804 57.4925 172.444 53.8832C166.086 50.2561 159.806 46.5376 153.72 42.3971C153.363 42.1551 153.271 41.6711 153.513 41.314C153.752 40.9628 154.23 40.8683 154.584 41.1015L154.608 41.1162L154.61 41.1251Z" fill="#512D16"/>
</g>
<path d="M570.951 187.113C499.75 187.113 433.488 176.002 378.888 162.32C244.078 128.534 131.818 67.2464 95.1605 34.5174C90.9537 30.7871 88.5376 25.4129 88.5376 19.7791C88.5376 8.87432 97.3997 0 108.294 0C112.2 0 116.012 1.18935 119.31 3.43818C169.565 37.631 273.954 84.4698 402.74 103.924C510.73 120.236 673.876 122.177 837.836 38.7761C839.987 37.6812 842.615 38.5134 843.754 40.6412C844.89 42.769 844.114 45.4163 842.008 46.5968C837.344 49.2086 832.523 61.9785 832.523 78.83C832.523 95.6814 837.155 107.545 841.512 110.756C843.438 112.173 844.489 114.436 844.326 116.809C844.164 119.144 842.839 121.204 840.78 122.316C751.614 170.648 657.627 187.113 570.951 187.113ZM108.291 8.86545C103.052 8.86545 97.3967 13.0385 97.3967 19.7791C97.3967 22.8778 98.7272 25.835 101.049 27.892C129.331 53.1455 234.968 117.113 381.042 153.72C499.948 183.519 674.788 201.007 834.016 115.888C827.653 109.121 823.661 95.0912 823.661 78.83C823.661 69.4185 825.012 60.7597 827.378 53.8273C760.361 85.9424 688.488 106.923 613.497 116.234C544.798 124.763 473.441 123.57 401.415 112.692C271.157 93.0165 165.349 45.4901 114.321 10.769C112.469 9.50587 110.442 8.86841 108.291 8.86841V8.86545ZM836.249 117.889C836.249 117.889 836.255 117.892 836.258 117.895C836.258 117.895 836.252 117.892 836.249 117.889Z" fill="#512D16"/>
<path d="M858.457 78.8307C858.457 99.3063 851.654 115.895 843.267 115.895C834.879 115.895 828.091 99.3033 828.091 78.8307C828.091 61.2326 833.115 46.4942 839.844 42.7285C840.066 42.6104 840.305 42.4924 840.526 42.3714C840.541 42.3566 840.555 42.3566 840.57 42.3566C841.443 41.9553 842.349 41.7634 843.267 41.7634C851.657 41.7634 858.457 58.3552 858.457 78.8278V78.8307Z" fill="#FFA76C"/>
<g opacity="0.35">
<path d="M858.463 78.8241C858.463 99.2996 851.66 115.888 843.273 115.888C834.886 115.888 828.098 99.2967 828.098 78.8241C828.098 74.9698 828.334 71.2631 828.78 67.7629C830.721 82.8407 836.47 93.7691 843.273 93.7691C850.076 93.7691 855.841 82.8437 857.782 67.7629C858.227 71.2483 858.463 74.9669 858.463 78.8241Z" fill="#512D16"/>
</g>
<path d="M843.266 120.33C830.395 120.33 823.66 99.4534 823.66 78.8303C823.66 59.6179 829.294 43.5544 837.678 38.862L838.446 38.4606C838.575 38.3927 838.708 38.3307 838.844 38.2746C840.248 37.6519 841.735 37.3362 843.263 37.3362C856.143 37.3362 862.884 58.2131 862.884 78.8333C862.884 99.4534 856.143 120.333 843.263 120.333L843.266 120.33ZM842.396 46.3964L841.927 46.6414C837.345 49.2089 832.522 61.9788 832.522 78.8303C832.522 98.447 838.988 111.465 843.266 111.465C847.544 111.465 854.025 98.45 854.025 78.8303C854.025 59.2106 847.549 46.1987 843.266 46.1987C842.968 46.1987 842.697 46.2607 842.413 46.3876C842.407 46.3876 842.399 46.3935 842.393 46.3964H842.396Z" fill="#512D16"/>
<g opacity="0.3">
<path d="M709.612 152.411C712.309 152.567 715.132 152.411 717.881 152.107C720.646 151.806 723.395 151.349 726.103 150.714C731.517 149.436 736.791 147.583 741.792 145.172C746.778 142.728 751.462 139.718 755.778 136.262C757.914 134.506 760.006 132.7 761.944 130.728L764.983 127.742C766.027 126.753 767.107 125.797 768.192 124.853C776.986 117.38 787.268 111.888 797.938 107.688C803.286 105.587 808.779 103.878 814.343 102.423C819.949 100.971 825.474 99.8321 831.439 99.0766C833.463 98.8199 835.31 100.254 835.566 102.279C835.823 104.303 834.389 106.151 832.365 106.407C832.25 106.422 832.135 106.431 832.023 106.434H831.914C829.353 106.517 826.533 106.779 823.837 107.116C821.111 107.455 818.388 107.88 815.68 108.385C810.263 109.412 804.909 110.79 799.661 112.496C789.158 115.866 779.146 120.863 770.425 127.591C769.352 128.45 768.281 129.318 767.242 130.218L764.139 133.024C762.047 134.99 759.796 136.778 757.513 138.508C755.206 140.211 752.805 141.778 750.344 143.236C747.866 144.667 745.317 145.963 742.715 147.14C737.52 149.507 732.068 151.287 726.499 152.47C720.917 153.665 715.279 154.347 709.48 154.155C708.993 154.14 708.612 153.733 708.63 153.246C708.645 152.759 709.052 152.379 709.539 152.396C709.544 152.396 709.55 152.396 709.556 152.396H709.615L709.612 152.411Z" fill="#512D16"/>
<path d="M396.934 141.684C413.428 145.081 429.995 147.994 446.634 150.382L459.13 152.023L471.656 153.392C475.822 153.914 480.017 154.18 484.194 154.587C488.372 154.997 492.561 155.278 496.75 155.54C500.936 155.83 505.125 156.107 509.32 156.249C513.515 156.408 517.704 156.668 521.899 156.709C526.094 156.774 530.286 156.972 534.484 156.978C538.679 156.981 542.874 157.04 547.07 157.001C563.85 156.857 580.618 156.027 597.333 154.593C614.042 153.123 630.693 150.969 647.216 148.095C663.742 145.238 680.124 141.569 696.25 137.03C704.297 134.717 712.286 132.199 720.128 129.319C724.054 127.893 727.919 126.326 731.73 124.674C733.636 123.847 735.512 122.965 737.368 122.062L740.117 120.66L742.97 119.158C750.652 115.28 758.85 112.264 767.379 110.753C775.849 109.265 784.802 108.923 793.027 111.995C793.219 112.066 793.316 112.282 793.245 112.473C793.189 112.621 793.054 112.712 792.906 112.715H792.874C790.773 112.76 788.673 112.943 786.608 113.04C784.537 113.196 782.481 113.418 780.436 113.621C776.35 114.046 772.282 114.557 768.273 115.419C760.255 117.08 752.404 119.654 744.994 123.236L739.347 126.084C737.415 127.017 735.474 127.92 733.515 128.764C729.597 130.449 725.65 132.034 721.656 133.474C713.69 136.411 705.616 138.999 697.486 141.363C681.201 146.005 664.684 149.762 648.027 152.698C631.377 155.667 614.594 157.875 597.752 159.356C580.91 160.87 564 161.573 547.096 161.588C538.644 161.561 530.192 161.455 521.749 161.095C517.524 160.977 513.312 160.643 509.093 160.407C504.874 160.189 500.665 159.834 496.455 159.471C462.771 156.774 429.379 150.907 396.763 142.396C396.565 142.346 396.447 142.142 396.5 141.944C396.55 141.755 396.745 141.637 396.934 141.676V141.684Z" fill="#512D16"/>
</g>
<g opacity="0.35">
<path d="M93.9492 25.091C93.5392 23.9872 93.2471 22.8392 93.1025 21.6558C93.25 22.8362 93.5392 23.9872 93.9492 25.091Z" fill="#512D16"/>
</g>
<g opacity="0.35">
<path d="M93.0431 19.6594C92.9994 19.6798 92.9731 19.7178 92.9731 19.7732C92.9731 19.7178 92.9994 19.6828 93.0431 19.6594Z" fill="#512D16"/>
</g>
<g opacity="0.35">
<path d="M96.7682 29.8295C96.1192 29.0917 95.5381 28.3008 95.0483 27.4626C95.5381 28.3037 96.1192 29.0917 96.7682 29.8295Z" fill="#512D16"/>
</g>
<g opacity="0.35">
<path d="M156.798 70.461C152.358 67.9642 148.113 65.5059 144.059 63.0947C148.113 65.5059 152.361 67.9613 156.798 70.461Z" fill="#512D16"/>
</g>
<g opacity="0.35">
<path d="M185.526 85.7784C182.779 84.3884 180.08 83.0013 177.431 81.623C180.08 83.0042 182.776 84.3884 185.526 85.7784Z" fill="#512D16"/>
</g>
<g opacity="0.35">
<path d="M93.2497 19.6492C93.1877 19.6403 93.1463 19.6432 93.105 19.6492C93.1463 19.6432 93.1906 19.6373 93.2497 19.6492Z" fill="#512D16"/>
</g>
<g opacity="0.35">
<path d="M129.337 54.0152C118.333 46.9618 109.332 40.5193 102.577 34.9976C109.332 40.5193 118.333 46.9648 129.337 54.0152Z" fill="#512D16"/>
</g>
<g opacity="0.35">
<path d="M837.297 112.904C837.297 112.904 837.293 112.901 837.29 112.897C837.29 112.897 837.293 112.9 837.297 112.904Z" fill="#512D16"/>
</g>
<g opacity="0.35">
<path d="M838.019 113.605C838.042 113.626 838.063 113.65 838.084 113.667C838.06 113.647 838.039 113.623 838.019 113.605Z" fill="#512D16"/>
</g>
<g opacity="0.35">
<path d="M839.358 114.771C839.358 114.771 839.341 114.758 839.335 114.748C839.341 114.754 839.351 114.761 839.358 114.771Z" fill="#512D16"/>
</g>
<g opacity="0.35">
<path d="M94.2637 20.03C94.3966 20.0951 94.5444 20.166 94.698 20.2458C94.5444 20.166 94.3966 20.0921 94.2637 20.03Z" fill="#512D16"/>
</g>
<g opacity="0.35">
<path d="M93.751 19.8037C93.8485 19.8421 93.9519 19.8865 94.0671 19.9397C93.9519 19.8865 93.8455 19.8421 93.751 19.8037Z" fill="#512D16"/>
</g>
<g opacity="0.35">
<path d="M93.3589 19.6765C93.4268 19.6942 93.4978 19.712 93.5834 19.7445C93.4978 19.715 93.4239 19.6942 93.3589 19.6765Z" fill="#512D16"/>
</g>
<g opacity="0.35">
<path d="M98.1155 31.2051C98.7851 31.8042 99.4961 32.4181 100.231 33.0437C99.4961 32.4181 98.7851 31.8013 98.1155 31.2051Z" fill="#512D16"/>
</g>
<g opacity="0.35">
<path d="M391.528 160.832C387.652 159.914 383.793 158.979 379.961 158.02C383.793 158.979 387.652 159.917 391.528 160.832Z" fill="#512D16"/>
</g>
<g opacity="0.35">
<path d="M496.292 178.811C484.752 177.604 473.311 176.137 461.986 174.449C473.311 176.14 484.752 177.604 496.292 178.811Z" fill="#512D16"/>
</g>
<g opacity="0.35">
<path d="M229.992 106.709C214.147 99.7708 199.335 92.7646 185.726 85.8765C199.338 92.7646 214.147 99.7708 229.992 106.709Z" fill="#512D16"/>
</g>
<g opacity="0.35">
<path d="M496.291 178.816C500.813 179.288 505.353 179.719 509.905 180.114C505.353 179.722 500.813 179.291 496.291 178.816Z" fill="#512D16"/>
</g>
<g opacity="0.35">
<path d="M560.964 182.723C556.229 182.652 551.5 182.534 546.786 182.366C551.503 182.531 556.229 182.652 560.964 182.723Z" fill="#512D16"/>
</g>
<g opacity="0.35">
<path d="M838.663 118.411C749.219 166.894 653.409 184.073 561.175 182.727C653.409 184.073 749.219 166.897 838.663 118.411C839.285 118.078 839.669 117.538 839.825 116.942C839.669 117.538 839.288 118.078 838.663 118.411Z" fill="#512D16"/>
</g>
<g opacity="0.35">
<path d="M411.683 165.35C405.859 164.116 400.08 162.827 394.348 161.49C400.083 162.827 405.862 164.113 411.683 165.35Z" fill="#512D16"/>
</g>
<g opacity="0.35">
<path d="M266.204 121.679C263.16 120.493 260.148 119.303 257.165 118.105C260.151 119.303 263.163 120.495 266.204 121.679Z" fill="#512D16"/>
</g>
<g opacity="0.35">
<path d="M249.696 115.07C249.071 114.813 248.448 114.557 247.829 114.3C248.451 114.557 249.074 114.813 249.696 115.07Z" fill="#512D16"/>
</g>
<g opacity="0.35">
<path d="M239.027 110.61C238.517 110.395 238.006 110.177 237.499 109.958C238.006 110.177 238.517 110.392 239.027 110.61Z" fill="#512D16"/>
</g>
<g opacity="0.35">
<path d="M285.408 128.922C281.827 127.615 278.278 126.296 274.767 124.965C278.278 126.293 281.827 127.612 285.408 128.922Z" fill="#512D16"/>
</g>
<g opacity="0.35">
<path d="M321.127 141.184C318.395 140.308 315.684 139.42 312.984 138.528C315.681 139.423 318.395 140.308 321.127 141.184Z" fill="#512D16"/>
</g>
<g opacity="0.35">
<path d="M307.97 136.849C306.053 136.203 304.144 135.551 302.241 134.896C304.141 135.551 306.05 136.2 307.97 136.849Z" fill="#512D16"/>
</g>
<g opacity="0.35">
<path d="M297.08 133.103C294.563 132.221 292.062 131.333 289.581 130.438C292.065 131.333 294.563 132.221 297.08 133.103Z" fill="#512D16"/>
</g>
<path d="M44.4795 130.741C69.7647 136.242 96.4394 112.29 96.4394 112.29C96.4394 112.29 82.1167 79.4193 56.8285 73.9182C31.5433 68.4171 4.86865 92.3692 4.86865 92.3692C4.86865 92.3692 19.1913 125.24 44.4795 130.741Z" fill="#8AC457"/>
<path d="M52.2109 132.288C49.5853 132.288 46.945 132.031 44.3223 131.461C18.9604 125.945 4.3398 92.998 4.19229 92.6645C4.06544 92.3723 4.13919 92.033 4.3752 91.8205C4.64661 91.5785 31.6252 67.6854 56.9841 73.1953C82.346 78.7112 96.9666 111.659 97.1141 111.992C97.241 112.284 97.1672 112.624 96.9312 112.836C96.6893 113.054 74.9767 132.288 52.2109 132.288ZM44.635 130.018C67.5808 135 92.096 115.023 95.5388 112.089C93.6242 107.993 79.6201 79.626 56.6714 74.6355C33.7286 69.648 9.21039 89.6307 5.76764 92.5642C7.68225 96.6605 21.6863 125.028 44.635 130.018Z" fill="#512D16"/>
<g opacity="0.5">
<path d="M19.7774 93.8896C19.7774 93.8896 38.9087 76.7165 60.1227 74.8041C59.0548 74.4529 57.9515 74.1489 56.8304 73.9069C31.5423 68.4118 4.87646 92.3756 4.87646 92.3756C4.87646 92.3756 19.1932 125.249 44.4814 130.744C48.3519 131.583 52.2696 131.739 56.1136 131.391C32.8728 123.942 19.7803 93.8926 19.7803 93.8926L19.7774 93.8896Z" fill="white"/>
</g>
<g opacity="0.3">
<path d="M96.446 112.292C96.446 112.292 82.1145 79.4299 56.8322 73.9111C47.4126 71.8541 37.813 73.8875 29.479 77.2666C31.0632 77.3817 32.668 77.6149 34.2463 77.9602C59.5345 83.4554 73.8513 116.329 73.8513 116.329C73.8513 116.329 63.3342 125.782 49.2239 131.439C72.9987 133.349 96.446 112.295 96.446 112.295V112.292Z" fill="#512D16"/>
</g>
<path d="M52.3246 135.995C49.4128 135.995 46.4746 135.709 43.5363 135.071C16.3483 129.157 1.42967 95.569 0.807204 94.1406C0.0431311 92.3905 0.488594 90.3453 1.91054 89.0704C3.06992 88.0286 30.5795 63.6752 57.7734 69.5835C84.9614 75.4978 99.88 109.088 100.502 110.514C101.267 112.264 100.821 114.309 99.3991 115.584C98.3666 116.511 76.3619 135.995 52.3246 135.995ZM45.4214 126.409C63.9096 130.435 83.9466 116.537 90.9206 111.089C86.8406 103.236 74.3794 82.2737 55.8883 78.2512C37.3912 74.2169 17.3631 88.1201 10.3891 93.571C14.4691 101.424 26.9302 122.387 45.4214 126.409Z" fill="#512D16"/>
<path d="M45.2172 100.108L94.9321 107.424C97.36 107.782 99.0357 110.039 98.6787 112.468C98.3217 114.897 96.0649 116.573 93.6399 116.216C93.4452 116.187 93.2328 116.139 93.0499 116.089L44.7895 102.092C44.2496 101.935 43.9398 101.372 44.0962 100.831C44.2378 100.339 44.7246 100.035 45.2202 100.108H45.2172Z" fill="#512D16"/>
<path d="M177.28 156.326C180.666 130.663 154.596 106.052 154.596 106.052C154.596 106.052 123.036 123.052 119.65 148.718C116.263 174.382 142.333 198.992 142.333 198.992C142.333 198.992 173.893 181.993 177.28 156.326Z" fill="#8AC457"/>
<path d="M142.332 199.73C142.149 199.73 141.966 199.662 141.825 199.529C141.562 199.281 115.522 174.364 118.917 148.621C122.313 122.88 153.926 105.574 154.244 105.403C154.522 105.253 154.867 105.297 155.1 105.518C155.363 105.766 181.403 130.683 178.007 156.427C174.612 182.167 142.999 199.473 142.68 199.644C142.571 199.703 142.45 199.733 142.332 199.733V199.73ZM154.475 106.967C150.551 109.213 123.454 125.525 120.38 148.816C117.309 172.107 139.246 194.89 142.453 198.08C146.377 195.834 173.473 179.523 176.547 156.232C179.621 132.932 157.681 110.155 154.475 106.967Z" fill="#512D16"/>
<g opacity="0.5">
<path d="M177.275 156.323C177.52 154.44 177.615 152.56 177.564 150.698C168.82 170.444 145.624 182.928 145.624 182.928C145.624 182.928 123.244 161.803 122.651 138.285C121.185 141.564 120.123 145.052 119.645 148.72C116.262 174.384 142.329 198.989 142.329 198.989C142.329 198.989 173.895 181.987 177.278 156.323H177.275Z" fill="white"/>
</g>
<g opacity="0.3">
<path d="M167.124 178.276C172.118 172.052 176.18 164.659 177.275 156.325C180.659 130.661 154.592 106.057 154.592 106.057C154.592 106.057 123.026 123.059 119.642 148.723C119.427 150.381 119.326 152.046 119.353 153.702C129.74 140.749 144.151 132.987 144.151 132.987C144.151 132.987 166.935 154.498 167.124 178.279V178.276Z" fill="#512D16"/>
</g>
<path d="M142.336 203.426C141.229 203.426 140.135 203.013 139.294 202.216C138.161 201.147 111.619 175.732 115.26 148.138C118.9 120.541 151.127 102.887 152.499 102.149C154.18 101.243 156.251 101.517 157.641 102.828C158.773 103.896 185.315 129.312 181.675 156.906C178.035 184.5 145.808 202.154 144.439 202.892C143.778 203.249 143.055 203.423 142.338 203.423L142.336 203.426ZM153.856 111.655C146.371 116.374 126.517 130.531 124.042 149.298C121.567 168.061 137.064 186.887 143.07 193.389C150.554 188.67 170.409 174.513 172.884 155.746C175.359 136.979 159.862 118.153 153.856 111.652V111.655Z" fill="#512D16"/>
<path d="M146.702 158.127L149.873 107.959C150.027 105.51 152.139 103.651 154.585 103.807C157.033 103.961 158.892 106.074 158.735 108.523C158.723 108.718 158.691 108.936 158.656 109.122L148.708 158.396C148.596 158.945 148.062 159.302 147.51 159.19C147.006 159.089 146.666 158.629 146.699 158.13L146.702 158.127Z" fill="#512D16"/>
<path d="M857.825 153.825C835.534 166.934 832.186 202.608 832.186 202.608C832.186 202.608 864.973 217.025 887.264 203.913C909.555 190.8 912.903 155.129 912.903 155.129C912.903 155.129 880.116 140.712 857.825 153.825Z" fill="#8AC457"/>
<path d="M864.687 210.113C847.704 210.113 832.115 203.385 831.888 203.284C831.596 203.157 831.422 202.856 831.451 202.541C831.484 202.181 835.095 166.341 857.451 153.19C879.806 140.037 912.868 154.309 913.198 154.456C913.49 154.583 913.665 154.884 913.635 155.2C913.603 155.56 909.992 191.4 887.636 204.55C880.597 208.691 872.493 210.113 864.687 210.113ZM832.98 202.142C837.163 203.854 866.664 215.175 886.89 203.278C907.115 191.382 911.57 160.084 912.11 155.599C907.93 153.887 878.426 142.563 858.2 154.462C837.974 166.359 833.52 197.656 832.98 202.142Z" fill="#512D16"/>
<g opacity="0.5">
<path d="M854.876 155.3C853.268 156.245 851.772 157.319 850.356 158.476C872.11 150.422 899.628 162.507 899.628 162.507C899.628 162.507 896.734 193.212 878.509 208.112C880.5 207.375 882.447 206.486 884.314 205.386C906.605 192.276 909.954 156.602 909.954 156.602C909.954 156.602 877.163 142.185 854.876 155.295V155.3Z" fill="white"/>
</g>
<g opacity="0.3">
<path d="M857.815 153.829C835.539 166.932 832.188 202.61 832.188 202.61C832.188 202.61 864.966 217.023 887.26 203.914C890.8 201.836 893.859 199.195 896.505 196.214C878.699 196.902 861.75 189.462 861.75 189.462C861.75 189.462 864.116 164.191 878.168 148.372C871.188 148.644 864.087 150.134 857.815 153.829Z" fill="#512D16"/>
</g>
<path d="M864.555 213.869C847.073 213.869 831.366 207.093 830.405 206.671C828.655 205.904 827.596 204.101 827.776 202.197C827.921 200.651 831.614 164.106 855.581 150.008C874.736 138.743 900.316 145.849 910.423 149.429C914.827 150.99 917.459 155.467 916.68 160.077C914.892 170.654 908.668 196.472 889.51 207.739C881.739 212.311 872.942 213.869 864.555 213.869ZM837.048 199.744C845.362 202.743 868.715 209.681 885.017 200.096C900.965 190.717 906.361 167.951 907.942 158.599C908.004 158.242 907.806 157.908 907.464 157.787C898.525 154.62 876.016 148.269 860.071 157.651C843.724 167.263 838.461 191.021 837.048 199.747V199.744Z" fill="#512D16"/>
<path d="M878.039 176.816L836.587 205.163C834.563 206.547 831.799 206.028 830.415 204.003C829.032 201.979 829.551 199.213 831.575 197.829C831.737 197.717 831.926 197.608 832.097 197.522L877.012 175.069C877.514 174.818 878.124 175.022 878.375 175.524C878.605 175.984 878.452 176.536 878.039 176.816Z" fill="#512D16"/>
<path d="M513.766 423.511C528.931 485.391 591.092 483.986 593.611 503.152C595.713 515.721 592.422 535.051 577.96 537.33C537.013 543.784 474.305 511.235 474.062 435.215" fill="#F6BD60"/>
<path d="M513.769 423.511L489.337 430.713L474.064 435.215C474.248 492.85 510.337 525.498 545.624 535.107C556.882 538.174 568.056 538.894 577.961 537.333C592.425 535.049 595.714 515.721 593.616 503.154C591.095 483.986 528.932 485.392 513.769 423.511Z" fill="#F6BD60"/>
<path d="M513.769 423.511L489.337 430.713L474.064 435.215C474.248 492.85 510.337 525.498 545.624 535.107C556.882 538.174 568.056 538.894 577.961 537.333C579.014 537.166 580.011 536.907 580.948 536.572C580.948 536.572 580.951 536.572 580.957 536.572C592.88 532.261 595.562 514.803 593.617 503.156C593.394 501.456 592.701 499.915 591.608 498.477C580.428 483.738 527.587 479.898 513.77 423.513L513.769 423.511Z" fill="#F6BD60"/>
<path d="M513.768 423.511L500.781 427.34L489.334 430.713L474.062 435.215C474.245 492.85 510.334 525.498 545.621 535.107C556.879 538.174 568.053 538.894 577.959 537.333C579.012 537.166 580.008 536.907 580.945 536.572C580.945 536.572 580.948 536.572 580.954 536.572C592.877 532.261 595.559 514.803 593.614 503.156C593.391 501.456 592.698 499.915 591.606 498.477C583.192 487.388 551.193 482.467 529.982 456.69C522.998 448.21 517.186 437.471 513.768 423.513V423.511Z" fill="#F6BD60"/>
<path d="M545.623 535.108C510.34 525.498 474.251 492.853 474.067 435.215L489.336 430.716L496.77 428.524L500.782 427.34L513.767 423.514C517.184 437.471 523.001 448.211 529.983 456.689C541.217 470.337 555.476 478.142 567.652 484.108C578.47 489.41 587.649 493.258 591.608 498.477C592.697 499.915 593.393 501.456 593.616 503.154C595.562 514.803 592.878 532.262 580.959 536.57C580.959 536.57 580.956 536.57 580.949 536.57C580.011 536.906 579.016 537.166 577.964 537.33C568.056 538.894 556.883 538.171 545.625 535.106L545.623 535.108Z" fill="#F6BD60"/>
<path d="M545.622 535.108C510.34 525.498 474.249 492.853 474.067 435.217L489.336 430.716L496.768 428.525L498.477 428.02L500.784 427.339L513.77 423.514C517.184 437.472 523.001 448.21 529.985 456.689C541.055 470.14 555.074 477.919 567.128 483.851C567.302 483.939 567.478 484.027 567.652 484.11C578.471 489.408 587.649 493.258 591.607 498.477C592.696 499.915 593.393 501.453 593.616 503.154C595.562 514.805 592.876 532.264 580.956 536.57C580.956 536.57 580.952 536.57 580.946 536.57C580.012 536.904 579.014 537.165 577.96 537.333C568.054 538.894 556.882 538.172 545.62 535.108H545.622Z" fill="#F6BD60"/>
<path d="M569.851 518.652C565.75 536.637 575.687 537.346 580.946 536.569C580.946 536.569 580.949 536.569 580.955 536.569C592.878 532.258 595.56 514.801 593.615 503.153C593.393 501.454 592.699 499.913 591.607 498.475C584.968 496.796 573.647 502.003 569.852 518.654L569.851 518.652Z" fill="#B24528"/>
<path d="M489.337 430.714L474.064 435.216C474.16 465.159 483.947 488.359 498.278 505.087C517.934 528.031 545.01 536.13 545.624 535.108C546.173 534.195 524.924 527.183 512.714 506.068C506.049 494.541 507.244 487.746 500.05 462.449C496.131 448.672 492.085 437.705 489.334 430.715L489.337 430.714Z" fill="#B24528"/>
<path d="M567.287 540.423C546.747 540.423 524.633 532.063 507.366 517.35C491.211 503.586 471.925 478.165 471.787 435.222C471.784 433.963 472.799 432.941 474.056 432.937H474.064C475.318 432.937 476.338 433.951 476.341 435.206C476.473 476.42 494.891 500.739 510.319 513.882C529.749 530.436 555.534 538.558 577.608 535.078C581.367 534.486 584.483 532.505 586.869 529.194C591.797 522.355 592.679 511.374 591.367 503.524C591.362 503.498 591.359 503.473 591.354 503.446C590.596 497.682 582.065 493.578 571.265 488.382C551.428 478.84 521.449 464.419 511.556 424.049C511.256 422.829 512.003 421.595 513.226 421.297C514.45 420.992 515.68 421.746 515.978 422.967C525.36 461.249 553.032 474.56 573.239 484.279C585.262 490.062 594.761 494.631 595.864 502.812C597.217 510.951 596.638 523.425 590.563 531.856C587.44 536.19 583.319 538.788 578.316 539.577C574.719 540.144 571.026 540.421 567.285 540.421L567.287 540.423Z" fill="#512D16"/>
<path d="M577.446 512.377C579.314 508.778 581.026 507.01 582.432 505.569C588.647 499.199 594.675 497.948 602.977 492.344C606.147 490.203 611.34 490.881 611.911 495.392C612.67 501.373 605.285 504.183 604.394 506.346C612.148 506.292 633.218 509.043 628.835 518.999C626.102 525.206 615.586 521.52 611.934 521.54C615.779 522.61 626.724 528.491 621.569 535.474C616.894 541.805 609.292 533.689 605.006 532.912C610.351 535.867 613.493 542.183 608.758 545.867C604.326 549.314 597.713 543.321 594.741 540.164C593.939 539.311 571.834 539.628 573.612 527.265C573.612 527.265 573.878 522.372 574.876 518.651C575.786 515.263 577.445 512.378 577.445 512.378L577.446 512.377Z" fill="#FCE5D8"/>
<path d="M577.448 512.377C578.83 507.563 582.215 503.359 586.049 500.178C589.971 497.119 594.458 495.074 598.576 492.494C600.934 491.12 603.102 489.153 605.95 488.979C611.75 488.314 615.65 493.61 613.662 499.037C612.643 501.846 610.415 503.755 608.238 505.391C607.529 505.901 606.639 506.603 606.138 507.066L604.382 504.462C612.507 504.524 634.991 506.915 630.741 519.319C627.679 526.954 618.029 524.005 611.946 523.426L612.442 519.726C614.246 520.263 615.741 520.992 617.251 521.849C621.102 524.087 625.534 527.9 624.691 532.999C623.974 537.142 619.837 540.622 615.576 539.613C611.529 538.93 608.375 535.921 604.671 534.768C604.671 534.768 605.919 531.262 605.919 531.264C609.793 533.235 613.462 537.144 613.268 541.963C613.045 545.554 610.071 548.757 606.512 549.12C601.196 549.663 595.831 544.52 593.395 541.828C593.51 541.945 593.819 542.081 593.88 542.097C587.372 540.921 579.676 540.35 574.998 534.997C573.182 532.911 572.584 529.782 573.614 527.266C573.778 532.532 578.293 534.964 582.914 536.082C585.197 536.684 587.578 537.102 590.009 537.383C591.091 537.533 594.072 537.725 595.098 538.006C595.566 538.13 596.024 538.393 596.355 538.757C596.871 539.281 597.41 539.813 597.954 540.305C600.336 542.348 603.044 544.672 606.035 544.622C607.333 544.526 608.803 543.029 608.861 541.642C608.991 538.723 606.567 536.174 604.097 534.564C603.155 534.063 602.81 532.874 603.351 531.953C604.398 530.156 606.845 531.49 608.083 532.047C610.19 533.095 612.278 534.481 614.333 535.316C615.641 535.854 616.934 536.138 617.891 535.907C619.906 535.418 621.494 532.756 620.903 530.791C619.61 527.07 615.004 524.581 611.432 523.359C609.283 522.775 609.734 519.644 611.928 519.657C616.003 519.839 620.066 521.27 623.95 520.512C624.774 520.339 625.498 520.052 626.028 519.636C626.574 519.22 626.935 518.706 627.224 517.965C628.63 514.437 624.975 512.496 622.045 511.256C616.523 509.133 610.294 508.321 604.409 508.233C603.086 508.276 602.127 506.832 602.653 505.63C604.312 502.391 608.445 501.077 609.564 497.625C609.971 496.328 609.848 494.513 608.574 493.819C605.748 492.36 603.213 495.071 600.853 496.324C592.152 501.063 583.442 504.288 577.449 512.38L577.448 512.377Z" fill="#512D16"/>
<path d="M605.736 507.67C603.866 509.296 602.471 512.496 600.686 514.536C598.794 516.971 595.87 518.785 592.772 518.865C594.217 518.473 595.542 517.798 596.601 516.854C600.269 513.618 600.162 508.941 603.076 504.991C604.911 502.839 607.905 505.846 605.736 507.67Z" fill="#512D16"/>
<path d="M611.015 514.804C614.322 523.496 606.874 535.624 597.411 535.976C599.434 534.794 601.16 533.484 602.671 531.968C607.185 527.291 610.226 521.34 611.015 514.804Z" fill="#512D16"/>
<path d="M519.643 431.396L495.354 449.613C479.741 456.126 464.956 469.15 450.573 485.286C449.875 527.889 445.131 546.773 416.159 570.757C415.035 571.683 413.882 572.617 412.691 573.558C409.586 576.018 405.632 577.202 401.685 576.807C380.957 574.743 360.88 562.863 361.768 546.007C365.314 523.54 376.69 506.144 379.036 488.429C380.037 480.885 378.565 473.227 374.974 466.516C366.655 450.994 357.365 435.966 350.383 440.504L360.166 383.093L361.767 373.711C381.327 357.772 401.911 346.562 423.246 338.797C422.486 295.533 429.478 255.646 455.124 227.982C467.04 235.057 479.876 237.666 493.834 234.813C484.316 255.3 480.984 289.03 479.01 325.667L519.64 431.397L519.643 431.396Z" fill="#F6BD60"/>
<path d="M432.375 268.485C427.718 289.449 429.67 311.247 431.701 332.626C432.062 336.433 432.051 341.06 428.816 343.103C426.669 344.459 423.915 344.082 421.382 343.891C416.591 343.53 411.735 344.026 407.115 345.347C411.335 343.514 415.555 341.681 419.777 339.85C420.7 339.45 421.671 339.009 422.234 338.175C422.591 337.648 422.746 337.014 422.886 336.393C427.644 315.376 423.319 292.382 432.156 272.729" fill="#B24528"/>
<path d="M416.159 570.759C415.035 571.685 413.882 572.619 412.691 573.561C409.586 576.02 405.632 577.205 401.685 576.809C380.957 574.745 360.88 562.865 361.768 546.009C365.314 523.542 376.69 506.146 379.036 488.431C380.037 480.887 378.565 473.229 374.974 466.519C366.655 450.996 357.365 435.968 350.383 440.507L360.166 383.095C362.504 380.773 365.122 378.754 368.076 377.13V377.152C373.829 387.406 377.062 399.065 377.404 410.822C377.631 418.679 376.599 426.519 376.698 434.367C376.796 442.223 378.148 450.359 382.617 456.818C387.134 463.339 394.511 467.696 398.108 474.776C403.573 485.539 398.504 498.602 392.112 508.856C385.729 519.103 377.737 529.303 377.151 541.365C376.506 554.761 386.691 567.854 399.83 570.527C404.309 571.437 408.93 571.255 413.499 571.02C414.371 570.974 415.275 570.905 416.156 570.762L416.159 570.759Z" fill="#B24528"/>
<path d="M447.937 483.264C451.352 473.608 457.025 464.624 464.941 458.123C472.857 451.622 483.095 447.747 493.323 448.332C494.247 448.386 495.331 448.579 495.733 449.414C486.835 451.396 478.85 456.396 471.978 462.386C465.104 468.376 459.202 475.375 453.075 482.128C452.063 483.244 450.484 484.443 449.224 483.619" fill="#B24528"/>
<path d="M495.673 450.382C482.993 456.918 472.241 466.51 462.43 476.758C459.15 480.188 455.967 483.721 452.806 487.28L453.566 485.336C453.21 499.471 452.734 513.789 449.264 527.622C445.645 542.909 436.782 555.766 425.406 566.322C422.312 569.162 418.574 572.359 415.288 574.983C413.791 576.26 412.083 577.408 410.247 578.161C406.562 579.806 402.41 579.839 398.504 579.14C394.905 578.627 391.354 577.816 387.876 576.738C377.523 573.436 366.77 567.492 361.576 557.303C359.801 553.739 358.927 549.61 359.22 545.603C361.615 530.216 368.194 516.349 373.176 501.936C376.293 492.79 378.488 483.106 375.411 473.718C373.997 469.069 371.337 464.824 369.008 460.576C365.314 454.399 361.687 447.659 356.111 443.225C354.595 442.205 353.184 441.471 351.632 442.409L351.624 442.414L351.383 442.535C349.799 443.392 347.776 441.874 348.139 440.123L359.524 373.33C359.62 372.766 359.92 372.283 360.331 371.947C378.863 356.812 399.971 344.807 422.471 336.659L420.972 338.839C420.811 328.928 421.04 318.993 421.87 309.084C424.271 279.411 432.706 248.71 453.458 226.436C454.2 225.634 455.388 225.489 456.29 226.026C467.37 232.781 480.669 235.326 493.382 232.584C495.146 232.2 496.721 234.137 495.902 235.775C489.744 249.59 487.125 264.883 485.121 279.874C483.184 295.076 482.134 310.427 481.285 325.793C479.98 320.804 522.06 431.879 521.768 430.581C522.746 433.431 518.686 434.988 517.517 432.215L476.886 326.486C476.769 326.182 476.723 325.852 476.739 325.546C477.591 310.124 478.644 294.685 480.604 279.29C482.68 263.814 485.339 248.291 491.772 233.854L494.292 237.045C480.612 240.039 465.848 237.22 453.965 229.94L456.797 229.531C436.768 251.056 428.748 280.734 426.408 309.462C425.594 319.186 425.366 328.971 425.526 338.757C425.544 339.752 424.913 340.612 424.028 340.937C401.988 348.922 381.365 360.651 363.208 375.477L364.014 374.094L352.629 440.887C352.648 440.876 349.069 438.593 349.162 438.585C355.126 434.784 361.226 441.003 364.581 445.278C367.853 449.421 370.526 453.814 373.093 458.239C375.643 462.817 378.416 467.238 379.978 472.297C385.083 487.727 377.891 503.545 372.621 517.838C369.096 526.864 365.621 537.816 364.345 546.145C364.002 552.474 367.354 558.26 372.101 562.375C379.476 568.822 389.533 572.39 399.271 573.781C402.233 574.272 405.321 574.42 408.104 573.134C409.507 572.539 410.702 571.7 411.856 570.697C414.304 568.679 417.435 566.118 419.685 563.998C431.132 553.855 440.208 541.242 443.663 526.195C446.887 513.049 447.306 499.107 447.577 485.24C447.584 484.494 447.872 483.807 448.338 483.294C454.854 476.054 461.913 469.27 469.586 463.238C473.437 460.223 477.486 457.442 481.712 454.964C485.948 452.508 490.397 450.416 495.034 448.847C495.468 448.691 495.945 448.916 496.1 449.349C496.247 449.757 496.054 450.201 495.676 450.383L495.673 450.382Z" fill="#512D16"/>
<path d="M503.651 288.266C499.824 288.12 497.49 287.435 497.49 287.435C505.213 276.974 520.524 272.399 530.431 270.474C530.495 270.501 530.558 270.523 530.619 270.543C518.422 276.183 509.543 282.895 503.65 288.264L503.651 288.266Z" fill="#B24528"/>
<path d="M533.607 271.761C533.607 271.761 547.288 262.157 539.711 246.143C532.433 230.762 514.228 230.918 503.83 237.995C492.904 245.431 489.552 254.59 491.037 265.189C492.587 276.261 499.635 285.222 499.635 285.222L533.608 271.761H533.607Z" fill="#F9D6B6"/>
<path d="M499.636 285.222C499.636 285.222 492.586 276.259 491.034 265.192C489.917 257.228 491.535 250.071 497.043 243.862C498.864 241.798 501.111 239.841 503.829 237.997C514.224 230.916 532.429 230.764 539.711 246.143C547.287 262.159 533.609 271.76 533.609 271.76L523.63 275.713L499.636 285.222Z" fill="#F9D6B6"/>
<path d="M499.636 285.22C499.636 285.22 492.586 276.258 491.034 265.191C489.917 257.226 491.535 250.07 497.043 243.86C497.288 246.111 498.179 248.614 500.882 248.961C503.427 249.29 506.706 245.764 514.433 243.989C522.661 242.098 537.082 254.35 523.628 275.713L499.634 285.222L499.636 285.22Z" fill="#E2B28A"/>
<path d="M498.954 287.738L497.99 286.514C497.689 286.129 490.575 276.977 488.965 265.478C487.254 253.254 491.732 243.7 502.651 236.268C509.437 231.649 518.486 230.096 526.265 232.211C533.143 234.082 538.443 238.592 541.596 245.249C549.832 262.652 534.955 273.364 534.804 273.469L534.601 273.61L534.372 273.7L498.951 287.735L498.954 287.738ZM519.201 235.475C514.214 235.475 509.056 236.965 505.004 239.722C495.396 246.261 491.614 254.262 493.103 264.899C494.228 272.943 498.499 279.925 500.379 282.68L532.585 269.919C534.148 268.73 544.156 260.418 537.822 247.038C535.209 241.517 530.833 237.785 525.171 236.244C523.269 235.726 521.249 235.477 519.203 235.477L519.201 235.475Z" fill="#512D16"/>
<path d="M498.954 287.738L497.99 286.514C497.689 286.129 490.575 276.977 488.965 265.478C487.254 253.254 491.732 243.7 502.651 236.268C509.437 231.649 518.486 230.096 526.265 232.211C533.143 234.082 538.443 238.592 541.596 245.249C549.832 262.652 534.955 273.364 534.804 273.469L534.601 273.61L534.372 273.7L498.951 287.735L498.954 287.738ZM519.201 235.475C514.214 235.475 509.056 236.965 505.004 239.722C495.396 246.261 491.614 254.262 493.103 264.899C494.228 272.943 498.499 279.925 500.379 282.68L532.585 269.919C534.148 268.73 544.156 260.418 537.822 247.038C535.209 241.517 530.833 237.785 525.171 236.244C523.269 235.726 521.249 235.477 519.203 235.477L519.201 235.475Z" fill="#512D16"/>
<path d="M507.592 246.322C495.799 254.094 499.37 278.415 514.527 276.507L519.155 275.17C538.166 263.83 531.654 240.218 514.433 243.993C514.433 243.993 512.898 244.367 511.053 244.969C509.402 245.509 507.594 246.322 507.594 246.322H507.592Z" fill="#F28475"/>
<path d="M519.155 275.17L514.527 276.507C499.375 278.415 495.8 254.093 507.596 246.32C507.596 246.32 509.402 245.512 511.053 244.968C512.897 244.368 514.433 243.992 514.433 243.992C515.059 243.857 515.671 243.753 516.268 243.693C517.073 243.596 517.854 243.568 518.608 243.604C532.58 244.167 536.544 264.803 519.154 275.171L519.155 275.17Z" fill="#FAC0C0"/>
<path d="M507.593 246.32C497.926 253.903 500.955 275.891 513.956 274.521L518.577 273.163L518.088 273.375C521.207 271.514 523.96 269.095 525.928 266.15C529.895 260.467 530.498 251.726 524.955 246.839C522.162 244.319 518.174 243.598 514.434 243.991C520.445 241.729 527.439 244.071 530.474 249.906C535.917 259.99 529.205 272.366 519.734 277.171L515.101 278.486C497.411 280.96 493.913 253.4 507.593 246.32Z" fill="#512D16"/>
<path d="M508.836 277.404C508.739 274.018 510.178 267.549 514.771 266.204C521.024 264.372 523.45 272.773 523.45 272.773" fill="#F9D6B6"/>
<path d="M507.269 277.449C507.152 273.354 508.964 266.272 514.33 264.699C516.279 264.128 518.12 264.305 519.798 265.227C523.443 267.229 524.895 272.13 524.954 272.337L521.944 273.207C521.863 272.929 519.873 266.333 515.21 267.706C511.769 268.714 510.306 274.06 510.4 277.358L507.268 277.447L507.269 277.449Z" fill="#512D16"/>
<path d="M539.703 269.146C539.703 269.146 509.471 271.207 497.49 287.435C497.49 287.435 508.978 290.806 522.766 284.177C536.556 277.549 539.703 269.146 539.703 269.146Z" fill="#F6BD60"/>
<path d="M503.651 288.266C499.824 288.12 497.49 287.435 497.49 287.435C505.213 276.974 520.524 272.399 530.431 270.474C530.495 270.501 530.558 270.523 530.619 270.543C518.422 276.183 509.543 282.895 503.65 288.264L503.651 288.266Z" fill="#B24528"/>
<path d="M539.703 269.147C527.112 273.063 513.176 276.44 502.157 283.852C500.555 284.927 499.049 286.145 497.49 287.438C504.248 273.397 525.203 267.509 539.703 269.149V269.147Z" fill="#512D16"/>
<path d="M550.524 452.265C526.014 447.893 500.71 428.016 476.931 376.527L464.226 324.489C461.147 270.375 494.072 263.704 505.099 267.712C529.385 249.977 556.447 236.931 583.325 240.462C585.979 240.81 588.598 241.315 591.164 241.948C614.312 249.366 633.058 260.446 649.828 283.007C684.151 329.178 674.545 394.432 628.373 428.755C609.58 442.725 583.049 452.035 550.524 452.265Z" fill="#F6BD60"/>
<g opacity="0.4">
<path d="M628.376 428.751C674.548 394.428 684.154 329.174 649.831 283.002C633.059 260.441 614.315 249.362 591.167 241.944C589.625 241.564 588.061 241.236 586.484 240.955C609.59 248.372 628.309 259.453 645.057 281.984C679.38 328.156 669.774 393.409 623.602 427.732C604.831 441.687 578.338 450.99 545.863 451.241C547.42 451.646 548.975 451.985 550.526 452.263H550.527C583.052 452.032 609.583 442.723 628.376 428.752V428.751Z" fill="white"/>
</g>
<path d="M486.109 269.845C474.178 275.719 462.326 291.038 464.225 324.488L476.933 376.528C512.35 453.214 551.149 459.782 585.675 449.426L561.752 435.124C561.752 435.124 522.71 442.37 491.4 368.283C468.114 313.183 477.963 283.072 486.109 269.844V269.845Z" fill="#B24528"/>
<path d="M550.543 454.354L550.513 450.176C580.596 449.963 607.09 441.976 627.13 427.079C649.013 410.811 663.252 386.996 667.222 360.02C671.194 333.045 664.423 306.135 648.155 284.252C633.21 264.147 615.977 252.09 590.53 243.936L591.804 239.958C618.146 248.399 636.002 260.9 651.507 281.76C668.44 304.538 675.488 332.547 671.356 360.628C667.222 388.708 652.401 413.497 629.622 430.431C608.865 445.861 581.52 454.133 550.543 454.354Z" fill="#512D16"/>
<path d="M550.158 454.323C521.12 449.143 496.548 423.983 475.035 377.405C474.979 377.282 474.935 377.155 474.902 377.023L462.196 324.985C462.166 324.861 462.148 324.736 462.14 324.609C460.327 292.738 470.818 277.961 479.939 271.179C488.611 264.729 498.577 263.676 504.727 265.402C534.132 244.122 559.941 235.285 583.599 238.394C586.245 238.74 588.959 239.255 591.666 239.922L590.666 243.977C588.108 243.348 585.547 242.861 583.055 242.533C560.282 239.549 535.185 248.331 506.332 269.399C505.769 269.81 505.039 269.914 504.387 269.675C500.22 268.162 490.934 268.205 482.433 274.529C474.153 280.687 464.644 294.302 466.3 324.18L478.913 375.834C499.79 420.965 523.335 445.293 550.893 450.208L550.158 454.32V454.323Z" fill="#512D16"/>
<path d="M595.648 279.579C589.396 260.115 571.588 252.176 554.969 254.649C530.358 258.312 508.934 276.558 508.934 276.558C508.934 276.558 499.656 270.035 484.715 278.041C473.477 284.062 450.887 311.35 473.699 369.198C496.948 427.665 530.077 439.647 551.705 431.14C566.993 425.126 569.024 411.562 569.024 411.562C569.024 411.562 597.431 412.599 617.057 391.026C629.467 377.383 627.896 354.664 622.794 342.751C616.236 327.436 600.434 316.452 579.871 316.83C592.065 306.876 600.196 293.734 595.648 279.579Z" fill="#FCE5D8"/>
<path d="M482.274 285.285C477.977 289.287 473.366 295.981 470.697 305.393C465.934 322.18 468.396 343.683 477.817 367.573C482.007 378.11 486.709 387.536 491.789 395.577C491.789 395.578 491.792 395.582 491.792 395.583C501.056 410.246 511.878 420.649 523.086 425.669C530.42 428.954 536.84 429.558 542.047 428.991C542.047 428.991 510.973 425.101 482.309 361.717C461.432 315.551 482.273 285.283 482.273 285.283L482.274 285.285Z" fill="#E2B28A"/>
<path d="M538.555 435.688C517.49 435.688 491.231 418.937 471.759 369.969C461.665 344.371 459.2 322.047 464.43 303.614C468.642 288.769 477.162 279.719 483.73 276.199C496.391 269.415 505.373 272.396 508.714 274.039C513.529 270.191 532.678 255.857 554.663 252.585C571.051 250.141 590.7 257.351 597.638 278.94C601.508 290.987 597.106 303.609 585.229 314.899C603.184 316.292 618.033 326.324 624.715 341.929C630.009 354.291 631.613 378.131 618.603 392.432C601.137 411.633 577.326 413.517 570.689 413.653C569.55 417.781 565.496 427.961 552.47 433.085C548.229 434.753 543.536 435.69 538.557 435.69L538.555 435.688ZM499.144 276.122C495.611 276.122 491.078 277.001 485.703 279.881C480.155 282.853 472.308 291.15 468.449 304.753C463.545 322.038 466.032 344.057 475.643 368.431C498.582 426.117 530.54 437.22 550.942 429.196C564.853 423.725 566.882 411.753 566.96 411.246C567.123 410.201 568.024 409.425 569.101 409.474C569.372 409.48 596.801 410.188 615.513 389.62C627.275 376.69 625.729 354.909 620.875 343.574C614.216 328.025 598.543 318.56 579.91 318.918C578.997 318.909 578.219 318.386 577.911 317.55C577.605 316.713 577.862 315.776 578.551 315.213C586.348 308.847 598.678 295.838 593.66 280.218C587.472 260.957 569.926 254.537 555.276 256.717C531.532 260.251 510.497 277.971 510.288 278.15C509.56 278.768 508.51 278.815 507.733 278.269C507.534 278.134 504.485 276.123 499.144 276.123V276.122Z" fill="#512D16"/>
<path d="M528.545 339.766C528.258 339.416 528.429 338.888 528.865 338.769C530.177 338.41 532.548 338.055 533.608 339.731C535.011 341.952 533.054 343.102 532.344 343.154C531.519 343.215 530.808 342.805 530.045 341.724C529.578 341.06 528.987 340.307 528.545 339.766Z" fill="#512D16"/>
<path d="M525.73 333.238C525.789 333.688 526.288 333.924 526.675 333.688C527.837 332.979 529.723 331.499 529.23 329.58C528.577 327.036 526.397 327.67 525.873 328.15C525.261 328.709 525.071 329.508 525.335 330.804C525.497 331.6 525.641 332.546 525.73 333.24V333.238Z" fill="#512D16"/>
<path d="M558.14 415.76C561.163 414.437 561.645 408.867 559.217 403.318C556.79 397.769 552.371 394.343 549.348 395.666C546.325 396.988 545.843 402.559 548.27 408.107C550.698 413.656 555.117 417.082 558.14 415.76Z" fill="#FAC0C0"/>
<path d="M505.886 293.561C508.909 292.239 509.78 287.558 507.833 283.106C505.885 278.655 501.856 276.118 498.833 277.441C495.81 278.764 494.938 283.444 496.886 287.896C498.833 292.347 502.863 294.884 505.886 293.561Z" fill="#FAC0C0"/>
<path d="M566.705 381.732C576.599 377.394 581.576 366.932 577.82 358.364C574.064 349.795 562.998 346.365 553.103 350.703C543.208 355.04 538.232 365.502 541.988 374.071C545.744 382.639 556.81 386.069 566.705 381.732Z" fill="#512D16"/>
<path d="M565.71 373.47C569.247 371.92 571.121 368.399 569.896 365.606C568.672 362.812 564.812 361.804 561.276 363.355C557.739 364.905 555.865 368.426 557.09 371.219C558.314 374.013 562.174 375.021 565.71 373.47Z" fill="white"/>
<g opacity="0.2">
<path d="M552.755 366.944C555.149 365.894 556.539 363.79 555.861 362.243C555.183 360.696 552.693 360.292 550.299 361.341C547.906 362.39 546.516 364.495 547.194 366.042C547.872 367.589 550.362 367.993 552.755 366.944Z" fill="white"/>
</g>
<path d="M537.481 316.884C546.788 312.804 551.468 302.964 547.936 294.906C544.403 286.847 533.995 283.621 524.689 287.701C515.382 291.78 510.701 301.62 514.234 309.679C517.766 317.738 528.174 320.963 537.481 316.884Z" fill="#512D16"/>
<path d="M536.843 309.52C540.169 308.062 541.932 304.75 540.78 302.123C539.628 299.495 535.998 298.547 532.672 300.005C529.346 301.463 527.584 304.775 528.735 307.402C529.887 310.03 533.517 310.978 536.843 309.52Z" fill="white"/>
<g opacity="0.2">
<path d="M524.101 302.457C526.353 301.47 527.661 299.491 527.023 298.036C526.386 296.581 524.044 296.201 521.792 297.187C519.541 298.174 518.233 300.153 518.87 301.608C519.508 303.063 521.85 303.443 524.101 302.457Z" fill="white"/>
</g>
<path d="M511.302 380.009C516.887 383.455 526.801 384.655 530.203 377.477C533.748 368.325 522.753 366.088 517.541 354.869C513.731 346.666 515.187 342.558 510.42 340.604C506.931 339.174 499.153 341.502 497.312 350.053C495.228 359.734 501.939 373.912 511.302 380.007V380.009Z" fill="#512D16"/>
<path d="M511.302 380.011C501.941 373.911 495.23 359.735 497.311 350.054C499.157 341.502 506.933 339.175 510.422 340.603C512.754 341.557 513.597 343.026 514.293 345.239C515.028 347.551 515.596 350.674 517.547 354.869C520.577 361.395 525.566 364.884 528.507 368.459C530.627 371.028 531.691 373.65 530.207 377.477C526.806 384.655 516.894 383.453 511.304 380.009L511.302 380.011Z" fill="#512D16"/>
<path d="M512.17 357.146C509.149 350.229 511.303 347.051 514.291 345.237C515.026 347.548 515.594 350.671 517.545 354.866C520.575 361.393 525.564 364.882 528.505 368.457C522.093 373.461 515.679 365.166 512.17 357.145V357.146Z" fill="white"/>
<path d="M497.592 359.419C499.393 367.358 504.684 375.699 511.305 380.007C511.368 380.046 511.43 380.084 511.498 380.128C513.949 376.418 513.497 371.757 509.55 369.325C508.75 362.955 502.899 358.841 497.593 359.417L497.592 359.419Z" fill="#FAC0C0"/>
<path d="M512.089 366.567C512.089 366.567 512.068 371.539 511.147 370.614C510.056 369.519 507.4 368.074 505.755 368.455C505.755 368.455 508.606 366.249 512.089 366.567Z" fill="#512D16"/>
<path d="M520.901 384.306C517.056 384.306 513.161 382.996 510.479 381.34L510.448 381.32C500.417 374.79 493.563 360.024 495.782 349.722C496.719 345.374 499.211 341.937 502.804 340.044C505.605 338.568 508.751 338.225 511.016 339.153C514.693 340.659 515.432 343.367 516.369 346.796C516.907 348.768 517.579 351.223 518.966 354.208C520.975 358.531 523.929 361.48 526.535 364.082C530.444 367.983 534.136 371.67 531.667 378.041L531.622 378.146C530.31 380.915 528.02 382.85 525.004 383.743C523.684 384.133 522.296 384.305 520.903 384.305L520.901 384.306ZM512.141 378.685C515.104 380.507 520.107 381.922 524.112 380.741C526.264 380.103 527.828 378.798 528.764 376.858C530.385 372.616 528.458 370.433 524.319 366.301C521.666 363.652 518.365 360.358 516.123 355.529C514.624 352.306 513.916 349.708 513.346 347.623C512.403 344.17 511.969 342.93 509.828 342.055C508.678 341.582 506.509 341.636 504.263 342.819C502.667 343.66 499.841 345.761 498.846 350.383C496.904 359.396 503.241 372.88 512.141 378.685Z" fill="#512D16"/>
<path d="M561.751 435.126C559.198 438.11 558.09 440.343 558.09 440.343C571.341 441.805 585.437 433.458 593.78 427.338C593.805 427.27 593.832 427.209 593.86 427.148C581.126 432.408 569.894 434.425 561.753 435.126H561.751Z" fill="#B24528"/>
<path d="M595.017 424.055C595.017 424.055 611.77 420.435 618.554 437.282C625.072 453.463 612.289 467.065 599.727 469.971C586.527 473.025 577.298 469.177 570.347 460.686C563.087 451.816 561.243 440.273 561.243 440.273L595.015 424.055H595.017Z" fill="#F9D6B6"/>
<path d="M561.247 440.271C561.247 440.271 563.091 451.816 570.346 460.684C575.567 467.066 582.081 470.827 590.59 470.999C593.412 471.064 596.447 470.732 599.727 469.97C612.291 467.068 625.072 453.467 618.556 437.283C611.767 420.435 595.02 424.055 595.02 424.055L585.101 428.822L561.247 440.273V440.271Z" fill="#F9D6B6"/>
<path d="M561.247 440.27C561.247 440.27 563.091 451.814 570.346 460.682C575.567 467.065 582.081 470.825 590.59 470.997C589.065 469.248 587.801 466.834 589.421 464.558C590.945 462.412 595.879 462.396 602.593 457.813C609.741 452.934 610.548 433.548 585.101 428.818L561.247 440.27Z" fill="#E2B28A"/>
<path d="M591.192 473.105C582.209 473.105 574.809 469.434 568.733 462.008C561.203 452.807 559.263 441.095 559.185 440.602L558.938 439.064L594.338 422.067L594.578 422.015C594.764 421.976 613.136 418.235 620.495 436.502C623.31 443.493 623.018 450.607 619.649 457.073C615.837 464.391 608.384 470.112 600.2 472.005C597.034 472.738 594.032 473.105 591.192 473.105ZM563.618 441.45C564.376 444.76 566.663 452.883 571.966 459.361C578.954 467.901 587.628 470.624 599.258 467.934C606.179 466.333 612.729 461.312 615.943 455.141C618.731 449.791 618.964 443.884 616.62 438.06C610.896 423.848 597.646 425.695 595.686 426.051L563.62 441.448L563.618 441.45Z" fill="#512D16"/>
<path d="M591.192 473.105C582.209 473.105 574.809 469.434 568.733 462.008C561.203 452.807 559.263 441.095 559.185 440.602L558.938 439.064L594.338 422.067L594.578 422.015C594.764 421.976 613.136 418.235 620.495 436.502C623.31 443.493 623.018 450.607 619.649 457.073C615.837 464.391 608.384 470.112 600.2 472.005C597.034 472.738 594.032 473.105 591.192 473.105ZM563.618 441.45C564.376 444.76 566.663 452.883 571.966 459.361C578.954 467.901 587.628 470.624 599.258 467.934C606.179 466.333 612.729 461.312 615.943 455.141C618.731 449.791 618.964 443.884 616.62 438.06C610.896 423.848 597.646 425.695 595.686 426.051L563.62 441.448L563.618 441.45Z" fill="#512D16"/>
<path d="M596.079 461.341C582.022 464.816 566.192 445.204 578.174 435.119L582.4 432.564C604.166 426.138 617.416 447.472 602.592 457.812C602.592 457.812 601.242 458.708 599.505 459.678C597.95 460.546 596.079 461.341 596.079 461.341Z" fill="#F28475"/>
<path d="M582.398 432.566L578.172 435.121C566.195 445.202 582.02 464.816 596.081 461.341C596.081 461.341 597.947 460.544 599.506 459.679C601.24 458.708 602.593 457.814 602.593 457.814C603.129 457.437 603.635 457.048 604.095 456.64C604.729 456.101 605.294 455.533 605.791 454.94C615.088 444.027 602.307 426.684 582.4 432.566H582.398Z" fill="#FAC0C0"/>
<path d="M596.078 461.343C581.267 466.669 562.982 444.93 577.105 433.353L581.32 430.78C591.504 427.01 605.457 430.547 609.266 441.63C611.547 447.961 608.46 454.849 602.591 457.812C605.496 455.276 607.739 451.771 607.792 447.909C607.982 440.315 600.968 434.661 593.909 433.688C590.314 433.118 586.568 433.507 582.99 434.563L583.478 434.348L579.241 436.884C569.112 445.768 583.619 463.38 596.078 461.341V461.343Z" fill="#512D16"/>
<path d="M573.533 438.779C576.016 441.21 581.887 444.627 586.097 442.103C591.827 438.67 587.188 430.997 587.188 430.997" fill="#F9D6B6"/>
<path d="M582.759 444.545C578.776 444.545 574.638 442.053 572.436 439.9L574.628 437.66C577.053 440.035 582.119 442.662 585.291 440.76C589.595 438.181 586 432.066 585.845 431.807L588.528 430.189C588.643 430.377 591.315 434.865 590.29 438.988C589.82 440.882 588.68 442.383 586.902 443.448C585.606 444.225 584.192 444.547 582.759 444.547V444.545Z" fill="#512D16"/>
<path d="M601.228 421.282C601.228 421.282 578.642 442.614 558.087 440.345C558.087 440.345 563.542 429.35 578.126 423.578C592.711 417.806 601.228 421.283 601.228 421.283V421.282Z" fill="#F6BD60"/>
<path d="M561.751 435.126C559.198 438.11 558.09 440.343 558.09 440.343C571.341 441.805 585.437 433.458 593.78 427.338C593.805 427.27 593.832 427.209 593.86 427.148C581.126 432.408 569.894 434.425 561.753 435.126H561.751Z" fill="#B24528"/>
<path d="M601.228 421.282C592.355 433.264 573.336 444.959 558.087 440.345C560.143 440.083 562.111 439.803 564.036 439.35C577.289 436.261 589.562 428.082 601.228 421.282Z" fill="#512D16"/>
<path d="M629.593 270.286C633.03 264.635 627.819 254.445 632.859 255.117C642.97 256.468 646.882 277.526 648.025 276.686C657.108 270.015 666.337 270.487 667.336 275.495C667.612 276.879 661.816 292.794 668.111 323.371C669.82 331.932 671.356 344.388 669.589 358.116" fill="#F6BD60"/>
<g opacity="0.4">
<path d="M643.279 277.061C644.5 276.165 645.723 275.401 646.928 274.756C644.998 269.651 640.88 256.184 632.857 255.113C631.633 254.949 631.018 255.43 630.732 256.327C638.915 260.513 642.242 277.824 643.279 277.061Z" fill="white"/>
<path d="M662.587 275.872C662.863 277.256 657.068 293.171 663.363 323.748C664.679 330.347 665.888 339.264 665.567 349.289L669.587 358.115C671.354 344.386 669.817 331.931 668.108 323.37C661.814 292.793 667.609 276.876 667.333 275.494C666.693 272.284 662.669 270.943 657.471 272.146C660.238 272.43 662.162 273.738 662.587 275.872Z" fill="white"/>
</g>
<path d="M629.592 270.284C630.987 265.306 627.985 260.979 628.657 255.938C630.147 250.251 637.534 253.608 639.975 256.674C644.436 261.553 646.663 267.967 648.87 273.989C649.044 274.443 649.228 274.937 649.425 275.314C649.436 275.337 649.455 275.35 649.372 275.246C649.344 275.18 648.929 274.832 648.681 274.76C648.361 274.625 647.919 274.581 647.563 274.659C647.343 274.701 647.137 274.789 646.996 274.868C646.784 274.995 646.761 275.026 646.806 274.99C646.933 274.901 647.153 274.744 647.282 274.651C651.976 271.415 657.724 268.81 663.675 269.882C666.007 270.332 668.425 271.892 669.19 274.35C669.289 274.684 669.392 275.028 669.42 275.376C669.458 276.164 669.34 276.445 669.237 277.12C666.151 291.376 666.974 306.14 669.679 320.509C672.311 332.915 673.298 345.763 671.663 358.382L667.52 357.849C669.099 345.703 668.121 333.247 665.574 321.286C662.962 307.355 661.991 292.76 664.682 278.634C664.774 278.134 665.194 276.109 665.251 275.64C665.255 275.64 665.252 275.492 665.262 275.764C665.139 275.169 664.351 274.253 662.802 273.967C658.769 273.265 654.577 275.004 651.059 277.153C650.532 277.478 649.981 277.861 649.474 278.22C649.224 278.407 648.834 278.678 648.393 278.754C646.318 279.151 645.502 276.946 644.964 275.463L643.346 271.083C641.112 265.762 638.591 258.6 632.401 257.313C632.312 257.313 632.538 257.28 632.693 257.095C632.845 256.914 632.781 256.86 632.72 257.02C632.571 257.323 632.481 258.035 632.437 258.735C632.206 262.567 632.508 267.313 629.595 270.285L629.592 270.284Z" fill="#512D16"/>
<path d="M451.451 453.342C473.945 440.355 483.316 414.475 472.382 395.536C461.448 376.597 434.349 371.773 411.855 384.76C389.361 397.747 379.989 423.628 390.924 442.566C401.858 461.505 428.957 466.329 451.451 453.342Z" fill="#FCE5D8"/>
<path d="M375.429 391.17L360.249 427.603C351.635 434.442 347.93 442.821 349 452.681C349.326 455.717 348.371 458.753 346.45 461.136C331.984 479.14 301.76 479.338 288.811 455.52C287.687 453.478 286.7 451.254 285.865 448.856C267.52 386.861 329.843 344.379 361.213 368.416C367.482 373.22 372.521 380.682 375.429 391.172V391.17Z" fill="#F6BD60"/>
<path d="M375.431 391.17L360.251 427.603C351.637 434.442 347.931 442.82 349.002 452.681C349.328 455.717 348.372 458.752 346.451 461.136C331.985 479.14 301.761 479.338 288.812 455.52C287.817 452.772 287.028 449.948 286.452 447.095C290.179 456.34 299.682 462.891 309.639 463.33C319.597 463.778 329.532 458.222 334.595 449.638C340.34 439.892 339.855 427.612 344.614 417.358C347.391 411.385 351.817 406.368 355.733 401.07C359.65 395.771 363.193 389.844 363.725 383.278C364.257 376.712 360.963 369.449 354.745 367.263L358.115 368.379C359.155 368.303 360.186 368.317 361.211 368.416C367.481 373.22 372.52 380.682 375.428 391.172L375.431 391.17Z" fill="#B24528"/>
<path d="M374.527 391.42C370.943 383.807 366.957 376.207 360.361 370.867C339.008 354.428 309.051 370.59 296.151 390.529C286.584 404.601 283.373 422.432 286.36 439.097C287.196 443.888 288.323 448.714 290.526 453.064C300.964 474.786 329.685 477.91 344.822 459.381C346.064 457.749 346.778 455.701 346.74 453.656C346.712 452.559 346.542 451.473 346.547 450.374C346.478 447.214 346.853 443.986 347.869 440.938C349.832 434.996 353.741 429.221 359.802 427.038C360.199 426.897 360.635 427.104 360.778 427.501C360.861 427.733 360.825 427.978 360.701 428.171C358.339 432.005 355.714 434.83 353.678 438.596C351.819 442.187 350.987 446.179 351.15 450.239C351.18 451.779 351.495 453.334 351.351 454.88C351.145 458.369 349.43 461.568 347.07 464.062C335.62 477.318 314.561 480.641 299.751 471.109C292.998 466.934 287.943 460.487 284.781 453.334C282.865 449.136 281.881 444.533 281.033 440.024C276.372 415.938 285.032 389.826 303.753 373.815C317.506 361.887 337.77 354.585 355.373 362.147C366.947 367.089 375.032 378.531 376.333 390.921C376.449 391.998 374.957 392.373 374.529 391.422L374.527 391.42Z" fill="#512D16"/>
<g opacity="0.25">
<path d="M324.289 371.944C323.013 372.611 320.865 373.771 318.271 375.372C311.074 379.815 300.478 387.385 296.63 397.878C295.774 400.211 295.382 403.187 297.571 404.739C298.555 405.437 299.823 405.601 301.002 405.342C303.361 404.824 304.999 403.055 306.516 401.315C313.262 393.583 319.591 384.917 328.837 380.469C330.44 379.699 332.244 378.95 332.619 376.952C332.841 375.772 332.437 374.553 331.661 373.638C330.493 372.263 328.818 371.663 327.081 371.438C326.129 371.61 325.24 371.772 324.288 371.946L324.289 371.944Z" fill="white"/>
</g>
<path d="M456.123 228.563C451.329 224.946 448.788 217.294 450.569 211.285L454.364 199.899C474.872 203.129 494.809 202.856 513.566 195.345C512.806 221.151 502.172 235.484 486.799 235.796C474.594 236.19 464.359 233.791 456.12 228.563H456.123Z" fill="#FCE5D8"/>
<path d="M453.338 224.147C451.308 221.311 451.744 217.22 454.335 214.792C456.532 212.735 459.842 211.982 462.995 211.9C466.262 211.817 469.882 212.545 471.778 214.963C471.527 213.137 471.373 211.299 471.322 209.46C468.026 209.486 464.738 208.325 462.324 206.285C458.866 209.306 453.057 209.786 449.056 207.379C449.181 209.807 449.432 212.23 449.809 214.635C450.209 217.2 450.856 219.926 452.926 221.705C453.048 221.81 453.199 221.919 453.367 221.9C453.535 221.88 453.643 221.646 453.495 221.57" fill="#E2B28A"/>
<path d="M484.268 238.115C472.765 238.115 462.89 235.554 454.904 230.487C454.852 230.454 454.802 230.419 454.753 230.381C449.156 226.157 446.359 217.485 448.388 210.638L452.206 199.178C452.558 198.122 453.616 197.48 454.72 197.648C477.715 201.272 496.145 199.866 512.722 193.23C513.433 192.946 514.243 193.037 514.872 193.478C515.501 193.918 515.867 194.644 515.845 195.412C515.465 208.296 512.596 219.016 507.546 226.414C502.457 233.869 495.301 237.9 486.848 238.071C485.98 238.1 485.119 238.114 484.268 238.114V238.115ZM457.424 226.694C465.202 231.601 475.059 233.891 486.729 233.522C500.702 233.238 509.681 220.302 511.129 198.703C495.093 204.414 477.402 205.603 455.919 202.439L452.731 212.004C451.262 216.967 453.355 223.566 457.424 226.692V226.694Z" fill="#512D16"/>
<path d="M509.017 180.924C501.057 172.497 483.057 169.311 468.252 170.932C454.167 172.473 444.081 185.696 447.05 199.551C447.764 202.884 449.1 205.45 451.232 207.032C455.184 209.78 459.682 209.009 462.718 205.213C467.655 209.025 475.621 208.249 480.176 205.213C485.946 209.263 496.116 207.49 498.341 197.6C497.548 193.407 497.437 189.342 498.391 185.478C501.624 184.022 505.097 182.313 509.017 180.924Z" fill="#FCE5D8"/>
<path d="M447.572 193.622C447.735 195.648 448.735 197.506 449.841 199.211C450.464 200.171 451.158 201.132 452.136 201.73C453.835 202.767 456.153 202.451 457.735 201.241C459.315 200.03 460.205 198.071 460.441 196.094C460.517 197.662 461.018 199.175 461.319 200.716C461.621 202.257 461.705 203.927 460.999 205.328C459.841 207.622 456.764 208.476 454.325 207.668C451.886 206.86 450.069 204.752 448.926 202.45C447.815 200.21 447.231 197.712 447.233 195.212C447.449 195.121 447.666 195.03 447.883 194.939" fill="#E2B28A"/>
<path d="M461.657 196.311C462.926 198.996 465.412 201.077 468.279 201.853C471.147 202.628 474.343 202.083 476.792 200.403C477.36 200.012 477.895 199.558 478.284 198.989C478.835 198.182 479.056 197.203 479.265 196.249C479.836 198.607 480.144 201.03 480.181 203.457C480.186 203.818 480.184 204.189 480.045 204.524C479.957 204.734 479.819 204.918 479.674 205.093C477.931 207.188 475.034 208.05 472.311 207.924C469.588 207.799 466.985 206.813 464.472 205.756C464.154 205.621 463.824 205.478 463.592 205.22C463.312 204.908 463.22 204.478 463.135 204.069C462.688 201.875 462.241 199.679 461.793 197.485" fill="#E2B28A"/>
<path d="M479.427 195.869C481.232 199.858 486.317 201.817 490.508 200.553C493.338 199.701 495.905 197.203 495.821 194.249C496.659 196.482 497.313 199.004 496.392 201.203C495.56 203.187 493.619 204.467 491.676 205.392C489.201 206.569 486.405 207.377 483.729 206.784C483.012 206.625 482.298 206.355 481.756 205.858C481.088 205.244 480.753 204.353 480.501 203.482C479.962 201.622 479.692 199.685 479.702 197.75" fill="#E2B28A"/>
<path d="M456.129 210.946C454.038 210.946 451.907 210.274 449.93 208.899C447.381 207.011 445.68 204.041 444.82 200.026C443.287 192.87 444.831 185.621 449.167 179.615C453.596 173.482 460.46 169.492 468.001 168.666C482.221 167.106 501.635 169.791 510.67 179.36C511.199 179.92 511.409 180.709 511.229 181.456C511.048 182.205 510.5 182.812 509.775 183.068C506.789 184.126 504.072 185.375 501.444 186.583C501.083 186.75 500.723 186.914 500.369 187.078C499.794 190.088 499.865 193.404 500.576 197.175C500.634 197.481 500.629 197.795 500.56 198.098C499.425 203.138 496.364 206.855 491.937 208.565C488.067 210.059 483.683 209.775 480.154 207.87C475.347 210.437 468.365 211.078 463.067 208.154C461.031 209.996 458.608 210.944 456.127 210.944L456.129 210.946ZM475.81 172.808C473.297 172.808 470.837 172.938 468.498 173.194C462.235 173.879 456.537 177.191 452.861 182.282C449.29 187.228 448.017 193.192 449.275 199.072C449.895 201.969 451.011 204.031 452.587 205.199C455.473 207.206 458.615 206.691 460.939 203.788C461.716 202.818 463.125 202.65 464.109 203.408C468.175 206.548 475.043 205.894 478.911 203.316C479.693 202.796 480.713 202.807 481.482 203.347C483.927 205.061 487.387 205.442 490.297 204.317C493.136 203.22 495.154 200.819 496.012 197.531C495.185 192.861 495.24 188.733 496.179 184.931C496.346 184.251 496.816 183.688 497.454 183.401C498.139 183.093 498.834 182.773 499.542 182.446C501.202 181.682 502.897 180.904 504.691 180.155C497.779 175.111 486.35 172.806 475.81 172.806V172.808Z" fill="#512D16"/>
<path d="M482.525 208.806C475.3 207.337 477.462 192.083 480.176 187.421C480.64 186.525 482.034 187.126 481.695 188.078C481.161 189.594 480.865 191.2 480.725 192.814C480.48 195.92 480.716 199.294 481.734 202.187C482.07 203.043 482.423 203.925 483.057 204.352C483.161 204.399 483.128 204.318 483.008 204.279C484.259 204.412 485.165 205.534 485.031 206.785C484.898 208.036 483.776 208.941 482.525 208.808V208.806Z" fill="#512D16"/>
<path d="M462.993 208.053C458.136 203.21 459.971 192.636 461.94 186.774C462.267 185.851 463.688 186.241 463.492 187.203C463.174 188.799 463.006 190.44 462.93 192.075C462.866 195.955 462.886 201.962 465.922 204.566C468.679 206.553 465.44 210.427 462.993 208.055V208.053Z" fill="#512D16"/>
<path d="M474.288 209.041C471.085 213.985 475.481 216.681 480.11 217.204C485.645 217.831 491.116 216.475 496.471 214.93C497.585 214.587 498.278 216.155 497.269 216.747C490.65 220.538 482.419 223.1 474.818 220.488C468.618 218.321 466.633 211.807 470.499 206.515C472.249 204.143 475.804 206.532 474.288 209.043V209.041Z" fill="#512D16"/>
</svg>
