<svg width="598" height="598" viewBox="0 0 598 598" fill="none" xmlns="http://www.w3.org/2000/svg">
<circle cx="299" cy="299" r="299" fill="#FFD244" fill-opacity="0.2"/>
<circle cx="299" cy="299" r="265" fill="#FFD244" fill-opacity="0.2"/>
<circle cx="299" cy="299" r="230" fill="#FFD244" fill-opacity="0.2"/>
<circle cx="299.001" cy="299.003" r="200" transform="rotate(-87.5842 299.001 299.003)" fill="#FFD244"/>
<path d="M307.431 99.1803C197.072 94.5244 103.834 180.214 99.1783 290.572C94.5224 400.931 180.212 494.169 290.57 498.825" stroke="#512D16" stroke-width="6"/>
<path d="M279.347 489.701L278.293 489.657C277.536 489.625 278.302 491.309 277.545 491.269C276.773 491.229 276.009 491.187 275.246 491.13C273.919 491.04 272.594 490.942 271.269 490.811C271.068 490.795 270.861 490.778 270.651 490.759C270.46 490.733 270.266 490.717 270.065 490.702C269.222 490.624 268.38 490.538 267.538 490.444C267.457 490.433 267.369 490.419 267.281 490.416C266.567 490.335 265.853 490.247 265.14 490.158C264.682 490.096 264.233 490.037 263.777 489.975C263.647 489.962 263.527 489.949 263.4 489.927C263.143 489.892 262.888 489.855 262.631 489.82C262.43 489.793 262.23 489.769 262.021 489.742C261.757 489.707 261.492 489.661 261.228 489.626C259.931 489.438 258.626 489.223 257.329 489.001C253.825 488.41 250.331 487.712 246.843 486.897C227.498 482.393 208.54 474.589 190.699 463.285C162.849 445.626 141.095 421.575 126.105 394.059C123.681 389.635 121.439 385.11 119.384 380.516C108.283 355.763 102.345 328.77 102.025 301.421C102.027 301.177 102.013 300.944 102.016 300.701C101.997 299.028 102.004 297.348 102.034 295.67C102.085 292.336 102.226 289.007 102.448 285.671C103.95 263.055 109.328 240.459 118.827 218.959C121.947 211.859 125.53 204.863 129.567 198.036C130.443 196.568 131.319 195.117 132.225 193.677C132.761 192.812 133.323 191.95 133.881 191.105C136.209 187.508 138.637 184.017 141.157 180.637C143.045 178.101 144.988 175.624 146.982 173.209C148.308 171.593 149.656 170.012 151.028 168.455C154.101 164.965 157.288 161.606 160.577 158.383C160.947 158.014 161.324 157.653 161.695 157.293C174.943 144.518 189.749 133.983 205.567 125.839C208.204 124.479 210.862 123.187 213.54 121.971C232.374 113.386 252.464 108.073 272.931 106.252C273.772 106.179 274.613 106.114 275.462 106.05C276.287 105.984 277.119 105.928 277.951 105.879L277.967 105.88C278.145 105.871 278.332 105.854 278.509 105.844C278.598 105.84 278.686 105.835 278.784 105.831C278.881 105.827 278.986 105.824 279.082 105.818C279.816 105.782 280.551 105.747 281.286 105.709C281.432 105.699 281.568 105.697 281.714 105.687C281.827 105.683 281.94 105.678 282.053 105.675C282.529 105.653 282.997 105.64 283.474 105.626C283.643 105.627 283.821 105.616 283.998 105.616C284.118 105.613 284.247 105.61 284.369 105.607C284.449 105.602 284.539 105.606 284.62 105.601C284.7 105.605 284.782 105.6 284.862 105.594C285.628 105.576 286.403 105.56 287.169 105.558C287.307 105.556 287.435 105.551 287.564 105.557C287.661 105.553 287.766 105.557 287.861 105.553C288.007 105.551 288.143 105.557 288.287 105.555C288.772 105.549 289.255 105.555 289.738 105.557C290.004 105.552 290.27 105.554 290.536 105.559C290.818 105.562 291.1 105.566 291.382 105.568C291.559 105.568 291.736 105.575 291.912 105.583C292.025 105.579 292.13 105.584 292.235 105.588C292.299 105.583 292.355 105.585 292.42 105.588C292.637 105.597 292.855 105.598 293.072 105.599C293.41 105.605 293.757 105.62 294.095 105.634C294.311 105.64 294.529 105.646 294.744 105.652C291.802 105.565 296.914 111.212 297.041 108.215L296.966 109.984C281.872 112.641 267.115 117.225 253.055 123.638C250.377 124.854 247.72 126.147 245.082 127.506C229.265 135.65 214.459 146.185 201.21 158.96C200.841 159.32 200.463 159.681 200.093 160.051C196.806 163.272 193.617 166.632 190.544 170.122C189.174 171.679 187.824 173.26 186.498 174.876C184.503 177.291 182.561 179.768 180.673 182.304C178.153 185.684 175.725 189.176 173.396 192.772C172.837 193.617 172.277 194.481 171.741 195.344C170.835 196.784 169.959 198.235 169.083 199.703C165.048 206.53 161.463 213.526 158.343 220.626C148.844 242.128 143.468 264.722 141.964 287.338C141.743 290.672 141.603 294.002 141.55 297.337C141.52 299.015 141.513 300.695 141.53 302.368C141.528 302.611 141.541 302.844 141.54 303.088C141.862 330.437 147.8 357.43 158.9 382.183C160.955 386.777 163.197 391.302 165.621 395.726C180.611 423.243 202.363 447.293 230.215 464.952C246.424 475.217 263.545 482.601 281.047 487.243L279.342 489.699L279.347 489.701Z" fill="#F7AA3A"/>
<path d="M206.774 246.058C208.68 225.354 202.225 210.399 192.354 212.654C182.485 214.912 172.939 233.526 171.032 254.23C169.126 274.934 175.582 289.889 185.452 287.633C195.321 285.376 204.868 266.762 206.774 246.058Z" fill="#FFD244"/>
<path d="M295.73 147.659C315.267 147.452 328.949 138.227 326.291 127.052C323.633 115.877 305.881 105.864 286.345 106.07C266.808 106.276 252.886 116.624 255.544 127.798C258.202 138.973 276.193 147.865 295.73 147.659Z" fill="#F7AA3A"/>
<path d="M285.295 159.062C290.567 160.189 295.803 160.364 300.938 159.683C306.065 159.006 311.072 157.514 315.738 155.32C320.392 153.121 324.745 150.224 328.265 146.552C331.806 142.912 334.39 138.368 334.79 133.088L334.791 133.065C334.83 132.578 335.254 132.212 335.743 132.247C336.138 132.277 336.454 132.564 336.54 132.93C337.207 135.795 336.966 138.892 336.123 141.773C335.263 144.66 333.788 147.328 331.995 149.698C328.366 154.437 323.53 158.051 318.271 160.618C313.004 163.185 307.214 164.697 301.351 164.877C295.515 165.068 289.545 163.92 284.51 161.097C283.979 160.799 283.792 160.129 284.09 159.598C284.33 159.166 284.819 158.961 285.279 159.058L285.297 159.062L285.295 159.062Z" fill="#512D16"/>
<path d="M161.301 383.143C161.288 393.942 168.748 402.772 177.964 402.861C187.179 402.952 194.659 394.27 194.671 383.469C194.684 372.668 187.224 363.84 178.009 363.749C168.793 363.661 161.313 372.342 161.3 383.143" fill="#F7AA3A"/>
<path d="M172.838 383.847C175.773 391.405 183.047 395.456 189.084 392.895C195.121 390.333 197.634 382.129 194.7 374.57C191.765 367.012 184.491 362.961 178.454 365.522C172.416 368.084 169.903 376.288 172.838 383.847Z" fill="#FFD244"/>
<path d="M196.245 383.479C196.568 387.731 195.654 392.152 193.532 396.035C192.442 397.957 191.064 399.749 189.39 401.276C187.696 402.773 185.725 404.017 183.54 404.806C179.17 406.444 174.102 405.977 169.953 403.873C167.869 402.82 166.057 401.332 164.509 399.651C162.973 397.958 161.665 396.06 160.73 393.998C159.795 391.936 159.146 389.765 158.759 387.554C158.415 385.334 158.352 383.087 158.557 380.86C158.82 378.637 159.335 376.447 160.132 374.353C160.938 372.258 162.105 370.311 163.497 368.553C166.242 365.009 170.373 362.445 174.83 361.79C177.05 361.473 179.322 361.578 181.443 362.201C182.502 362.509 183.525 362.91 184.486 363.42C185.457 363.913 186.309 364.59 187.184 365.199C187.482 365.405 187.556 365.816 187.349 366.113C187.152 366.398 186.771 366.478 186.478 366.307L186.433 366.278C183.012 364.265 178.989 363.544 175.34 364.497C171.699 365.364 168.527 367.698 166.391 370.757C162.027 376.852 161.509 385.456 164.709 392.127C166.315 395.44 168.791 398.371 171.967 400.039C175.093 401.738 178.857 402.173 182.296 401.117C185.743 400.07 188.786 397.591 190.906 394.436C193.053 391.277 194.269 387.443 194.61 383.478L194.61 383.472C194.649 383.021 195.046 382.686 195.498 382.725C195.906 382.759 196.217 383.085 196.245 383.479Z" fill="#512D16"/>
<path d="M167.276 357.632C170.607 355.099 174.793 353.561 179.116 353.324C183.447 353.07 187.841 354.241 191.632 356.382C195.467 358.495 198.598 361.686 200.984 365.277C203.333 368.908 204.962 372.981 205.748 377.207C206.514 381.432 206.554 385.778 205.765 389.992C204.984 394.203 203.388 398.278 200.999 401.836C198.634 405.396 195.487 408.484 191.739 410.547C187.985 412.581 183.687 413.592 179.528 413.256C179.164 413.228 178.893 412.908 178.922 412.545C178.949 412.218 179.209 411.965 179.529 411.941L179.54 411.941C183.453 411.631 187.16 410.318 190.307 408.198C193.468 406.086 195.994 403.143 197.916 399.909C201.75 393.384 202.875 385.41 201.43 378.029C200.703 374.343 199.359 370.775 197.347 367.63C196.385 366.027 195.197 364.585 193.934 363.222C193.616 362.882 193.257 362.59 192.921 362.269C192.572 361.966 192.256 361.617 191.881 361.348L190.777 360.509C190.592 360.369 190.413 360.219 190.223 360.088L189.632 359.727L188.452 358.998C188.049 358.772 187.622 358.597 187.208 358.39C186.389 357.947 185.503 357.691 184.63 357.374C184.201 357.193 183.745 357.108 183.294 357.003L181.938 356.684C181.015 356.595 180.091 356.442 179.155 356.402C175.408 356.239 171.608 357.201 168.157 359.015C167.755 359.226 167.26 359.071 167.048 358.671C166.86 358.311 166.964 357.874 167.277 357.636" fill="#512D16"/>
<path d="M194.534 219.543C190.284 212.451 184.359 207.057 177.017 204.265C163.715 199.206 149.595 204.092 137.55 215.355C129.647 222.745 122.973 232.984 118.791 245.21C108.229 276.065 117.524 307.87 139.552 316.25C147.748 319.367 156.554 318.803 164.923 315.274C179.047 309.32 191.147 294.68 197.779 275.305" fill="#FFD244"/>
<path d="M176.629 205.284C173.547 204.324 170.356 203.86 167.195 203.902C164.033 203.954 160.898 204.486 157.901 205.472C151.878 207.389 146.439 210.929 141.636 215.135C136.846 219.387 132.719 224.339 129.336 229.796C125.913 235.222 123.224 241.116 121.215 247.232C119.169 253.338 117.898 259.696 117.391 266.102C116.854 272.509 117.22 278.981 118.464 285.265C119.761 291.528 122.013 297.633 125.556 302.948C129.052 308.277 133.94 312.723 139.866 315.43L139.871 315.43C140.313 315.634 140.508 316.156 140.306 316.596C140.12 317.006 139.659 317.202 139.242 317.07C135.964 316.039 132.827 314.457 130.016 312.402C127.198 310.354 124.708 307.86 122.554 305.117C118.279 299.586 115.386 293.086 113.702 286.36C111.975 279.627 111.456 272.639 111.807 265.736C112.176 258.823 113.532 251.987 115.63 245.409C117.795 238.853 120.729 232.525 124.505 226.709C128.32 220.934 132.916 215.588 138.348 211.243C141.052 209.065 143.926 207.062 147.021 205.423C150.113 203.786 153.392 202.45 156.817 201.607C160.239 200.781 163.797 200.411 167.306 200.69C169.059 200.827 170.797 201.105 172.49 201.535C174.181 201.974 175.827 202.553 177.407 203.251C177.957 203.496 178.206 204.142 177.963 204.691C177.736 205.203 177.162 205.454 176.64 205.291L176.632 205.291L176.629 205.284Z" fill="#512D16"/>
<path d="M191.053 263.67C194.779 239.209 183.25 217.851 165.3 215.965C147.352 214.078 129.78 232.38 126.053 256.841C122.327 281.302 133.857 302.66 151.806 304.546C169.754 306.433 187.326 288.131 191.052 263.67" fill="#F7AA3A"/>
<path d="M173.655 263.097C175.261 242.191 165.787 225.152 152.493 225.042C139.2 224.93 127.119 241.787 125.513 262.692C123.906 283.598 133.382 300.637 146.675 300.749C159.968 300.861 172.049 284.002 173.655 263.097Z" fill="#FFD244"/>
<path d="M131.722 290.715C132.86 292.393 134.12 293.975 135.551 295.366C136.952 296.782 138.517 298.013 140.184 299.039C143.518 301.09 147.337 302.231 151.164 302.348C154.998 302.492 158.847 301.637 162.381 300.03C165.924 298.44 169.219 296.225 172.109 293.539C177.92 288.186 182.348 281.311 185.226 273.869C188.18 266.446 189.655 258.422 189.385 250.501C189.148 242.61 186.995 234.695 182.541 228.473C180.324 225.373 177.45 222.811 174.122 221.127C170.792 219.446 167.05 218.604 163.262 218.79C159.468 218.946 155.688 220.086 152.173 221.841C150.413 222.719 148.719 223.759 147.099 224.92C145.48 226.085 143.965 227.404 142.497 228.782C136.659 234.359 132.231 241.461 129.146 249.117L129.146 249.122C128.963 249.573 128.45 249.79 128 249.609C127.578 249.439 127.363 248.976 127.483 248.548C129.849 240.391 133.974 232.612 139.878 226.208C142.83 223.014 146.265 220.205 150.136 218.018C153.988 215.813 158.364 214.328 162.943 213.949C167.51 213.56 172.265 214.369 176.445 216.399C180.647 218.4 184.263 221.51 187 225.153C189.762 228.794 191.737 232.925 193.039 237.191C193.693 239.326 194.198 241.496 194.568 243.683C194.918 245.873 195.135 248.078 195.239 250.282C195.597 259.115 193.838 267.899 190.585 276.017C188.934 280.078 186.832 283.957 184.345 287.582C183.095 289.393 181.728 291.125 180.278 292.785C178.825 294.447 177.221 295.978 175.547 297.426C172.193 300.316 168.372 302.731 164.196 304.397C160.023 306.045 155.43 306.842 150.897 306.439C146.372 306.009 141.983 304.38 138.364 301.76C136.559 300.443 134.924 298.926 133.505 297.248C132.082 295.569 130.887 293.733 129.85 291.835C129.561 291.308 129.756 290.645 130.284 290.356C130.781 290.084 131.394 290.239 131.707 290.698L131.72 290.717L131.722 290.715Z" fill="#512D16"/>
<path d="M323.27 231.199C319.574 230.048 315.747 229.491 311.957 229.541C308.166 229.604 304.406 230.242 300.812 231.423C293.589 233.723 287.067 237.967 281.308 243.01C275.564 248.11 270.616 254.048 266.559 260.591C262.455 267.099 259.23 274.166 256.821 281.5C254.367 288.822 252.843 296.446 252.235 304.128C251.591 311.81 252.031 319.57 253.522 327.107C255.077 334.616 257.778 341.937 262.026 348.31C266.218 354.701 272.08 360.032 279.186 363.278L279.192 363.278C279.722 363.523 279.956 364.149 279.713 364.677C279.49 365.168 278.938 365.403 278.438 365.245C274.507 364.008 270.745 362.111 267.374 359.647C263.996 357.192 261.009 354.201 258.426 350.912C253.3 344.279 249.831 336.484 247.811 328.419C245.74 320.346 245.118 311.966 245.539 303.688C245.982 295.399 247.607 287.202 250.123 279.314C252.72 271.452 256.238 263.864 260.766 256.89C265.341 249.965 270.852 243.555 277.365 238.345C280.608 235.732 284.055 233.331 287.765 231.366C291.473 229.402 295.405 227.8 299.512 226.789C303.616 225.798 307.882 225.355 312.089 225.689C314.192 225.853 316.276 226.188 318.306 226.702C320.334 227.229 322.307 227.924 324.203 228.761C324.862 229.055 325.161 229.828 324.869 230.487C324.597 231.102 323.909 231.402 323.283 231.207L323.273 231.207L323.27 231.199Z" fill="#512D16"/>
<path d="M340.567 301.21C345.035 271.878 331.21 246.267 309.686 244.006C288.164 241.743 267.092 263.689 262.623 293.021C258.155 322.352 271.982 347.964 293.504 350.225C315.026 352.488 336.097 330.542 340.565 301.21" fill="#F7AA3A"/>
<path d="M319.704 300.523C321.63 275.455 310.269 255.023 294.328 254.89C278.388 254.756 263.902 274.97 261.976 300.038C260.048 325.107 271.411 345.539 287.352 345.673C303.292 345.807 317.779 325.592 319.704 300.523Z" fill="#FFD244"/>
<path d="M269.42 333.64C270.785 335.653 272.296 337.55 274.012 339.218C275.693 340.916 277.569 342.391 279.567 343.622C283.566 346.081 288.145 347.45 292.734 347.59C297.331 347.762 301.947 346.737 306.185 344.81C310.433 342.904 314.385 340.248 317.85 337.027C324.818 330.608 330.128 322.363 333.58 313.44C337.122 304.539 338.89 294.917 338.566 285.418C338.282 275.956 335.7 266.465 330.359 259.004C327.701 255.286 324.255 252.215 320.264 250.195C316.271 248.179 311.784 247.169 307.241 247.393C302.692 247.58 298.159 248.947 293.944 251.051C291.833 252.105 289.802 253.352 287.86 254.744C285.918 256.14 284.101 257.722 282.341 259.374C275.34 266.061 270.03 274.578 266.332 283.759L266.331 283.765C266.112 284.306 265.497 284.566 264.958 284.349C264.452 284.145 264.193 283.589 264.338 283.077C267.174 273.296 272.121 263.967 279.201 256.288C282.74 252.458 286.859 249.09 291.501 246.467C296.12 243.823 301.368 242.042 306.858 241.588C312.335 241.122 318.037 242.091 323.05 244.526C328.088 246.925 332.424 250.654 335.706 255.022C339.018 259.389 341.386 264.342 342.948 269.458C343.732 272.018 344.338 274.62 344.781 277.243C345.201 279.869 345.461 282.512 345.586 285.156C346.015 295.748 343.906 306.281 340.005 316.016C338.025 320.885 335.505 325.536 332.522 329.884C331.024 332.056 329.385 334.132 327.646 336.123C325.903 338.115 323.98 339.951 321.972 341.688C317.95 345.154 313.368 348.05 308.361 350.047C303.357 352.023 297.85 352.979 292.413 352.495C286.988 351.98 281.725 350.026 277.385 346.885C275.221 345.306 273.26 343.487 271.559 341.474C269.852 339.461 268.419 337.259 267.176 334.984C266.829 334.352 267.063 333.557 267.696 333.21C268.292 332.884 269.027 333.07 269.403 333.62L269.418 333.642L269.42 333.64Z" fill="#512D16"/>
<path d="M294.947 147.616C311.501 147.561 323.044 140.343 320.73 131.495C318.416 122.647 303.121 115.517 286.569 115.573C270.015 115.627 258.472 122.845 260.786 131.694C263.099 140.544 278.394 147.672 294.947 147.618" fill="#FFD244"/>
<path d="M262.583 113.479C260.532 115.557 258.971 118.036 258.325 120.679C257.667 123.322 257.94 126.082 258.973 128.561C259.977 131.063 261.695 133.306 263.736 135.229C265.784 137.158 268.142 138.815 270.683 140.166C275.767 142.874 281.422 144.622 287.198 145.386C290.083 145.809 293.005 145.972 295.906 145.92C298.807 145.845 301.692 145.517 304.502 144.948C307.313 144.379 310.043 143.505 312.571 142.308C315.082 141.095 317.389 139.546 319.215 137.653C321.034 135.757 322.287 133.48 322.678 131.025C323.075 128.57 322.671 125.98 321.522 123.564C320.387 121.142 318.608 118.92 316.526 116.967C315.48 115.992 314.357 115.08 313.175 114.231C311.986 113.391 310.735 112.629 309.459 111.893C304.311 109.002 298.523 107.149 292.569 106.053L292.56 106.053C292.082 105.963 291.767 105.504 291.855 105.025C291.935 104.588 292.327 104.287 292.758 104.307C299.004 104.585 305.274 105.969 311.114 108.615C314.025 109.953 316.821 111.622 319.372 113.701C321.933 115.757 324.203 118.318 325.854 121.38C327.495 124.421 328.402 128.125 327.895 131.772C327.443 135.426 325.663 138.818 323.312 141.414C320.963 144.048 318.078 145.979 315.084 147.473C312.074 148.943 308.918 149.988 305.718 150.68C299.305 152.064 292.732 152.042 286.353 151.097C283.164 150.586 280.014 149.814 276.951 148.752C273.885 147.706 270.903 146.368 268.107 144.673C265.309 142.993 262.667 140.979 260.372 138.557C258.114 136.114 256.178 133.236 255.11 129.935C254.059 126.646 254.014 122.953 255.196 119.712C255.785 118.096 256.628 116.605 257.645 115.285C258.676 113.973 259.869 112.834 261.141 111.839C261.616 111.468 262.303 111.552 262.674 112.028C263.015 112.465 262.971 113.081 262.592 113.466L262.582 113.475L262.583 113.479Z" fill="#512D16"/>
<path d="M289.571 498.783C399.93 503.438 493.168 417.749 497.824 307.391C502.48 197.032 416.79 103.794 306.432 99.1381" stroke="#512D16" stroke-width="6"/>
<path d="M390.228 351.906C388.322 372.61 394.777 387.565 404.648 385.31C414.517 383.052 424.063 364.438 425.97 343.734C427.876 323.03 421.42 308.075 411.55 310.331C401.681 312.588 392.133 331.202 390.228 351.906Z" fill="#FFD244"/>
<path d="M435.701 214.82C435.714 204.021 428.254 195.191 419.038 195.102C409.823 195.011 402.343 203.693 402.331 214.494C402.318 225.295 409.778 234.123 418.993 234.213C428.209 234.302 435.689 225.621 435.702 214.82" fill="#F7AA3A"/>
<path d="M424.164 214.116C421.23 206.558 413.956 202.507 407.918 205.068C401.881 207.63 399.368 215.834 402.303 223.392C405.238 230.951 412.512 235.002 418.549 232.441C424.586 229.879 427.099 221.675 424.164 214.116Z" fill="#FFD244"/>
<path d="M400.757 214.484C400.434 210.232 401.348 205.811 403.47 201.928C404.56 200.006 405.938 198.214 407.612 196.687C409.306 195.19 411.277 193.946 413.462 193.157C417.832 191.519 422.9 191.986 427.049 194.09C429.133 195.143 430.945 196.631 432.493 198.312C434.029 200.005 435.337 201.902 436.272 203.965C437.207 206.027 437.856 208.198 438.243 210.409C438.587 212.629 438.649 214.876 438.445 217.102C438.182 219.326 437.667 221.516 436.87 223.61C436.064 225.704 434.897 227.651 433.505 229.41C430.76 232.954 426.629 235.518 422.172 236.173C419.952 236.49 417.68 236.385 415.559 235.762C414.5 235.454 413.477 235.053 412.516 234.543C411.545 234.05 410.693 233.373 409.818 232.764C409.52 232.558 409.446 232.147 409.653 231.85C409.85 231.565 410.231 231.485 410.524 231.656L410.569 231.684C413.99 233.697 418.013 234.419 421.661 233.466C425.303 232.599 428.475 230.265 430.611 227.206C434.975 221.111 435.492 212.507 432.293 205.836C430.687 202.523 428.211 199.592 425.035 197.924C421.909 196.225 418.145 195.79 414.706 196.846C411.259 197.893 408.216 200.372 406.096 203.527C403.949 206.686 402.733 210.52 402.392 214.485L402.392 214.491C402.353 214.942 401.956 215.276 401.504 215.237C401.096 215.204 400.785 214.877 400.757 214.484Z" fill="#512D16"/>
<path d="M429.726 240.331C426.396 242.864 422.209 244.402 417.887 244.639C413.556 244.893 409.162 243.722 405.371 241.581C401.535 239.468 398.404 236.277 396.018 232.686C393.67 229.055 392.041 224.982 391.255 220.756C390.489 216.531 390.448 212.185 391.238 207.971C392.018 203.759 393.615 199.685 396.003 196.126C398.368 192.567 401.515 189.479 405.264 187.415C409.017 185.382 413.316 184.371 417.475 184.707C417.838 184.735 418.109 185.055 418.081 185.418C418.054 185.745 417.793 185.998 417.474 186.022L417.462 186.022C413.549 186.332 409.843 187.645 406.695 189.765C403.535 191.877 401.008 194.82 399.086 198.054C395.252 204.578 394.127 212.553 395.572 219.934C396.299 223.619 397.643 227.188 399.656 230.333C400.617 231.936 401.805 233.378 403.068 234.741C403.387 235.081 403.746 235.373 404.082 235.693C404.43 235.996 404.747 236.346 405.121 236.615L406.226 237.454C406.41 237.594 406.589 237.744 406.779 237.875L407.37 238.236L408.551 238.965C408.954 239.191 409.38 239.366 409.794 239.572C410.614 240.016 411.499 240.272 412.372 240.589C412.802 240.77 413.257 240.855 413.708 240.96L415.065 241.279C415.987 241.368 416.912 241.521 417.848 241.561C421.595 241.724 425.394 240.762 428.845 238.948C429.247 238.736 429.742 238.892 429.954 239.291C430.143 239.652 430.038 240.089 429.725 240.327" fill="#512D16"/>
<path d="M402.468 378.421C406.718 385.513 412.643 390.907 419.985 393.699C433.287 398.758 447.407 393.872 459.452 382.609C467.355 375.219 474.029 364.979 478.211 352.754C488.773 321.899 479.478 290.093 457.45 281.714C449.254 278.597 440.448 279.161 432.079 282.69C417.955 288.644 405.855 303.284 399.222 322.659" fill="#FFD244"/>
<path d="M420.373 392.68C423.456 393.64 426.647 394.104 429.808 394.062C432.969 394.009 436.104 393.477 439.101 392.492C445.125 390.574 450.564 387.035 455.367 382.829C460.156 378.577 464.283 373.625 467.666 368.168C471.089 362.741 473.778 356.848 475.787 350.732C477.834 344.626 479.104 338.268 479.612 331.862C480.149 325.455 479.782 318.983 478.538 312.698C477.242 306.436 474.989 300.331 471.446 295.016C467.95 289.687 463.062 285.241 457.136 282.534L457.131 282.534C456.689 282.33 456.494 281.808 456.697 281.368C456.883 280.958 457.343 280.762 457.76 280.894C461.038 281.925 464.176 283.507 466.986 285.562C469.804 287.609 472.295 290.103 474.449 292.847C478.723 298.378 481.616 304.878 483.301 311.604C485.028 318.337 485.546 325.325 485.196 332.228C484.826 339.141 483.471 345.977 481.373 352.555C479.207 359.111 476.273 365.439 472.498 371.255C468.682 377.03 464.086 382.376 458.655 386.72C455.95 388.899 453.076 390.902 449.982 392.54C446.889 394.178 443.611 395.514 440.186 396.357C436.763 397.183 433.206 397.553 429.697 397.274C427.943 397.137 426.206 396.859 424.512 396.429C422.821 395.99 421.176 395.41 419.595 394.713C419.045 394.467 418.796 393.822 419.04 393.273C419.267 392.76 419.84 392.51 420.362 392.672L420.37 392.673L420.373 392.68Z" fill="#512D16"/>
<path d="M405.949 334.294C402.223 358.754 413.752 380.113 431.702 381.998C449.65 383.885 467.222 365.584 470.949 341.123C474.675 316.662 463.144 295.304 445.196 293.418C427.248 291.531 409.676 309.833 405.95 334.294" fill="#F7AA3A"/>
<path d="M423.347 334.867C421.741 355.773 431.215 372.812 444.509 372.922C457.802 373.034 469.883 356.177 471.489 335.272C473.096 314.366 463.62 297.327 450.327 297.215C437.034 297.103 424.953 313.962 423.347 334.867Z" fill="#FFD244"/>
<path d="M465.28 307.249C464.142 305.571 462.882 303.988 461.451 302.598C460.05 301.182 458.485 299.951 456.818 298.925C453.484 296.874 449.665 295.732 445.838 295.616C442.004 295.472 438.155 296.327 434.621 297.934C431.078 299.524 427.783 301.739 424.893 304.425C419.082 309.778 414.654 316.653 411.776 324.094C408.822 331.518 407.347 339.541 407.617 347.463C407.854 355.354 410.007 363.269 414.461 369.491C416.678 372.591 419.551 375.153 422.88 376.837C426.21 378.518 429.952 379.36 433.74 379.174C437.534 379.017 441.314 377.878 444.829 376.123C446.589 375.245 448.283 374.204 449.902 373.043C451.522 371.879 453.037 370.56 454.505 369.182C460.343 363.605 464.771 356.503 467.856 348.847L467.856 348.842C468.039 348.391 468.552 348.174 469.002 348.355C469.423 348.525 469.639 348.988 469.518 349.416C467.153 357.573 463.028 365.352 457.123 371.756C454.172 374.95 450.737 377.759 446.866 379.946C443.014 382.151 438.638 383.636 434.059 384.015C429.492 384.403 424.737 383.595 420.557 381.565C416.355 379.564 412.739 376.454 410.002 372.811C407.24 369.169 405.265 365.039 403.963 360.773C403.309 358.638 402.804 356.468 402.434 354.28C402.084 352.091 401.867 349.886 401.763 347.682C401.405 338.848 403.164 330.065 406.417 321.947C408.068 317.886 410.17 314.007 412.657 310.381C413.907 308.57 415.273 306.839 416.724 305.179C418.177 303.517 419.781 301.986 421.455 300.538C424.809 297.648 428.63 295.233 432.806 293.567C436.979 291.919 441.572 291.122 446.105 291.525C450.63 291.955 455.019 293.584 458.638 296.204C460.443 297.521 462.078 299.038 463.497 300.716C464.92 302.395 466.115 304.231 467.152 306.128C467.441 306.656 467.246 307.319 466.718 307.608C466.221 307.88 465.608 307.725 465.295 307.266L465.282 307.247L465.28 307.249Z" fill="#512D16"/>
<path d="M237.294 478.606C238.425 479.831 239.733 480.863 241.157 481.66C242.585 482.453 244.125 483.025 245.72 483.358C248.909 484.056 252.256 483.878 255.491 483.237C258.731 482.571 261.856 481.422 264.778 479.855C267.711 478.312 270.436 476.37 272.914 474.153C275.406 471.95 277.617 469.434 279.498 466.7C281.393 463.973 282.9 460.983 283.967 457.851C285.004 454.715 285.573 451.403 285.361 448.11C285.174 444.823 284.135 441.572 282.183 438.831L282.181 438.83C282.036 438.624 282.084 438.341 282.288 438.196C282.477 438.061 282.734 438.092 282.886 438.259C284.086 439.567 285.081 441.084 285.807 442.73C286.539 444.373 287.009 446.132 287.264 447.915C287.748 451.493 287.363 455.148 286.38 458.591C285.414 462.049 283.841 465.309 281.901 468.306C279.951 471.302 277.579 474.01 274.942 476.411C272.28 478.784 269.333 480.857 266.143 482.483C262.945 484.081 259.508 485.286 255.957 485.826C254.184 486.102 252.381 486.256 250.574 486.19C248.768 486.124 246.957 485.874 245.207 485.367C243.462 484.853 241.776 484.099 240.278 483.069C239.529 482.555 238.824 481.981 238.177 481.352C237.534 480.719 236.948 480.034 236.421 479.314C236.239 479.062 236.294 478.709 236.545 478.526C236.778 478.356 237.1 478.392 237.291 478.6L237.295 478.602L237.294 478.606Z" fill="#512D16"/>
<path d="M245.919 448.765C237.936 458.745 237.577 471.276 245.119 476.755C252.66 482.234 265.246 478.585 273.23 468.607C281.214 458.627 281.572 446.096 274.031 440.618C266.49 435.138 253.903 438.787 245.92 448.766" fill="#F7AA3A"/>
<path d="M253.554 453.514C247.437 462.451 247.274 472.519 253.192 476.002C259.109 479.485 268.866 475.064 274.983 466.128C281.101 457.192 281.263 447.123 275.346 443.64C269.428 440.157 259.671 444.578 253.554 453.514Z" fill="#FFD244"/>
<path d="M279.443 451.99C279.367 450.946 279.212 449.912 278.932 448.921C278.67 447.926 278.288 446.971 277.808 446.082C276.846 444.303 275.433 442.806 273.751 441.766C272.073 440.711 270.131 440.1 268.135 439.906C266.14 439.702 264.093 439.842 262.107 440.297C258.126 441.191 254.369 443.123 251.16 445.708C247.922 448.265 245.19 451.473 243.265 455.087C241.333 458.677 240.252 462.774 240.638 466.707C240.829 468.666 241.453 470.554 242.506 472.167C243.562 473.779 245.018 475.122 246.761 476.017C248.498 476.927 250.483 477.394 252.509 477.516C253.523 477.578 254.549 477.55 255.573 477.449C256.598 477.347 257.617 477.148 258.629 476.91C262.681 475.924 266.496 473.89 269.853 471.262L269.854 471.26C270.052 471.106 270.338 471.141 270.492 471.338C270.637 471.523 270.614 471.786 270.449 471.946C267.285 474.984 263.431 477.398 259.136 478.738C256.991 479.404 254.729 479.774 252.433 479.752C250.14 479.744 247.799 479.278 245.653 478.265C243.51 477.259 241.592 475.67 240.246 473.682C238.884 471.702 238.069 469.377 237.786 467.041C237.491 464.699 237.674 462.341 238.193 460.096C238.452 458.973 238.787 457.872 239.186 456.798C239.595 455.728 240.067 454.686 240.59 453.673C242.711 449.629 245.766 446.154 249.318 443.363C251.105 441.973 253.047 440.781 255.096 439.802C256.122 439.314 257.181 438.893 258.258 438.525C259.338 438.157 260.45 437.886 261.573 437.67C263.82 437.244 266.153 437.151 268.451 437.484C270.743 437.824 273.003 438.654 274.927 440.005C276.84 441.366 278.382 443.228 279.324 445.334C279.792 446.389 280.132 447.49 280.333 448.608C280.536 449.726 280.596 450.856 280.57 451.972C280.563 452.283 280.304 452.529 279.994 452.522C279.701 452.516 279.467 452.288 279.445 452.002L279.445 451.99L279.443 451.99Z" fill="#512D16"/>
<path d="M372.898 373.011C373 376.493 372.09 380.062 370.212 383.147C369.25 384.671 368.06 386.08 366.637 387.261C365.2 388.418 363.548 389.36 361.736 389.923C359.931 390.491 357.986 390.694 356.092 390.44C354.198 390.224 352.343 389.621 350.686 388.693C349.022 387.766 347.591 386.495 346.385 385.077C345.189 383.649 344.186 382.062 343.489 380.353C342.795 378.644 342.338 376.856 342.094 375.043C341.887 373.225 341.914 371.395 342.154 369.59C342.442 367.79 342.937 366.024 343.657 364.346C344.385 362.67 345.404 361.123 346.6 359.738C348.961 356.945 352.419 354.995 356.085 354.606C357.912 354.418 359.766 354.578 361.483 355.152C362.34 355.436 363.167 355.795 363.938 356.239C364.72 356.67 365.397 357.251 366.095 357.773C366.317 357.939 366.362 358.252 366.196 358.472C366.043 358.675 365.767 358.729 365.55 358.61L365.485 358.574C364.767 358.177 364.089 357.73 363.336 357.436C362.597 357.121 361.832 356.88 361.057 356.717C360.281 356.56 359.497 356.468 358.713 356.46C357.928 356.491 357.149 356.516 356.39 356.688C353.342 357.265 350.629 359.071 348.749 361.513C344.914 366.375 344.182 373.442 346.599 379.054C347.815 381.841 349.77 384.345 352.352 385.834C354.894 387.343 358.01 387.833 360.901 387.072C363.798 386.319 366.399 384.373 368.251 381.846C370.126 379.314 371.25 376.203 371.647 372.961L371.647 372.956C371.689 372.614 372.004 372.369 372.349 372.411C372.661 372.45 372.892 372.71 372.9 373.014" fill="#512D16"/>
<path d="M350.113 350.712C352.92 348.775 356.376 347.675 359.891 347.639C363.416 347.588 366.939 348.696 369.938 350.571C372.974 352.426 375.405 355.128 377.218 358.135C378.999 361.17 380.181 364.543 380.677 368.009C381.157 371.476 381.042 375.016 380.261 378.423C379.488 381.826 378.055 385.092 376 387.914C373.962 390.735 371.307 393.15 368.195 394.711C365.081 396.249 361.556 396.937 358.181 396.539C357.905 396.507 357.709 396.256 357.741 395.979C357.77 395.729 357.978 395.542 358.223 395.535L358.233 395.535C361.44 395.433 364.525 394.494 367.181 392.871C369.849 391.253 372.025 388.931 373.718 386.342C377.096 381.122 378.297 374.608 377.37 368.495C376.903 365.441 375.922 362.463 374.378 359.807C373.643 358.457 372.716 357.232 371.726 356.068C371.477 355.778 371.192 355.525 370.926 355.252C370.65 354.99 370.403 354.693 370.103 354.459L369.224 353.732C369.077 353.611 368.935 353.482 368.784 353.367L368.31 353.052L367.366 352.413C367.042 352.214 366.697 352.056 366.365 351.874C365.707 351.482 364.989 351.242 364.282 350.954C363.935 350.792 363.564 350.705 363.198 350.605L362.094 350.3C361.341 350.197 360.586 350.041 359.821 349.981C356.754 349.729 353.611 350.402 350.737 351.788C350.426 351.938 350.054 351.807 349.905 351.495C349.769 351.214 349.864 350.881 350.113 350.709" fill="#512D16"/>
</svg>
