<svg width="460" height="460" viewBox="0 0 460 460" fill="none" xmlns="http://www.w3.org/2000/svg">
<circle cx="230" cy="230" r="230" fill="url(#paint0_radial_2001_35)" fill-opacity="0.4"/>
<circle cx="230" cy="230.002" r="200" fill="#FFD244"/>
<path d="M430 230.002C430 119.545 340.457 30.002 230 30.002C119.543 30.002 30 119.545 30 230.002" stroke="#512D16" stroke-width="6"/>
<path d="M38.6422 218.404L38.6422 217.349C38.6422 216.592 36.9914 217.428 36.9995 216.67C37.0076 215.897 37.0174 215.132 37.0417 214.367C37.0758 213.038 37.118 211.709 37.1927 210.381C37.2008 210.179 37.2089 209.971 37.2187 209.761C37.2365 209.568 37.2446 209.374 37.2511 209.172C37.2933 208.327 37.3437 207.482 37.4021 206.637C37.4102 206.556 37.4199 206.467 37.4199 206.379C37.4702 205.662 37.5287 204.946 37.5871 204.229C37.6293 203.769 37.6699 203.318 37.7121 202.859C37.7202 202.73 37.7284 202.609 37.7446 202.481C37.7689 202.222 37.7949 201.966 37.8192 201.708C37.8371 201.506 37.8533 201.305 37.8712 201.096C37.8955 200.83 37.9296 200.564 37.954 200.298C38.0871 198.994 38.2462 197.681 38.4134 196.376C38.8565 192.85 39.4068 189.33 40.074 185.811C43.7588 166.293 50.7567 147.023 61.2982 128.721C77.7679 100.152 100.88 77.4034 127.74 61.2672C132.058 58.6584 136.485 56.2281 140.988 53.9808C165.251 41.8462 191.97 34.7757 219.281 33.3031C219.525 33.2952 219.757 33.2718 220 33.2639C221.671 33.1747 223.349 33.1106 225.027 33.0699C228.36 32.9807 231.693 32.9807 235.035 33.0621C257.694 33.6098 280.496 38.0308 302.378 46.6146C309.603 49.433 316.744 52.7179 323.735 56.4628C325.238 57.2766 326.725 58.0904 328.202 58.9354C329.089 59.4347 329.973 59.9589 330.842 60.4816C334.533 62.6553 338.124 64.9339 341.607 67.3095C344.221 69.0889 346.777 70.9261 349.274 72.8166C350.944 74.0732 352.581 75.3534 354.194 76.6585C357.811 79.5819 361.301 82.6241 364.659 85.7744C365.044 86.1281 365.421 86.4896 365.796 86.8448C379.118 99.5429 390.268 113.892 399.071 129.352C400.542 131.93 401.944 134.531 403.272 137.155C412.643 155.61 418.798 175.459 421.48 195.831C421.589 196.669 421.69 197.506 421.789 198.351C421.889 199.172 421.98 200.002 422.065 200.831L422.065 200.847C422.081 201.024 422.105 201.21 422.123 201.387C422.131 201.476 422.139 201.564 422.147 201.661C422.155 201.758 422.164 201.863 422.173 201.958C422.24 202.69 422.306 203.423 422.375 204.155C422.391 204.301 422.399 204.437 422.415 204.582C422.423 204.695 422.433 204.808 422.441 204.921C422.483 205.395 422.516 205.863 422.55 206.338C422.556 206.507 422.574 206.684 422.582 206.861C422.59 206.982 422.599 207.11 422.607 207.232C422.615 207.312 422.615 207.401 422.623 207.482C422.623 207.562 422.631 207.644 422.641 207.723C422.691 208.489 422.74 209.262 422.774 210.027C422.782 210.165 422.792 210.293 422.792 210.421C422.8 210.518 422.8 210.623 422.808 210.719C422.816 210.864 422.816 211 422.824 211.144C422.85 211.628 422.865 212.111 422.883 212.593C422.899 212.859 422.909 213.126 422.915 213.392C422.923 213.673 422.931 213.955 422.941 214.237C422.949 214.413 422.949 214.59 422.949 214.767C422.957 214.88 422.957 214.985 422.957 215.09C422.965 215.154 422.965 215.21 422.965 215.274C422.965 215.492 422.974 215.709 422.982 215.927C422.99 216.265 422.99 216.612 422.99 216.95C422.993 217.166 422.996 217.384 423 217.6C422.962 214.656 417.536 220.002 420.535 220.002L418.764 220.002C415.474 205.033 410.271 190.482 403.272 176.706C401.944 174.082 400.54 171.481 399.071 168.903C390.268 153.443 379.118 139.094 365.796 126.396C365.421 126.042 365.044 125.679 364.659 125.325C361.302 122.177 357.811 119.133 354.194 116.21C352.581 114.906 350.944 113.624 349.274 112.368C346.777 110.476 344.221 108.64 341.607 106.861C338.124 104.485 334.533 102.206 330.842 100.031C329.973 99.5084 329.087 98.9857 328.202 98.4865C326.725 97.6414 325.238 96.8276 323.735 96.0139C316.744 92.2705 309.603 88.9841 302.378 86.1656C280.494 77.5819 257.694 73.1624 235.035 72.6131C231.694 72.5333 228.362 72.5333 225.027 72.6209C223.349 72.6616 221.671 72.7258 220 72.8134C219.757 72.8212 219.525 72.8447 219.281 72.8541C191.97 74.3283 165.251 81.3988 140.988 93.5318C136.485 95.7791 132.058 98.2095 127.74 100.818C100.88 116.954 77.7679 139.701 61.2982 168.272C51.7258 184.9 45.0704 202.316 41.1697 219.999L38.6439 218.399L38.6422 218.404Z" fill="#F7AA3A"/>
<path d="M279.011 135.626C299.777 136.657 314.447 129.578 311.777 119.811C309.105 110.045 290.105 101.292 269.34 100.26C248.574 99.2284 233.904 106.309 236.574 116.075C239.245 125.84 258.245 134.595 279.011 135.626Z" fill="#FFD244"/>
<path d="M381.071 220.355C382.101 239.866 391.894 253.148 402.948 250.021C414.001 246.894 423.257 228.735 422.227 209.226C421.198 189.715 410.272 176.241 399.22 179.368C388.167 182.495 380.042 200.844 381.071 220.355Z" fill="#F7AA3A"/>
<path d="M369.238 210.411C368.334 215.725 368.381 220.964 369.278 226.065C370.17 231.16 371.872 236.099 374.26 240.669C376.653 245.226 379.732 249.453 383.549 252.815C387.334 256.199 391.984 258.589 397.275 258.767L397.298 258.767C397.787 258.785 398.171 259.194 398.156 259.684C398.143 260.079 397.869 260.407 397.507 260.508C394.673 261.296 391.568 261.185 388.655 260.465C385.734 259.727 383.006 258.366 380.563 256.674C375.675 253.248 371.86 248.569 369.074 243.423C366.287 238.269 364.533 232.547 364.105 226.697C363.669 220.875 364.564 214.861 367.173 209.712C367.447 209.169 368.109 208.954 368.652 209.229C369.094 209.45 369.319 209.931 369.242 210.394L369.238 210.412L369.238 210.411Z" fill="#512D16"/>
<path d="M140.13 95.972C129.339 96.4139 120.832 104.24 121.131 113.451C121.429 122.662 130.419 129.769 141.21 129.326C152.002 128.884 160.508 121.058 160.21 111.847C159.911 102.636 150.921 95.5284 140.13 95.9704" fill="#F7AA3A"/>
<path d="M139.913 107.528C132.484 110.779 128.744 118.217 131.558 124.141C134.371 130.065 142.674 132.23 150.102 128.979C157.531 125.728 161.271 118.29 158.458 112.366C155.644 106.442 147.341 104.277 139.913 107.528Z" fill="#FFD244"/>
<path d="M141.267 130.899C137.033 131.4 132.577 130.674 128.608 128.717C126.642 127.709 124.793 126.408 123.197 124.799C121.63 123.171 120.304 121.254 119.424 119.104C117.603 114.807 117.856 109.724 119.783 105.49C120.748 103.363 122.158 101.489 123.772 99.8723C125.399 98.2668 127.239 96.8797 129.26 95.8585C131.281 94.8372 133.423 94.0974 135.616 93.6174C137.819 93.1804 140.062 93.0232 142.295 93.1341C144.528 93.3029 146.737 93.725 148.863 94.4334C150.99 95.1501 152.984 96.2342 154.8 97.5501C158.456 100.144 161.192 104.163 162.035 108.588C162.445 110.793 162.435 113.067 161.902 115.213C161.639 116.283 161.281 117.323 160.813 118.304C160.361 119.296 159.721 120.175 159.15 121.075C158.956 121.381 158.549 121.472 158.243 121.279C157.95 121.093 157.854 120.716 158.013 120.416L158.039 120.37C159.906 116.868 160.457 112.817 159.352 109.212C158.332 105.611 155.866 102.54 152.719 100.534C146.446 96.4312 137.828 96.2773 131.298 99.7548C128.055 101.499 125.232 104.096 123.699 107.34C122.133 110.535 121.857 114.314 123.057 117.705C124.249 121.105 126.854 124.041 130.095 126.026C133.342 128.038 137.223 129.091 141.199 129.265L141.206 129.265C141.658 129.285 142.009 129.667 141.989 130.121C141.972 130.53 141.659 130.854 141.267 130.899Z" fill="#512D16"/>
<path d="M165.869 100.866C168.541 104.087 170.254 108.205 170.673 112.514C171.11 116.83 170.125 121.269 168.145 125.148C166.195 129.069 163.14 132.331 159.652 134.867C156.124 137.366 152.123 139.165 147.934 140.129C143.744 141.072 139.405 141.295 135.161 140.685C130.92 140.082 126.782 138.659 123.126 136.423C119.47 134.21 116.252 131.196 114.032 127.538C111.843 123.873 110.651 119.621 110.811 115.451C110.825 115.087 111.132 114.803 111.497 114.816C111.824 114.829 112.088 115.079 112.126 115.397L112.126 115.408C112.601 119.305 114.069 122.953 116.32 126.008C118.563 129.077 121.61 131.477 124.922 133.261C131.602 136.817 139.616 137.604 146.931 135.85C150.582 134.968 154.091 133.475 157.148 131.331C158.709 130.303 160.099 129.055 161.409 127.736C161.735 127.404 162.011 127.033 162.317 126.684C162.605 126.323 162.941 125.992 163.194 125.606L163.986 124.467C164.118 124.277 164.26 124.092 164.383 123.896L164.719 123.29L165.398 122.08C165.606 121.668 165.763 121.235 165.952 120.813C166.361 119.975 166.579 119.08 166.859 118.194C167.021 117.757 167.087 117.299 167.174 116.843L167.435 115.475C167.485 114.549 167.599 113.619 167.599 112.682C167.604 108.932 166.483 105.176 164.525 101.805C164.297 101.412 164.431 100.911 164.822 100.682C165.174 100.479 165.614 100.565 165.866 100.868" fill="#512D16"/>
<path d="M304.986 122.279C311.893 117.734 317.032 111.587 319.512 104.133C324.005 90.6305 318.528 76.7287 306.768 65.1689C299.052 57.5849 288.54 51.3482 276.149 47.6853C244.876 38.4328 213.491 49.0607 206.047 71.4222C203.278 79.7427 204.213 88.5168 208.092 96.7298C214.636 110.59 229.773 122.062 249.41 127.872" fill="#FFD244"/>
<path d="M318.477 103.789C319.306 100.669 319.635 97.4613 319.46 94.3049C319.275 91.1485 318.611 88.0384 317.5 85.0856C315.33 79.1484 311.565 73.8634 307.16 69.2422C302.71 64.6358 297.589 60.7213 291.994 57.5715C286.428 54.3803 280.426 51.9422 274.231 50.1927C268.044 48.4051 261.638 47.4037 255.216 47.167C248.792 46.9005 242.342 47.5395 236.115 49.0473C229.913 50.6065 223.908 53.1141 218.747 56.8779C213.57 60.5955 209.334 65.667 206.88 71.7017L206.88 71.7067C206.694 72.1569 206.181 72.3737 205.733 72.19C205.316 72.0212 205.1 71.5694 205.215 71.1473C206.107 67.8286 207.555 64.6275 209.49 61.7326C211.417 58.8311 213.803 56.2374 216.453 53.9698C221.799 49.4661 228.172 46.3014 234.821 44.335C241.475 42.3256 248.435 41.5129 255.347 41.5725C262.269 41.6503 269.156 42.7163 275.816 44.5353C282.459 46.4222 288.904 49.0871 294.874 52.6143C300.805 56.1828 306.339 60.5492 310.909 65.7928C313.2 68.403 315.322 71.1903 317.09 74.2127C318.856 77.2334 320.329 80.4527 321.316 83.8392C322.285 87.224 322.805 90.7628 322.674 94.2801C322.612 96.0379 322.406 97.7858 322.049 99.4956C321.681 101.204 321.172 102.872 320.541 104.481C320.319 105.04 319.685 105.317 319.126 105.097C318.604 104.891 318.33 104.329 318.47 103.801L318.47 103.792L318.477 103.789Z" fill="#512D16"/>
<path d="M260.751 120.661C285.347 123.353 306.201 110.934 307.328 92.9205C308.457 74.9088 289.43 58.1236 264.834 55.4307C240.238 52.7393 219.385 65.1598 218.258 83.1715C217.129 101.183 236.155 117.968 260.751 120.66" fill="#F7AA3A"/>
<path d="M260.591 103.255C281.545 103.978 298.17 93.7937 297.72 80.5076C297.271 67.2215 279.92 55.862 258.965 55.1387C238.011 54.4137 221.386 64.5997 221.835 77.8858C222.283 91.1719 239.636 102.531 260.591 103.255Z" fill="#FFD244"/>
<path d="M231.229 62.5224C229.601 63.7306 228.073 65.0564 226.744 66.5444C225.388 68.0043 224.225 69.6198 223.27 71.3279C221.361 74.7458 220.381 78.6091 220.426 82.4375C220.444 86.2742 221.46 90.0844 223.215 93.547C224.953 97.0196 227.305 100.219 230.11 102.993C235.703 108.573 242.759 112.707 250.315 115.27C257.856 117.908 265.935 119.043 273.839 118.439C281.712 117.87 289.53 115.385 295.558 110.673C298.562 108.328 301 105.348 302.543 101.952C304.082 98.554 304.766 94.7802 304.42 91.003C304.104 87.2193 302.806 83.4902 300.904 80.0523C299.952 78.331 298.842 76.6824 297.614 75.1133C296.382 73.5442 295 72.086 293.562 70.6774C287.744 65.0796 280.461 60.9549 272.682 58.1957L272.677 58.1957C272.218 58.0319 271.98 57.5287 272.142 57.0719C272.294 56.6432 272.748 56.4081 273.18 56.5107C281.429 58.5301 289.376 62.3237 296.023 67.953C299.338 70.7668 302.289 74.0805 304.638 77.856C307.003 81.6116 308.672 85.9216 309.243 90.48C309.824 95.0268 309.216 99.8119 307.364 104.074C305.542 108.356 302.587 112.1 299.064 114.988C295.541 117.901 291.498 120.048 287.29 121.529C285.185 122.273 283.038 122.869 280.868 123.33C278.695 123.772 276.502 124.082 274.304 124.279C265.493 125.009 256.643 123.622 248.395 120.714C244.269 119.235 240.305 117.299 236.577 114.967C234.715 113.795 232.928 112.502 231.208 111.123C229.486 109.741 227.889 108.204 226.371 106.592C223.342 103.362 220.769 99.6464 218.928 95.5448C217.106 91.445 216.116 86.8899 216.328 82.3431C216.566 77.8046 218.009 73.3505 220.474 69.6247C221.714 67.7659 223.16 66.0677 224.777 64.5797C226.395 63.0868 228.179 61.8156 230.031 60.7C230.546 60.3888 231.216 60.556 231.527 61.0708C231.82 61.5557 231.691 62.1748 231.246 62.5074L231.228 62.5207L231.229 62.5224Z" fill="#512D16"/>
<path d="M381.08 219.571C381.833 236.108 389.532 247.336 398.274 244.652C407.017 241.967 413.495 226.385 412.742 209.85C411.991 193.313 404.293 182.084 395.548 184.769C386.804 187.454 380.327 203.036 381.079 219.571" fill="#FFD244"/>
<path d="M413.824 185.797C411.661 183.835 409.118 182.38 406.45 181.846C403.782 181.3 401.036 181.689 398.603 182.826C396.145 183.935 393.977 185.745 392.141 187.866C390.3 189.993 388.745 192.419 387.502 195.014C385.01 200.208 383.503 205.932 382.983 211.735C382.682 214.635 382.642 217.561 382.816 220.458C383.013 223.353 383.463 226.221 384.15 229.005C384.837 231.789 385.825 234.481 387.127 236.955C388.445 239.413 390.09 241.652 392.058 243.397C394.03 245.135 396.357 246.29 398.826 246.578C401.296 246.871 403.866 246.358 406.232 245.108C408.603 243.872 410.749 242.002 412.612 239.838C413.542 238.753 414.406 237.592 415.204 236.376C415.994 235.153 416.702 233.87 417.384 232.564C420.056 227.299 421.663 221.438 422.507 215.443L422.507 215.434C422.576 214.953 423.022 214.618 423.503 214.686C423.944 214.747 424.261 215.127 424.26 215.559C424.245 221.81 423.126 228.133 420.729 234.08C419.514 237.044 417.965 239.908 415.995 242.545C414.049 245.19 411.586 247.566 408.597 249.344C405.627 251.112 401.964 252.174 398.3 251.822C394.63 251.524 391.166 249.889 388.473 247.649C385.742 245.413 383.691 242.612 382.073 239.684C380.477 236.738 379.3 233.63 378.474 230.462C376.821 224.112 376.566 217.545 377.241 211.131C377.617 207.923 378.256 204.744 379.188 201.638C380.103 198.532 381.314 195.496 382.89 192.631C384.451 189.764 386.351 187.04 388.675 184.645C391.02 182.286 393.814 180.23 397.067 179.024C400.309 177.835 403.997 177.635 407.284 178.679C408.925 179.199 410.449 179.979 411.811 180.939C413.165 181.914 414.354 183.057 415.401 184.287C415.792 184.746 415.737 185.436 415.277 185.827C414.855 186.186 414.238 186.167 413.837 185.805L413.827 185.795L413.824 185.797Z" fill="#512D16"/>
<path d="M30 229.002C30 339.459 119.543 429.002 230 429.002C340.457 429.002 430 339.459 430 229.002" stroke="#512D16" stroke-width="6"/>
<path d="M180.989 323.378C160.223 322.347 145.553 329.426 148.223 339.193C150.894 348.959 169.894 357.711 190.66 358.744C211.426 359.775 226.096 352.695 223.426 342.929C220.754 333.164 201.755 324.409 180.989 323.378Z" fill="#FFD244"/>
<path d="M319.87 363.032C330.661 362.59 339.168 354.765 338.869 345.554C338.571 336.343 329.581 329.235 318.79 329.679C307.998 330.121 299.492 337.947 299.79 347.158C300.089 356.369 309.079 363.476 319.87 363.034" fill="#F7AA3A"/>
<path d="M320.087 351.476C327.515 348.226 331.256 340.787 328.442 334.863C325.628 328.94 317.326 326.775 309.897 330.025C302.469 333.276 298.728 340.714 301.542 346.638C304.356 352.562 312.658 354.727 320.087 351.476Z" fill="#FFD244"/>
<path d="M318.732 328.106C322.966 327.604 327.422 328.331 331.391 330.287C333.358 331.295 335.206 332.596 336.802 334.205C338.37 335.834 339.695 337.75 340.576 339.901C342.397 344.197 342.143 349.28 340.217 353.514C339.252 355.641 337.842 357.515 336.228 359.132C334.601 360.738 332.76 362.125 330.739 363.146C328.718 364.167 326.576 364.907 324.383 365.387C322.18 365.824 319.937 365.981 317.705 365.87C315.472 365.702 313.262 365.279 311.137 364.571C309.01 363.854 307.015 362.77 305.2 361.454C301.543 358.861 298.807 354.842 297.965 350.416C297.554 348.211 297.564 345.937 298.097 343.792C298.36 342.721 298.718 341.682 299.186 340.7C299.638 339.709 300.279 338.83 300.85 337.929C301.044 337.623 301.451 337.532 301.757 337.726C302.05 337.911 302.146 338.288 301.987 338.588L301.961 338.634C300.093 342.137 299.542 346.187 300.648 349.792C301.668 353.394 304.134 356.464 307.28 358.47C313.553 362.573 322.172 362.727 328.702 359.25C331.944 357.505 334.768 354.908 336.301 351.664C337.866 348.469 338.143 344.691 336.943 341.299C335.751 337.899 333.146 334.963 329.905 332.979C326.657 330.966 322.776 329.913 318.8 329.739L318.794 329.739C318.342 329.72 317.991 329.337 318.011 328.884C318.027 328.475 318.34 328.15 318.732 328.106Z" fill="#512D16"/>
<path d="M294.13 358.138C291.459 354.917 289.746 350.799 289.327 346.491C288.89 342.174 289.875 337.735 291.854 333.857C293.804 329.936 296.86 326.673 300.347 324.138C303.876 321.638 307.877 319.839 312.066 318.876C316.255 317.932 320.595 317.709 324.839 318.32C329.079 318.922 333.217 320.346 336.874 322.582C340.53 324.795 343.748 327.809 345.967 331.467C348.157 335.131 349.349 339.384 349.188 343.553C349.175 343.917 348.867 344.202 348.503 344.189C348.175 344.175 347.912 343.925 347.874 343.608L347.874 343.596C347.399 339.7 345.931 336.052 343.68 332.996C341.437 329.927 338.39 327.527 335.078 325.743C328.397 322.188 320.383 321.4 313.069 323.154C309.417 324.037 305.909 325.53 302.851 327.673C301.291 328.701 299.9 329.949 298.591 331.268C298.265 331.601 297.988 331.972 297.682 332.321C297.394 332.682 297.058 333.013 296.805 333.398L296.014 334.537C295.881 334.728 295.739 334.913 295.617 335.108L295.281 335.714L294.602 336.924C294.393 337.336 294.236 337.77 294.048 338.192C293.639 339.029 293.42 339.925 293.14 340.81C292.978 341.247 292.912 341.706 292.826 342.161L292.564 343.53C292.515 344.455 292.401 345.385 292.401 346.322C292.396 350.073 293.516 353.828 295.474 357.2C295.703 357.592 295.569 358.094 295.178 358.322C294.825 358.526 294.385 358.44 294.134 358.137" fill="#512D16"/>
<path d="M155.013 336.725C148.106 341.27 142.966 347.417 140.487 354.87C135.993 368.373 141.47 382.275 153.23 393.835C160.947 401.419 171.459 407.656 183.849 411.319C215.122 420.571 246.508 409.943 253.951 387.582C256.72 379.261 255.785 370.487 251.907 362.274C245.362 348.414 230.226 336.942 210.589 331.132" fill="#FFD244"/>
<path d="M141.522 355.215C140.693 358.335 140.364 361.543 140.539 364.699C140.724 367.856 141.388 370.966 142.499 373.919C144.669 379.856 148.434 385.141 152.839 389.762C157.289 394.369 162.41 398.283 168.005 401.433C173.571 404.624 179.573 407.062 185.768 408.812C191.955 410.599 198.361 411.601 204.783 411.837C211.207 412.104 217.657 411.465 223.884 409.957C230.086 408.398 236.091 405.89 241.252 402.126C246.429 398.409 250.665 393.337 253.119 387.303L253.119 387.298C253.305 386.847 253.818 386.631 254.266 386.814C254.683 386.983 254.899 387.435 254.784 387.857C253.892 391.176 252.444 394.377 250.509 397.272C248.582 400.173 246.196 402.767 243.546 405.035C238.2 409.538 231.827 412.703 225.178 414.669C218.524 416.679 211.564 417.491 204.652 417.432C197.73 417.354 190.843 416.288 184.183 414.469C177.54 412.582 171.095 409.917 165.125 406.39C159.194 402.822 153.66 398.455 149.09 393.212C146.799 390.601 144.677 387.814 142.909 384.792C141.143 381.771 139.67 378.552 138.684 375.165C137.714 371.78 137.194 368.242 137.325 364.724C137.388 362.967 137.593 361.219 137.95 359.509C138.318 357.801 138.828 356.132 139.458 354.523C139.68 353.964 140.314 353.688 140.873 353.908C141.395 354.113 141.669 354.676 141.529 355.204L141.529 355.212L141.522 355.215Z" fill="#512D16"/>
<path d="M199.248 338.343C174.652 335.651 153.798 348.07 152.671 366.083C151.542 384.095 170.569 400.88 195.165 403.573C219.761 406.265 240.614 393.844 241.741 375.832C242.87 357.821 223.844 341.036 199.248 338.344" fill="#F7AA3A"/>
<path d="M199.408 355.75C178.454 355.026 161.829 365.211 162.279 378.497C162.728 391.783 180.079 403.142 201.034 403.866C221.988 404.591 238.613 394.405 238.164 381.119C237.716 367.832 220.363 356.473 199.408 355.75Z" fill="#FFD244"/>
<path d="M228.77 396.482C230.398 395.274 231.926 393.948 233.255 392.46C234.611 391 235.774 389.385 236.729 387.677C238.638 384.259 239.618 380.395 239.573 376.567C239.555 372.73 238.539 368.92 236.784 365.457C235.046 361.985 232.694 358.785 229.889 356.011C224.296 350.432 217.24 346.297 209.684 343.735C202.143 341.096 194.064 339.961 186.16 340.565C178.287 341.134 170.469 343.619 164.441 348.331C161.437 350.677 158.999 353.656 157.456 357.052C155.917 360.45 155.233 364.224 155.579 368.001C155.895 371.785 157.193 375.514 159.095 378.952C160.047 380.673 161.157 382.322 162.385 383.891C163.617 385.46 164.999 386.918 166.437 388.327C172.255 393.925 179.538 398.049 187.317 400.809L187.322 400.809C187.781 400.973 188.019 401.476 187.857 401.933C187.705 402.361 187.251 402.596 186.819 402.494C178.57 400.474 170.623 396.681 163.976 391.051C160.661 388.238 157.71 384.924 155.361 381.148C152.996 377.393 151.327 373.083 150.756 368.524C150.175 363.978 150.783 359.192 152.635 354.93C154.457 350.648 157.412 346.904 160.935 344.016C164.458 341.103 168.501 338.956 172.709 337.475C174.814 336.732 176.961 336.136 179.131 335.674C181.304 335.232 183.497 334.923 185.695 334.726C194.506 333.996 203.356 335.383 211.604 338.291C215.73 339.769 219.694 341.706 223.422 344.038C225.284 345.21 227.071 346.502 228.791 347.881C230.513 349.263 232.11 350.801 233.628 352.413C236.657 355.642 239.23 359.358 241.071 363.46C242.893 367.559 243.883 372.114 243.671 376.661C243.433 381.2 241.99 385.654 239.525 389.38C238.285 391.238 236.839 392.937 235.222 394.425C233.604 395.918 231.82 397.189 229.968 398.304C229.453 398.616 228.783 398.448 228.472 397.934C228.179 397.449 228.308 396.83 228.753 396.497L228.771 396.484L228.77 396.482Z" fill="#512D16"/>
<path d="M47.955 175.921C46.7784 177.103 45.8026 178.452 45.066 179.91C44.3337 181.369 43.8274 182.932 43.5617 184.54C42.999 187.756 43.3185 191.092 44.0952 194.297C44.8964 197.507 46.1762 200.58 47.8652 203.434C49.5309 206.299 51.5858 208.939 53.9052 211.322C56.211 213.719 58.8177 215.821 61.6291 217.586C64.4337 219.364 67.4839 220.744 70.6585 221.677C73.8354 222.582 77.169 223.011 80.4495 222.66C83.7254 222.334 86.9297 221.159 89.5861 219.094L89.5874 219.092C89.7866 218.938 90.0721 218.974 90.2253 219.172C90.3683 219.355 90.3478 219.613 90.1878 219.772C88.9317 221.026 87.4571 222.084 85.844 222.879C84.2329 223.679 82.4955 224.223 80.7246 224.553C77.1701 225.187 73.5024 224.957 70.0206 224.119C66.5254 223.3 63.2022 221.866 60.1259 220.054C57.0498 218.232 54.2444 215.976 51.7349 213.443C49.2511 210.883 47.0563 208.027 45.2967 204.907C43.5656 201.78 42.2174 198.397 41.5274 194.871C41.1768 193.112 40.9475 191.318 40.9373 189.509C40.9275 187.702 41.0999 185.881 41.5332 184.112C41.9735 182.347 42.6549 180.63 43.6218 179.091C44.1038 178.321 44.647 177.592 45.2485 176.919C45.854 176.25 46.5129 175.636 47.2105 175.079C47.4542 174.886 47.8091 174.926 48.0025 175.169C48.1827 175.395 48.1603 175.718 47.961 175.918L47.9588 175.922L47.955 175.921Z" fill="#512D16"/>
<path d="M78.1327 183.28C67.8259 175.725 55.2908 175.894 50.1347 183.661C44.9782 191.426 49.154 203.847 59.4603 211.404C69.7671 218.959 82.3026 218.789 87.4583 211.024C92.6147 203.259 88.439 190.837 78.1322 183.281" fill="#F7AA3A"/>
<path d="M73.7099 191.109C64.5237 185.373 54.4574 185.636 51.2276 191.695C47.9971 197.754 52.8248 207.316 62.011 213.051C71.1968 218.787 81.2636 218.524 84.4941 212.465C87.7246 206.406 82.8962 196.844 73.7099 191.109Z" fill="#FFD244"/>
<path d="M76.3235 216.911C77.364 216.791 78.3898 216.593 79.3685 216.27C80.3519 215.967 81.2896 215.545 82.1579 215.028C83.8942 213.992 85.3302 212.517 86.2989 210.793C87.2816 209.072 87.811 207.105 87.9204 205.103C88.0398 203.101 87.814 201.063 87.2755 199.097C86.2148 195.157 84.1264 191.485 81.4083 188.388C78.7165 185.26 75.396 182.666 71.7048 180.895C68.0358 179.117 63.8975 178.209 59.9841 178.76C58.0346 179.033 56.1747 179.736 54.6075 180.857C53.0414 181.98 51.7611 183.491 50.9404 185.27C50.1046 187.044 49.722 189.047 49.6849 191.076C49.666 192.092 49.7371 193.116 49.8812 194.135C50.0268 195.155 50.2684 196.164 50.5481 197.166C51.7048 201.172 53.8972 204.898 56.6644 208.141L56.6666 208.142C56.8294 208.334 56.806 208.621 56.6155 208.783C56.4367 208.936 56.1731 208.924 56.0064 208.766C52.8379 205.733 50.2631 201.983 48.7436 197.749C47.9873 195.634 47.523 193.39 47.4474 191.094C47.3593 188.804 47.7261 186.445 48.6479 184.258C49.5622 182.075 51.0697 180.091 52.9988 178.663C54.9198 177.218 57.2082 176.307 59.5304 175.925C61.8582 175.531 64.2213 175.615 66.4859 176.039C67.6195 176.25 68.7337 176.538 69.8236 176.892C70.9098 177.256 71.9707 177.684 73.0048 178.163C77.1343 180.112 80.7348 183.018 83.673 186.449C85.137 188.176 86.4101 190.066 87.4751 192.071C88.0054 193.076 88.4711 194.116 88.8843 195.177C89.2974 196.24 89.6147 197.34 89.8773 198.453C90.3982 200.68 90.5898 203.007 90.3539 205.317C90.1103 207.621 89.3766 209.914 88.1077 211.893C86.829 213.862 85.0331 215.482 82.9685 216.512C81.934 217.023 80.8483 217.409 79.7407 217.657C78.6318 217.907 77.5054 218.015 76.3889 218.036C76.0782 218.042 75.8216 217.794 75.8153 217.483C75.8095 217.191 76.0271 216.947 76.3122 216.913L76.3238 216.912L76.3235 216.911Z" fill="#512D16"/>
<path d="M159.172 306.953C155.698 307.202 152.093 306.443 148.932 304.697C147.368 303.8 145.91 302.67 144.671 301.299C143.454 299.912 142.444 298.301 141.805 296.514C141.161 294.735 140.876 292.8 141.05 290.897C141.187 288.995 141.711 287.117 142.568 285.422C143.424 283.72 144.633 282.237 145.999 280.972C147.376 279.718 148.919 278.649 150.598 277.88C152.275 277.115 154.043 276.582 155.843 276.262C157.651 275.979 159.48 275.929 161.295 276.092C163.105 276.304 164.89 276.725 166.597 277.374C168.303 278.03 169.891 278.982 171.325 280.119C174.215 282.36 176.309 285.733 176.852 289.38C177.117 291.197 177.035 293.056 176.535 294.796C176.287 295.664 175.962 296.505 175.552 297.295C175.154 298.094 174.602 298.795 174.11 299.515C173.954 299.743 173.643 299.802 173.415 299.644C173.207 299.501 173.141 299.226 173.251 299.005L173.284 298.938C173.65 298.204 174.069 297.508 174.33 296.744C174.614 295.992 174.823 295.217 174.953 294.437C175.077 293.654 175.136 292.867 175.111 292.083C175.046 291.3 174.988 290.523 174.785 289.772C174.08 286.751 172.161 284.116 169.642 282.341C164.622 278.715 157.531 278.282 152.026 280.933C149.293 282.265 146.873 284.323 145.495 286.966C144.094 289.569 143.736 292.703 144.618 295.56C145.492 298.423 147.547 300.939 150.149 302.683C152.758 304.449 155.914 305.441 159.17 305.701L159.175 305.701C159.518 305.729 159.776 306.033 159.748 306.379C159.723 306.693 159.473 306.934 159.17 306.956" fill="#512D16"/>
<path d="M180.492 283.248C182.545 285.971 183.79 289.377 183.974 292.888C184.173 296.408 183.215 299.974 181.468 303.05C179.743 306.161 177.146 308.704 174.218 310.642C171.26 312.55 167.94 313.873 164.498 314.514C161.054 315.14 157.513 315.174 154.076 314.538C150.643 313.908 147.319 312.615 144.414 310.681C141.509 308.763 138.985 306.213 137.294 303.169C135.626 300.123 134.79 296.63 135.045 293.241C135.065 292.964 135.308 292.757 135.586 292.777C135.837 292.796 136.033 292.997 136.05 293.241L136.05 293.251C136.288 296.451 137.356 299.493 139.089 302.079C140.818 304.675 143.23 306.752 145.887 308.335C151.246 311.489 157.804 312.415 163.873 311.231C166.904 310.635 169.839 309.53 172.427 307.875C173.745 307.084 174.93 306.106 176.051 305.068C176.33 304.808 176.571 304.512 176.832 304.235C177.082 303.947 177.369 303.688 177.59 303.378L178.279 302.47C178.394 302.318 178.517 302.171 178.625 302.014L178.921 301.528L179.519 300.557C179.704 300.226 179.848 299.875 180.016 299.535C180.379 298.861 180.589 298.133 180.846 297.415C180.994 297.062 181.065 296.688 181.149 296.317L181.408 295.202C181.479 294.445 181.603 293.684 181.63 292.917C181.753 289.842 180.949 286.73 179.442 283.917C179.279 283.612 179.394 283.236 179.7 283.073C179.975 282.926 180.312 283.007 180.494 283.248" fill="#512D16"/>
<path d="M383.718 101.409L224 232.999" stroke="#512D16" stroke-width="4"/>
<path d="M416.5 159.5L224.001 232.999" stroke="#512D16" stroke-width="4"/>
<path d="M422.5 222L382 223.5" stroke="#512D16" stroke-width="4"/>
<path d="M366 225L224 233" stroke="#512D16" stroke-width="4"/>
<path d="M95.5006 80.4994L120.5 108.5" stroke="#512D16" stroke-width="4"/>
<path d="M145 139L224 233" stroke="#512D16" stroke-width="4"/>
<path d="M45.0005 301.999L224 232.999" stroke="#512D16" stroke-width="4"/>
<path d="M422 281.5L224 232.999" stroke="#512D16" stroke-width="4"/>
<defs>
<radialGradient id="paint0_radial_2001_35" cx="0" cy="0" r="1" gradientUnits="userSpaceOnUse" gradientTransform="translate(239.607 230.565) rotate(88.166) scale(229.552)">
<stop offset="0.264166" stop-color="white" stop-opacity="0"/>
<stop offset="1" stop-color="white"/>
</radialGradient>
</defs>
</svg>
