<svg width="150" height="150" viewBox="0 0 150 150" fill="none" xmlns="http://www.w3.org/2000/svg">
<path d="M147.555 43.6729C147.555 43.6729 116.128 46.6881 87.0389 15.9978L87.0323 15.9852C86.6898 15.6162 86.3381 15.2445 85.9956 14.8755C85.9956 14.8755 88.5064 13.7512 92.8656 13.0105C99.6526 11.8716 110.902 11.6685 124.047 18.1569C140.324 26.189 145.421 36.6118 146.935 41.255C147.08 41.6924 147.196 42.0906 147.288 42.4191C147.497 43.2189 147.555 43.6729 147.555 43.6729Z" fill="#4CE550"/>
<g opacity="0.25">
<path d="M147.555 43.6731C147.555 43.6731 116.128 46.6883 87.0389 15.9981L87.0323 15.9855C86.6898 15.6164 86.3381 15.2448 85.9956 14.8757C85.9956 14.8757 88.5064 13.7514 92.8656 13.0107C92.8656 13.0107 115.425 35.181 147.288 42.4194C147.497 43.2191 147.555 43.6731 147.555 43.6731Z" fill="#512D16"/>
</g>
<g opacity="0.6">
<path d="M146.935 41.2551C126.666 11.8949 90.5705 18.2193 90.5705 18.2193C89.048 17.387 87.8945 16.6496 87.0389 15.9979L87.0323 15.9853C86.6898 15.6163 86.3381 15.2446 85.9956 14.8756C85.9956 14.8756 102.456 7.50714 124.047 18.1569C140.324 26.189 145.421 36.6118 146.935 41.2551H146.935Z" fill="white"/>
</g>
<path d="M86.0828 13.3914C86.6801 13.4419 87.1719 13.5136 87.7015 13.5899C88.2225 13.6649 88.7322 13.7631 89.2473 13.8494L90.7718 14.1567C91.2789 14.2615 91.7786 14.3863 92.2824 14.5005C93.2919 14.7195 94.2781 15.0082 95.2737 15.2657C96.2613 15.5478 97.2429 15.8471 98.2258 16.1378C102.142 17.3531 105.958 18.8252 109.71 20.4194C113.476 21.9844 117.131 23.785 120.745 25.6454C122.551 26.5772 124.313 27.596 126.091 28.5716C126.97 29.08 127.84 29.605 128.708 30.13L131.311 31.707C131.331 31.7189 131.337 31.7454 131.325 31.766C131.314 31.7846 131.289 31.7912 131.27 31.7819C129.43 30.9244 127.599 30.0583 125.776 29.1809L120.242 26.6953L117.455 25.5073L116.062 24.9159L114.655 24.3591L111.848 23.2335L109.014 22.1861C105.227 20.8222 101.402 19.5758 97.5309 18.5471L94.6199 17.8269L93.1591 17.5057C92.6733 17.3916 92.1861 17.2907 91.6977 17.2004C91.2098 17.1082 90.7227 17.0046 90.2342 16.9217L88.7707 16.6801C88.2849 16.6157 87.7958 16.542 87.3133 16.4843C86.8387 16.4279 86.3263 16.3721 85.9128 16.3489L85.8757 16.3469C85.0587 16.3004 84.4341 15.6009 84.4799 14.7839C84.5264 13.9669 85.2259 13.3423 86.0429 13.3881C86.0542 13.3881 86.0728 13.3901 86.0841 13.3908L86.0828 13.3914Z" fill="#512D16"/>
<path d="M145.124 45.4246C141.78 45.4246 135.428 45.0542 127.348 42.8381C116.446 39.8475 100.21 32.7638 84.7705 15.9993C84.4075 15.6051 84.2562 15.0595 84.3643 14.5339C84.4725 14.0089 84.827 13.5675 85.3161 13.3485C86.0176 13.0346 102.746 5.79159 124.78 16.6584C146.912 27.573 149.124 42.8155 149.207 43.4587C149.264 43.9067 149.138 44.3587 148.857 44.7117C148.576 45.0648 148.163 45.2885 147.713 45.3316C147.605 45.3423 146.697 45.4239 145.124 45.4239V45.4246ZM88.985 15.6091C103.292 30.3983 118.044 36.8057 128.07 39.58C136.098 41.8007 142.418 42.0954 145.443 42.0835C144.135 37.9559 139.376 27.5736 123.306 19.6484C107.309 11.7589 94.1241 14.1337 88.985 15.6091Z" fill="#512D16"/>
<path d="M79.4868 26.7463C79.4868 26.7463 81.9326 15.1912 80.2249 6.03479L87.2256 1.48047C87.2256 1.48047 89.2067 16.1622 79.4868 26.7463Z" fill="#B76E51"/>
<path d="M79.4868 28.2279C79.2565 28.2279 79.0242 28.1742 78.8092 28.0633C78.2159 27.758 77.8999 27.093 78.038 26.4399C78.0619 26.3271 80.4014 15.0574 78.7687 6.30719C78.6586 5.71782 78.9147 5.12049 79.4172 4.79395L86.4179 0.239627C86.844 -0.037137 87.3816 -0.0769603 87.8435 0.134761C88.3055 0.346482 88.626 0.779882 88.6937 1.28297C88.7787 1.91083 90.6523 16.7791 80.578 27.7487C80.2899 28.062 79.8917 28.2279 79.4862 28.2279H79.4868ZM81.8483 6.74656C82.6029 11.6354 82.3182 16.9702 81.8742 20.9465C85.4953 14.5391 85.95 7.66446 85.8969 4.11299L81.8483 6.74722V6.74656Z" fill="#512D16"/>
<path d="M64.7028 148.141C99.4106 148.141 127.547 120.005 127.547 85.2971C127.547 50.5893 99.4106 22.4531 64.7028 22.4531C29.9951 22.4531 1.85889 50.5893 1.85889 85.2971C1.85889 120.005 29.9951 148.141 64.7028 148.141Z" fill="#FF9517"/>
<g opacity="0.25">
<path d="M117.605 103.692C110.939 126.945 92.0066 143.369 69.8443 147.946C62.4898 148.557 54.905 147.862 47.3846 145.706C26.7986 139.805 11.5759 124.281 5.17383 105.429C12.0796 112.744 20.9713 118.367 31.3416 121.34C62.1148 130.162 94.2154 112.366 103.037 81.5932C107.231 66.9672 105.403 52.0426 99.0273 39.4614C116.458 55.0246 124.476 79.7262 117.605 103.692Z" fill="#512D16"/>
</g>
<g opacity="0.6">
<path d="M5.92135 74.3877C15.486 41.024 50.2865 21.7309 83.6508 31.2955C104.78 37.3531 120.253 53.5368 126.339 73.0629C121.887 50.726 105.424 31.5948 82.0214 24.8861C48.6578 15.3215 13.8566 34.614 4.29196 67.9783C0.784956 80.2123 1.17124 92.6348 4.69483 103.94C2.7993 94.4335 3.06544 84.3492 5.92068 74.3883L5.92135 74.3877Z" fill="white"/>
</g>
<g opacity="0.2">
<path d="M71.5444 37.2733C53.7824 32.115 33.5129 45.3346 25.9892 54.7598C22.2048 59.1124 24.3664 63.3793 28.8882 62.419C43.5129 59.3487 57.9398 51.2396 68.9154 46.2591C73.7976 43.9528 75.8213 38.5775 71.5444 37.274V37.2733Z" fill="white"/>
</g>
<path d="M64.6777 150C58.7894 150 52.8094 149.189 46.8739 147.488C12.5818 137.657 -7.31864 101.76 2.51211 67.4679C7.27417 50.8561 18.2206 37.0929 33.3344 28.7143C48.4482 20.3351 65.9202 18.344 82.532 23.106C99.1438 27.8681 112.907 38.8145 121.286 53.9284C129.664 69.0422 131.656 86.5141 126.894 103.126C118.765 131.482 92.8081 150 64.6777 150ZM64.7269 24.298C38.2047 24.298 13.7373 41.7541 6.07221 68.4886C-3.19573 100.818 15.5651 134.66 47.8941 143.928C53.4884 145.531 59.1292 146.296 64.6791 146.296C91.2012 146.296 115.669 128.84 123.334 102.105C127.823 86.4445 125.945 69.9727 118.047 55.7237C110.147 41.4753 97.1726 31.1554 81.5119 26.6661C75.9175 25.0626 70.2767 24.298 64.7269 24.298Z" fill="#512D16"/>
<g opacity="0.25">
<path d="M23.9957 87.0066C26.2456 87.0066 28.0695 86.0118 28.0695 84.7846C28.0695 83.5574 26.2456 82.5625 23.9957 82.5625C21.7458 82.5625 19.9219 83.5574 19.9219 84.7846C19.9219 86.0118 21.7458 87.0066 23.9957 87.0066Z" fill="#512D16"/>
</g>
<g opacity="0.25">
<path d="M63.3136 75.773C65.3249 75.773 66.9553 74.9992 66.9553 74.0447C66.9553 73.0902 65.3249 72.3164 63.3136 72.3164C61.3023 72.3164 59.6719 73.0902 59.6719 74.0447C59.6719 74.9992 61.3023 75.773 63.3136 75.773Z" fill="#512D16"/>
</g>
<g opacity="0.25">
<path d="M51.1075 101.45C52.2922 101.45 53.2526 101.064 53.2526 100.586C53.2526 100.109 52.2922 99.7222 51.1075 99.7222C49.9228 99.7222 48.9624 100.109 48.9624 100.586C48.9624 101.064 49.9228 101.45 51.1075 101.45Z" fill="#512D16"/>
</g>
<g opacity="0.25">
<path d="M89.8274 52.0702C91.1726 52.0702 92.2632 51.407 92.2632 50.5888C92.2632 49.7707 91.1726 49.1074 89.8274 49.1074C88.4821 49.1074 87.3916 49.7707 87.3916 50.5888C87.3916 51.407 88.4821 52.0702 89.8274 52.0702Z" fill="#512D16"/>
</g>
<g opacity="0.25">
<path d="M49.5494 60.7121C51.0493 60.7121 52.2652 60.1594 52.2652 59.4776C52.2652 58.7959 51.0493 58.2432 49.5494 58.2432C48.0494 58.2432 46.8335 58.7959 46.8335 59.4776C46.8335 60.1594 48.0494 60.7121 49.5494 60.7121Z" fill="#512D16"/>
</g>
<g opacity="0.25">
<path d="M86.6337 93.056C88.3975 93.056 89.8274 92.3928 89.8274 91.5746C89.8274 90.7565 88.3975 90.0933 86.6337 90.0933C84.8698 90.0933 83.4399 90.7565 83.4399 91.5746C83.4399 92.3928 84.8698 93.056 86.6337 93.056Z" fill="#512D16"/>
</g>
</svg>
