<svg width="91" height="150" viewBox="0 0 91 150" fill="none" xmlns="http://www.w3.org/2000/svg">
<path d="M73.4537 36.3888C73.4537 36.3888 77.7451 20.1419 77.9163 8.0256C77.9163 8.0256 80.6371 5.63382 82.6993 7.31639C83.4263 7.9096 83.7622 8.85483 83.6944 9.79087C83.4245 13.5339 82.0205 26.3146 75.0829 37.0831L73.4531 36.3894L73.4537 36.3888Z" fill="#B76E51"/>
<g opacity="0.6">
<path d="M78.0769 14.1564C78.0769 14.1564 80.7977 11.7647 82.8599 13.4472C83.0069 13.5672 83.1338 13.7051 83.2492 13.8509C83.5007 12.0868 83.6305 10.681 83.6948 9.79093C83.7626 8.85489 83.4267 7.90966 82.6997 7.31645C80.6375 5.63445 77.9167 8.02566 77.9167 8.02566C77.745 20.1419 73.4541 36.3888 73.4541 36.3888L74.9208 37.0131C76.1985 31.2062 77.9683 21.8503 78.0775 14.1559L78.0769 14.1564Z" fill="white"/>
</g>
<path d="M75.0828 38.4177C74.9077 38.4177 74.7302 38.3832 74.5608 38.3109L72.9317 37.6172C72.3218 37.3576 71.995 36.6897 72.1639 36.0489C72.2064 35.8881 76.4151 19.8163 76.5822 8.00728C76.5874 7.62999 76.7522 7.2728 77.0359 7.02357C78.3613 5.8584 81.2234 4.39003 83.544 6.28221C84.5747 7.12292 85.1289 8.4707 85.0273 9.88682C84.7562 13.6448 83.32 26.7648 76.2061 37.8061C75.954 38.1977 75.5256 38.4177 75.0834 38.4177H75.0828ZM79.2376 8.70385C79.0062 17.7932 76.6655 28.7455 75.455 33.8586C80.9408 23.9389 82.125 13.0119 82.3639 9.69502C82.4035 9.14488 82.2134 8.6424 81.8556 8.35068C81.0431 7.68799 79.8687 8.28637 79.237 8.70385H79.2376Z" fill="#512D16"/>
<path d="M84.936 123.54C75.0432 144.387 50.2508 154 28.8717 145.319C6.12194 136.081 -4.56787 110.035 5.0142 87.5264C8.54646 79.2296 14.3292 72.5825 21.3541 68.0028C21.3603 68.0001 21.3643 67.9967 21.3662 67.9925C22.3631 67.4222 23.3146 66.848 24.222 66.2858C24.2409 66.2783 24.253 66.268 24.2622 66.264C33.1304 60.8034 38.4153 55.9647 41.3527 52.7568C42.9761 50.9841 44.286 48.9622 45.423 46.8437C50.9106 36.615 63.3973 32.0864 74.2846 36.7213C85.172 41.3561 90.5689 53.4982 87.0004 64.5446C86.2614 66.8319 85.7124 69.1772 85.5602 71.5759C85.2845 75.9167 85.4597 83.08 87.6712 93.2575C87.6752 93.2667 87.6757 93.2828 87.6832 93.3018C87.9072 94.3452 88.153 95.4294 88.4326 96.5434C88.4307 96.5477 88.4311 96.553 88.4338 96.5595C90.1077 105.353 89.1034 114.759 84.9354 123.541L84.936 123.54Z" fill="#C9E500"/>
<g opacity="0.25">
<path d="M80.1795 123.434C72.9599 138.64 57.8225 147.873 41.8523 148.38C37.4874 148.045 33.1127 147.038 28.8707 145.318C12.6818 138.745 2.60986 123.662 1.59399 107.39C5.38926 117.096 12.9982 125.294 23.4566 129.537C42.6523 137.335 64.9266 128.701 73.815 109.976C77.5545 102.086 78.4532 93.6397 76.9504 85.7408C76.9477 85.7346 76.9473 85.7293 76.9493 85.7247C76.6989 84.7243 76.4824 83.7538 76.2774 82.8115C76.2762 82.7954 76.2728 82.7862 76.2688 82.777C74.2795 73.6297 75.0025 69.3124 75.9736 65.5292C76.6558 62.8709 76.9366 60.9615 77.272 59.2112C78.5985 52.2931 76.313 43.1268 72.091 37.9097C81.2413 43.2348 85.5172 54.2961 82.2422 64.4358C81.5014 66.7242 80.953 69.0712 80.802 71.4704C80.5263 75.8067 80.702 82.9694 82.9118 93.1516C82.9158 93.1608 82.9164 93.1768 82.9238 93.1958C83.1478 94.2392 83.3936 95.3234 83.6733 96.4375C83.6713 96.4417 83.6717 96.447 83.6744 96.4535C85.3501 105.242 84.344 114.653 80.1783 123.434L80.1795 123.434Z" fill="#512D16"/>
</g>
<g opacity="0.6">
<path d="M7.91937 90.6806C11.4516 82.3837 17.2344 75.7366 24.2593 71.1569C24.2654 71.1543 24.2695 71.1508 24.2714 71.1466C25.2683 70.5764 26.2198 70.0021 27.1272 69.4399C27.1461 69.4324 27.1582 69.4221 27.1674 69.4181C36.0356 63.9575 41.3205 59.1188 44.2578 55.911C45.8813 54.1382 47.1912 52.1163 48.3282 49.9978C53.8158 39.7692 66.3025 35.2406 77.1898 39.8754C79.5506 40.8803 81.6524 42.2396 83.4619 43.863C81.1539 40.8223 78.0478 38.3226 74.2846 36.7204C63.3973 32.0856 50.9112 36.6142 45.423 46.8429C44.2866 48.9613 42.9767 50.9827 41.3527 52.756C38.4153 55.9638 33.1299 60.8025 24.2622 66.2631C24.253 66.2671 24.2404 66.2775 24.222 66.2849C23.3141 66.8466 22.3625 67.4208 21.3662 67.9916C21.3643 67.9958 21.3603 67.9993 21.3541 68.002C14.3292 72.5817 8.54647 79.2287 5.01421 87.5256C-2.25131 104.593 2.14579 123.686 14.6101 135.951C4.40951 123.718 1.25052 106.346 7.91937 90.68V90.6806Z" fill="white"/>
</g>
<g opacity="0.6">
<path d="M38.2596 73.2998C36.3462 73.8856 35.3848 71.3232 36.9933 69.9502C39.825 67.5337 43.2723 64.2989 46.1832 60.7058C52.3605 53.0814 58.7801 43.331 64.6289 48.5355C69.6112 52.9694 52.2376 69.0182 38.2602 73.2993L38.2596 73.2998Z" fill="white"/>
</g>
<path d="M45.2242 150C39.4736 150 33.7419 148.897 28.3129 146.693C16.9541 142.08 8.12543 133.305 3.45442 121.983C-1.21774 110.659 -1.14826 98.2157 3.6491 86.9459C7.17619 78.6605 12.9997 71.693 20.4927 66.794C20.5363 66.7624 20.5817 66.7326 20.6288 66.7056C21.5016 66.206 22.4216 65.6564 23.4403 65.0253C23.4667 65.0092 23.4932 64.9937 23.5207 64.9794C32.2994 59.5693 37.4683 54.8035 40.2586 51.7559C41.6322 50.256 42.8939 48.4201 44.1159 46.1431C46.9556 40.8496 51.6502 36.8252 57.3336 34.8113C63.0521 32.7853 69.2782 32.9788 74.8651 35.3569C80.4527 37.7354 84.9089 42.0895 87.4144 47.6167C89.9038 53.1106 90.2581 59.2845 88.4113 65.0006C87.6177 67.4567 87.1686 69.6383 87.04 71.6701C86.7775 75.7932 86.9245 82.8216 89.1107 92.8998C89.1194 92.9297 89.1262 92.9595 89.1331 92.99C89.3841 94.1603 89.6253 95.2037 89.8711 96.1823C89.8843 96.2345 89.8946 96.2873 89.9021 96.3402C91.688 105.788 90.4344 115.413 86.2756 124.177C81.329 134.6 72.618 142.665 61.7479 146.885C56.3976 148.962 50.8026 149.999 45.2248 150H45.2242ZM22.1637 69.2444C15.1411 73.8235 9.68283 80.3459 6.37855 88.107C1.89474 98.6395 1.82985 110.268 6.1965 120.851C10.562 131.433 18.813 139.634 29.4298 143.944C50.2013 152.379 73.9951 143.137 83.5967 122.905C87.4925 114.695 88.6617 105.68 86.9779 96.8358C86.9779 96.8358 86.9779 96.8352 86.9779 96.8346C86.7345 95.8595 86.4944 94.8224 86.2463 93.6693C86.2417 93.6521 86.2377 93.6366 86.2349 93.6234C86.2303 93.6061 86.2262 93.5889 86.2228 93.5717C83.9556 83.1363 83.8063 75.799 84.0814 71.4811C84.2261 69.2002 84.72 66.782 85.5905 64.0881C88.9815 53.5924 83.8718 42.4133 73.7051 38.0852C63.5408 33.7581 51.9453 37.825 46.7311 47.5443C45.3913 50.0412 43.9901 52.0735 42.4477 53.7578C39.5259 56.9484 34.1336 61.9272 25.0408 67.5256C25.0253 67.5354 25.0092 67.5446 24.9931 67.5538C24.9822 67.5601 24.969 67.5676 24.9552 67.5756C23.9503 68.1975 23.0366 68.7436 22.166 69.2427C22.166 69.2427 22.1649 69.2432 22.1643 69.2438L22.1637 69.2444ZM23.4719 65.0081C23.4719 65.0081 23.4713 65.0081 23.4708 65.0087C23.4708 65.0087 23.4713 65.0087 23.4719 65.0081Z" fill="#512D16"/>
<path d="M73.4542 36.3911C62.9918 27.4292 56.536 34.1785 47.7212 25.4366C41.6048 19.3741 44.6811 10.1217 47.1372 5.02745C48.2202 2.77578 49.1827 1.33612 49.1827 1.33612C51.5297 8.84052 55.2864 9.12593 66.6665 15.9137C75.9414 21.4397 74.6068 31.5662 73.7931 35.1214C73.6145 35.9237 73.4542 36.3917 73.4542 36.3917V36.3911Z" fill="#4CE550"/>
<g opacity="0.25">
<path d="M73.4545 36.3915C62.9921 27.4296 56.5363 34.1789 47.7214 25.4369C41.605 19.3745 44.6813 10.1221 47.1374 5.02781C47.5583 4.73264 47.8104 4.56036 47.8104 4.56036C47.8104 4.56036 43.1205 19.3205 58.0012 23.5804C72.279 27.6691 71.9074 30.8062 73.7927 35.1218C73.6141 35.924 73.4539 36.3921 73.4539 36.3921L73.4545 36.3915Z" fill="#512D16"/>
</g>
<g opacity="0.6">
<path d="M51.3905 10.1073C53.4332 11.7629 55.7072 13.2818 58.0611 14.509L60.5178 15.7735C60.8193 15.9182 60.9433 16.2852 60.7894 16.5827C60.6694 16.8164 60.415 16.9364 60.1692 16.8985C57.2589 16.454 54.4519 15.2194 52.1991 13.3065C51.6294 12.7248 49.2577 10.7769 50.4815 9.98272C50.7876 9.80298 51.1493 9.87878 51.3905 10.1073Z" fill="white"/>
</g>
<path d="M72.2075 36.8666L72.0541 36.522C72.0019 36.4009 71.9376 36.2757 71.8773 36.1516C71.759 35.903 71.6366 35.652 71.5046 35.4034C71.2565 34.9021 70.9642 34.4139 70.6868 33.9224C70.0999 32.9525 69.4935 31.9883 68.8257 31.0631C67.4968 29.2106 66.0382 27.4321 64.4056 25.811C62.7621 24.2082 61.0479 22.644 59.1546 21.2956C58.2461 20.5623 57.2469 19.9645 56.2816 19.2949C55.8032 18.9515 55.2841 18.681 54.781 18.3738C54.2763 18.0706 53.7709 17.7633 53.2661 17.4475L53.2575 17.4423C53.1909 17.4004 53.1708 17.3131 53.2121 17.2465C53.2478 17.1896 53.3172 17.1667 53.3781 17.1873C53.9415 17.3774 54.5037 17.5767 55.0664 17.7794L55.9094 18.0907C56.0496 18.1441 56.1925 18.1917 56.3304 18.2497L56.7375 18.4375C57.8206 18.9452 58.9323 19.4218 59.9631 20.046C60.4823 20.3509 61.0152 20.6386 61.5257 20.9614C62.0293 21.2933 62.526 21.6378 63.0268 21.979C63.5362 22.3092 64.0059 22.691 64.4831 23.0649L65.1958 23.6311C65.3141 23.7264 65.4352 23.8183 65.5507 23.9165L65.89 24.2203L67.2482 25.4383L68.5282 26.7407C69.3637 27.6274 70.166 28.5502 70.9068 29.523C71.2955 29.9956 71.6349 30.5061 71.9887 31.0063L72.2522 31.383L72.5003 31.7712L72.9907 32.551C73.2968 33.0863 73.6138 33.6123 73.8929 34.1687C74.0376 34.4421 74.1806 34.7189 74.3098 35.0071C74.3753 35.1501 74.4425 35.2897 74.5045 35.4413C74.5682 35.5923 74.6291 35.729 74.6986 35.9122C74.961 36.6001 74.6159 37.3714 73.9279 37.6338C73.2635 37.8871 72.5221 37.5741 72.235 36.9332L72.2057 36.8672L72.2075 36.8666Z" fill="#512D16"/>
<path d="M73.4541 37.7234C73.1395 37.7234 72.8311 37.612 72.5859 37.4024C67.657 33.1816 63.6608 32.659 59.7966 32.1537C55.7216 31.6208 51.5077 31.0695 46.781 26.3818C37.2937 16.9737 47.6303 1.25686 48.0748 0.592443C48.3614 0.165195 48.8661 -0.0593404 49.3749 0.0135904C49.8837 0.0870954 50.3047 0.446007 50.458 0.936423C52.1193 6.25577 54.4715 7.55245 60.7585 11.0164C62.6478 12.0569 64.7886 13.237 67.3486 14.7628C72.3964 17.7719 75.2694 22.559 75.6587 28.607C75.947 33.0886 74.7698 36.6627 74.7192 36.8126C74.578 37.2335 74.2374 37.5569 73.8096 37.6746C73.6925 37.7067 73.573 37.7228 73.4541 37.7228V37.7234ZM48.9402 4.42504C46.6168 8.85774 42.6682 18.5443 48.66 24.4867C52.7476 28.5399 56.1742 28.9883 60.1429 29.5075C63.7842 29.9841 67.8626 30.5176 72.6651 34.0562C73.403 30.2712 73.9767 21.8228 65.9819 17.0564C63.4609 15.5536 61.3407 14.3855 59.4704 13.3548C53.9368 10.306 50.9341 8.651 48.9408 4.42447L48.9402 4.42504Z" fill="#512D16"/>
</svg>
