<svg width="40" height="40" viewBox="0 0 40 40" fill="none" xmlns="http://www.w3.org/2000/svg">
<g clip-path="url(#clip0_116_4857)">
<path d="M39.9186 4.21096C39.8864 4.06334 39.8157 3.9269 39.7136 3.81556C39.6115 3.70422 39.4816 3.62197 39.3373 3.57721C38.8121 3.47362 38.2687 3.51246 37.7636 3.68971C37.7636 3.68971 2.71733 16.286 0.71608 17.681C0.28358 17.981 0.13983 18.1547 0.0685799 18.361C-0.27767 19.3535 0.79983 19.791 0.79983 19.791L9.83233 22.7347C9.9849 22.7611 10.1415 22.7517 10.2898 22.7072C12.3448 21.4097 30.9636 9.65221 32.0398 9.25721C32.2086 9.20596 32.3336 9.25721 32.3061 9.38221C31.8661 10.8897 15.7873 25.1785 15.6986 25.266C15.6554 25.3014 15.6215 25.3467 15.5998 25.3981C15.578 25.4494 15.569 25.5053 15.5736 25.561L14.7336 34.3747C14.7336 34.3747 14.3811 37.1247 17.1261 34.3747C19.0723 32.426 20.9398 30.8135 21.8761 30.0297C24.9823 32.1735 28.3248 34.5447 29.7661 35.7797C30.0079 36.0146 30.2946 36.1983 30.609 36.3199C30.9234 36.4414 31.2592 36.4983 31.5961 36.4872C32.9711 36.4347 33.3461 34.931 33.3461 34.931C33.3461 34.931 39.7311 9.23721 39.9461 5.79346C39.9661 5.45596 39.9948 5.23971 39.9973 5.00846C40.0087 4.74024 39.9822 4.47176 39.9186 4.21096Z" fill="#512D16"/>
</g>
<defs>
<clipPath id="clip0_116_4857">
<rect width="40" height="40" fill="white"/>
</clipPath>
</defs>
</svg>
