<svg width="40" height="40" viewBox="0 0 40 40" fill="none" xmlns="http://www.w3.org/2000/svg">
<g clip-path="url(#clip0_116_4860)">
<path d="M40 7.625C38.5 8.25 37 8.75 35.25 8.875C37 7.875 38.25 6.25 38.875 4.375C37.25 5.375 35.5 6 33.625 6.375C32.125 4.75 30 3.75 27.75 3.75C23.25 3.75 19.5 7.375 19.5 12C19.5 12.625 19.625 13.25 19.75 13.875C12.875 13.5 6.875 10.25 2.75 5.25C2 6.5 1.625 7.875 1.625 9.375C1.625 12.25 3.125 14.75 5.25 16.25C3.875 16.25 2.625 15.875 1.5 15.25V15.375C1.5 19.375 4.375 22.625 8.125 23.375C7.375 23.5 6.75 23.625 6 23.625C5.5 23.625 5 23.625 4.5 23.5C5.5 26.75 8.625 29.125 12.125 29.25C9.375 31.5 5.75 32.75 1.875 32.75C1.25 32.75 0.5 32.75 -0.125 32.625C3.625 34.875 8 36.25 12.625 36.25C27.75 36.25 36 23.75 36 12.875C36 12.5 36 12.125 36 11.875C37.5 10.625 38.875 9.25 40 7.625Z" fill="#512D16"/>
</g>
<defs>
<clipPath id="clip0_116_4860">
<rect width="40" height="40" fill="white"/>
</clipPath>
</defs>
</svg>
